/* XPM */
static char *Space_with_stars_vector_background_resized[] = {
/* columns rows colors chars-per-pixel */
"64 64 30 1 ",
"  c #00000E",
". c #030213",
"X c #080716",
"o c #090917",
"O c #070618",
"+ c #080718",
"@ c #0C0B1A",
"# c #100F1D",
"$ c #12111E",
"% c #151522",
"& c #181724",
"* c #1A1A25",
"= c #1D1D29",
"- c #201F2C",
"; c #23232D",
": c #252531",
"> c #2B2B35",
", c #2D2D3A",
"< c #33333D",
"1 c #343441",
"2 c #3B3B45",
"3 c #403F4C",
"4 c #41414A",
"5 c #454450",
"6 c #494954",
"7 c #4B4A58",
"8 c #54565E",
"9 c #565660",
"0 c #61616A",
"q c #696971",
/* pixels */
"+O $$O$&.@ ..O$=XX;*@@%; ...O@$@O.....oOO... ..O.O..*&@O&#...o%*",
".=+@@+$& .X .O@o#.,$. +@.+....o...O.....O...O..o..  26OO@+....*+",
"...@& @+..@$.Oo#$. #X @; ......$.....O . .O..O..O.. ,<..%X.. .@.",
".o.OX......X+o+oO X .++@+.. $X . .....$.O$ @. .O@XO.  . O=@O...@",
".O+...O.......oXX.$X;#.OO.@.. .O.. @..O .$.. o=.XX.... .. %..O.O",
"$@$. ...OOO..$ @X.X @....XO..@....ooo..Xo....O. .  OO..... ...o.",
"........O@O .O.o.=o@X@..@...@& .....X..@.O..O....%@..OOO. *@+X..",
".. .+$ XXX@ ..+..;. ...o*....X.... . ....oOO.%.  #$O... . $OOO..",
"..% @$;= .@++ ... .>O.X@ ... $@O..$$:. ..O....... OO..OO+. .O.Oo",
"..O.. :*o....O....O*O @ O$X@.# . .XO+.O... .........O...$.......",
"O.O.... . ......... o %=.%.  O$O.....X..+@@X.@. .o+OoO.. .*.O  O",
"X== . oO.OOX..O@O.@O+O.&o.O.@@X+OO+=@@O.O+OO.@+.... ......+.OO..",
"+O@Oooo .o@.OO...#*.@@..@. .O@ ...$o$@.O.. . +$... O..=O.... +o.",
"...O@.$@..O...o=@@......... #@% +Oo@;$O. ..OO. ...* .....$.O@..O",
".XO...OoO... .XX.Oo @@+......X=.@O.O+...$. ..O**o.X....X @X@;Oo ",
"O.ooO$ .oo.X..o..o. &$ O...+....... .o$ .O... 2, ........... o:>",
"@o..O.O. ..$...........OX ...o.Xo+.;o. oO.O+O   ..Oo&..........+",
".O >@ o.OX..O.....% &$O..%O+X..X...O. OoO.@O.. $..........O&+...",
".O.$ %@ .$ 78 ...oO O....@@@.@$.O..  *@. oO..@.@......XX ..&.+=.",
".O. .+O..X.=*.O..o@%O $$$..@.@%o...O.+..$......O....oOO++...o...",
"+OO..+X+OO.oo@$oO.$%@.oo+.O@.O#.O.... .O@....O. .Oo.....O..+.o@ ",
"=%*O@$@o+ ..XX@$$... OX.. O$.o@.... . OO X...O.O..X. ...@*O...#.",
"o. .O...@..@X...>O @.  *##@o . .+........O@.. .....@.. ++;.  %+$",
"..@. X..$..*@ .@..o.=O.+.X....XO@@. ..@....$O...+.O...+X$@.o#@Oo",
"@..O...X....o.$$++@o@O...@@OX....+.. ...... ... ...,2O+O$@ O...$",
"X . .o@@;.O+@o oO.oO..O;....  ..+@.. ........O..O. 58OOOO@. +@ O",
"=o. @X .. .O...#o..O..@1  @O@X@....O$... ...@.....X. @... +.@+..",
"XO.. .@$.*- &@ X.$o.O.. O.OO$X@  @@O@ ......... @X.@; . ..%*o..O",
"OooOX.o$O%; 4> O...Oo...@@..&o$$ =O.O .XoO.O O.O@..$$.+@. OO%o..",
"@@ =O...$..o .. .X..@. ..oo.$:$oo=@.;+..O..+.OO.@ ....Oo ...OOoO",
"@;.$. @OX$@ @. . O.... ..X$%.@X..$.%8$ X.....@.  O.....$X.. .o$$",
"&$ X@Oo@ &:o& ..+$o ....O+ooXo@.X@ o&$@O@.OO. $$6+..@.O...o= @=o",
"-X... $+O .+%+..$..O..O. o$o;o...@..@$Oo,.....*@>@.$....o $* $..",
" X.oo*+ @*O. %@ .O....... ## X.Oo.+.+ .O .+O.... ;$.oO........$ ",
"X ..O=$.@= ...O...+$XO.$..oo.$ .o.o .o..O...Xo ..oO o@  %*...$;$",
"$$@o;&.$. ....;+o..+o+@oo@..oo..o$.o%%o@  . $=.o..$o.o=;+....*>@",
"$$oXo$ ..O... @o.X..$.O..XX@@@oO@%@$$O.@.#.o X.. @%Oo.%@..OO....",
".$ @O++...+*.....  OO.. ..O@.%oXX ..o#&.o.oo&*..o+ .$O . @+O..oo",
"o.o#O*$O. +;..OO.$=; .&...@O $..o@ .Xo*@X.@.@.XX.OO.oo.... ++.O@",
";. .+@ .%..o o@o.$oO....@$XXOX@@.o:.o@OX+.$@.@.@ Xo.$o.$ .... o@",
" ;@+.=%.O ..O.O%  oO .@O@XXO.@=.$.@@ . . .$.O.. ..Ooo@@=%.......",
" -$..Xo.... @O.+O.+o.O.....XOXXO@.....#$O.@$ X.X..@..o@o*oo..O..",
". OO.oo..o..  ..o.. OoO..@%@.. . .O..X.&$ .o $.$XX$...$$o@.@+O.O",
"#@O.@..%@.O =*.O....  .O.++..X6X..  ...@ .....X .X+@. X#.O..$@..",
"@.$ . O..@..oOO% ..+@ .O..+  .O. O*@O .$@...O..O.@XX&$OX....$ *@",
"$@@@.@ X...........oX........o@..;>@.@$.o...O...*$  @#o .O.O....",
"$X.o$$o$. ....OX. .O.... oO .... .oOO+&@O . &@o$ .#.o@X ..O..O..",
". @@$@$..O.. ..+@&+....$@oO OO %; @O.@...... O.o&..X@..$O.@O....",
".....@ @@#..O.OO@$oo+O ## ..@+.O+ O..X..@$ ..$... OX#$@.>&....+.",
"+O.o..$o ..... ...OO......O...@O ....OO.O .. .Oo@%..$.X@.$. .Oo.",
"...@O.$ O.O..O@. ;% ..o @$....++ .@O ..%#.... ...@....o.&;.&#.$@",
"..oOX.X&X . ...@OO... .o;$ ..O ** ..OO @O...OO #% O..@@o.o.@X.@&",
". .X ..&.$.$X.o&X O. %$Oo...+;.+&........ O.XO >:..@.X.@. .. oX.",
"O.X... .%= %O.o@.....$O&*....*+&.......X..O .OO  +.  ;@@.. .@@o ",
".oO @X >q.+.O..+@o OO. $X.OO..$% oO.oOo%O ..o...O%@#@@. +o..@# #",
"...X..#&+@X.+.XX$..@;$oO......@$.@@.O... ..OOO @;.X.$o..Oo..+. X",
"..o..$O%... %+... ..+X* . Oo..XX.@$$o...$.@o@@ $$.O@@..$o.....$.",
"O.o.+O......Oo...#+ .. o>@oo.. >$o=@O.%0.O@ooo..$+ %@.$o..O...O%",
"..O.....o.+@.... %%%. 2%%O.Xo..O.....OO&oo...OOX.O+ Xoo..Oo.@...",
"++.oo...@.+OO.....*>& o.. o.OoO+O.O.OO. ..O....*. OXo%+.......o.",
"O@@O.. o O%O..++@. oX. OOo ..o@++$O+oo$o.. ....X...X. *> +...@# ",
"<X....+@.. X.O+ooO.@...@.X..... +O..O..O..OO..........+$ o...OO.",
"$.%O..o@+O %o.o@..O@.. %%........o...$....+... +O..O. . .. .O. .",
"$o@O.o%@..O@ +@...... .$@o....++.+.... ...O .O.+o.....O .O.... ."
};
