/* XPM */
static char *Space_resized[] = {
/* columns rows colors chars-per-pixel */
"64 64 110 2 ",
"   c #040404",
".  c #080707",
"X  c #080807",
"o  c #01010D",
"O  c #08070D",
"+  c #0C0B0B",
"@  c #100F0F",
"#  c #0F100E",
"$  c #10100F",
"%  c #030213",
"&  c #080716",
"*  c #0A0A15",
"=  c #070618",
"-  c #080718",
";  c #0C0B1A",
":  c #100F15",
">  c #100F1D",
",  c #131313",
"<  c #181716",
"1  c #161814",
"2  c #191817",
"3  c #12121C",
"4  c #1C1B1B",
"5  c #201F1E",
"6  c #21201F",
"7  c #151522",
"8  c #181723",
"9  c #1A1A24",
"0  c #1D1D29",
"q  c #201F2D",
"w  c #242323",
"e  c #292726",
"r  c #292827",
"t  c #24232D",
"y  c #2C2B2A",
"u  c #312E2D",
"i  c #2D3129",
"p  c #31302F",
"a  c #31382C",
"s  c #252430",
"d  c #2D2C34",
"f  c #2D2D38",
"g  c #353433",
"h  c #383735",
"j  c #393836",
"k  c #33323B",
"l  c #39373A",
"z  c #3D3C3A",
"x  c #403F3D",
"c  c #42413F",
"v  c #323240",
"b  c #383741",
"n  c #3E3C43",
"m  c #403F45",
"M  c #454342",
"N  c #494745",
"B  c #464D43",
"V  c #4A4847",
"C  c #44434B",
"Z  c #4D4B4A",
"A  c #504E4C",
"S  c #52504E",
"D  c #4C4B54",
"F  c #555352",
"G  c #585654",
"H  c #565952",
"J  c #5B5957",
"K  c #58555B",
"L  c #5D5B5A",
"P  c #605F5C",
"I  c #63615E",
"U  c #5B5A60",
"Y  c #656361",
"T  c #686664",
"R  c #676866",
"E  c #6B6866",
"W  c #656468",
"Q  c #6E6C6A",
"!  c #706E6C",
"~  c #73716E",
"^  c #696971",
"/  c #767472",
"(  c #797674",
")  c #7B7976",
"_  c #787678",
"`  c #7D7B7A",
"'  c #817E7C",
"]  c #83807D",
"[  c #868482",
"{  c #898684",
"}  c #8C8987",
"|  c #8E8B89",
" . c #908E8B",
".. c #95918E",
"X. c #969391",
"o. c #999694",
"O. c #9C9996",
"+. c #9E9B99",
"@. c #A19E9B",
"#. c #A4A19E",
"$. c #A6A3A1",
"%. c #A9A6A3",
"&. c #ACA9A7",
"*. c #B0ACA9",
"=. c #B4B1AE",
"-. c #BAB7B4",
";. c #BDBAB6",
":. c #C0BEBA",
">. c #CCC9C6",
",. c #D2CFCB",
/* pixels */
"- = o 3 3 = 3 8 = ; o % % = 3 0 = = t 8 - ; 3 t o % % % - > $ , * * : * % % - % = % % % o % % % = = % % 0 7 - = 7 > % % % - 7 0 ",
"% 0 ; ; - - 3 8 o % % % % = ; - > % f 7 % % - 3 % , 0 < 1 1 + + X X + # < 4 > : : ; ; = % % % - % o % o n D = = ; ; % % % % 9 - ",
"% % % - 9 % ; - % % ; 3 % = - 3 > % % > = % % $ , 6 e 4 < < # X + X X   + w a 4 < 1 < : 3 - o = = % % o f v o % > = % % % % ; % ",
"% - % = = % % o % % % = - = - = - & 1 : 3 , , + $ 4 r 6 < $ + + + # # + + 9 r g 4 , , # 4 g 7 = ; = % % % o % o = q ; = % o = ; ",
"% = ; % % % = % = % % % % & 3 , $ , , 1 , $ + + + + 4 6 1 , $ $ $ $ , , < , < w w 2 1 # 4 g y 3 * 3 - % % % % % % o 7 % % % % = ",
"3 ; 3 % % % % % % = = % % + + + , , $ $ $ + + + + # + + $ : , $ , $ , < , , , , 4 1 4 4 1 4 4 < $ $ < 2 % % % % % % o % % % - % ",
"% % % % % % % % = ; = o * + + + # , , + $ + X X + + + + + $ $ , , + , < , $ $ , , 9 r l , $ , , 1 g z e d = = % % o 0 - - = % % ",
"% % o % = 3 o = & & ; X + # $ $ # # * $ $ + + X X X X $ $ + + $ 6 4 # , $ $ $ # , r 4 r p , , , $ J N r F s % % % % 3 = = & % % ",
"% % 7 % - 3 t 0 o = * + # $ + + # $ + * # , , , , $ + + , + + + 2 4 : $ < # , # $ < , 9 y , , , + d Z z x x 0 % - % o % = % = = ",
"% % % % = o s 9 & + + + + + X + # $ , $ # # $ , $ + + + + $ , , , # , , 4 , # # # 1 # w y $ $ , , , M V p r p > > % % % % % o % ",
"= = % % % % = o & # + + + + X + + + + +     . , , + @ $ + + + , 1 < < , 6 6 1 , * 1 1 e i : : , # , m Z g r 6 0 o % 0 % = o % = ",
"= 0 0 o % % & % X + + + + + + # + X O +         , + + + + , + X , O w w 9 : 2 , , # 1 6 < 4 # , # 1 i l r 6 $ + * % - % = = % % ",
"= % ; & & & - % O # # + + + + 2 + X X +         + X + , , , + + + + < r r # # , 2 , 2 1 9 4 < 4 $ $ < r y 4 $ # 1 3 % = % - - = ",
"% % % = ; % * # # + X O + X $ 1 + . X X .       X + + , , $ X + X , $ 4 9 # + # , $ r 4 2 r e 4 $ 4 9 < y k , , $ 2 - % - o % % ",
"o = = = = & O # # X X X X : < # # + . . . . .   + + + + @ @ @ $ + # , # $ , , # # , e 4 , p e 6 6 r 4 e g M x 4 + 4 s - t = ; o ",
"= % - - = : # + O + X X X , 1 + # + + + + O . + , 1 , + + @ + $ , $ $ $ , # , $ < , 1 $ 1 6 r r r y < i Z z Z g g N D o % = s d ",
"; - % % = O . . + + + X X , < # # O + + + + + O + 4 , $ @ + + @ @ X , 4 + + 1 4 2 2 1 5 2 5 e i a r h i g y F M Y _ L % = % % - ",
"% & o d :     + + + X O X < < $ # + X + # + + + < 4 + + , + + @ @ @ 5 5 , @ < 5 6 2 1 < 2 S h y h h j p r r a j F H E l % % % % ",
"% = = 3 X   . X X + .   X 4 < $ + # + + # # + X < 4 @ + @ @ , 5 5 2 2 4 , < , @ , , @ @ @ e z u z M c Z g g M z V e B H - = 0 = ",
"% = % O X X X X X X   . X , < , , , , : $ + # 1 1 2 4 4 $ + @ @ @ $ 1 : @ 5 @ @ , e 1 @ , 5 A G j h g G g e r z ` Y e c u ; % % ",
"- = % +   X X X X X . .   X $ , , , 1 # X # + < , , , + + @ + @ X @ 6 2 , @ , , 2 w 1 + 2 g c x p M y V J e e g L Y m W g 6 4 % ",
"0 7 : X X + X X + X X + .   . X + + + + + # + + + + + + , + < + X @ $ 1 + , , 5 2 $ 4 4 r x j u x Z V S T M e h L E J W V F M % ",
"& % o . X O X X X + + X .   X $ + + X O # $ $ $ + @ , @ , . , < @ + @ , < < + , 4 , 4 p c e p S c z T G M j j N L Y L ! P A F > ",
"% = X + X   X + X X X X X . + X . # #       X $ @ + 1 , + + 5 4 2 X X @ j 2 X X < 4 5 h h x V Q u h A F p w c G Z F L ! I x P * ",
"; % O + .   . . . X X + + X + + + , , X         + X 4 r . , 4 4 w + + 1 u @ + , , e r z L I V A y j M A z 4 j T C H I L ` M D ; ",
"= o   . .     .   X + X X X + 2 4 < # .         X + w S $ + 1 5 w + + < < @ + < 4 j x G J j g y g F S z j y c / Y Y L L } M l > ",
"0 *     . . . +   . + . X X 1 5 , < , .             e z 2 , < < , $ @ 1 @ , @ 4 4 N g r z x u y A S Z N j V Z I E Q E T ` M N 8 ",
"& &       . X + X . .   X X 4 q , # #               4 y 4 5 , 1 , 1 , , + + @ w M l 2 u M h x N c h Z N g Y H x E / L Q Q L I 0 ",
"& O     . + X X + X . . X + < 4 w # X X X           + w 5 4 < 5 2 @ $ $ + + . h P 4 e g h , A S 4 h S S N N h l R [ L ` { ` Y s ",
"> X     + X . X + X . . . , 4 1 4 < + X             O 1 4 < < $ , @ @ $ 1 @ + c y < w e y 5 u c r c F T A j h e ~ o.P ' { E I t ",
"-     X   .     .         # 4 1 1 1 + X X     X     . + 4 , , , @ @ $ 1 $ 1 q y 1 1 r j r y y c A Z P I Y h x x L ` { | ~ ) Q d ",
"8 $ + +           .       + 4 4 , + * + X X X X   . + X , , 2 $ @ @ 2 2 @ 1 6 h 4 , w u , x J p S I A A T V F A J ] O.+.|  .! n ",
"q O .           . + .       4 4 $ @ $ + + + + X . . @ + + 2 1 . X 1 , + , 5 u 6 , , $ r 6 G Q g P h u c I S c J ' @.' ] | ( ] J ",
"o + .   .   .   . X .       + 4 , , $ + + + X + X + @ , + + : + . @ 6 $ < e g @ @ 5 e c x P P F P @ c V I P x Q E ..] ] ' | @.m ",
"; @         . .               + , $ $ $ , , , + . , < 5 1   1 + . $ r w $ w 4 + $ e S F G r I ( G x c A ~ I c Q P @.o.@.#.$.[ C ",
"> :           . . . . .       . + + @ $ , , $ + + , u y . . + + + < @ @ , 6 @ . 2 P ' V u   g ~ J c c A ! c S Q Q  .O.O.=.&.] s ",
"3 @               + +   . .     . X X @ + X + @ + @ z 5   + + + 4 < X , , 5 2   c @.G 5 @ . + I ~ G S Z I c T J m ! %.@.:.:.{ % ",
"& :               . X . . .             . X . + + w z 2   + + + 4 $ + + 1 e @   G #.h , @ X + I ' G G G I c ~ x F ' @.:.#.=.) * ",
"& %                 . X . X + X     X   . O . X + u 5 , . . . + 1 + + , g w +   Z #.c $ + X + ( ~ c P I T P P x ~ ' &.*.' :.K % ",
"t %                 . + + + + + X . X         . + 4 4 1 + . + < 5 + . 6 e 5 , . V ' x 2 + X A ( Z x P ~ S ~ ~ c Y } ,.{ @.;.t & ",
"o s *                 . X + + + + + + X . X     X @ 6 $ + X @ , , @ + < + j 4 . h M u y 5 Z ( A p S ! J A ' ! j P [ >.O.%.) o % ",
"% 0 3             .   +       . + X + + X + +     $ , + $ $ . + w + + , w x , < Z u e x P ( N h p ' J x A ! I h P P / =.[ s % % ",
"% % = .           . 4 4 + .     . X $ + + @ 4 + . , + . , + . 4 u + + 1 h j h h N 4 r z N I e x J ( h y A ! V A P , u :.D o % - ",
"; ; = o           , w +   , +       + X . 1 2 . . + . + 1 + . 1 e 4 X 5 L h w x 4 g g 4 c E x V G I h u A Q M T G   A #.t = = % ",
"; % 3 O           , 4 , . .         . + + + 4 , + .   + $ . : + 1 g w M A y , z 6 g , j ! V I P G A c G Z Z z Q x , [ / 3 % 9 ; ",
"3 ; - ; o         , e 4 +             + @ + 4 r + $       . 4 2 , p g A h h < , r z x J V x ~ ( G x c P z g c P e j O.b o % % % ",
"> = % - 3 O       + r 4 + .             @ w r + $ $ +     X , 1 w g g S N , < r y g A A J A P Q x G E I M e x { Z [ _ % % = % % ",
"% % - = 7 = .     . 4 4 + . .           + , < w @ X X .   + . 4 x z h x 5 . 4 u 4 z T ' J r x V G | ' ~ G 4 y $.*./ 7 % % % % % ",
"% % % % o ; %       . 1 + O X X .       . + , r $ + , X   . X 4 j j 4 6 X 3 4 1 4 I X.I g X z z { @.] ! H Z / [ [ C o % % % - % ",
"- = % = % = 7 +       . + . + X . .     + 4 , 9 4 r , X     1 g x g 4 w   < e 4 h ' ] 4 4 4 e Z =.#.I S { %.+.o.o.s % % % = - % ",
"% % % ; % % 3 o         + + + + . . .   X 1 1 u y 4 $ +   . 4 y w , r w X $ e g Z P e j Y z $ + ( ..A ! | @.] $.W 8 = 7 > % 3 ; ",
"% % ; % = % = 7 =         . + + + X     + w y y 6   , + , $ 2 , . X 2 y X , z N j r c ] A 4 X   P ] ( @.| ' | | - - % ; & % * 9 ",
"o % % = o % % 9 % >         . . . .     + 1 4 4 2 X + 2 w , +   4 6 y w   + V Z w e O.| w 4 +   I ~ ) @.' E #.U o % % % % - - % ",
"% % % O % % % % 7 0               + .   * 1 2 + 6 , X $ X , 4 $ 6 e y y 4 w g V g 4 Q T < , 4 M ( ! ' { ! ( C - % % o % - * - % ",
"= = % & ; % o f ^ % - =           + X   w p X   + $   . , 2 r y @ , e r 1 g g M p 4 g p z z E Q ( Q ..( L 9   % - - % % ; 3 o ; ",
"% % % - = % ; 9 - - - o %           +   5 2 . .     X @ w w p h u 4 1 < , 4 c L Z e j g V E Y T x ! @.m > = % % % & % % - % o - ",
"% % = % % 7 = 7 % % % o 8 -                 . . X . + 4 w w z V y 5 #   X 2 Z J z x A F Q L M V E ` 9 - - = % 3 * % % % % % 3 % ",
"= % - = - = % % % % % % = - %     4 e 2 4 , X . .   , w w z M j u 4   $ 6 g S r n R L W H L ^ F C 3 o 7 3 % 3 - % = = % % % = 8 ",
"% % = % % % o % - % - ; % % % %     r 9 4 , , .     + 2 e Z V g r 6   e z w 6 6 L T L M C Y M 0 o % > o % - - % o = - % ; % % % ",
"- - % - - o % % ; % - % = % % % = o $ 4 4 4 +         . 4 g j E V 3 2 e 4 , w y Y ` L j L k = 2 - % % - - 7 - % % % % % % % - % ",
"% ; ; = % % % - % = 7 = % % - - * % % + 1 2 + .         , u J M , , + , j h + y Q { M t = % % - % % % = % o 0 f o - % % % ; 3 % ",
"l = % % % = - - o % o = % = ; - - = % ; % - , +   4 y   4 S c w , 1 e p e , , P @.D o % o = % o % % % % % o - ; o - % % % % = o ",
"3 % 7 = o % - ; - = o 7 - % = * % % = - % % % 8 3 g d   4 p w t d 4 < 3 O 9 1 n b o - = % % % - = % % = % % o o % % % % = % % % ",
"3 - ; = % - 7 ; % % = ; o - ; % % % % % % o % 3 ; = o o O w f 7 % ; % % % % % o o = % % % % o - - % % % % % = % % = % o % % % o "
};
