/* XPM */
static char *ship__resized[] = {
/* columns rows colors chars-per-pixel */
"64 64 217 2 ",
"   c #020204",
".  c #0C0103",
"X  c #01010C",
"o  c #0A030C",
"O  c #050A0A",
"+  c #0B0C0C",
"@  c #080807",
"#  c #140102",
"$  c #1C0102",
"%  c #11030B",
"&  c #120C0D",
"*  c #1F0A0B",
"=  c #1D050B",
"-  c #10100F",
";  c #030213",
":  c #080716",
">  c #050A13",
",  c #0A0915",
"<  c #070618",
"1  c #080718",
"2  c #0C0B1A",
"3  c #060818",
"4  c #110F1C",
"5  c #110C13",
"6  c #0E1212",
"7  c #0E111B",
"8  c #05101C",
"9  c #131313",
"0  c #1A1514",
"q  c #181817",
"w  c #12121D",
"e  c #161B1B",
"r  c #1B1B1B",
"t  c #1E151E",
"y  c #220102",
"u  c #2B0001",
"i  c #2A0A0B",
"p  c #26090A",
"a  c #330101",
"s  c #3B0101",
"d  c #31050B",
"f  c #3A0B0C",
"g  c #240F12",
"h  c #231413",
"j  c #2B1313",
"k  c #2A1D1C",
"l  c #3C1212",
"z  c #361919",
"x  c #2C110F",
"c  c #24201F",
"v  c #38211C",
"b  c #151521",
"n  c #181725",
"m  c #151A23",
"M  c #1A1B24",
"N  c #1C1D29",
"B  c #0F0F20",
"V  c #251E27",
"C  c #331F23",
"Z  c #1E2224",
"A  c #1D222C",
"S  c #162325",
"D  c #1E2532",
"F  c #1F2837",
"G  c #232324",
"H  c #23232C",
"J  c #24292A",
"K  c #2B2C2C",
"L  c #2F2226",
"P  c #382929",
"I  c #222631",
"U  c #232934",
"Y  c #2B2D34",
"T  c #242C3B",
"R  c #292E39",
"E  c #282732",
"W  c #352D35",
"Q  c #2B3134",
"!  c #2C333B",
"~  c #26313A",
"^  c #343434",
"/  c #3B3434",
"(  c #35353B",
")  c #363A3A",
"_  c #3B3B3B",
"`  c #383837",
"'  c #430202",
"]  c #4B0101",
"[  c #460A09",
"{  c #530000",
"}  c #5A0000",
"|  c #520B0B",
" . c #42100E",
".. c #451212",
"X. c #461816",
"o. c #591616",
"O. c #620001",
"+. c #6E0000",
"@. c #6B0708",
"#. c #760000",
"$. c #7E0105",
"%. c #700E0E",
"&. c #52311F",
"*. c #542B1A",
"=. c #61201A",
"-. c #6B3619",
";. c #452121",
":. c #452C2C",
">. c #582A2A",
",. c #4C3D3D",
"<. c #443837",
"1. c #513C3C",
"2. c #573939",
"3. c #692729",
"4. c #772525",
"5. c #5B413A",
"6. c #262F40",
"7. c #2B3443",
"8. c #2A3445",
"9. c #353A44",
"0. c #323B4A",
"q. c #383A43",
"w. c #593544",
"e. c #4F3646",
"r. c #3D4243",
"t. c #3C434D",
"y. c #3C4848",
"u. c #3B4556",
"i. c #434343",
"p. c #4B4344",
"a. c #41444B",
"s. c #444C4D",
"d. c #4B4C4B",
"f. c #49474F",
"g. c #504545",
"h. c #534D4B",
"j. c #5B514A",
"k. c #484C55",
"l. c #4D5252",
"z. c #475155",
"x. c #525252",
"c. c #5B5C5C",
"v. c #595959",
"b. c #6B4545",
"n. c #7F4E5B",
"m. c #7A5555",
"M. c #4F5662",
"N. c #565C6B",
"B. c #624F60",
"V. c #745565",
"C. c #7D5767",
"Z. c #5B6061",
"A. c #626464",
"S. c #6A6B6D",
"D. c #67676A",
"F. c #7C6467",
"G. c #6F6F70",
"H. c #667171",
"J. c #6B717E",
"K. c #787579",
"L. c #890703",
"P. c #910404",
"I. c #831717",
"U. c #8E120B",
"Y. c #B73000",
"T. c #892D2D",
"R. c #8E2E38",
"E. c #993A3A",
"W. c #8E3535",
"Q. c #A03738",
"!. c #C23C00",
"~. c #DA5800",
"^. c #E75900",
"/. c #E76300",
"(. c #E86000",
"). c #A23B40",
"_. c #90474C",
"`. c #A54A4A",
"'. c #875863",
"]. c #9E6666",
"[. c #87777E",
"{. c #927677",
"}. c #866465",
"|. c #A26969",
" X c #A27675",
".X c #A3706F",
"XX c #6D7483",
"oX c #777886",
"OX c #9C7C81",
"+X c #7C838C",
"@X c #7C8283",
"#X c #798C98",
"$X c #7E9298",
"%X c #828483",
"&X c #888585",
"*X c #848A8A",
"=X c #8E8D8D",
"-X c #908F8E",
";X c #898E95",
":X c #8C8A91",
">X c #84949D",
",X c #8D9598",
"<X c #91969D",
"1X c #9B9A9A",
"2X c #979697",
"3X c #A89999",
"4X c #A08588",
"5X c #8799A2",
"6X c #949AA2",
"7X c #9B9FA2",
"8X c #9397A1",
"9X c #AD9FA0",
"0X c #99A4AA",
"qX c #8DA2AA",
"wX c #ACABAC",
"eX c #A5A8AA",
"rX c #B2B2B2",
/* pixels */
"1 < X 4 w < w n ; 2 X ; ; < w N 1 1 H n 4 2 b H X ; ; ; < 2 w 2 ; , < ; ; ; , < < ; ; ; ; ; ; < ; < ; ; n n 8 < n 2 ; ; ; , n n ",
"; N 2 2 1 1 b n X ; : ; ; < 4 1 4 ; ! 4 ; ; 1 4 ; 1 ; ; ; X 1 ; ; ; < ; ; ; ; ; ; ; ; ; < ; ; , ; ; ; X e.f.< < 1 2 ; ; ; ; n , ",
"; ; ; 2 n ; 2 1 ; ; 2 4 ; < < w w ;   - % . 5 w X ; ; ; < < < 1 X o X X ; < ; ; X < < ; ; < ; ; ; < ; X R 7.X ; b < ; ; ; ; 2 ; ",
"; 1 ; < 1 ; ; ; ; ; X , : o o X , ; ; X o $ u s u y $ . 5 ; m G , w N > X X w ; < w ; 1 X ; ; < 2 1 ; ; ; X ; ; 1 H 2 < ; X < 2 ",
"; < 2 ; ; ; @ . $ y u d p f d u s u y % t 2 X = X. .] ] [ = , G J Z ~ 0.F b > X X w ; ; ; , N X , < ; ; ; ; ; X ; ; b ; ; ; ; < ",
"w 2 w ; X $ i z C K ^ Y q.( J ( <.P ;.X.i   . X > l.j.:.h p y y p r q A t.0.T D w ; X ; ; < < ; ; ; X < < ; ; ; X ; X ; ; ; 1 ; ",
"; ;   + 0 k J Q R R R U 7.R E u.9.s.z.Z.9 P 3.} u 2 ~ r.i.A.m.4.+.} = 6 G 9.t.0.0.! A 7 ; ; ; ; X n 2 ; ; < < ; ; X n 2 , < ; < ",
"X     o @ ,   @ 9 w Z E T I 6.0.8.u.N.N.@ y.;X}.T.+.y w @X2X*X+XF.4.O.$ O + ^ k.s.u.q.9.! Z 1 X ; 2 w < ; ; ; ; ; ; w < < < ; ; ",
"; ; b ; 1 4 H e + r , + w S 8.T 6.8.u.u.7 9 J.$X>X{.E.O.# l.-X-X=X+XF.4.{ # O G p.p.k.s.r.r._ G ; X < ; ; ; < ; 1 ; ; ; ; ; < , ",
"; ; ; ; < X E w q K + X   ; 7 N F T 6.8.D @ t B.oX$X5X-X_.z K G.2X1X-X@Xm.%.u   + [ o.p.l.s.a.i.` q < ; 1 ; ; < w ; ; ; ; ; ; ; ",
"; < < ; ; ; ; X     ; ; ; X + q O m D T 6.m   & e.V.oX$XqX1Xc.r _ A.&X2X,X&XW.} . O a } >.l.d.l.K _ ^ , < < ; ; ; ; N ; < ; ; < ",
"1 N N X ; ; ; < ; < < < <   + w ; ; 6 b F 6.S + O V e.V.OX5X0X%X` @ - ` v.Z.H.b.s + 9 i } >.v.) ` d.i.` -   ; ; X ; 1 ; < < X ; ",
"1 ; 4 < , 1 < ; ; , 1 ; ;   ; ; ; 4 N X > m T A 9 @ O V w.C.[.<X0XH.A 9 q q k 6 + q @ O g ' f i.v.,.i.<./ 0 9 < ; ; ; < X 1 , ; ",
"; ; ; < 2 ; w , ; ; < ; X ; , N 2 2 ;     q 7 A U U V @   W V.'.'.OXOXp.) y.r.y.s.y.v./   @ ] o.1.g.5.p._ [ # X ; w ; < 1 ; ; < ",
"; < < < , < < 1 < < ; ; ; X < < ; < O + K K q   e D T U +   ~ oXK.'._.Q.E.E.E.`.`.E.T.4.>.S - s ] o.2.,.| a O $ # , < 1 V < 1 X ",
"; ; 1 , < 2 ; X < , ; < ; ; , < ; , + q +   X X X , N U 7.m @ z.#X$X>X:XOX X.X|.].].{.@X;Xb.* J h y s ] ] % 9 :.f y ; ; X 1 E R ",
"2 2 ; ; < ; < ; ; ; ; w ; ; ; ; ;       X ; ; < < X O w H ~ r Q XXoXoX5XqX8X3X9XwXeX3X.XT.L.s J ^ J + @ + e d.:./ f $ ; < ; ; , ",
"; < ; Y 2 X , ; < 1 ; ; < ; ; ; ;   w X n w < ; ; X + , 6 m + M M.XX#XF.R.U.$.@.%.U.P.#.} i r r G x.v.K - 9 x.h.:.<.s . 3 ; ; ; ",
"; < < 2 X b 2 ; ; 4 X k.v.X ; < X , < ; < ; ; ,   9 G G 9 +   A 0.f.3.L.O.l +       & e Z J G G 9 + _ D.h.+ r c.2.<.<.a   1 N ; ",
"; < ; X ; , < ; ; 1 ; N n < ; ; ; 1 2 n < ; 2 + - c q 9 ,   O e n d a p 6 e y.D.D.c.d.^ r + q q r r   ` S.d.@ h.5.p.d.X.y X ; ; ",
"1 < < ; ; 1 < 1 < < ; , , 2 w , < ; 2 n 2 ; X @ - o ; 2 ; ; +   o & + e ^ S.<X0X7XeXeXeX-XZ.9 O @ 9 r 9 G G @ K v.v.l.^ y o 1 ; ",
"N n n < 1 b 1 , 1 ; ; ; < < 2 4 w < ; ; ; <     X ; 3 w ; 1 2   o + w ( v.D.K.;X8X8X0XeXrXrX&Xq @ @ G K J Q J - k i.J J k $ ; X ",
", < ; ; < X ; ; 2 ; ; 4 1 : ; ; E 1 X , ; X   M 4 7 2 , X ; ; X O w J Q r.l.A.S.@X;X;X<X1XwXrX2XJ - r ` <._ c J J 9 ^ i.i.l # 7 ",
"; ; 1 ; X 1 < ; 7 ; ; n 1 X ; 2 ; ; 1 ; N < X < ; < ; ; ; ; < <   9 e G K ) e.x.A.Y G G G S.wXrX[.K K G K r.K r K J c i.^ c = o ",
", ; ; ; ; ; ; 1 ; ; < ; 1 ; w 4 1 , 1 1 2 < ; ; ; 2 2 ; ; < ; ; O , M J ( i.d.x.d.G q c r e c.wXwXd.` ^ G q ^ Y k Q G G 5.s...$ ",
"; ; ; ; ; 1 1 2 H ; ; 1 2 , ; 1 < < 2 < ; ; < H ; ; ; ; ; ; X ; @ 9 S K ) ^ G q q r r r G J c d.rXx.J ` ^ K q ^ J c G + m y.1.a ",
"N 1 ; X 1 , ; ; ; X ; < ; ; ; 2 , ; ; ; < ; 2 q.; X b ; 1 3 2 X X   9 r G q r G r 9 + @ & 9 Z q _ ^ K K Y J - + + X 1 ; X X 9 i ",
"1 < ; ; X ; 2 b ; N N X n 2 ; , ; 4 , < ; ; ; X ; < < < w o       . . # & - q 0 % . $ y y y $ & q K K r & .   X X ; n n 1 ; ; ; ",
"< , 1 ; 1 ; , w < n H X a.E X < ; ; ; < 2 X ; ; , ,         + 0 g x p $ $ $ # $ y i x h h x a a y $ $ y u u #   X ; 1 1 n , ; < ",
"2 2 ; M 1 ; ; ; 2 X X X   X X     X           .   @ - r c K Y K K K ^ / / P L j z ^ r.) ! Q Q l | [  .l z v v -     X X ; < < < ",
"2 H ; w ;   X   @ + + 9 9 9 9 9 9 9 0 q e G J K ^ ^ ^ ^ ` r.5.r._ ` ^ _ i.d.d.d./ v *.*.-.-.*.P <.j.j.d.r.r.r.K M M M + X , w w ",
"M w ;     @ q G K ^ ` ` ( ^ ^ K Y K ^ ^ ` ^ ` ` _ i.i.i.i.i.s.l.x.x.d._ ` d.d.3.U.Y.~./.~./.~.~.U.=.5.h.i.<.` ` ` ` _ G   2 M , ",
"V 1 ; O     q G K ^ ` ` ` ` ^ K ^ K ^ ^ ) ^ ` ` i.i.i.i.i.i.h.x.x.x.d._ ^ d.h.>.U.Y.~./.~./.^.~.$.=.5.h.i.<._ ` ` ` _ J   4 < ; ",
"X ; ; , ; w +   + - + + - 9 9 9 9 9 9 q q k K K ^ ^ ^ ^ ` _ i.i._ ^ ^ _ i.l.d.d.^ v *.*.-.-.&.P <.j.j.d.r.i.r.K M Z e + X X w X ",
"< ; ; ; 1 N 4 < < 2 X X X   X X     X O     @ @   @ + q G K K K K K / / / P v j z ^ r._ ! Q Q X.] [ f l z z z &   O ; ; ; b E 2 ",
"4 w 2 1 H n X b ; X ; ; ; ; N 2 1 ; ; < 3 2 , ; ; +       @ + 0 g x p $ $ # # $ y i x g h x a a y * $ y y u = @ o X ; ; ; n E 4 ",
"4 n 1 < 2 4 ; ; ; < ; X ; X 2 1 ; < ; X w ; < ; < < 1 2 4 X       . . % & - 0 0 + . $ y y $ $ & e K J r - . O ; X ; < : ; ; X ; ",
"< 2 X , ; 1 1 ; ; ; 1 N ; ; ; ; ; ; ; < < ; ; ; ; ; , 2 ; b 2 X     9 r G q r G Z 9 + @ & 9 Z r _ ` J ^ ^ J - + , , 2 < X X t p ",
"1 ; 1 w ; N b ; ; X 1 N ; ; < < ; w N H X ; n ; ; ; 2 ; ; w ; ; + 6 M K ( ^ G q q r c r G G c d.rXx.G ` ^ J q ^ J k J + k r.1.a ",
"E ; X ; < 2 X ; n ; < , X , 2 < ; w < < ; ; ; ; , n 1 1 ; 1 2 2 @ , M J ( i.d.x.d.G q r r q v.wXwXd._ ^ c r ^ K r Q r G r.d...# ",
"X H 2 , X N n ; < X ; X ; < < n X X : ; X ; 2 1 1 3 < < ; 1 N ; + 9 e G Q ` i.x.c.K G G c S.wXrX%XK K c U 5.K r K J Z r.Q c p X ",
"; N n ; ; < < ; ; ; ; ; 2 < ; 1 < ; 2 3 ; ;   ; ; ; ; , < , 2 X O w H Y q.l.A.G.%X;X,X<X0XwXrX2XJ - r ` ) _ G G J 0 Q 5.i.l . ; ",
"; ; < ; ; , , ; ; 1 < ; X ; ; ; 1 ; ; ; ; ,     X 2 b 7 ; ; X   O O w ^ v.D.K.;X8X8X7XeXrXrX&Xq @   G K J K J + c 5.J J k $ X , ",
"2 2 ; < , ; ; n 2 ; ; X N n ; 1 ; ; ; ; X ; X   - o ; X ; < O   @ & 6 e ^ S.6X6X7XeXwXeX-Xc.9 @ @ 9 r 9 G J + K v.v.l.Q i % ; ; ",
"2 ; w o ; ; ; ; ; 2 ; ; 1 < ; n ; ; X 1 2 ; ; X , c q 9 +   + w h d d i 2 e a.D.S.N.s.^ r & q r r r   ` S.p.+ d.2.g.d.;.y X n 4 ",
"w 2 3 2 < 2 X < ; ; ; ; ; ; ; ; X ; ; , 1 ; ; ;   9 J c 6 +   A 0.f.3.$.O.l + X     & e S J G Z 9 + 5.D.d.+ r Z.1.,./ u   ; ; ; ",
"2 1 ; 1 n w 1 w ; ; X ; ; ; ; , X   X < ; ; ; ; ;   - > 6 m 6 M M.XX+XF.R.U.$.@.%.U.P.#.} u r r J l.l.J - 0 x.h.:.<.s . ; ; ; ; ",
"; ; 1 < w 2 w ; ; < ; ; ; ; ; 2 2 X     X ; ; w 2 , + 7 D R r ( XXoX+X5XqX6X3X9XwXeX3X|.T.L.' J ^ J + @ + e g.:./ f $ ; ; ; ; ; ",
"; ; ; ; X 2 ; 2 , 2 ; ; < ; ; < , 1 @ q + @   ; 9 > m U ! m   z.+X#X5X:X{. X.X].].].{.%X$Xb.p G h y s ] ] # 9 :.l y ; ; ; ; , ; ",
"1 < ; , ; 1 w < ; ; ; ; ; ; ; ; < < X + K K q   7 F T R +   U oXoX'._.Q.Q.E.E.`.`.E.T.I.>.S + ' { o.2.1.| a O $ # 7 ; ; ; < , ; ",
"; ; ; 2 < ; 4 ; < ; ; ; ; < 2 ; ; H b     9 7 A U E Z O   W V.n.'.OX[.d._ y.y.y.y.y.Z.^   @ ' o.1.g.,.,.<.f . X n H ; n 2 ; w 2 ",
"; ; 1 < 1 ; ; w 1 X ; ; ;   ; 1 < < ; X + m F D 7 @ + V w.C.[.6X7XS.J 9 q r G e + q + O * ] f i.v.p.i.<.:.r   , ; < ; 1 , ; 1 M ",
"; ; ; < X ; ; M ; B X w 1   + M ; X O b F ~ n O O V w.V.oX,XeX*X( + & ` h.Z.H.b.f + 6 i } >.x.` ` d.i.` 9   < < ; ; ; ; ; , < ; ",
"; ; < X ; ; ; X @ e ; n < X + q > m F T 6.N   & e.V.oX5X0X7Xc.r _ D.&X2X2X&XW.} . O a } >.l.d.l.K ` ^ + X H 2 2 ; ; X ; 2 2 < ; ",
"< : < , 2 < ; 2 r G , X X > 7 m F F T 0.D O q B.K.#X5X4X_.k K G.2X1X,X@Xm.%.a   + [ o.p.l.s.y.5.^ G 2 4 2 2 ; X , , ; ; 2 2 X 2 ",
"; ; ; ; ; ; 2 w > k - O e N 8.T 6.8.u.u.- 9 J.$X>X{.E.} # l.-X=X*X*Xm.4.] # O J p.p.k.s.i.y.! K M ; ; ; n < ; ; ; < ; ; 2 ; ; 1 ",
"X X   +     + + 9 q A H T I 7.0.9.u.N.N.O i.;X}.T.+.y e @X1X*X%XF.4.O.$ O > ^ k.u.t.t.q.! J ; 2 w ; ; 2 2 < ; 4 1 ; ; ; ; ; w ; ",
"1 X o + q k J K Q U R U 7.~ E u.0.a.z.Z.w P 3.} [ 9 ! i.i.Z.m.4.#.} = 6 Z ( t.9.0.~ A w ; ; ; 1 4 1 ; n 2 ; w 1 ; < < ; ; ; < n ",
"; ; ; ; X $ i z L K W Y q.( J ( <.P ;.X.i   L 8 S l.v.:.k p y y p r e A u.0.6.D 7 o X X ; , < ; ; < 2 X ; 2 1 ; ; < , ; 1 ; X < ",
"1 2 < 1 3 ; X . $ y d d p f d u s u $ g 5 ; , = l ..] ] s = o J K Z R 0.F w , X ; ; ; < ; ; 1 M ; ; ; 1 2 w 2 ; ; ; ; ; ; ; 1 ; ",
"; 2 2 < ; ; ; 3 ; < w o o X , o , o X > o $ u a u y $ % X , M M 2 w N , o o 7 3 ; ; X ; ; ; ; < ; ; ; < ; X n R X 1 ; ; ; 2 w X ",
"q.; ; ; ; ; 1 2 ; ; X < ; < 1 2 ; : X + . o o o ; ; ; ; ; ; ; X   X ; ; 3 3 < < ; ; < < ; < ; X ; ; ; ; ; ; 1 w ; , ; ; ; < < ; ",
"w ; n < ; ; 1 2 , < ; b : ; 1 2 ; ; ; 2 ; ; ; n n ; ; ; ; ; ; ; ; 3 ; ; ; w ; ; < ; 1 ; ; ; ; 1 < ; ; 1 ; X ; X ; X ; ; < ; X ; ",
"4 , 2 < ; , n 1 ; ; < 1 X 2 2 ; ; ; ; ; ; ; ; w 2 , ; ; ; ; 1 1 ; 1 X ; ; ; ; ; ; ; ; ; ; ; X 1 , ; ; ; ; ; < ; ; < ; X ; ; ; ; "
};
