/* XPM */
static char *Black_hole_resized[] = {
/* columns rows colors chars-per-pixel */
"64 64 202 2 ",
"   c #020202",
".  c #0B0405",
"X  c #070807",
"o  c #0A0806",
"O  c #060609",
"+  c #0A070A",
"@  c #070809",
"#  c #0B0A0B",
"$  c #120406",
"%  c #100807",
"&  c #130509",
"*  c #120C0C",
"=  c #1A0F0D",
"-  c #0F100C",
";  c #11100E",
":  c #1A110E",
">  c #0D0C12",
",  c #100E15",
"<  c #110F19",
"1  c #0F1018",
"2  c #121114",
"3  c #1C1412",
"4  c #14131B",
"5  c #18171F",
"6  c #1B1B1B",
"7  c #2C1514",
"8  c #211D14",
"9  c #231C1A",
"0  c #2C1C1C",
"q  c #361B18",
"w  c #3C1D1C",
"e  c #301716",
"r  c #29221E",
"t  c #33201C",
"y  c #161421",
"u  c #191623",
"i  c #1B1924",
"p  c #1F1728",
"a  c #1D1B2A",
"s  c #211E2D",
"d  c #201F25",
"f  c #221E31",
"g  c #1F2026",
"h  c #2B2523",
"j  c #2F2921",
"k  c #24222D",
"l  c #27262B",
"z  c #332421",
"x  c #3D2625",
"c  c #382B29",
"v  c #3C3124",
"b  c #252234",
"n  c #292735",
"m  c #2D2C35",
"M  c #262239",
"N  c #2A263B",
"B  c #27293B",
"V  c #2C2B3D",
"C  c #35343B",
"Z  c #3B393C",
"A  c #3C3436",
"S  c #442325",
"D  c #4C2225",
"F  c #452A27",
"G  c #4B2B2C",
"H  c #502728",
"J  c #57292A",
"K  c #4A2E31",
"L  c #572E30",
"P  c #4D3938",
"I  c #463335",
"U  c #5C3636",
"Y  c #563736",
"T  c #603D3C",
"R  c #2E2B42",
"E  c #2E2A46",
"W  c #312D44",
"Q  c #322F4B",
"!  c #2E3345",
"~  c #2F334A",
"^  c #333243",
"/  c #323847",
"(  c #3C3B42",
")  c #34334B",
"_  c #38354D",
"`  c #34394D",
"'  c #3C3A48",
"]  c #3A3652",
"[  c #353B52",
"{  c #3B3C54",
"}  c #3B3D5A",
"|  c #353652",
" . c #413C46",
".. c #403F5B",
"X. c #423F51",
"o. c #613D41",
"O. c #3D435D",
"+. c #3F485E",
"@. c #384255",
"#. c #3E4A63",
"$. c #3D4E68",
"%. c #44424B",
"&. c #48474D",
"*. c #4E4E4C",
"=. c #454143",
"-. c #544643",
";. c #5D4744",
":. c #434153",
">. c #41425D",
",. c #45495E",
"<. c #514E53",
"1. c #585757",
"2. c #5B5A5B",
"3. c #644747",
"4. c #665451",
"5. c #6A5B57",
"6. c #725F50",
"7. c #434562",
"8. c #434B65",
"9. c #454D69",
"0. c #494E6B",
"q. c #484967",
"w. c #425163",
"e. c #44526B",
"r. c #4A536D",
"t. c #575569",
"y. c #465670",
"u. c #4B5471",
"i. c #4C5A73",
"p. c #4E5E79",
"a. c #515571",
"s. c #525A76",
"d. c #525E79",
"f. c #5D5C72",
"g. c #615B66",
"h. c #615E71",
"j. c #4F6078",
"k. c #54637D",
"l. c #58627A",
"z. c #6D6D70",
"x. c #566683",
"c. c #596781",
"v. c #566880",
"b. c #5B6B84",
"n. c #5E6D89",
"m. c #63728C",
"M. c #797681",
"N. c #667591",
"B. c #677993",
"V. c #6A7B95",
"C. c #6C7C99",
"Z. c #707F9C",
"A. c #666A83",
"S. c #6F819B",
"D. c #6E8096",
"F. c #73839D",
"G. c #798295",
"H. c #7585A2",
"J. c #7887A4",
"K. c #7A8AA5",
"L. c #798BA8",
"P. c #7C90AB",
"I. c #8794AA",
"U. c #8393B1",
"Y. c #8B99B1",
"T. c #8A99B6",
"R. c #929FBB",
"E. c #9B99A9",
"W. c #94A5BC",
"Q. c #94A4B5",
"!. c #94A4C2",
"~. c #97A9C6",
"^. c #9BABC4",
"/. c #9AAEC9",
"(. c #9DB2CD",
"). c #9AB1D0",
"_. c #A1ADC2",
"`. c #A7B4CB",
"'. c #A5B6D3",
"]. c #A7B7D9",
"[. c #A8BAD7",
"{. c #ABC0DA",
"}. c #B8C5D8",
"|. c #B2C5E1",
" X c #B9CCE5",
".X c #C5CCDA",
"XX c #C2CEE4",
"oX c #C7D3E7",
"OX c #CAD4EC",
"+X c #C8D6EB",
"@X c #D6DFE7",
"#X c #D0DDF1",
"$X c #D7E1EA",
"%X c #DCE1E8",
"&X c #D8E0F1",
"*X c #E8EBEE",
"=X c #E3E9F4",
"-X c #EEF1F9",
";X c #F4F6F7",
":X c #F7FAFD",
">X c #FEFFFF",
",X c #F4F3FB",
/* pixels */
"@                     @                           . . . o o - # ; o X                                 O > g b 1 O               ",
"X                               . . .     X X X % & $ $ . ; o   ; - X                                 @ u b i > X               ",
"        @ X                   X . & $ .         6 # . . & * ; # 2 # X                               + 4 N b <                   ",
"        X                     . . . + + .       o # . . % o # ; - X                               O 2 i B 5 O                   ",
"                              @ o X . & .     X - ; # % . . X   X                     X #         > i B i #       X             ",
"  X X                         h 9   . $           % . .     X                                   X u V g > X                     ",
"  6 #                         X . $ $ .               . o @ X X X ; r 3 o                     O 4 m m 4 X                       ",
"                                .                       .     @ # 8 6.v -                     # k V u X         @ X X           ",
"        # O                                                     X 3 r r # X             .   # i C a O           9 ;             ",
"        X                                                       X # X X X                   4 C B > O           @               ",
"                                                              O X                         > m ^ 6             @                 ",
"      X                                           X           X       -                 # l ' d @                           X   ",
"      @ O                                                       ; r                   X 5 ( m #                                 ",
"      X O                                             X         o 3                   > C ( 2 X                                 ",
"        O O       X         X                               X X                     X m %.i X                     X             ",
"X O O # > > > > # # > O O O                                       # X               6 &.m #             O     X   # X           ",
"  X @ # , 4 4 4 < < 4 < , > > # + X           X #                                 2 %.Z #                     X             X   ",
"  O @ > , < 5 u a a s a a i u 4 , > # @ O                                       O C &.5 X                                   X   ",
"O X O # , < 4 4 u p s f b M f f a i 5 4 < > @                           X       l *.m O                           X             ",
"    X # , < y u s M V Q Q ^ ^ W R B b a i y 2 > #                             6 *.Z @                   @ X                     ",
"  X O # , 4 u s k V ) _ ] | { } [ [ ` ~ R B a u 4 2 > @   +                 @ =.*.6                                             ",
"  X O # 4 4 y u s N W W ` } } O.,.+.#.+.O.[ ` V b i u 4 > #               X m 1.l     X                                         ",
"O   X # 2 4 < y a M R W | O.9.e.e.r.i.i.i.r.w.+.@./ V b a 4 < O O         6 1.Z O                                               ",
"    X * # , < 4 p f f N ) >.9.9.e.k.x.x.b.c.k.k.i.r.w.O.` B g 5 < O     # *.*.,                                         X       ",
"      @ # # # < y p f b W ..7.O.e.x.p.i.p.x.b.n.m.n.k.k.j.e.@./ b i , # Z 5.i                     X X       X                   ",
"      @     O # < 4 u a M ] ..O.7.u.i.e.x.V.Z.H.J.K.J.F.F.S.D.m.l.7./ %.z.Z X                               X                   ",
"      X 6 X   @ 1 1 y u p M ` ] { 9.e.$.x.Z.H.K.I.Y.W./.(.'.'.`._.I.G.E.z.g O @                                                 ",
"        6 O     # > y y y d N _ | } 9.e.u.N.Z.J.K.R.[.|. XOX&X=X=X$X%X.XG.@.i > O             @                                 ",
"                @ > > 4 4 4 a R _ | } 0.u.k.N.Z.F.W.[. X#X-X>X>X>X>X>X@X!.m.@.i 1 # O         X                           .     ",
"                  > > < 4 4 < a N Q Q 7.s.e.d.N.V.K.~.{.+X:X>X>X>X>X>X=X{.T.l.` g 4 > @ X                             6 2 h     ",
"          X     X # > < 4 4 > 4 a N W Q #.u.9.d.m.C.P.(.}.*X>X>X>X>X>X-XXX).L.i./ b i 2 # @                           X X .     ",
"                    # > > 2 > > 4 s N V E } 0.7.s.m.D.L._..X*X>X>X>X>X,XOX].T.V.e./ V k u , @                                   ",
"                    O > , > , , > 4 u b V Q ..q.#.e.b.N.G.Q.}.%X;X:X:X=XXX].!.L.b.w.@./ B i 4 > O                               ",
"                      # , # , 2 > > > 4 s R E ..} } O.k.m.D.Y.`.}.oXoXXX|.'.!.U.C.v.$.+.[ R i 5 1 O             X               ",
"        X         X X X * # @ # < , # # , a B V _ { >.} u.m.F.K.Y.R.^.~.~.!.!.U.H.N.j.8.8.[ B a y 4 @                           ",
"                        @ # O   > , # # # > i n W W _ >.u.z.l.n.V.F.H.U.U.P.J.J.D.m.j.y.r.#.` B i u 4 > X                       ",
"        X @           O   X X @   # # # X O > u n ^ W :.h.f.7.8.d.m.N.B.Z.H.Z.C.V.m.b.x.k.e.O.| M f s y > @                     ",
"2                           O O O   # @   O @ # 4 k C t.h.:.@._ | 8.s.c.b.b.N.N.N.B.m.b.k.i.9.} ! M n k u 2 @                   ",
"X             X                 X               + 4  .g.:.n n ^ ) ` [ #.a.s.p.c.l.c.k.k.d.i.0.#.~ R R R s 4 > #                 ",
"              X           O X                     7 5. .k b b b N W R E ) 7.9.0.s.s.i.r.e.8.O.| ~ ~ | | N i , 2 X               ",
"                          # #           X       # -.-., > i k b f a b N N R Q ] 7.a.a.q.0.u.q.7.......] V s y 4 > X       X     ",
"                                        X     O A 4.3   O > u i a i u p s M f E E ] ] ....7.q.7.....X.Q V f d p 4 # X     X     ",
"                                              0 4.j         > < y i i i u y a s f f f W | ] ] ] ] ] _ E N f s u 4 # O           ",
"                                            * ;.P X           > 2 2 y i u y < y p p a f f f R W W E W W V N s u 4 # @ O       X ",
"                % j                       X I ;.=       X         @ @ 2 6 u y y y < 4 u u i i i s f f f b b i u 5 2 # #         ",
"                X #                       z 3.0       X @         X X @ > 2 5 4 y < , 4 4 4 5 5 y y y 5 5 u u 4 2 4 2 @ X       ",
"                                        3 3.A .   O X                 X + O > 4 4 4 , , > > > , < y 5 : , , , > > > @ @ X       ",
"                                    X # P Y #                     X     X X   # > , , 2 > 2 # # + + > , > > > > # O O O         ",
"                                    X x T 3                     X @               ; - # - - ; ; , + , , > > @ O @ X O O         ",
"X O                           X     9 o.z   X +                                     X X O @ - - # , > O # > # O X X X   X       ",
"          X                       = Y K %                                                     X # # > # # # O                 # ",
"                                + F Y 3                                                         X X + + # 2 # X               2 ",
"                              O q U 0 .                                 X                                 @ @ X                 ",
"X                             = U x @                                                                                           ",
"                            . G F o                                                     X X X                                   ",
"          X +             o t Y =                                               X X   X                                         ",
"                          7 U q .                     .       O                   X                                     X       ",
"      O               O : G S %                     9 r       X                                                 X X             ",
"; X     X             % S U 3 X                       X                           X                                             ",
"        X         X . 7 J e .       X                       X                                                                   ",
"                  . = H w .       X                         @                     X                                             ",
"                . = D D = O                                                                                                     ",
"                . q J e .       - @                                               X                                             ",
"                = D q .         2 -                                                         X 2                                 "
};
