/* XPM */
static char *background_resized[] = {
/* columns rows colors chars-per-pixel */
"64 64 229 2 ",
"   c #02000E",
".  c #0C000E",
"X  c #13010D",
"o  c #1B020D",
"O  c #030213",
"+  c #0A0514",
"@  c #0A0916",
"#  c #070618",
"$  c #080718",
"%  c #0C0B1A",
"&  c #130511",
"*  c #1B0511",
"=  c #130A15",
"-  c #1B0A15",
";  c #110E1B",
":  c #1C0E18",
">  c #12111E",
",  c #1B131D",
"<  c #24030D",
"1  c #2B030C",
"2  c #2D080E",
"3  c #34050C",
"4  c #3B060C",
"5  c #34090E",
"6  c #3D0A0D",
"7  c #360206",
"8  c #240611",
"9  c #2B0710",
"0  c #240C15",
"q  c #2B0A12",
"w  c #230F19",
"e  c #330B12",
"r  c #3A0D11",
"t  c #23131D",
"y  c #2B151D",
"u  c #2F1117",
"i  c #381419",
"p  c #151521",
"a  c #191622",
"s  c #1A1A25",
"d  c #1E1D29",
"f  c #241A23",
"g  c #201F2C",
"h  c #2A1D2A",
"j  c #23232D",
"k  c #2A242C",
"l  c #252530",
"z  c #2C2B35",
"x  c #2C2B36",
"c  c #34343E",
"v  c #42050A",
"b  c #450A0C",
"n  c #4C0B0B",
"m  c #530D0B",
"M  c #5B0C0A",
"N  c #580A07",
"B  c #55120D",
"V  c #5C130C",
"C  c #451315",
"Z  c #501617",
"A  c #620E09",
"S  c #6B0E07",
"D  c #65130B",
"F  c #6A150B",
"G  c #6A180B",
"H  c #741206",
"J  c #7C1405",
"K  c #74160A",
"L  c #711A0D",
"P  c #7B1A0B",
"I  c #7A1409",
"U  c #661A10",
"Y  c #710E04",
"T  c #7D260D",
"R  c #6C2819",
"E  c #752315",
"W  c #5E1F20",
"Q  c #4F3138",
"!  c #7E3020",
"~  c #343441",
"^  c #4C4C56",
"/  c #696971",
"(  c #841504",
")  c #8B1602",
"_  c #841906",
"`  c #8B1D0A",
"'  c #881C08",
"]  c #961800",
"[  c #9C1B03",
"{  c #911804",
"}  c #800F00",
"|  c #A31C01",
" . c #AD1E00",
".. c #B21F00",
"X. c #83220B",
"o. c #8F250C",
"O. c #8A260A",
"+. c #97280B",
"@. c #9B330D",
"#. c #862312",
"$. c #993713",
"%. c #902F10",
"&. c #A82706",
"*. c #B52100",
"=. c #BC2400",
"-. c #AA360A",
";. c #AD3B0D",
":. c #A5350C",
">. c #B33C0D",
",. c #B83909",
"<. c #AB3B11",
"1. c #A13610",
"2. c #B13611",
"3. c #C42600",
"4. c #CC2B00",
"5. c #C52800",
"6. c #D32E00",
"7. c #C73905",
"8. c #D63201",
"9. c #DB3401",
"0. c #D93900",
"q. c #E33B05",
"w. c #E73C04",
"e. c #F03700",
"r. c #B9440C",
"t. c #A94717",
"y. c #B34615",
"u. c #BB4813",
"i. c #B85018",
"p. c #AD4813",
"a. c #CA4507",
"s. c #DA4906",
"d. c #CE540D",
"f. c #DA570A",
"g. c #C24915",
"h. c #C85816",
"j. c #D25C13",
"k. c #EA4E01",
"l. c #EE4C0E",
"z. c #E74407",
"x. c #F34C0B",
"c. c #E9590B",
"v. c #F65708",
"b. c #E75513",
"n. c #FA5E18",
"m. c #F75714",
"M. c #DA6717",
"N. c #D9711D",
"B. c #E7650E",
"V. c #F76A0B",
"C. c #E46716",
"Z. c #FB641D",
"A. c #FC6A1D",
"S. c #F06012",
"D. c #EA7615",
"F. c #F97915",
"G. c #FE780F",
"H. c #DF7021",
"J. c #E66A20",
"K. c #EA7C26",
"L. c #FF7329",
"P. c #FF7C2D",
"I. c #F97624",
"U. c #FF7D32",
"Y. c #FD6E25",
"T. c #FC8C1C",
"R. c #F98719",
"E. c #FB941B",
"W. c #EA8122",
"Q. c #F98A25",
"!. c #FC9B26",
"~. c #FC9527",
"^. c #FF8736",
"/. c #FE8C33",
"(. c #FD8C3D",
"). c #F7893B",
"_. c #FD923D",
"`. c #F99A35",
"'. c #EE983A",
"]. c #FDA62A",
"[. c #FBA53B",
"{. c #FEAC3F",
"}. c #FAA533",
"|. c #FE9342",
" X c #FE9B45",
".X c #FE9D4A",
"XX c #F79D43",
"oX c #FEA34B",
"OX c #F9A746",
"+X c #FBB54A",
"@X c #FDAC54",
"#X c #FBAA5B",
"$X c #FCB255",
"%X c #FEBA5D",
"&X c #FBB956",
"*X c #FDBB63",
"=X c #FBBB6A",
"-X c #FAB366",
";X c #FCC45B",
":X c #FEC264",
">X c #FFC46B",
",X c #FECB6D",
"<X c #FDC967",
"1X c #FBCC74",
"2X c #F9C978",
"3X c #FDD474",
"4X c #FCD47B",
"5X c #FEDB7B",
"6X c #FBD065",
"7X c #FEE07F",
"8X c #FBD484",
"9X c #FCDC84",
"0X c #FBDC8C",
"qX c #FAD68C",
"wX c #FBDB98",
"eX c #FCCC81",
"rX c #FCE384",
"tX c #FCE68B",
"yX c #FCEB8D",
"uX c #FCEA85",
"iX c #FBE493",
"pX c #FCEB95",
"aX c #FBEC9A",
"sX c #FCE59B",
"dX c #FBF19B",
"fX c #FBF093",
"gX c #FCECA3",
"hX c #FCF7A7",
"jX c #FBFAB1",
/* pixels */
"$ #   > > # > a O % O O O $ > g $ O j a % % > j   O O O $ % % % O $ O #   O $ # # O O O   O O O O # O O d s % % s > O O O % p s ",
"O d $ % $ $ > a O O O O   $ % $ > O c > O O $ >   % O O   O @ $ O O # O O O O O O # O O # O O $ O O O   ~ ^ O O % # O O O O s % ",
"O O O % s O $ % O O % % O $ $ > > O   > #   % j O O O O $ O O % O O O   O # O O   O # O # # O # # O O   x ~   O > # O O O O % O ",
"O $ O # $ O O   O O O $ $ $ @ $ $   @ O O $ $ $ $ O   O % $ O # O O O O O   > O $ % O %   O O O % $ O O O   O   # d > O O O O % ",
"O # $ O O O # O $ O O O O O $ O O $ % O j % O # # O @ $ O   O O O O   % # O O O O > O O O $ d   $ O O O O O O O O   p O O O O # ",
"> % > O O O O O O $ O O O > O % $ O @ O > O O O O # # O   $ O +   O + + $ O O $ O # O O O O # O O O   # # O O O O O O O O O % O ",
"O O O O O O O O $ % O O O O O @ O d @ $ $ % O O % O   + % ,   . X O + + @ O O % O $ O O O O   O O > % O O # # O O   s % % # O O ",
"O O   O # >   # $ $ % O O O @ O O j O   O O   $ p   O . . @ * 8 5     .           $ # # O a O O   > > $ O O O O O   p # O # O O ",
"O O p O % > j d   O % $ $ O O O O     l + O + * . . . . X 2 0 B G X : : f + . . + + + O   O O O O   # # O O # # $ O O O # O # O ",
"O O O O O   l s $ O O O O O O O O + O s + . = < 6 0 C @ o V < o.y.1 & & 0 o 8 o .       O O O O O O O O # O O O > O O O O O O O ",
"# # # O O O O   O O O O O O O O O   O   = . : Z _ C A 7 7 o.%.g.u.L < o m 9 M 4 * = = &   ;     O $ $ # $ # O O O O s O # O   $ ",
"# d s   O O @ $ O # # $ # O O % + O - 8 * & X R 1._ ;.r.@.B.`.%.j.y.( @.o.P P K X - & & . = =   O   O O O O O O O O $ O O # O O ",
"# O % # @ % $   O % %   O $ O + + = y n 3 3 < G N.t.d.~.Q.}.&X8.Q.C.z.E.B.-.<.p.< X 4 o   r :   O     + O O d # O O O O O % $ O ",
"O O # # % O > @ O O O O     % t = 9 1 D _ @.o.&.W.F.).).=X:XwX).:X.X_.+X/.b.V.C.} T A 8 V m . X   + s O O O O O O p O O $   O # ",
"  $ O # O O O $ # O $ O     * . + < K B +.D.E.k._.+XeX2X9XtXdXyXjXrXtX0XqX_.+XA.F.M.i.>.{ 4 i w & + + O O O O #   % # % d $ $   ",
"# O $ $ # > O O $ @   $ O X e B < X 1.,.u.S.&X*X:XjXtX3X*XoX|._.(..X$X,X7XdXaX&X2X`.R.a.&._ Q h X &       O O O O O # O   $ l x ",
"% $ O O #   # O O O O = + < 6 n -.O.>.F.m.-XqXdX5XoXY.l.9.5.*.*.*.3.6.w.n.(.:XyXiX3X{.v.k.d.v N 1 o X = , O O O   O O O O O O $ ",
"O $   x % O $ O # +   + * X G R O.W.V.XX<XrXrX Xm.6.[ H m v 7 3 3 4 b A ( ..q.L.*XhX3X/.].`.c.` 4 X . + O O O O O O O s % O O O ",
"O # # %   p %   + ; . c Q 7 5 +.D.'.=X%XhX*Xn.4.( B 5 0 o * : X & X X o < C F  .w.(.5XdXiX~.z.,.4 B v o + . + + O O O p O $ d # ",
"O # O   O $ # O   + + t Z I &.7.R.$XqXyX.Xz.| B u o X * + - , & + . + & X * < 3 P 4.Z.9XdX'.G.a.-.D 6 6 & + + @ # O O O # O O O ",
"$ # # O O $ $ $ + + X * < ;.s.v.[.iXrX|.q.( 6 < * . . ;   O % O O O O     . X * 2 m *.m.,XtX;XT.j._ o.o . + O O # O O $ O $ % O ",
"d p s # % > @ $ @ . o 4 K u.!.R.+XfX Xq.I 1 o & .   @ > O $ > O O O O O O   + & X < m  .n.0XaX;XW.B.n . X . +   % s # O O O >   ",
"$ O O O O O   + - 1 B M U f.}.8XpX%Xw.( 1 X . a % > % $ O O O O $ O   O O   O + . X 0 n =.L.yXwX{.s.Y 7 1 o . = $ d O O   p $ % ",
"O O % O   $ O . : & 4 @.I a.Q.9XsXm.[ 4 y &   $ O $ O O #   $ $ $ % O O O O ; O O + X q D 6.oXrX.XQ.C.2.m 8 * + > > O $ % > $ $ ",
"% O O # O O O + . X b ;.F.c.=XgX(.4.m * : +   O   % $ # O O O O O $ O O O O O O O   . X 1 ) x.9XpX/.k.! W D r * = %   # O O O p ",
"O O O     @ % = f X . J E.;X8X5Xx.( 9 & . O # j O # O O     O O $ %   O   O O O O O + . o n 3.|.tX#XJ.2.g.n * & . % O O $ $ O O ",
"d $ O   @ @ . o 3 D %.g.S.oXpX X5.n o + O   % ~ O   % # % @ % O O O O # > O O O O O   + = < ( m.rXqXI.T.y.4 & .     %   % $ O O ",
"$ # O O   . % w b E i.B.~.9XtXZ.] e * . # O O   O O # # > @ % O O % % # %   O O O   O O . o N 8.&XiX6XR.( X X + . O a a $ O O # ",
"O @ $ O $ O @ w q U X.g.F.9X8Xz.D o . + %   O O % > O O s $ , % O g O O #   O # $ # O O + * 3 ..^.yX|.l.<.T B 9 X . # # a $ O $ ",
"% %   d $   . X C M r.c.#XgX@X6.n o . O % # O   O # @ O % l > @ $ s > O j %   O # O O $ . & 8 ) Z.tX9X~.R.t.o.V o     O O $ $ O ",
"% l O > +   = X < L j.!.@XtX X*.7 & . O O O O O O # > , $ % @ O O > O p ^ > O # O O O O O * 8 Y x.0X8X/.r.( m u * + O   O % , > ",
"s > O O % + @ =   q u.~.2XpX^. .e : & O   O O O # $ $ $ O % % O $ %   % s > > O % O # # O . w G z.,XiX).B.>.m 5 . O $ d   % s $ ",
"g @ O O O   ; q m ` f.].1XpXU.| e X + + O O O O   @ > % j @ O O O @ O O % > O $ x O # O   . w D q.,X4XOXE.:.n o =   > d   > O O ",
"  O O $ @ , & o e G W.;XwXhXP.| 1 *   O O O O O O O > % O O O # $ O $ O %   O $ O O # # O & o N q.,X0X+XD.L . . .   # O O   >   ",
"O O   O + s : 5 m g.h.0.(.yX(. .5 X + ; $ # # > O O @ @ O > O O $ O @ O O $ O O O O O O + = X S z.3XsX:XT.,.P 5 t ,   O O > l > ",
"> > ; $ j t 9 D <.j.d.R.;XjX.X3.b X + $ $ % @ $ @ % O O @ + O O @ > O $ > > # >     O   > y < J l.rXwX-X{.u.C i *   O O O d l % ",
"> > @ @ $ = X 5 b L y.J.^.4X*X8.m * X   > O #   O O % % % @ @ O % p @ > > $ O % O > O +   X 1 [ L.yX Xe.+.h.#.r <   O # O O O O ",
"O >   % # @ $   + * M 4.F.5X4Xl.H o . + # O O O O O $ % O a % $ $ O O O @ > s O $ O $ @ , t 4 *.(.jX,XF.;.T <.V 8 : @ # O O $ $ ",
"@ O @ % O a ; + X + 4 s.].4XaXL.| r y f   O a O O O % O O > O O $ @   O O $ d % + O @ + : o A q.:X4X_.W.J.u.T m 5 X O $ $ O # % ",
"l O O O + % . . t 1 F r.F.#XaX@X6.U * & O O O O @ p $ % O $ $ % O @ l $ % % $ O $ O ; = X 5 [ Z.rX4XQ.0.D 8 X ;       O O   $ % ",
"  j % $ O d > . X < 1 o.s.Q.9XgXn.{ 5 X . O % + $ $ $ O O % d O > O % %   O   O   O = & * M 6.oXdX-X].B.B @ * f > + O O O O O O ",
"  d p O O O @ O + 5 I >.C.}.5XdX@X8.F < & + O O O O O $ $ + $ # % O O O O O > > O + = 0 5 | Z.pX2X).C.-.D 6 = & a $ $ O O # O O ",
"O O O # O @ @ . X 1 b V 1.E.R.&XtXL.*.b o X + + # $ p ; O O O   O O $ O O $ O > = . X 2 J w.%XpX<XG.u._ 7 o : ; @ >   % $ # O # ",
"> % # O ; O O > = + X o o.z.V.[.gX3Xm.| 6 o & . O + # O O $ ^ $ O     O O O O = . X < D 6.|.yXOXA.H.M.<.P 1 = =   + O O > % O O ",
"% O > O O   O O + * X 1 M ` 7.T.,XaX:Xx.[ v o & . + @   O   # O   # p $ +   . : 0 < F 4.U.7X8X-Xk.[ n v C q @ @ O O O # > O a % ",
"> % @ % O ; O O +   . o < v >.D.OX0XrX*Xx.| m < X X . . . @ @ O   d z = + * : o 6 H 6.P.rXpX$XOXM.b X . = = @   O # O O O O O O ",
"> $ O $ , > @ % O   . . < L B ,.Q.Q.*XhX:Xn.3.H 4 8 & X . X . . . + o & o * i m [ w.(.yX1XoX].W.+.V * & = @ O O O O O # O # O O ",
"O O % @ > % > $ O # . + 1 1 K :.-.c.OXoXaX9X^.z. .K n 1 < * X w y X 0 < 5 V { 6.n.%XdXiX`.v.s.a.R b < + = . O > # O % # O O O O ",
"O O O O O %   % @ %   + & 4 6 X v M.k.I.-X0XfX;XP.z.4.[ J A N m B M H ) ..8.n.oX5XrX4X$X!.v.&.[ V   * + ; > % O z s O O O O $ O ",
"$ O O @ O O a O O O #   . + . . n @.X.s.~.;X@XpXdX,X.XL.m.z.9.8.8.9.l.Z.^.*X9XyXiX_.F.T.r.i.` A L t . + > O O @ $ > O O O # $ O ",
"O O O % O $ > O O O O O   + = X v W o.-.D.V.A.;X=XaX9XtX5X1X>X*X*X,X3XiXgX3X8X-X+XR.0.B.U . 4 < < r . O O O @ O a j O p % O > % ",
"O O % $ $ O O a % O O   + O + * o B 4 D P { K.V.).).=X2XsX0XiXaX3X9X0X=X,XQ./.OXR.f.&.&.V X . 0 >   +   O % % @ O $ O % @ O % a ",
"O   O $   O O a O >   > + O @ , * < 8 6 . U M.$.a.Q.}.}.4XU./.oXA.+XXXI.R.b.4.d.$.t.[ M 3 *   k k O O % O + O @ O   O O O @ $ O ",
"O O + O O O O O p d O a # O $ =   X & . . U O.P t.d.r.D.{.g.B.K.6.R.D.r.M.1.m 6 G < B D X & +     + O O   g % % O O   O @ % $ O ",
"$ $ # O % $   z / O $ O O # O $ @ +   & & b D C D n v &.h.i.h.t.S o.:.( <.D o , 9 1 O 5 * + O   O > % % % % O O $ $ O O % >   % ",
"O O O O O O % s $ % $ O $ O $ O > O + = f q q < 6   < G v g.h.m < 9 B 4 ` 7 X X . +   X = O   % j + $ O , @ O O O $ O O % O   $ ",
"O O O # O > # p O O O O p $ O O O   O O = + , . . . * r o X.%.o X * u u b o . . >   = @ % %   > > O O % @ $ $ % % O O O O O > # ",
"# O % O $ # O O O   O O # $ O O O > $         @ k % * = < m b k = = f : & . a ^ . + % @ + + O O % $ O p % O > $ O # # O O O # p ",
"O O # O O O   O $ O # % O O O O   p p p #   c > > +   = = < o $ .   .   O + + s $ $ O O   $ $ $ O $ %   O % $ O   # $ O $ O   # ",
"$ $ O $ $ O O O > O $ O # O O O # O s l p   % O     + O + = O $ $ # # O + + O O O O # O O O $ a O O O $ $ a $ O O O O O O O $ O ",
"# % % # O O O $ O # a O O O $ $ % O O $ $ O   $ $ $ O O O % $ $ # p # $ $ $ p $ O O O O O O O O O O $ O O   s x   %   O O % % O ",
"c # O O O O $ %   O   # O # % $ $ # O % O O O $ O $ O   O O O   $ # O O # O O # O O O $ O # O O O O O O O   $ > O $ O O O # #   ",
"p O p O O O $ % $ #   a $ O # % O O O % O O O p p O O O O O O O O # O O O > O O O O $ O O O   $ # O O $ O O     O   O O # O   O ",
"> @ % $ O $ p % O O # @   $ % O O O O O O   O > % $ O O O O $ $ O $ O O O O O   O # O   O # O $ $ O O O O O # O O # O   O O O O "
};
