/* XPM */
static char *gate_resized[] = {
/* columns rows colors chars-per-pixel */
"64 64 161 2 ",
"   c None",
".  c #030406",
"X  c #05060B",
"o  c #06080F",
"O  c #060B14",
"+  c #080D15",
"@  c #070E19",
"#  c #080F19",
"$  c #07101C",
"%  c #0A121C",
"&  c #12171F",
"*  c #14181E",
"=  c #070F20",
"-  c #080F21",
";  c #071020",
":  c #0C1423",
">  c #0F1827",
",  c #0E1728",
"<  c #0F1829",
"1  c #101725",
"2  c #131925",
"3  c #191D25",
"4  c #141C2B",
"5  c #191F2A",
"6  c #141F30",
"7  c #1C2026",
"8  c #16202F",
"9  c #1B222E",
"0  c #162030",
"q  c #1D2431",
"w  c #1F2835",
"e  c #22252D",
"r  c #27282F",
"t  c #212631",
"y  c #242A34",
"u  c #2A2D35",
"i  c #242C38",
"p  c #292F38",
"a  c #2E3036",
"s  c #2E3239",
"d  c #323336",
"f  c #33353A",
"g  c #383739",
"h  c #36383C",
"j  c #3B3B3D",
"k  c #413F3E",
"l  c #43413F",
"z  c #49433D",
"x  c #343840",
"c  c #3D3E41",
"v  c #3F4043",
"b  c #444242",
"n  c #494643",
"m  c #4D4945",
"M  c #444548",
"N  c #484748",
"B  c #4D4B4A",
"V  c #524D46",
"C  c #544E48",
"Z  c #575047",
"A  c #595147",
"S  c #56514A",
"D  c #5A534B",
"F  c #5F584F",
"G  c #5C5750",
"H  c #5E5850",
"J  c #61574B",
"K  c #63594E",
"L  c #695D4F",
"P  c #645B51",
"I  c #6A5F51",
"U  c #6E604F",
"Y  c #6D6153",
"T  c #6E665A",
"R  c #726554",
"E  c #766856",
"W  c #7A6A56",
"Q  c #726759",
"!  c #76695A",
"~  c #7C6D5B",
"^  c #7F705D",
"/  c #7B6F60",
"(  c #806E56",
")  c #816F59",
"_  c #84725C",
"`  c #8A765D",
"'  c #8E795F",
"]  c #847561",
"[  c #8A7761",
"{  c #877865",
"}  c #8C7A63",
"|  c #8C7D68",
" . c #927E63",
".. c #958166",
"X. c #9A8365",
"o. c #94836A",
"O. c #9A866A",
"+. c #9D8A6E",
"@. c #948571",
"#. c #9C8C74",
"$. c #A18766",
"%. c #A38B6B",
"&. c #A98E6B",
"*. c #A6926F",
"=. c #B0916A",
"-. c #A28E71",
";. c #A49175",
":. c #AA9372",
">. c #A5957C",
",. c #A89578",
"<. c #B19571",
"1. c #B39975",
"2. c #BB9B73",
"3. c #B49C7A",
"4. c #BA9E79",
"5. c #B5A17C",
"6. c #BAA27C",
"7. c #C2A276",
"8. c #C2A47A",
"9. c #C9A67D",
"0. c #C3AD7C",
"q. c #CDAE7D",
"w. c #D5AC7E",
"e. c #D9AE7B",
"r. c #E4B67F",
"t. c #AE9E84",
"y. c #B19F83",
"u. c #BBA481",
"i. c #C5AA83",
"p. c #CCAE85",
"a. c #C7AF8A",
"s. c #C6B181",
"d. c #CCB681",
"f. c #C9B18C",
"g. c #D2B085",
"h. c #DAB383",
"j. c #D4BF83",
"k. c #D0B289",
"l. c #DEBA8D",
"z. c #D1B891",
"x. c #E8BC86",
"c. c #EBBD89",
"v. c #D6C48B",
"b. c #D8C191",
"n. c #EEC187",
"m. c #EFC28B",
"M. c #EFCC8A",
"N. c #F2C58C",
"B. c #F4CD98",
"V. c #E4D190",
"C. c #EED593",
"Z. c #FBD190",
"A. c #FADF93",
"S. c #F8DF9D",
"D. c #F1E397",
"F. c #F2E49B",
"G. c #FBF19F",
"H. c #FBF3A2",
"J. c #FBF8A5",
"K. c #FFFDAB",
"L. c #FFFFB0",
/* pixels */
"                                                                                                                                ",
"                                                                                                                                ",
"                                                                                                                                ",
"                                                                                                                                ",
"                                                                                                                                ",
"                                                  + O O $ % % % O o X . . . X                                                   ",
"                                            + + O O % O $ $ % % % $ o X X . . X X X                                             ",
"                                        # + + % % : $ % + + $ + + + + + o o o X . . X X o                                       ",
"                                    + + # % $ % ; : 1 5 3 2 3 2 7 * 3 % 1 % + O O o X . X X                                     ",
"                                  + % % + # * * 9 t y q e 5 9 q 9 9 7 9 9 0 2 $ @ @ O o X X X X                                 ",
"                              # % + $ @ % 7 e e 9 2 4 , 1 : : 4 : < : : 5 0 6 6 , < ; # O X X X X                               ",
"                            + % % : ; - 3 y 4 2 < 1 5 d f u p d h s h y q 6 4 5 6 5 5 4 $ O o X X o O                           ",
"                          + % % # : 5 t 0 4 2 t d j b b b j c j j j b m m c u 0 6 , q w 4 ; O o o X o o                         ",
"                        + % % % 2 e 2 - 4 5 j m b s y 4 q 4 4 q 5 > 0 p s j M l h 0 , q w 6 % + o o X o o                       ",
"                      O % % O & u 2 - 5 f k g y 5 q y u b B b m B j d u 5 4 2 f b c y 4 4 w 8 % O o X X O O                     ",
"                    O % $ $ 1 t 6 : t k n t : q c C D S C V S S P F D K C f q 4 q c B d 4 6 9 2 % + o o o o                     ",
"                  + @ : @ : q 5 , u m f 4 2 c S D n h u 2 5 t y q p f m V J D g q 5 u b u , 5 5 2 1 + + o X O                   ",
"                  + % $ 2 q : 4 h j d 6 q l G m y q y s u h n b k f 5 2 4 a m J n t 2 t j u : : 9 q : O O o O O                 ",
"                + % @ 2 9 4 : d b 2 4 u m m d 6 t k P / R R E E { R J C c t y c D A d 4 e m d - < i 4 @ O X X +                 ",
"              + % $ $ 5 2 - r m u - u D n y p m R E E ! J S V m P I Y W W P u 5 u D I c 4 t b 9 : q q ; O O X o O               ",
"              + @ ; 2 5 - 5 n f 4 u S v t g P ) ~ D M x d a p f x v M V I ~ I k 5 t n Y c 5 d j 4 4 i > O O o o # +             ",
"              % @ : q 4 , g f : y C v q u K ) I b y p c b b b m n b h f v m L E D p 6 J Y s q b d 4 q 9 % O O o O +             ",
"            + % - 4 i , y l t 2 m n t f J U G x 9 x H +.5.5.&.%.%._ J D v c n R ] P p g I V 4 s B 9 5 y 3 + + + O O             ",
"            + $ : q 4 2 j f 6 f m u d L R n p i c ] 2.M.A.C.C.F.H.D.h.&.Q S j D ] ) G 5 b L a w m f : y 9 + + + o + +           ",
"          + + $ 8 w : y l 4 q C c t D ~ S t i P &.w.h.q.3.+.X.:.0.V.H.H.d.~ D S _ .._ j i K P i h z 8 4 e % + O o + +           ",
"          + % % 7 2 : g g 4 l C p d E P x t S &.g.=.] Y I I R / ~ [ p.J.H.7./ P ~ X...P 9 z E s w m u < w 2 $ O o + #           ",
"          O O $ 9 : 9 b t t H j t S W n i M $.2.o.~ Q R )  .o. .] ! _ v.K.H.8.W ~ ..+.E a h U n 9 z c q y 7 $ O O O + O         ",
"          O % : 4 : u b 6 f S u f Y P t t I <.+.! I ]  .+.-.-.:.&...E %.F.L.C...E ' X._ n a K S q h n 9 i 7 % + + O O O         ",
"        O % : 5 9 ; u d , j C t l ~ M , g ` O./ P { o.%.,.O.%.-.4.3.{ | b.K.A.=.W _ X. .Y h K L q s V w t 9 % O O O O O         ",
"        + $ $ 8 q ; d a 6 b k 2 Z Y f 5 J  .] P |  .-.1.4.u.9.y.y.i.@.@.5.F.Z.7.{ {  .' Y d D L y f Z 9 q y & $ O O O +         ",
"        + $ @ 2 q > j p 4 m u 9 Y Y y t ) X.R P  .O.1.-.;.u.f.7.p.8.>.#.X.h.N.2._ W  .' P d S Y i p Z y w s 2 # # O + +         ",
"        + % ; 8 9 > j y 4 z u y U D 4 f [  .K Q +.%.:.| | -.y.z.k.%.@.-.-.9.B.<.W ^ X...Y v F Y s d Z t 9 a 2 $ ; # + +         ",
"        + $ @ 5 5 , k e 5 V u t Y C 9 g } ..P W ;.:.o.| #.#.;.u.a.4.&.,.i.x.c.%.W _ X.` K j P Y u h Z q 9 u 1 $ ; # # +         ",
"        + O @ 5 t 2 j t 2 V d u R m 8 h [ _ D E %.#.^ | t.#.;.t.a.k.p.k.c.N.9.o.^ ' O._ A j R K t d C 9 0 u : $ $ + + +         ",
"        + + % 7 6 q c e 1 n d 9 L m 9 s _ _ G ! X. ./ ] #.@.#.t.u.g.x.c.r.i.%.{ W ' X.[ D n W Z 5 g m t t t : ; $ + # O         ",
"        # + % 7 5 6 j 3 : m f 5 K Z 9 t ^ } H Y X...! ^ o.#.o...-.y.y.7.1.#.| ~ _ X.o.^ m D W v q m f 5 d y $ : % % % %         ",
"        O % % 2 5 4 f 5 ; b b e A L a 2 U _ P D  .$._ W o.o.@.{ | O. .|  .] ~ _ }  .o.Y b I I y s S u q h 5 @ % $ + % %         ",
"          O @ % t , f a ; f V 9 z U j 4 m ` E Z ` &...W } } #.{ ~ { { _ ] E ) | ..O.[ C V ] V q b F p p d % $ % $ + % O         ",
"          O # % 5 4 y c 4 e Z u y Y S q a ~ [ F Y X.+.} _ } [ _ ] _ ] ] ~ _  .[  .O.R V L R s y V m t f r @ $ % + $ + O         ",
"          + + & 5 2 5 h i , k b i D Y s 9 D } E C W O.:.o.o.[ } o.{ ) ` _ `  .o.| R Z U E j 5 d Z y q j 2 @ @ : + % O O         ",
"          O + % 7 8 > u j 4 d Z d h E Z 9 y I [ E H I  .-.O. . .}  .` [  . . .} I C E ~ S 9 f S m 9 h r : % : % % % O           ",
"            O + & 9 : 9 j 0 9 V z 9 C R f 4 d E ` Y C P ] ` %.-.o.X. .X.' ` ! J V Y W Z u u C S s y j 7 % : % % % % O           ",
"            o O + 3 8 < d i 4 a V s u K D d 9 c ~ } ! P F J R { o. .` E K V m S R ~ J u 9 k D x i c a & % > % % # O o           ",
"            O O $ 2 y 5 t j 9 4 b m y d Y K x 0 c ~ _ _ E K S J H J V C F Y E ~ U C f y k D h 5 s j 8 % % % % % # o             ",
"              O O $ 9 9 4 h s 4 u V j t z I Y h : t b ! ) ( ) R E ! R R ) _ ) S d 4 t m J b 9 d j y : : % % % % # o             ",
"              O + # : 9 4 0 g t : u D f 0 b L I g q i s m A U E ) _ ) E P S v t q r V J j 9 d b h < % > : % % % O               ",
"                O + % 2 4 : t d 4 6 N C l t u V I Z B u q i y a d d f y t 5 y d V J Z a 9 u l u > : < : : : % + o               ",
"                O + # % 2 : 4 u d 5 5 f C k e t m I R K n f y e y t y p j l C P S b t t l c y : % > 8 % % : + +                 ",
"                  O + # & 2 : 2 s s 9 : 9 z V j t u j S Y L D D K K Y Y L K S h t i s c h 9 : < 8 8 & % $ % + o                 ",
"                    + O O 1 1 4 8 t u 8 ; 3 j S m h i a f g j V Z b b b f 9 9 7 h n b h 4 : < 4 > % % : $ + o                   ",
"                    O + O + 1 3 : : 9 s t 4 4 t d m V b f r 9 t q q y a a a l z l f w 4 : 4 5 , % % % % + O                     ",
"                      O O O # % 3 8 4 8 u t 8 4 1 9 f z z m m m n C m n n l j a 3 $ : : 4 4 $ : : % $ O o                       ",
"                        O O O + & 9 4 : 8 t u y 9 8 2 4 2 5 r f d a r r 9 4 > > < > 2 4 1 % : 4 : $ + X                         ",
"                          X O O $ $ 2 4 8 4 : 9 t y q 4 4 ; : 4 > : ; ; < 4 8 8 9 9 8 % : 1 1 % O O o                           ",
"                            O O + O % > 4 4 4 < : 2 q i q q q t 9 q 9 2 4 7 4 > 2 3 % > 1 % % + o o                             ",
"                                o O + + % > 2 2 2 : : 4 5 < 4 4 4 4 8 5 1 : $ $ % % : % # + + o X                               ",
"                                  o O O O + $ 1 2 4 : : < > : : : : : > : 3 > : : ; : O O O o                                   ",
"                                      O O O + @ % % : : : 4 4 : > < 2 : % % > $ @ # + o o o                                     ",
"                                          o O + O + O $ @ @ @ % @ O $ + + + + + o o o X                                         ",
"                                                o o X X O O O + + O + O o o o X o                                               ",
"                                                        o o o X o o o X X                                                       ",
"                                                                                                                                ",
"                                                                                                                                ",
"                                                                                                                                "
};
