/* XPM */
static char *ship__resized[] = {
/* columns rows colors chars-per-pixel */
"64 64 220 2 ",
"   c #020204",
".  c #0A0103",
"X  c #02020C",
"o  c #0B040C",
"O  c #050A0B",
"+  c #0B0B0C",
"@  c #090907",
"#  c #150102",
"$  c #1C0102",
"%  c #110C0C",
"&  c #16060B",
"*  c #0E100F",
"=  c #10100F",
"-  c #030213",
";  c #080715",
":  c #040A14",
">  c #0A0A15",
",  c #070618",
"<  c #080718",
"1  c #0C0B1A",
"2  c #05091A",
"3  c #100F1C",
"4  c #130B14",
"5  c #0D1214",
"6  c #0E121A",
"7  c #131313",
"8  c #191514",
"9  c #12121D",
"0  c #1C161D",
"q  c #15191B",
"w  c #1B1B1B",
"e  c #181817",
"r  c #220102",
"t  c #2B0102",
"y  c #240609",
"u  c #250A0B",
"i  c #290B0D",
"p  c #2D0709",
"a  c #330202",
"s  c #3B0000",
"d  c #3B0A0B",
"f  c #340609",
"g  c #2F0610",
"h  c #241111",
"j  c #221C1B",
"k  c #2E1919",
"l  c #2C1312",
"z  c #3C1313",
"x  c #3C1C1B",
"c  c #311615",
"v  c #38211D",
"b  c #151521",
"n  c #181724",
"m  c #151A23",
"M  c #1B1C24",
"N  c #1C1D2A",
"B  c #151C29",
"V  c #251B22",
"C  c #201F2C",
"Z  c #321F22",
"A  c #1E2324",
"S  c #1C222B",
"D  c #162424",
"F  c #1E2533",
"G  c #232323",
"H  c #22232D",
"J  c #252A2B",
"K  c #2C2C2C",
"L  c #2D2326",
"P  c #382828",
"I  c #30302F",
"U  c #232632",
"Y  c #232935",
"T  c #2B2D35",
"R  c #242C3C",
"E  c #2B2D39",
"W  c #302D34",
"Q  c #2B3135",
"!  c #2D343B",
"~  c #243138",
"^  c #343434",
"/  c #3C3333",
"(  c #33353B",
")  c #36393A",
"_  c #3B3B3B",
"`  c #383936",
"'  c #440102",
"]  c #4B0000",
"[  c #470B0A",
"{  c #540000",
"}  c #5D0000",
"|  c #441919",
" . c #4A1615",
".. c #551212",
"X. c #5B1616",
"o. c #640202",
"O. c #690203",
"+. c #6D0A0B",
"@. c #7C0003",
"#. c #720103",
"$. c #6C1916",
"%. c #55321E",
"&. c #532A1B",
"*. c #6B3519",
"=. c #4A2C2C",
"-. c #432927",
";. c #592A2A",
":. c #413C3D",
">. c #4D3F3E",
",. c #463432",
"<. c #563739",
"1. c #742A29",
"2. c #782829",
"3. c #793232",
"4. c #682D30",
"5. c #3C403F",
"6. c #40403F",
"7. c #262F40",
"8. c #2A3342",
"9. c #2C3748",
"0. c #353B45",
"q. c #3B3E41",
"w. c #333B4B",
"e. c #363742",
"r. c #343F52",
"t. c #4A3B41",
"y. c #563241",
"u. c #3C4343",
"i. c #3C434C",
"p. c #3A4351",
"a. c #344052",
"s. c #434343",
"d. c #4C4344",
"f. c #42454C",
"g. c #424C4D",
"h. c #4C4D4D",
"j. c #514242",
"k. c #584C48",
"l. c #4A504B",
"z. c #464C52",
"x. c #4B4A57",
"c. c #564C57",
"v. c #4D5252",
"b. c #4B525E",
"n. c #535252",
"m. c #5C5E5E",
"M. c #54595A",
"N. c #5B524B",
"B. c #7F4F5C",
"V. c #685757",
"C. c #795B5B",
"Z. c #6D4949",
"A. c #414D62",
"S. c #505A6B",
"D. c #6E5062",
"F. c #765363",
"G. c #5C6162",
"H. c #5D6473",
"J. c #636364",
"K. c #69696B",
"L. c #7B6969",
"P. c #676B74",
"I. c #697475",
"U. c #74757A",
"Y. c #7D6A74",
"T. c #850607",
"R. c #901C02",
"E. c #821818",
"W. c #91090E",
"Q. c #B22B00",
"!. c #8B3232",
"~. c #8C343E",
"^. c #983838",
"/. c #A03738",
"(. c #C74000",
"). c #D95700",
"_. c #E75D00",
"`. c #E76200",
"'. c #A13C41",
"]. c #974448",
"[. c #8E4D4D",
"{. c #A54949",
"}. c #865863",
"|. c #9E6565",
" X c #816F7C",
".X c #817D7D",
"XX c #987579",
"oX c #85696A",
"OX c #A37574",
"+X c #A06666",
"@X c #6C7584",
"#X c #797583",
"$X c #917F81",
"%X c #987E82",
"&X c #7C838A",
"*X c #788A97",
"=X c #7E9198",
"-X c #858B8B",
";X c #8C8B8B",
":X c #828585",
">X c #8A8C93",
",X c #888F96",
"<X c #83939C",
"1X c #8B9092",
"2X c #939393",
"3X c #91959D",
"4X c #939A9C",
"5X c #9A9B9B",
"6X c #9A9897",
"7X c #9D898C",
"8X c #A89A9A",
"9X c #8598A1",
"0X c #979CA5",
"qX c #8DA2AB",
"wX c #98A5AB",
"eX c #A3A3A4",
"rX c #ABAAAA",
"tX c #A4A8AB",
"yX c #AFB0B0",
"uX c #B2B1B1",
/* pixels */
"< ; - 1 b - b M - 1 - - - , 9 N ; ; H n < 1 b H X - - - ; 1 1 1 - < - - - - < ; , ; - - - - - ; - ; - - n n 3 < 9 9 - - - < b N ",
"- N 1 1 < 1 X   - - - - - ; 1 < b - E b - - < 3 - < - - - - < ; - - ; - - - - - - - - - ; - - ; - - - X w.x.- , o < - - - - M < ",
"- - - 1 n - @ X - - 1 9 - ; < 3 1 - - 1 ; - 2 C - - - - ; - ; 1 - - - - - ; - - - - ; - ; ; - ; - ; - - E ( - - @   - - - - 1 - ",
"- < - ; < X o @ - - - ; < ; 1 < , X ; - - < ; 1 < - - X 1 ; - X   - - - - - 9 - ; 9 - 2 - - - - 1 < - - - X - X X % 1 < - X ; 1 ",
"- ; 1 - - X 8 O ; - - - - - < ; ; ; 1 ; H 1 - ; ; - < ; - - -     - - 1 ; - ; - - 6 - - - < N X ; ; - - - - - - . 8 4 - - - - ; ",
"9 < 1 , - & j   - , - - - 9 - 1 ; ; ; - 1 - - - - , ; - - < X @     < < , - - ; ; ; - - - - ; - - - - ; ; - - - @ j & - - - < - ",
"- - - - X i G @ - 1 ; - - ; - ; - N 1 2 < 1 - - 1 - - ; > b   e e   - - ; - - < - , - - ; - - - - b 1 - - ; , - @ G u X 1 < - - ",
"; - X - . c T + X < ; - - - < - - C - X - ; - < b - - - ; ;   G G   X - - - - - - < ; , - b - X - 1 9 , - - X X + T c o , < - - ",
"- - b - $ L Q > + 7   ; < - - - - - - T ; - , 1 X - - - X 1 . W K   9 9 U - - - - , - - - - - - - - ; ; -   7 + 7 Q Z $ , - , < ",
"- - , - r L Q q w K X - - - - - - - ; n , X 1 ; ; 9 < < - 1 O ^ ^ @ ; , < - , - - - X - - - - - X - - - ; X I w q Y K r - - - - ",
"- ; - X p W Q N 7 = - - - - - - - - - X < - b n - b - - - X + ` ` + X - - < - - < 1 < < - 1 - - - < < ; 1 - > = M Q T t ; - - ; ",
"< N N X f T Y H O X < < - - ; 1 , - < , < ; - b , ; ; - 1 X = ` _ + ; N 2 1 , - ; < , ; - 1 < - - - - - - - X + Y Y T f o - - - ",
"< - 3 ; r e.8.R 6 ; 1 - ; , - - - 1 N - 1 < - - 1 - - - , - 7 ` ^ 7 > < 9 1 ; - - - - - X < b X - - X ; - - 9 9 Y 8.e.y X 2 ; - ",
"- - - o d e.! F m O -     - 1 N 9 < - - - - ; - - - - X 3 O = ^ ^ 7 X 1 N 9 ; - - - - - , - X - - - n X   X O B U ! e.d o - - ; ",
"- ; , o f T Y R 7.6 + + X - ; ; - ; < X 1 1 < - - - - - ; X 7 ^ ^ 8   ; 1 ; - - 9 - - - - ; N n < - , X + + 6 8.R Y U f 4 < < - ",
"; - < ; t ^ p.w.R m w > - - , ; - < - - b 9 - ; - - - < -   = ^ I 7   - - 1 1 X - ; - - - - 0.E - - - - > w B R w.p.^ t X ; U T ",
"< < - X s t.w.8.7.F : 1 ; - - - - - X - - - - ; , - - - - @ 7 I T 7 X N ; - - < , - , 2 - X   - - - - 1 b O F 7.8.0.>.s - - X < ",
"- , O W a P i.p.8.R 9 : , X - -     b X b b ; - - b ; , ; X 7 T I 7   , - X ; < ; - 1 , - -   @ - - - ; X m R 9.p.i.P t 3 ; - - ",
"- , X 1 $ -.z.S.r.7.B ( b.X X @   ; ; - , - - ; ; 1 3 1 -   7 ^ I 8   - - n 1 - X < , - - 3 X       - - - F 7.r.S.z.-.$ - + N ; ",
"- ; X X #  .G.H.A.9.F B b X + 8   ; < b , - 6 1 1 - - < ,   e ^ ^ e   ; - < - - b - - - - - -   e + X X m F 9.A.H.G. .& X X - - ",
"< - . . X d A + e F 8.F >   J + X ; 1 b < - < < < - - 1 -   e _ ` e   - - - X ; 1 - - - - ; - X + K   : F 8.U e > j f o o o 1 X ",
"N B & $ 1 . G ^ + @ S 7.q 8 K   1 < - - - , O ; - X < b -   G ^ ^ G   - - - , , - X - - - - ; ;   K 7 b R S @ + ^ G   - # & 1 - ",
"< - o t - . 1.,XP.4   S F q w   E ; X 1 X     n 1 9 1 < X   K ^ ^ J   X - - - - -     X - - - - X e 6 R S   8 P.,X1.. - t j 2 9 ",
", - o a & X { oX<Xc.+ + F B   > - - < X     - < - ; ; - -   I _ ` K   - - - 1 - - -     X - - - O . B F O + c.<XoX{ - $ a 1 , < ",
"< - - t z : a !.<X#X,.O 7 R 6 > 2 1 X % + X - - - 1 1 ; X   ^ _ :.^   X - - - - - - X > %   - - X 6 R 7 O t.#X=X!.a : z t X - 9 ",
"; - - t  .i.= #.;X&XD.V @ Y F O - X 7 w O - < H - - - - X + ^ s.s.^ + X - - - - - - - O w 7   - > F U + V D.*XXX#.7 s. .t - - ; ",
"N 1 X $ ] V.~ t ].9X#Xy.O M R B + + G e - - < e.- - 3 ,   + ^ s.s.^ + O 9 - - - - X - - e G + O m R N O y.U.9X].t ~ V.' $ , - - ",
"< - - & ] ,.s.q O.7X<XD.V O E F 6 > G 7 - - - - - ; - , . e ^ s.s.^ e   3 X - - - - - - 7 G 7 6 Y ~ O V F.=X7XO.1 5.,.] & - - ; ",
"; < 2 ; ' k 6.U.r [.qX$Xy.  7 ! S > 5 7 < - - - < 9 - -   G _ s.s.` G   - - - ; < ; - - > 8 > F ! 5   <.$XqX[.$ U.s.k ' 0 < - ; ",
"3 1 - n u u G.6Xf.Z eX<XF.L   M ~ m + . 1 ; X - - ; < X   K 5.s.s.:.J   N 1 X - ; - - 2   + m E N   L F.<XeXP h.6XG.u y - < , , ",
"1 H ; G 4 r F.-X;XL J.tX XD.N . w 7   O X X - - - ; b   @ I s.h.h.s.K + > N X , - - -   O   7 w   F F.$XwXK.J ;X-XC.y o M 1 b 9 ",
"n 9 X M A $ 2.-X2XK.w 1X9X}.@Xf.K q m 9     X - , 2 ;   8 K :.n.n.:.K 8   9 9 - 1 X     q M 9 J i.@XB.,X1Xw K.;X&X1.$ A w < n ; ",
"N ,   1 J i #.L.-X2X^ t.wX}.#X*X@Xb.0.M @   +     O @   h K _ n.n._ I h . > O O G   O . M e.b.@X*X#X}.wX6.^ 2X;XL.#.i J > > ; X ",
"X - O q G w } 3.:X8XS.= U.XX}.*X#XP.f.g % + 7 > > >   . i I ( n.h._ I u .   7 + > 1 + % g f.@X#X*X}.%XI.= m.6X-X3.} w G 9 X b X ",
"< - X N Y e y o.L.2X:X+ K :X].<X*X#X4.s 5 7 S q w w = # y ^ ^ h.h.^ ^ y . > w m q G 7 * s 4.*X#X9X].%XK % :X2XL.O.y e Y N 3 U 1 ",
"1 b 1 6 9.A 5 t 1.&X2X^ = k.{.;X9XY.@.p q T Q V Y J e % $ / _ _ _ _ ` r # w K J G Q ! q p @.Y.9X>X'.h.= ^ 2X&X2.r 5 A 9.> n U 3 ",
"b b < X Y p.M O { }.2Xh.e 5.^.%XqX~.o.6 K M.q.T ^ ^ G % $ / s.` ) s./ $ % G ^ ) K u.M.K 7 o.~.0X%X/.) e n.3XB.{ O A a.R X - - - ",
"- 1 - ; m w.( O $ $.;Xm.w u.^.OX0XW.z q J.J.n.` s.^ e 7 # P h.s.s.h.P # = w ^ s._ h.J.J.q c W.4XXX/.u.q V.;X$.$ O ( w.q X - < < ",
"< - < 1 > 8.i.K   a [.K.G u.^.OX8X@.> u.4XU.G.s.h.V w 8 # P h.v.h.v.P # 8 e G h.s.G.U.3Xq.> T.8XOX^.u.G I.[.a   K i.8.1 < - ; 1 ",
"U - X ; X U w.g.A   o.Z.e 5.{.+X8X+.  J.0X;XK.h.n.w G q # c l.;.;.l.l $ e G e n.h.K.>X0XK.  @.8X|.{.i.8 Z.}   A z.w.F X - X < 1 ",
"X H 2 < - 9 0.i.t.O # [ O g.].|.rX+.  K.0X9X$XS.h.7 w + r k ` T.W.5.k r + w 8 h.m.:X3X0XK.  +.rX|.{.g.O [ # + t.f.w.b X - - - - ",
"- N b ; - ; 8.i.j.d O + 8 i.].|.rXE.  G.tX0X1X^ K w 8 . f I v Q.Q.v ^ t . 8 w J ^ ,X0XtXm.  $.rX|.].i.8 . O d d.p.! ; - - , - - ",
"- - ; - ; ; S i.z.X.f 5 % M.!.XX8XW.# l.rX0X,XG e j + $ i u.&.).).&.5.l $ + w e G ,X0XrXh.% W.8XXX!.M.+ 5 p X.z.w.U X 1 < , - , ",
"1 1 ; - < - 6 q.h.6.{ u O _ E..XOX@.q ^ tXtX3XG w w + r h 5.&.`.`.&.5.h r + j w G 3XtXtX^ w @.OX.XE.:.O i { >.g.q.9 X - b < ; - ",
"1 - 9 - - - ; Q f.v.;.] 8   4.-X!.} D j 2XyX5XG w G + r h ) *.).).*.! h r % G w V 5XyX2Xj D o.!.=X*.  % { ;.v.f.! - - - 1 - n 1 ",
"9 1 < 1 ; 1 X H q.h.v.X.' + D V.T.a J = J.uXrXG.8 G 8 $ h ! *.`.`.*.Q l r 7 J 8 G.rXuXJ.* J a T.V.A O ] X.n.g.u.U - - ; - - - - ",
"3 ; - ; 9 b < b _ h.n.n.d ' 5 y ] e G e w ;XuXrXn.G G $ a I %.`._.%.Q a $ A G n.rXuX;Xw e J e ' y + s d M.h.f._ 1 - ; - - ; - - ",
"- - 1 < 9 1 6 - G s.h._ :...s A G j G w   G eXyXeX6.e % a v P (.(.P | a % e _ eXyXwXG . w j w A J s X.:._ n.s.G - - 1 , - - - - ",
"- - - - - 1 - , > _ I ^ M.<.{ j I G e w @ @ ^ ;XyXrX` e t [ ,.R.R.,.[ t 8 ` rXuX;X^ @ @ w 8 G I j ] <.M.^ ^ _ ; U n X - - - < - ",
"< ; - ; - ; b ; X q ` h.6.k...t K h.+ w =   + I M.m._ K & [ k.$.$.k.[ & K ` J.M.I *   5 w + h.K t ..k.6.h.` e ; < 9 - - - , < - ",
"- - - 2 ; - 9 - - ; ` 6.s.d.;.s * n.` @ j j w K ` G K K $ [ N.<.6.N.[ $ K K G ^ K w j w   ` M.* s ;.>.d.6.` 1 ; n U - b 1 - 9 1 ",
"- - 1 ; ; - ; b < - 1 _ :.>.j.] @ Q J.I 7 K ) A _ ^ I w $  .l.k.6.k.z $ w K ` _ G ^ K 7 K K.I @ ] >.>.:._ e : < - < - 1 < ; 1 n ",
"- - - ; - - - b - 9 X 8 ,.t. .] + 7 n.K.G L _ K G ^ I 7 r z u.s.6.k.| r 7 Q ^ G K _ J G K.v.7 + ] ..6./ 8 X < < - - X - ; < ; X ",
"- - - - - - - ; b N - X w [ s # 7 7 7 h.J K _ _ e K J . t x u.:.6.6.v t . J K e _ 5.K J h.7 7 7 & s [ G   H < 1 - - - - < 1 ; - ",
"; ; ; ; 1 - X T P.- ; ,   # O % f.h.8 @ + K G ^ ^ e 8   # x u._ _ u.v $   e w ^ I G L + + 8 h.d.% O #   1 1 - - < < - - 1 1 - 1 ",
"- - - ; ; - 1 n < 1 ; - ; X & -.=.n.m.s.G = G w ^ K O -   = K _ ` K % . X @ I I j G = G s.m.n.=.-.$ X - b , - - ; ; - ; < - - ; ",
"- - ; ; - b ; b - - - X b < $ z / -.<.k.N.w K K j K 6 ; X   M _ ` G X > > 1 K w K K w n.j.6.=./ z $ - 1 < - ; 3 < - - - - - b - ",
", - < - < , - - - X ; - , < X t z :.,.j.m.t.7 K T w O < -   M ^ ( G > ; ; O w I K 7 6.m.6.<._ z t - - 9 3 - 9 < - - ; - - - , b ",
"- - ; - - - - - < - , 1 - - - - $ d :.z.v.K ^ w G J X ; < X w _ _ w X - - ; J G w Q K n.N.:.s r X , < - ; ; < - X ; < - 1 - - - ",
"< 2 - < ; - - - 1 ; < - ; - - - - # a -._ G s._ G + ; ; < 1 + K K + ; - ; - % G t.s.G _ =.s # 9 ; - ; ; ; b 1 - - - - - - - < - ",
"- 1 1 , - - - < - ; b ; - - < < 3 -   t y L s.` :.w X - - 1 X X O X , < < X w t.` s.L y t . - ; - - - ; - X N E X < - - - 1 1 - ",
"e.; - - - - < 1 - - - , - ; < < < < - O . r | G h.5.X - - - X X < ; - - ; X 5.g.L | $ . X - - - - - - - - X < 1 - < - - - ; ; - ",
"b - b ; - - < 1 < ; X b ; - ; 1 - - - 1 X X # y  .>.9 X - - - - - ; - - - q 6. .$ # X - - - X < ; - - , - - - X - X - - ; X - - ",
"1 < 1 ; - ; b < ; X ; < - < 1 ; - - - - - - X 1 $ s i X - - < < - 1 X - - i s t X X ; - - - - < < - - - - - ; - - , - - - - - - "
};
