/* XPM */
static char *ship__resized[] = {
/* columns rows colors chars-per-pixel */
"64 64 217 2 ",
"   c #020204",
".  c #0B0203",
"X  c #02010C",
"o  c #0B030C",
"O  c #050A0A",
"+  c #0B0B0C",
"@  c #090907",
"#  c #140102",
"$  c #1C0101",
"%  c #110C0C",
"&  c #16060B",
"*  c #0E100F",
"=  c #10100F",
"-  c #030213",
";  c #080716",
":  c #040915",
">  c #0A0A15",
",  c #070618",
"<  c #080718",
"1  c #0C0B1A",
"2  c #060819",
"3  c #100F15",
"4  c #100F1D",
"5  c #120711",
"6  c #0D1213",
"7  c #0F131A",
"8  c #131313",
"9  c #191514",
"0  c #181817",
"q  c #12121D",
"w  c #15191B",
"e  c #1B1B1B",
"r  c #1E171F",
"t  c #230102",
"y  c #2B0102",
"u  c #24060A",
"i  c #250B0B",
"p  c #290C0C",
"a  c #2C0609",
"s  c #320203",
"d  c #3B0101",
"f  c #3B0A0B",
"g  c #340709",
"h  c #2F0610",
"j  c #241111",
"k  c #221C1B",
"l  c #2D1918",
"z  c #2C1312",
"x  c #3C1313",
"c  c #3C1C1B",
"v  c #311414",
"b  c #38211E",
"n  c #151522",
"m  c #181724",
"M  c #151A23",
"N  c #1B1B24",
"B  c #1C1D29",
"V  c #0F1D26",
"C  c #201F2C",
"Z  c #251A22",
"A  c #331F22",
"S  c #1E2324",
"D  c #1C222B",
"F  c #162424",
"G  c #1D2532",
"H  c #232323",
"J  c #23242D",
"K  c #26292B",
"L  c #2C2C2D",
"P  c #2B2426",
"I  c #382929",
"U  c #222632",
"Y  c #232A35",
"T  c #2B2D34",
"R  c #242C3C",
"E  c #2B2E3A",
"W  c #302D34",
"Q  c #2B3135",
"!  c #2C333B",
"~  c #343434",
"^  c #3C3333",
"/  c #393936",
"(  c #33353B",
")  c #3B3B3B",
"_  c #363A3A",
"`  c #30302F",
"'  c #440202",
"]  c #4B0101",
"[  c #470B0A",
"{  c #540000",
"}  c #5E0000",
"|  c #441919",
" . c #4A1615",
".. c #551212",
"X. c #5A1616",
"o. c #640202",
"O. c #6A0303",
"+. c #6D0A0B",
"@. c #720102",
"#. c #7C0003",
"$. c #6C1916",
"%. c #55321E",
"&. c #532A1B",
"*. c #6B3519",
"=. c #4A2C2C",
"-. c #432927",
";. c #592A2A",
":. c #413C3D",
">. c #4C3F3E",
",. c #463532",
"<. c #563739",
"1. c #742A2A",
"2. c #782829",
"3. c #793232",
"4. c #682D30",
"5. c #3D403F",
"6. c #262F40",
"7. c #2A3342",
"8. c #2C3748",
"9. c #353B45",
"0. c #3B3D42",
"q. c #333C4C",
"w. c #323240",
"e. c #343F52",
"r. c #493B42",
"t. c #563241",
"y. c #3C4343",
"u. c #3C434C",
"i. c #3A4351",
"p. c #344052",
"a. c #434343",
"s. c #4C4344",
"d. c #42464D",
"f. c #434C4D",
"g. c #4C4D4D",
"h. c #514242",
"j. c #584C48",
"k. c #4A504B",
"l. c #464C52",
"z. c #484753",
"x. c #584B56",
"c. c #4D5252",
"v. c #4B525E",
"b. c #535252",
"n. c #5C5E5E",
"m. c #54595A",
"M. c #5B524B",
"N. c #7F4F5C",
"B. c #685757",
"V. c #795B5B",
"C. c #6D4949",
"Z. c #414D62",
"A. c #525868",
"S. c #6E5062",
"D. c #765363",
"F. c #5C6162",
"G. c #5D6473",
"H. c #636364",
"J. c #69696B",
"K. c #7B6969",
"L. c #676B74",
"P. c #697475",
"I. c #737479",
"U. c #7D6A74",
"Y. c #850607",
"T. c #901C02",
"R. c #821818",
"E. c #91090E",
"W. c #B22B00",
"Q. c #8B3236",
"!. c #983838",
"~. c #882F2E",
"^. c #A03738",
"/. c #C74000",
"(. c #D95700",
"). c #E75D00",
"_. c #E76200",
"`. c #A13C41",
"'. c #974448",
"]. c #8F4D4D",
"[. c #A54949",
"{. c #865863",
"}. c #9E6565",
"|. c #816F7C",
" X c #817D7D",
".X c #987579",
"XX c #856A6B",
"oX c #A37574",
"OX c #A06666",
"+X c #6C7584",
"@X c #797583",
"#X c #947E81",
"$X c #7C838A",
"%X c #788A97",
"&X c #7E9198",
"*X c #858B8B",
"=X c #8C8B8B",
"-X c #828585",
";X c #9A8689",
":X c #8A8C93",
">X c #888F96",
",X c #84949D",
"<X c #8B9092",
"1X c #939393",
"2X c #91959D",
"3X c #939A9C",
"4X c #9A9A9B",
"5X c #A89A9A",
"6X c #8598A1",
"7X c #979CA5",
"8X c #8DA2AB",
"9X c #97A5AB",
"0X c #A3A3A4",
"qX c #ABAAAA",
"wX c #A4A8AB",
"eX c #AFB0B0",
"rX c #B2B1B1",
/* pixels */
"< ; - 1 q ; n m - 1 - - X ; q B < < J m < 1 n J X - - - ; 1 1 1 - < - - - - < ; ; - - - - - - ; - ; - - B n 2 2 m 4 - - - < m N ",
"- B 1 1 < < q m - - - - - , 4 < 1 - ( 4 - - < 1 - < - - - - < < - - ; - - - - , - - - - , - - , - - - X r.z., , 1 1 - - - - N < ",
"- - - 1 N X < < - - 1 q - ; ; 4 1 - - 1 ; X 1 U X - - - - - X > X - - - - ; - X X 5 & o o ; ; , ; - - - E w.- - 4 < - - - - 1 - ",
"- < - ; < - - - - - - - < ; < < ; - ; - - < , 1 1 - X X 6 D q 6 N w - o # $ t y d y # . X X - O 5 - o X   X - - 2 B 4 , - X ; 1 ",
"- ; 1 - - - ; - ; - - - ; ; ; ; ; ; 1 ; J q X - X < m Y 8.Y Z K S 5 & ' ] '  .x & X - X # $ y d t g f u g a t # .   n - - - - , ",
"q < q - - - - - - , ; - - 1 - < ; ; ; - < X - n G 7.q.e.S e e p $ t p l ,.B.u.: - .   g  .-.I :.W L 0.w.T T L b v p & @ - - < - ",
"- - - - - - - - ; < - - - ; - < - N ; 7 q D 7.9.q.u.( S 6 u o.@.2.V.F.a.y.Y + d { 1.H S F.l.i.u.i.Y ! 7.Y T T Q T H k 9 @ X - ; ",
"; - X - ; q - ; ; < < - - - < - - J J ( 9.u.u.d.f.T @ O t o.3.K.-X*X4XI.> y @.Q.XX:X~ 6 G.A.i.8.q.E G R J B w > + O . X + X   X ",
"- - m - < n J B X - 1 < < X - ; H ( a.u.f.l.s.s.S   $ { 2.K.*X=X<X=Xa.$ +.`.#X&X&XL.+ q Z.p.7.7.6.6.M q O = e > - X - - - - < ; ",
"- - - - - X J N < - - - - < w / a.g.g.c.r...f O   ' $.V.$X1X4X1XJ.K -.].;X6X%X@Xx.q @ Y 8.R G G M 7 X X X 8 ` 8 1 ; - - - - - - ",
"- ; - - - - - X - - - - 3 / / ~ g.g.c.;.} s O # o.].*X3X1X-XH.~ N H.0X8X&XI.S.r.@ @ B 6.R G q O e + ; , 1 - X   X - B - ; - - ; ",
", B B - - - ; ; - , X 8 ) ) g.~ ) m.X.{ i 6 + [ C.J.B.b.` + % :.<X9X&X#XS.t.Z O O D 6.G w > < X > +   - - - - - - - < - - ; - - ",
"< ; 1 , ; , ; - -   e ,.:.s.s.m.:.f ' % O + 0 6 7 H w e 6 T P.9X2X|.D.t.Z @ O 8 G Y M : X < n - - -   - - - B < - - - - - < < - ",
"- - ; - 1 - q < X # [ :.r.h.s.<...d @ . 5.n.u.u.y.y.5.5.z.#X#X{.{.S.L   O Z Y R B 1 8   X X X - X - N - - - - - - n - ; < - - ; ",
"- , - , ; ; : $ & O d ..h.;...{ d * S %.R.~.!.[.[.!.!.!.`.'.{.@X+XS   8 E R G 7 @ w L P @ X B m < - ; - - - - ; X 1 , 1 C ; < X ",
"; - < < , 3 t x -.% & ] ] d t k S i V.&X X.X}.}.}.oXoX#X:X6X%X%Xu.  N ! G B :   X X @ + w @ 0.E X - - - - - - - - - - - X ; U E ",
"1 < - - - $ [ / =.s.w + . * K ` H ] Y.!.oX5X0XqX5X5X7X8X6X%X@X+XL e R D q X X 1 , - - X       X - - ; < m - - - - - - - - - - < ",
"- ; - J # f ) =.b.k.8 6 ` m.g.H e w a } #.E.R.+.O.Y.E.Q.U.@XL.v.w = N 6 6 @ X 1 , - 1 , - X   6 - - - - - - - - - - ; m 1 - - - ",
"- , ; @ s :.,.r.n.0 8 g.J./ + 0 H H K F w %     X 6 f o.#.4.z.9.N   * = H H =   - < , - - 1 - < - - - - - - , ; - - - m - < B ; ",
"- - X y -.k.>.C.a.+ g.J.`   e e e 0 * k ~ g.n.J.H.y.w 6 h d h m q O   > 8 e e * X - - - - - - - ; - - - < ; ; < , - - - ; - - - ",
"< ; . u / b.n.b.H + K H 8 e = @ @ w H.1XqXqXwX7X7X2XH.L w + + .     - - - X o *   X - - - < - - - - < - - - - - ; - - < - ; 1 - ",
"B 8 $ P H ` r.e = L L P ` e @   H 1XrXrXwX7X2X7X=XI.J.m.Q q + @   - - - - - , -     - - - - ; ; - ; , - - - - X 1 N , X - - 1 X ",
"- # | a.a.` 8 L H H ) ) ~ e * ~ 5XeXqX4X2X>X>X$XJ.H.b.0.Q D 7 O o - - - - - - - X   > - - - - - - - - < - - - < < B - - - N 1 4 ",
"o & P / :.w L L e ` 5.L H L ` =XrXwXF.k H H ~ n.g.a.~ L H w 8 X 1 1 - - - - 1 - - - - q , X - - , - - ; - - < ; n n - < 1 1 , < ",
"t  .g.) H H L k ~ ~ 0 H / ~ m.eXwXb.0 e e 0 K g.g.g.a.~ U w 6 o - ; - - - - - - - - - - - - - - - - - E 9.; , ; 1 1 - ; - - - q ",
"d >.y.e % K e L ` w L ~ / H H.qX5.k H H N k e 9 e H ~ ~ K e + O < < X - X - - - - - - X - ; - - ; - X z.A.; , , ; 1 - - < < - ; ",
"v w X X ; : o > + 8 L ` ` L ) / w S 8 % @ + 0 e H w e H w 8     - - - ; 1 - - - - - - - < - - - - - ; - X 1 - - - - , X 1 1 X - ",
"- - - - - - 1 3 X   . 8 e L K 0 & # t t t $ . + 0 9 8 % # . .     X > > n - - - - - - - - ; - X < , - 1 J X - X - - m m ; - - , ",
"; 1 ; - ; - , >   # t t t $ t t s s z j j j a t $ # # $ $ u i j 9 @         X - 1 o - - - , - ; 1 - - m m - < 1 - - , ; m < - ; ",
"1 1 - B 1 X     8 c c c x [ [ [ | ` Q _ 5.y.~ l z I I ~ ^ ^ ~ L L L L H 0 + @ @             X   X X X   X X - < - - - X - ; , - ",
"1 J - > + N H N L y.y.y.g.M.M./ I %.*.*.&.&.b / k.g.g.s./ ~ / ) a.a.5./ ~ ~ ~ ~ L L H e 8 8 8 = 8 8 8 = = + X       X - ; > m n ",
"m q X   L / / / / ) :.s.j.<.$.T./._._.(._.(.W.Y.;.g.s./ ) g.c.b.g.g.a.a.s.a.a.) / ( ~ / ~ ~ ~ ` ~ ~ ~ ~ / / ~ ~ H 8 @     < m ; ",
"B ; X @ L ^ / / / ) :.a.M.<.$.T./._._.(._.(.W.E.4.k.f.~ ) g.c.b.b.g.a.a.a.a.a.) ~ / ~ / ~ ~ ` ` ~ ~ ~ ~ / / ~ L H w @     1 ; - ",
"X ; - X + T K N L y.5.y.k.M.M.,.-.%.*.*.&.&.b / k.g.g.a./ ~ / ) 5.a.a./ ~ ~ ~ ~ ~ H H w 8 8 8 8 8 8 8 = * * @       X X - - n X ",
"; - - - > N O X 8 c c c x [ [ [ b ` Q ! 5.y.` l z I I ^ / ~ ~ L ` ` L k 0 + @ .         @ @   X   X   X o < X X n N - - - n J 1 ",
"4 q 1 ; J m o X   $ y t t $ $ t s s z j j j a t # # $ $ $ a i i 9 +     @ O - > X - X X 4 B - , - ; q < - < B B < - - - - N U 4 ",
"1 4 < , 1 4 - X X   . 8 e L L w % $ t t t $ . % 0 9 % & & . .     X o 1 q , ; 1 - q - > - ; - - - < n ; < - m 1 - - ; ; - - - - ",
"p w   ; ; X ; > @ 8 K T ` L / ( e k 8 + % + 8 e H w e H w 8     - - - - < 4 N - < - < 1 m N - - < 1 X - n ; - - - < 1 ; - - < < ",
"d h.0.e + K e L ` 0 L ~ ~ H H.qXr.H H H e k e 8 e H ~ ~ K N = X < > - - ; < m 1 , - 1 - 1 - ; ; - ; - - ; < ; - - - X < < - - q ",
"t | l.:.H H ` k ~ ~ w H / / b.eX0Xk.0 e e 0 L g.g.g.y._ K e * X - 1 J ; < 1 , , < - q 1 - < - < X ; < ; 1 < - q X - - - - X < 1 ",
"X u P / ) e L L e ` ) L H L T =XeXqXF.k H H ~ H.g.a./ L S w 6 X q - 1 1 - - - X - - 1 ; ; - - - - - - < < 1 1 B n - ; - - - - - ",
"X # | a.a.~ 8 L H H ) ) / e @ ~ 9XrXqX4X3X>X:X$XJ.n.b.0.E H 6 + + - - - - - 1 m -   > q - ; - ; - - q - - 1 < ; B < , - - ; - - ",
"- X t P H ` a.w = L L K L k @ @ k 1XrXeXwX7X7X2X>XI.J.b.Q 8 + O   - , - - , - > @   - < - > - 1 > - q - X - q n ; 4 - 1 < ; - , ",
"4 < . u ) g.n.b.H + P H 8 e 8 O @ 0 H.1XqXwXwX7X7X2XH.L w > % .     - - X X O =   X - - ; - ; - - < < 1 - - , 1 - - - - q < ; - ",
"1 - + y -.g.s.h.a.@ g.J.L @ e e e w % k ~ g.n.L.H.u.w 6 a d h Z q O   + 8 w k = X - - - ; - - - ; < < ; N q ; ; - - - , 1 - N 1 ",
"w 1 <   d :.<.h.n.0 8 b.H./ + 8 H H H F w %       5 x o.#.4.z.9.N   > 8 H H = X ; - - - - ; - - N 3 - - 1 1 < - - , - - - - - - ",
"1 , - - # f ^ =.m.k.8 8 ~ m.g.H e e d o.Y.E.+.+.+.Y.E.Q.U.%XL.v.w 8 m 6 8 + X 1 ; - - - N >   w - - 1 ; < 1 ; - - - ; - - , - - ",
"- - 1 < : $ [ ^ =.a.8 + . * L Q H ' Y.~.oX5XqXrX0X5X7X8X6X@X+X+XK e R D 7 O - - - - X X       < m - - ; 1 - - q , - 1 , - - - - ",
"- - - - - < t x -.* & ] ] ' t k H u B.&X X.XOX}.}.oXoX;X:X6X%X%Xu.  N 7.Y F > X > .   = 0 X - - X - - , 1 m < ; Y N - - - - < - ",
"1 - ; , - - q t & O d ..>.;...{ d + H 4.R.~.!.[.[.!.!.!.!.'.{.@X+XD   3 E R D 7   e L K + X ; , 1 n - - 1 ; ; < ; 4 - - - ; < - ",
"- - - < ; ; 1 X X # [ 5.>.s.h.<.X.' O . 5.m.f.f.u.y.5.5.g.;X.X{.{.V.I   O S Y Y D 6 8     - - ; - 1 - - ; - < - m J - n 1 - q 1 ",
"- ; < ; , - ; m <   e ^ :.s.s.m.) f ' % O @ 0 O w k e 0 8 Q I.9X6XU.D.t.Z O @ q G G n : X ; X n n X X - - 1 > < - , - 1 < - 1 N ",
"- - - ; X - - m - n   0 ) a.f./ ) m.X.{ i 7 @ [ C.P.H.g.~ + 6 ) :XwX6X@XD.t.Z X + D 6.G n :   J J @   < - ; - ; - X - X - < ; - ",
"- - - - - - - - n B - < 6 / / ` c.k.c.;.{ s X # } ].=X1X1X-XB.~ k H.0X9X&XI.S.r.+ @ D 6.R G M X 0 + X , - B +   - - - - > 1 < - ",
"; ; ; - 1 ; X E L.- ; - - 1 0 ) a.s.g.c.h...f +   s $.V.-X1X4X1XJ.K A ].;X8X%X@Xx.q O Y 7.6.R R m 7 X - o 0 ` 6 ; < - - 1 4 X 1 ",
"- - - ; ; - 1 N < 1 ; - , - - 1 K ) u.a.f.l.s.r.S   t { 2.K.*X*X=X=Xs.$ o.'..X,X,XL.+ 8 Z.e.7.6.R 7.N w O > e + X ; - - < - - < ",
"- - ; ; - n ; n X - - X n < - - - ; D ( 9.u.i.f.f.T O O t O.3.K.-X*X4XI.6 y @.~.XX>XQ = G.A.i.7.q.E Y R J D w 8 + X . X O .   X ",
"; - < - < ; - - - - ; - , , - - - 4 - X q D ! 8.q.u.( S 6 u } @.1.D.F.a.y.Y 8 X.{ 1.H e F.l.d.9.i.U E 7.Y Q Y Y ` K k 9 % X - n ",
"- - ; - - - - - < - ; 1 - - - - X n m q - X N N U 7.q.i.N e e p t u i l =.n.f.M : .   f | -.I :.( L w._ T W I A v p & X < - - - ",
", 1 - < ; - - - 4 - < - ; - - - - - N Y N X < X X o M Y 8.Y H L S 5 & ' ] '  .x & X - - # $ s d t s f u g a $ # . X X - - - < - ",
"- 1 1 ; - - - ; - ; m ; - - 1 , 1 - - < , - - ; , ; X X < B M > H N - ; # $ t s d y $ . X - > - - X X o X X N E - 1 X - - 1 q X ",
"w.< - - - - < 1 X - X - - ; < , ; ; - 1 - - - < - < - - - X X   ; ; - - , - - X - X & o   . ; X - - - - - - < 4 X < - - - - ; - ",
"m - m ; - - < 1 < ; - m ; ; ; 1 - - ; < - - X m m - - - - - - - - ; - - - q - - , - 2 - - - - < , - - , - - X - - - - - ; - - - ",
"1 < < ; - ; m 1 - - ; < - < 1 - - - - - - - - q 1 < - - - - < , - < - - - - - - - - - - - , - < < - - - - - ; - - - - - - - X - "
};
