/* XPM */
static char *_0_resized[] = {
/* columns rows colors chars-per-pixel */
"64 64 207 2 ",
"   c None",
".  c #020202",
"X  c #0B0503",
"o  c #0C0A04",
"O  c #040A0B",
"+  c #0C0C0C",
"@  c #140504",
"#  c #1D0705",
"$  c #120E04",
"%  c #110D0B",
"&  c #1D0B0A",
"*  c #1B1503",
"=  c #13110D",
"-  c #1B150A",
";  c #181406",
":  c #060F10",
">  c #071214",
",  c #081416",
"<  c #0A1A1C",
"1  c #071618",
"2  c #131313",
"3  c #181713",
"4  c #1C1B1B",
"5  c #1A1A16",
"6  c #100F10",
"7  c #210706",
"8  c #240906",
"9  c #2B0A08",
"0  c #280907",
"q  c #340C0A",
"w  c #3A0D0B",
"e  c #221A02",
"r  c #231D0C",
"t  c #281E01",
"y  c #231C1A",
"u  c #3A1714",
"i  c #361009",
"p  c #2C240E",
"a  c #2B2104",
"s  c #322503",
"d  c #3B2D02",
"f  c #342908",
"g  c #26231B",
"h  c #352C11",
"j  c #31261C",
"k  c #3D310D",
"l  c #0D1E20",
"z  c #1D1D24",
"x  c #0D2225",
"c  c #0E2529",
"v  c #0F282C",
"b  c #112A2E",
"n  c #102528",
"m  c #112D31",
"M  c #15363A",
"N  c #14363A",
"B  c #232323",
"V  c #2C2B2C",
"C  c #292626",
"Z  c #332A23",
"A  c #37342A",
"S  c #333233",
"D  c #3D3C3C",
"F  c #393739",
"G  c #2F2E30",
"H  c #430F0C",
"J  c #490F0B",
"K  c #4C110E",
"L  c #44100C",
"P  c #52120F",
"I  c #551410",
"U  c #5D1612",
"Y  c #5B1914",
"T  c #641712",
"R  c #6D1914",
"E  c #661813",
"W  c #741B16",
"Q  c #7C1D17",
"!  c #4D3B03",
"~  c #443406",
"^  c #463A16",
"/  c #543F03",
"(  c #43392B",
")  c #433D37",
"_  c #5D2E25",
"`  c #5A4503",
"'  c #584306",
"]  c #5D4D1E",
"[  c #54451B",
"{  c #4D4019",
"}  c #634B05",
"|  c #6B5205",
" . c #6B520A",
".. c #7C5E05",
"X. c #745804",
"o. c #63511D",
"O. c #6F5918",
"+. c #7C600E",
"@. c #4B4335",
"#. c #4A4437",
"$. c #594E31",
"%. c #64562D",
"&. c #173C41",
"*. c #183F44",
"=. c #3E3E42",
"-. c #423E41",
";. c #194146",
":. c #1A454B",
">. c #1B474D",
",. c #1D4C52",
"<. c #1F5158",
"1. c #1F5057",
"2. c #21555C",
"3. c #25474B",
"4. c #235C64",
"5. c #26636B",
"6. c #296C75",
"7. c #2A6D76",
"8. c #2C727B",
"9. c #36686E",
"0. c #434343",
"q. c #4B4A4B",
"w. c #484646",
"e. c #5C5443",
"r. c #54514A",
"t. c #545454",
"y. c #5C5C5C",
"u. c #655C49",
"i. c #655B49",
"p. c #736953",
"a. c #6C624E",
"s. c #646464",
"d. c #6B6B6B",
"f. c #757474",
"g. c #7B7B7B",
"h. c #7B7A77",
"j. c #841E19",
"k. c #851E18",
"l. c #8C211B",
"z. c #93221C",
"x. c #9C241D",
"c. c #A4261F",
"v. c #A82720",
"b. c #836305",
"n. c #8A6908",
"m. c #916E08",
"M. c #9C7706",
"N. c #836816",
"B. c #9C7B1E",
"V. c #A47D07",
"C. c #A07E1A",
"Z. c #8C7124",
"A. c #877A61",
"S. c #80735B",
"D. c #B58907",
"F. c #B98D08",
"G. c #AF8710",
"H. c #C79708",
"J. c #D8A408",
"K. c #E2AC08",
"L. c #EBB309",
"P. c #E9B007",
"I. c #FABE0A",
"U. c #F4B90A",
"Y. c #EBB71D",
"T. c #D4AC32",
"R. c #FDC00B",
"E. c #FCC216",
"W. c #FDCB34",
"Q. c #FCC625",
"!. c #95876B",
"~. c #95876B",
"^. c #A39375",
"/. c #AC9B7B",
"(. c #B1A07F",
"). c #E0B840",
"_. c #FED353",
"`. c #2D7781",
"'. c #2F7A84",
"]. c #317E89",
"[. c #307C86",
"{. c #32828D",
"}. c #398691",
"|. c #3B8893",
" X c #448D97",
".X c #4C929C",
"XX c #518C95",
"oX c #7F8080",
"OX c #599AA3",
"+X c #609EA7",
"@X c #63A0A9",
"#X c #828282",
"$X c #89898A",
"%X c #878788",
"&X c #979798",
"*X c #B7A683",
"=X c #9FA0A4",
"-X c #A5A5A5",
";X c #CCB892",
":X c #C6B38E",
">X c #DEC89F",
",X c #D7C39A",
"<X c #DFCAA0",
"1X c #E3CDA3",
"2X c #E8D2A7",
"3X c #EBD5A9",
"4X c #F1DAAD",
/* pixels */
"                                                                                                                                ",
"                                                          .                                                                     ",
"                                                          . , .                                                                 ",
"                                                          > 5.1.c O                                                             ",
"                                                          > 5.{.[.4.N ,                                                         ",
"                                                          , 2.].{.{.{.7.>.x O                                                   ",
"                                                          , >.'.{.{.{.{.{.'.4.&.l O               . .                           ",
"                                                          , *.6.{.{.{.{.{.{.{.{.'.5.,.N c ,       O < .                         ",
"                                                          , &.4.{.{.{.{.{.{.{.{.{.{.{.{.'.7.4.>.M x 4.2.1 .                     ",
"                                                          O M ,.[.{.{.{.{.{.{.{.{.{.{.{.{.{.{.{.].'.'.{.8.M O                   ",
"                                                          O N ;.7.{.{.{.{.{.{.{.{.{.{.{.{.{.{.{.{.{.{.{.{.{.4.x .               ",
"                                                          . n ;.4.{.{.{.{.{.{.{.{.{.{.{.{.{.{.{.{.{.{.{.{.{.{.`.;.:             ",
"                                                            1 &.>.`.{.{.{.{.{.{.{.{.{.{.{.{.].{.{.{.{.{.{.{.{.|..X9.x .         ",
"                                                            O N ;.5.{.{.{.{.{.{.{.{.{.}.}.}.}.}.}.}.}.}. X.XOXOX@X@XXX3.O       ",
"                            .                               . 1 &.>.`.{.{.{.{.{.{.{.{.{.{.}.}. X X.XOXOX+X@X@X@X@X@X@XOX9.> .   ",
"                          # q X .                             . m ;.1.8.{.{.{.{.{.{.{.{.{.{.{.{.{.{.}.{.|. X X X X.X X|.{.*..   ",
"                        . 0 k.W T 9                           . : &.2.4.7.].{.{.{.{.{.{.{.{.{.{.{.{.{.{.{.{.{.{.{.{.{.{.{.M .   ",
"                      7 I q w x.c.l.w                           . x 8.{.[.{.{.{.{.{.{.{.{.{.{.{.{.{.{.{.{.{.{.{.{.{.{.{.{.N .   ",
"                      7 E z.l.c.c.c.x.I @                     . O x 8.{.{.{.{.{.{.{.{.{.{.{.{.{.{.{.{.{.].{.{.{.{.{.{.'.5.N .   ",
"                    I W K Q c.c.c.c.c.c.R 7                   . b 5.{.{.{.{.{.{.{.{.{.{.{.{.{.{.{.8.[.{.8.5.'.{.{.[.8.5.< < .   ",
"                  . 8 I k.x.c.c.c.c.c.c.c.l.q                   . < 2.7.'.{.{.{.'.].{.{.{.{.{.{.{.&.v >.4.1.M 2.'.5.v 1.O . .   ",
"                      . 7 H R k.x.c.v.v.c.c.x.R q @         0 H K q % l N 8.].{.5.<.{.{.5.7.{.{.{.m X z O > < < <.;.. c . . .   ",
"                            X 0 u T Q z.x.x.z.j.T w 9 # @ . I c.c.z.W 0 n 6.>.6.4.&.{.].M 5.].8.{.*.+ &X%XB < ;.8.c . .         ",
"                                . X 7 q K q 9 Z ) C 9 w q . 7 W Q W J + b < c 4.*.v 8.8.c >.].,.2.4.O V $Xf.n , ;.O . .         ",
"                    . @ # I T U I J w w 0 % D d.%Xq.o f ~ ' s ) f.&Xy.& w % m v M c 4.8.x c {.4.< c 1 % @.e.e.e.G A =           ",
"                    @ W k.z.c.c.c.c.c.k.K V t.g.$Xq.d ..F.J.%.&XS -X=Xq.X % & + m v &.`.v O <.5.1 + i.(.2X4X3X3X,X;XA           ",
"                    . 7 0 R c.z.Q Y u u 5 G t.oX=Xt.d b.K.L.] =X0.S #Xr.! i l.H & 2 < 7.N > x ;.< u.,X4X4X3X4X4X4X2X@.          ",
"                      K j.W I u Z #.p.!.i.V q.g.-Xt.s b.J.R.D.%.h.h.i.n.M.w x.j.P H & >.;.O v : y S.1X4X4X4X4X4X>XA.            ",
"                      9 j ( i.A.(.;X1X4X*Xg D s.&Xs.e X.D.I.R.K.F.V.F.D.d K v.x.T I P 2 N O > O = a.(.4X4X1X;X^.(               ",
"        y @.p.i.Z g @.p.^.:X1X3X1X;X^.p.( O B q.g.h.5 d ! ..b...X.} ~ / * R v.c.W Q x.P > O . . . A p.(.1X2X:X#.                ",
"  3 ( p.^.;X3X>X*X*X1X2X>X:X!.u.( y X       X 2 C G = t ` ` ' ..~ z #.} 8 j.v.c.z.x.v.z.9 . q W E Y _ ( a.^.#.                  ",
"  @.^.1X4X4X4X4X4X3X!.e.A - .                   . * } | b.F.V.G.H.a 3.S # Q c.c.l.T R W T @ 0 z.z.j.E 0                         ",
"  Z (.2X3X4X4X4X4X*X%                           e | ..b.D.I.L.H.L.D.r -.u T x.c.x.l.j.z.z.U @ 9 # X .                           ",
"    u.^.1X2X;X:X;Xe.                    2 . . e | ....n.P.I.I.I.U.I.M.y F u W c.c.c.c.z.T I K @                                 ",
"    #./.A.i.Z a.i.                    C s.w.+ d ......n.K.I.I.I.I.I.U.b.B -.u R x.c.c.x.z.z.R                                   ",
"                                  . 4 0.s.oXs.B ~ X.....V.U.I.I.I.I.I.L.} S q.& P k.c.v.v.z.q                                   ",
"                                    3 F 0.y.g.g.0.h ` |  .m.G.G.G.B.Z.Z.%.3 w.=.+ 7 K R R q .                                   ",
"                                    . 2 F 0.t.h.#Xs.A - -.q.t.q.0.0.0.0.) j 6 q.y                                               ",
"                                    . X 2 G 0.q.d.#X#Xy.S l = p ! ..V.F.H.b.X +                                                 ",
"                                    . 2 4 2 C D 0.t.f.#X!.f.y.#.( ^ ` ..n.s                                                     ",
"                                  . X 4 B S B 4 S D w.t.d.h.$X&X&X%Xf.y.q.=.4 .                                                 ",
"                                  . 2 4 V F D V 4 4 S D 3.q.t.y.d.g.$X$X#Xh.C                                                   ",
"                                  . 3 z S ) D D F V 4 4 Z S F ) -.-.w.q.r.F 2 4                                                 ",
"                                . + 4 C =.D D D D =.) V X = y z B B B n z + V D G 3                                             ",
"                                . 2 y S D D =.D =.F S , 2 S D F S S G V C G D D D F B O                                         ",
"                                + 4 V D D D D D #.V 6 + C G G G S S F F S V g 5 2 B F C X                                       ",
"                              X 3 z S D D D ) F B O . $ = 2 4 4 y 4 2 r d } ..n.b.` j S z .                                     ",
"                              6 g V D D =.D F 4 .   o p p - o X * d } M.H.L.U.U.R.I.F.k 2 .                                     ",
"                            X 4 n ) -.=.F C +       $ h { ^ = a X.V.J.I.R.R.E.Q.W._._.T.} $                                     ",
"                          . . 2 4 V G C 2 .       X p [ ] ] k * / m.M.m.m.n.N.N.N.+.O.+.| t . .                                 ",
"                        o d b.G.M.+.O.' - .       % { ] o.[ p                                                                   ",
"                      e X.H.I.I.W._.T.| *       . p o.] ^ -                                                                     ",
"                    e ..J.R.R.W.T.Z.s           X ^ o.[ ;                                                                       ",
"                  $ } J.R.R.Y.C.~               . ; h h .                                                                       ",
"                X ! V.U.U.D.'                         . .                                                                       ",
"            o X a ..H.H.` $                                                                                                     ",
"        ; - p r * ! ` a                                                                                                         ",
"      . ; p ^ [ ^ ^ $                                                                                                           ",
"        X ; h ] ] o.h .                                                                                                         ",
"            o h ] ] { - .                                                                                                       ",
"              X h ] ] { - .                                                                                                     ",
"                . r ^ p o                                                                                                       ",
"                    X                                                                                                           ",
"                                                                                                                                "
};
