/* XPM */
static char *_1_resized[] = {
/* columns rows colors chars-per-pixel */
"64 64 200 2 ",
"   c None",
".  c #020202",
"X  c #0B0402",
"o  c #0C0A03",
"O  c #040C0D",
"+  c #0C0C0C",
"@  c #080708",
"#  c #140404",
"$  c #1C0705",
"%  c #110F0E",
"&  c #180C05",
"*  c #151105",
"=  c #1B1401",
"-  c #18150B",
";  c #070F10",
":  c #071213",
">  c #0A1A1C",
",  c #091516",
"<  c #121212",
"1  c #1C1A15",
"2  c #1C1B1B",
"3  c #151E1D",
"4  c #240807",
"5  c #2B0A09",
"6  c #260B08",
"7  c #330C0A",
"8  c #3B0D0A",
"9  c #231D0B",
"0  c #281A06",
"q  c #211E1D",
"w  c #251B15",
"e  c #2D250D",
"r  c #2A2004",
"t  c #372A02",
"y  c #24211B",
"u  c #262113",
"i  c #342B11",
"p  c #362E15",
"a  c #3C3213",
"s  c #121F21",
"d  c #201F20",
"f  c #0E2529",
"g  c #11272A",
"h  c #122E32",
"j  c #123135",
"k  c #143539",
"l  c #17363A",
"z  c #242323",
"x  c #2C2B2C",
"c  c #2A2823",
"v  c #342D2A",
"b  c #3B352A",
"n  c #363228",
"m  c #343333",
"M  c #393536",
"N  c #3D3C3C",
"B  c #383738",
"V  c #302F30",
"C  c #440F0D",
"Z  c #46100D",
"A  c #4B110E",
"S  c #441E09",
"D  c #52130F",
"F  c #551410",
"G  c #5D1511",
"H  c #5D1A15",
"J  c #451310",
"K  c #631713",
"L  c #6B1914",
"P  c #691813",
"I  c #731B16",
"U  c #7C1D17",
"Y  c #453403",
"T  c #4C3903",
"R  c #45360B",
"E  c #513E04",
"W  c #433715",
"Q  c #5B240C",
"!  c #443E31",
"~  c #513429",
"^  c #5B4504",
"/  c #564208",
"(  c #4E4019",
")  c #5C4C1D",
"_  c #53451A",
"`  c #644C04",
"'  c #6C5207",
"]  c #7C5E05",
"[  c #725705",
"{  c #624F18",
"}  c #60501F",
"|  c #765D11",
" . c #7E6005",
".. c #544C3C",
"X. c #4F493C",
"o. c #6A5C32",
"O. c #173C40",
"+. c #183F44",
"@. c #3E3E41",
"#. c #194146",
"$. c #1B454B",
"%. c #1C494F",
"&. c #1D4B52",
"*. c #1F5158",
"=. c #20555C",
"-. c #22585F",
";. c #22494F",
":. c #235C64",
">. c #26636B",
",. c #296B74",
"<. c #2B6F78",
"1. c #286770",
"2. c #2C727C",
"3. c #396A71",
"4. c #434343",
"5. c #4A4A4B",
"6. c #484649",
"7. c #514E4A",
"8. c #585247",
"9. c #545454",
"0. c #5C5C5B",
"q. c #565458",
"w. c #645B48",
"e. c #6C624E",
"r. c #766A54",
"t. c #776C55",
"y. c #7C7059",
"u. c #68655C",
"i. c #6A6B6B",
"p. c #626262",
"a. c #7C7C7C",
"s. c #747474",
"d. c #831E19",
"f. c #831E18",
"g. c #8B201A",
"h. c #92221C",
"j. c #9C241D",
"k. c #A4261F",
"l. c #A72720",
"z. c #866607",
"x. c #926E06",
"c. c #9B7605",
"v. c #98740A",
"b. c #907116",
"n. c #A37C07",
"m. c #A27E14",
"M. c #977920",
"N. c #877A61",
"B. c #AB8207",
"V. c #B78B08",
"C. c #B08916",
"Z. c #BE9722",
"A. c #CC9B08",
"S. c #C49509",
"D. c #D09D07",
"F. c #DAA508",
"G. c #E4AD08",
"H. c #EDB409",
"J. c #F4B90A",
"K. c #FABE0A",
"L. c #F0B60A",
"P. c #E7B31A",
"I. c #EFBC24",
"U. c #FDC00A",
"Y. c #FDC318",
"T. c #FCCA36",
"R. c #8F8167",
"E. c #94866A",
"W. c #A49476",
"Q. c #B09F7E",
"!. c #B1A07F",
"~. c #E4BC44",
"^. c #D9B342",
"/. c #FBD04F",
"(. c #2E7781",
"). c #2E7983",
"_. c #317E89",
"`. c #307C87",
"'. c #32828D",
"]. c #388691",
"[. c #3A8791",
"{. c #448D97",
"}. c #4C929C",
"|. c #4B8A94",
" X c #5C9CA5",
".X c #5799A2",
"XX c #64A1AA",
"oX c #838383",
"OX c #8A8A8B",
"+X c #959596",
"@X c #BBA986",
"#X c #A8A8A8",
"$X c #CBB791",
"%X c #D9C49C",
"&X c #DFC9A0",
"*X c #E2CDA2",
"=X c #ECD5A9",
"-X c #EFD8AB",
";X c #E7D1A5",
":X c #F1DAAD",
/* pixels */
"                                                                                                                                ",
"                                                                                                                                ",
"                                                                . @ .                                                           ",
"                                                                . l +.: .                                                       ",
"                                                                . $.'.<.#.>                                                     ",
"                                                                . O.).'.'.2.&.f .                                               ",
"                                                                @ k 2.'.'.'.'.(.-.j :                 .                         ",
"                                                                . j >.'.'.'.'.'.'._.,.&.j > O         @ @                       ",
"                                                                @ h *.'.'.'.'.'.'.'.'.'.'.2.>.&.k f ; : %.> .                   ",
"                                                                . h %.(.'.'.'.'.'.'.'.'.'.'.'.'.'.(.1.:.2.2.k .                 ",
"                                                                  f #.1.'.'.'.'.'.'.'.'.'.'.'.'.'.'.'.'.'.]._.=.,               ",
"                                                                  > #.-.'.'.'.'.'.'.'.'.'.'.'.'.'.'.'.'.'.'.'.'.<.h .           ",
"                                                                  : +.%.(.'.'.'.'.'.'.'.'.'.'.'.'.'.'.'.'.'.'.'.'.`.;.O         ",
"                                                                  . j #.1.'.'.'.'.'.'.'.'.'.].'.'.'.'.'.'.'.'.[.|..X X3.> .     ",
"                                                                    > #.*._.'.'.'.'.'.'.'.'.].[.{.[.{.{.}.}..X XXXXXXXXX|.h .   ",
"                                    .                               . k $.>.'.'.'.'.'.'.'.'.'.'.'.].[.{.}..X.X X X X X.X.X|.h . ",
"                                  $ 7 X                             . , +.%.>._.'.'.'.'.'.'.'.'.'.'.'.'.'.'.'.'.].].].'.'.'.%.. ",
"                                . 4 d.I G $                           . h :.,.<._.'.'.'.'.'.'.'.'.'.'.'.'.'.'.'.'.'.'.'.'.'.+.. ",
"                                D 7 8 j.l.I 4                         . , ,.].'.'.'.'.'.'.'._.'.'.'.'.'.'.'.'.'.'.'.'.'.'.'.l . ",
"                              # G h.h.k.k.l.U 5                     . > k <.'.'.'.'.'.'.'.'.'.'.'.'.'.'.'.'.(.'.'.'.'.'.(.&.j . ",
"                            8 I Z U l.k.k.k.l.g.8                     , =.`.'.'.'.'.'.'.'.'.'.'.'.'._.1.2._.,.:.).'._.:.1.> ; . ",
"                          . $ D d.k.k.l.k.k.k.l.h.Z                   X O k :.<.'.'._.<._.'._.`.'.'._.h > j %.O.h *.<.f #.: . . ",
"                              . 4 A I h.k.l.k.k.k.j.L 5           4 F K A 4 ; g (.(._.%.(.'.,.:.'.'.'.f < m @ O > +.-.. , O   . ",
"                                  . # 7 G U h.j.k.j.j.U 8 $ #     4 j.k.l.U 5 O.:.+.2.k >.'.&.#._.1._.+.< #XOXx f >.#.. .       ",
"                              . X X 4 # X $ 8 F K K G D D D Z 7 # . L f.I 8 + 2 % O.&.j %.`.O.j _.*.$.:.@ x i.5.O h , . .       ",
"                              5 I I h.d.I G C 7 5 7 8 8 C Z A Z # . v s.+X5.$ C , j g O.j (.+.: <.:.> > , p e.N.y.w.X.c .       ",
"                              # 8 G k.k.k.k.k.j.g.H 7 z x X & r ^ W oXp.#XXXX.0 $ 6 , j > ,.%.@ +.1.> w N.$X:X:X:X=X&Xt.        ",
"                              5 K L k.k.k.k.k.k.h.5 B s.s.1 T z.G.z.+X4.w R.8.x.Q U 8 4 O &.=.; s k 3 t.=X:X:X:X:X:X:Xt.        ",
"                              7 K L k.k.k.k.k.k.g.w 5.a.OXX.T x.L.D.o.oXOXu.z.S.S j.I F 8 f *.: g ; 2 N.&X-X-X:X:X*XW.c         ",
"                              4 F L k.k.k.k.k.k.U w 4.s.+Xs.e [ S.U.F.B.c.S.S.Y F l.d.F G 5 h , O O + e.$X:X-X$X@Xw.%           ",
"                              5 L K I L K F A 7 6 2 B 0.OX+XB Y x.F.J.G.V.` S & d.l.j.L j.U % : . . . b N.!.;X&XR.1             ",
"                              . . . X       . y w.y.x @.p.+Xs.y T / ` T % M T 5 f.l.k.h.j.l.F . 6 I L H ~ ! y.N.1               ",
"                                          + X.N.$X=Xt.2 @.p.R.6.X E ] S.Y B m 5 f.l.l.I L I I 4 $ f.h.d.G #                     ",
"                                        y w.Q.;X;XW.n . % g z p ' D.D.F.S.e @.w I l.l.h.f.f.j.I $ 5 $ # .                       ",
"                                    o b R.%X-X@X..+ . 0 T t ^ B.U.K.K.H.J.n.y M J f.l.l.l.j.I F A $                             ",
"                                  1 w.@X;X%Xt.y 6.X.@ Y z.z.] V.K.K.K.K.K.J.[ x M J d.l.l.l.h.f.I #                             ",
"                          y w.w...E.*X;XE.v < B p.N.q.q ^ ] ] z.F.K.K.K.K.K.G.E 4.m 7 I j.k.l.k.A                               ",
"                        b R.%X*X%X=X@XX.@   < B ;.u.oXi.x Y ' [ z.S.S.S.C.m.M.} 2 q.d # Z I d.F X                               ",
"                    < ..@X;X:X:X:X-X8.      . < M 4.p.a.a.6.w p 7.9.8.5.6.6.4.! q z 5..   #                                     ",
"                    n W.*X:X:X:X:X=Xe.      . + 1 M 4.q.a.oXi.M z < w W ' z.m.B.` . 2                                           ",
"                    w r.%X%X:X=X!.@Xb     . < 2 d 2 x @.5.i.a.oXs.7.b W / [ n.B.t                                               ",
"                      n e.@X$Xr.n ..    . @ 2 z B m 2 z @.4.9.i.a.OX+XOXs.0.4.b z +                                             ",
"                        b N.!         . . 2 z m ! @.N d 2 V @.4.5.q.p.a.OX+X+XoXs.2                                             ",
"                                      X 2 q V N N N N N x 3 2 x N @.4.4.5.7.q.p.@.<                                             ",
"                                    . % 2 x N ! N N @.N @.N V 2 + 2 z x x V x x + V x 3                                         ",
"                                    + 2 x B @.@.@.@.N N N m d < z m V x z z 2 2 z N X.B z .                                     ",
"                                  % 2 x M N @.N ! @.N M d @ % x M M N B N N N N @.N N N ! x @   * o                             ",
"                              . < 2 x M @.N N @.@.B z + . . < 2 2 d d z z z x x V V B N m z e { x.0                             ",
"                            . + 3 x N N N ! @.B z < .         @ @ + + % < < < < 2 2 2 + t n.P./.b.                              ",
"                          . . < 2 m N @.@.m z <                                 . + . r A.K./.~.Y                               ",
"                        0 T z.z.^ i y c < @                                         o [ L.K.T.C.o                               ",
"                    * / n.H.K.U.T.~.m.t .                                           = x.J.K.I.E                                 ",
"        o *       = ` A.K.U.Y./.^.M.E                                               = c.J.U.V.*                                 ",
"      X 9 e - X = ` S.U.U.P.Z.| t                                                   = z.J.J.^                                   ",
"      * a ( p - ^ B.J.F.c.^ =                                                       = [ F.V.=                                   ",
"    o a ) } a = ` c. .t                                                             X ` c.`                                     ",
"  . i ) } ) a o o                                                                 o o 0 t o                                     ",
"  - ) } _ e o                                                                   * r i p W -                                     ",
". e ) _ *                                                                     X - i ( } } a o                                   ",
"  o 9 u .                                                                       o - p ) } ) r .                                 ",
"      .                                                                             o e ) } _ i o .                             ",
"                                                                                      X 9 ( ) W o                               ",
"                                                                                          o 9 o                                 ",
"                                                                                                                                "
};
