/* XPM */
static char *_2_resized[] = {
/* columns rows colors chars-per-pixel */
"64 64 203 2 ",
"   c None",
".  c #020202",
"X  c #0C0403",
"o  c #0C0903",
"O  c #040708",
"+  c #040A0A",
"@  c #0C0C0C",
"#  c #140404",
"$  c #1D0705",
"%  c #120E03",
"&  c #120F0B",
"*  c #151105",
"=  c #1A1401",
"-  c #1E1A0C",
";  c #14110C",
":  c #060F10",
">  c #0A1415",
",  c #091719",
"<  c #0A1A1C",
"1  c #071314",
"2  c #141313",
"3  c #181716",
"4  c #1C1B1B",
"5  c #121B1B",
"6  c #240906",
"7  c #2C0C0A",
"8  c #270807",
"9  c #320C09",
"0  c #3B0E0B",
"q  c #221C0B",
"w  c #241A02",
"e  c #3F110F",
"r  c #211E1E",
"t  c #231A15",
"y  c #331E1D",
"u  c #2C2309",
"i  c #352905",
"p  c #3E3006",
"a  c #24211A",
"s  c #292414",
"d  c #342B12",
"f  c #382F12",
"g  c #3D3416",
"h  c #0C1E20",
"j  c #201F21",
"k  c #0D2224",
"l  c #0E2629",
"z  c #0E292D",
"x  c #10292C",
"c  c #112D31",
"v  c #133135",
"b  c #14353A",
"n  c #15393E",
"m  c #232223",
"M  c #2B2924",
"N  c #2D2C2C",
"B  c #282728",
"V  c #312E29",
"C  c #39352B",
"Z  c #343334",
"A  c #3E3C3D",
"S  c #383638",
"D  c #420F0C",
"F  c #4C110E",
"G  c #46100D",
"H  c #53160F",
"J  c #561410",
"K  c #5B1511",
"L  c #401513",
"P  c #6C1914",
"I  c #631712",
"U  c #731A15",
"Y  c #7B1C17",
"T  c #7E1D18",
"R  c #443403",
"E  c #4B3904",
"W  c #483807",
"Q  c #523E03",
"!  c #453916",
"~  c #473B17",
"^  c #442A10",
"/  c #413B2D",
"(  c #423A34",
")  c #612E2B",
"_  c #6E211B",
"`  c #594405",
"'  c #5E4E1E",
"]  c #53451B",
"[  c #4D4019",
"{  c #634B04",
"}  c #654D07",
"|  c #6C5204",
" . c #6F5508",
".. c #7C5E05",
"X. c #745904",
"o. c #60501F",
"O. c #604F1F",
"+. c #7E6109",
"@. c #484237",
"#. c #574E3E",
"$. c #66582F",
"%. c #173C41",
"&. c #183F44",
"*. c #3D3D41",
"=. c #403F43",
"-. c #1A454B",
";. c #194146",
":. c #1D4C52",
">. c #1F5158",
",. c #20545B",
"<. c #28585F",
"1. c #204145",
"2. c #235C64",
"3. c #26636B",
"4. c #296B74",
"5. c #286770",
"6. c #2C737C",
"7. c #396970",
"8. c #444344",
"9. c #4B4A4B",
"0. c #484748",
"q. c #534F4D",
"w. c #5C5445",
"e. c #545454",
"r. c #5C5C5C",
"t. c #655B48",
"y. c #6C624E",
"u. c #776C56",
"i. c #7F725B",
"p. c #6B6B6B",
"a. c #626262",
"s. c #747475",
"d. c #7C7C7D",
"f. c #757778",
"g. c #777264",
"h. c #841E19",
"j. c #8C201A",
"k. c #94221C",
"l. c #9C241D",
"z. c #A4261F",
"x. c #A8261F",
"c. c #A82720",
"v. c #8B6906",
"b. c #916E06",
"n. c #9B7607",
"m. c #93751B",
"M. c #A37C07",
"N. c #8C7022",
"B. c #897C62",
"V. c #81755D",
"C. c #AA8107",
"Z. c #B78B09",
"A. c #A9861B",
"S. c #BA9014",
"D. c #AF8C26",
"F. c #CB9A08",
"G. c #C59506",
"H. c #D8A409",
"J. c #E5AE08",
"K. c #EDB409",
"L. c #F6BB0A",
"P. c #FABE0A",
"I. c #F1B608",
"U. c #EEB714",
"Y. c #E4B835",
"T. c #FDC00A",
"R. c #FBC112",
"E. c #FCC729",
"W. c #FFCC32",
"Q. c #96886C",
"!. c #938469",
"~. c #AA997A",
"^. c #B09E7D",
"/. c #F8CF51",
"(. c #2E7781",
"). c #2F7A84",
"_. c #317E89",
"`. c #307D87",
"'. c #32828D",
"]. c #368590",
"[. c #398691",
"{. c #3C8993",
"}. c #448C96",
"|. c #4A919B",
" X c #5899A2",
".X c #619FA8",
"XX c #64A1AA",
"oX c #838383",
"OX c #8C8C8C",
"+X c #868688",
"@X c #949596",
"#X c #8F8F90",
"$X c #B4A381",
"%X c #BCA986",
"&X c #ADAFAF",
"*X c #CDB993",
"=X c #CDB993",
"-X c #DAC59C",
";X c #DFC9A0",
":X c #E2CDA2",
">X c #EBD5A9",
",X c #F1DAAD",
"<X c #C4C4C4",
/* pixels */
"                                                                                                                                ",
"                                                                                                                                ",
"                                                                  .                                                             ",
"                                                                  < c +                                                         ",
"                                                                  l (.3.c +                                                     ",
"                                                                  k 6.]._.2.v :                                                 ",
"                                                                  k 3.].'.'._.3.b >                 .                           ",
"                                                                  k ,.'.'.'.'.'.'.4.-.l :           . .                         ",
"                                                                  k :.).'.'.'.'.'.'.'.).4.:.b k :   . k ,                       ",
"                                                                  < ;.6.'.'.'.'.'.'.'.'.'.'.'.(.5.>.b :.4.x .                   ",
"                                                                  , ;.3.'.'.'.'.'.'.'.'.'.'.'.'.'.].'.'.'.).;.+                 ",
"                                                                  : %.>.'.'.'.'.'.'.'.'.'.'.'.'.'.'.'.'.'.'._.2.,               ",
"                                                                  + b -.(.'.'.'.'.'.'.'.'.'.'.'.'.'.'.'.'.'.'.'.4.x .           ",
"                                                                  . x ;.5.'.'.'.'.'.'.'.'.'.'.'.'.'.'.'.'.'.'.'.}.}.1.X         ",
"                                                                    , %.,.'.'.'.'.'.'.'.'.[.[.[.].].'.].[.}.|. X.XXX X2.:       ",
"                                                                    O v -.4.'.'.'.'.'.'.'.'.'.[.{.}.|. X X.XXXXXXXXXXXXX7.: .   ",
"                                                                    . 1 %.:.6.'.'.'.'.'.'.'.'.'.'.'.'.].[.}.}.}.|.|.}.}.{.;..   ",
"                                                                      O v :.2.6.'.'.'.'.'.'.'.'.'.'.'.'.'.'.'.'.'.'.'.'.'.;..   ",
"                                      X X .                           . , 3._.(._.'.'.'.'.'.'.'.'.'.'.'.'.'.'.'.'.'.'.'.'.%.    ",
"                                      7 Y J H $                       . O 2.'.'.'.'.'.'.'.'.'.'.'.'.'.'.'.'.'.'.'.'.'.'.6.n     ",
"                                # 6 X # D k.c.Y 0                   . 1 :.(.'.'.'.'.'.'.'.'.'.'.'.'.'.'.'.6.6.'.'.'._.6.b l     ",
"                                6 h.Y h.F F h.z.l.J $                 . l 3._.'.'.'.'.'.'.'.'.'.'.'.4.-.3.6.,.,.(.'.:.2., .     ",
"                                $ 8 Y c.c.h.F J j.c.h.0             # 6 $ > n ,.`.'.).2.'.'.6.(.'.].2.+ : h x < z 3.< c 1 . .   ",
"                              7 h.Y k.z.z.c.l.Y F J h.k.P 9 X     X P h.Y F 6 < 6.4.(.;.(.'.:.4.'.'.3.+ r.A O < :.2.+ + O       ",
"                              6 9 U c.c.z.z.z.x.l.Y F 0 D 9 6 $ # . P x.z.h.7 n %.n 3.c 4.(.v 2.6.3.6., 9.<Xp.5 -.-.. .         ",
"                            $ U h.k.c.c.x.x.z.z.x.l.D r A A X $ # . 6 ) ) y # t % ;.%.c ,.6.l -.).%.;.v . B @.4 5 , . .         ",
"                            . $ 9 K I Y h.h.k.l.l.U r e.oXa.% p { ../ f.&X&XS 9 > < l b b 6.x k (.;.O , C Q.$X$X^.u.w.          ",
"                                  . X # 6 9 0 G F 7 N a.oXs.d ..F.F.i.r.Z p.s.* 7 e @ l k 4.b + :.-.2 i.:X,X,X,X,X,XQ.          ",
"                                            . . & 2 Z a.OX+Xd ..H.J.$.@Xr.d.e.+.H k.F 7 @ ,.;., k k C =X,X,X,X,X,X,Xi.          ",
"                                          o r / u.#.N e.OX#Xs X.F.T.Z.$.u.$.b.C.H z.U H 0 x ;.+ k O @.$X,X,X,X>X*X!.a           ",
"                                      ; V t.!.=X:X=Xa 8.f.@XN ` M.L.P.J.G.G.n.i P z.j.J P 8 z + + . V B.-X,X-X=Xy.o             ",
"                            &     r @.V.$X-X>X:X%Xu.; N r.+X0.w R | X.` R d R w h.z.l.Y z.U @ + X # & #.B.*X:XQ.a               ",
"                      d t.!.u.@.t.~.-X>X:X%Xi.( 2     @ m S N % E ` | v.- 8.! 6 h.c.l.k.l.l.0 . J h.h.U ^ ( u.m                 ",
"                  V y.^.-X,X:X-X>X;X^.u.C ;             . * Q ` b.F.M.F...B *.8 h.c.l.P I U P $ e h.U K 7                       ",
"                3 i.*X,X,X,X,X,X~.V &                   % ` v...F.P.J.H.J.E S y P c.c.k.h.k.l.J $ $ . .                         ",
"                @ t.;X:X,X,X,X,Xt.                2 . o E v...b.K.P.P.L.T.G.s S e Y c.c.c.l.I J D                               ",
"                  / B.*X,X=X%X^.M               N p.S % | ....v.J.P.P.P.P.P.b.B ( e h.c.z.l.k.k.F                               ",
"                    B.~.y.M t./               4 8.p.d.8.i | ....C.L.P.T.T.T.I.{ *.S 8 U l.c.c.j.6                               ",
"                    r                         2 A 9.p.!.r.s Q | X.M.S.A.A.m.N.o.3 e.m # G U U 9                                 ",
"                                              . 3 =.1.p.oXp.C t 8.q.q.9.0.8.8.A r B 8..                                         ",
"          @ %                               . O & 4 A 8.a. XoXq.N 3 q p } b.M.Z.| . 3                                           ",
"        o u d *                           . o 3 j 4 4 S ( w.s.oXd.r.( ! E | n.M.i                                               ",
"      . - ! d % o                       . @ 4 m N *.N 3 ( =.=.a.f.+X@X#Xd.r.0.S B @                                             ",
"      * ~ ' f p | Q i =               . @ 4 m Z *.*.( Z t r S =.8.e.a.f.OX@X@XoXs.4                                             ",
"    o ! ' O.! E Z.F.Z.v.` w         . 2 r B S A A A A A A m 3 B S A 1.0.9.q.e.a.*..                                             ",
"  . f ' ' ! - o { H.T.L.H.n.R . . @ 3 j N A A A A A =.A A A S j @ 2 m N V C Z N 2 3                                             ",
"  o ! ' g .       E F.R.T.P.F.i @ j B Z A A A ( *.A A A A Z 4 & @ j N B m j 4 3 k ( B @                                         ",
"    % s %           R S.E.R.P.b.2 Z A A A *.*.*.*.( A Z 4 O O r S A *.A =.( *.A ( =.=.N @ . o                                   ",
"      . .             u A./.W.n.m A A ( *.*.A S N m 2 O . . @ 4 m B N N Z A A A A A A A B % | =                                 ",
"                        = m./.m.4 A S Z N B 4 2 O             O @ 2 3 4 4 m B N Z A A *.N ` Y.]                                 ",
"                          % +.v.O ; @ @                             O X @ @ 2 3 j m N Z r Z./.D.%                               ",
"                              = .                                             O @ 2 4 2 W K.R./.`                               ",
"                                .                                                   O . R K.P.E.A.%                             ",
"                                                                                        w C.P.P.U.`                             ",
"                                                                                        . E G.P.T.M.%                           ",
"                                                                                          o E C.I.K.E                           ",
"                                                                                            o R v.G.b.          .               ",
"                                                                                                u | ` % * o o * q o             ",
"                                                                                                  % * ! ] [ ~ ] ' -             ",
"                                                                                                  * d ' o.o.' ' [ -             ",
"                                                                                                  * d ~ ~ ! d - o               ",
"                                                                                                  % s q * o .                   ",
"                                                                                                    o o                         ",
"                                                                                                                                "
};
