/* XPM */
static char *_3_resized[] = {
/* columns rows colors chars-per-pixel */
"64 64 197 2 ",
"   c None",
".  c #020202",
"X  c #0A0403",
"o  c #0C0A03",
"O  c #040A0B",
"+  c #0B0B0B",
"@  c #050708",
"#  c #140504",
"$  c #1A0605",
"%  c #120D02",
"&  c #190B08",
"*  c #1B1400",
"=  c #1A160A",
"-  c #15120A",
";  c #071213",
":  c #0B1314",
">  c #091718",
",  c #0B1A1C",
"<  c #141313",
"1  c #1C1B1C",
"2  c #1A1916",
"3  c #0F0F12",
"4  c #240907",
"5  c #2D0B09",
"6  c #220B0A",
"7  c #330C09",
"8  c #3B0E0B",
"9  c #241C05",
"0  c #211E1C",
"q  c #2B1210",
"w  c #361816",
"e  c #1A221F",
"r  c #2A230D",
"t  c #2C2205",
"y  c #3B2D02",
"u  c #352A08",
"i  c #342B11",
"p  c #322D1D",
"a  c #3C3218",
"s  c #262216",
"d  c #0B1F22",
"f  c #1E1E20",
"g  c #201F20",
"h  c #0D2225",
"j  c #0E2529",
"k  c #0F282B",
"l  c #11292D",
"z  c #112E31",
"x  c #133135",
"c  c #15363A",
"v  c #16383D",
"b  c #242324",
"n  c #2D2920",
"m  c #2B2B2B",
"M  c #292722",
"N  c #312D27",
"B  c #3B3528",
"V  c #343334",
"C  c #3E3C3D",
"Z  c #383739",
"A  c #302F30",
"S  c #410F0C",
"D  c #45100D",
"F  c #4B110E",
"G  c #52130F",
"H  c #5A1511",
"J  c #4E1E1B",
"K  c #631712",
"L  c #6A1914",
"P  c #651813",
"I  c #721A15",
"U  c #7A1C17",
"Y  c #7E1D18",
"T  c #443302",
"R  c #4B3903",
"E  c #46370C",
"W  c #433815",
"Q  c #523E03",
"!  c #423F39",
"~  c #6B2724",
"^  c #594405",
"/  c #5D4D1E",
"(  c #55461B",
")  c #4E411A",
"_  c #644C05",
"`  c #6D5306",
"'  c #7B5E05",
"]  c #755906",
"[  c #675315",
"{  c #6A5517",
"}  c #7C6217",
"|  c #7D610E",
" . c #4B4437",
".. c #544C3D",
"X. c #564234",
"o. c #62552E",
"O. c #183E44",
"+. c #173B40",
"@. c #1A4146",
"#. c #1B464B",
"$. c #1C494F",
"%. c #1D4D53",
"&. c #1F5158",
"*. c #1E5057",
"=. c #20545A",
"-. c #245D64",
";. c #26636C",
":. c #296B74",
">. c #2A6D76",
",. c #2C737D",
"<. c #336067",
"1. c #444444",
"2. c #4B4B4B",
"3. c #494649",
"4. c #534F4B",
"5. c #5B5446",
"6. c #535353",
"7. c #5C5B5B",
"8. c #645A47",
"9. c #605F5F",
"0. c #6C614D",
"q. c #776C53",
"w. c #776C51",
"e. c #626262",
"r. c #6B6B6B",
"t. c #666668",
"y. c #7C7C7D",
"u. c #737374",
"i. c #831E19",
"p. c #8C201A",
"a. c #94221C",
"s. c #9C241D",
"d. c #A4261F",
"f. c #A82720",
"g. c #886707",
"h. c #916E06",
"j. c #957105",
"k. c #997408",
"l. c #876B17",
"z. c #9B7810",
"x. c #A57D06",
"c. c #8B7D63",
"v. c #877A61",
"b. c #AC8206",
"n. c #B98C07",
"m. c #B08813",
"M. c #9F8022",
"N. c #BD992C",
"B. c #C4950A",
"V. c #CC9B08",
"C. c #DBA60A",
"Z. c #D4A414",
"A. c #E3AD09",
"S. c #E0A905",
"D. c #EBB309",
"F. c #FBBE0A",
"G. c #F3B809",
"H. c #E7B82A",
"J. c #FEC10A",
"K. c #FCC215",
"L. c #FBC524",
"P. c #FECD39",
"I. c #A99979",
"U. c #B09F7E",
"Y. c #B1A07F",
"T. c #988A6D",
"R. c #EFC54A",
"E. c #FAD051",
"W. c #2F7A84",
"Q. c #2D7680",
"!. c #307B85",
"~. c #307E89",
"^. c #3D7F88",
"/. c #487D85",
"(. c #32828D",
"). c #398691",
"_. c #428C96",
"`. c #488F99",
"'. c #4C929C",
"]. c #5B9BA4",
"[. c #5598A1",
"{. c #63A1AA",
"}. c #828283",
"|. c #8D8D8E",
" X c #979798",
".X c #B8A683",
"XX c #B5B6B6",
"oX c #C0AE89",
"OX c #C5B28D",
"+X c #CFBB95",
"@X c #D6C199",
"#X c #DBC69D",
"$X c #E1CCA1",
"%X c #E9D3A7",
"&X c #EDD6AA",
"*X c #EAD3A7",
"=X c #F2DAAD",
/* pixels */
"                                                                                                                                ",
"                                                        . .                                                                     ",
"                                                        @ h ;                                                                   ",
"                                                        @ &.>.O.>                                                               ",
"                                                        @ %.(.(.,.#.h                                                           ",
"                                                        @ O.W.(.(.(.,.&.l O                 .                                   ",
"                                                        @ +.>.(.(.(.(.(.W.;.@.j ;           . .                                 ",
"                                                        @ c ;.(.(.(.(.(.(.(.(.W.:.=.+.k >   @ x >                               ",
"                                                        @ x *.(.(.(.(.(.(.(.(.(.(.(.(.W.>.-.#.;.>.l .                           ",
"                                                        . z #.Q.(.(.(.(.(.(.(.(.(.(.(.(.(.(.(.(.(.!.%.;                         ",
"                                                          j @.;.(.(.(.(.(.(.(.(.(.(.(.(.(.(.(.(.(.(.(.;.j .                     ",
"                                                          > O.=.~.(.(.(.(.~.(.(.(.(.(.(.(.(.(.(.(.(.(.(.!.O.O                   ",
"                                      # .                 O v #.,.(.(.(.(.(.(.(.(.(.(.(.(.(.(.(.(.(.)._.[.].<.>                 ",
"                                  . 4 Y 7 X               . h @.-.(.(.(.(.(.(.(.(.).).).)._.`.`.'.[.].{.{.{.{./.l .             ",
"                                8 P 4 L s.P                 @ c $.>.(.(.(.(.(.(.(.(.(.(.).)._.`.'.].].].].].].].^.h .           ",
"                            4 D 5 i.i.a.d.s.8               . h @.%.:.(.(.(.(.(.(.(.(.(.(.(.(.(.(.(.(.(.).).(.(.(.c .           ",
"                          . 4 i.I Y d.d.d.d.i.$               @ +.>.>.,.(.(.(.(.(.(.(.(.(.(.(.(.(.(.(.(.(.(.(.(.(.x             ",
"                            . 4 U d.d.d.d.d.d.G               . j Q.(.(.(.(.(.(.(.(.(.~.(.(.(.(.(.(.(.(.(.(.(.~.W.z             ",
"                            # X $ H a.d.d.d.d.a.5           . j %.~.(.(.(.(.(.(.(.(.(.(.(.(.(.(.(.Q.!.).(.(.(.,.@.j             ",
"                            K Y G 5 S i.d.d.d.d.I $           > &.W.(.(.(.(.(.(.(.(.(.(.(.(.;.-.,.,.&.;.(.(.&.-.; @             ",
"                          5 7 P d.a.S 7 K p.d.d.d.I $       # & + z *.>.(.(.,.>.(.(.,.~.(.(.#.O , z x , @.;.> v O .             ",
"                        # I p.p.d.d.d.L 5 S P U U U F # . 7 U Y P 7 + @.,.,.;.%.(.Q.$.W.(.(.$.+ 9.b @ h %.=.. O                 ",
"                        . # 8 i.s.d.d.d.i.F 5 8 F G G F $ 4 s.f.s.K < $.x =.&.x (.;.l ,.;.:.;.O u.XX6., *.c . .                 ",
"                              # 7 H i.d.d.d.i.S 4 7 S G 4 X P ~ J X q 6 > #.+.j >.;.> ;.:.x #.d @ V C 2 e : . .                 ",
"                                    $ 8 H U I D 5 $ # $ * & 7. XXX2.& & , : c k =.;.: v Q.z @ g 8..XoXOX.XT. .                  ",
"                                          X 0 2.6.+ 9 ^ x.o.}.C 9.}.W y G 8 3 d x :., > &.z n U.&X=X=X=X=X=Xq.                  ",
"                                          < 1.y.y.n _ x.G.} |.e.t.y.] g.I i.S 7 : -.j d d > 8.#X=X=X=X=X=X#X5.                  ",
"                                          2 3.y.|.6.T j.G.C.} w.w.} V.^ I d.P G 7 x z ; , @ 8.OX=X&X%X@XI...                    ",
"                                        . < C r. X}.s ` n.J.G.S.V.b.^ 5 a.f.I P Y 6 h . . . B T.@X=X#XY.B                       ",
"                                      - ! ..m 2.y. X1.y ' b.b.] u i y 8 s.f.a.a.f.I @ X 7 7 q X.0.I.oX..                        ",
"                                  X n 0.Y.@X..m 4.y.y.M 9 T _ ' 2 4.q D s.d.a.U i.i.5 X Y d.a.U 7 2                             ",
"                                <  .T.@X&XOX .o b C 1.n R V.n.S.] m V S a.f.a.I L i.i.4 7 S 7 $                                 ",
"                              n q.OX=X+Xq.= . $ 9 9 T j.D.F.G.D.A.R V w L f.f.d.d.a.L D 4 .                                     ",
"                          - ..I.%X$Xc.n Z V . R ' ] g.B.F.F.F.F.J.B.i C w I s.f.d.p.U Y 7                                       ",
"                    5.0...c.@X%XI.B + m e.y.5.w _ g.' j.D.F.F.J.J.J.b.n 3.q H s.f.f.f.i.$                                       ",
"                N v.@X%X#X&XOX..+   @ Z 1.e./.9.p Q ] ] k.C.C.V.B.m.m.i Z 1.+ 8 I p.Y 7                                         ",
"               .I.&X=X=X=X=X8.        < Z 1.9.}.u.C s B ..8.5.4.2.3.1.V < 2.m . # 4                                             ",
"            0 c.@X=X=X=X=X*X0.          3 Z 1.6.y.c.9.A b 0 i W [ | z.k.t 3 1                                                   ",
"               .OX+X*X$XT.Y.N           . + A 1.4.r.].v.t.1.J W _ g.n.h.%                                                       ",
"                 .U..X8.0  .            . # 3 g ! 3.4.r.}.|. XT.r.6. .N 1 @                                                     ",
"                  5.n                   . < 0 0 2 m C 1.2.7.r./.|. X|.T.6.@                                                     ",
"                                        @ 1 b C V g 1 m Z C 1.1.2.4.6.6.b                                                       ",
"                                        @ 1 m C C C Z b f 2 f b m m m h .                                                       ",
"                                        3 1 A C C C C C A + f g .                                                               ",
"                                      . < b Z C C C C V < f C A @                                                               ",
"              - r % * y y y y t 9 o   @ 1 M C ! C C Z 2 b C C A O                                                               ",
"              - i i T k.n.B.B.n.x.g.y X 2 V C C C Z 2 b C C C V                                                                 ",
"              X i ( W _ b.A.F.F.F.G.A.] 2 C C C Z < < A C C C A                                                                 ",
"              . i / / i X R j.Z.L.L.K.A.i Z ! m 3 . 2 b Z C C A                                                                 ",
"                r / / r       t } N.R.E.` f g @     + 1 A C C m                                                                 ",
"                = / / r .         * ^ M.z.% .       . < f b m 3 . .                                                             ",
"                X i i = .               u o .       X y ` ' } g.y .                                                             ",
"                                                  = ] A.J.P.E.l.*                                                               ",
"                                                o ` A.F.L.R.} o                                                                 ",
"                                                y n.J.J.H.`                                                                     ",
"                                              % ` A.J.C._                                                                       ",
"                                              t j.G.V.R                                                                         ",
"                                            . R j.n.y                                                                           ",
"                                          o o t R u .                                                                           ",
"                                        o r i W ) ( r                                                                           ",
"                                        X = r W / / ( 9 X                                                                       ",
"                                            X - i / / / W o                                                                     ",
"                                                . = a ( r .                                                                     ",
"                                                    @ o .                                                                       "
};
