/* XPM */
static char *Space_with_stars_vector_background_resized[] = {
/* columns rows colors chars-per-pixel */
"64 64 194 2 ",
"   c #000004",
".  c #01000D",
"X  c #09040E",
"o  c #11080F",
"O  c #030213",
"+  c #080716",
"@  c #090817",
"#  c #070618",
"$  c #080718",
"%  c #0C0B1A",
"&  c #02091B",
"*  c #130D13",
"=  c #100F1C",
"-  c #151016",
";  c #12111E",
":  c #1B151C",
">  c #1D191B",
",  c #211D1E",
"<  c #2B1118",
"1  c #3B161B",
"2  c #22201F",
"3  c #151522",
"4  c #181724",
"5  c #1A1A25",
"6  c #1D1D29",
"7  c #171823",
"8  c #231C22",
"9  c #201F2C",
"0  c #2A2325",
"q  c #23232D",
"w  c #2A2629",
"e  c #2D2B2C",
"r  c #242225",
"t  c #342B2C",
"y  c #35322D",
"u  c #252530",
"i  c #2B2B35",
"p  c #2D2D3A",
"a  c #333332",
"s  c #393533",
"d  c #3C3A36",
"f  c #33333D",
"g  c #3C3B39",
"h  c #3A3438",
"j  c #433E34",
"k  c #4D1317",
"l  c #3F423D",
"z  c #42443D",
"x  c #5D4033",
"c  c #3B3B46",
"v  c #343441",
"b  c #444342",
"n  c #4B4544",
"m  c #454A43",
"M  c #4C4946",
"N  c #40404B",
"B  c #4F4749",
"V  c #534E4C",
"C  c #514946",
"Z  c #4D5249",
"A  c #51554C",
"S  c #55554D",
"D  c #494855",
"F  c #544E52",
"G  c #555251",
"H  c #595555",
"J  c #5D5B5B",
"K  c #555E52",
"L  c #615B58",
"P  c #596357",
"I  c #5D6659",
"U  c #5E685A",
"Y  c #626C5D",
"T  c #60675B",
"R  c #72604E",
"E  c #565660",
"W  c #605C60",
"Q  c #656361",
"!  c #646C60",
"~  c #6A6C65",
"^  c #6A6668",
"/  c #716E6D",
"(  c #677263",
")  c #697566",
"_  c #6E756A",
"`  c #6D7A6A",
"'  c #6E7A67",
"]  c #72706F",
"[  c #727E6D",
"{  c #7D7969",
"}  c #767474",
"|  c #797573",
" . c #757E72",
".. c #7C7B74",
"X. c #7C7A7A",
"o. c #77777D",
"O. c #696971",
"+. c #A11F1F",
"@. c #953E3C",
"#. c #CE1013",
"$. c #984B43",
"%. c #877354",
"&. c #807F7E",
"*. c #967D6D",
"=. c #72806D",
"-. c #7A8576",
";. c #798975",
":. c #7E8E7A",
">. c #748270",
",. c #7E917C",
"<. c #958F5C",
"1. c #9F955D",
"2. c #A29958",
"3. c #BBB15F",
"4. c #ABA358",
"5. c #8B8665",
"6. c #878267",
"7. c #938D6A",
"8. c #84827D",
"9. c #898879",
"0. c #928E76",
"q. c #82937F",
"w. c #9A9578",
"e. c #A19D7E",
"r. c #A79F66",
"t. c #BEB778",
"y. c #B9B267",
"u. c #C8BF5C",
"i. c #C3BB6D",
"p. c #D8CF61",
"a. c #D4CB7B",
"s. c #CBC27C",
"d. c #EAE278",
"f. c #7E7E83",
"g. c #817F80",
"h. c #838283",
"j. c #898886",
"k. c #848589",
"l. c #8B8B8C",
"z. c #888684",
"x. c #908E8A",
"c. c #819380",
"v. c #869B84",
"b. c #8A9C85",
"n. c #8B9B88",
"m. c #8F908F",
"M. c #939585",
"N. c #8F8F95",
"B. c #8F9091",
"V. c #919293",
"C. c #969799",
"Z. c #97989C",
"A. c #9A9B9B",
"S. c #8CA38B",
"D. c #94A58E",
"F. c #93AB93",
"G. c #9FAA93",
"H. c #95B197",
"J. c #95B49B",
"K. c #9AB59B",
"L. c #9DB99E",
"P. c #89AC94",
"I. c #B9B385",
"U. c #A1A79A",
"Y. c #9A9CA1",
"T. c #9FA0A2",
"R. c #9EBBA0",
"E. c #A2A4A4",
"W. c #A9ABAD",
"Q. c #A1BCA3",
"!. c #A3B2A0",
"~. c #9EC0A4",
"^. c #A4C2A6",
"/. c #A6C6AA",
"(. c #AAC7AC",
"). c #A7CAAD",
"_. c #AACAAE",
"`. c #ADCEB1",
"'. c #AED1B4",
"]. c #AAD4B6",
"[. c #B1D2B5",
"{. c #B3D6B9",
"}. c #B5D9BB",
"|. c #B8DCBD",
" X c #DED795",
".X c #E6DC89",
"XX c #EBE48D",
"oX c #FFFD9D",
"OX c #FBF38B",
"+X c #FFFFA3",
"@X c #BEDDC2",
"#X c #BFE0C4",
"$X c #C0DEC3",
"%X c #CEF8D6",
/* pixels */
"$ + O % ; + ; 7 O % . O O + ; 6 + + q 4 $ % 3 q . O O O + % % % + + + O O O @ + O + O O O . O + O + O O 6 4 % $ 4 = O O O @ 3 5 ",
"O 6 % % $ $ ; 4 O O O O O + % $ 3 O p ; O O $ = O $ O O O O $ @ O O + O O O O O + O O O + O O + O O O . c D O # $ $ O O O O 5 $ ",
"O O O % 4 O % $ O O % ; O + $ 3 % O O % + . % q O O O O O O O 3 O O O . O + O O O O + O + + O + + O O . i v O O 3 + O O O O % O ",
"O @ O + + O O O O O O O # + @ @ + . + O O $ $ $ @ O O . % + O O O O O O O O ; O + ; O $ O O O O % # + O O . O . $ q % + O . + % ",
"O + $ O O O + O + O O O O O @ + + + % + q = O + O O % + O O O O . O O % + O + O O % O O O $ 6 O + + O O O O O O O O 3 O O O + + ",
"; $ ; O O O O O O # O O O ; O % + + @ O % O O O O % + O O @ O O O O @ @ + O O + + + O O O O + . O O . # + O O O O O . O O O # O ",
"O O O O O O O O + % + O O O O + O 4 $ % $ % O O $ . . + @ 3 . O O O O O + O O $ O + O O + O O O O 3 % O O # + O O . 6 % $ + O O ",
"+ O . O + ; . + # @ $ O O O @ O + 6 + . O O O O g ) a . + + + O O O . O . O O O O $ + + O 3 O . . % ; $ O O O O O . ; + + # O O ",
"O O 3 O % ; q 6 . O % $ $ O O O O . O i # O % O ;.%Xb.  . 3 % + O O 3 % u O O O O + O O O O O O O O + + O O $ O $ O O O + O + + ",
"O O + O + . u 7 $ O O O O O O O O O + 4 + . %   z H.` ) 5 . . O O . $ $ $ O # O O O . O O O O O . O O O $ O O O ; O O O O O O O ",
"O + O O O O O . O O O O O O O O O O O . $ O ; ` Y , O M v.P * . O O O O O # O O $ % $ @ O % O O O $ $ + $ + O O . O 4 O + O . # ",
"# 6 6 . O O + + O + + # O O + % # O $ + % O : `./.t .   : ( v.m O # % 6 % % # O + $ # + O % @ O O O O O O O O O O O % O O + O O ",
"$ + % # + + + O O @ $ O + + O O O ; 6 O % % O z l d m ; . . 5 ,.I . 7 + % = + O O O O O . $ ; . O O . + O O 6 $ O O O O O $ @ O ",
"O O + O % + = % O O + O O O @ 6 % $ O O O O O . . . e Z s * $ . v.w X % 9 ; + O O O . + # O . O O O 4 O O O O O O 3 O + $ O O + ",
"O $ O # + O + @ + O O O O O + + O + @ O = % $ O O O . @ z z 0   g =.  % % O O O ; O O O O + 6 6 @ O # O O O O + . % + $ 6 + $ . ",
"+ O $ $ + % O O $ $ O + O O + + O @ O . 3 ; O + O . O X n.Q.S.S.( F.i   O % = . O + O O O . c p . O O O O O O O O O + O O + u p ",
"% $ O O + . + O O O O ; O O O O O O O O O O O + # O O X !.@X'.'.{.'.L.I *   O @ + O + $ O O . . O O O % 4 O O O O O O O O O O $ ",
"O + . p % O $ O # # O O + O O O O O 3 . 3 ; + O O 4 # . n.@X/.(._.(.`.}.K.l . + # O % # O O O % + O O O O O O O O O O 7 % O O O ",
"O # + % . 3 % O O ; . D E . O O O $ + O + O O + O % ; . 8.#X/._._.(.(.).'.[.I X . $ # O O % + @ O O O O O O # + O O O 4 O $ 6 + ",
"O O O O O # + O O + O 6 6 O + O O @ % 3 + O ; % ; O O . _ @X/.(._._._._.(.(.`.Y = + O O O O O O O O O O $ + + $ + O O O + O O O ",
"$ + + O O $ + $ + + O + % % ; @ O O ; 3 $ O + + $ O # . S $X)._._._._._._._.^.Q.0 . O O O @ O O O + # O O O O O + O O + O + % O ",
"6 3 4 + $ 3 % @ $ . O + O O % ; 3 + O O O + + + O O $ + b |.).(._._._._._._./.S.+ O + O O O + O O + + O O O O O % 4 + O O O % . ",
"@ + O O + O O O % O O % @ @ O O u + O @ . O . 6 % ; % O t [.).(._._._._._._._.( . # % O O O O O O O O @ O O . $ $ 9 O O O 4 % ; ",
"O O $ O . @ O O ; O O 4 @ O O = O O $ O 6 + O + O + # O j (.`.(._.{._._._.).).z . O O ; $ . O O # O O + O O $ + ; ; O @ % % + $ ",
"$ O + O O O O $ O O + O @ O ; % % $ $ $ = # O . O % % .  .|./.`.Q.v.;.q.K.(.K.> O O O . O O O O O O O p c $ $ + % % . + O O O ; ",
"+ O O O O @ $ % q O O $ % @ O @ O # % + O O # u O # O : V K.'.^.q.`  .! :.`.q.O O O O O O + O O + O . D E O # # + ; O O $ $ O + ",
"6 # . O + + O O O . O + O O O ; $ O O + O O % v . O $ w b ) |.F.S b h F ~ _.P   O O O # $ O O O O O + O O @ O O O O + O % $ O O ",
"+ + O O O O % ; O 4 9 . 4 % . @ + ; @ O + O O . + + O : d m _.m e s a b I /.a . O O O O O + O . $ # O % q . O O O O 3 4 + O O + ",
"+ @ @ O @ O @ ; + 4 q . N u . O O O O + @ O O O $ = O O y g v., d d g e ) L.* O $ + O O O + O O % O . 3 3 O $ $ . O # + 3 $ O @ ",
"% % O 6 + O O O % O O @ . + O O O + O O % O . O O # $ + o Y F.- r a r y ^.;.. O + O O % O + + O % O O O O O + @ O O O O O @ + + ",
"% q O ; + O @ + $ ; $ O % O . O . O O O O O . O O + ; 4 . b.}.I > 2 l H.}.Z . @ + O + O O $ O O . + O O O O O ; + O O O O % 3 ; ",
"7 ; O O % + @ $ . 6 u $ 7 O O O $ 3 $ O O O O O + $ $ $ . -.}.`.^.J._.[.^.s @ + % O O O O O ; = D $ O O % O O O O O $ 5 . % 4 + ",
"r + O O O O ; $ O O O $ 3 $ O O 3 O O O O O O + . + ; % - -.{./.~.9.G.].F.: O @ p O O O O O 4 % p % + ; + O O O $ . ; 4 . = + O ",
". + O @ + 4 $ . % 4 + O . 3 % O O + O O O O O & O O ; ;   Y }./.J.%.U.{.`   O + O O + + O + O O   q % O $ + O O O O + O O O ; . ",
"+ O O O O 6 ; O % q . O O O + O O O $ ; + O < +.1 O + % O d `.[.(.).`.'.M . @ O O O O O O @ O O O $ # O $ % . . 3 4 O O O 3 u % ",
"= ; % @ u 4 O 3 O . O O O O q $ $ O O $ % & 1 #.k O O . O   d S.!.(.`.^.a ; $ % . O O . ; 6 O + O + % @ O @ 6 q $ O O O O 5 u ; ",
"; 3 $ + $ ; . O O # O . O O $ @ O + O O ; O O s ,.e ; a z Y [ L./._.[.F.* & O % + % + + O + O O O $ 3 + $ O 3 % O + + + O O O O ",
"+ % . $ + $ $ O O O $ 6 O O O O O . . + # O . c.~.=.) =.K A ].{._._._.;.X ; 4 O @ O + @ 3 4 O O @ % . O 3 + . O O $ $ + O O @ @ ",
"@ O $ ; O 6 3 O O . $ 9 . O + # O ; 6 q . + = :.[.Y + .   s *.D._._.L.=.@ $ 5 % + O % O % O + + O + + O + $ + O O . O $ $ O + % ",
"q O O O # % . O 4 O + @ O $ $ # O 3 $ # O O . r T s . @ O x #.@.]._.K.S.w + $ @ % O ; % O % + $ . + + O % $ O ; . O . O O O @ % ",
". q % $ O 6 4 O + O O O + + + 4 . . + + O O # .   t : * , M.$.R /.R.S.^.Z X . . . . % $ # O O O O O + $ @ % % 6 3 O + O O O O O ",
". 6 3 O O + + O O O O . $ O O $ # O % O . - 2 %.a.R ^ &.~ _.P.J.L.F.F._.c.B %.1.j 0 > + . + O $ O + % O O @ $ + 6 $ # O O + O O ",
"O O + O O + @ + O + O O . O O O $ . * h E 8.h.2.i.9.^ X.c.'.F._.(.F.^.'.H.H 3..X7.l.&.J s * . % + O ; O O O ; 3 + % O % % $ O + ",
"; % + O @ O O 3 % O + O 6 6 . % . d } 9.0.k.l.X.| g.&.T H.'._.F.q.'.{._.~.~ | ..f.l.8.0.8.| s X O + $ % O . + % O + O O ; $ O O ",
"% O ; O O O + O O % O O % + O : B W.x.d.oX<.Z.U.E.Y.T.l.-.[ ,.S.[ v.:.>...l.Y.T.U.N.y.oXi.B.W.n X % $ + 4 ; + + O O O + = O 7 % ",
"; % @ % O % . + O O O . O O O * j.U.8.4.I.9.C.Z.j.9.B.A.V.X.~ H F H ] X.V.V.0.9.C.N.<.t.w.j.E.8., % . O % ; @ O O + O O O O O O ",
"; + O + 3 ; $ ; O O O . O O O * H m.l.f.o.j.k...a.XX6.k.j.l.l.e.t.M.W.V.k.5.OXXX{ l.g.f.f.l.B.V X O = + $ $ + O O O O + O + O O ",
"O O % @ ; % ; O O + O O O O O O : V 8.m.V.j.j.&.u. X5.k.l.l.] p.+Xr.V.A.k.6.i.I.{ k.l.N.l.h.C * 4 O O + % O O ; # O % # O O O O ",
"O + O O O % . % @ % O O + O O # # @ 0 V ] 8.z.l.f.X.k.l.l.l.l.0.w.x.E.E.V.k.g.g.l.z.8./ C 0 . O O O + # % ; % @ u 5 . O O O $ O ",
"@ O O + O O 3 + O + + . O O O O + O O X - t H H Q / } X.g.g.m.Z.C.C.V.l.h.} ] Q H H w * . O + + $ 3 O O ; O @ $ + ; O O + O $ O ",
"O O O $ O + ; O O O O O O + $ O O q 3 O O X L 8.Q V S C n M n M B M M n C F V Q h.V . O O O O + O % O O O O @ O 4 q O 4 ; O ; % ",
"O + $ + @ O O 3 @ O O O O O + % + + O O O . * ^ Y.A.k.} H F V F V V F G / l.A.A.L * O O + + . 3 3 . + O O = % $ + # O % @ O % 7 ",
". O O O . O O 7 O ; . 3 # + @ 4 + . + O O 3 ;   s | C.E.C.h.X.| } X.h.Z.W.C./ t X O O O # + . u u O O $ O @ O @ O . . O O @ + O ",
"O O + O O O O O 3 6 O 3 O O $ % O O O O O 3 # 6 ; X 0 n ^ ..X.X.h.&...^ z , X X O O $ . O O + O . $ O O . q % % O O O O @ % + O ",
"+ O + O % + . p O.O $ O + O + $ @ + O + + O . ; % O O . . X * 8 * - X . O O $ 3 O O O O @ + O O + 3 % % % = O . $ @ O O % % . % ",
"+ O O + + O % 4 $ $ # O # O + + = O O @ q 3 + + . O O # + O % = . @ ; O + O O O O O O + + O O 3 9 + + O ; $ O O + + O + $ O O @ ",
"O O + + O 3 + 3 O O O O 3 $ O O O O O O $ + 4 O O . + @ O O + + O % 3 3 + O O O % O % @ % % . % ; O + % @ + + % $ O O O O O ; + ",
"# O @ O $ # O O O O O O + + O O O = $ . O O . + p % $ $ O O . p ; % 6 % O O 3 Q + # % $ @ $ O + = # O ; % O ; @ O + + O O O # 3 ",
"O O + O O O . O @ O + % O O O O . 3 3 4 O . c 3 3 + O @ $ O O $ O O O O O O & 4 % $ O O O $ + + O + $ O + $ @ O O + # O $ O . + ",
"# % O @ + O O O % + $ O + O O O O O 6 u 7 . @ O O . @ O @ @ O $ + O # O # # O O O O O O O O + 7 O O + + @ 3 @ O O O O O O O # O ",
"O % % # O O O @ O + 3 + O O $ $ % O . @ # O . + + @ O O O % $ $ $ ; # $ % + 3 # O O . O O + O + O O O + O . 4 p . $ O O O % % O ",
"v + O O O O $ % O O . + O + $ $ + + + $ O O O % O + O O O O O . $ + O O # + O O O O + + O O O O O O O O O O $ ; O @ O O O + + O ",
"3 O 3 + O O $ % @ + O 3 @ O @ % O O + $ O O . 3 3 O O O O O O O O + O O O ; O O O O $ O O O . $ + O O + O O . . O . . O + O . O ",
"% $ % + O @ 3 $ O O + % . $ $ + O O O O O O O ; % @ O O O O $ $ O $ O O O O O O O + O O O O O # @ O O O O O # O O + O O O O O O "
};
