/* XPM */
static char *_1fire_resized[] = {
/* columns rows colors chars-per-pixel */
"64 64 178 2 ",
"   c #00000E",
".  c #0E030E",
"X  c #13040E",
"o  c #19050C",
"O  c #1B090E",
"+  c #030213",
"@  c #080616",
"#  c #090817",
"$  c #070618",
"%  c #080718",
"&  c #07081A",
"*  c #0C0B1A",
"=  c #120611",
"-  c #190710",
";  c #130A14",
":  c #1C0B12",
">  c #100F1D",
",  c #12111E",
"<  c #1B131E",
"1  c #23070B",
"2  c #22090C",
"3  c #2C0C0B",
"4  c #340B07",
"5  c #3A0E06",
"6  c #330D0C",
"7  c #3A0E0C",
"8  c #3E1107",
"9  c #35100C",
"0  c #3C110C",
"q  c #240C12",
"w  c #2E0F12",
"e  c #330D11",
"r  c #221016",
"t  c #2B1214",
"y  c #22141A",
"u  c #28171B",
"i  c #371413",
"p  c #3A1412",
"a  c #381A17",
"s  c #341B1A",
"d  c #3F261C",
"f  c #151422",
"g  c #181724",
"h  c #1A1925",
"j  c #1D1D29",
"k  c #201E27",
"l  c #201F2C",
"z  c #23222D",
"x  c #29272E",
"c  c #362423",
"v  c #252530",
"b  c #2B2B35",
"n  c #2D2D39",
"m  c #2F3037",
"M  c #33333D",
"N  c #440D0A",
"B  c #441205",
"V  c #4B1507",
"C  c #43140B",
"Z  c #4A140C",
"A  c #521503",
"S  c #591404",
"D  c #511804",
"F  c #5B1904",
"G  c #53150B",
"H  c #5B150A",
"J  c #5D1A0C",
"K  c #53180C",
"L  c #471710",
"P  c #451A13",
"I  c #4F1B18",
"U  c #481B16",
"Y  c #501D10",
"T  c #5E1F10",
"R  c #531511",
"E  c #681206",
"W  c #641B04",
"Q  c #6C1E04",
"!  c #641509",
"~  c #64190A",
"^  c #6C1B0A",
"/  c #6B1709",
"(  c #791703",
")  c #731C04",
"_  c #711C0A",
"`  c #7A1C0B",
"'  c #592D1B",
"]  c #742203",
"[  c #7A210D",
"{  c #6A2A11",
"}  c #4D2F24",
"|  c #5B2E27",
" . c #563E2E",
".. c #402E33",
"X. c #43353C",
"o. c #783E21",
"O. c #663F3A",
"+. c #653A35",
"@. c #673729",
"#. c #343441",
"$. c #3C3C45",
"%. c #40404C",
"&. c #494954",
"*. c #564D55",
"=. c #52555D",
"-. c #61616B",
";. c #696971",
":. c #821F07",
">. c #881E07",
",. c #852504",
"<. c #8A2504",
"1. c #83240C",
"2. c #8C2409",
"3. c #8E2B0B",
"4. c #8E2A03",
"5. c #932407",
"6. c #9B2C06",
"7. c #97270B",
"8. c #942B08",
"9. c #982705",
"0. c #9F3006",
"q. c #822B15",
"w. c #8E361A",
"e. c #A42603",
"r. c #A32D06",
"t. c #B62E04",
"y. c #BC2E00",
"u. c #AC3107",
"i. c #A13008",
"p. c #AB3408",
"a. c #A93508",
"s. c #B93A08",
"d. c #CA3D03",
"f. c #BD400B",
"g. c #B24D10",
"h. c #B96425",
"j. c #C64209",
"k. c #CC480D",
"l. c #CB4904",
"z. c #D44C02",
"x. c #D54D08",
"c. c #DB5D0F",
"v. c #DE620C",
"b. c #D6611B",
"n. c #D5691A",
"m. c #E96508",
"M. c #E4630C",
"N. c #C36D36",
"B. c #E36F20",
"V. c #EA7E2A",
"C. c #9F6A41",
"Z. c #937154",
"A. c #EF841B",
"S. c #ED8A3C",
"D. c #EC953E",
"F. c #F5A237",
"G. c #A2937A",
"H. c #E19D4E",
"J. c #F7AD59",
"K. c #F4A250",
"L. c #F9BC53",
"P. c #C38E61",
"I. c #F8B869",
"U. c #F3B966",
"Y. c #F3B873",
"T. c #FBCD7A",
"R. c #FBD073",
"E. c #B6A185",
"W. c #EBBA82",
"Q. c #E7CF9B",
"!. c #FDDF9D",
"~. c #CAC1A6",
"^. c #CDCFBD",
"/. c #FEEAA9",
"(. c #FFF0B7",
"). c #FFF7BB",
"_. c #EDE9D4",
"`. c #F7FADF",
/* pixels */
"& @ + * , @ , g + * + +   $ , l @ @ l g * * , z   + + + @ * * * @ @ + + + + # @ + + + + + + + @ + @ + + j g & % g > + + + & f j ",
"+ j * * # & , g   + + + + @ * & > + M > + + & >   * + + + + & @ + + @ + + + + + @ + + + @ + + @ + + +   $.&.$ $ & & + + + + h # ",
"+ + + * g + # & + + * , + @ # * > +   > @   * z +   + + @ + + , + + + + + @ + + + + @ + @ @ + @ @ + +   b M   + f @ + + + + *   ",
"+ # + @ @ + + + + + + @ & # * & @ + @   + & @ & & + + + * $ + + + + + + + + , + @ , + & + + + + * $ @ + +   + + @ l * @ + + @ * ",
"+ @ & + + + @ @ @ + + + + + # @ @ # * # z * + @ @ + & @ +   + +   +   * @ + @ + + > + +   & j + @ @ + + + + + + +   f + + + + @ ",
", & , +   + + + + $ @ + + ,   * @ + @ + * + + + + @ @ + + # + + + + # # @ + + @ @ @ + + + + @   + + + @ @ + + + + + + + + + & + ",
"+ + + + + + + + @ * + + + + + # + j * & & * + + * + + @ * f   + + + + + @ + + & + @ + + @ + + + + f * + + @ + + +   h * & @ + @ ",
"@ +   + & ,   @ $ @ * + + + & + + z +   + @ + # g + + + @ @ @ + + +   + + + + + + & @ @ + g +     * f $ + + + + +   f + @ @ + + ",
"+ + f + * , z j   + * & & + + + +   + b @ + @ *   + + + + , * @ + + , , v + + + + $ + + + + + + +   $ @ + + @ @ # + + + @ + @ @ ",
"+ + @ + @   x h & + + + + + + + + + @ g @ + * + @ > @ # + *   + +   & @ & + $ + + +   + + + + + + + + + $ + + + , + + + + + + + ",
"+ @ @ + + + @   + + + + + + + + + + +   & + , j + f + + + @ , @ + + + + + $ + + & * * @ + * +   + # & @ & @ + +   + g + @ + + @ ",
"$ j h   + + @ + + @ @ $ + + @ * $ + * % & @ + f @ @ @ + * & # & + $ & j * * $ + @ & @ @ + * & + + + + + + + + + + + * + @ + + + ",
"& @ * $ @ & @ + + * *   @ # + + + * h + * & + + * +   + @ & + + + @ f @ * , @ + + +   +   & f + + +   @ + + j % + + + + + & # + ",
"+ + @ + * @ > *   + + + . o : k > * + + + + @ + + + + + , * ,   & $ # * j , #   + + + @ &     + + + g + + + + + + f + @ & + + + ",
"+ # + $ @ + @ # @ @ + @ o 3 O ; + @ #   * * # + +   + + + & h + * $ + @ * + + + , + + + + @ h h * + ; . @ + + @   * @ & l @ *   ",
"@ + & & @ * + + # &   @ 3 B 9 : + # + + f , + @ + + + & + + + + + + +   + & ,   + @ + + +   $.n   @ 1 2 . + + + + + @ +   # z n ",
"* & + + +   @ + + + + > 4 F V 2 . + + + + + + @ @ + + + @ & @ @ @ * + j @ +   * $ + + * @       . O B 9 y @ + +   + + + + + + & ",
"+ @ + n * + & @ @ # + = 8 W F 9 @ @ g   f , @ + + f + & @ + + @ + + + $ +   @ & $ + * % + + + > - 4 A 9 - + + + + + @ g & + + + ",
"+ @ + *   f * + + , . M @.] Q B o * @   @ + + @ @ * * * + * , + $ + + +   g * +   & $ + + * @ : 3 F W 8 O + @ @ + + + g + # j @ ",
"+ @ + + + @ @ + + + - P J ,.,.F 3 ; * , + + , * * @ + * + * , & @ + + @ + & + + , + + + + + 2 4 V ] Q B ; @ @ # @ + + + @ + + + ",
"& $ @ @ + & # & @ @ X L ~ 2.0._ Z : > g * + & # & + + * + @ , + + + + + +     @ * + + + + ; 6 G Q 4.Q 7 X + + + @ + + & + @ * + ",
"j f g @ & , * # *   o N J 3.p.2.J 3 X   + $ @ + + + # , @ # *   + + + + + + & @ + @ + + + q Z J <.6.) 6 . + + + > g @ + + + * + ",
"@ @ +   + + + + > + = L ~ 8.s.u.q.C X * + + + g > > * @   +   + & + + + + + + + + @ * @ = 3 H / 0.6.^ C = + + & & j + +   g & , ",
"+ + * +   # + + , @ - U ^ 9.k.d.9.G q @ h @   & + @ + + + + @ = : * +   + + * + +   + < t 7 ! 5.s.a.) 0 X @ # @ , , + # * * @ # ",
"& + @ + + + + @ + @ q C _ r.c.m.d.[ i : > $ + +   * * @ # + - 1 o * + + + + + + + + + X 6 G ( u.k.t.) | X.% & @ * *   @ + + + , ",
"@ + + + + @ * * z + : Z [ y.S.L.v.2.p ; + + @ v + + + +     O 8 3 :   +   + + + + + + @ 6 _ e.x.M.d.( O.*.@ $ $ @ > + + & &   @ ",
"j $   + * # + + +   @ 6 ! y.J.).D.<.e = + + * #.+ + > @ # ; 9 D 9 -   # f   + + + + + = p ` d.K.F.z.[ 9 o & + + + + @ + * & + + ",
"@ @ + +   + * , + h l o I p.Y.`.H.1.w @ @ + +   + + + $ < O V W B t * @ *   + + + + + = e >.V./.T.l./ i c + +   + + f g # + + @ ",
"@ & @ + @ + @ , @ g j X +.w.P.^.C.N @ @ *   + + * * + @ y 3 W ] D s @ @ @ + + @ & @ + : 0 3.W.`.U.a.N u < + & *   + & @ f & + @ ",
"> * + k & + + + > + + ; o 7 '  .t @ + + * +   + + & # ; p Y ] ,.F a ; + z &   + $ + + ; q { E.~.h.E 3 @ + + @ & + + +   @ @ & + ",
"* z + , @ + * @ @ f & + * @     + @ + + + + + + + # , u C J ,.8.~ p . f =., + @ + + $ + $ q d } 4 q @ + + + + , @ + + + + * g , ",
"g ,   + * + & *   g x & g +   + & , # + + +   + % & * 2 Z ~ 8.r.) L X & f , , + * + $ + + + , ; &.% + + * + + + + + & h   * g @ ",
"z @ + + + + , & + + + * f & + + f + + @ + + + @   * , q { _ i.p.1.V o @ * , + & n + + + + + g > n > + , @ + + + &   f f   , + + ",
"  @ + # @ g #   * j + +   f * + + @ + + + + + + + @ y i G 1.s.j.5.J w @ @   + # + + @ @ + @ + +   z ,   @ @ + + + + @ + + + ,   ",
"#   + + + k , + & z   + + + @ + + + & , @ $ + , + @ q L H 9.j.x.t./ t @ + @ @ + + + @ + @ & + + + & @   # *     f h   + + f z , ",
", , * & v g + , +   + + +   j * # + + & & & & # % ; - 0 ` t.B.A.z.1.0 : f f @ *   + +   > h + @ + + > # + # j z & + + + + g v > ",
", , # @ # * + + + $ +   + + & # + @ + + , + @ + + $ = i ` d.I.R.c.1.p y , @ + * @ * @ @ + @ + +   * , @ & + f * + + @ @ + + + + ",
"+ >   * @ & & + + + * h + + + + +     @ @ + + + + + ; t E b.!.(.n.E w @ # > g + # + @ @ g h + + # & + + , @ +   + * & + + + # # ",
"& + # > + j , @ +   & l + + @ $ + > j z + + g + + + > w S N._.Q.g.R X + # & h * @ + * + * + @ @ + @ @ + & # + + +   + & & + @ * ",
"z +   + % *   + g + + #   & & @ + f & @ + + + + @ g @ r 0 o.G.Z.G : x @ # * $ @ & + > * + * + #   @ $ + , & + ,   +   + + + # * ",
"  z & & + h g + + + +   @ @ @ g     # @ + + * @ & # @ @ @ q c : < + > *   + +   + @ > @ + @ + + + + @ & @ * * l f + + + + + + + ",
"  z f @ + @ # + + + + + & + + & @ + # # + + + + + + + @ + @ & + & + + + + + * f + + * , + + + @ + + > + + # * # g & @ + + @ + + ",
"+ + @ + @ @ # @ + @ @ +   + + + & + + + + @ $ + + * f > + + + +   + + + + # + h ,   + @ + > @ * @ # >   + + , , # , + * & $ + $ ",
"* * @ + & + + f * @ +   j h + % + + +   + + + @ + # @ + $ $ &.@ + +   +   + + &   + + + + + @ + + # * * +   @ > + @ + + f * + + ",
"*   , + + + + + + * + + & @ @ f + + + & *   + $ + + &   + + @ +   % g * @ + + , * + @ + @ + + + + # # # h , + + + + + + * + g > ",
", * * * + * + @ + + + + + + + +   +   & $ + + + + + + + + # & + + j m & + & , + # + +   + @ + + g ,     * > * + @ $ + $ + + + + ",
"> @ + @ f , # * + + + + + + @ @ + + + @ + + + +   & @ +   + + + + @ # @ @ & h * @ + +   g * # f + + * @ & & $ + + + + + + @ + + ",
"+ + * # , * > @ + @   + + + + & * g & + + + + , & $ @ + @ @ + f l   & @ + * + + + + + + + + @ @ g + + $ * + @ * @ + * @ + + + + ",
"+ + + + + *   & # > + + @ + + $ @ * * & & @ + * * + +   * & + + & + $ + + & + + & , + @ + > + + +   @ $ * , * @ v g + + + + & + ",
"& @ + @ + @ f @ + + @   + + + + @ + $ $ + + @ + + + @ @ + + * %   + + + + + @ + @   + + + + @ @ & f + + , + @ * @ f + + + $ # + ",
"+ + + * @ + ,   @ + + + + @ & + + z f + + + #   * , + + + + * &   + * $   + + f , + + + + + + @ + * + + @ + # + g z + f * + , * ",
"+ + & @ # + + g @ + + + + + @ * @ @ + + +   + # z ,   + + @   g h   + + $ @ + * @ + + + + @   f f + @ + + * * # + $ + * @ + * h ",
"+ + + +   + + f + ,   f $ @ # g @   @ +   f > @ & + + + & v + & g + + + + + + + + + + + & @   v v + + *   @ + # +     + + # #   ",
"+ + # + + + + @ f j + f + + & * + + + + + f @ g g + + + + g & h + + + + + + + @ + + @   + + @ +   & + +   z * * + + + + * * # + ",
"+ @ @ + * @   b ;.+ & + @ + @ & # @ + @ @ +   , &   @ + + + f f + # @ + & @ @ f + + + + & @ + + + f * , * > +   & # + + * *   * ",
"@ + + @ @ + * h & * $ + $ + @ @ , + + & z f # @ + + + $ + + * *   * * + @ + + + + + + @ @ + + > z @ + + , # + + + @ + + * + + # ",
"+ + @ @ + f @ f   + +   f & + + + + + + & @ h   +   @ # + @ # + + * f f $ + + + * + * # * *   * , + @ * # @ + > * + + + + + , @ ",
"$ + @ @ & @ + + + + + + @ & + + + * #   + +   # n * & & + +   n , # j * + + f -.@ $ * * @ & + @ * & + , * + , # + @ + + @ + $ f ",
"+ + + + + + + + & + @ * + + + + + f f f +   M h f + + & @ + + % + + + + + + @ g * & + + + $ @ @ + @ & + @ & # + + @ & + & +   @ ",
"& & + # @ + + + > + & + @ + + + + + h v h   * + +   @ + @ # + # @ + @ + $ $ + + + + + + + + @ g + + @ @ # f &   + + + + + + @ + ",
"@ * & $ + +   # + @ f @ + + & & * + + # $ +   @ @ # + + + * & * $ , @ & & @ f $ + +   + + @ + # + + + @ +   g M   & + + + * > + ",
"#.@ + + + + & *   + + @ + @ & # @ @ + * + + + * + @ + + + +     & @ + + @ @ + @ + + @ @ + + +   + + + + + + * *   # + + + @ @   ",
"f + f @ + + & * & @   f # + @ * + + @ & + +   f f + + + + + + + + @ + + + , + + + + & + + +   & @ + + & + +     +   + + @   + + ",
"> & * @ + # f * + + @ *   & * + + + + + + + + , * # + + + + & & + & + + + + + + + @ + + + + + & # + + + + + @ + + @ + + + + + + "
};
