/* XPM */
static char *coin01_resized[] = {
/* columns rows colors chars-per-pixel */
"64 64 121 2 ",
"   c None",
".  c #B34F00",
"X  c #B84E00",
"o  c #B25200",
"O  c #B85007",
"+  c #BC5F00",
"@  c #B9550A",
"#  c #BA5B0C",
"$  c #BE6202",
"%  c #BD630C",
"&  c #C05801",
"*  c #C36601",
"=  c #C26A02",
"-  c #CC6B00",
";  c #C16308",
":  c #CA6D0E",
">  c #D16F00",
",  c #C27203",
"<  c #CA7300",
"1  c #C57800",
"2  c #CC7A01",
"3  c #D57400",
"4  c #D37C01",
"5  c #DA7A01",
"6  c #C16E15",
"7  c #C26C1A",
"8  c #CD7A10",
"9  c #D07B15",
"0  c #C77C24",
"q  c #CD8100",
"w  c #D58300",
"e  c #DC8300",
"r  c #D78B00",
"t  c #DC8D00",
"y  c #D69100",
"u  c #DC9500",
"i  c #CD8C1F",
"p  c #E38600",
"a  c #E48B00",
"s  c #E98E00",
"d  c #E39400",
"f  c #EE9500",
"g  c #E49C00",
"h  c #ED9B00",
"j  c #F29C00",
"k  c #DEA200",
"l  c #D4AA00",
"z  c #DAAE00",
"x  c #DEB200",
"c  c #E6A400",
"v  c #ECA300",
"b  c #EDAC00",
"n  c #F6A400",
"m  c #F6AC00",
"M  c #E2B500",
"N  c #EEB200",
"B  c #E6B800",
"V  c #ECBD00",
"C  c #F5B400",
"Z  c #F8B400",
"A  c #F4BB00",
"S  c #F9BC00",
"D  c #E6A618",
"F  c #CF922B",
"G  c #D29426",
"H  c #D4942B",
"J  c #CE8D35",
"K  c #D59734",
"L  c #D9A72A",
"P  c #DAAB2D",
"I  c #D8A63F",
"U  c #E6C000",
"Y  c #EEC200",
"T  c #EDCB00",
"R  c #F4C300",
"E  c #F9C500",
"W  c #F3CB00",
"Q  c #FECC00",
"!  c #F4C20C",
"~  c #EDD300",
"^  c #F3D400",
"/  c #FDD400",
"(  c #F4DC00",
")  c #FEDC00",
"_  c #F3C312",
"`  c #F3C41C",
"'  c #F6E300",
"]  c #FEE300",
"[  c #F7EB00",
"{  c #FDEA00",
"}  c #FDF300",
"|  c #FDFC00",
" . c #FEFE0D",
".. c #FAF61B",
"X. c #FEFD1E",
"o. c #F3C424",
"O. c #F3C52A",
"+. c #E8CD3B",
"@. c #FDFD20",
"#. c #F9F32A",
"$. c #FDFD2E",
"%. c #F7EF39",
"&. c #FDFD30",
"*. c #FEFD3F",
"=. c #E2BF41",
"-. c #E3C14C",
";. c #ECD640",
":. c #E4C25A",
">. c #EAD159",
",. c #EFDD5F",
"<. c #F5EA47",
"1. c #F5EC49",
"2. c #FDFE41",
"3. c #F8F24D",
"4. c #FDFD4F",
"5. c #F2E555",
"6. c #FDFD51",
"7. c #F3E866",
"8. c #F6EF6C",
"9. c #FCFD62",
"0. c #FDFD73",
/* pixels */
"                                                                                                                                ",
"                                              Q E E Q Q / / ) ] ] ] { { { { [ [                                                 ",
"                                      Q Q Q Q Q Q Q / ) ) ] ] ] ] ] { ] { [ { } } [ } }                                         ",
"                                  Q Q Q Q Q Q Q / / ) ) ) / / / / W Q ^ / ^ ) ' [ [ } } } |                                     ",
"                              Q Q Q Q Q Q Q Q / / / / E R S Z C C C C C A A R R W ^ ( { } } | }                                 ",
"                            Q Q Q Q Q Q Q Q Q / E S Z m m m m Z C Z C C C C C S A A R W ( [ } | } |                             ",
"                        Q Q Q Q Q Q / / / Q E Z m m n n m m m m m Z Z Z C S C S A S A V V T ( [ | | |                           ",
"                      Q Q Q Q Q Q / / / Q R m n n n n m n m m m m m Z Z C C C C S A A A A A Y ^ ' } | |                         ",
"                    Q Q Q Q Q Q / ) ) Q A m n n n n n n n m m m m m Z m m C C A C A A A A A A R T ' [ | |                       ",
"                  Q Q Q Q Q Q / ] ) / S m m m n n n n n n n m m m C m C C Z C C C A S A A A V A A Y ( } | |                     ",
"                Q Q Q Q Q Q ) ] ] ) A m m m m n n n n n n m n m m m m C m Z Z C C A C A A A A A A V R ^ } | |                   ",
"                Q Q Q Q Q ) { ] ) A Z m m m m n n n n n n n n m m m c ' R m C C C C C C A A A A A A R Y ~ [ | }                 ",
"              Q Q Q Q Q / ] { ] E C Z Z m m m m m n n n j n n m n g ~ | { S m C Z C C C A A A A A A A R R ( } | |               ",
"            Q Q Q Q Q Q ] } { / A C C Z Z Z m m m n n n n n n n h M | | | ) Z Z Z C C C A C A A A V A V Y R ' | |               ",
"            Q Q Q Q Q ) } } ) A C C Z Z Z m m m m m m n n n n n k } | | | | / m C C C C C A C A A A A V A A T [ } |             ",
"          Q Q Q Q Q / } } { W A S A C Z Z Z Z m m m m m n n n d ( | | | | | | R m m C C C C A C A A A A V A R ~ [ | |           ",
"          Q Q Q Q Q ] | } / R A S A C C C C Z m m m m m n n d U | | | | | | | } A m m C C C C A C A A A A A V Y ' } |           ",
"        Q Q Q Q Q / | | { W A R S A S A S C C Z C m m m m h k | | | | | | | | | ' C m C C C C C C A A A A V A A T } | }         ",
"        Q Q Q Q Q ] | | ) R R A A A S A A Z C C Z m m m m u ' | | | | | | | | | | / m C C C C C A C C A A A A V A ' } |         ",
"      Q Q Q Q Q / { } [ W E E R R S A S S A C C Z Z Z m u T | | | | | | | | | | | | R m C m C C C C A C N A A A A W } } }       ",
"      Q Q Q Q Q ) { } ) R E R R R S S A A A Z C C Z C v c | | | | | | | | | | | | | } R m Z C C C C A C A C N A A A ' } }       ",
"      Q Q Q Q Q ) { { E R E W E R R R S A S S A C C R W } | } | | } | } | } } } } | } { ) E C m C C C C A C A C A V ^ } }       ",
"    Q Q Q Q Q Q ] ] ) R A R E R E R R S A A C A E ) { } } { } { { } } { { } { } { } } } { } ] Q A C C C C A C V V A R [ } }     ",
"    Q Q Q Q Q / ) ] Q A A A R E E E R R R E / ) { { { { { { { { { { { { { { { { { { ] { { { { { { ) W A C N N A V C V ( } }     ",
"    Q Q Q Q Q / ) ) R Z A S A E E E R W / ] ] ] ] ] ] ] ] ] ] ] ] ] ] ] ] ] ] ] ] ] ] ] ] ] ] ] ] ] ] ] / E A C C b b T [ }     ",
"    Q Q Q Q Q Q ) / C Z Z A A A R W / ] ) ) ] ) ] ) ) ] ) ) ] ) ] ) ) ) ) ] ) ) ) ) ] ) ] ) ) ) ] ) ) ) ) ) W g b v v B { }     ",
"    Q Q Q Q Q Q / Q Z Z C A C < r ) ) ) / ) ) ) ) / ) ) / ) ) / ) ) / ) / ) ) ) ) / ) / / / ) ) / ) / / ) / u t v c v N ' } [   ",
"  Q Q Q Q Q E / / E m m C C C 2 o N / / / / / / / / / / / / / / / Q / / / / Q / Q / / / / / / Q Q / / / / N 4 v v v v b ^ { [   ",
"  Q Q Q Q E Q Q Q S m m m Z C b $ $ E Q / Q Q Q Q Q Q Q Q Q / Q Q / Q Q Q Q Q Q / Q Q Q Q Q Q Q Q Q Q Q E w g v v v v v ^ { [   ",
"  Q Q Q Q E E Q Q Z n m m m Z C g o w / Q Q Q Q Q Q Q Q Q Q Q Q Q Q Q Q Q Q Q Q Q Q Q Q Q Q Q Q Q Q Q / g t h v g c v v W { {   ",
"  Q Q Q E Q W Q Q Z n n m m Z Z C 4 o c Q Q Q Q Q Q Q Q Q Q Q Q Q Q Q Q Q Q Q Q Q Q Q Q Q Q Q Q Q Q Q A 5 h h v v h v c R ] {   ",
"  Q E E E E E Q Q Z n n n m m Z C C $ $ R Q Q Q Q Q Q Q Q Q Q Q Q Q Q Q Q Q Q Q Q Q Q Q Q Q Q Q Q Q Q t d v h h g v v v Y ' {   ",
"  E Q E E E W Q E Z j n n m n Z Z C v o w Q Q Q Q Q Q Q Q Q Q Q Q Q Q Q Q Q Q Q Q Q Q Q Q Q Q Q Q Q b e h h h h h v v v A { '   ",
"  W Q E E E E Q Q Z n n n n n m m Z C w o c Q Q Q Q Q Q Q Q Q Q Q Q Q Q Q Q Q Q Q Q Q Q Q Q Q Q Q E w f h h g h h g g v V ] '   ",
"  E E E R W E Q Q Z n n n n n n m m Z Z = $ E Q Q Q Q Q Q Q Q Q Q Q Q Q Q Q Q Q Q Q Q Q Q Q Q Q Q g a h h h f h h g v h R ) ]   ",
"  E W R E R R Q Q Z n j n n n n m m m C c o r Q Q Q Q Q Q Q Q Q Q Q Q Q Q Q Q Q Q Q Q Q Q Q Q Q A e f f f h h h h h h v R ' )   ",
"  W E E R R Y Q Q S n n n j n n n n m m m 2 X C / Q Q Q / Q Q Q / Q Q Q / Q Q Q / Q Q / Q / Q Q b s f f h h f g f g h c R ) (   ",
"    R E R R R E Q E n n n n n n n n n v v f X r ) / / ) / / / ) / / ) ) / ) / ) / / ) / ) / ) ) C f f f f f f h h h h v W '     ",
"    R R R R R E Q E n n j n j j j f f h j v * w ] ) ) ] ) ] ] ) ) ] ] ) ) ] ] ] ] ] ] ) ) ] ) ] C f f f f f f d f g h v ^ )     ",
"    R R Y R V E Q E Z j j j f f f f f f h v - 2 { { ] { { ] { { ] { ] { { { { ] ] { { { { { { { A h h f f f f f f f h b / )     ",
"    R Y A V A Y Q Q m f f f f f f f f f f j > 2 } } } { } } { } } } } } } } } } } } } } } } } } A h j f f s s f f d h A / /     ",
"    R Y Y Y V Y E Q S f f f f f f f f f f j > 1 } | | | | | | | | | | | | | | | | | | | |  .| | R h h h f f d f f f h R / ^     ",
"      R A Y V V R Q E j f f f j f f f f f f 3 ,  . . . . . . . . . . . . . . . . . . . . . . . .! h j h h f f s f f v W /       ",
"      Y Y V V V R Q Q m f f f f f f f f f j 3 = .. .X.X.X.X.X.X.X.X.X.X.X.X.@.@.@.@.@.@.@.@.@.@.! h g h f f f d d f N / Q       ",
"      V V V V B B E Q S f f f f f f f f f f 5 ; #.$.$.$.$.$.$.$.$.$.&.$.&.$.&.&.&.&.&.&.&.&.&.&._ j v h h f d f f g R / W       ",
"        V V V V B R Q Q n f f f f f f f f f 5 % %.*.*.*.*.*.*.*.*.2.2.2.2.2.2.2.2.2.2.2.2.2.2.2.` h v h h f h f f m E E         ",
"        B V B B B B Q Q S j f f f f f f f f p # <.6.6.6.4.4.4.4.6.<.+.L i P ;.3.6.6.6.6.6.6.6.6.` j v h h g h f v R Q W         ",
"          V B B B B V Q E m f f f f f f f f p @ 5.9.9.9.9.6.5.-.G 8 2 w w - $ 6 K =.5.9.9.9.8.9.o.v v h h h h g N Q Q           ",
"          B B B B M B E Q R j f f f f f f f p @ ,.0.0.8.=.K 9 4 d h v b N N b u 4 = ; 0 I >.8.0.O.v v v h h g m W / Q           ",
"            B B M M x V Q Q C h f f f f f f s X =.:.K 0 5 s h j v v b m b b N N N b c r - 6 % J D v g v v g v W / /             ",
"              B M x M x Y Q Q m f f f f f f s & : 5 p f f f j j h n v b b b b C N N N N N b d w g v v v v v A ( /               ",
"              M M M x x x E Q E n f f f f f f s f f f f f f f j h v v v v m b b N N N N N b N b b v v v v B ) ) ^               ",
"                x x x x x M E Q E n f f f f f f f f f f f f f f h h n v v n b b N N N C N N b b v c v b V ( ' )                 ",
"                  x x x z z B Q Q R v f f f f f f f f f f f f f h h h h v v b b b N N N N N b b b b b Y ) ] )                   ",
"                    x z x l l B Q Q R m f f f f f f f f f f f f f h h v n v b v b b N N N N b b b N T ' { {                     ",
"                      x l x l l B Q Q E m j f f f f f f f f f f f f h j h v v n b b b b N b M N B ^ { [ [                       ",
"                        l z l l l M E Q Q A v h f f f f f f f f f f j h h h v n b b b b b N B T ' } } [                         ",
"                          l l l l l x R Q Q E C n f f f f f f f f f f f j h v h v v v v N U ( } | } }                           ",
"                            l l l l l z V Q Q Q R Z v h f f f f f f f f f h h h v v b A ^ [ } | |                               ",
"                                l l l l l x R Q Q Q Q A Z n j j j f f h h j v b N R ^ ' { [ } }                                 ",
"                                    l l l l l M R E Q Q / Q R R A C A C A S R E ^ ) ) ' { {                                     ",
"                                        l l l l l x B E E Q Q Q Q / E Q Q E Q / / / )                                           ",
"                                                  l l l x V R E Q Q Q Q E E E                                                   ",
"                                                                                                                                "
};
