/* XPM */
static char *coin_resized[] = {
/* columns rows colors chars-per-pixel */
"64 64 100 2 ",
"   c None",
".  c #BE620B",
"X  c #C26605",
"o  c #C56F00",
"O  c #C86B00",
"+  c #C77100",
"@  c #CE7B00",
"#  c #D47501",
"$  c #D37A01",
"%  c #D97902",
"&  c #D27C0B",
"*  c #C47416",
"=  c #C87914",
"-  c #C67A1E",
";  c #D38300",
":  c #DE8101",
">  c #D58D00",
",  c #D98D00",
"<  c #D78B0E",
"1  c #DD9100",
"2  c #D0891E",
"3  c #E18400",
"4  c #E68F00",
"5  c #E98E00",
"6  c #E29300",
"7  c #ED9500",
"8  c #E39C00",
"9  c #EB9B00",
"0  c #F09600",
"q  c #F19C00",
"w  c #D4AA00",
"e  c #D9AE00",
"r  c #DDB100",
"t  c #E6A300",
"y  c #EBA400",
"u  c #ECAC00",
"i  c #F5A400",
"p  c #F5AC00",
"a  c #E3B500",
"s  c #EDB300",
"d  c #E6B900",
"f  c #ECBC00",
"g  c #F4B400",
"h  c #F8B200",
"j  c #F3BB00",
"k  c #F9BB00",
"l  c #C9832A",
"z  c #D38722",
"x  c #CE8B35",
"c  c #DAA73C",
"v  c #E1B936",
"b  c #E1BC3A",
"n  c #EEC000",
"m  c #F4C300",
"M  c #F9C600",
"N  c #F4CB00",
"B  c #FECC00",
"V  c #F5CA0B",
"C  c #EFD904",
"Z  c #F4D400",
"A  c #FDD300",
"S  c #F5DB00",
"D  c #FDDB00",
"F  c #F4C912",
"G  c #F3C91A",
"H  c #EED710",
"J  c #ECD31C",
"K  c #F6E300",
"L  c #FEE400",
"P  c #F7EB00",
"I  c #FCEC00",
"U  c #F7F400",
"Y  c #FCF300",
"T  c #FDFC01",
"R  c #FEFE16",
"E  c #FEFF18",
"W  c #EACE28",
"Q  c #F2C921",
"!  c #F0C82C",
"~  c #EEC433",
"^  c #E9CB34",
"/  c #E7C73E",
"(  c #FEFD26",
")  c #FDFE28",
"_  c #FEFD36",
"`  c #FDFD38",
"'  c #E3BF51",
"]  c #E4C247",
"[  c #E5C64B",
"{  c #EAD24F",
"}  c #E6CC5D",
"|  c #F8F243",
" . c #FEFE46",
".. c #FDFE48",
"X. c #F9F454",
"o. c #FEFE57",
"O. c #FDFE59",
"+. c #FBFA67",
"@. c #F6F06F",
"#. c #FDFE6A",
/* pixels */
"                                                P L L L A B B B B B B B B                                                       ",
"                                            P P P I L L D D A B B B B B B B B B                                                 ",
"                                        U Y U P K K D D D D A A B B B B B B B B B B                                             ",
"                                      U U U D Z m j j m M A D A B B B B B B B B B B B                                           ",
"                                    U U P Z n j g g h g p h M B B B B B B B B B B B B B                                         ",
"                                    T P Z f j s g g g p p p p k B A B B B B B B B B B B B                                       ",
"                                  T U Z j s g g g h p h p p i p k B A B B A B B B B B B B B                                     ",
"                                U U Z j f j j g g g p p p p i i p M D A B B B B B B B B B B B                                   ",
"                                U P n j j s g g h h h p p i i i i h A D B B B B B B B B B B B B                                 ",
"                              U U N j f g j g g h p p p i i i i i p M D D B B B B B B B B B B B                                 ",
"                              U S n f j f g g g h g p p p i i i p p g A L B B B B B A B B B B B B                               ",
"                            T U N j j g g g g g k S i p i i i p p p g M I D B B B B B B B A B B B                               ",
"                            T K n j f f j g g p M T s i i i i i p p g k L L B B B B B A B B B B B B                             ",
"                            U N j j g g g h g g L T Z y i i i h p h h g A I A B B B B B B B B B B B                             ",
"                          T P n j s j g g g p m T T P y i i p p h g h g N Y L B B B B B B B B B B B B                           ",
"                          U S n j f g g g g g D T T T d q p p p h g g k j L I B B B B B B B B B B B B                           ",
"                          U N f j s g g g g g Y T T T S 9 p p p h g j k j D Y A B B B B B B B B B B B                           ",
"                        U P m g j g g g g p N T T T T T t p p p g g k j j A T D B B B B B B B B B B B B                         ",
"                        U K j f s g g g p g I T T T T T n i g g h j j k m N Y L M B B B B B B B B B B B                         ",
"                        U Z j j j s g g p M T T T T T T K t g g g k k j M m L I M M B B B A B B B B B B                         ",
"                        P N j s g g g g g D T T T T T T Y a g g k k j M M m D I N M M B B B B B B B B B                         ",
"                        P j f j s g g g D Y Y Y Y Y Y T Y L k h g j k m m m N I A M M B B B B B B B B B B                       ",
"                      U K j s g p g M D Y I Y Y I Y I I Y Y I M j j m m m M M K A m M N B B B B B B B B B                       ",
"                      U S j j g g N L L I I L I I I I I I I I L A M m M M j j D A m M B B B B B B B A B B                       ",
"                      U N u g j Z K L L L L L L L L L L L L L L L A M m m k j A A m m M M B B B B B B B B                       ",
"                      P n y t Z D D D D L D D D D L D D D L D L L D D M j k g B N m m M M M B B B B B B B                       ",
"                      P f y 1 s A A D D D A A D D A D D D A D D D D D f 1 j g M A m m m N M B B B B B B B                       ",
"                      L s y 8 8 A A A A A A A A A A A A A A A A A A A > ; h h k N m n m m M M N B B B B B B                     ",
"                      K u y 9 1 m B B B B A B A B B B B A B A B B B M o y h p k B n m m m M M M B B B B B B                     ",
"                      K u y y , s B B B B B B B B B A B B B B B B A y + g g p h M m f n m m N M M B B B B B                     ",
"                      S u y 9 9 8 B B B B B B B B B B B B B B B B B ; , h p i h B f f n m m m M M B B B B B                     ",
"                      S y 9 9 8 6 M B B B B B B B B B B B B B B B m o y g p i h B f f f n n m N M M B B B B                     ",
"                      Z y 9 8 6 4 g A B B B B B B A B B B B B B B t @ g p p i p B f d f f m m m m M B B B B                     ",
"                      S t 9 9 9 6 y B B B B B B B B B B B B B B B @ 1 g p i i h B f d f f f n m m m M M B M                     ",
"                      Z t y 9 9 7 6 M B B B B B B B B B B B B A j + i p i i i h B d d d f n n m m M M N B M                     ",
"                      D y 9 9 9 7 6 g A B B B B B B B B B B B B 8 @ g p i i i h M d d d f f f m m m m B B M                     ",
"                      A u 9 9 9 7 7 u B B B A B B B B A B B B B @ 9 p p i i i h N d d d d f f n m m m m M M                     ",
"                      S t 9 9 7 7 7 g A A A A A A A A A A A A M O 9 i i i i i h M a a d d d f n n n m m M                       ",
"                      D t 9 7 7 7 7 j D D D D D D D D D D D D N + q q q i i i k m r a a d d d f f m m m N                       ",
"                      Z u 9 9 7 7 7 j I I L L I L L L L L L L N $ q 0 0 0 q i k m r r a a d d f f n n m m                       ",
"                      S g 9 6 5 7 7 m Y I Y I I I I I I Y I I Z $ 9 0 7 7 0 q k j r r r a d d f f f f n m                       ",
"                      A f 9 7 7 9 7 N U T Y Y T T T T Y T Y T Z $ 7 0 0 7 7 9 M f e r r a a a d f f f m m                       ",
"                      A j 9 7 7 6 9 V T R T T T T T T T T T T C # 0 7 7 7 7 i M a e r r r a a d d f f n n                       ",
"                        m 9 7 6 7 7 V E R E E E E R E R E E E H # 0 0 0 7 7 i M r w e r r r a a d d f f                         ",
"                        M 9 6 7 7 8 F ) ( ( ) ( ( ( ( ( ( ( ( J # 0 0 7 7 0 g M e w e e e r a a d d d f                         ",
"                        N u 7 9 9 9 G ` ` ` ` _ _ _ _ _ _ _ _ W # 0 0 7 7 7 k m w w w e e r r a d d d d                         ",
"                        N k 8 7 9 8 Q ..........| |  . . . . .W % 0 7 7 0 9 M d w w w e e e r r a d d d                         ",
"                          M 9 7 9 9 ! O.O.O.X.b * = v X.o.o.o./ % 0 0 7 7 i M a w w w w e e r r r a d                           ",
"                          N u 9 9 9 W #.+.[ - X , 8 ; z { #.#.' # 0 7 7 7 g m e w w w w w e e r r a a                           ",
"                          A j 9 9 t ~ } l X , u s p u 6 & c @.[ # 0 0 0 q M n w w w w w w e e e r r r                           ",
"                          Z N t 9 y < . ; u g s u u y q 7 % z x % 0 7 7 i B r w w w w w w w e e r r                             ",
"                            D j 9 y 8 t u s s u p y i 9 0 7 5 # 3 0 7 7 k N e w w w w w w w w e e r                             ",
"                            D N t y t u u s s u u y 9 q 9 0 7 0 0 0 7 i B f w w w w w w w w w w e                               ",
"                              S f t u u u s g u i y q 9 7 7 7 0 0 0 7 g M r w w w w w w w w w w w                               ",
"                              K Z u t u u a s i y y 9 0 0 0 7 7 7 0 i M f e w w w w w w w w w w                                 ",
"                                P N s u s t t y y q q 7 7 7 7 0 0 9 j B r w w w w w w w w w w w                                 ",
"                                P P m u a t y y 9 q 0 7 7 7 7 7 7 p B n w w w w w w w w w w w                                   ",
"                                  U K f u u y 9 9 9 7 0 0 7 7 7 i M M r w w w w w w w w w w                                     ",
"                                  U U K s y y 8 9 0 7 7 7 7 9 i M B d w w w w w w w w w w                                       ",
"                                    U Y S f y 9 7 7 0 7 7 0 i M B f e w w w w w w w w w                                         ",
"                                      P P S j u 9 9 7 9 i j M B m w w w w w w w w w w                                           ",
"                                        L S D M j g j j M B B m e w w w w w w w w w                                             ",
"                                          S D N N M B B B N a w w w w w w w w w                                                 ",
"                                              M B M B M f e w w w w w w w w                                                     "
};
