/* XPM */
static char *coin00_resized[] = {
/* columns rows colors chars-per-pixel */
"64 64 128 2 ",
"   c None",
".  c #AB3D00",
"X  c #A94700",
"o  c #AC4D00",
"O  c #B14603",
"+  c #B24A04",
"@  c #AE5000",
"#  c #B45502",
"$  c #BC5600",
"%  c #B55B01",
"&  c #B85D03",
"*  c #BB5E0A",
"=  c #BC6400",
"-  c #BD6800",
";  c #BF640B",
":  c #BD6913",
">  c #BE6C1A",
",  c #C26401",
"<  c #C26C02",
"1  c #CA6A00",
"2  c #C57200",
"3  c #CD7204",
"4  c #CE7900",
"5  c #D47501",
"6  c #D47D00",
"7  c #DA7B00",
"8  c #C67610",
"9  c #CD7511",
"0  c #CB7814",
"q  c #CA7C18",
"w  c #C3792C",
"e  c #D48100",
"r  c #DC8300",
"t  c #D58C00",
"y  c #DA8D00",
"u  c #DC9200",
"i  c #D79800",
"p  c #DD9C00",
"a  c #E18500",
"s  c #E48C00",
"d  c #E39401",
"f  c #EA9300",
"g  c #E49D00",
"h  c #EA9C00",
"j  c #F09E00",
"k  c #D6A100",
"l  c #DDA200",
"z  c #DBAA00",
"x  c #DDB500",
"c  c #E4A300",
"v  c #EBA300",
"b  c #E4AE00",
"n  c #EBAC00",
"m  c #F1A300",
"M  c #F1AC00",
"N  c #ECB300",
"B  c #E2BF00",
"V  c #EDBB00",
"C  c #EDB20B",
"Z  c #F1B300",
"A  c #F1BB00",
"S  c #EDB313",
"D  c #ECB218",
"F  c #CB8A23",
"G  c #CD8B2D",
"H  c #CB8E36",
"J  c #D09230",
"K  c #D39B30",
"L  c #D9AD34",
"P  c #DBB239",
"I  c #EEC300",
"U  c #E5CB00",
"Y  c #EFCF00",
"T  c #F3C200",
"R  c #F8C600",
"E  c #F4CB00",
"W  c #FACA00",
"Q  c #ECD300",
"!  c #EDDF00",
"~  c #F4D400",
"^  c #FAD300",
"/  c #F5DC00",
"(  c #FADB00",
")  c #F5E300",
"_  c #FAE200",
"`  c #F6EB00",
"'  c #FAEB00",
"]  c #F7F400",
"[  c #FAF400",
"{  c #FAFA01",
"}  c #F3EB13",
"|  c #F9F617",
" . c #FAFA16",
".. c #FAFA18",
"X. c #EEDF2E",
"o. c #EAD63B",
"O. c #EBD83B",
"+. c #F0E520",
"@. c #F8F526",
"#. c #F9F926",
"$. c #F9F928",
"%. c #F8F536",
"&. c #F9F936",
"*. c #F9F938",
"=. c #DBB545",
"-. c #DEBA4F",
";. c #DCB651",
":. c #DEBC55",
">. c #E7CF46",
",. c #E2C54C",
"<. c #E8D247",
"1. c #EAD74A",
"2. c #EAD859",
"3. c #F4ED44",
"4. c #F9F947",
"5. c #F8F548",
"6. c #F9FA49",
"7. c #F4EE55",
"8. c #F0E65F",
"9. c #F7F457",
"0. c #F9F95A",
"q. c #EAD462",
"w. c #EDDF69",
"e. c #F4EF66",
"r. c #F8F567",
"t. c #F8F769",
"y. c #F9FB6B",
"u. c #F7F77A",
/* pixels */
"                                                          _ ) ' _ `                                                             ",
"                                              ^ ( ( ( _ _ _ _ _ ' ' ` ` ' [ [                                                   ",
"                                        ^ ( ( ( ( ( ( ( / ( ( / ( ) ) ' ' [ ' [ [ [                                             ",
"                                    W ^ ^ ^ ^ ^ E E T T A T A T T T E E ^ / _ ` [ [ [ [ [                                       ",
"                                W W W W W R A Z Z M M M M M Z M Z Z Z A V A T ~ / ` ` [ { [ {                                   ",
"                            W W W W R A Z M m M m M M M M M M Z M Z Z Z Z A Z V V E ~ ` ] [ { {                                 ",
"                          ^ ^ ^ R A M m m m m m M M M M M M M Z Z Z Z Z Z Z A Z A Z A I ~ ` [ { { {                             ",
"                      ( ^ ^ ^ T Z m j j j m m m m m m M M M M M Z M Z Z Z Z Z A A A A A T I / ` { { {                           ",
"                    ( ( ( ^ T n m m m m j m m m m m M m M M M M M M Z N Z Z Z Z A A Z A A A T ~ ` { { {                         ",
"                  ( ( ( ^ A M M m m m m m j j m m m m M m m M n M M M Z M Z Z Z Z A A A A A V T I ) [ { {                       ",
"                _ _ _ ^ A M M m M m m m j j j m m m M m M m v N A M M Z Z Z Z Z Z A Z A Z A A A T I ) [ { {                     ",
"              _ _ _ / A Z M M M M m M m m m m j m m m m m m p ) ` Z M M M Z M Z Z Z Z Z A V A A A T I ) [ { {                   ",
"              ' ' / T Z M M M M M m M m m m m m m m j m v u Q { { _ Z M M M Z Z Z Z Z Z A A A A A A T T ) { { {                 ",
"            ` ' _ E Z Z Z Z Z M M M m M m m m m m j m m d B { { { { / Z M Z M Z Z Z Z Z N Z Z A A V V T I ` [ { {               ",
"          [ [ ` ~ A Z Z Z Z M Z M M M M M m m m m m j f z { { { { { { ^ M M M M M Z Z Z Z A A A A A A A A E ` { {               ",
"        [ [ [ ) A A A Z Z Z Z M M M M M m M m m m m f i ] { { { { { { { E M M M M Z M Z Z Z Z Z Z A A A V T ~ [ [ {             ",
"        { { ` E A A V Z A Z Z Z Z M M M M M m m m v y ! { { { { { { { { [ R M M M Z Z M Z Z Z Z A A A A A A T ) { { ]           ",
"      [ { [ / T A A A A A Z Z Z N Z M M M M M M m y U { { { { { { { { { { ` A M M M M Z Z Z Z Z N Z Z A Z A A E ` ] {           ",
"      [ [ ] E T I A A A A A Z Z Z Z M M M M M m y x { { { { { { { { { { { { ' Z M M M Z M Z Z Z Z Z A Z A A A A / [ [ ]         ",
"    ` ' [ / T I T T A A A Z A Z Z Z Z Z M M M g p [ { { { { { { { { { { { { { _ Z M M M M Z M Z Z Z Z A V A A A E ` [ {         ",
"    ' ` ) T T I T T V V A A Z A Z Z Z Z Z M n l ) { { { { { { { { { [ [ { { [ { ( R M M M M Z Z Z Z Z Z Z A A Z A / [ [         ",
"    _ _ / A A A I T T T T A A A A Z Z Z A E ( ` ' [ ' [ ' ' ' ' ' [ ' ' ' [ ' ' [ ' _ ^ A Z M Z Z Z Z Z Z A A A A E ` [ [       ",
"  ( ( _ E Z A A T T T T V T V A A A E ^ _ ' ' ' ' ' _ ' ' ' ' ' ' ' ' ' ' _ ' _ ' ' ' _ ' ( W A Z Z Z Z Z Z A Z A A ) [ [       ",
"  ( ( ( A Z A V V T I I T A T T E ( _ _ _ _ _ _ _ _ _ _ _ _ _ _ _ _ _ _ _ _ _ _ _ _ _ _ _ _ _ _ ( E A A Z Z Z A A N ^ ` [       ",
"  ^ ( E Z Z Z A A T T T T ^ ^ ( _ ( ( ( ( ( _ ( ( ( ( ( ( ( ( ( ( ( ( ( ( ( ( _ ( ( ( ( ( ( ( ( ( ( ( ( W A n n n v V ` ` '     ",
"  ^ ( T M M Z Z Z c l E ^ ( ( ( ( ( ( ( ( ( ( ( ( ( ( ( ( ( ( ( ( ( ( ( ( ( ^ ( ( ( ( ( ( ( ( ( ( ^ ( ( ^ y d v v v N ) [ `     ",
"W W ^ Z M M M Z Z 2 o b ( ^ ^ ^ ^ ^ ^ ^ ^ ^ ^ W ^ ^ ^ ^ ^ ^ ^ W ^ ^ ^ ^ ^ ^ ^ ^ ^ ^ ^ W ^ ^ ^ ^ ^ ^ ^ ^ l e v v v v n ~ [ '     ",
"W W W Z M M M Z Z c # & A ^ W W W W ^ W W ^ W W W ^ W W ^ W W W W W W W ^ W W W W W W W W W W W W W W N 5 g v v v v c E ' '     ",
"W W R m m M M M Z Z u o 2 T W W W W W W W W W W W W W W W W R W W R W W W W W W W W R W W W W W W W R e y h v h v v v I ' '     ",
"W W R m m m m M M Z Z e X t W W W W W W W W W R W W W W W W W W W W W R W W W W W W W W W R W W W W u r v h h v h v v A _ '     ",
"W W A m m m m M M M Z n 2 o c W W W W W W W W W W W W W R W W W W W W W W W W W W R W W W W W R W N 6 h h h h h h v h V _ '     ",
"W W R m j m m m m M M Z n & % N W W W W W W W W W W W W W W R W W R W W R W W W W W W W W W W W T e s h h h v h v h v N _ _     ",
"W W A m m j j m M m M M Z g o 2 R W W W W W W W W W R W W W W W W W W R W W R W W W W R W W W W u r h h h h h h h h h N _ _     ",
"W W R m j j m m m m M M M M y o y W W W W W W W R W W W R W W W R W W W W W W W W W W W W W W n 6 h h f f h h h h v v N ( _     ",
"W W R m j m j j j m m M M M M 2 o n W W W W W W W W R W W W W W W W W W W W R W W W W W R W A 7 f f f f h h f h h h h A ( (     ",
"R W W M j j m j j m m m m M M v # = A W W W W W W W W W W W W W W W W R W W W W W W W W W W h a f f f h f h h h h h c V _ _     ",
"R W W M m j j m m m j m j j m m r . t ^ W ^ W W W W ^ W W ^ W ^ W ^ ^ W W W ^ ^ W ^ W ^ ^ W v f f f f f h f h h h h v T ( (     ",
"  W W Z j m m j j j j h j f f j h $ 2 ^ ( ^ ( ( ^ ( ( ( ( ( ( ( ( ^ ( ( ^ ( ^ ( ( ( ( ( ( ( n f f f f f f h f h f h v E ( (     ",
"  W W A m j j f f f f f f f f j v , < ( ( _ ( _ _ _ ( _ _ ( _ _ _ _ ( _ _ ( _ _ ( _ _ _ _ ( n f f f f f f f h h h h n E ( (     ",
"  W W A j f f f f f f f f f f f h 1 - _ ' ' ' _ ' _ ' ' _ ' ' _ ' ' ' ' ' ' ' ' ' ' ' ' ' ' n f f f f f f f f f h f N ^ (       ",
"  W W W j f f f f f f f f f f f h 1 = ` [ [ ] ] [ [ [ ] [ [ [ [ [ [ [ [ ] ] ] [ [ [ [ [ [ [ n h f f f f f f f f f h A ^ (       ",
"    W W M f f f f f f f f s f f f 3 & ` [ { {  .{ { { [  .{ { { { {  .{ { { {  .{ { {  . .[ Z f h h h f f f f f f v E ^ ^       ",
"    W W A h f f f f f f f f f f f 5 $ }  . . . . . . . . . . . . . . . ...................| Z h h f f f f f f f f Z W ^         ",
"      W W m f f s f f f f f s f f 7 # +.#.#.#.#.#.#.#.#.#.#.#.#.#.#.#.@.$.$.$.$.#.$.@.$.$.@.C h h h h h f f f f h A ^ W         ",
"      W W A f f f f f f f f f f f 7 + X.&.&.&.&.&.&.&.&.&.*.&.&.*.*.*.*.*.*.*.*.*.*.*.*.*.%.C h h h h h f f f f n W W           ",
"      W W W M f f f f s f f f f f 7 + O.4.4.4.4.4.4.4.4.6.6.5.3.o.O.3.6.6.6.6.6.6.6.6.6.6.5.S h h h h h h f h h A W W           ",
"        W W A j f f f f f f f f f a O <.0.9.9.0.0.0.0.9.1.L F 8 1 * : F P 1.7.0.0.0.0.r.0.9.D h h h h h h h h Z W W             ",
"          W W Z f f f f f s f f f a O >.y.y.y.r.8.,.K q 3 6 y c v c u 4 - * > G =.2.e.y.y.r.D v v h h h f h n W ^ ^             ",
"          W W R M f f f f f f f f a O :.u.w.-.J 9 5 7 f h v v v v n n N N c u 4 , * > H :.q.D v h h h h h v T ^ ^               ",
"            R W R v f f f f f s f a O w G 9 7 7 f j j j h v v v v v n b b n N n n c y 4 , , u v v v h c v T ( ^                 ",
"              W W A j f f f f f f f 5 7 a f f f f f f f h h h v v n v n n n N b n n n n v c c v v h v v I ( ( (                 ",
"                W W A m f f f f f f s f f f f f f f f h h h h h c v v n n n n n b n n n v n v v v v n I ( ( (                   ",
"                W W W A j f f f f f f f s f f f f f f f f f h h h v v v n n n b N b n n n n v v v N E ) ( (                     ",
"                  W W W A m f f f f f f f f f f f f f f f f h h h h v v v v n n n N N n n b n n N Q _ _ _                       ",
"                    R W W R M h f f f f f f f f f f f f f f f h h h h v v v c n n n n N n n N I / ' ' _                         ",
"                        W W W A j f f s f f f f f f f f f f f h h h h h v v v n n n n b N V Q ` [ ` '                           ",
"                          W W W R Z h f f f f f f f f f f f f f h h h h h v v v v n b V Q ` [ [ [                               ",
"                            R W W W R Z m h f f f f f f f f f f f f h h h h v v n V E ) [ { [ [                                 ",
"                                W W W W R A Z v f f f f f f f f f f h h h v n V ^ ) ' [ [ {                                     ",
"                                    R W W W W W A A M M m h v v v v n Z T E / ( _ _ _ `                                         ",
"                                          W W W W W W W R R R R R R W W ^ ^ ( ( ( _                                             ",
"                                                W W W W W W W W W W W W W ^                                                     ",
"                                                                                                                                ",
"                                                                                                                                "
};
