/* XPM */
static char *coin02_resized[] = {
/* columns rows colors chars-per-pixel */
"64 64 89 1 ",
"  c None",
". c #BF6815",
"X c #C06406",
"o c #CE6C03",
"O c #C0650C",
"+ c #C57000",
"@ c #CA7500",
"# c #CB7900",
"$ c #CE7B0D",
"% c #D37800",
"& c #DB7C02",
"* c #D37C0F",
"= c #CC7A1D",
"- c #D38300",
"; c #DC8501",
": c #DA8A00",
"> c #DB9400",
", c #D79907",
"< c #DB9B00",
"1 c #D7970E",
"2 c #C9801B",
"3 c #D48C1C",
"4 c #D69514",
"5 c #DE9711",
"6 c #D59018",
"7 c #E58A00",
"8 c #E98D00",
"9 c #E39300",
"0 c #ED9500",
"q c #E49A00",
"w c #EC9B00",
"e c #F09700",
"r c #F09B00",
"t c #D4AA00",
"y c #D9AE00",
"u c #DDB100",
"i c #E7A100",
"p c #ECA300",
"a c #E7AC00",
"s c #ECAB00",
"d c #F5A400",
"f c #F6AC00",
"g c #E2B500",
"h c #EEB200",
"j c #E6B900",
"k c #EBBC00",
"l c #F5B400",
"z c #F8B400",
"x c #F3BB00",
"c c #F8BB00",
"v c #CC8927",
"b c #D28A22",
"n c #D29523",
"m c #D29939",
"M c #DDAE38",
"N c #EDC100",
"B c #F4C300",
"V c #F9C600",
"C c #F4CB00",
"Z c #FECC00",
"A c #F3C20B",
"S c #F4D500",
"D c #FDD400",
"F c #F5DA00",
"G c #FDDC00",
"H c #F2C214",
"J c #F1C21B",
"K c #F6E200",
"L c #FDE400",
"P c #F7EB00",
"I c #FDEC00",
"U c #FCF400",
"Y c #FDFC01",
"T c #FEFE13",
"R c #F0C223",
"E c #F0C12B",
"W c #E7CA3E",
"Q c #FEFD23",
"! c #FDFD34",
"~ c #DAA846",
"^ c #F0DD46",
"/ c #EDD853",
"( c #ECD75D",
") c #FDFD44",
"_ c #FDFC55",
"` c #F8F15F",
"' c #EFE167",
"] c #FCFC65",
"[ c #FAF873",
/* pixels */
"                            ZZZZZZZZGLII                        ",
"                         ZZZZZZZZZDGLLLIPU                      ",
"                       ZZZZZZZZZZDGGLGKLPIU                     ",
"                      ZZZZZZZZZDDDDDVBBCSKUUU                   ",
"                     ZZZZZDZZZZZDZczflllkBFUY                   ",
"                    ZZZZZZZZZZZZZzfflllllxxSUY                  ",
"                   ZZZZZZZZZZDDZfdffflllhxxxFUU                 ",
"                  ZZZZZDZZZZZDDzdddfffflllxkNKUU                ",
"                  ZZZZZZZZZZDGVfddffffzzzlxkkCIY                ",
"                 ZZZZZZZZZZZGDzfddddffflzlllxxFYY               ",
"                ZZZZZZZZZDZDLZfffddddfllzlxxxxNPY               ",
"                ZZZZZZZZZZZGLxlfddddfpCxlzlhkxxSU               ",
"               ZZZZZZZZZZZDIDzlffdddddUDlllxxkxCPY              ",
"               ZZDZZZZZZZZGIVzffffdddxYIllllllxxKY              ",
"               ZZZZZZZZZZZILcxllzdddrSYYBlllxxxxCU              ",
"              ZZZZZZZZZZZDUSxzllfffdpUYYGflzlhkxkPY             ",
"              ZZZZZZZZZZZGUCxxzzlffdkYYYUxfllxxxxFY             ",
"              ZZZZZZZZZZZIUVxcxzlffwFYYYYZlllhlxxCU             ",
"             ZZZZZZZZZZZCIIBcxczlffaYYYYYIlllllkkBPY            ",
"             ZZZZZZZZZZZZIGBBcxclzfNYYYYYUxllllhxkKU            ",
"             ZZZZZZZZZZVDISBVxcxzlpKYYYYYYGlllllxxFU            ",
"             ZZZZZZZZZVVDLVVVVxczzCUUUUUUUUDlllllxCU            ",
"             ZZZZZZZZZVBSLxBVBcxxDUUIUUIUIIUScllhxBP            ",
"            ZZZZZZZZVVCBGDxBVBxVGIIIIIIIIIIIIGBhlkBI            ",
"            ZZZZZZZZCVVBSZxxVVCGLLLLLLLLLLLLLLKZxlhKU           ",
"            ZZZZZZZZVVBBDVcxxZGLLGLGLGLLLGLGGLGGCpsFP           ",
"            ZZZZZZZVVBBNDczltDGGGGGGDGGGDGGGGGDGaqiSU           ",
"            ZZZZZZCVVBkBZxlf+xDDDDDDDDDDDDDDDDDZ<wpCI           ",
"            ZZZZZVVBBNBBZzfz&>DZDZDZZDZZDZDZZDZx>ppBP           ",
"            ZZZZZVVVBBkkZlfzq#ZZZZZZZZZZZZZZZZZp9wiBI           ",
"            ZZZZVVBBNBkBVffzl+hZZZZZZZZZZZZZZZVqwpixL           ",
"            ZZZZVVBNNkkNVfdfl->ZZZZDZZZZZZZZZZV>wwwkI           ",
"            ZZZVVBBBBkjNVfdflq@VZZZZZZZZZZZZZZs9wwixL           ",
"            ZZVVBBBkkkjkZddffl@sZZZZZZZZZZZZZZwqwwwhK           ",
"            ZCCVBNBkkjjkVfrdfl:>ZZZZZZZZZZZZZV9wwwilK           ",
"            ZVVVBBNkkjjkVfddffw#ZZZZZZDZZZZZDl80wwwkG           ",
"            VVBBNBkkjjgjZfdddff@lZZZZZZZZZZZZs800wwxF           ",
"            VVBNkkkjjggjVfdddff%qDZDDDDDDDDDDf000qwkG           ",
"            BBBNNkkjjgggVzddrrr;<GGGGGGGGGGGGl0900wxF           ",
"            BBBBkkjjjuagVzdr0ew7<LGLLLLLILLLLl000qwBG           ",
"            BBBkkjjjguuyBxe00ee7<IIIIIIIIIIIUx0000qV            ",
"            NxkkkjgggguyBz0e00e7<UUUYUUYUYUUUx00q0wC            ",
"             NkkkjggguyykV00e0e7<YYYYYYYYTYYYBq008pZ            ",
"             kkkjggguyyyjVr00ee7,TTTTTTTTTTTTA0w00sZ            ",
"             kkjggggyyytuZp000e71QQQQQQQQQQQQH0000sZ            ",
"             kjjgguuyyttyVf000e74!!!!!!!!!!!!Hqw90xC            ",
"              jggguyyytttBze00e86))!)))))))))JqwwwV             ",
"              ggguuytyttthVe00e83____^n2^`___RwwwpV             ",
"              gguuuytttttuZpe0e83]]`M$:-Xv(]]RwwwhZ             ",
"               uuyyytttttyVl0008b[(b-pfls-Om'EiwwVD             ",
"               uuyytttttttkVw008=~*8pdpshhi#O5ppsD              ",
"               uuyttttttttgVd000o&0wwpdshhhsqqpiBS              ",
"                yyttttttttyVx0000000rpdsshhsspisSS              ",
"                tttttttttttkVd0000e00rppslhsssskG               ",
"                 ttttttttttuZz000e000wppsshsashFL               ",
"                 tttttttttttkZd0000eewrpdssgsaCL                ",
"                  ttttttttttuZxwe800ee0wpssshNPI                ",
"                   ttttttttttkZleee000wripsskKU                 ",
"                    tttttttttyVZfw0000ewqpshKYP                 ",
"                    ttttttttttgZZfwe0000wwhSUU                  ",
"                     ttttttttttjZZxdwe00ilSIU                   ",
"                       tttttttttjZZVclslVSKL                    ",
"                        tttttttttgVZZZZZZSG                     ",
"                          ttttttttykCZZVZ                       "
};
