/* XPM */
static char *coin04_resized[] = {
/* columns rows colors chars-per-pixel */
"64 64 131 2 ",
"   c None",
".  c #AF4C00",
"X  c #B24600",
"o  c #B04E00",
"O  c #B55600",
"+  c #B95000",
"@  c #B65800",
"#  c #BC5E03",
"$  c #B6520D",
"%  c #BA5C11",
"&  c #BE630F",
"*  c #BD6612",
"=  c #C15B01",
"-  c #C36201",
";  c #CA6500",
":  c #C56D00",
">  c #CC6B00",
",  c #C06108",
"<  c #D16D00",
"1  c #C67100",
"2  c #CD7402",
"3  c #CB7900",
"4  c #C3740F",
"5  c #CC7508",
"6  c #C67B0B",
"7  c #D67300",
"8  c #D47C00",
"9  c #DD7D00",
"0  c #D17609",
"q  c #C06D14",
"w  c #C16C1C",
"e  c #C37112",
"r  c #C87F1C",
"t  c #C77D25",
"y  c #C98306",
"u  c #CD8A01",
"i  c #D38200",
"p  c #DB8300",
"a  c #D08F00",
"s  c #DB8A00",
"d  c #D59400",
"f  c #DC9300",
"g  c #DE9B00",
"h  c #CE821B",
"j  c #CF8D1E",
"k  c #E18300",
"l  c #E38A00",
"z  c #E98C00",
"x  c #E19300",
"c  c #ED9500",
"v  c #E49900",
"b  c #EC9C00",
"n  c #F09600",
"m  c #F19C00",
"M  c #DCA100",
"N  c #D4AA00",
"B  c #DAAE00",
"V  c #DDB100",
"C  c #E2A000",
"Z  c #ECA300",
"A  c #EDAC00",
"S  c #F6A400",
"D  c #F6AC00",
"F  c #E3B600",
"G  c #EDB200",
"H  c #E6B900",
"J  c #ECBD00",
"K  c #F5B400",
"L  c #F8B500",
"P  c #F4BB00",
"I  c #F8BD00",
"U  c #D08424",
"Y  c #D48F24",
"T  c #D0932D",
"R  c #D9A633",
"E  c #DAAC30",
"W  c #DAA93D",
"Q  c #DDB232",
"!  c #E7C700",
"~  c #EEC400",
"^  c #EFC800",
"/  c #F5C300",
"(  c #FAC500",
")  c #F4CC00",
"_  c #FECC00",
"`  c #EDD000",
"'  c #EFDA00",
"]  c #F4D200",
"[  c #FDD300",
"{  c #F4DB00",
"}  c #FEDC00",
"|  c #F5E200",
" . c #FDE400",
".. c #F7EA00",
"X. c #FDEC00",
"o. c #FAE60F",
"O. c #F7F700",
"+. c #FCF400",
"@. c #FDFC01",
"#. c #F9E61B",
"$. c #FEFE13",
"%. c #F9E628",
"&. c #FDFD23",
"*. c #F9E634",
"=. c #FDFD33",
"-. c #D8A842",
";. c #DCAC49",
":. c #E1BD59",
">. c #E3C045",
",. c #ECD643",
"<. c #EDD944",
"1. c #EAD34E",
"2. c #EBD45D",
"3. c #F9E641",
"4. c #F8E64C",
"5. c #FAF540",
"6. c #FDFD44",
"7. c #F8F34F",
"8. c #F8E457",
"9. c #F2E559",
"0. c #F6EE5C",
"q. c #F8F351",
"w. c #FDFD55",
"e. c #F8F35F",
"r. c #FCFE58",
"t. c #F4EA69",
"y. c #FCFD64",
"u. c #FDFE68",
"i. c #F7F171",
"p. c #F8F570",
"a. c #FDFF76",
/* pixels */
"                                                    ..| .. . . .} [ _ ) ( /                                                     ",
"                                            O.X.X.X.X... .X. . . . .} } [ _ _ _ ( _ _                                           ",
"                                      +.+.+...+.X..... . .}  .} } }  .} } } [ _ _ _ _ _ _ _                                     ",
"                                  +.O.O.+...| { ] ) ) ( / / / ( ( ) _ [ [ } [ [ [ _ _ _ _ _ _ _                                 ",
"                              O.O.O.+.| { ) ) I I P I K L K K D D K K L I ( _ [ [ _ _ _ _ _ _ _ _ _                             ",
"                          O.+.+.O...{ ) ~ P P P I K P K K K K L L D D D D D K I _ _ _ [ _ _ _ _ _ _ _                           ",
"                        @.O.O.O.| ) P P P P P I K K K K L K D D D D D D D S S D D I _ [ [ [ _ _ _ _ _ _                         ",
"                      O.@.+...] ~ P J P P P L P P L K L K D K D D D D S D S S S S S L _ [ } } _ _ _ _ _ _                       ",
"                    O.O.+...^ ~ P J P P P I P L K K K K L D D D D D S D S S S S S S D L _ [ } } [ _ _ _ _ _                     ",
"                  +.+.O.| ^ J P J P P P P K P L K K K D D L D D D D S S S S S S S S S D K _ }  .} [ _ _ _ _ _                   ",
"                O.@.+.| ) J P P P I P P P P K K K L K K P D D D D D D S S S S S S D D L D K )  . . ._ _ _ _ _ _                 ",
"              O.O.O.| ) P P J P I P P P K K K K K K D [ ..v S D S S S S S S S S D S D D D K K [  .X. .[ _ _ _ _ _               ",
"            O.@.+.| ) P J J P P K P K K P K K K D D ( +.@.` v D S S S S S S S D D D D L D L L I }  .X.} _ _ _ _ _ _             ",
"            O.O.O.) J J P P P P P P P K K K K K K K X.@.@.@.F b D S S S S S S D D D D D K K K K /  .X.+.[ _ _ _ _ _             ",
"          +.O.+.` P P P P P P P K P K K K K K D K  .@.@.@.@.O.g m S S S S D D D D L D L L K L K P _ X.+.X.[ _ _ _ _ _           ",
"          +.O.{ ) J J P G P P P P P K P K D K D [ @.@.@.@.@.@.{ x S S S S S D D L D L L K K P I I / } +.+. ._ _ _ _ _           ",
"        O.+.O.) J P P G P P P P K K K K D K D / @.@.@.@.@.@.@.@.H c D S D D D D K L K L K K P P P I ) X.@.+.[ _ _ _ _ _         ",
"        O.@.{ J P P J P P K K P K K K K K D P +.@.@.@.@.@.@.@.@.O.M b D D D L D K K K K I P P I I / / { @.@. ._ _ _ _ _         ",
"      +.O...) P P J P G P K P K K K K K K K  .@.@.@.@.@.@.@.@.@.@.| f S D D D K K L L K P P I / I I / _ +.@.X.[ _ _ _ _ _       ",
"      +.+.{ P G G P G P K P K K K K K D D [ @.@.@.@.@.@.@.@.@.@.@.@.! v D D K K K K P L P I P I / / / )  .+.+.} _ _ _ _ _       ",
"    O.O...^ P J P G P K K K K K K K K D ) @.@.@.@.@.@.@.@.@.@.@.@.@.@.B v D L L K L P P I P / I / / ( / ) +.+. ._ _ _ _ _ _     ",
"    +.+.{ P J P G K P P K K K K D K (  .+.+.+.+.@.+.+.+.+.+.+.@.@.+.+.X.) I K K L P P I I I / / / / / / / } X. .[ _ _ _ _ _     ",
"    +...] P P K P G K P K K K / [  .X.X.+.X.+.X.+.X.+.X.+.+.+.X.X.+.+.X.+.X.[ / P P I P I / / / / ( / / I _  . .[ _ _ _ _ _     ",
"  O.+...~ G P G G G K P I _ }  .X...X.X.X.X.X.X.X. .X.X.X.X.X.X.X.X.X.X.X.X.X. .} _ / I I / / / ) / I I P /  . .} _ _ _ _ _     ",
"  O.X.{ F G G J P P / [  . . . . . . . . . . . . . . . . . . . . . . . . . . .X. . . .[ _ / ) / / / I I K P [  .[ _ _ _ _ _ _   ",
"  X.X.^ Z Z Z Z G }  .} } } }  .} } }  . .}  .}  .} }  . .}  .} }  . .}  .}  .} }  . .} } [ _ / / I I K K K _ } [ _ _ _ _ _ _   ",
"  ....J C Z Z v i ] } [ } } [ } [ } } } } [ } } } } } } } } } } } } } } } } } } } } } } } } } J y A I K K K I [ [ _ _ _ _ _ _   ",
"  +.| G Z Z Z Z p v [ [ [ [ [ [ [ [ [ [ [ [ [ [ [ [ [ [ [ [ [ [ [ [ [ [ [ [ [ [ [ [ [ [ [ [ [ 3 O Z K L K D I _ [ _ _ _ _ _ _   ",
"..X.{ A Z Z Z Z v i J _ _ _ _ [ _ [ _ _ [ _ [ _ _ _ _ [ _ _ [ _ _ [ _ [ _ _ [ _ [ _ _ [ _ _ g o p K K D D D L _ _ _ ) ( _ _ _   ",
"....{ A Z Z Z v b x s _ _ _ _ _ _ _ _ _ _ _ _ _ _ _ _ _ _ _ _ _ _ _ _ _ _ _ _ _ _ _ _ _ _ P O : K P K D D D D ( _ _ ( _ _ _ _ _ ",
"....) Z v Z Z Z b Z p Z _ _ _ _ _ _ _ _ _ _ _ _ _ _ _ _ _ _ _ _ _ _ _ _ _ _ _ _ _ _ _ _ _ 1 O Z K K K D D S S ( _ _ ( _ _ ( _ ( ",
".. .) Z Z v v b b Z v p ( _ _ _ _ _ _ _ _ _ _ _ _ _ _ _ _ _ _ _ _ _ _ _ _ _ _ _ _ _ _ _ f . f L K D D D S S S ( _ _ / _ ( _ _ _ ",
"....^ Z Z b b b b b Z l f _ _ _ _ _ _ _ _ _ _ _ _ _ _ _ _ _ _ _ _ _ _ _ _ _ _ _ _ _ _ G O 3 K K D D D S S S S I _ _ / _ / _ _ / ",
" .| ^ Z v Z b b b b m b p P _ _ _ _ _ _ _ _ _ _ _ _ _ _ _ _ _ _ _ _ _ _ _ _ _ _ _ _ ( 1 @ A L K D D S S S S S ( _ _ / _ _ ( ( _ ",
"} | ) Z b Z v b v b n n c s _ _ _ _ _ _ _ _ _ _ _ _ _ _ _ _ _ _ _ _ _ _ _ [ _ _ _ _ f o v L D D D S S S S S S ( _ ( / / / / ) ( ",
"{ } ) Z b v b b v b b b c p Z _ _ _ _ _ _ _ _ _ _ _ _ _ _ _ _ _ _ _ _ _ _ _ _ _ _ P @ 3 D K D D D S S S S S S ( _ _ / / / _ (   ",
"{  .] Z b b v v b b b c n c s ( _ _ [ _ _ _ _ _ _ _ _ _ _ _ _ _ _ _ _ _ _ _ _ _ _ 3 O Z L D D D S S S S m S D ( _ _ ~ / _ / _   ",
"  } ] A b v b c c c c n c c b ( [ [ [ [ [ [ [ [ [ [ [ [ [ _ [ [ [ [ [ _ [ [ [ [ A X 8 D S D S S S S S S S S D _ _ / P / / / /   ",
"  } ] G b b v c c c b n c n b ) } } } } } } } } } } } } } } } } } } } } [ } } } g + v Z b m n m m S S S S S L _ _ / / / / / /   ",
"  { } G v v c c v c c c n b b [  . . . . . . . . . . . . . . . . . . . . . . . .d = m m b n n c n m m m m S I _ _ ~ ~ / / / /   ",
"  [ } P v v c c v c c c c c Z } +.X.X.X.X.X.X.X.X.X.X.X.X.X.X.X.X.X.X.X.X.X.X.X.d = m m n n n n c n n n n S ( _ ( J / J / / J   ",
"  ] [ ) Z c c v z c c c b b b  .@.+.+.@.@.+.+.@.+.@.+.@.+.+.@.+.+.+.+.+.+.+.+.@.a = m b n n c n c c n c n m ( _ ( J J / / /     ",
"    [ ] A c c x c c c b b m Z | @.@.$.@.@.$.@.@.@.@.@.@.@.$.@.@.@.@.@.@.@.@.@.+.u ; b c n z c n c c n n n D _ _ / J J J ~ P     ",
"    ] [ P x c c x c c n b n S o.$.$.$.$.$.$.$.$.$.$.$.$.$.$.$.$.$.$.$.$.$.$.$.$.y ; n n c c c n n c n c c I _ _ J J J ~ J ~     ",
"    ) _ I v c c c v c n b b Z %.&.&.&.&.&.&.&.&.&.&.&.&.&.&.&.&.&.&.$.&.&.&.&.&.6 > n c c n c c c n n c m ( _ / H J J J P       ",
"      ) ) A z c c c v v Z Z S %.=.=.=.=.=.=.=.=.=.=.=.=.=.=.=.=.=.=.=.=.=.=.=.=.4 < n c c c n c c n n n K _ _ J H J J J ~       ",
"      _ _ P b c c b v v b S Z *.w.6.6.6.6.6.6.w.6.6.7.=.6.6.6.6.6.6.6.6.6.6.6.=.q 7 n c c c c c n n z m ( _ / J H J H J J       ",
"        ) _ A v v b b b b Z Z 3.r.r.r.w.r.w.w.7.,.E r e j Q <.q.w.w.w.w.w.w.w.7.* 7 n n n c n c n n n D _ _ J F H H J J         ",
"        ) _ / Z v b b b Z Z Z 4.u.u.u.y.9.:.T q & : i f f p 5 h R 1.y.y.y.y.y.t.% 7 n n c c c n n c S / _ / H F H H J H         ",
"          [ [ J Z b v Z v Z D 8.i.2.-.t & - 8 d A A K G D A Z v p 0 r W 2.p.a.t.% 9 n c c n c c n c L _ _ J F F F H H           ",
"          ] [ ] G b Z v v Z Z T * & : s Z A G G G D A A Z Z Z Z m b c p 0 U ;.:.$ k n c n c c c c D _ _ / V F F F H F           ",
"            ] } ] A b Z Z Z Z s v Z A G G G G G G A A A S Z Z S m b n n n z 9 < = z c n c c n c Z ( _ ( F V V F F F             ",
"              } } ) A Z Z Z A A A A G A G G G G A A A S Z Z m b b b n c n c n n z c n c c c c Z / _ _ H V V V F F               ",
"                } | ^ A Z Z C Z A G G G G G G A A A Z Z Z Z Z n n c c n c c c c n n n c n c m I _ _ H B V V V V                 ",
"                { |  .] G Z A A A A G G G G A D A Z Z Z m m b b n c c c n c n c n c c c c b I _ _ J B B V V V V                 ",
"                  | ..| { F F A A G G G K A A A S Z Z S b b b n c c c n c c c c c c n c S / _ _ / B B B B B V                   ",
"                    ....X.| ^ F A A F A G A A Z Z Z Z m n b c c c n c c c c c n c c c D / _ _ J B N N B B B                     ",
"                      ..X.+...] ~ G A A A A A S Z S b b b c c c c c n c n c n z c Z K _ _ _ J N N N N B B                       ",
"                          O.+.+...^ J A Z Z Z Z b S m b n c c c c c c c c c n n D / _ _ ( H N N N N N N                         ",
"                            O.@.O.O.{ ^ F Z Z Z b b b c n c c c n c n c b S D / _ _ _ / V N N N N N                             ",
"                                +.X...| { ) J A Z Z b c c c c c n b Z D K ( _ _ _ / H B N N N N N                               ",
"                                    .. .} { [ ] / I K K K A K P I / ( _ _ _ _ _ H B N N N N N                                   ",
"                                        { } [ [ ] _ _ _ _ _ _ _ _ _ _ _ / J F B N N N N                                         ",
"                                              ) _ / _ / _ _ _ _ _ / ~ F V N N N N                                               "
};
