/* XPM */
static char *coin03_resized[] = {
/* columns rows colors chars-per-pixel */
"64 64 53 1 ",
"  c None",
". c #D2A800",
"X c #D2A900",
"o c #D3A900",
"O c #D4AA00",
"+ c #D5AB00",
"@ c #D6AC00",
"# c #D7AC00",
"$ c #D9AE00",
"% c #DBB000",
"& c #DCB000",
"* c #DEB200",
"= c #E0B400",
"- c #E1B400",
"; c #E2B500",
": c #E2B600",
"> c #E3B600",
", c #E5B700",
"< c #E6B800",
"1 c #E7B900",
"2 c #E8BA00",
"3 c #E9BB00",
"4 c #EBBC00",
"5 c #EBBD00",
"6 c #ECBD00",
"7 c #EDBE00",
"8 c #EEBF00",
"9 c #F0C000",
"0 c #F0C100",
"q c #F2C200",
"w c #F2C300",
"e c #F3C300",
"r c #F4C400",
"t c #F5C400",
"y c #F5C500",
"u c #F7C500",
"i c #F7C600",
"p c #F8C700",
"a c #F9C700",
"s c #F9C800",
"d c #FAC800",
"f c #FBC800",
"g c #FAC900",
"h c #FBC900",
"j c #FBCA00",
"k c #FCC900",
"l c #FCCA00",
"z c #FDCA00",
"x c #FCCB00",
"c c #FDCB00",
"v c #FECB00",
"b c #FECC00",
"n c #FFCC00",
/* pixels */
"                           x                                    ",
"                          cccccccccx                            ",
"                          vccccccccc                            ",
"                         lvcccccccccg                           ",
"                         zvccccccccch                           ",
"                         zvcccccccccj                           ",
"                         vvcccccccccl                           ",
"                         vvcccccccccl                           ",
"                         vvcccccccccl                           ",
"                         vvcccccccccx                           ",
"                         vvcccccccccx                           ",
"                         bvcccccccccx                           ",
"                         vvcccccccccx                           ",
"                         bvcccccccccx                           ",
"                         bvcccccccccc                           ",
"                         bvcccccccccx                           ",
"                         nvcccccccccc                           ",
"                         nvcccccccccc                           ",
"                         nvcccccccccc                           ",
"                         nvcccccccccc                           ",
"                         nvcccccccccc                           ",
"                         nvcccccccccc                           ",
"                         nvccccccccccj                          ",
"                        fnvccccccccccs                          ",
"                        dnvccccccccccp                          ",
"                        znvccccccccccl                          ",
"                        znvcccccccccch                          ",
"                        znvccccccccccg                          ",
"                        znvccccccccccg                          ",
"                        vnvccccccccccj                          ",
"                        vnvccccccccccl                          ",
"                        bnvccccccccccx                          ",
"                        nnvccccccccccx                          ",
"                        vnvccccccccccl                          ",
"                        vnvccccccccccj                          ",
"                        znvccccccccccg                          ",
"                        znvccccccccccg                          ",
"                        cnvcccccccccch                          ",
"                        vnvccccccccccj                          ",
"                        dncccccccccccp                          ",
"                        fvlllllllllllp                          ",
"                         kssssssssssss                          ",
"                         aiiiiiiiiiii                           ",
"                         uttttttttyty                           ",
"                         rwwwwwweeewe                           ",
"                         q00000000000                           ",
"                         988888888888                           ",
"                         766666666656                           ",
"                         433333333333                           ",
"                         211111111111                           ",
"                         <,,,,,,,,,,,                           ",
"                         >;:::::::::;                           ",
"                         -===========                           ",
"                         ************                           ",
"                         &%%%%%%&&&%%                           ",
"                         $$$$$$$$$$$$                           ",
"                         @##########@                           ",
"                         O++++++++++O                           ",
"                         XOOOOOOOOOOo                           ",
"                         XOOOOOOOOOOX                           ",
"                         .OOOOOOOOOO.                           ",
"                          OOOOOOOOOO                            ",
"                          OOOOOOOOOO                            ",
"                           oooooooo                             "
};
