/* XPM */
static char *enemy1_resized[] = {
/* columns rows colors chars-per-pixel */
"64 64 215 2 ",
"   c #010001",
".  c #02010C",
"X  c #0A020C",
"o  c #0B0C0D",
"O  c #030A02",
"+  c #190D00",
"@  c #030213",
"#  c #090615",
"$  c #0A0916",
"%  c #070618",
"&  c #080718",
"*  c #0C0B1A",
"=  c #120515",
"-  c #15041A",
";  c #120E1B",
":  c #190B1D",
">  c #16081A",
",  c #12111E",
"<  c #151516",
"1  c #0D1409",
"2  c #301800",
"3  c #230F1C",
"4  c #1A2315",
"5  c #1C0422",
"6  c #1E0B22",
"7  c #151522",
"8  c #1A1924",
"9  c #1D1D29",
"0  c #1E1122",
"q  c #24052C",
"w  c #230A2A",
"e  c #2A152E",
"r  c #231526",
"t  c #2A0633",
"y  c #2C0A34",
"u  c #310A3B",
"i  c #32063E",
"p  c #2D1832",
"a  c #331939",
"s  c #232429",
"d  c #2A2A34",
"f  c #36383B",
"g  c #2F3833",
"h  c #213715",
"j  c #4E2600",
"k  c #743900",
"l  c #603004",
"z  c #6D3935",
"x  c #2D752D",
"c  c #5F5832",
"v  c #390B45",
"b  c #3A1444",
"n  c #3C2542",
"m  c #3B3E41",
"M  c #42154D",
"N  c #480D57",
"B  c #4A1757",
"V  c #501B5E",
"C  c #400E4C",
"Z  c #44254C",
"A  c #4F2756",
"S  c #5A0E6D",
"D  c #581768",
"F  c #5E1372",
"G  c #4F0F60",
"H  c #66177A",
"J  c #582565",
"K  c #5E3C66",
"L  c #613768",
"P  c #642475",
"I  c #693875",
"U  c #713F7D",
"Y  c #6B374C",
"T  c #2B734E",
"R  c #4E4E53",
"E  c #6F467A",
"W  c #646D6C",
"Q  c #6F7678",
"!  c #565461",
"~  c #9A4C00",
"^  c #884610",
"/  c #B25600",
"(  c #B05804",
")  c #9E5526",
"_  c #D96B00",
"`  c #37BE1B",
"'  c #20B31F",
"]  c #12AB35",
"[  c #32BC20",
"{  c #548432",
"}  c #689637",
"|  c #73A339",
" . c #55CB15",
".. c #4AC51B",
"X. c #6CD416",
"o. c #6FD22C",
"O. c #17AA48",
"+. c #2EB463",
"@. c #77B244",
"#. c #45B87C",
"$. c #5D8747",
"%. c #A8EC1A",
"&. c #B0EF19",
"*. c #87DC2D",
"=. c #8BDD34",
"-. c #9AE525",
";. c #9EE733",
":. c #93E422",
">. c #8BD649",
",. c #9CE94C",
"<. c #8AE550",
"1. c #AAF544",
"2. c #A0ED44",
"3. c #6D1B82",
"4. c #711E86",
"5. c #721F88",
"6. c #6E2282",
"7. c #732386",
"8. c #75248A",
"9. c #79278E",
"0. c #762A89",
"q. c #792C8D",
"w. c #722D85",
"e. c #7A348D",
"r. c #79388A",
"t. c #7D2C92",
"y. c #7E3291",
"u. c #7F3A92",
"i. c #764382",
"p. c #812E96",
"a. c #823596",
"s. c #813994",
"d. c #843399",
"f. c #863A9A",
"g. c #893D9D",
"h. c #88369C",
"j. c #8D3CA1",
"k. c #913EA6",
"l. c #89469A",
"z. c #83518F",
"x. c #8E41A2",
"c. c #9145A5",
"v. c #9445A9",
"b. c #9649AA",
"n. c #9A4EAE",
"m. c #9349A6",
"M. c #9C50AF",
"N. c #955DA3",
"B. c #984BB2",
"V. c #9D51B1",
"C. c #A155B5",
"Z. c #A65ABA",
"A. c #A95DBD",
"S. c #A556BA",
"D. c #A24EB7",
"F. c #9961A7",
"G. c #AB61BE",
"H. c #AA6CBA",
"J. c #837787",
"K. c #CF7EA6",
"L. c #AC5BC1",
"P. c #A758C1",
"I. c #B15FC7",
"U. c #AE62C1",
"Y. c #B165C5",
"T. c #B368C7",
"R. c #B66AC9",
"E. c #B96DCD",
"W. c #B565CA",
"Q. c #BB71CD",
"!. c #BE6CD3",
"~. c #BE72D1",
"^. c #C175D5",
"/. c #C478D7",
"(. c #C674DB",
"). c #C67AD9",
"_. c #CA7EDD",
"`. c #C26DD8",
"'. c #CC7BE1",
"]. c #7A8284",
"[. c #58BB8B",
"{. c #5FBD91",
"}. c #898E95",
"|. c #9A96A1",
" X c #A99BAD",
".X c #99ABAB",
"XX c #A9B1B3",
"oX c #DD85AB",
"OX c #85CCAD",
"+X c #CC80DF",
"@X c #D184CF",
"#X c #C2B4C5",
"$X c #CE82E1",
"%X c #D185E4",
"&X c #D689E9",
"*X c #DA89EE",
"=X c #D687EA",
"-X c #DD8DF2",
";X c #E190F5",
":X c #BAC8CA",
">X c #B9D1CD",
",X c #B1E0C9",
"<X c #C2CBCC",
"1X c #C6D4D5",
"2X c #CBD7D8",
"3X c #D2DBDC",
"4X c #CAE3D9",
"5X c #D9DDE2",
"6X c #D9E6E3",
"7X c #EAEDEE",
"8X c #E4E7E9",
"9X c #FEFCFE",
"0X c #F6F7F8",
"qX c #E9F1EF",
"wX c #E2DFE6",
/* pixels */
"& % . ; , % , 8 @ * @ . .     $ @ & s 8 & * , s @ @ @ @ @ * , * @ $ @ % . @ & % % @ @ @ . @ @ .     .   8 9 & $ 7 , @ @ @ $ 7 8 ",
"@ 9 * * & $ , 7 . @                 m * @ @ & * . * @ @ @ @ $ % @ @ % @ @ @ @ % @ % @ @ % @ .             # * % * & @ @ @ @ 8 & ",
"@ @ @ * 8 @ & $ @ .     X b B :     . * % @ * s @ @ @ . . . . o   . . . . % @ . @ $ $ @ % @     : B b X       @ , % @ @ @ @ * @ ",
"@ & @ % % @ @ @ @     6 l.I.L.l.>   . @ % % % # .                               . @ @ * @ .   = f.A.I.l.6     . & s * % @ . % * ",
"@ % * @ @ @ % % .     e.W.).T.v.e   * $ * o                                           . @ .   w v.Y.).E.e.    . @ . 7 @ @ @ @ % ",
", * , @ @ @ @ @ .   : j.C.T.V.q.X                     . > 5 q t t q 5 - X                     X 0.V.T.Z.k.:   . @ @ . @ @ @ & @ ",
"@ @ @ @ @ @ @ @ .     P k.g.f.m.=             X q v D H H 3.3.4.3.3.3.H H G v w X             # x.f.g.k.P     . @ @ 9 * & % @ % ",
"@ @ . @ % , . % $     X q V C.(.a         w B H 4.8.t.g.m.n.C.C.Z.C.n.v.g.a.9.5.H N w         a /.S.V q .     . @ . , % @ % @ @ ",
"@ @ 7 @ & 7 s 9 . .         A !.z.    y D 4.9.a.m.Z.T.E.E.^.E.^.Q.Q.~.~.E.T.A.b.a.q.8.F y     z.`.A         . % & @ @ @ % @ % $ ",
"@ @ @ @ @ . d 8 & @ @ .       L (.A G t.q.g.C.Y.E.E.E.E.E.R.E.R.E.E.R.E.E.E.E.E.T.C.l.p.q.D A (.L       . @ @ % , @ @ @ @ . @ @ ",
"% % % @ @ @ @ . @ @ @         = A.E.t.f.C.R.R.R.R.E.R.R.E.^.^.^.^.~.~.E.E.E.T.E.E.E.T.C.f.p.W.A.-         % @ . @ @ 8 @ % . @ % ",
"% 9 9 . @ @ @ % @ @         : H a.f.b.U.R.Y.R.R.R.R.^.E.Y.C.V.b.b.M.Z.Y.E.E.E.T.T.T.T.T.T.n.g.f.P 5         @ @ @ @ & @ % % @ @ ",
"% @ * & $ $ % @ @         y 8.y.f.C.Y.Y.Y.T.T.T.E.E.V.g.d.d.p.p.a.p.f.d.g.C.E.E.T.T.T.Y.Y.Y.C.f.d.9.y         @ @ @ @ @ @ & $ @ ",
"@ @ @ % * @ , $         b t.y.x.A.Y.U.Y.Y.Y.T.E.Z.f.d.a.P N u e e u M P d.d.f.Z.E.T.Y.Y.Y.Y.Y.A.x.a.a.b         @ 7 @ % $ @ @ % ",
". % % % % @ % O       b t.a.c.A.U.U.U.Y.Y.T.E.v.a.g.J 3 p ! z.F.N.z.K p w V g.a.b.E.E.Y.A.Y.Y.Y.A.m.a.d.b         * % & 9 % & . ",
"% @ $ $ % ; .       u p.a.c.Z.A.A.G.U.U.Y.E.x.g.s.w a N.+X*X*X*X-X*X-X'.F.d w s.h.c.E.T.Y.A.A.A.A.Z.m.d.a.b       . % @ . % d d ",
"* & @ @ % .       w t.a.x.C.A.A.A.U.G.Y.E.m.j.r.= E (.'.%X%X%X%X%X%X$X$X'._.U X w.x.x.~.U.U.U.U.A.A.Z.x.s.p.y       . @ % @ @ & ",
"@ % @ d *       = 0.d.x.V.Z.A.A.A.A.U.~.M.x.r.X z.'./.%X%X+X%X%X$X%X%X%X%X)._.z.o u.x.V.~.U.A.A.A.A.Z.C.x.f.0.=       , * @ @ @ ",
"@ % % *         F s.g.M.Z.Z.Z.A.A.A.E.L.x.m.= i.(.Q._.@X+X+X+X$X$X+X_.'._.'.^.(.i.= x.x.U.E.U.U.A.Z.Z.Z.M.j.h.P       o % $ 9 % ",
"@ % @ .       b d.s.m.V.C.Z.Z.A.A.Y.Q.m.V.b Z !.T.(./././.).).).).).).).).)./.R.!.Z b V.m.~.U.A.A.Z.Z.Z.C.m.f.h.b       . @ @ @ ",
"& # @ .     = 8.a.x.M.C.C.S.S.A.A.E.A.n.u., Z.A.`.`.Q.^.^.^.^././././.^.^.E.^.E.U.C.; u.B.U.~.G.A.Z.Z.C.C.V.x.f.q.=       & * @ ",
"9 7 7 O     B a.g.m.V.V.C.S.Z.A.G.`.M.S.a A L.G.T.W.T.R.E.E.E.E.E.E.E.R.E.R.T.T.U.L.J a Z.V.~.U.A.Z.Z.Z.C.V.b.g.h.V       @ * . ",
"# %       - 9.a.x.n.V.V.C.Z.Z.Z.E.R.D.m.: x.V.A.G.G.G.Y.Y.Y.T.T.T.T.Y.Y.I.G.A.A.A.C.l.: m.V.R.~.Z.Z.Z.C.C.C.M.m.f.t.:     o * , ",
"% @       B a.g.m.V.C.C.V.Z.Z.A.^.G.A.I e B.v.C.C.S.S.A.A.A.G.G.G.G.G.A.A.A.A.C.C.b.M.p I P.U.~.L.Z.Z.C.C.V.V.m.g.d.B       % & ",
"$ .     X 6.a.x.b.V.V.V.C.Z.Z.U.^.Z.I.Z B v.c.b.n.n.V.C.C.C.C.C.S.C.C.C.D.D.M.n.B.x.B.B Z I.Z.~.U.Z.Z.Z.C.V.V.b.c.f.w.X     . , ",
"%       y t.f.x.n.M.V.C.C.Z.Z.T.^.Z.Y.p J k.g.j.c.v.b.b.n.n.n.n.M.M.M.M.b.b.m.x.v.u.j.J a W.U.~.R.Z.Z.C.C.V.V.B.m.f.p.a       % ",
"8       D y.f.m.n.V.V.C.C.Z.Z.R.^.A.Y.e P h.a.h.h.g.c.c.c.v.b.v.v.b.c.c.c.j.x.j.u.j.u.P e U.P.~.E.Z.Z.S.C.V.M.M.v.g.d.D       @ ",
".     X H y.g.b.n.V.V.C.C.Z.A.E.^.A.Y.e J 0.0.e.s.s.e.s.s.s.s.s.s.f.s.s.s.p.U s.e.w.q.6.e U.U.~.E.A.Z.C.C.C.V.M.b.x.a.6.X     . ",
"      5 8.y.x.b.n.V.V.S.S.Z.Z.Q.^.G.R.r ! }.|.|. X|.x { { $.; r 3 R #X#XJ.X s $.c { T ! r R.U.^.~.A.Z.S.C.C.M.V.b.x.f.9.6     . ",
".     y 9.a.x.b.n.V.V.C.Z.Z.A.Q.^.Y.`.e W 2X5X7X0X8X] o.o.<.h   1 < |.<Xf   x <.o...+.$.e ~.T./.~.A.Z.S.C.C.V.M.n.c.f.t.u       ",
"      v 9.a.x.b.M.V.V.C.Z.Z.G.Q./.T.(.Z R 1X3X7X0X9X+. .o.<.@.            + >.,.*.` [.! M (.T./.Q.G.Z.Z.C.C.V.M.n.m.f.p.C       ",
"      N 9.s.c.b.M.V.V.S.Z.Z.Z.R.).R.(.U < :X2X8XqX9XOX' ;.=.<.} O       4 @.,.*.:.] OXs U ).R./.E.A.A.Z.C.C.V.M.b.m.f.t.B       ",
"      N 9.d.x.b.V.V.V.C.Z.Z.A.T.).Q.^.G.. }.2X3XqX9X0XO.X.%.*.,.>.} { | 2.2.=.%.` #.|.  H.~.~._.T.A.A.S.Z.V.V.V.n.m.s.t.G       ",
"      N 9.u.x.b.V.V.V.Z.C.S.A.U././.Q.'.a g <X2X6XqX9X4X] X.&.:.;.1.1.1.;.-.&. .O.:Xf a '.~././.U.U.Z.S.Z.V.V.V.n.x.d.t.V       ",
"      N 8.y.x.m.M.V.V.C.Z.Z.A.U.~.).^._.N.  ].1X3X8XqX9X,XO. .%.&.&.&.%.&.:.` O.>X}.  N.'.~._.~.U.Z.Z.Z.S.V.V.V.n.x.f.t.B       ",
"      v 8.y.j.m.n.V.V.C.C.Z.Z.A.E.)././.'.n O .X1X3X6X8X9X4X[.] .. .X. .` O.[.2XXXO n %X~./._.E.G.G.Z.S.V.V.V.n.m.x.u.t.v       ",
"      t 4.0.j.v.n.V.V.V.Z.Z.Z.G.Y.^._./._.Q.. < |.>X2X6X6X7X9X4XOX{.[.{..X>X5X.X< . Q._./._./.U.G.A.Z.Z.V.V.V.n.b.j.y.8.i     . ",
".     5 3.0.s.v.b.V.V.V.V.Z.Z.G.A.E.)._./.=XF.  o ].:X1X3X3X3X8X7X8X8X8X3X>X].o   F.%X)._._.Q.U.G.S.Z.C.V.V.V.n.m.g.e.6.5     O ",
".     X S 7.y.x.m.V.V.V.C.Z.S.G.A.Y.^._._.).=XN.    m }.XX>X2X2X1X1X>XXX}.m     N.=X).$X+X^.U.L.Z.Z.C.Z.C.V.V.n.x.f.9.H X     X ",
"s       N 7.y.g.m.M.V.V.V.C.C.Z.A.A.R./.$X$X).*XH.r     s R W Q Q W R s     r H.=X_.$X$X/.R.G.G.A.S.C.V.V.V.V.m.x.y.9.N       . ",
"@       q 3.7.f.x.n.M.V.V.V.Z.Z.A.Z.A.E.).%X%X+X&X%XE <                 < i.$X&X+X$X$X_.E.U.A.Z.Z.Z.C.V.V.M.b.m.g.q.3.t       @ ",
"@       X S 6.y.g.m.n.V.V.V.V.S.Z.A.A.U.E.).$X%X$X%X;X+XF.L a d p n K F.+X-X&X+X%X$X_.Q.U.G.A.Z.S.C.C.V.M.M.b.j.a.8.H .     . @ ",
"@ @       i 3.8.d.x.b.n.V.V.V.S.Z.A.A.A.U.E./.%X%X%X%X%X-X;X-X&X&X*X;X-X%X$X%X%X%X/.E.U.A.Z.Z.Z.S.V.V.V.M.b.m.f.q.7.v       @ $ ",
", * .     X S 6.t.f.m.n.V.V.V.C.C.C.Z.Z.A.G.R.^.+X%X&X%X%X%X%X%X&X%X%X%X&X&X&X$X^.R.U.A.G.Z.Z.C.S.V.V.M.M.v.x.y.7.F X       % @ ",
"* @ ;       t H 7.a.j.m.n.V.V.V.C.C.Z.Z.Z.A.A.Y.E./._.%X&X&X&X&X&X&X&X&X&X+X/.E.Y.G.G.Z.Z.Z.Z.C.V.V.V.M.b.x.f.0.3.t       . 9 * ",
", * & O       N 3.0.a.x.v.n.V.V.V.C.C.C.Z.Z.A.Z.A.Y.E.^./._.$X'.+X+X_./.~.R.Y.G.A.A.Z.Z.S.C.C.V.V.V.V.m.x.f.q.7.N         @ @ @ ",
", % @ @       X S 3.q.f.x.m.n.n.V.V.C.C.C.Z.Z.Z.A.A.A.A.G.T.R.E.Q.R.T.Y.U.G.A.A.Z.Z.Z.S.C.C.V.V.V.n.n.x.g.t.7.F =       @ @ @ @ ",
"@ @ * & .       - H 6.q.f.x.b.n.n.V.V.C.C.C.C.Z.A.Z.Z.A.A.G.A.Z.C.A.U.Z.Z.Z.Z.Z.S.C.C.C.V.V.V.V.n.n.x.g.y.7.H 5       . @ % @ @ ",
"@ % @ @ @ .       q F 3.q.f.x.m.n.n.V.V.V.C.C.C.C.S.Z.C.A.l.e w 3 e m.U.S.Z.S.S.C.C.C.V.V.M.M.n.m.c.f.y.7.3.q         @ @ @ & @ ",
"$ @ @ % @ % O       q H 4.q.d.g.m.b.n.n.V.V.V.V.C.C.C.C.Z.A + 2 2 + L L.V.C.C.C.C.V.V.V.M.M.b.m.x.s.t.8.H q       o @ @ % @ & @ ",
"@ @ @ & % @ &         5 F 4.0.y.g.x.v.b.n.V.V.V.V.V.V.V.Z.z j l l j Y L.V.C.V.V.V.V.n.n.B.v.m.g.a.9.7.F 5         9 % 7 , @ , * ",
"@ @ * @ % @ $ 7         # N 3.7.q.f.g.m.v.b.n.n.V.M.V.V.G.z k k ^ k z A.M.V.M.M.M.n.n.v.m.x.f.t.0.4.G #         @ & @ & @ @ * 8 ",
". @ @ @ . @ @ 8 @ o         i H 4.8.y.d.g.x.v.v.M.M.n.n.Z.^ ~ ( / ~ ^ P.n.n.n.b.b.v.m.j.g.y.0.8.H i           & @ . @ @ @ $ % @ ",
"% @ % @ @ @ @ @ 7 9           # N H 7.0.y.d.g.l.x.m.v.m.T.) ( _ _ / ) U.m.b.m.m.x.g.s.y.9.8.H B =         < * * @ @ @ @ * * $ @ ",
"% % % @ * %   d W @ % .           - N H 8.8.9.y.a.f.l.g.P.@XoXoXoXK.@XL.g.g.g.a.y.t.9.8.H N :           # * @ . $ $ @ @ * * . * ",
"@ . @ $ % @ * 9 % 7 # @ %             # i D 3.5.0.9.t.t.y.v.B.v.B.B.v.y.y.t.q.9.8.H D v =             @ 7 $ @ @ % % @ @ * @ @ # ",
"@ @ @ % @ , % 7 @ @ @ . 7 * .               - y N F H 3.8.7.4.7.4.7.7.8.4.H F N u -               @ @ * $ % @ ; & @ @ @ @ @ , @ ",
"% @ $ % & % @ @ @ @ @ @ % & @ @ . o                 = 5 t u i v v v u q 5 #                   . , & @ , * @ 7 $ @ @ % @ @ @ % 7 ",
"@ @ @ @ @ @ @ @ & @ % * @ @ @ @ @ * * <                                                   # % % @ % * @ @ & & @ @ % $ @ * @ @ % ",
"% * @ $ $ @ @ @ * % $ @ % @ @ @ @ @ 9 d 8   .                                     . . @ @ @ % 8 % . % $ & 7 * @ @ @ @ @ @ @ % @ ",
"@ * * % @ @ @ $ @ % 7 % @ @ & & * @ . $ % @ @ $ @ @ .       .   O .     . . * # @ @ @ @ @ @ @ % @ @ @ % @ . 9 d . * @ . . * ; @ ",
"m @ @ @ @ % & & @ @ . % @ % * & $ % % & @ @ @ & % $ @ @ @ @ @ @ * @ % @ # $ @ % @ @ % % @ @ @ @ @ @ @ @ @ @ & * @ & @ @ @ % % . ",
"7 @ 7 % . @ & * $ % . 7 $ @ % * @ @ % & @ @ . 7 7 @ @ @ @ @ @ @ @ % @ @ @ , . @ @ @ & @ @ @ . & % @ @ % @ . @ . @ @ @ @ % . @ @ ",
"* & * % @ % 7 * @ @ % $ @ & * @ @ @ @ @ @ @ @ 7 * & @ @ @ @ & % @ & @ @ @ @ @ @ @ @ % . @ % @ $ $ @ @ @ @ @ % @ @ @ @ @ @ @ @ @ "
};
