/* XPM */
static char *fire_down_resized[] = {
/* columns rows colors chars-per-pixel */
"64 64 229 2 ",
"   c #00000E",
".  c #0B010E",
"X  c #13040E",
"o  c #1C060C",
"O  c #1C090E",
"+  c #030213",
"@  c #0A0514",
"#  c #0A0916",
"$  c #070618",
"%  c #080718",
"&  c #0C0B1A",
"*  c #120611",
"=  c #1D0711",
"-  c #130A14",
";  c #1B0B13",
":  c #110E1B",
">  c #1B0E18",
",  c #12111E",
"<  c #1C121C",
"1  c #1D1016",
"2  c #2D0A07",
"3  c #22070C",
"4  c #23090D",
"5  c #2B0B0C",
"6  c #290809",
"7  c #340B05",
"8  c #3B0E06",
"9  c #330C0C",
"0  c #3A0D0B",
"q  c #2D110F",
"w  c #35110D",
"e  c #3C120B",
"r  c #3C140B",
"t  c #230D12",
"y  c #2A0D12",
"u  c #320E11",
"i  c #251115",
"p  c #2C1213",
"a  c #23121A",
"s  c #2C161A",
"d  c #24181E",
"f  c #331314",
"g  c #3B1413",
"h  c #321B1E",
"j  c #3B1B18",
"k  c #3E231C",
"l  c #151522",
"z  c #181723",
"x  c #1A1A25",
"c  c #1D1D29",
"v  c #201F2C",
"b  c #251A22",
"n  c #301F22",
"m  c #23222D",
"M  c #2B262E",
"N  c #372425",
"B  c #252530",
"V  c #2B2B35",
"C  c #2C2B38",
"Z  c #312B33",
"A  c #33333D",
"S  c #440F05",
"D  c #420E0B",
"F  c #4A0F0A",
"G  c #461305",
"H  c #4C1205",
"J  c #43130B",
"K  c #4B130B",
"L  c #4A1A0C",
"P  c #45190C",
"I  c #541404",
"U  c #5B1605",
"Y  c #541A06",
"T  c #5C1A05",
"R  c #53140B",
"E  c #5B160A",
"W  c #551B0B",
"Q  c #5C1A0C",
"!  c #421B13",
"~  c #4B1A13",
"^  c #441715",
"/  c #551C13",
"(  c #621606",
")  c #631B04",
"_  c #6C1C03",
"`  c #64160A",
"'  c #6A1709",
"]  c #631A0C",
"[  c #6B1A0A",
"{  c #6F1607",
"}  c #721C04",
"|  c #741C09",
" . c #7B1C09",
".. c #7B1B05",
"X. c #661F12",
"o. c #58210B",
"O. c #4B2819",
"+. c #59261A",
"@. c #64230C",
"#. c #6C220A",
"$. c #742203",
"%. c #7B2302",
"&. c #74220B",
"*. c #7B240B",
"=. c #7D2A0B",
"-. c #692515",
";. c #782711",
":. c #783A1A",
">. c #583327",
",. c #41373D",
"<. c #755837",
"1. c #6C4A32",
"2. c #393845",
"3. c #40404B",
"4. c #494854",
"5. c #776041",
"6. c #565660",
"7. c #696971",
"8. c #841D07",
"9. c #821E09",
"0. c #8A1E07",
"q. c #832503",
"w. c #8D2305",
"e. c #8C2804",
"r. c #83230B",
"t. c #8B240A",
"y. c #872B08",
"u. c #932A05",
"i. c #9B2B05",
"p. c #952409",
"a. c #942A0B",
"s. c #9C2B09",
"d. c #972507",
"f. c #8E350C",
"g. c #953008",
"h. c #993915",
"j. c #8E3411",
"k. c #A22506",
"l. c #A32905",
"z. c #AA2C06",
"x. c #A22D08",
"c. c #A92B0A",
"v. c #B32C05",
"b. c #BD2F02",
"n. c #A33106",
"m. c #AD3306",
"M. c #AA3409",
"N. c #A5340A",
"B. c #B23306",
"V. c #BC3405",
"C. c #B13309",
"Z. c #B93A09",
"A. c #A73B18",
"S. c #C23905",
"D. c #C73805",
"F. c #D23D03",
"G. c #9E4112",
"H. c #B8420B",
"J. c #B34515",
"K. c #8B5C34",
"L. c #995325",
"P. c #B86327",
"I. c #CD4305",
"U. c #C9480A",
"Y. c #DB4C03",
"T. c #D44405",
"R. c #D8550A",
"E. c #C74B14",
"W. c #CA5115",
"Q. c #D75711",
"!. c #E35A05",
"~. c #E15F15",
"^. c #D5670F",
"/. c #D66A1B",
"(. c #E5680B",
"). c #E46917",
"_. c #E97817",
"`. c #EA710B",
"'. c #EA7C24",
"]. c #C9702C",
"[. c #B87E43",
"{. c #87574D",
"}. c #E78119",
"|. c #F0891A",
" X c #D98424",
".X c #ED8B26",
"XX c #EB862B",
"oX c #F29828",
"OX c #EC8F32",
"+X c #F3A337",
"@X c #E8A33E",
"#X c #AF8551",
"$X c #968267",
"%X c #A7936E",
"&X c #D48941",
"*X c #F19C43",
"=X c #F2A848",
"-X c #F6B957",
";X c #F6B151",
":X c #CFAB6B",
">X c #E9B666",
",X c #F7BC65",
"<X c #F7BD76",
"1X c #F8C874",
"2X c #9E9687",
"3X c #A29A86",
"4X c #B9AC91",
"5X c #BBB7AE",
"6X c #E0BC8B",
"7X c #CABFA3",
"8X c #F9D687",
"9X c #ECCC99",
"0X c #F3D298",
"qX c #FCE296",
"wX c #D9CEAF",
"eX c #FADEAB",
"rX c #E6DBB6",
"tX c #E3CFA6",
"yX c #FCE6A7",
"uX c #F9EBB7",
"iX c #D1CEC4",
"pX c #D1D0CC",
"aX c #E1DDCF",
"sX c #FEF2C4",
"dX c #FDF3CC",
"fX c #E8E5DA",
"gX c #F5EBCB",
"hX c #F6F3E7",
"jX c #EEEDE7",
/* pixels */
"% $   , , $ , z + &   + + $ , v + $ m z # & , m   + + + $ & , & + # + @ + + & % % + + + +   + $ + $ + + x z & & z , + + + % z x ",
"+ c % & % # , z   + + + + $ & # , + A , + + # ,   & + +   + # $ + . # @   @   @ + + + + $ + + # +   +   2.4.+ + & % + + + + x % ",
"+ + + & x + % & + + & , + $ $ , , +   & $   & v   + + + + @ + ,   @ X . @ * @     % % + $ $ + $ + + +   V 2.  + , % + + + + & + ",
"+ # + $ # + +   + + + $ # $ # $ $ + $   + # $ & % + + + , #   @ . X X X X . < @ @ : + &   + + + & $ $ + +   +   $ v & $ +   $ & ",
"+ $ % + + + $ + $ + + + + + $ # + # & # m ,   $ $ + # @ +   + X X X o 1 * X X . @ ,   +   # c   # # + + + + + + +   z + + + + % ",
", & , + + + + + + % + + + ,   # # # # + & + + + + $ % + @ - * X o o 4 O O * X & # @ + + + $ $ + + +   $ $ + + + + +   + + + % + ",
"+ + + + + + + + $ & + + + + + # + c % & $ & + + & + + % - d . o o 3 6 4 t o * 1 . - + + $ +   + + l & + + $ $ + +   c & % $ + $ ",
"+ +   + $ ,   $ $ # & + + + & + + c $   + + + $ x   + + # * O o 3 2 2 2 o o X . @ - % % + l + +   & , % + + + + +   , $ + $ + + ",
"+ + l + & , m c   + & # % + + + + + + V $ + $ &     + + . 1 t 4 2 2 w 2 f o o X X - @ + + + + + +   $ $ + + $ $ # + + + + + $ # ",
"  + $ + +   M x % + + + + + + + + + + x $   : + @ , # - . 1 o 2 r 8 r r q 4 O O X       + + + + + + + + $ + + + , + + + + + + + ",
"$ $ $   + + +   + + + + + + + + + + +   # + , x + z + . . O q w 8 8 8 8 2 2 4 O - > , @ + & + + + # % $ # $ + +   + x + $ + + $ ",
"$ c c   + + # $ + $ $ $ + + $ & $ + & $ % $ + z # # @ * 1 O 4 8 r G G L r 2 O O * 1 @ @ + & #   + + +   + + + + + + & + + $   + ",
"% + & % # $ $   + % & + $ $ + + + & x + & # + + # + . * O 4 2 r H G Y G 8 w r O O O   @   & , + + +   $ + + c % + + + $ + % # + ",
"+ + + $ & # : & + + + +   + # v , % + + + + % + +   @ . 1 5 w G H Y H G L w r 4 O X . # # +   + + + x + + + + + + , + + # + + $ ",
"  $ $ $ + + + $ $ + + + +   # + + $ #   & & # + + + . X o q P G Y T I H G 8 2 4 p O   . + % x c # + $ + + + + #   & $ % m $ %   ",
"$ + # # $ , + + # & + $ + + # $ + # + + l , + #   @ . ; o 5 G S T T I @.o.P 8 4 q - *   +   2.C + + +   + + + + + + $ +   # m C ",
"& % + + $ + $ + + + + , + + + + + + + + + + + # @ . . O 4 w 8 H T _ U T G 8 2 r 4 X @ : @ +     + + + & l + + + + + + + + + + % ",
"+ %   V &   # + $ % + + $ + + + + + l   l , % + @ < ; t 4 8 H o.$.} ) U Y G 8 r q X ; * @ + + : + + + + + + + + + + + x & + + + ",
"+ $ $ ,   l &   + ,   4.6.  + + + % $ + % + @ @ @ - i q w r H I $.$.) U T o.o.r 6 O * . @ : @ % + + + + $ + $ $ +   $ l + # c $ ",
"+ $ +   + # $ + + # + c x + $ + + # & l %   , - > X X q r G Y T $.$.) U @.T o.9 q 4 X @ @ + + + + + + + # $ + # $ + + + $ + + + ",
"% $ $ $ + % $ # $ + + # # & , $ @ + : z - @ - * ; X 4 q 7 G T @.$.%.$.$.#.Y Y 7 w 3 X .   # @ + + $ % + + + + + $ + + % + $ &   ",
"c , x $ % l & # $ + + + $ $ & : , % +   + % - O O o 5 w e Y T _ $.%.$._ U I G 7 4 4 * . @ % @ + + + $ + + + + + : x $ + + + & + ",
"# $ +   $ + + + & +   , # # + + V $   , . . ; h p q w r 8 I _ $.q.q.q.$.( T G r 2 3 i * @   + + + $ + # +   + % $ v + +   l & , ",
"+ + # +   $ + + , + + z &   + : + + # . m ; X t 9 8 J e S I _ y.q.e.q.$._ T K G e 4 O < -   + + % + + +   $ % $ , : + % & & $ # ",
"# + $ +   + + % + + $ + # + : & & % & # > * o 6 J ~ K S I U } %.e.g.g.q.$.) I I 9 6 O X @ + + + + + + A 2.# % $ , &   $ + $   l ",
"$   + + + $ & & m + + % & # + # $ + # $ + X y >.0 W W H I ) } f.e.u.e.q.} ( U K e 6 3 X X # @ + $ +   3.6.+ $ $ + & + + % %   $ ",
"c $   + # #   + +   + $ + $   , # @ @ + @ X i >.L D Q I ( _ } q.e.u.u.u.y.' ) F J 6 o = > @ . + + + $ + + # + + + + $   & % + + ",
"$ $ + + + + : , + x v   l :   & $ , * @ @ ; t 6 J J R E #.%...w.u.u.i.e.q.} ( F J 2 4 q X @ +   # $ + & m + +   + + z z # + + $ ",
"+ & # + # + # , $ l v   3.B   $ + + . - - O o 2 g ~ R E #.=.r.u.u.n.i.g.y.} ( K K e 5 5 X - @ + & +   l l + % &   + $ $ l # + $ ",
": : + c $ + + + , + + #   # +     % @ * 1 * 3 8 D R R E X.r.t.u.n.H.N.d.a.j.E R K 0 O.5 o * # @ & + + + + + $ # + + +   + $ $ $ ",
"# M + , + + & $ $ , %   & +   +   + # p X O 4 0 F R ] -.E ;.a.u.n.N.x.s.A.r.( E K K J 5 = > @ +   $ + + + + + , $ + + + # & , , ",
", , + + , + $ #   x B & x + + + & , - + X 3 6 o.U E E Q Q  .y.a.n.M.s.s.N.r. .' R W P 5 o . < - 4.# + + & + + + + + # x   & x # ",
"c # + + + + , % $ +   % l & + + l + + @ * 3 9 F I E Q ] ;.*.e.u.n.M.n.i.s.g. .| -.R 0 5 3 = b - A - + , # + +   %   l x   , + + ",
"  + # $ $ z %   & x $ +   l :   @ # @ @ ; y 5 0 H U ] ] [ r.a.n.m.M.M.M.s.0.8.[ E H J w 5 ; * *   m , + $ $ + + + + + + + + ,   ",
"#   + + + c , $ & c + + + + @ + @ @ - < = y y ~ F E [ [ { t.i.x.B.H.Z.m.M.p.8.{ E R L 9 5 t * * + & +   # &     l x + + + , m , ",
", , : # m x   , +   + + +   v : * @ - - ; p f J Q E ) | | t.i.M.H.E.Z.Z.Z.l.t. .$.] D 9 j k * - . + , % + # c v % + + + + x B , ",
", , % $ # : + + + $ + + +   & # @ ; * X i t 0 K @.Q [ f.r.t.x.B.H.E.U.S.C.k.p.9.$.@.W D 8 t = @ + - l $ # + l & + + $ $ + + + + ",
"+ :   & $ # $ + + + % x + + + @ X O . t f 3 u F R R [ y.9.d.x.Z.W.W.S.V.v.c.p.w. .` R L ! h X @ # &   + , % + + + & % + + + $ # ",
"% + & : + c , $ + + % v + + @ - @ < n N f 9 ^ F R E ] &.e.s.c.Z.W.W.D.I.S.v.c.s. .| @.K j = ; - @ @ % + # # + + +   + # %   $ & ",
"B +   + $ &   + l + + #   % : - . a t y 5 J ^ D E X.' *.p.s.C.Z.E.W.F.R.T.S.v.k.0.' X./ 9 y t - . # # + : % + ,   + + + + + # & ",
"  m & % + x x   + + + + + $ % z . X t t 5 0 ~ L / `  . .0.c.Z.D.R.Q.R.R.T.I.b.z.w. .#.K u y 3 X X @ @ & # & & c l + + + + + + + ",
"  v , + + $ # + + +   + & + + : - = i t 9 ^ F E ] '  .0.p.c.V.I.Q.Q.~.(.T.F.D.b.s.t.&.~ 0 y = t * * > + + # # $ x % % + + $ + + ",
"+   $ $ + $ # $ + $ $ +   + +   : * = 3 f g ~ R ` ;.t.p.k.v.S.F.)._.(.(.!.Y.I.Z.M.9.] R 0 g y p i O ,   + + , , # & + & % $ + $ ",
", & $ + # + + l & $ +   c x   : . * X 3 2 9 K R `  .t.k.v.V.T.Q.'..X.X`.`.!.Y.I.l.8.*.X.K J w 5 4 1 : & +   $ : + $ + + l & + + ",
"& + ,   + + + + + & + + & % % z @ * * t f 0 F E `  .p.k.D.F.F.~.*XOXoX|.|.`.R.R.z.s.*.` W 9 5 t O > * + x , + $ + + + + & + x & ",
", & # : # # + $ + + + + + + + + + @ * t y 0 F R '  .0.k.D.F.Y.'.;X8X;XoXoX_.(.U.m.s.r.( K 9 5 y n i   + & : % + + $ + $ + + + + ",
", $ + $ l , # : +   +   + + + % .   @ = 3 5 g R ` 9.0.k.S.D.!.*X<X<X8X1X-X+X`.T.C.d...R / g y s O * < + # & $ + + + $ + + + + + ",
"+   & $ , & , + + $ + + + + + & & b > * = y 0 ~ ` 9.p.k.D.F.'.;XeX8XqX8X;XoX(.I.C.p.*.R g u 4 t d * + $ & + + , $ + & $ + + + + ",
"+ + + +   :   # # : + + $ + $ $ # > - ; i y 9 ~ / { 0.z.D.R.'.<XyXyXuXyX-X|.^.U.C.a.| E D j t o X . # % : , & $ V z + + + + % + ",
"% $ + $ + + l $ + + + + + +   + + @ # - = y u D F ' 0.C.E.).XX;X8XqXsXsXqX1X}.R.C.9.[ R 0 5 t = 1 z   + , + + & + , + + + $ # + ",
"+ + + & $ # , + + + + + + % & + + M < . = 5 u 0 / X.0.c.E.'.*X,X8XyXsXdXuX1XoX^.N.9.` F 9 3 = = @ > @ + + + $ + z B + l : + , & ",
"+ + # $ $ + + , % + + + + + + & @ # @ @ * o y g +.X.8.k.E.'.=XeXuXdXhXdXyX-X}.H.s. .` F ^ y X a < . % + + : & # + % + & $ + # x ",
"+   + #   + + z + ,   , % $ # x %   # * X b j f D R { p.E.&X>X0XsXhXhXuX0X@X^.H.a.{ / 0 j t . Z M @ + # + # + # +     + + $ + + ",
"$ + $   + + + + l c + l + + # & + + - @ * s u ! +.R ;.a.Z.&X9X9XgXjXfXrX>X X].J.r.X.R 0 y = -     # + +   v & & + + + + # : # + ",
"+ # $ + & $   V 7.+ # + $ + + % % % + # = 3 f ~ ^ F X.t.A.].6XtXrXaXaXtX>X XP.A. .` R u y - @ + @ < & & : & + + % # + + & ,   : ",
"+ + + # + + : x % % $ + # + $ $ : @ @ > N h g D D F `  .h.P.:XiXpXpXwX7X4X[.h.r.` R u t - *   : m % $ + , # + + + $ + + & +   $ ",
"+ $ + $ + , $ l + + + + l % + + +   + @ - t j 5 0 K Q [ &.L.#X4X5X5X5X4X$XL.=.o./ u p = > & + : , + + : # $ + : & + + + + + , $ ",
"$ + # + % $ + + + + + + + % + + + & &   @ @ X y >.^ ~ / @.L.K.#X2X2X%X$XK.:.-.{.u t a - - # + @ : % + , : + , # + $ $ + + + $ l ",
"+ + $ + + + + + % + $ & + + + + + l l z @ . A d b y y ^ / +.1.<.5.<.<.<.>.~ j j y ; * @ + % % % + $ & + + & % +   $ % + & +   $ ",
"# % + # $ + +   , + # + $ + + + + + x B z . ; * . X t p f ! ^ O.O.>.N j j p ; * @ @ @ + + + % x + + $ + % l # + + + + + + + $ + ",
"+ & & $ + + + $   $ z + + + % % & + + # # +   # - - * * = y i p p h t a 1 ; < : + +   @ + + + + + + + $ +   x C   % + + + & ,   ",
"A $ + + + $ % & + +   $ + $ & # # $ + & + + @ # + # @ @ @ @ * @ > - # * # # @ % + + % # + $ + + + + + + +   % , + # + + + + $   ",
", + l $   + % & % $   z $ + $ & + + + & + +   z z + + + + @ + @ + # + + + , + + + + % + + +   & $ + + $ + +     +     + $ + + + ",
", # & $ + # l & + + $ &   # & + + + + + + + + , & % + + + + # % + & + + + + +   + $ +   + $   $ # + + + + + $ + + $ + + + +   + "
};
