/* XPM */
static char *fire_right_resized[] = {
/* columns rows colors chars-per-pixel */
"64 64 230 2 ",
"   c #00000E",
".  c #0C020E",
"X  c #14040D",
"o  c #1B050D",
"O  c #1D090E",
"+  c #030213",
"@  c #0A0514",
"#  c #0A0816",
"$  c #070618",
"%  c #080718",
"&  c #0C0B1A",
"*  c #130511",
"=  c #1B0711",
"-  c #140A15",
";  c #1B0B13",
":  c #120E1B",
">  c #1B0F19",
",  c #1C1016",
"<  c #12111E",
"1  c #1B121B",
"2  c #21060C",
"3  c #240A0D",
"4  c #2C0C0C",
"5  c #280808",
"6  c #390D06",
"7  c #340D0C",
"8  c #3B0D0B",
"9  c #350C05",
"0  c #35110D",
"q  c #3C130C",
"w  c #3F1307",
"e  c #230C11",
"r  c #2A0E11",
"t  c #340E10",
"y  c #251216",
"u  c #2C1212",
"i  c #23141A",
"p  c #2D1519",
"a  c #2D1A1C",
"s  c #27191C",
"d  c #331313",
"f  c #3B1312",
"g  c #3D1A13",
"h  c #361918",
"j  c #29100F",
"k  c #3D211F",
"l  c #151422",
"z  c #181724",
"x  c #1A1925",
"c  c #1D1D29",
"v  c #231B23",
"b  c #2C1D22",
"n  c #211F2C",
"m  c #231A23",
"M  c #23232D",
"N  c #28262F",
"B  c #362125",
"V  c #242430",
"C  c #2B2B35",
"Z  c #2B2A34",
"A  c #382D33",
"S  c #33333D",
"D  c #430F0B",
"F  c #460F06",
"G  c #441206",
"H  c #4B1305",
"J  c #44120B",
"K  c #4B120B",
"L  c #4B1A0C",
"P  c #45190B",
"I  c #541505",
"U  c #5B1503",
"Y  c #551A06",
"T  c #5B1A05",
"R  c #53140B",
"E  c #5B160A",
"W  c #541A0C",
"Q  c #5C1A0D",
"!  c #421511",
"~  c #4D1610",
"^  c #441B13",
"/  c #4D1C13",
"(  c #521B12",
")  c #591C12",
"_  c #641B04",
"`  c #6B1C03",
"'  c #631609",
"]  c #63190B",
"[  c #6B1C0C",
"{  c #661606",
"}  c #731B05",
"|  c #7C1D06",
" . c #731C09",
".. c #7A1C0A",
"X. c #671D10",
"o. c #58220A",
"O. c #482319",
"+. c #582516",
"@. c #4F230F",
"#. c #64230B",
"$. c #692304",
"%. c #742304",
"&. c #7B2203",
"*. c #74210C",
"=. c #7A240C",
"-. c #7B2A0B",
";. c #672412",
":. c #772A13",
">. c #753A1A",
",. c #583423",
"<. c #4C3A3C",
"1. c #704E31",
"2. c #363641",
"3. c #4E3E42",
"4. c #4B4A56",
"5. c #725943",
"6. c #7E6244",
"7. c #65656E",
"8. c #831D07",
"9. c #891E07",
"0. c #851F09",
"q. c #891D08",
"w. c #941E06",
"e. c #842503",
"r. c #8C2305",
"t. c #83220A",
"y. c #8B240A",
"u. c #84280C",
"i. c #8D2A0B",
"p. c #882904",
"a. c #942406",
"s. c #9B2506",
"d. c #932A05",
"f. c #9B2C06",
"g. c #932408",
"h. c #932A0A",
"j. c #9C2C09",
"k. c #98270A",
"l. c #8D340D",
"z. c #973206",
"x. c #893311",
"c. c #9D3D17",
"v. c #942710",
"b. c #A32506",
"n. c #A32B06",
"m. c #AA2D08",
"M. c #B32D04",
"N. c #B22703",
"B. c #A43207",
"V. c #AC3106",
"C. c #A33109",
"Z. c #AD3309",
"A. c #AE3B0B",
"S. c #B33306",
"D. c #BD3304",
"F. c #B53B0C",
"G. c #BA3A08",
"H. c #B23D12",
"J. c #C43A05",
"K. c #C83A05",
"L. c #D13C03",
"P. c #AB4718",
"I. c #9B5629",
"U. c #89542F",
"Y. c #AD5B25",
"T. c #BE6526",
"R. c #CD4305",
"E. c #CA4709",
"W. c #D34404",
"Q. c #D34F0B",
"!. c #DB4B03",
"~. c #D85509",
"^. c #C84B13",
"/. c #CC5517",
"(. c #D95912",
"). c #E35905",
"_. c #D66816",
"`. c #E5680B",
"'. c #EA710B",
"]. c #E46715",
"[. c #E87617",
"{. c #CE712E",
"}. c #E77925",
"|. c #E07F39",
" X c #997B4D",
".X c #AF7C42",
"XX c #917F66",
"oX c #EF881B",
"OX c #DB8929",
"+X c #EC8B28",
"@X c #F19629",
"#X c #F29939",
"$X c #F3A43A",
"%X c #B28654",
"&X c #998E78",
"*X c #CD964F",
"=X c #EF9740",
"-X c #F3A947",
";X c #F4A753",
":X c #F7B959",
">X c #F0B24B",
",X c #CEAF72",
"<X c #F2B56A",
"1X c #F9C45E",
"2X c #F5C36A",
"3X c #F5C776",
"4X c #9B9487",
"5X c #B7A98D",
"6X c #B9B6AE",
"7X c #DDB580",
"8X c #FBD686",
"9X c #EAC996",
"0X c #F7DD95",
"qX c #F3CF94",
"wX c #FCE098",
"eX c #D5CAAD",
"rX c #FADCA7",
"tX c #E8DAB6",
"yX c #E1CDA5",
"uX c #FDEAA9",
"iX c #F8EAB9",
"pX c #F5E9BB",
"aX c #D2D1CB",
"sX c #D0CDC1",
"dX c #E1DED3",
"fX c #FDF3CA",
"gX c #FFF2C1",
"hX c #FAF6DD",
"jX c #EEECE3",
"kX c #F6F4E8",
/* pixels */
"% $   < < $ < z + &   + + $ < M $ $ M z & & l M   + + + $ & : : + # $ + + + # $ $ + + +   + + + + $ + + c x & & l < + + + % z x ",
"+ c % & & % < z   @ + +   % & % : + S : + + % : + % + + + + # + + + + + + + + + + $ + + $ + + # + + +   2.4.+ $ & & + + + + x % ",
"+ + + & z   & & + + & < + $ $ & : +   : $   & M   + + + + + + < + + + + + $   +   + $ + + + + $ $ + +   C S + + < % + + + + & + ",
"+ # + $ $ + +   + + + $ # $ & & # + # + + # % % % + +   : $ + + + + + + + + < + $ <   & + + + $ & # + + +   +   % c & % +   $ & ",
"+ $ % + + + $ + $ + + + + + # @ # + & + M & + $ $ + & @ +   + + + + + & + + $ + + < + + + # c + # # + + + + +   +   l + + + $ $ ",
"< & < + + + + + + % + + + < + & # @ # + & + + + + % + + + # + +   + # # # + + $ + $ + + + + $   +     $ $ + + + + +   + + + $ + ",
"+ + + + + + + + $ & $ + + + + #   c % & % & + + & + + $ & z   + + + + + # + + & + $ + + + + + + + l & + + $ $ + +   c & % # + + ",
"+ +   + $ <   $ $ # # + + + # + $ c $   + + + # x + + + $ + $ + + +     + + +   + % $ # + l +     & l % + + + + +   < + $ $ + + ",
"+ + l + & < M c   + & % %   + + +   + Z $ + # &   + + + + < & $ + + l & V + + + + % + + + + + + +   # + + + $ $ % + + + + + # $ ",
"+ + + + +   N x # + + + + $ + + + + $ x $   : + $ : # # + :   + +   % % % + % + + +   + + + + + + + + + $ + + + < + + + + + + + ",
"$ $ $ + + + +   +   + + + + + + + + +   # + < x + l + +   $ < + + + + + + % + + % & % # + & + + + # % $ % $ + +   + x + $ + + $ ",
"$ c c   + + # $ + $ $ % + + $ & % + % % % $ + z # + $ + & & $ # $ % % c & & % + # % $ $ + & # + + + + + + + + + + + & + + $   + ",
"$ + & # # % $   + # & + $ $ + + + & c + & % $ + & +   + + & + + + $ < # < : $ + + +   +   % <   + +   $ + + c % + + + + + % # + ",
"+ + $ + : + : & + + + + + + & c : % + + + + + + + + + + : & l + % $ # & c < #   . + @ # - .   . + @ x + + + + + + l + $ # + + $ ",
"  $ $ $ # + $ # $ + + + + + @ @ + $ #   & & % + + + + + + @ c + & @ + + & + + . 1 - o o * ; v m - * - . . + + @   & # & c $ %   ",
"$ + # # + : + + # % + $ +   # $ + # + + z <   $   + + % + + @ + @ + @ . + > 1 . * - O 3 = O <.A X * * . @ @ + + + + + + + # N C ",
"& % + + +   # +   + + < + + + + + + + + + + + @ @   + @ + # @ # - , * n - * . ; ; = e d 4 3 X o = = ; > m @ @ + + @ + + + + + % ",
"+ # + C & + % + @ & + + $ + + + + + z   l < @ + + z # # @ @ @ - @ * o > * X * y e 2 d f r 4 3 u 4 o = = * % @ @ + + @ z & + + + ",
"+ % $ &   l & + + <   4.4.  + + + # - + @ + + # @ : : > X ; 1 * ; o 2 4 2 h y 3 2 d t 8 8 f t f t 4 3 r e 2 - * @ + @ z + # c $ ",
"+ + + + + # $ +   #   c M $ @ + @ # : 1 #   1 > ; @ . , ; e p e 4 3 4 7 q g f 7 f t D K R K D J D D 8 f h t e > - @ + + $ + + + ",
"% $ $ $ + & @ & # # . # - & : # @ * 1 1 ; . ; - ; X ; d 4 4 d 4 4 8 7 8 8 H R R ( K R ;.' [ T E E Q R K 8 D t 2 = * @ # + # &   ",
"c < x % % < : # &   . # # - - , 1 - . X X ; ; O 3 2 3 u 4 @.P K 8 8 K J W K #.E [ *.[ =.u.u...u. . .[ X.R K R 8 p a - @ + + & + ",
"# $ +   @ . . # < . . , , O O X B O o 3 5 o o h d 0 d 0 8 8 F W W I R $.] '  .{ ..i.y.q.j.k.f.d.g.q.0.t. .' ' ) f B * @   l & < ",
"+ + # + . # @ . 1 X X s O O j j 5 j 4 3 g 4 9 w 7 q G J J H R R E ] E *.| ..0.q.g.s.m.V.M.V.S.S.F.Z.Z.C.v.v.=.X.) f O - 1 : $ % ",
"# + @ @ . . - X X O O X j 5 j j 0 P g 6 0 9 w G K R K K K R U { `  .} } 8.r.a.b.N.N.D.E.~.E.E.W.Q.~._./.^.Y.c.p.:./ r ; @ $ + l ",
"#   @ . . - ; , a O O j g g 5 w 9 6 o.o.o.G G W Y ' _ { { ' '  ...0.q.9.w.w.b.N.J.K.L.!.~.`.'.[.'.oXOX@XoX_.T.c.x.;.f = : % + @ ",
"v # . . X ; O O O 5 5 5 5 9 6 L G H Y o.U U $.;._ '  .} ..l.t.8.h.9.a.s.m.b.N.K.W.L.!.).'.oX$X@X@X2X3X2X$XOX*X%XI.>.O.> > - + + ",
"# @ @ X X X j j 5 0 g 9 w H G o.H Y Y _ $.U U ` %.&.e.e.l.r.g.z.a.C.F.F.S.M.J.W.L.!.).'.oXoX1X>X1XuXiXuX0X,X,X,X%X6.1.O.; @ + $ ",
"$ - - X O O 3 0 5 ^ P G o.L H #.U U U T %.` %.&.e.e.d.d.z.f.j.n.s.F.S.G.J.J.R.!.(.`.`.'.oX$X3X0XuXfXfXfXgXtXeXeX5X&X1.k b : + @ ",
": - . s O O 3 9 0 9 6 G I H I U U _ _ ` %.%.p.e.d.d.d.d.z.A.B.n.n.H.F.F.^.J.J.K.!.(.`.@X@X:X8XwXgXiXfXhXjXjXdXsX5X&X1.O.e - % % ",
"& M . , O X j 4 9 0 w w G I U T $.$.%.%.&.&.e.p.d.d.d.d.f.A.B.V.Z.A.F.^././././.(.(.[.+X$X3X3X8XwXwXuXfXkXjXdXaX6X4X1.,.y ; z < ",
"z < . # ; O 3 3 5 @.P G Y G I I T %.` } %.&.e.e.e.d.d.d.f.B.B.z.B.Z.V.G.^.^.^.E.Q.(.].}.#X;X<XrXuX8X8XpXgXtXtXaX6X4X6.,.o > c @ ",
"c # . # * X O 3 3 5 5 6 w H G G H U I T _ ` %.e.&.l.e.r.h.d.d.d.d.C.B.V.S.S.G.D.E.L.K.~.(.].#X;X<X;X:XrX9XyXyXeX6X X1.,.3 i @ + ",
"  + . & # 1 , X e p j 5 5 0 0 w 6 H H H I Y $.` ` } } | | r.i.t.i.d.j.s.j.n.n.V.S.S.J.R.L.!.).}.[.+X#X-X;X9X7X*X.XI.1.! e * < + ",
"# +   + @ M 1 # - s X X O 3 4 4 4 6 q J H L K W U _ ` %.-.*. . .*.&.t.8.r.r.k.k.b.b.M.D.K.L.L.W.!.(.}.}.|.|.{.Y.I.U.Q d = 1 N : ",
": : & & M 1 . 1 . . . * O X a 3 j 3 0 q 7 w w G I I ' _ ] { R E [ *.[  .u.y.i.d.q.w.s.m.J.K.D.D.K.^./.K.G.H.c.c.:.X.L t * m Z & ",
"< < & $ & : + + . # .   * . ; ; O O j 3 j 7 q w H I R E Q ] Q Q ' X.[ ..l.e. .=...q.w.k.b.b.b.b.m.m.m.b.v.v.v.:.X.( f r * @ + + ",
"$ &   & + % % + + + - x + . @ . . X X O 3 2 4 G J W W R R ) Q E E U { ' ] ;.X.'  ...0.y.v.v.q.q.y.v.8.....*.X.R R ( t e - @ @ - ",
"# + & : + c < + + + & c + + @ -   1 v b X 2 d 8 J L ~ J D ( I E E ] E R ] E ;.X.' [ =...=.......[ ' ' R ( ) K ~ ~ 7 2 ; - + $ & ",
"M +   + # :   + z   + &   & & %   1 # * * o 3 4 ^ / @.! 8 D R E I K +.W #.) R R ( ' X.X.' [ ' X.K ~ ~ D ! ! D ~ 8 4 o * @ + % & ",
"  M & % + x x + $ + +   $ $ $ l     # # . o p 3 u O.7 j 4 G ^ @./ 8 ! ! J K D 8 D E ) R R R R D 8 ! D f f f / O.h r * @ @ + + + ",
"  n l + + $ # + +     + & + + % # + - # @ - ; * 2 3 3 e 3 3 4 4 7 4 4 4 7 7 f ( ~ J ( / D K 8 8 t t d 3 4 p g f k ; - @ @ @ + + ",
"+ + + + + # # + + $ $ +   + + + # + + + @ @ - - X ; > i ; X O o o d e = e r t / ^ J t f 8 g r u r r h = = = u p e > @ : & @ + % ",
": & $ $ & + + l & $ +   c x   % + + +     . # * @ # @ . @ - 3.; . X X = * r f r 3 r 7 4 r e r 3 e e e > * * > , @ @ @ @ l & + + ",
"& + < + + + + + + & + + & $ $ l   + + % &   @ $ + + & . . O p @ . # x ; ; o e u u o e 2 e * X * * - - - m 1 @ - # + + + : + z & ",
"< & # & + :   $ + + + + + + +   + + + # # + + + + + + @ + & - + . n A > * > y ; e = = X * ; * @ m : @ @ : 1 - + @ @ + $ + + + + ",
": # + # < < % < +   +   + + $ $ +   + $ + + + + + % @   + + +   + @ - # - i s e y = * . v ; # z + @ - @ # # @ + + + $ + + $ + + ",
"+ + & & < & < + + $ + + + + + % & x & + + + + < & % @   $ #   l M   & @ @ ; @ @ @ @ @ . @ @ @ @ z + + % & + $ : @ + & $ + + + + ",
"+ $ + + + & + % # : + + $ + + % # : & & & +   & l   + + & % + $ & + @ + + # @ @ : < . # + < +   +   $ @ & < & # N x + + + + % + ",
"% + + # + $ < # + + + + + + + + + + $ + + + $ + + + $ $ + + : % + @ + + + @ @ @ @   + @ + + @ $ & l + + < $ # % $ < + + + $ # + ",
"+ + + & # + :   + + + + + + % +   N l + + + #   & <   + + + % &   + & %   + + < : + +   +   + $ + & + + + + # + z V + l : + < & ",
"+ + & + + + # z % + + + + $ + & + $ + + + + + % M <   + + $ + z x   + + % @ + & $ + + + $ $ + < l   $ +   & & & + $ + & @ + & z ",
"+ + + #   + + z + <   < % $ @ z $   $ +   l < + # + + + % M + & l + + + $ + +   + + + + % %   V V + + & + @ + # +   + + + # $   ",
"+ + + + + + + + l c + z $ + # : + + + + + l % x x + + + + x % l + + + +   + + $ + + $ + + + % +   % + + + c & & + + + + & & # + ",
"+ # $ @ & +   C 7.+ % + % + + % # #   $ $ +   < % + $ $ + + < < + # $ + & $ $ l $   + + # + + + $ < & & : & + + # # + + & : + : ",
"$   + @ $ + : z & & % + % + % + : + $ # M l # $ + + + + + + & l   & & + $   + + + +   $ # + + : M $ # + < &   + + $ + + &   + + ",
"+ + + $ + < $ l + + +   l % + + + + + + % $ x   + + + # + + # # + & < l # + + + & + & # & & + & < + + & & + $ < & + + + + + < + ",
"$ + & + # $ + + + + + + $ % + + + < %     +   # C : % # + + + C < # c & + + l 7.+ $ : & + # + + : % + < & + < # + + $ + + + % l ",
"+ + $ + + + + + % + $ & + + + + + l l l $   2.l l $ + $ # + + % + + + + + + + z & # + + + % $ # + # & + $ # % + + $ % + & + + + ",
"# % + # $ + + + & $ # + $ + + + + + x N l   & +     # + $ # + % $ + $ + % % + + + + $ + + + # z + + + # # l % + + + + + + + # + ",
"+ & & % + + + #   $ z + + + % % : +   # % +   # # # + + + & % % % < % % % $ < % + + + + + + + + + + + # +   x C   & + + + & : + ",
"2.# + + + + % & + +   $ + $ & # @ $ + & + + + & + $ + + + + +   % $ + + % $ + $ + + $ + + $ + + + + + + +   % <   % +   + $ $   ",
"< + l $ + + & & % $ + z # + $ & + + $ % + +   l l + + + + + + + + # + + + < + + + + # $ + $   % $ + + % + +     + + + + $ +   + ",
": # & $ + # l & +   + &   # & + + + + + + + + < & # + + + + % % + % + + + + +   + + +   + + + % # + + + + + $ +   $ + +   + + + "
};
