/* XPM */
static char *fire_up_resized[] = {
/* columns rows colors chars-per-pixel */
"64 64 234 2 ",
"   c #01000E",
".  c #0B010E",
"X  c #13040E",
"o  c #1C060D",
"O  c #1D080E",
"+  c #17080F",
"@  c #030213",
"#  c #0A0514",
"$  c #0A0916",
"%  c #070618",
"&  c #080718",
"*  c #0C0B1A",
"=  c #130611",
"-  c #1A0711",
";  c #140A14",
":  c #1C0B12",
">  c #110E1B",
",  c #190C18",
"<  c #12111E",
"1  c #1B121C",
"2  c #1C1017",
"3  c #23060B",
"4  c #240A0D",
"5  c #2C0B0C",
"6  c #290808",
"7  c #330B06",
"8  c #340C0B",
"9  c #3C0D0B",
"0  c #380E07",
"q  c #2D110F",
"w  c #3D1107",
"e  c #35120D",
"r  c #3C130C",
"t  c #3F180D",
"y  c #230C12",
"u  c #2A0E12",
"i  c #340F10",
"p  c #231116",
"a  c #2C1212",
"s  c #231219",
"d  c #2B1619",
"f  c #2C1917",
"g  c #331313",
"h  c #3B1311",
"j  c #3C1A14",
"k  c #341A18",
"l  c #151522",
"z  c #181723",
"x  c #1A1925",
"c  c #1D1D29",
"v  c #221C24",
"b  c #201F2B",
"n  c #2A1E24",
"m  c #3A1F23",
"M  c #23232D",
"N  c #2A2127",
"B  c #382528",
"V  c #252530",
"C  c #2B2B35",
"Z  c #2E2D39",
"A  c #35343E",
"S  c #420E0C",
"D  c #470F06",
"F  c #451205",
"G  c #4C1306",
"H  c #44120B",
"J  c #4C120B",
"K  c #4B180C",
"L  c #47180E",
"P  c #531404",
"I  c #5A1504",
"U  c #541B06",
"Y  c #5C1A04",
"T  c #53140A",
"R  c #5B160A",
"E  c #531C0C",
"W  c #5E1B0B",
"Q  c #431412",
"!  c #441B12",
"~  c #4B1C13",
"^  c #421C18",
"/  c #531B13",
"(  c #5B1E12",
")  c #521610",
"_  c #631506",
"`  c #651B04",
"'  c #6C1D03",
"]  c #64170A",
"[  c #631A0B",
"{  c #6A1B0C",
"}  c #6B1707",
"|  c #731B06",
" . c #731C0A",
".. c #7B1C09",
"X. c #7B1D06",
"o. c #611E11",
"O. c #5B2208",
"+. c #4B2616",
"@. c #5A2416",
"#. c #50301C",
"$. c #6A2209",
"%. c #742203",
"&. c #7C2303",
"*. c #74220B",
"=. c #7C240D",
"-. c #7D2B0B",
";. c #6B2412",
":. c #642312",
">. c #752613",
",. c #7B3C1B",
"<. c #653018",
"1. c #6B432A",
"2. c #795C3B",
"3. c #79603C",
"4. c #363643",
"5. c #413E45",
"6. c #40404B",
"7. c #494854",
"8. c #735C44",
"9. c #7D6749",
"0. c #565660",
"q. c #65656E",
"w. c #821D08",
"e. c #8A1F08",
"r. c #891D06",
"t. c #931E05",
"y. c #842503",
"u. c #8B2306",
"i. c #84230A",
"p. c #8B240A",
"a. c #8C2B09",
"s. c #882A05",
"d. c #942406",
"f. c #9B2406",
"g. c #932A04",
"h. c #9B2B06",
"j. c #932509",
"k. c #942B0B",
"l. c #9B2B0A",
"z. c #89310C",
"x. c #9B3007",
"c. c #892C14",
"v. c #943416",
"b. c #8E3810",
"n. c #A12506",
"m. c #A42C06",
"M. c #AD2E06",
"N. c #A32D0A",
"B. c #AA2809",
"V. c #B62C04",
"C. c #A43107",
"Z. c #AA3306",
"A. c #A3320B",
"S. c #AC330A",
"D. c #AB3908",
"F. c #B23306",
"G. c #BA3305",
"H. c #BB3E0B",
"J. c #B83807",
"K. c #A23A13",
"L. c #B13C10",
"P. c #813C2C",
"I. c #C33604",
"U. c #CD3D03",
"Y. c #C43A06",
"T. c #D23C02",
"R. c #96491E",
"E. c #BE440B",
"W. c #B84614",
"Q. c #A54916",
"!. c #966338",
"~. c #B8652B",
"^. c #915C2E",
"/. c #CC4708",
"(. c #D64905",
"). c #D8560A",
"_. c #C54912",
"`. c #DD5B12",
"'. c #D45613",
"]. c #CC5514",
"[. c #E25705",
"{. c #D67217",
"}. c #DA6312",
"|. c #E6690B",
" X c #E56915",
".X c #E97617",
"XX c #CC702D",
"oX c #E77924",
"OX c #E07E38",
"+X c #EF8619",
"@X c #DC8A29",
"#X c #EB8A26",
"$X c #F29726",
"%X c #F29934",
"&X c #F09130",
"*X c #F3A339",
"=X c #9F8252",
"-X c #B8854A",
";X c #99876B",
":X c #AC8C61",
">X c #CE964E",
",X c #F29F51",
"<X c #F3A84A",
"1X c #F7B856",
"2X c #F1AF51",
"3X c #D1B171",
"4X c #F6B870",
"5X c #F8C057",
"6X c #F6C369",
"7X c #F4C777",
"8X c #9D978D",
"9X c #A29883",
"0X c #B9AD94",
"qX c #BDBBB7",
"wX c #BAB5A7",
"eX c #DFB886",
"rX c #FAD586",
"tX c #F7D998",
"yX c #F0CA8D",
"uX c #FCE091",
"iX c #D5CAAC",
"pX c #E9DBB6",
"aX c #EDD3A4",
"sX c #FDE5A5",
"dX c #F9EBB7",
"fX c #FFF1BE",
"gX c #ECE2BA",
"hX c #D4D1C9",
"jX c #FDF2C6",
"kX c #FCF3CC",
"lX c #E4E1D4",
"zX c #F9EFCE",
"xX c #F5F3E8",
"cX c #EEECE2",
/* pixels */
"& %   < < % < z @ *   @ @ % < b & # M z * * l M   @ @ @ # * > > @ # # @ @ @ $ # % @ @ @ @   @ % @ % @ @ x x * % z <   @ @ & z x ",
"@ c & * & & < z   @ @ @ @ % * $ * @ Z l @ @ $ > @ $ @ @ @ @ $ $ @ # # @ @ @ @ @ @ @ @ @ % @ @ $ @   @   4.7.% % & & @ @ @ @ x & ",
"@ @ @ * z @ & * @ @ > > @ @ % > > @ @ * %   * b . # # # * = ; s = = = # # # @ @ @ % % @ % % @ % @ @ @   C 4.  @ l % @ @ @ @ * @ ",
"@ $ @ % $ @ @   @ @ @ % * % * % % @ % @ @ & $ > ; # = X d d y y y y y - = = s # # 1 @ ;   @ @ @ * % % @ @   @   % b * % @   % * ",
"@ % & @ @ @ % @ % @ @ @ @ @ % @ @ # * # V < # - - y d k +.+.#.#.+.! r j u 3 , = # 1 # @ @ & c   $ % @ @ @ @ @ @ @   l @ @ @ @ % ",
"< * < @ @ @ @ @ @ & @ @ @ < @ > # # $ # , = - y u j +.1.8.2.2.9.2.1.<./ Q 8 y y - = # # @ % # @ @   @ % % @ @ @ @ @   @ @ @ & @ ",
"@ @ @ @ @ @ @ @ % * @ @ @ @   * @ c * ; = s y i / :.,.!.;X9X8X9X=X^.P.$./ ) 9 h y y = # # @   @ @ l * @ @ % @ @ @   c * * % @ % ",
"@ @   @ % <   % % $ * @ @ @ $ @ # b # # - y 9 ) >.b.!.:X0XwXqXqX0X-XR.>.[ ) J 9 5 g : = # z @ @   > < & @ @ @ @ @   < % @ % @   ",
"@ @ l   * < M c   @ * & * @ @ @ @ @ # B y 9 ( ;.z.R.-X3XiXhXhXhXiX>X~.v.c.R J S h h y = . @ @ @ @   % % @ @ % % & @ @ @ % @ % @ ",
"  @ % @ @   V x $ @ @ @ @ @ @ @ # # - m Q T { w.R.~.@X3XiXlXlXpXaXeXXXv.c.{ ) S h i - = # % @ @ @ @ @ @ % @ @ @ < @ @ @ @ @ @ @ ",
"% % % @   % @   @ @ @ @ @ @ @ @ # = - 3 Q T ;.v.W.{.@X7XgXlXxXgXaXyXOXL.j.;.) S g g s - . , @   @ $ & % & % @ @   @ x @ % @   % ",
"% c x   @ @ * @ @ @ % & % @ # , = = d j Q )  .A.E.{.2XtXfXxXxXdXyX2XOXW.j...) h i g y - # , $ @ @ @ @   @ @ @ @ @ @ & @ @ %   % ",
"% % * % % % %   @ $ * @ % # # = = s m Q ) { i.C.].@X6XdXkXxXjXfXaX,XoXY.B.c.R Q i u - = # ; < @ @ @   % @ @ c % @ @ % @ @ & $ @ ",
"@ @ @ % > @ < * @ @ @ @   # ; n s u 3 9 T } w.S.}.#X7XdXkXjXsX7X1X*XoX'.B.c.] J 9 5 u - = @   @ @ @ x @ @ @ @ @   < @ @ $ @ @ % ",
"  % % @ % @ % $ % @ @ @ @ # ; - - y i 9 ( *.p.S.).+X6XsXjXfXtXyX2XoX`.Y.B.e.] S Q h y - = # v x $ @ % @ @ @ @ @   * % & M % $   ",
"% @ $ $ @ > @ @ % $ @ % @ @ ; - - u i S :.=.a.H./.|.$X5XsXfXsXsX1XoX[.I.B.c. .) S h u - = # 5.Z   @ @   @ @ @ @ @ % % @   % V C ",
"* & @ @ %   % @ @ @ @ < @ # X X y 4 5 S R =.j.J./..X%X5XrXuXrXtX,XoX/.I.n.r. .o.Q 9 u y ; .     @ @ @ * z @ @ @ @ @ @ @ @ @ @ & ",
"@ &   C * @ % % % & @ @ % @ = - y u ^ S { i.f.F./.|.*X5X6X7X7X4X&X[.T.I.n.r...{ ) 9 g y - X @ > % @ @ @ @ @ @ @ @ @ @ z * @ @ @ ",
"@ % % >   l *   @ >   7.0.. X y 3 u h S $.i.l.F.(.|.+X$X*X1X6X<X X(.T.I.n.j.=.} T ) h y - 2 # > @ @ @ @ @ @ % % @ @ @ z @ & c % ",
"@ % @   @ $ % @ @ $ @ c x # + o 4 g Q :.[ i.l.F.(.[.|..X$X$X%X%X`.T.I.J.n.t...] ( S 9 5 - = = = # @ @ @ $ % @ $ % @ @ @ % @ @ @ ",
"& % % % @ & $ & % % @ $ * , p a i 8 ! / ;.=.e.M./.(.[.|.|.#X&XoX(.T.V.B.t.u. .] ) S 8 u 3 : = # # # & @ @ @ @ @ @ @ @ % @ % *   ",
"c < x % & < * $ &   @ @ @ ; p d d u i S J { p.S.I.T.[.[.|.|..X}.T.I.M.n.e.....[ T E h 8 y : = # # @ % @ @ @ @ @ < x % @ @ @ * @ ",
"$ % @   % @ @ @ * @ @ > % $ = X B u 3 h J *.i.N.V.I.T.(.|.).`.'./.V.n.j.r. .] R T Q ~ u - o - # # # @ $ @   @ & $ c @ @   z * > ",
"@ @ $ @   % @ @ > @ @ z * @ # 2 = y u i @.{  .j.B.I.(.T.`.(.'./.Y.J.n.e... .{ T J S h h u o o # $ @ @ #   % & % l > @ $ * > % & ",
"$ @ @ % @ @ @ & @ @ @ @ %   1 2 , s u h @.R } r.f.V.I.(.(.U.'./.J.M.d.u.| ] ] T S H S 5 o - X # # @ @ A 4.$ % % * *   % @ %   < ",
"@ @   @ @ $ * * M @ @ & * $ @ $ = - p 8 T [  .a.d.n.B.I./.I.]._.J.Z.d.u.| R R T S i u r y : X X = @   6.0.@ % % @ > @ @ & &   % ",
"c & @   $ $ @   @   @ % @ % @ 2 ; - y r J J [ v.u.t.B.V.Y.Y.]._.F.n.u.i.z._ T T S 8 3 u p = y # # @ % @ @ * @ @ @ @ & @ * & @ @ ",
"% % @ @   @ > < @ x b   z * . $ # 2 a H r E [ | w.d.n.F.J._._.E.Z.N.p.i.b._ I :.S 8 y - = = = @ > # @ * M   @ @ @ @ l z $ @ @ % ",
"@ * % @ @ @ % < % z M   6.C   # # - 5 i r S [ *...j.n.F.H.H.W.E.C.A.w. .| _ I E h i o - = = # # $ @   < < @ & * @   % % l & @ $ ",
"* > @ c * @ @ @ > @   %   @ @ @ # y y 5 r K T _ | e.j.D.F.W.E.F.Z.A.p.} ;.{ R D S 5 u , # ; # @ > # @ @ @ @ % $ @ @ @ @ @ % % % ",
"* V   < @ @ * % % < * @ * @   . . ; : 5 8 9 P I | w.j.A.S.L.S.Z.h.k...>.P.[ R J 9 5 a = # ; #     & @ @ @ @ @ < % @ @   @ * < < ",
"z < @ @ > @ $ *   x V & z @ @ # ; 1 y o 5 9 J T  ...k.j.f.m.S.C.k.a. .{ o.R _ T K 5 y = # @ 1 < 7.% @ @ * @ % @   @ * x   > x % ",
"b $ @ @ @ @ < & @ @   & l $ @ @ 1 # X y 5 K E T } *.i.x.C.m.C.C.k.p.' R o.W R R @.5 y X # @ x * Z ; @ < % @ @   &   l x   < %   ",
"  @ @ % % z &   * x % @   l * @ @ = X - 5 H D J I ] i.j.g.C.Z.C.g.a.=.T W T T J 7 4 : - f $ @ @   M > @ $ % @ @ @ @ @ @ @   < @ ",
"@ @ @ @ @ c < @ * M   @ @ @ % @ # # ; s 5 +.9 K T ] z.j.g.D.D.h.g.i.| _ R T J S 0 3 + X + $   @ @ % % @ $ *     l x @ @ @ > M > ",
"< < > & M x @ < @ @ @ @ @ @ b * # # # : g 8 H F J { | a.x.h.h.g.g.i.-._ o.@.H 9 6 O + . 1 v # # @ @ > % @ % c b & @ @ @ @ c V > ",
"< < * @ & < @ @ @ % @   @   * & @ # # X k 6 e L J ] | y.s.g.h.g.y.X.%.{ R T Q ~ 5 d ; = . $ @ $   > l % $ @ l * @ @ % @ @ @ @ @ ",
"@ <   > @ $ $ @ @ @ & x @ @ @ @ @ . . = : o 5 r G } { s.s.x.g.g.y.| } I T W / ! e 4 ; $ z x .   % *   @ < % @     * * % @ @ $ & ",
"$ @ $ > @ c < % @ @ & M @ @ % % @ < v N X 4 h 9 J I ` &.y.g.s.g.s.%._ P G E @.! +.4 : @ * @ $ %   @ % @ $ * @ @ @ @ @ & &   % * ",
"M @   @ % *   @ l @ @ $   $ * %   z $ $ = O 5 0 E W ` | &.x.g.s.&.' :.P D K H ! u O 2 ; @ * @ * @ % $ @ > & @ <   @ @ @ @ @ % * ",
"  M * & @ x z @ % @ @ @ @ % % z     $ # X o a w L F ` ' &.y.s.s.s.' E H w w 0 7 o + p ; @ @ @   @ @ @ * $ * * c l @ @ @ @ @ @ @ ",
"  b l @ @ % % @ @     @ * @ @ & % @ * ; X ; 4 8 w F Y _ %.s.y.&.%.` G w e 6 a f a ; > 1 $ @ @ * @ % > @ @ $ * $ x $ & @ @ % @ @ ",
"@ @ @ @ @ $ $ @ @ % % @   @ @ @ & @ .   . O 4 5 7 K Y Y ' %.&.%.` U G 9 7 4 O f p . . $ . < @ * @ @ > @ @ @ < < % >   * & % @ % ",
"> * % % * @ @ l * % @   c x   & @ % @ . . X 4 5 7 O.Y $.%.%.&.%.` P F 7 3 o + ; . $ @ @ @ @ $ @ @ * * * @   % > @ % @ @ l * @ @ ",
"* @ < @ @ @ @ @ @ * @ @ & % % l   @   > 2 X O 6 e U O.Y I ` %.' I G L H 4 X X 2 ;   % @ # @ @ @ @ * * @ x > % @ @ @ @ @ * @ x * ",
"< * $ * @ >   % @ @ @ @ @ @ @ @ @ @ @ ; $ X + 6 w O.U I I ' %.$.P E +.e 4 p 2 $ * @ @   @ % % @ x <     * > & @ @ % @ % @ @ @ @ ",
"< % @ % < < $ > @   @   @ @ % $ @ @   $ . + + q w w F P I ` ' %.U F w 4 O : 1 , $   @   x * $ <   @ > % $ $ % @ @ @ % @ @ @ @ @ ",
"@   * $ < * l @ @ % @ @ @ @ @ & $ z > @ # . X q e 7 F G I Y ' Y G 7 8 4 + 2 $ @ @ @ @ @ @ @ @ % z @ @ % * @ @ < % @ * % @ @ @ @ ",
"@ % @ @   >   * @ < @ @ % @ @ % $ < $ $ ; # X a q 7 F O.$.U Y U F H 5 O X ; # @ & < @ @ @ < @ @ @   % % * < * @ V x @ @ @ @ & @ ",
"& @ @ % @ % l % @ @ @ @ @ @ @ @ @ @ % # # # + 4 3 7 e F G P I P F 7 6 o X # # # $   @ @   @ % % * l @ @ < % % * % < @ @ @ % $ @ ",
"@   @ * % @ < @ @ @ % @ @ @ & @   V l   # . : O a t 7 F F F U F F 6 y + X . @ < < @ @ @ @   @ % @ * @ @ @ @ % @ z M @ l > @ < * ",
"@ @ * % $ @ @ < *   @   @ % @ * % # @ @ . . ; : k t 6 7 G U F E t 6 4 = ; # @ * % @ @ @ % %   < l   % @   > * * @ & @ * @ @ * z ",
"@   @ @   @ @ z @ l   < $ % $ z %   @ @   1 1 + O O 6 0 F L F F e 3 + X # #   @ @   % @ & %   V V @ @ * @ @ @ $ @   @ @ @ % @ @ ",
"% @ %   % @ @ @ l c @ z @ @ & * @ @ % @ % 1 ; 1 f O 4 7 w w w w 7 4 + . # @ @ # @ @ %   @ @ %     & @ @   M * * @ @   @ * > $ @ ",
"@ % % $ * %   C q.@ & @ & @ @ * $ %   $ % . . 2 y o 6 5 t 7 e t 4 4 + . ; % $ l %   @ @ $ % @ @ % l * < > * @   & $ @ @ * >   > ",
"%   @ @ @ @ > z & * & @ & @ & @ < @ % * M < ; = X + O 6 6 7 e e 4 O 2 . # @ @ @   @ @ % % @ @ > M @ @ @ < $ @ @ @ % @ @ * @   % ",
"@ @ % @ @ < % l @ @ @   l & @ @ @   @ @ $ $ v . X + O 4 7 5 5 4 O O 2 < $ . @   * @ * $ * *   > < @ % * * % @ > * @ @ @ @ @ < @ ",
"% @ * @ & % @ @ @ @ % @ % $ @ @ @ < &   @ @   = B 2 : 4 O 4 3 m : 2 N > $ @ l q.@ % * * % & @ $ > &   l * @ < $ @ % % @ @ @ % z ",
"@ @ % @ @ @ @ @ $ @ & * @ @ @ @   l l l %   A 1 1 ; + : O O o O + # .   @ % % z * $ @ @ @ % % @ @ % >   @ * & @   % & @ * @   % ",
"$ & @ $ % @ @ @ * @ & @ % @ @ @ @ @ x C z   * #     + + O O + ; = # $ @ % @ @ @ @ @ @ @ @ @ @ x @ @ @ @ % z & @ @ @ @ @ @ @ % @ ",
"@ * * % @ @   $ @ % < @ @ @ & & * @   $ & @   $ = + @ X X : : = $ < # & & $ < * @ @ @ @ @ % @ % @ @ @ % @   x C   * @ @ @ * *   ",
"A % @ @ @ % & *   @   % @ % & $ % % @ * @ @   * # $ $ . . . #   ; % @ @ % @ @ % @ @ % %   @ @   @ @ @ @ @ @ & <   & @   @ % % @ ",
"< @ l %   @ & * * % @ z % @ % * @ @ % * @ @   z z   . @ # # @ @ @ % @ @ @ <   @ @ @ $ @ @ % @ & % @ @ % @ @     @ @ @ @ % @   @ ",
"> $ * % @ % l * @ @ @ *   % > @ @ @ @ @ @   @ < > >     @ @ $ & @ & @ @ @ @ @ @ @ @ @ @ @ @   % $ @ @ @ @ @ % @   % @ @   @ @ @ "
};
