/* XPM */
static char *Unique_character_pixel_art__pixel_nft__pixel_art_nft_resized_resized[] = {
/* columns rows colors chars-per-pixel */
"64 64 240 2 ",
"   c #37181E",
".  c #362C1A",
"X  c #2D301F",
"o  c #081A39",
"O  c #171B3D",
"+  c #080C2E",
"@  c #391D29",
"#  c #3C1B32",
"$  c #2E1C2A",
"%  c #082339",
"&  c #132F31",
"*  c #2A2926",
"=  c #37262B",
"-  c #3A252C",
";  c #372726",
":  c #363723",
">  c #3A2334",
",  c #372837",
"<  c #27373A",
"1  c #3A3337",
"2  c #2B2A35",
"3  c #441B1D",
"4  c #472319",
"5  c #57341A",
"6  c #552C1A",
"7  c #421E36",
"8  c #481A29",
"9  c #43252D",
"0  c #42292A",
"q  c #472725",
"w  c #592929",
"e  c #47382A",
"r  c #43223A",
"t  c #482737",
"y  c #453735",
"u  c #572F35",
"i  c #61322C",
"p  c #165B3E",
"a  c #095F3C",
"s  c #375928",
"d  c #2A5D3A",
"f  c #365A35",
"g  c #2F5330",
"h  c #1B6739",
"j  c #316933",
"k  c #475C3D",
"l  c #524D3B",
"z  c #715232",
"x  c #41682F",
"c  c #684E1B",
"v  c #211D45",
"b  c #092743",
"n  c #162947",
"m  c #173956",
"M  c #133952",
"N  c #232244",
"B  c #3D2A42",
"V  c #253648",
"C  c #3C3B45",
"Z  c #383A4B",
"A  c #2A3A56",
"S  c #393B58",
"D  c #3A3A64",
"F  c #443647",
"G  c #423D5B",
"H  c #4D2C42",
"J  c #633E46",
"K  c #433965",
"L  c #543B6E",
"P  c #195749",
"I  c #17455D",
"U  c #134C52",
"Y  c #384E45",
"T  c #295C4A",
"R  c #375749",
"E  c #284858",
"W  c #35475A",
"Q  c #2A5856",
"!  c #33545F",
"~  c #2B474B",
"^  c #126A58",
"/  c #27674A",
"(  c #366547",
")  c #3B765D",
"_  c #1D4867",
"`  c #374768",
"'  c #2D596C",
"]  c #385769",
"[  c #334D72",
"{  c #227D6E",
"}  c #4E5448",
"|  c #444656",
" . c #524E4F",
".. c #6D5246",
"X. c #426344",
"o. c #437C57",
"O. c #4D6B52",
"+. c #484866",
"@. c #43557E",
"#. c #40546D",
"$. c #517A64",
"%. c #815844",
"&. c #F17F5B",
"*. c #D37067",
"=. c #2B9237",
"-. c #37933B",
";. c #36853D",
":. c #488634",
">. c #3C8A49",
",. c #36954F",
"<. c #2D8557",
"1. c #358A53",
"2. c #339052",
"3. c #388761",
"4. c #2F8761",
"5. c #468844",
"6. c #518548",
"7. c #468457",
"8. c #5F8B5A",
"9. c #BF8E66",
"0. c #CC8A77",
"q. c #DA9876",
"w. c #CC8C68",
"e. c #FD9A73",
"r. c #EC9470",
"t. c #C7A974",
"y. c #DBAE77",
"u. c #EDA571",
"i. c #FAD87F",
"p. c #3B5882",
"a. c #7FF9FE",
"s. c #B1B094",
"d. c #B8BEB0",
"f. c #D79B8A",
"g. c #CB9688",
"h. c #F59984",
"j. c #C7AC96",
"k. c #D4AD99",
"l. c #E2B18B",
"z. c #CEB3A4",
"x. c #EEBEA9",
"c. c #EBBCB5",
"v. c #F7BCB7",
"b. c #B4D3A7",
"n. c #A9E1BC",
"m. c #D4D79E",
"M. c #D1CF93",
"N. c #FFC78B",
"B. c #ECC996",
"V. c #F9C897",
"C. c #F4D99E",
"Z. c #EADB96",
"A. c #C3E89A",
"S. c #D7C8AA",
"D. c #CBD4A2",
"F. c #D6D5A6",
"G. c #CBC7BB",
"H. c #DCC9B7",
"J. c #D9D7B7",
"K. c #CAC2AF",
"L. c #E7CBA3",
"P. c #FBCCA7",
"I. c #F6D7A7",
"U. c #E5CAB5",
"Y. c #FACCB4",
"T. c #E6D6B8",
"R. c #E9D5A6",
"E. c #DBE2B8",
"W. c #D2E4AC",
"Q. c #DCBDC2",
"!. c #EBBACD",
"~. c #9FC3D7",
"^. c #9AD9DC",
"/. c #A4D4DD",
"(. c #A4DCD4",
"). c #B0D4D3",
"_. c #8DEBCC",
"`. c #8EE5DD",
"'. c #B8E5DD",
"]. c #9CCEE2",
"[. c #9DDBEC",
"{. c #9AD7E8",
"}. c #93D4EE",
"|. c #A2CAE4",
" X c #A4D4E5",
".X c #A8D7E3",
"XX c #A2D5EA",
"oX c #A7D9E8",
"OX c #B4DEEA",
"+X c #A6DAF6",
"@X c #8AE6EB",
"#X c #9BE4E9",
"$X c #95F3EB",
"%X c #9AF4ED",
"&X c #90F7E4",
"*X c #8AE9F9",
"=X c #94E4F3",
"-X c #94ECF5",
";X c #9BECF4",
":X c #95E6FB",
">X c #9BE6FE",
",X c #96EEFE",
"<X c #9AEDFF",
"1X c #9CE4F5",
"2X c #8DF3F6",
"3X c #86F6FD",
"4X c #8CF3FE",
"5X c #87F8FA",
"6X c #93F2F5",
"7X c #9CF2F4",
"8X c #93F1FD",
"9X c #9BF2FD",
"0X c #9BFBFE",
"qX c #94F9F9",
"wX c #A8E9E6",
"eX c #B7E5E5",
"rX c #A5E3F6",
"tX c #A3EBF4",
"yX c #A4E6FE",
"uX c #AAE4FE",
"iX c #A2EAFE",
"pX c #ABEBFE",
"aX c #ABE5F4",
"sX c #BBE7FE",
"dX c #A3F2FE",
"fX c #ACF3FF",
"gX c #A3F7FC",
"hX c #B9F9FF",
"jX c #C9CBCE",
"kX c #D8C9C6",
"lX c #DBD7C7",
"zX c #CCD2D6",
"xX c #E2D8C8",
"cX c #FAD2C0",
"vX c #EDCFC9",
"bX c #DDE3D7",
"nX c #FFFADA",
"mX c #F2EBCF",
"MX c #C3E8EC",
"NX c #FAF8EC",
/* pixels */
"<X<X<X<X<X<X<X<X<X<X<X<X<X<X<X<X3X4X4X4X8X8X8X,X<X<X<X>X<X<X<X<X<X<X<X<X<X<X<X<X<X<X<X<X<X,X<X<X<X<X<X<X<X<X<X<X<X<X<X<X<X<X<X<X",
"<X<X<X<X<X<X<X<X<X<X<X<X<X<X<X<X8X,X,X,X,X,X<X<X<X<X<X<X>XtX<X<X<X<X<X<X<X<X<X<X<X<X<X<X<X<X<X<X<X<X<X<X<X<X<X<X<X9X<X<X<X<X<X<X",
"<X<X<X<X<X<X<X<X<X<X<X<X<X<X9X,XiXiX>XiXiX>X<XiXiX<XiX<X<X<X<X<X<X<X<X<X<X,X<X<X<X<X<X<X<X<X<X<X<X<X,X<X<X<X<X<X<X,X<X<X,X<X<X<X",
"<X<X<X<X<X<X<X<X,X<X<X<X<X<X<X<XpXuXiXyXiXiXiX>X<X<X<X<X,X,X,X<X<X<X<X<X<X<X<X<X<X<X<X<X<X<X<X<X<X<X<X<X<X<X,X<X<X<X<X<X<X<X<X<X",
"<X<X<X<X<X<X<X<X<X<X<X<X<X<X<X<XiXiXiXtXiX<X<X,X,X,X,X,X,X8X,X,X<X<X<X<X<X<X<X<X,X<X<X<X<X<X<X,X<X<X<X<X<X<X<X<X<X<X<X<X<X<X<X<X",
"<X<X<X<X<X<X,X<X<X<X<X<X<X<X<X<XiX>XiX,X,X,X,X8X8X6X8X8X,X<X<X9X<X<X<X<X<X<X<X<X9X<X<X<X<X<X<X<X<X9X<X,X<X<X<X<X<X<X<X,X<X<X<X<X",
"<X<X<X<X<X9X<X<X<X<X<X<X<X<X<X<X<X<X<X,X,X8X8X,X8X8X,X9X<X<X>X>X<X<X<X<X<X<X9X<X<X<X<X<X<X<X<X<X<X<X<X<X<X<X<X<X<X<X<X9X<X<X<X<X",
"<X<X<X,X<X<X<X<X<X<X<X,X<X<X<X<X<X<X<X<X,X<X8X,X<X<X<X>XiXyXiXyX<X<X<X<X<X<X<X<X<X<X<X<X<X<X<X<X<X<X<X<X<X<X<X<X<X<X<X<X<X<X<X<X",
"<X<X<X<X<X<X<X<X<X<X<X<X9X<X<X<XyXiX>X<X>XdX:X<X>X<X>X>XiXiXiXyX<X,X<X9X9X<X<X9X<X<X<X<X<X<X<X<X<X<X<X<X<X<X<X<X<X<X<X<X<X<X<X<X",
"<X<X<X<X<X<X<X<X<X<X<X<X<X<X<X<X>XiXiXdXiX>X>X<X<X<X<X<X<X>X<X>X<X<X<X<X<X<X:X<X<X<X<X<X<X<X<X<X<X<X<X<X<X<X<X<X<X<X<X<X<X<X<X<X",
"<X<X<X<X<X<X<X<X<X<X,X<X<X<X<X<X>X<X>X:X<X,X<X<X9X9X,X8X8X8X3X4X<X<X<X<X<X<X<X<X<X<X<X<X<X<X<X<X<X<X<X<X9X<X<X<X<X<X<X<X<X<X<X<X",
"<X<X<X<X<X,X<X<X<X<X<X<X<X<X,X<X,X,X,X9XgX9X9X-X-X-X2X2X2X5X2X5X<X<X<X<X<X<X<X<X<X<X<X<X<X<X<X<X<X<X<X,X<X<X<X<X<X<X,X<X<X<X<X<X",
"<X,X<X<X<X<X<X<X<X<X<X<X<X<X<X<X4X8X8X,X@X-X=X7XgXtXgXgX7X7X7X0X<X<X<X<X<X<X<X<X<X<X<X<X<X<X,X<X<X<X<X<X<X<X,X<X<X<X<X<X<X<X<X<X",
"<X9X<X<X<X<X<X<X<X<X<X<X<X<X<X<X3X*X8X-XdXhX^. X/./././././.{.oX<X9X9X<X<X<X9X<X<X<X<X<X<X<X<X<X<X<X,X<X<X<X<X<X<X<X<X,X,X<X<X<X",
"<X<X<X<X,X<X<X9X<X<X<X,X<X<X<X<X0X8X9XiXaX/.] V S Z C Z S Z S | =X,X<X,X,X,X<X<X<X<X<X<X<X<X9X<X<X<X<X<X<X<X<X<X<X<X<X<X<X<X<X<X",
"<X<X<X<X<X<X<X<X<X<X<X<X<X<X<X<X,X=XtXaXOX~.V 2 , > > r # # r H @X}.:X=X=X:X:X<X<X<X<X<X<X<X<X<X<X<X<X<X<X<X<X<X<X<X<X<X<X<X9X<X",
"<X<X<X<X<X<X<X<X<X<X<X<X<X<X<X<X7X9XdX+X` , . . ; ; t 7 t 9 9 - F F u u u | /.9X8XiXuXrX<X4X,X>X<X<X<X<X,X<X<X<X<X<X<X<X<X<X<X<X",
"<X<X<X<X<X<X<X<X<X<X<X<X<X<X<X<X;X-XiX+XA = q . ; > t t t 9 = @ # > @   @ | ~.fX<XiXiXiX<X,X,XiX<X<X<X<X<X<X<X<X<X<X,X<X<X<X<X<X",
"<X<X<X<X<X<X<X<X<X<X<X<X<X<X,X<XtX<XiX+XS - q ; 2 , # 7 r , , B # , = y 0 ; S I 1X>XiX,X9X9X<XiX,X9X<X<X<X<X<X<X<X<X<X<X<X<X<X<X",
"<X<X,X<X<X<X<X<X<X,X<X<X9X<X<X<XfXiXfXoXZ # 9 = B B r H t y , B u = X ; q t B A [.<X9X-X-X8X<XyX<X<X<X<X<X<X<X<X9X<X<X<X<X<X<X<X",
"<X<X<X<X,X<X<X<X<X<X<X<X<X<X<X<XdX<XsXoXS 7 9 = B 2 # 8 q - , , - ; X . 4 8 # A +X<X7X6X-X9X<XyX<X<X<X<X<X<X<X<X<X<X9X<X<X<X<X,X",
"<X<X<X,X<X<X<X<X<X<X<X<X<X<X<X9X9X,XiXoXB 7 9 = 1 $ J i 6 5 e y y e e e w H B [ +X,X9X-X6X6X<XiX<X<X<X<X<X,X<X<X<X,X<X<X<X<X<X<X",
"<X<X<X<X<X<X<X<X<X<X<X<X<X,X<X<X4X4X9XoXC - 9 = 2 y z.L.B.L.U.H.G.K.S.c.v.!.). X>XiXiX;X8XqX,XiX<X<X<X<X<X<X<X<X<X<X<X<X<X<X<X<X",
"<X<X<X<X<X<X<X9X<X<X<X<X<X<X<X<X3X3X9XoXC - - = * t Y.P.V.B.B.H.lXT.Y.v.v.kXMXdX9XiXrXyX6X,X,XiX<X<X<X<X<X<X<X<X<X<X<X<X<X<X<X<X",
"<X<X<X<X<X<X<X<X<X<X<X<X<X<X<X<X3X3X9XwX1 @ 0 ; * y U.B.z c z z U.U.z z .. .oX4X,X<XuXyX,X8X,X>X<X<X<X<X<X<X<X<X<X<X<X<X,X<X<X<X",
"<X<X<X<X<X<X<X<X<X<X<X<X,X<X<X<X4X4XdX.XC q q - * y H.S.z z l ..v.c.z z J O.^.0X3X,XyX>X<X8X,X<X<X<X<X<X<X<X<X<X<X<X<X<X<X<X<X<X",
"<X<X<X<X<X,X<X<X<X,X<X<X<X<X<X<XdX9XiX~.F 8 q 0 = 1 kXmXnXmXt $ *.0.mXmXg & ^.,X4X4X>X>X<X<X<X<X<X<X<X<X<X<X<X<X<X<X<X<X<X<X<X<X",
"<X,X<X<X<X<X<X<X<X9X<X<X<X<X<X<XyX<XfXOXy 3 w q ; , Q.lXNXNX .H *.0.nXmXs Y (.gX4X4X,X<X<X<X<X<X<X<X<X,X<X<X<X<X<X<X<X<X<X<X<X<X",
"<X<X<X,X<X<X<X<X<X<X<X<X<X<X<X<XpXiX>XoX1 u f.f.4 4 xXxXlXxXQ.!.*.9.R.E.s.jXeX;X4X4X,X,X,X,X<X<X<X9X,X<X<X<X<X<X<X<X<X<X<X<X<X<X",
"<X<X<X<X<X<X<X<X<X<X<X<X<X,X<X<XiX9X<XpXC 4 f.q.5 5 S.J.vXT.Y.v.*.w.M.T.T.bXMX#X4X,X,X<X,X;X<X<X<X<X<X<X,X<X<X<X<X<X<X<X<X<X8X<X",
"<X<X<X9X<X<X<X<X<X<X<X<X<X<X<X<XdX8X4X=X< 3 q.u.t.t.I.R.I.B.q.&.B.B.I.P.Y.kX'.dX8X<XiXiX7X6X,XiX<X<X<X<X<X<X9X<X<X<X<X<X<X<X<X<X",
"<X<X<X<X<X<X<X<X<X<X<X<X<X<X<X<X9X4X5X=X~ e q.u.u.y.B.C.I.N.r.r.Z.C.V.V.Y.lXeX;X8X>XyX<X6X6X6XiX<X<X<X<X<X<X<X<X<X<X<X<X<X<X<X<X",
"<X<X<X<X<X<X<X<X<X<X<X<X<X<X,X<X<X>X9X@X_.n.k.h.e.u.i.Z.I.R.W.A.P.Y.cXP.Z.W.wXdXyXiX<X,X>XyX6X5X,X<X<X<X<X<X<X<X<X<X<X<X<X<X<X<X",
"<X9X<X<X<X,X<X<X<X<X<X<X<X<X<X<XdX<X9X6X_.n.s.g.y.t.M.M.F.H.F.D.L.H.J.F.D.b.wX9X<X>X,X,X<XiX7X2X,X<X<X<X,X<X<X<X<X<X<X<X,X<X<X<X",
",X<X<X<X<X<X<X<X<X,X<X<X<X<X<X<X:XiXiX@X4./ f  .l s j j } } } l s f f j s 7.`.0X,X<X,X,X>XtX;X6X<X<X<X<X<X<X<X<X<X<X<X<X<X<X<X<X",
"<X<X<X<X<X<X<X<X<X<X<X<X<X<X<X<XyXiX<X*X^ a p / Q P / P / T R } j h P h s / @X4X4X-X7X6X<XtXtX;X<X<X<X<X<X<X<X<X<X<X<X<X<X<X9X<X",
"<X<X<X<X<X<X<X<X<X<X<X<X<X<X<X<XaXiXiX=X^ h h P Q Q T T ) o.3.o.j 1.<.o.g R ;XqX8X;X7X;X;X<XyXyX<X<X<X<X<X<X<X<X<X<X<X<X<X<X<X,X",
"<X<X<X<X<X<X<X<X<X<X9X<X<X<X<X<XwXiX9X{.( s x j Q Q R d 1.2.2.,.:.,.3.o.k O.wX9X,X;X;X;X-X<XiXyX<X<X<X<X<X<X<X<X<X<X<X<X<X<X<X<X",
"<X<X<X<X<X<X<X,X<X<X<X<X<X<X<X<X%X8X8XeXs.t.M.b.R T R g ;.-.=.=.:.>.<.8.D.G.sX:X,XtXrX<X8X,X>XyX<X<X<X<X<X<X<X<X,X<X<X<X<X<X<X<X",
"<X<X<X<X<X<X<X<X<X<X<X<X<X<X<X,X5Xa.3XeXk.e.N.D.( / d d ;.-.-.-.:.,.2.6.F.T.eXdX,XiXyX<X4X4X>XyX<X<X<X<X<X<X<X9X<X<X<X<X<X<X<X<X",
"<X<X<X<X<X<X<X<X,X<X<X<X<X<X<X9X5Xa.3XOXk.e.l.Z.d P / p 5.5.>.7.:.2.2.5.m.E.'.6X8XiXiX,X4X4X>XyX,X<X<X<X<X<X<X<X<X<X<X<X,X<X<X<X",
",X<X<X<X<X<X<X<X<X<X<X<X<X<X<X<X<X5X4XaXk.e.N.F.T a Q R $.$.o.o.7.4.<.7.W.E.'.$X8X>X>X,X4X4X<XiX<X<X<X<X<X<X<X<X<X<X<X<X<X<X<X<X",
"<X<X<X<X<X<X<X9X<X<X<X<X<X<X<X<XpX,X,XeXk.u.V.S.p % W | W W ! ' ~ Q P } F.E.eXdX-XiXiX8X8X6X$X$X<X<X<X<X<X<X,X<X<X<X<X9X<X<X<X<X",
"<X<X<X<X<X<X<X,X<X<X<X<X<X<X<X<XpX-X-XeXj.u.P.S.* & W L G ` ` E G S W | H.xXeXiX<XiX<X,X-X$X$X$X<X<X<X<X<X<X<X<X<X<X<X<X<X<X<X<X",
"<X<X<X<X<X<X<X<X<X<X<X<X<X<X<X<X7X-X;X'.j.l.Y.G.2 & G +.@.[ [ ` L L K +.kXxXOXiXiXiX<X9X6X;X$X$X<X<X9X<X<X<X<X<X<X<X<X<X<X<X<X<X",
"<X<X<X<X<X<X<X<X<X<X<X<X<X<X<X<X6X-X;XeXd.z.xXjXV O G D p.[ [ ` K D K +.jXMXpX<X>XtX;X,X;XtX<X4X<X<X<X<X<X<X<X<X<X<X<X<X<X<X,X<X",
"<X<X<X<X,X<X<X<X<X<X<X<X<X<X<X<X<X9X,XwX(.(.eX/.m v D @.|.>XrX/.+.` ` [ ).wX0X*X8X,X7X<XiXuXiX,X<X,X<X<X<X<X<X<X9X,X<X<X<X<X<X<X",
"<X<X<X<X<X<X<X<X<X<X,X<X<X9X<X<X>XiX>X7X%X&XqX}.m v K @.+X<X6X#X! _ _ ' ).tXqX3X4X6X6X,XyX+XuX,X<X<X<X<X<X<X<X<X<X<X<X<X<X<X<X<X",
"<X<X<X<X<X<X<X<X<X<X<X<X<X<X<X<X4X<X,X,X2X4X0X[.M n D ' 1X9X5X*X] W I ' [.fXdX8X8X8X8X<XiXuXuXuX<X<X<X<X<X<X<X<X,X<X<X<X<X<X<X<X",
"<X<X<X,X<X<X<X<X<X9X<X<X<X<X<X<X,X9X<X<X,X6X7X{.n 2 S ] [.@X0X@X+.E ` ' ^.tXiX9X,X8X8X,X<XiXuXuX<X<X<X<X<X<X<X<X<X<X<X<X<X<X,X9X",
"<X<X<X<X<X<X<X,X<X<X<X<X<X<X<X<X,X<X>X<X-X6X9X XV N D ` sXhX>X=X+.+.` ` sXMX1X9X<X6X8X8X,X;X<X,X<X<X<X<X<X<X<X<X<X<X<X<X<X<X<X<X",
"<X<X<X<X<X<X<X<X,X<X<X<X<X,X<X<X>XiXiXiX<X9XiX XA v D ` ~.XXpXrX+.K S ` |.+XpXdX<X8X8X4X8X8X8X8X<X<X<X<X<X<X<X<X<X<X<X<X<X<X<X<X",
"<X9X<X<X<X<X<X<X<X<X<X<X<X<X<X<X>XiX>XiX<X,X<XXXb + o o b M aXXXN + O o b I }.iX<X,X8X8X4X8X4X4X<X<X<X<X<X<X<X<X<X<X<X<X<X<X<X<X",
"<X<X<X<X<X<X<X<X<X<X<X,X<X<X<X<X<X>X>X9X9X6X9X[.M o n n o I +XuXn b b b % I {.pX>X9X,X8X8X8X8X8X<X<X<X<X<X<X<X<X<X<X<X<X<X<X<X<X",
"<X<X<X<X<X<X<X<X<X<X<X9X<X<X<X<X,X<X,X8X4X2X8X;X[.].+X|.}.[.iXiXXXoXXX].+X{.pXiXiX<X<X<X9X<X<X,X<X<X<X<X<X<X,X<X<X<X<X<X<X<X<X<X",
"<X<X,X<X<X<X<X<X<X<X<X<X<X<X<X<X<X8X,X8X3X2X0X-X=XiXaXuXpXiXdX<XiXtXdXiXfXdX>XdX>XiX>XiX>XiX<XiX,X<X<X<X9X<X<X<X<X<X<X<X<X<X,X<X",
"<X<X<X<X<X<X<X<X<X<X<X<X<X<X<X<X<X,X,X8X4X4X4X6X9X-X<X<X<X<X,X8X-X9X-X8X<X,X<XiXiX<XiXiXiXiXiXiX<X<X<X<X<X,X<X<X<X<X9X<X<X<X<X<X",
"<X<X<X<X<X<X<X<X<X<X<X<X<X<X<X<XiX<X,X8X8X8X,X,X8X6X9X<X<X,X8X8X6X6X8X6X8X<X<X<X<X>X>X<XiX>X>X<X<X<X<X<X<X<X<X<X,X<X<X<X<X<X<X,X",
"<X<X<X<X9X,X<X<X<X,X<X<X<X<X<X<XiXiX<X<X<XiX>X<X,X8X8X<X<X>X<X8X6X,X6X,X,X,X<X<X<X<X<X<X9X,X,X,X<X<X<X<X<X<X<X<X<X<X<X<X<X<X<X<X",
"<X<X<X<X<X<X<X<X<X<X<X<X,X<X<X<XuXiXiX>XiXyXpXiX,X,X8X<X<XiX<X8X<X<X<X<X<X<X,X<X,X,X,X,X8X8X8X8X<X<X<X<X<X<X<X<X<X<X<X<X<X<X<X<X",
"<X<X<X,X,X<X<X<X<X<X<X<X<X<X<X<XyXiX<X<XiXuXuXyX<X,X,X<XiXiX>X<X<XiX<X<X<X<X<X<X,X8X,X8X8X,X8X8X8X<X<X<X<X<X<X<X<X<X<X<X<X<X<X<X",
"<X<X<X<X<X<X<X<X<X<X<X<X<X<X<X<X<X<X8X,X>XuXuXiX,X4X8X<XyXiX<X<XiX<XiX>X<X>X<X<X<X<X<X,X,X,X,X9X<X<X<X<X<X<X<X<X<X<X<X<X<X<X<X<X",
"<X<X<X<X<X<X<X<X<X<X,X<X<X<X<X<X8X8X4X8X9XyXuXiX8X4X3X<XiXiXiX8X,X<X<X<X<X<X,X<X<X<X<X<X>X<X>XiX<X<X<X<X<X<X<X,X<X<X<X<X,X<X<X<X",
"<X<X<X<X<X<X<X<X<X<X<X<X<X<X9X<X8X4X3X4X,XiXiX>X8X4X4X,X>XiX<X,X<X;X<X,X<X,X<X,X<X<X>XiXiXiXiXiX<X<X<X<X<X<X<X<X9X<X<X<X<X<X<X<X"
};
