/* XPM */
static char *Premium_Vector___Stone_texture_in_brown_colors_seamless_pattern_background__resized_resized[] = {
/* columns rows colors chars-per-pixel */
"64 64 250 2 ",
"   c #5D320E",
".  c #5B2C04",
"X  c #632E08",
"o  c #6C3504",
"O  c #65340C",
"+  c #6B350C",
"@  c #69370A",
"#  c #733B0E",
"$  c #763B0B",
"%  c #6C3C13",
"&  c #6B3D1C",
"*  c #663715",
"=  c #743E12",
"-  c #743D1B",
";  c #7A3F19",
":  c #6C3D2D",
">  c #76410B",
",  c #7B440D",
"<  c #6D421C",
"1  c #6A4113",
"2  c #754214",
"3  c #7B4214",
"4  c #73431B",
"5  c #7A451B",
"6  c #7D491C",
"7  c #75491B",
"8  c #6F4322",
"9  c #744322",
"0  c #7C4425",
"q  c #754A25",
"w  c #7C4B23",
"e  c #7C4B29",
"r  c #78462A",
"t  c #7C512D",
"y  c #7F5026",
"u  c #7A4C34",
"i  c #7C4D45",
"p  c #814515",
"a  c #854C16",
"s  c #824B1C",
"d  c #884A1B",
"f  c #84511B",
"g  c #8C531D",
"h  c #885017",
"j  c #894D17",
"k  c #834D24",
"l  c #8A4F22",
"z  c #844D2C",
"x  c #834625",
"c  c #855123",
"v  c #8A5324",
"b  c #85532B",
"n  c #8B552B",
"m  c #8D592B",
"M  c #8A5924",
"N  c #925524",
"B  c #935A24",
"V  c #935B2C",
"C  c #9A5C2C",
"Z  c #94562A",
"A  c #854D34",
"S  c #845533",
"D  c #8B5434",
"F  c #855A35",
"G  c #8C5C34",
"H  c #8C5C3B",
"J  c #855539",
"K  c #935C32",
"L  c #9B5D33",
"P  c #945C3B",
"I  c #9A5D3A",
"U  c #925431",
"Y  c #A25F33",
"T  c #96632C",
"R  c #9B622D",
"E  c #986025",
"W  c #8E633E",
"Q  c #956234",
"!  c #9C6334",
"~  c #9D6A33",
"^  c #94633B",
"/  c #9B643B",
"(  c #9C693C",
")  c #94683C",
"_  c #9C723E",
"`  c #85612F",
"'  c #A4672D",
"]  c #A26534",
"[  c #A46936",
"{  c #A96C35",
"}  c #A3663A",
"|  c #A46B3C",
" . c #AA6D3C",
".. c #A96536",
"X. c #B16E3B",
"o. c #AB733C",
"O. c #A8743A",
"+. c #B4743E",
"@. c #B47D3E",
"#. c #BB7939",
"$. c #C27A39",
"%. c #885A45",
"&. c #965D40",
"*. c #946543",
"=. c #9C6B43",
"-. c #966946",
";. c #9E734A",
":. c #9C7351",
">. c #8F6944",
",. c #A36C43",
"<. c #AB6E42",
"1. c #A46D4A",
"2. c #A56945",
"3. c #A57344",
"4. c #AC7344",
"5. c #AE7A46",
"6. c #A4734B",
"7. c #AC744B",
"8. c #AD7A4E",
"9. c #A3784A",
"0. c #B37544",
"q. c #BC7642",
"w. c #B57A44",
"e. c #BC7B44",
"r. c #B4764B",
"t. c #B47B4C",
"y. c #BB7D4B",
"u. c #BC774E",
"i. c #A37452",
"p. c #AC7553",
"a. c #AC7B53",
"s. c #A97A55",
"d. c #B47C52",
"f. c #BB7D53",
"g. c #B47B57",
"h. c #B06D42",
"j. c #B07F61",
"k. c #C27D46",
"l. c #C27E4B",
"z. c #C87F48",
"x. c #BD843E",
"c. c #C6833D",
"v. c #BC8344",
"b. c #B5834D",
"n. c #BD824D",
"m. c #BD8A4D",
"M. c #B48246",
"N. c #AF875D",
"B. c #B58153",
"V. c #BC8354",
"C. c #BD8A53",
"Z. c #B5835B",
"A. c #BB855A",
"S. c #BD8A5B",
"D. c #B78C58",
"F. c #AF8249",
"G. c #BB8B62",
"H. c #B78564",
"J. c #BD926A",
"K. c #C48246",
"L. c #C3844D",
"P. c #CA864D",
"I. c #C48A4D",
"U. c #CA8A4D",
"Y. c #C78646",
"T. c #D28B4B",
"R. c #C8914E",
"E. c #C38552",
"W. c #CA8652",
"Q. c #C58A54",
"!. c #CA8B54",
"~. c #C2865A",
"^. c #C48B5B",
"/. c #CA8D5B",
"(. c #CD8658",
"). c #D18C54",
"_. c #D08E5A",
"`. c #C59254",
"'. c #CC9254",
"]. c #C5925C",
"[. c #CC925C",
"{. c #CB995C",
"}. c #D29355",
"|. c #D2935D",
" X c #D5985B",
".X c #D9904C",
"XX c #C48D62",
"oX c #CA8D63",
"OX c #C98C68",
"+X c #C69264",
"@X c #CC9363",
"#X c #CC9962",
"$X c #C4936B",
"%X c #CA946B",
"&X c #CC9A6B",
"*X c #C69A65",
"=X c #D29563",
"-X c #D39B65",
";X c #DA9D63",
":X c #D2956A",
">X c #D39B6B",
",X c #DB9E6C",
"<X c #D89666",
"1X c #CC9B71",
"2X c #C59874",
"3X c #D49E72",
"4X c #D79B72",
"5X c #C88E6B",
"6X c #E19C61",
"7X c #CCA26A",
"8X c #D5A26D",
"9X c #DAA46D",
"0X c #D7A468",
"qX c #CCA177",
"wX c #D4A574",
"eX c #DCA574",
"rX c #DDAA73",
"tX c #DBA47A",
"yX c #DDAA7A",
"uX c #D5A77B",
"iX c #E2A96B",
"pX c #E2A573",
"aX c #E3AB74",
"sX c #E3AD7C",
"dX c #EBAC78",
"fX c #E4B17D",
"gX c #EBB47C",
"hX c #E9B578",
"jX c #F2BD7D",
"kX c #EAAF70",
"lX c #F3C17C",
"zX c #DDAB82",
"xX c #DFB186",
"cX c #E3AE82",
"vX c #E5B283",
"bX c #E9B583",
"nX c #EBBA8A",
"mX c #E8B986",
"MX c #F2BD86",
"NX c #F1BD8D",
"BX c #F0B688",
"VX c #EABD91",
"CX c #F3BF91",
"ZX c #F5C28D",
"AX c #F8C287",
"SX c #F5C393",
"DX c #FDCB9C",
"FX c #FAC897",
"GX c #EEC291",
"HX c #FFD1A0",
/* pixels */
"y.y.w.q.e.k.n.t.g.q - 9.$X{.{.`.S.S.8.! 2 =.-.1   . q 8.[.Q.Y.P.Y.L.).e.W.l.Z L /.l.~.W.!.!.e.!.U.Y.I.I.I.o.B V.d.t.A.7.V d.OXOX",
"y.y.e.e.e.e.w.4.a.+ H VXHXSXAXlXSXZXSXNXV eXzXzXa.9 ) S.V.L.).P.W.l.L./.(.f...N /.~.E.E.L.L.[.!.Y.I.L.!.y.O.T 4.b.4.4.n ~.BXOXr.",
"w.q.q.e.e.q.w.f.r.X a.DXvX`.M.v.C.B.].>Xm c a.=.qXt 9.$X^.L.T.Y.!.W.V./.~.f.d.# ! @X^.V./.E.n.L.W.V.[.V.b.3 o Q ( [ T > wX,X0.~.",
"e.e.e.#.q.k.L.(.| + A.bX].I.R.R.^.E.V.n.^.> / 7.$Xm a.A.#X!.k.P.E.!.E.~.f.V.V.6 2 d.XXA.B.4.| t.r.#X4.| v v 5.| v M # > ZX'.5.L.",
"k.e.q.#.k.q.l.E. .# d./.V.!.K.Y.E.E.I.t.y.} 3 d.XX^ A.B.^.L.Y.T.E.n.~.=X@Xd./ 6 6 b S.+X( T Q v Q D L 6.m CXmXwXrX8XO., MX0X`.I.",
"+.q.k.q.q.k.u.u.C + r.~./.!.K.P.n.L.L.!.n.!.g c Z.^ +XXXn.W.).Y././.Q.4.L Q 3.%XF 1 Q 6.Q Q G Q k 4 / U $XvXF.].].{.rX~ AXMX'.'.",
"+.e.l.k.k.l.u.h.U ; A.oXE.q.k.k.I.!.k.L.!.E.y.6 V m B.+XC.!.!.K.n.+.O.| B.&XXXZ.V.Q % 1 w 7 2 M d.tXA.k bXd.+Xb.C.b.^.B 0XiXO.n.",
"L.E.E.u.u.u.g.2.U ; d.V.u.l.=Xz.P.P.!.!.W.!.E.| = m <.d.[.Q.k.).!.L.!.|.^.^.S.A.A./ m D.eXfXNXbX4XA.A.n oX~.^.^.V.^.`.C [.-X+.^.",
"w.y.r.r.r.7.2.7.b k Z.A.S.~.l.(.P.+.P.L.L.E.oXu.L = n ^.E.L.W.Y.L.!.!.I.E.E.^.S.A.| m SXSX8X/.V.t.~.@XZ | 9Xn.E.E.!.~.f.] /.r.~.",
"4.4.<.r.I x A 1.7 P G.Z.V.^.u.h.{ [ n.P.!.L.E.V.| c s B.^.E.).P.!.K.n.W.!.^.E./.^.Q ] bX`.W.C.m.^.^.w.n.p y.E.[.^.V.f.(.2.U 2.f.",
"T V U / p.p.p.j.< a.G.F.r.4.C L v B O.n./.W.~.A.d.,.6 t.V.Q.!.P.v.P.U.W.E.E.~.V.y.$ 0.dXw.E.L.P.L.W.P./.B ' =Xy.y.|  .XXf.U I 1.",
", v l x 0 x - * 7 =.) T M v l Z ! ! <.n.E.E./.f.| / w <.B./.L.!.!.!.E.n.L.E.0.}  .o E.pXm.!.I.!.m.E.!.E.l., q.0.] Z  .OX4Xf.* 0 ",
"n.^./.Z.p.P - O @ 1 y F.S.4X,Xr.c 5 V V.t.<.3.L ^ P Q | B./.L.!./.E.E.Q.t.<.t.@X| ; @X!.E.L.L.I.y.^.y.w.w.N g g g 3 f ` &.=.O &.",
"I.!.E.~.5XOX&.& y 7XGXlXfX0X,XpX$X^ 6 | } K / L G k =.^ <.^.L.E.y.f.t.| V Z r.:XL ] <Xy.E.E.!.I.A.~ V o.V.eXaXiX-X*XB._ x * W $X",
"@.W.W.~.f.g.` 7 wXGX7Xm.0X[.W.<XqXH.b =./ v k 5 / n G n b y.Q.L.t.7.L k 5 k b n L 4.t.^.Q.!.!.E.,.5 r.yXbX8X#X#X&X0X7X*X;.1 uXqX",
"#.q.l.oXXX,.Q _ mXm.C.`.`.Q.<XE.N.$Xn 5 6 c 1.%XxX$X7.,.s 0.E.X.Q Q / ( D 6 k / ,.7.v ~.E.E.E.L.w A.DXnX^.S.].{.].b.D.*XF.t DXN.",
"b.b.m.9.T V @ tXtXf.V.-X!.U.}.Y.A.G.k m ].-XgXrXQ.[.m./.| k B.K V m Q N.J.J.Z.=.n g j a | J.N.>.f fX-X`.'./.W.W.W.!.m.^.@XM uXwX",
"~ M 6 M ` ~ m ~.>XE./.e.P. X+.Y.Z.B.G +X&X#X-XW.O.w.!.^.V.L / L | 3.^ H >.s.-.2 s 4.aX~.~ G :.q 5.8X#X>X|.L.L.L.n.I.E.[.^.Q D.wX",
"T M.*XrXNXDXsX} ! ^.Q.L.!.E.I.k.G.c m V.b.E.9XAXaXO.E.^.^.8.L U ..Q c b q * 4 v V.gX:X#Xd.9.e & 5.w.n.=XE.L.(.l.E.P.L./.S.4.7 3.",
"GXZXFXAXsX-XsXrX[ ] V./.m.n.w.w.d.% A.+X!.t.M.9XaXB o.^.^.A.b 4 a } 5.8.a.a.$XzXpX/.n.n.V.d.-.q ^.~./.[.l.!.).z.).W.y.Q.^.C.# 5.",
"ZXeX0X].-XQ.C.C.[.! R n.~.E.y.y.k s @XV.].'.@XaXb.O.0.t.d.d.= = y.dXgXeXyXmXsX/.^.0.L.0.4.3.G 4 #X,X<X/.L._.(.W.W.W.l.~.^.f.v %X",
"V./.-Xt.W.`.!.`.^.`.] [ 4.7.f.L o B.=X@X[.0X=Xm.!.[.[.5.4.Z./ 5 !.=X[.@X,X>X/.r.0.0.0.0.| U + + r.@X~.E.W.W.z.).W.(.W.E./.4.n @X",
"=XE.E.E.'.'.m.Q.n.`.[.] v ] U X Z >X/.[.[.-X[.L.E.V./.5.r.+XA.5 q.I.E.e.y./.|.u.0.B u.0./ = p.K ! @X~.Q.W.E.E.W.W.z.!._.:Xt.~ oX",
"E.^.Q.W.n.I.'.L.!.m.E.@X~ U 7.; /./.[.Q. X|.y.!.Q.C.E.! +XA.6.k w.L.I.Q.L.!.|.w.+.y.+.| L l :Xp.s ~.V.^.~.W._.E./.l././.V.} K @X",
"E.E.E.L.P.Q.I.I.`.m.y.^.f.7.d./ E.L.[./.|.!.!.E.E.m.^.4.~.A.5.k { !.L.!.L.!.!.l.y.y.| <.l L tXr.f B.S.].E.n.y.w.y.E.E.n.V.K ( +X",
"W.W.W.E.I.`.U.I.I.E.E./.d.2.2.7.Q.^.[.|.[.W.E.I.E.Q.Q.0.t.Z.8.n ' !.Y.U.Y.W.!.P.0.E.] } ; d.tXf.7 ( 7.| ~ ! R C N R ! ! ~ f ( >X",
"L.W.!.P.W.W.!.E.L.Q.^.V.r.V U A.[./.!.|.[.!.L.E.P.E.Q.V.4.V.t.V R Q.I.!.P.Y.W.L.y.B.L / 5 4X%X7.b b ( m ~ V f > [ o.5.w.5.f / *X",
"P.E.P.P.L.I.W.E.^.E.V.4.} v n oX[.!.E.[.!.Q.L.!.V.L./.Q.y.V.V.C ! /.E.W.z.P.P.W.r.t.=.^ k 3Xf.~.w B.FXbXmXvX].g hXpX8XwX>X( 3.@X",
"L.I.P.L.E.Q./.E./.f.r. .<.L V >X[.^.V.[.W.!.m.E.W.n./.E.E.E./.! V ^.E.W.(.W.W.L.r.6.p.w ^ %Xr.t.m ( %Xb.B.V.V.T -X#XE.^.B.Z 3.oX",
"Y.Y.P.P.!./.(.E.u.<.} | h.| <.<X[.[.Q./.E.Q.I.E.!.P.W.L./.L.[.{ n ^.~.W.).W.k.0.| =.g.4 6.+Xd.} G D Z.XX^.V.E.4.y.[./.~.4.l t.>X",
"I.I.P.I.!.~.y.h.] L L } ] { y.[.[.@X[.E.Q.E.W.E.Q.!.L.L.!.L.!. .k G.~.E.P.l.+. .3.A.H.& % 7 = # + l r.~.d.~.oX] 4./.(.r.L p u.oX",
"U.Y.L.I.L.u. .L Z L L ..C L !.[.^.].@Xm.Q.I.!.E.n./.y.!./.L.E.{ 0 A.f.u.k.e.q.u.S.Z.^ & z 7.V.%X:XU z ~.=X~.l.C  .^.h.Y l p l.OX",
"z.z.W.L.n.| / G >.F F 8 < 8 :.1X$X$X$XXXA././.y.!.!.^.~.XXXXZ.5   W 9.B.B.B.E.t.| K 6 Z.DXSXFXbXMXfXk k i.j.%.8 * t < b . 7 B.XX",
"_.).W.<.L m =.^ b % t G.zXS.G b s.H.d.7.r.t.n.[.y.u.o.4...Q ; @ q 7 6 6 k V v s k 6 . &XNX*XS.`.`.%XS.5 *   0 e S =.g.D.8.v d.oX",
"l.d.<.,./ / m 0 % A.cXeXA.>X|.l.z w 7 k c p a R ' ] ] ] <.,.4 k uXuXtX@X4.u.0.~.S.S.6 wXeX`.[.[.`.^.wX( = g.zXvXVXvXnXfXeX( <.@X",
"7.,.K b b b + G cX>X~.Q.L.Y.T. XtXz O 6 B } e.w.+.n.!.V.@X@X7.L XX&X>XsXAXDXpX@XXX~.5 V.^.-X|.!.=X!.^.B.D CXzXwX+X@X].].@Xt.v 4.",
"D Q d.A.tX%X= d.XXQ.~.L.I.K.Y.k.=.l | ^.E./.[.q.e.I.!.E.Q.~.~.V V oX~.E.(.~.V.~.XX8.k S.<X=X)..X[.'.^.w. .eX-XC.].{.C.[.[.[.6 ! ",
"<X@X4X>XDXsX# 3.B.A./.Q.=X!.l...# 3.%X/.n.n.I.}.v.!.L.!.w.V.#Xy.p w.E./.=XXX~.XXZ.^ n f./.L.z.).m.C.w.B } ].{.{.{.'.`.'.[.`.L ~.",
"l.L.).y.pX/.= L +XXXd.=.6.t.^ 2 o.^.^.n.e.L.U.'.L.I.n.L.w.L.~.Q.C N V.y.~.~.Z.a.b b c d./.E.T.Y.~./.n.]  .-XI.I.R.R.}. X!./.| f.",
"T.T.P.e.pX#Xs o 7 w c -.;.i.^ H ^.n.V.W.n.L.!. XK.P.'.w.[.[.E.~.u.$ ~.~.~.XX3.z F S 4 Z.^.L.U.K.f./.@X] ' /.!. XR.}.'.'.y.OXr.f.",
"P.!.e.n.pXE.Q 3X$X^ % < >.i.t :.!.E.n.n.K.L.'. XP.e.I.-XL.W.n.L.^.L ; @XXXa.G F q u W 9.@X~.e.).^.OX^.l  .!.!.W.T.Y.I.Q.!.XX,.f.",
"n.E.C.^.@X3.6 7.=./ ^ ^ S % O A.E.!.n.L.I.L.!. XK.'.I.E.E.Q././.XXa.5 7.8.Q 0 4 H.J.H.=.A.V.!.!.>XXXr.p ~./.y.P.K.I.I.w.t.@Xp.p.",
"$XZ.G b G y b ) a.S.wXcX8X| s t.!.C.w.n.I.L.|.;Xv.'.e.L.Q.o.y.Q.Z.A.5 + % @ % < W :.>.4 m L w.y.g.d.p + f.r.oXW.!.n.W.!.~.OX1.2.",
"F F q F 9.G.yX3XeX=XQ.E./.L.] ' E.!.n.P.!.n.W.;Xn.Q.E.[.{.o.n./.$Xp.w 2 G <.5.Z.s.G 1 b 8.3.Z $ 6 / 7.k (.OX~.(.!.P.E.n.S.@X1.k ",
"W B.2XxXVXnXDX&XV.Q./.E.!.!.X.B E./.L.l.L.n.0XAXI.n.^.C.^.^.#X~.1.9 k 7.eXbXrXvXfX8.6 +XvXsX=X~.m yX*X6 f.XXl.f.E.m.E.Q.+XS.=.G ",
"SXnXfX@XS.^.BX=Xn.n.!.L.P.k.+.' L.W.w.w.!.[.pXMXrXE.E.n.V./.V.| < e XXeXpXdXpXgXfXB.c +XA.[.@X,X7Xf ( Q r.oXl.OX/.E.Q.m.4.c ( uX",
"'.P.P.k.!.P.kX6X!.L.!.E.^.y.u.} 0.E.E.E.-XW.o.{ eX=XV./.^.E.| v 9 G.cX>Xe.n.'.}.'.O.a #X@X=X#X/.0XrX5.2 V d.~.l.f.l.O.f f 7 3.mX",
".XY.}..X.X$.6XdXn.L./.B.B.a.Z.3.C E.E.E.m.[ N N  .@Xb.^.E.d.L # Z.zXoXE.E.P.U.K.'.{ h =X].^.=X/.D.7XfXS.x C XX~. .B , E C.O._ J.",
"_.=X|.(. X).k.dX).z.!.l.0.:XdXf.u %.u r q & * & & & u u %.i : i wX].A.].].^.^.^.f.} N _.W.<X).).m.{.rXhXeX9.M _ c 6 V.tX&XV o.<X",
"/./.#XQ.=X[.P.aX_.L.m.4.t.XXOX=.8 & >.9.:.H.+XJ.XXg.s.:.-.J : : b w c n K =.1.1.,.Y L :X(.:XoXoX`.0XaXrXgXvXB.2 7 vXfXV.t.V ~.<X",
"*X+X%X].].[.m.@X-XQ.3.M m ) ,.) ` a.FXDXmXZXvXrXfXfXBXbXmX&X( ` B.9./ z - - ; - I U U OXOX:XoX:XaX0X0X-X#XfXeX( ~ NX,XB.E.C o.=X",
"S.S.*X[.*X#X`.`.0XC.O.M m ~ 6.=.6 &XZX{.m.m.x.m.R.v.M.w.M.m.M.M.FXSXMXbXwX/.w.! p V ] ~.(.=X[. X!.e.W.W.w.V.[.b.` {.@X~.<.C h.=X",
"V.m.!.Q.m.E.P.v.iXE.W./.-X-X/./ v pX-XO.v.m.Y.U.x.x.Y.I.R.R.v.O.lXiXiXlXAXAXhXiX'.w.' m.0XU.@.v.e.k.W.!.E./.E.B.Z V./.t.Z C n./.",
"V.E./.!.P.!.P.L.).#.L.W.I.e.X.j N ~.M.n.'.I.I.v.U.I.I.I.x.m.x.' jX XM.`.[.-XiXhXNX!.g R E.0.O.v.).!.E.l.E./.E.f.T ^.f.3.] l  .u.",
"L ] } ..+.0.e.k.W.l.l.h.Y C Y C 7.f.f.^./.E././.Q.W.Q.Q.Q.'.V.] eXS.n.B.f.f.Z.g.f.A./ # n / r.d.l.(.(./.oX~.t.4.s d.^.} V 5 ! <.",
",.2.I 2.,.,.2.,.r.f.r.Y 2.I I } l.oXoXf.~.V.r.r.t.d.d.g.B.B.d.z @X/./.@XoXXX^.A.OXB.I v 8.( Q U Y h.f.f.u.t.] 5 L 6 1.L K v m 1.",
"8 8 u t H F F *.D H F -.>.*.i.J.S.~.t.Q Z I / K D P x &.A A P A o.[.E.Q.n.!.C.E.`.| 8.M aXZX@X@X~.2.Z ,.L l m =.( c 7 z % 6.a.=.",
"q t F >.>.F q t :.s.J.<   & :.:.T g 3 s k 6 w z r r D r D A &.J O.Q.w.m.m.m.4.b.[ | b.4.t.0XC.`.OXtX4X,.k Z.3X1X1X1X&XH.b e =.1.",
"uXGXGXGXHXDXwX9.2XGXF.7 9.=.&.*.T T E ~ | 9.3.=.P S * s.2Xp.e   , } <./ U L ,.K P P I / b g.,.^ U k V c U vX&XB.Z.G.G.Z.p.S g.H.",
"v.@.O.x.M.m.{.jX@.~ 7 C.rXfXbXyX0XaXhXfXeXyXzXxX$XZ.S G XXH Q $XoXP - K 1.P &.P &.P P b % z I I B.B.+XP 6 B.A.B.3.^ L G =.w i.G.",
"#.$.$.c.#.' #.}.T.$ e.|.I.;XiXU.^.E.Q.].V.6.8.G.$XZ.( 7 1 m GXmXNXFX+X6 k v v m c K 5.S.yXbXSXFXSXBXSXB.Q 6 M s Q V Q n b O c XX",
"#.$.$.#.$.z.k.#.U.{ !.0.!.!.e.l.OXl.V.A.S.A.A.J.6.=.) O T SX7XB.`.{.FXAXO.> o f I.rXhXhXkX XR.0XsXB.S.n.w.> b.MXpXeXvXeX@X/ Q $X",
"q.k.$.k.l.r.r.~.t./ 2.f.g.2.d.g.h.p.p.2.i.H.H.s.-.b y % &X8X{.F.`.b.C.rXAXC.o Q.rX#XI.b.I.`.M.'.rXQ.E.M.m.h M.dXI.C.!.[.=X<.<.f.",
"l.u.u.r.f.g.g.g.G.- - A A D A r x x x 0 r 0 0 9 r < O ~ wXb.b.[.wX/.+XA.B.+Xk 3.~.B.+XV.E.S.V.^.`.C.!.m.Q.E { !.v.I.y.0.t.g 4.~."
};
