/* XPM */
static char *image_resized[] = {
/* columns rows colors chars-per-pixel */
"64 64 196 2 ",
"   c None",
".  c #0C0C0D",
"X  c #030707",
"o  c #190E02",
"O  c #1E1203",
"+  c #000E11",
"@  c #080F10",
"#  c #001216",
"$  c #00151A",
"%  c #00181E",
"&  c #0B1417",
"*  c #151515",
"=  c #1B1B1C",
"-  c #191714",
";  c #251605",
":  c #291905",
">  c #321D07",
",  c #251E15",
"<  c #291F13",
"1  c #3A2307",
"2  c #39210B",
"3  c #34210B",
"4  c #27211C",
"5  c #372614",
"6  c #001D25",
"7  c #1D1F20",
"8  c #131E21",
"9  c #211F20",
"0  c #01232C",
"q  c #002027",
"w  c #1F2021",
"e  c #012B35",
"r  c #012E3A",
"t  c #0E2930",
"y  c #01323E",
"u  c #0F353F",
"i  c #122F36",
"p  c #222223",
"a  c #272728",
"s  c #2B2B2B",
"d  c #263C3A",
"f  c #462B0C",
"g  c #4B2C0D",
"h  c #442706",
"j  c #502E0C",
"k  c #54330C",
"l  c #5A360A",
"z  c #5D380B",
"x  c #502F10",
"c  c #553311",
"v  c #5B3512",
"b  c #472B11",
"n  c #633C0D",
"m  c #683E0B",
"M  c #613813",
"N  c #324639",
"B  c #6D420C",
"V  c #73450E",
"C  c #7B4A0E",
"Z  c #684010",
"A  c #43452C",
"S  c #644F24",
"D  c #013543",
"F  c #013846",
"G  c #013D4C",
"H  c #003648",
"J  c #003D50",
"K  c #04404F",
"L  c #014354",
"P  c #014759",
"I  c #014A5D",
"U  c #0E4851",
"Y  c #1D414A",
"T  c #325F58",
"R  c #014E61",
"E  c #015165",
"W  c #01556A",
"Q  c #01586E",
"!  c #0E5563",
"~  c #1A5C6C",
"^  c #015D74",
"/  c #02637B",
"(  c #016077",
")  c #1B6675",
"_  c #23606F",
"`  c #2B6776",
"'  c #474747",
"]  c #696969",
"[  c #797979",
"{  c #824E0E",
"}  c #86510F",
"|  c #834E10",
" . c #8C5411",
".. c #855010",
"X. c #915711",
"o. c #945912",
"O. c #9A5D12",
"+. c #925C18",
"@. c #9F651B",
"#. c #A26112",
"$. c #AA6614",
"%. c #AE6914",
"&. c #B46C14",
"*. c #B96F15",
"=. c #BD7215",
"-. c #C37516",
";. c #CE7C17",
":. c #C47618",
">. c #CA7918",
",. c #D07D17",
"<. c #D27E18",
"1. c #D58018",
"2. c #DC841A",
"3. c #E68A1B",
"4. c #EC8D1C",
"5. c #E4871A",
"6. c #F08F1C",
"7. c #F6931E",
"8. c #F9951E",
"9. c #FD981F",
"0. c #026780",
"q. c #026A85",
"w. c #036E89",
"e. c #0D6B83",
"r. c #03718D",
"t. c #037592",
"y. c #037996",
"u. c #037D9C",
"i. c #0A7A97",
"p. c #1A788F",
"a. c #2A7689",
"s. c #377888",
"d. c #297D92",
"f. c #487A87",
"g. c #03809F",
"h. c #0A809D",
"j. c #17829D",
"k. c #298298",
"l. c #378295",
"z. c #0483A3",
"x. c #048BAC",
"c. c #0986A6",
"v. c #158BA8",
"b. c #1B90AD",
"n. c #048EB1",
"m. c #0491B5",
"M. c #0495BA",
"N. c #0498BE",
"B. c #0F92B2",
"V. c #1490B0",
"C. c #2D90A9",
"Z. c #3C93A8",
"A. c #258BA5",
"S. c #498A9A",
"D. c #598D9A",
"F. c #698B94",
"G. c #648A93",
"H. c #68868E",
"J. c #4D93A4",
"K. c #6999A5",
"L. c #7B9DA6",
"P. c #79A3AE",
"I. c #049DC3",
"U. c #04A0C7",
"Y. c #04A3CB",
"T. c #04A7D0",
"R. c #05A9D2",
"E. c #8F8F8F",
"W. c #939494",
"Q. c #84979C",
"!. c #8F9FA3",
"~. c #9EADB1",
"^. c #81A7B0",
"/. c #A7A7A7",
"(. c #A3AFB2",
"). c #A9B4B7",
"_. c #B7BABA",
"`. c #BEC6C8",
"'. c #C2C4C5",
"]. c #CCCDCE",
"[. c #C4C9CA",
"{. c #CED3D4",
"}. c #C7D0D2",
"|. c #D4D4D4",
" X c #DCDBDC",
".X c #D7D7D7",
"XX c #E0DFDF",
"oX c #E4E4E4",
"OX c #E8E7E6",
"+X c #E7E7E8",
"@X c #ECECEC",
"#X c #E7E8E8",
"$X c #F0EFEF",
"%X c #F3F3F3",
"&X c #FFFEFE",
"*X c #F7F7F8",
/* pixels */
"                                                                E r.y.W L F r                                                   ",
"                                                              r.I.R.U.0.^ ^ Q E I Q ^                                           ",
"                                                            ^ U.R.R.Y.q.^ ^ ^ ^ ( m.Y.N.n.z.t.0.Q                               ",
"                                                            r.N.Y.R.R.B.q.( ^ / z.Y.R.R.R.R.R.Y.x./ W E P G r                   ",
"                                                          ^ U.R.R.R.R.R.U.m.n.N.Y.R.R.R.R.T.R.M.z.q.^ ^ ^ ^ Q R G               ",
"                                                        y u.I.Y.R.R.Y.R.R.R.R.R.R.R.R.R.R.T.R.I.w.^ ^ ^ ^ ^ ^ ^ ^ E G           ",
"                                                        z.U.Y.R.R.R.R.R.Y.R.R.R.R.R.R.R.R.R.R.R.M./ ^ ^ ^ R I Q ^ ^ ^ R e       ",
"                                                      u.R.R.R.R.Y.R.R.R.R.R.R.R.R.R.Y.R.R.R.T.R.R.z.^ ^ Q D D J ^ ^ ^ ^ E e     ",
"                                                    E I.R.R.R.R.R.R.R.R.R.R.R.T.T.R.T.R.R.Y.x.n.I.u.^ ^ ^ P J R ^ ^ ^ ^ ^ I     ",
"                                                  s P t.u.x.I.R.R.R.Y.R.R.T.I.V.C.J.Z.C.B.I.Y.u.w.t.^ ^ ^ ^ ^ ^ ^ ^ ^ ^ ^ ^ r   ",
"                                          W.|.oX@X.X).S.u.Q R Y.R.R.R.R.Y.A.^.{.#X%X%X+X`.P.b.Y.n./ ^ ^ ^ ^ Q J L Q ^ ^ ^ ^ F   ",
"                                        /./.W.$X&X&X&X@XK.m.m.R.R.R.R.I.S..X&X&X&X&X&X&X&X&X}.Z.Y.n./ ^ ^ ^ I H P ^ ^ ^ ^ ^ D   ",
"                                      W.#X' = |.&X&X&X&XoXd.R.R.Y.R.U.l.oX&X@X.X*X&X&X&X&X&X&X{.d.M.x.^ ^ ^ ^ Q ^ ^ ^ ^ ^ ^ r   ",
"                                      _.&XoX.X&X&X&X&X#X%XF.I.R.R.R.z._.&X&X] * _.&X&X&X&X&X&X&X!.^ y.q.^ ^ ^ ^ ^ ^ ^ ^ ^ Q     ",
"                                      `.&X&X&X&X&X&X%X+X XF.I.R.R.T.a.@X&X&X_.[  X&X&X&X&X&X$X*X].~ ^ ^ ^ ^ ^ ^ ^ ^ ^ ^ ^ P     ",
"                                      E.&X&X&X&X&X&X#X#X|.s.U.Y.R.U.s.%X&X&X&X&X&X&X&X&X&X&X@X+X|._ ^ ^ ^ ^ ^ ^ ^ ^ ^ ^ Q r     ",
"                                        ).&X&X&X&XoX#XXXH.u.I.R.R.Y.a.oX&X&X&X&X&X&X&X&X&X&X%XoX[.~ ^ ^ ^ ^ ^ ^ ^ ^ ^ ^ G       ",
"                                        Y H.`.XXXX[.(.f.z.n.c.R.R.Y.i.(.&X&X&X&X&X&X&X&X*X+X*X#XQ.Q ^ ^ ^ ^ ^ ^ ^ Q Q L         ",
"                                          y.v.k.k.k.i.u.u.U./ n.R.R.I.s..X&X&X&X&X&X&X&X%XXX$X_._ ^ ^ ^ ^ ^ ^ E L L R I P L r   ",
"                                        L N.T.Y.R.U.x.r E R.z.e z.M.U.n.s.[.*X&X&X*XoX*X@XXX).` Q ^ ^ ^ ^ ^ Q P P F H I I I R r ",
"                                      W m.T.I.Y.I.Y.M.Q n.R.I.% R u.x.R.M.p.G.).{.].].[.(.D.v.w.^ ^ ^ ^ ^ ^ R G F L L L ^ ^ I F ",
"                                      t.R.I.v.V.I.I.Y.R.R.R.Y.^ z.n.U.R.R.Y.m.h.p.d.d.j.x.U.m.( ^ ^ ^ ^ ^ ^ R R ^ ^ R P ^ ^ I D ",
"                                        e.K.|.{.J.m.R.R.Y.z.n.R.R.Y.Y.R.R.R.Y.Y.R.R.I.n.U.Y.y.^ ^ ^ ^ ^ ^ ^ ^ ^ ^ W R ^ ^ E G   ",
"                                          OX&X&X$X!.i.I.r.  G x.T.x.z.x.m.z.y.r.m.R.y.z.n.U.m.( ^ ^ ^ ^ ^ W R Q Q Q ^ W P D     ",
"                                        ] @X&X&X&X.Xd         P r.z.U.I.B.M.Y.I.q.u./ U.R.U.u.^ ^ W I P L         y y           ",
"                                          +X XoX.X].                ^ M.U.Y.U.R.I.z.n.Y.x.0.P G y                               ",
"                                          .X_..X.X'.                  Q I.M.I.N.R.R.M.^ 0                                       ",
"                                          [ [                           ^ N.U.N.U.U.Q R 0                                       ",
"                                                                          ^ U.R.U.w.E ^ q                                       ",
"                D                                                           R t.y.w.U A +.C                                     ",
"            # E M.K             o Z C C .. . .o.O.O.O.O.O.O.O.o.o.X. .| C V l A T d n 3.4.#.                                    ",
"            $ W N.y.    e E w.r.! #.7.7.8.8.8.8.8.8.8.8.8.9.8.8.8.8.8.7.8.7.6.6.4.;.V 3.1.&.:                                   ",
"      F D   # D / / P r.B.R.R.R.I.N >.9.7.8.8.8.8.7.7.8.8.8.8.8.7.8.7.7.6.3.2.<.-.o.X.3.1.*.1                                   ",
"    ^ I.m.t.r.q.r.B.Y.R.R.R.R.I.R # l 3.8.8.7.7.7.7.7.7.6.4.4.3.3.2.2.1.>.:.:.=.=.B &.2.1.-.j                                   ",
"  L I.I.E e G z.R.T.I.U.R.R.I.R       V $.$.%.=.-.;.1.1.1.;.;.;.;.;.;.;.;.-.%.O.} C 1.>.>.>.l                                   ",
"X L r.W #   E x.r.W Q I.R.U.W         X m *.-.>.;.;.;.;.;.;.,.;.;.:.$.o... .O.=.1.3.1.1.1.>.B                                   ",
"    6 #   $ y.t.q   F m.Y.(         X n { %.;.;.;.;.;.1.;.-.$.o.C l O.:.2.7.8.8.8.6.1.-.>.1.}                                   ",
"          # y.u.0   r x.I.e       Q y.) S B =.1.;.>.&.O.} C } #.$.V 6.8.8.8.7.4.7.3.1.1.>.1.O.                                  ",
"          # t.x.D   q y.N.y   G h.R.R.N.y o n #.C B C O.*.-.;.1.$. .8.7.8.7.7.2.6.2.>.1.>.1.$.:                                 ",
"          + G R r X # D r.t.r r.R.R.R./       o B =.;.1.,.;.;.*.z %.9.8.7.8.6.;.3.1.>.>.1.>.=.1                                 ",
"                    + 0 r E P G M.R.I.F         l #.;.;.,.>.X.h : 1.7.7.7.8.4.=.3.<.;.;.>.>.>.k                                 ",
"              r ^ 0.w.r.x.z.y.u.Y.R.u.$             C =.$.n     l 4.7.8.8.8.2.&.2.;.;.;.1.>.1.B                                 ",
"              / R.y.G G n.m.Q W N.R.E                 f 1       C 8.8.7.7.8.>.&.1.<.;.;.>.1.1. .                                ",
"              x.I.L   G x.P + q r.Y.W                           %.2.#.7.7.9.=.%.;.;.;.;.>.>.1.#.                                ",
"            % W Q 6   e x.( %   G x.x.F                       : | 5 f 6.4.:.n V ;.;.1.>.;.1.1.&.1                               ",
"                        ( m.P   $ G ( r.E %                   X - 7 5  .c 4 = , X.;.#.c Z #.;.;.k                               ",
"                        y w.I %       q 0                       * p = = 7 p p = 4 l , = = 4 k O.n                               ",
"                                                                  7 a 7 p p w p = = w w w p w - O                               ",
"                                                                  . = a a p p p p = 7 a s s 7                                   ",
"                                                                      * p p = p p p p a p *                                     ",
"                                                                      * - * * = p p p *                                         ",
"                                                                      7 p p p = 7 9 p p                                         ",
"                                                                    = p 9 a p   = p 9 p p                                       ",
"                                                                    7 9 p a       * i u p p                                     ",
"                                                                  = p p a 9         / q.7 a p                                   ",
"                                                                = = = p a             t 7 p p a p                               ",
"                                                E P           . * & 8 = =               = p p p p p                             ",
"                                              ) Z.c.z.0.          G L @ .                 , , 5 5 c c 2                         ",
"                                              ` P.j.Y.M.          u.G                   5 b c M v x g 3                         ",
"                                                  D 0.n.M.z.y.r.x.y.              h j v v M M v b ;                             ",
"                                                      P Q ( w.z.Y.q.            h M M M M v g 2                                 ",
"                                                              L q.Q           > l M M c g 2                                     ",
"                                                                                x c b 2                                         ",
"                                                                                > 2                                             "
};
