/* XPM */
static char *Hand_Painted_Textures___Seeking_Feedback_and_Crits_resized[] = {
/* columns rows colors chars-per-pixel */
"64 64 174 2 ",
"   c #000300",
".  c #020B02",
"X  c #051007",
"o  c #071108",
"O  c #0B150D",
"+  c #0D190F",
"@  c #11150E",
"#  c #10180F",
"$  c #0D1214",
"%  c #0D1A12",
"&  c #0E1D19",
"*  c #121C15",
"=  c #141D1B",
"-  c #191E1B",
";  c #0F2014",
":  c #132016",
">  c #15221A",
",  c #1A241C",
"<  c #1C291E",
"1  c #21241D",
"2  c #1C2523",
"3  c #1D2B23",
"4  c #1F2428",
"5  c #1F2E2B",
"6  c #232523",
"7  c #222C25",
"8  c #282E27",
"9  c #202628",
"0  c #242D29",
"q  c #292E2C",
"w  c #233126",
"e  c #25332B",
"r  c #2A342D",
"t  c #27382D",
"y  c #2C392F",
"u  c #30362E",
"i  c #262F30",
"p  c #273631",
"a  c #2C3531",
"s  c #273834",
"d  c #2D3A32",
"f  c #2F3638",
"g  c #2E3B39",
"h  c #313632",
"j  c #323C34",
"k  c #3B3D37",
"l  c #343D3A",
"z  c #393F3C",
"x  c #2F4035",
"c  c #2F403A",
"v  c #334136",
"b  c #35423B",
"n  c #3A443C",
"m  c #36493D",
"M  c #3B493E",
"N  c #40433C",
"B  c #363F40",
"V  c #383F40",
"C  c #364442",
"Z  c #3B4542",
"A  c #364945",
"S  c #3D4B43",
"D  c #3D4D49",
"F  c #3E5045",
"G  c #3E514A",
"H  c #414743",
"J  c #424C45",
"K  c #494D46",
"L  c #444D4A",
"P  c #494F4B",
"I  c #435146",
"U  c #485247",
"Y  c #44534B",
"T  c #4A544D",
"R  c #46584D",
"E  c #4A594F",
"W  c #51564E",
"Q  c #50584F",
"!  c #494E50",
"~  c #455451",
"^  c #4B5553",
"/  c #455853",
"(  c #4C5B53",
")  c #4C5759",
"_  c #4D5C59",
"`  c #505653",
"'  c #525C55",
"]  c #585E56",
"[  c #505758",
"{  c #535D5A",
"}  c #585E5C",
"|  c #4E6055",
" . c #4F6058",
".. c #536157",
"X. c #55635B",
"o. c #5A645D",
"O. c #56685D",
"+. c #5B695F",
"@. c #60675F",
"#. c #555E60",
"$. c #585E61",
"%. c #566361",
"&. c #5B6562",
"*. c #576863",
"=. c #5D6B62",
"-. c #5C6768",
";. c #5E6C69",
":. c #5E7165",
">. c #626760",
",. c #626C64",
"<. c #636D6A",
"1. c #696E6B",
"2. c #627167",
"3. c #65736B",
"4. c #6A746D",
"5. c #67796E",
"6. c #6B796F",
"7. c #73756F",
"8. c #636D70",
"9. c #667372",
"0. c #6C7571",
"q. c #6D7A72",
"w. c #6E797A",
"e. c #717672",
"r. c #727C74",
"t. c #797E77",
"y. c #737D79",
"u. c #7B7F7C",
"i. c #6F8276",
"p. c #748077",
"a. c #76827A",
"s. c #7A847C",
"d. c #7B897E",
"f. c #7B8682",
"g. c #7E8B83",
"h. c #7F9085",
"j. c #828681",
"k. c #828D85",
"l. c #848E89",
"z. c #8C8E88",
"x. c #869287",
"c. c #85928A",
"v. c #89958C",
"b. c #84988B",
"n. c #8B998F",
"m. c #8A9493",
"M. c #8D9A92",
"N. c #929C94",
"B. c #929D9A",
"V. c #96A29B",
"C. c #9AA49D",
"Z. c #9CA5A1",
"A. c #9EAAA3",
"S. c #A2ACA5",
"D. c #A5AEAA",
"F. c #AAAEAA",
"G. c #A6B2AB",
"H. c #ACB4AC",
"J. c #ABB7B1",
"K. c #AFBBB3",
"L. c #B0B5B1",
"P. c #B3BDB6",
"I. c #B4BEB9",
"U. c #B6C2BA",
"Y. c #BAC7BD",
"T. c #BDCAC1",
"R. c #C1CBC4",
"E. c #C7CFCA",
"W. c #CAD4CD",
"Q. c #D3DBD4",
"!. c #D5E0D8",
"~. c #DCE0DD",
"^. c #EAF5ED",
"/. c #F8FCF7",
/* pixels */
"l g g S A L L ~ ^ ^ U I F m M I v v j v m M M M m ....E o...' o...] { [ ! $.{ l d d a d v d x y y y 1 v j j v m n u = z n n z b ",
"b n Z n l q a a d b I S M m M n J M u r b N M I y U ..U ' ' ] W ' W ^ ` ! } L l Z J J v < j N N u y n M n h 1 w e u 1 i q r a h ",
"f.c.B.Z.D.S.A.S.D.T # v N R ' U y y d.k.p.p.i.d...v o.U Q Q Q W W ` ` ` ) ) Z m.A.G.U.G.N.3.n N N Q W Q ` K r H P P P H H H V H ",
"b l b I _ o.<.s.V.&.N.Y.Y.Y.U.W.@.< o.E E E R ..@.+.......W ' W W ' ` [ L Z H y.g.j.p.p.N.H.s.8 n U U U P l k W P P P ! ! P ! P ",
"n n z S L I Y L U N x.h.d.b.N.N.e.1 +.+.X.O.O.....R J J J N z n k z l V ! $.! <.s.s.s.s.p.r.N.u n Q ] W T k h P P ! P P ! L C ~ ",
"l m z M S I ( o.O.v ..' R | ' Q X.7 r J M d d b x u M K W Q ] o.^ ^ ^ m.g.w.X.%.s.s.s.s.p.p.7.u J W ] W T N h H V V V V B B i ~ ",
"r v M J E ( X.2.v < E O.....O.O.&.q f.S.n.k j.R.U.K.R.W.R.P.F.L.E.P.0.O.{ ;./ { k.s.d.s.p.r.4.u J W T T T k h ^ ! [ Z i ! D a L ",
"j S E ..X.=.0.E w w v ..O...o.@.] ,.B.q.q.X.l.c.b.d.x.x.a.e.e.j.l.e.{ 9.q.O.D ^ s.s.s.p.6.7.3.y N Q U U ` k { 1.1.9.$.Z ^ ~ C ~ ",
"U ..@.4.6.6.+.x x w w ..:.+.+.@.T y.&.} %.} 4.q.&.&.3.4.e.4.4.1.<.4.} w./ Y Z ( i.a.a.q.q.q.4.h S U U L P q P { [ [ H l ! D C ^ ",
"n J v y u y w y v < + r x M | N ` &.&.>.&.} 0.0.&.q.s.r.4.,.&.4.r.t.Z d C D p ^ q.a.q.4.r.p.6.7 7 d a l l a Z ! ! ! P f L C j Z ",
"Y * v U N N N N N n u x x u : : o.o.,.,.<.` <.a.i.i.4.<.&.%.&.X.] H 2 g.m.e =  .w.a.s.q.q.r.4.y ^ ' ] o.} >.&.$.$.$.<.z S J H J ",
"o.E U.~./.!.U.U.K.C.N.V.N.x.s.v l H L L M , h ` _ Y m b k n n Z T ^ A g.f.D > ..9.5.q.d.a.q.2.S o.E _ { } #.#.{ #.[ ^ $.+.} X.' ",
"N R 6...6.s.p.p.7.@.@.@.o...x.Q ^ &.X.o.X.+.,.,.+.4.r.2.2.4.+.=.&.` Z ..X.) p _ :.3.:.:.q.a.3.j Y { ^ ( { %._ { #.} _ >.{ T ( ` ",
"R N @.+...>.7.7.@.@.@.>.>.@.i...X.4.<.q.a.a.q.6.3.,.=.+.+.....' { ~ Z { { { l  .9.3.9.3.<.<.2.v U ' ..( ( { { { { &.` =.} ` ' ' ",
"j j ,.o.o.>.@...@.@.@.>.@.@.4.W J { ] o.X...' ' ....o.+.+.X.X...( Y L { _ { b  .*.:.:.<.=.=.<.l J ..O...X.X.X.] _ H 1 7 8 7 1 w ",
"o.m +.O.o.....@.] o.,.@.,.@.6.n e L S J S S m v v j u y y y v b n e r J Y e r %. .X.*.*.*.+...r ^ X...&.*.o.^ T ,.4.1.2.7.6.4.2.",
"o.J X.*.O.O.o.X.o.o.o.@.@.>.<.r   O e C L I E ..+.o.+.>.,.,.2.2.6.i.s.p.e . y { Y ~ { ) Y L l = S X.+.T n , o.C.v.s.a.y.6.4.2.2.",
"y e ( *.O.| ..( X.o.o.@.,.,.=.0   _ 4.a.x.A.G.n.q.=.=.&.o...U Q r.G.Y.G.Z   % 3 2 3 4 i l H ( <.q.T < + . , x.<.Q ' ] ] ] Q Q Q ",
"b a D *.O.O.O.+.o.+.=.=.=.+.X.3 ` C.J.U.M.q.q.F D D Y L S E y.C.N.@.S F w T 9.2.C { m.m.B.m.l.j.y.W   O o o.6.E Q ` Q Q Q E Q E ",
"b e f b b b n M J Z n k h l z ] I.A.s.{ J Z S D L T J T c.D.n.,.M F R R j q.&._ ~ *.w.8.-.%.} $.@.K o X M N.o.E Q E E ' Q ' Q E ",
"l 5 & 2 % % + + + * < q l h * ] 0.J S L Y J L L Y J P t.6.` J J U I F F h S A L D B ~ ) [ } [ ` ' u . X : n T T L n n b v v j v ",
";.f.A.A.B.n.N.V.C.A.S.D.S.P.f.J ` J Z n n z J A Z T t.o.n J T U I I F m 0 S n b V 4 f i i i q q u , , r n U ] m 2 { =.9.2.M X.a.",
") #.=.3.q.d.b.g.q.=.' J M ^ q.T T n b z z z H Z J 1.W M J J K U K J M M 7 0 3 a i i B f z a 1.6.s.k.x.x.v.k.6.U T m.f.g.c.4.6.:.",
"/ ( ^ ~ D A n A A F Y E Y J I N z l z z h h J n T T M J J J L K H J S b 0 { X.) _ ) ~ ~ T m o...] Q E E E U Q T X.o.%.#.%.' O.E ",
"~ / / / ~ / ~ ~ D ~ Y G F R R b l z b k l z n M Y M M M n H H H J S J z e L I X.E S S A F 3 m I m v x v z b Z b -.<.&.&.-.*.:.+.",
"G / / / _ _ / ~ / ~ / G R R F y e e e r j k j v n h h 8 h k k l j k a - % j b n m m v m t + < : , > , 7 7 3 0 4 [ -.-.1.;.&.:.=.",
"> - = - 2 4 0 > 2 , < < 1 1 # O O # + # O X X X o o . + * * - 6 6 q 9 6 7 j n l < w M N b R ' ......X.j , e l V f ) ^ ~ ( S E R ",
"y.1.0.w.a.{ 6 y.4.4.+.o.6.6.d.s.r.s.g.s.p.a.a.y.a.a.o.* - 1.u.<.<.1.1.1.,.` I I M R O.| | E R E E I k * = 0 4 4 = 4 %.&.+.X.6.a.",
"m.v.N.B.B.f.&.Z.s.l.a.q.p.a.6.,.2.,.2.4.6.p.g.a.s.a.k.<.n ` P H N N N N n n n S m v m v v b b j w : O : 2 - 4 i = D G.B.n.x.b.d.",
"%.1.0.e.y.<.^ 0.3.<.>.1.2.>.+.1.,.,.@...o.+.X.{ E _ { ` h a h h h u 8 8 8 8 8 y < r M M I J J j , : J <.q.y.f.m.9.X.9.2.<.2.3.5.",
",.4.e.y.y.o.P $.E T ^ ^ ] ,.,.&.o...o.' o.+.+.o.} =.&.T q 2 q u k k N W W @.U u ,.p.k.s.s.a.r.6.E J S.k.q.3.-.%.-.$.w.6.q.d.a.2.",
"&.&.1.e.y.` h ! Y ! ^ E E Y ^ E E Q ......X.{ { ) { ~ f a u.r.s.u.t.7.j.z.r.o.Q 4.6.r.i.7.6.4.4.>.T p.2.<.%.&.&.] X.w.q.2.*.O.O.",
"_ o.&.} 1.} * 9 a q 0 7 a h j d l h a e 7 7 4 9 4 - = $ 2 Z J H K K K N @.N.t.N o.@.@.@.@.@.,.@.o.v +.4.=...X.%.X.^ <...( ( | ( ",
"^ >.>.] } P - L ! f q $.^ { ^ } ] T H A C a f 4 D { ) ) L f j P U W ` W N W W N W ' ..' ..] ' Q W n ' o.' _ { O.S n ( / ^ ( | R ",
"Y ) ^ ( o.k 8 } [ ! #.-.^ L I ( ^ Y Y L L L / D #.-.#.) ! ! - - k K U K K N u k Q E Q Q W Q Q T I j v T ' ' Y n b k I Y I ..I F ",
"b d a e 7 X r ` [ ! l H D b Z n Z b z z C C l 0 B f l g B L =   . , r h 8 1 1 u U I J J N N n y w , O , w e 7 a e e d n A S m b ",
"3 0 a g z r r ^ ! ^ q * , 2 2 7 7 7 6 4 2 g X.` ! ) ~ ) ! B g V L N n 6 @ 1 1 1 e r r 7 , u a k n u h n m H U Y J J m 8 w y u v ",
"X.%.=.o.] ] M P P ^ z = a r r 0 0 0 0 0 7 d _ _ ) _ #._ ) D -.-.,.&.,.P 1.z.j.a.q.6.4.] M +.1.a.6.>.>.<.<.>.,.=.=...' n I T I U ",
"/ ^ Y Y U ^ J L ^ E L > < < 8 U U K J N k y l d l f f g f = C C Z n H h ! >.` ] ] ) { _ n L Y L J J S S M S L L L S I t t d x d ",
"S A n n Z v 7 r r a r , , X r 4.' ] ] ] ' ..X.L 7 ^ _ { $.$.[ _ ^ P ` V z ^ P ^ ^ D S Y z H L T ^ ^ T E E E Y Y Y S b w x m m v ",
"M R ' O.] M l.N.s.6.X.4.p.s.U j n n k j j v v n E q.*.#.%.9.w.;.8.y.u.8.z l z C z z l b 0 0 j z z j b k u y r e 3 * % % w w w x ",
"S S A J z g.N.r.p.@.....X.+.2.m T T W @.@.o.+.o.M A C A C C G _ A z J C a { { ^ _ ^ ^ ) Z Z H q L ,.o.X...+.n . . X + + + + : t ",
"n.C.g.+.M ] r.4.o.....' | Q m Q r.6.r.t.p.i.r.4.R D F F A G D G ..S Z b e Y ( _ %.{ { _ ) _ { H ^ ] ` T ....N R q.a.a.p.i.d.d.d.",
"O.S.^.!.K.3.` ..=...o.o.( R j Q 4.,.,.o.....E ..F A F A G G G C S / m l 3 n D F D G G L L Z n h 0 b J J J v ' S.M.n.h.h.h.b.h.i.",
"n v X.V.W.4.v 6.+.U Q ,...U x R ....O.+.O.| I R F M v d : : , x w < < < : x m x d s s c A Y ^ T P r n U ..N v 2.+.:.:.2.i.5.:.:.",
"I J J b ( ` U ' Q U R ' ..U < I ,.O...R M M m v e v R | E 3.V.V...e F F F I I I I p t f.f.y.1.4.1.] @.>.@...v @.O.+.2.p.3.:.i.:.",
"I Y T T Q ..J E E Q U R M r < ; < < < t M x w i.d.b.n.M.V.M.d.:.:.F R ( | E R R ( F c %.( ( ` ` ` ' T T Q E v ....+.,.@...| | | ",
"J T T T ' ..v M N v v r < 3 : < N Q +.:.2.N w 2.O...| ( / I R E E M | R R R R G / F 5 Y / E E T T H L J N N v W ] ] O.+.....R F ",
"M J I U T E j n v u t < w 3 ; n E T M M I I m E E E E | | E | ..E R 3.:.i.+.| / R F 5 e j h h f h j J N H P h J Q Q ' +.o...T U ",
"M I I T T ..I J U U I N U M N N v v M R w w e M I I I I I M m m 3 < m m m x 3 < w w t F ..o.4.P P } } o.o.,.E N E ..' ' E E R I ",
"v b j u j j 1 r e t t t r x x x u h j M 3 w m ..( | E R E Q ..:.O.+.O.R ; x O.:.:.i.i.p.a.p.r.T H ^ T P T E b 7 v j u r d d d v ",
"v M N I U U E X...+.@.+.+.m M d.x.x.k.x.v.v.n.x.x.d.d.s.d.d.d.6.6.i.6.5.E F p.q.5.i.6.q.4.6.>.Z H ^ P P T ` e > 8 w r w O 3 y x ",
"x.d.a.s.j.s.r.0.4.<.=.o.:.T +.C.c.f.s.t.r.s.s.s.s.s.p.r.2.4.,.+.+.+.+.....U r.6.5.3.2.5.1.<.' 8 z z z b n z S ( E / / / 2  .Y / ",
"F J D J L Y P T T Y Y I I M h ] 2.4.r.y.p.t.p.a.s.s.p.r.t.6.2.,.,.,.@.+.X.m S R R I J I J U v b ` ^ P K L a n Z n D A A p b D F ",
"~ ~ ~ ) ` ^ ^ ^ ^ _ ) ^ ) z 0 ` 6.4.4.6.7.4.6.a.p.6.6.4.,.,.@.,.@.+.+.O.` m o.=.<.=.X.^ E T N E &.} U W ` J j a a p 5 > & s D G ",
"~ ~ ~ ^ _ ^ ^ ` T ^ ^ _ Y A a ^ 2.4.,.,.2.4.6.6.4.4.4.,.@.+.O.Q | ' ..Q v <.p.o.o.o.o.O...+.2.R o.+.y.y.<.4.4.8.9.:.*.Y = s F G ",
"G ~ G ~ ^ ) ~ ) ! ~ _ ) ) L g L O...( E T E R J n x w x x v v v v u v v w w U R R R E E E R I I 2.4.2.*.*.;.8.8.;.*.*.8.5 s G F ",
") / ) ) ~ ) ~ / P A C s p p e e t s y w j R E R 1 ; ..i.d.h.d.x.n.x.d.d.s.N U E R | E | | | R R 5.O.O.X.*.%.*.-.*.%.%.*.5 s G G ",
"A A A A C g 5 5 2 & & C ~ _  . . . .O. .E ..R R N :.d.i.6.2.:.:.3.2.O.O.:.E F | R R | | E E m w E ..X. ./ / G G A g 5 5 > 5 c c ",
"B s s s & % O % $ % >  .%. ._  . . .(  .F d Y _ R O.:.:.:.2.:.i.2.:.:.:.:.F y | R R m M m m w < e c c A / G ) G / B C / _  .I A ",
"/ _ _ _ s % > > > ; > F | / ( _ | | (  .R ; m | R | :.:.:.:.:.:.:.O.:.:.U x ; x M F R M F R R R R | x |  . . .) _ G _ ( / _ / ( ",
"A A A ~ b % > > > > O c / / _  ./ R ~ G R ; ; m m | :.:.O.O.O.O.O.O.O.:.R x I O.| | | | | R R R F | | R G G G G / A G / R G R I ",
"F A S Y A 3 t s g c c b G A c e x c 5 x m F m m w R O.O.O.O.| | | E | | R R R R R M F R R R R R I | R R G F A A D C F ~ Y G F G ",
"F F F G F R X.O.X.O.X.O.O.O. .F G G x 5 F F F F < m | R | | | R R R R R E | M F R R R R R R F R R R G x w 5 3 3 5 3 D G A A F G "
};
