/* XPM */
static char *IRONHIDE_COMMUNITY_FORUM_____View_topic___FAN_ART__resized[] = {
/* columns rows colors chars-per-pixel */
"64 64 253 2 ",
"   c #1D140D",
".  c #301912",
"X  c #372318",
"o  c #342B1D",
"O  c #1B1B26",
"+  c #1C1B3A",
"@  c #251E27",
"#  c #291B37",
"$  c #183538",
"%  c #2A2829",
"&  c #362D29",
"*  c #393229",
"=  c #2A263A",
"-  c #322C3C",
";  c #372D34",
":  c #36363A",
">  c #2B3334",
",  c #4C3217",
"<  c #453828",
"1  c #453B35",
"2  c #563F2E",
"3  c #613D25",
"4  c #3B453E",
"5  c #2E463D",
"6  c #6F4F0F",
"7  c #58442A",
"8  c #4B4135",
"9  c #49453A",
"0  c #584A37",
"q  c #4F4631",
"w  c #624D36",
"e  c #695637",
"r  c #6E5432",
"t  c #685C1D",
"y  c #282746",
"u  c #332A49",
"i  c #393846",
"p  c #342D53",
"a  c #3A3255",
"s  c #3C345A",
"d  c #383155",
"f  c #2C2A58",
"g  c #343763",
"h  c #443C4B",
"j  c #443A5D",
"k  c #473B58",
"l  c #4F3450",
"z  c #473C63",
"x  c #164F55",
"c  c #3E4D48",
"v  c #364855",
"b  c #2D524F",
"n  c #2E5764",
"m  c #0F7273",
"M  c #306D6B",
"N  c #196162",
"B  c #484748",
"V  c #534D45",
"C  c #585549",
"Z  c #4A4657",
"A  c #4A5355",
"S  c #585757",
"D  c #4D524E",
"F  c #645B4A",
"G  c #625B57",
"H  c #6F574F",
"J  c #4E6955",
"K  c #6B654D",
"L  c #696457",
"P  c #766C5A",
"I  c #727352",
"U  c #4D4264",
"Y  c #4C4468",
"T  c #544669",
"R  c #5B4C6D",
"E  c #574767",
"W  c #595567",
"Q  c #5C4E72",
"!  c #544873",
"~  c #5D5271",
"^  c #625375",
"/  c #68597A",
"(  c #685866",
")  c #576667",
"_  c #4C7373",
"`  c #656667",
"'  c #726D64",
"]  c #6A716B",
"[  c #797566",
"{  c #787976",
"}  c #6C747D",
"|  c #895A0F",
" . c #886911",
".. c #906F0C",
"X. c #B37508",
"o. c #906A3A",
"O. c #AF7329",
"+. c #834A31",
"@. c #C57C15",
"#. c #8D734F",
"$. c #A37B48",
"%. c #827663",
"&. c #8A7D6A",
"*. c #877968",
"=. c #8D797B",
"-. c #35837A",
";. c #33826F",
":. c #48837A",
">. c #78846F",
",. c #7B9040",
"<. c #7DC96E",
"1. c #B38C0E",
"2. c #B89225",
"3. c #D59A02",
"4. c #C48719",
"5. c #CF8C05",
"6. c #E09C00",
"7. c #EEB00D",
"8. c #CB9A2F",
"9. c #D3A431",
"0. c #E4AB35",
"q. c #FAD331",
"w. c #AA844A",
"e. c #B18D51",
"r. c #8D836B",
"t. c #91836E",
"y. c #9B866C",
"u. c #89857A",
"i. c #928571",
"p. c #9A8C79",
"a. c #968A75",
"s. c #9D927C",
"d. c #A2947D",
"f. c #AE9567",
"g. c #ACAF72",
"h. c #D4995B",
"j. c #D7A555",
"k. c #CEAB74",
"l. c #2E7783",
"z. c #177786",
"x. c #5E5483",
"c. c #675B87",
"v. c #76678B",
"b. c #716D90",
"n. c #6B7397",
"m. c #85739A",
"M. c #896D97",
"N. c #8573A1",
"B. c #178785",
"V. c #0B8F90",
"C. c #2A8984",
"Z. c #259899",
"A. c #358F8E",
"S. c #0BACA9",
"D. c #2FA9B1",
"F. c #3BBC97",
"G. c #548A89",
"H. c #519998",
"J. c #568C93",
"K. c #698686",
"L. c #779592",
"P. c #748AB3",
"I. c #51ADAB",
"U. c #76B1B2",
"Y. c #58A5A0",
"T. c #16CBB9",
"R. c #7CD881",
"E. c #77ACD6",
"W. c #38D6CE",
"Q. c #00F3F1",
"!. c #0BF6F4",
"~. c #19F9F5",
"^. c #1FEBEA",
"/. c #38FAF7",
"(. c #31F2F0",
"). c #1ED7D7",
"_. c #56D7D3",
"`. c #6BD6D6",
"'. c #5AE1DF",
"]. c #48FAF9",
"[. c #59FDFC",
"{. c #59F7F5",
"}. c #56EAEA",
"|. c #74EAE8",
" X c #67FAF8",
".X c #77FAF8",
"XX c #79E5D3",
"oX c #878785",
"OX c #999999",
"+X c #928F8C",
"@X c #A79B86",
"#X c #A19F93",
"$X c #A9A699",
"%X c #BAB19B",
"&X c #AFA894",
"*X c #9C94A7",
"=X c #87A9A7",
"-X c #9AABA8",
";X c #A6A7A7",
":X c #BAB6A7",
">X c #B9BAB9",
",X c #ADB2AC",
"<X c #999BA8",
"1X c #C1B9A5",
"2X c #D5BFA6",
"3X c #B7C9B3",
"4X c #B7C29E",
"5X c #C6C3B6",
"6X c #D3CDBA",
"7X c #D1CBB4",
"8X c #E2DFB2",
"9X c #99A8C1",
"0X c #B2CACA",
"qX c #86F9F7",
"wX c #94F9F6",
"eX c #9CFBFA",
"rX c #99F8F5",
"tX c #8FF0EC",
"yX c #A5FFFF",
"uX c #ABF8F6",
"iX c #BBFBFB",
"pX c #B8F9F6",
"aX c #A4EEEB",
"sX c #94C9CA",
"dX c #CBCCCC",
"fX c #C5C5C3",
"gX c #D7D5C8",
"hX c #DADADB",
"jX c #D4D5D4",
"kX c #D0CFD1",
"lX c #E6E4DD",
"zX c #ECE5D1",
"xX c #DFDFE3",
"cX c #C4FEFD",
"vX c #CBFCFC",
"bX c #C8F8F6",
"nX c #D4FDFC",
"mX c #DAFCFC",
"MX c #D5F8F6",
"NX c #D5F4E4",
"BX c #E5E5E4",
"VX c #EBEBEB",
"CX c #E7E8E7",
"ZX c #FFFAE8",
"AX c #E4FDFC",
"SX c #ECFDFC",
"DX c #E9F4F5",
"FX c #F3F3F3",
"GX c #F4FEFD",
"HX c #FFFFFF",
"JX c #F9F6F5",
"KX c #F7ECED",
"LX c #E0D9C4",
/* pixels */
"HXHXHXHXHXHXHXHXHXHXHXHXHXHXHXHXHXHXHXHXHXHXHXHXHXHXHXHXHXHXHXHXHXHXHXHXHXHXHXHXHXHXHXHXHXHXHXHXHXHXHXHXHXHXHXHXHXHXHXHXHXHXHXHX",
"HXHXHXHXHXHXHXHXHXHXHXHXHXHXHXHXHXHXHXHXHXHXHXHXHXHXHXHXHXHXHXHXHXHXHXHXGXHXGXGXHXHXHXGXHXHXHXHXHXHXHXHXHXHXHXHXHXHXHXHXHXHXHXHX",
"HXHXHXHXHXHXHXHXHXHXHXHXHXHXHXHXHXHXHXHXHXHXHXHXHXHXHXHXHXHXHXHXHXGXGXSXGXSXGXSXHXpXqX{.(.rXHXHXHXHXHXHXHXHXHXHXHXHXHXHXHXHXHXHX",
"HXHXHXHXHXHXHXHXHXHXHXHXHXHXHXHXHXHXHXHXHXHXHXHXHXHXHXHXHXHXHXHXGXGXGXGXAXGXGXGXqX.X.XpXrX].bXHXHXHXHXHXHXHXHXHXHXHXHXHXHXHXHXHX",
"HXHXHXHXHXHXHXHXHXHXHXHXHXHXHXHXHXHXHXHXHXHXHXHXHXHXHXHXHXHXHXGXGXGXbXbXSX0XsX'..XrXeXHXMX{.MXHXHXHXHXHXHXHXHXHXHXHXHXHXHXHXHXHX",
"HXHXHXHXHXHXHXHXHXHXHXHXHXHXHXHXHXHXHXHXHXHXHXHXSXHXHXHXHXHXGXGXDXrXrXSX-Xc S.}.FX|.A.sX.X XHXHXHXHXHXHXHXHXHXHXHXHXHXHXHXHXHXHX",
"HXHXHXHXHXHXHXHXHXHXHXHXHXHXHXHXHXHXHXHXHXHXHXJXMXHXHXHXHXHXGXGXSXpXnXsX< [ I.yXZX|.:.< Y.vXAXGXGXHXHXHXHXHXHXHXHXHXHXHXHXHXHXHX",
"HXHXHXHXHXHXHXHXHXHXHXHXHXHXHXHXHXHXHXHXHXHXHXpXAXHXHXHXHXGXGXSXAXAX0X8 I L C.iXbX).M [ V bXSXSXGXHXHXHXHXHXHXHXHXHXHXHXHXHXHXHX",
"HXHXHXHXHXHXHXHXHXHXHXHXHXHXHXHXHXHXHXHXHXHXMXrXHXHXHXHXHXGXGXSXAXmX0X9 P c |. X{.eXH.L C =XSXSXGXHXHXHXHXHXHXHXHXHXHXHXHXHXHXHX",
"HXHXHXHXHXHXHXHXHXHXHXHXHXHXHXHXHXHXHXHXJXHX{.AXHXHXHXHXHXHXGXSXAXMXnX_ K A aXGXHXAXyX_ K ] AXGXGXGXGXHXHXHXHXHXHXHXHXHXHXHXHXHX",
"HXHXHXHXHXHXHXHXHXHXHXHXHXHXHXHXHXHXHXHXMXqX XHXHXHXHXHXHXGXGXSXDXuXnX=XK { L.HXJXHXnXH.F 9 jXHXGXHXHXHXHXHXHXHXHXHXHXHXHXHXHXHX",
"HXHXHXHXHXHXHXHXHXHXHXHXHXHXHXHXHXHXHXHX.X~.bXHXHXHXHXHXHXGXGXSXpXbXAXaXV C U.AXJXSXyX_ P A mXmXMXHXHXHXHXHXHXHXHXHXHXHXHXHXHXHX",
"HXHXHXHXHXHXHXHXHXHXHXHXHXHXHXHXHXHXHXMX!./.GXHXHXHXHXHXHXGXGXHXrXpXbXpXsXG.qXwXiXtXY.' C ] SXaXMXHXHXHXHXHXHXHXHXHXHXHXHXHXHXHX",
"HXHXHXHXHXHXHXHXHXHXHXHXHXHXHXHXHXGXHX.X~.qXHXHXHXHXHXHXHXHXGXGXSXSXmXnXmXvXyX.X_ ] *.P X +XSXMXHXHXGXHXHXHXHXHXHXHXHXHXHXHXHXHX",
"HXHXHXHXHXHXHXHXHXHXHXHXHXHXHXSXbXHXAX(..XqXHXHXHXHXHXHXHXHXHXGXSXSXSXAXmXbXyXG.H i.C b Z..XMXHXGXHXHXHXHXHXHXHXHXHXHXHXHXHXHXHX",
"HXHXHXHXHXHXHXHXHXHXHXHXHXHXSXDX.XpX.X{.rXuXHXHXHXHXHXHXHXHXGXGXSXSXSXAXAXmXvXS e 0 B uXyX.X/.qXHXGXHXHXHXHXHXHXHXHXHXHXHXHXHXHX",
"HXHXHXHXHXHXHXHXHXHXHXHXHXHXGXuXqX!.(.AX XaXmXHXHXHXHXHXHXHXHXHXHXHXGXSXAXmXAX'.A._ >.GXDXHXbX!.uXHXHXHXHXHXHXHXHXHXHXHXHXHXHXHX",
"HXHXHXHXHXHXHXHXHXHXHXHXHXHXGXJX.X.XnXJX]. XbXHXHXHXHXHXHX>XL.<X=X>XHXHXSXGXeX.XuX).I.uXpXmXqX/.wXHXGXHXHXHXHXHXHXHXHXHXHXHXHXHX",
"HXHXHXHXHXHXHXHXHXHXHXHXHXHXJXcX[.0X:XHX/.].bXHXHXHXHXFXK.l.*Xn.P.J.l.hXGXSXqXFXJXJXuXqXqX.X X{.bXHXHXHXHXHXHXHXHXHXHXHXHXHXHXHX",
"HXHXHXHXHXHXHXHXHXHXGXHXHXAXyX{.=XH P K.I.(.MXuXSXHXKXG.D.9XN.x.x.b.D._ GXHXqXuXMXuXeXrXwXqXqXbXMXHXHXHXHXHXHXHXHXHXHXHXHXHXHXHX",
"HXHXHXHXHXHXHXHXHXHXpX X.X'.Y.' y.8XXXm $ (.AXwXSXHX} S.9Xm.R ! z l n.Z.fXHXDXqX XD.M U.vXbXGXHXHXHXHXHXHXHXHXHXHXHXHXHXHXHXHXHX",
"HXHXHXHXHXHXHXHXHXHXAX'.] [ >.4X8XY.5 F -./.MXDXHXgXV.E.M.v.R Z T ~ ! H.K.HXHXSXtXc C sXHXHXHXHXHXHXHXHXHXHXHXHXHXHXHXHXHXHXHXHX",
"HXHXHXHXHXHXHXHXHXHXGX'.< U.3Xg.J b J D B.].HXJXHXOXT.9XN.M.T p z l.l c.l.K.lXGXAXD * J oXFXHXHXHXHXHXHXHXHXHXHXHXHXHXHXHXHXHXHX",
"HXHXHXHXHXHXHXHXHXHXnXI.w C 1 < J ;.N M V.].HXGXHXY z.E.M.Q U p s z.v ^ c.l.b xXOXK f.k.e ;XHXHXHXHXHXHXHXHXHXHXHXHXHXHXHXHXHXHX",
"HXHXHXHXHXHXHXHXHXHXiXG.e a.0 , ;.J w.x S..XHXHX;XZ.g.j.8.4.4.X.O.#.D.N =.;XdX[ q #.k.f.e.[ HXHXHXHXHXHXHXHXHXHXHXHXHXHXHXHXHXHX",
"HXHXHXHXHXHXHXHXHXHXqXA I >.9 7 Z.J j.4 ^.SXHX;XV.<.1.t t 7 , , 6 X.4.T.J.JXHX' #.#.e.w.w.C JXHXHXHXHXHXHXHXHXHXHXHXHXHXHXHXHXHX",
"HXHXHXHXHXHXHXHXHXGX`.V >.>.< J B.j.w.5 MXJXoXx n @ A 4 5 ) b.4 3 > 3 K S.} HXdX* 0 w.w.w.F HXHXHXHXHXHXHXHXHXHXHXHXHXHXHXHXHXHX",
"HXHXHXHXHXHXHXHXHXmX`.9 r.#.5 C.> #.o.$ ;XHXB O = * L.r.2.=X=X#.o.V V @ b $ ` HXJ 5 o.w.o.% hXHXHXHXHXHXHXHXHXHXHXHXHXHXHXHXHXHX",
"HXHXHXHXHXHXHXHXHXAX XD M b $ 9 r e h.;.-.HXHX;X% q &X7X2X&X3X$.r L K #.+ - ;XkX-.;.o * % = h FXHXHXHXHXHXHXHXHXHXHXHXHXHXHXHXHX",
"HXHXHXHXHXHXHXHXHXHX.XsX` ] gXn.o #.q ,.;.{ L.) ,XC G { >.I G ;XC #X0 F # c 5XZ F.o.4 o < p = ` HXHXHXHXHXHXHXHXHXHXHXHXHXHXHXHX",
"HXHXHXHXHXHXHXHXHXHXpX/. XcXcXB.# 8 7 2.:.N x K.LX%.C 9 9 &   [ $Xp.L @Xh n.n x R.t e < 0 = Y - ,XHXJXHXHXHXHXHXHXHXHXHXHXHXHXHX",
"HXHXHXHXHXHXHXHXHXHXpX.X~.{.'.$ p y , 0.) M C.0Xt.@XP . X X . V 6Xa.[ @X} / l.N g. .w % w ; T U B HXHXHXHXHXHXHXHXHXHXHXHXHXHXHX",
"HXHXHXHXHXHXHXHXHXHXJXMXwX[.Z.1 z y | $.v.M tX7X6X$XD & 3 +., V gX&.%.@X,XC.M.n f.1.= % 0 8 s R - >XHXHXHXHXHXHXHXHXHXHXHXHXHXHX",
"HXHXHXHXHXHXHXHXHXHXGXHXrX~.n E z & 4.{ z B.NXZXZXu.{ $X+Xi.h $X1X%.%.#XK.C.v.T *.5.= = 7 0 y T h { HXJXHXHXHXHXHXHXHXHXHXHXHXHX",
"HXHXHXHXHXHXHXHXHXHXHXHX.XQ.v E y | o.c.h _.$X:XzXZX%X=.&.p.5X6X&.&.r.@XG.O ~ / ^ 4.2 y * e : T k ` HXHXHXHXHXHXHXHXHXHXHXHXHXHX",
"HXHXHXHXHXHXHXHXHXHXHXHX].|.i j 7 X.p z v B.G zXZX:X:XgX1X6X&Xr.i.t.i.d.J.= E E z #...+ ; r : ^ k W HXHXHXHXHXHXHXHXHXHXHXHXHXHX",
"HXHXHXHXHXHXHXHXHXHXHXSX{.bX` O 4.H f f y O @XzX&X&.d.t.&.&.&.p.t.&X&Xs.Y.= a k Z ! O.6 O e 8 Y : G HXHXHXHXHXHXHXHXHXHXHXHXHXHX",
"HXHXHXHXHXHXHXHXHXHXHXnXrXMXGX1XK = a s a = :X6Xr.p.a.&.&.%.i.p.t.1X%X-XZ.@ k a j a h @.7 8 q j S jXHXHXHXHXHXHXHXHXHXHXHXHXHXHX",
"HXHXHXHXHXHXHXHXHXHXHXmXMXHXHXHXJXOXS h h % 5X1Xt.p.a.t.[ %.p.y.d.:X; _.x u u i z s d l | 2 w % ` HXHXHXHXHXHXHXHXHXHXHXHXHXHXHX",
"HXHXHXHXHXHXHXHXHXHXHXGXGXHXHXHXHXHXHXCXFXoX#X%Xi.p.p.&.%.i.t.%X6XS y m u d a V h i j z s * 7 S JXHXHXHXHXHXHXHXHXHXHXHXHXHXHXHX",
"HXHXHXHXHXHXHXHXHXHXHXHXHXHXHXHXHXHXHXHXHX;Xu.zXa.a.a.%.t.a.7XgXS y - = p s - >XBX{ D h i * w C GXHXHXHXHXHXHXHXHXHXHXHXHXHXHXHX",
"HXHXHXHXHXHXHXHXHXHXHXHXHXHXHXHXHXHXHXHXHXhXS ZXd.p.a.*.d.5XoXy y p u p U z u ,XHXHXHXBXFX` 7 < fXHXHXHXHXHXHXHXHXHXHXHXHXHXHXHX",
"HXHXHXHXHXHXHXHXHXHXHXHXHXHXHXHXHXHXHXHXHXHX{ :X6X&.p.a.5XB + p d j p j Q T - fXHXJXHXHXHXoX< 7 OXHXJXHXHXHXHXHXHXHXHXHXHXHXHXHX",
"HXHXHXHXHXHXHXHXHXHXHXHXHXHXHXHXHXHXHXHXHXHXVXS 6X%X%.1XL + s p U T d R R z = :XHXHXHXJXHX,Xo 7 { HXHXHXHXHXHXHXHXHXHXHXHXHXHXHX",
"HXHXHXHXHXHXHXHXHXHXHXHXHXHXHXHXHXHXHXHXHXJXHXjXi 1X1X%Xi p p j Q E R R R Q - ;XHXHXHXHXHXhX& 0 8 CXHXHXHXHXHXHXHXHXHXHXHXHXHXHX",
"HXHXHXHXHXHXHXHXHXHXHXHXHXHXHXHXHXHXHXHXHXHXHXHXD O oX5X- p j T R R R R R R u oXHXJXHXHXHXHXV 7 * +XHXJXHXHXHXHXHXHXHXHXHXHXHXHX",
"HXHXHXHXHXHXHXHXHXHXHXHXHXHXHXHXHXHXHXHXHXHXHXHXS u = : = p d E R R R R R ^ k ` HXHXHXHXHXHXoXX w B HXHXHXHXHXHXHXHXHXHXHXHXHXHX",
"HXHXHXHXHXHXHXHXHXHXHXHXHXHXHXHXHXHXHXHXHXHXHXFXA T a u y p p R Q R R R R R U B JXHXHXHXJXHX>X@ e < >XHXHXHXHXHXHXHXHXHXHXHXHXHX",
"HXHXHXHXHXHXHXHXHXHXHXHXHXHXHXHXHXHXHXHXHXHXHXjXZ m.^ j d p p U R R R R R R ^ - 5XHXHXHXHXHXVX* w * ` HXHXHXHXHXHXHXHXHXHXHXHXHX",
"HXHXHXHXHXHXHXHXHXHXHXHXHXHXHXHXHXHXHXHXHXJXHXOXU / R Q E j j Y R R R R R R ^ k } HXJXHXHXHXHXS % B >XHXHXHXHXHXHXHXHXHXHXHXHXHX",
"HXHXHXHXHXHXHXHXHXHXHXHXHXHXHXHXHXHXHXHXHXHXHX` ^ ^ R R R U k T R R R R R R Q v.: kXHXHXHXHXHXHXCXHXHXHXHXHXHXHXHXHXHXHXHXHXHXHX",
"HXHXHXHXHXHXHXHXHXHXHXHXHXHXHXHXHXHXHXHXHXHXjXZ c.^ R R R R k R R R R R R R R v.R D HXHXHXHXHXHXHXHXHXHXHXHXHXHXHXHXHXHXHXHXHXHX",
"HXHXHXHXHXHXHXHXHXHXHXHXHXHXHXHXHXHXHXHXJXHX] ~ ^ R R R R R E R R R R R R Q R E v.Z +XHXJXHXHXHXHXHXHXHXHXHXHXHXHXHXHXHXHXHXHXHX",
"HXHXHXHXHXHXHXHXHXHXHXHXHXHXHXHXHXHXHXJXHX,Xi m.R R R R R R R R R R R R R R R R R N.i dXHXHXHXHXHXHXHXHXHXHXHXHXHXHXHXHXHXHXHXHX",
"HXHXHXHXHXHXHXHXHXHXHXHXHXHXHXHXHXHXJXHXdX% N.m.R R R R R R R R R R Q R R R R R E v.m.B CXHXHXHXHXHXHXHXHXHXHXHXHXHXHXHXHXHXHXHX",
"HXHXHXHXHXHXHXHXHXHXHXHXHXHXHXHXHXHXHXxX* / n.Q ~ R R R R R R R R R R R R R R R R T b.v.D JXHXHXHXHXHXHXHXHXHXHXHXHXHXHXHXHXHXHX",
"HXHXHXHXHXHXHXHXHXHXHXHXHXHXHXJXVXFXfXO ..q.j.u.c.! ! Q R R R R R E T R T R Q ! R / =.q.3.A jXBXJXHXHXHXHXHXHXHXHXHXHXHXHXHXHXHX",
"HXHXHXHXHXHXHXHXHXHXHXHXHXBXjXdXdXdX;X{ 0 t 3.7.0.e.%.L ~ x.x.c.c.c.x.x.c.Q ~ H o.8.7.7. .> >XdXfXBXHXHXHXHXHXHXHXHXHXHXHXHXHXHX",
"HXHXHXHXHXHXHXHXHXHXHXHXHXCXjXdXdXdXdXhXdXL.: 7 X.6.7.7.7.9.2.e.e.$.$.O.O.@.@.5.5.1.6 * A >XkXdXjXFXHXHXHXHXHXHXHXHXHXHXHXHXHXHX",
"HXHXHXHXHXHXHXHXHXHXHXHXHXBXVXHXFXCXhXhXhXlXkX+XD 4 6 6 ..X.3.6.7.3.3.5.X.| 6 , , 9 ) ;XxXxXBXFXHXCXVXHXHXHXHXHXHXHXHXHXHXHXHXHX",
"HXHXHXHXHXHXHXHXHXHXHXHXHXJXHXHXHXHXJXHXHXHXJXJXFXxX0X<Xb.` C 9 9 9 9 B V ` b.;XkXFXHXHXHXHXHXHXHXJXHXHXHXHXHXHXHXHXHXHXHXHXHXHX",
"HXHXHXHXHXHXHXHXHXHXHXHXHXHXHXHXHXHXHXHXHXHXJXhXhXHXHXHXHXHXHXFXFXFXFXJXHXHXHXHXHXHXHXHXHXHXHXHXHXHXHXHXHXHXHXHXHXHXHXHXHXHXHXHX",
"HXHXHXHXHXHXHXHXHXHXHXHXHXHXHXHXHXHXHXHXHXHXHXHXHXHXHXHXHXJXHXHXHXHXHXHXHXHXHXJXHXHXHXHXHXHXHXHXHXHXHXHXHXHXHXHXHXHXHXHXHXHXHXHX",
"HXHXHXHXHXHXHXHXHXHXHXHXHXHXHXHXHXHXHXHXHXHXHXHXHXHXHXHXHXHXHXHXHXHXHXHXHXHXHXHXHXHXHXHXHXHXHXHXHXHXHXHXHXHXHXHXHXHXHXHXHXHXHXHX"
};
