/* XPM */
static char *xpm___resized[] = {
/* columns rows colors chars-per-pixel */
"64 64 251 2 ",
"   c #040405",
".  c #0A0605",
"X  c #0C0907",
"o  c #050409",
"O  c #06090C",
"+  c #0B0B0C",
"@  c #07070A",
"#  c #130B07",
"$  c #130C0A",
"%  c #1A0E0A",
"&  c #180B06",
"*  c #0D110E",
"=  c #14120C",
"-  c #1C140B",
";  c #1B1409",
":  c #060C12",
">  c #0A0E12",
",  c #0B1313",
"<  c #0A161A",
"1  c #0C1A1B",
"2  c #071518",
"3  c #141513",
"4  c #141A14",
"5  c #1C1B14",
"6  c #131B1B",
"7  c #1C1C1A",
"8  c #191414",
"9  c #110F10",
"0  c #23140A",
"q  c #241A0B",
"w  c #2C1C0B",
"e  c #291408",
"r  c #331C0B",
"t  c #361808",
"y  c #231C12",
"u  c #271C16",
"i  c #29150C",
"p  c #1B251C",
"a  c #1A221A",
"s  c #38240C",
"d  c #282519",
"f  c #372618",
"g  c #3A321A",
"h  c #292511",
"j  c #0B1C22",
"k  c #081923",
"l  c #121E22",
"z  c #0D2328",
"x  c #132423",
"c  c #1A2323",
"v  c #142A2C",
"b  c #1C2B2B",
"n  c #192827",
"m  c #0C2A35",
"M  c #162D33",
"N  c #1C3334",
"B  c #17353A",
"V  c #193131",
"C  c #232C2C",
"Z  c #272924",
"A  c #3B2D23",
"S  c #342B24",
"D  c #2B342C",
"F  c #273329",
"G  c #383629",
"H  c #232D35",
"J  c #223432",
"K  c #2A3836",
"L  c #373B36",
"P  c #461D07",
"I  c #48250B",
"U  c #57290B",
"Y  c #462A14",
"T  c #552C13",
"R  c #493418",
"E  c #583718",
"W  c #4F340C",
"Q  c #67360E",
"!  c #673915",
"~  c #753B14",
"^  c #6C320C",
"/  c #443B2C",
"(  c #483828",
")  c #553B26",
"_  c #473D34",
"`  c #4C392E",
"'  c #633D23",
"]  c #29433C",
"[  c #38453A",
"{  c #3A402F",
"}  c #684519",
"|  c #79461A",
" . c #724C18",
".. c #49442C",
"X. c #584528",
"o. c #444334",
"O. c #4B4432",
"+. c #4C4C3A",
"@. c #47483A",
"#. c #564938",
"$. c #58553B",
"%. c #4D5139",
"&. c #674728",
"*. c #764A27",
"=. c #6A542A",
"-. c #775529",
";. c #654C35",
":. c #695439",
">. c #795836",
",. c #734D31",
"<. c #786539",
"1. c #59421D",
"2. c #183C45",
"3. c #0E3340",
"4. c #273C43",
"5. c #363E45",
"6. c #1B424A",
"7. c #194C56",
"8. c #1A535B",
"9. c #294647",
"0. c #374846",
"q. c #3C544C",
"w. c #264B54",
"e. c #295459",
"r. c #365758",
"t. c #354B54",
"y. c #185866",
"u. c #275A65",
"i. c #355E66",
"p. c #356870",
"a. c #266269",
"s. c #494B45",
"d. c #574D42",
"f. c #475649",
"g. c #585747",
"h. c #455954",
"j. c #5C5A5E",
"k. c #55585A",
"l. c #685645",
"z. c #735D4A",
"x. c #6A5D51",
"c. c #58614A",
"v. c #586458",
"b. c #4B635A",
"n. c #69634C",
"m. c #7B6447",
"M. c #776656",
"N. c #6A6B54",
"B. c #5D5B61",
"V. c #4C5C65",
"C. c #615E62",
"Z. c #496567",
"A. c #576767",
"S. c #5C726A",
"D. c #587978",
"F. c #4A7174",
"G. c #646569",
"H. c #677468",
"J. c #757C68",
"K. c #687875",
"L. c #736E6A",
"P. c #813E11",
"I. c #844919",
"U. c #8C541D",
"Y. c #844E25",
"T. c #875728",
"R. c #955C27",
"E. c #875C36",
"W. c #905F31",
"Q. c #9A652A",
"!. c #886439",
"~. c #986937",
"^. c #99733D",
"/. c #8C6931",
"(. c #A66826",
"). c #A36C31",
"_. c #A67538",
"`. c #B27B35",
"'. c #A45E1D",
"]. c #876846",
"[. c #956D44",
"{. c #997548",
"}. c #8A7458",
"|. c #997A56",
" X c #867051",
".X c #A47A48",
"XX c #A67F54",
"oX c #8A7964",
"OX c #967E63",
"+X c #825F40",
"@X c #748478",
"#X c #B5853A",
"$X c #98845A",
"%X c #B48646",
"&X c #A78459",
"*X c #B38B52",
"=X c #998467",
"-X c #8D8974",
";X c #A58A67",
":X c #AB9677",
">X c #B5997A",
",X c #AF916B",
"<X c #BCA176",
"1X c #C2985A",
"2X c #C69D65",
"3X c #C8A676",
"4X c #D5AC73",
"5X c #E0B87E",
"6X c #517B82",
"7X c #667B81",
"8X c #3E7480",
"9X c #54868B",
"0X c #768A89",
"qX c #709191",
"wX c #789DA3",
"eX c #76A4A7",
"rX c #869B93",
"tX c #8A9488",
"yX c #B99E82",
"uX c #AE9C86",
"iX c #94A398",
"pX c #B8A38A",
"aX c #B2A893",
"sX c #899CA3",
"dX c #92AAAF",
"fX c #ABB7B4",
"gX c #C8A785",
"hX c #D7B587",
"jX c #C8B499",
"kX c #D8B997",
"lX c #CFAE8A",
"zX c #CDBDA2",
"xX c #E1BD9B",
"cX c #B7C1B9",
"vX c #D2C4AD",
"bX c #E7CAA7",
"nX c #E7D6BA",
"mX c #F4D7B2",
"MX c #EAC597",
"NX c #A7BDC6",
"BX c #9DB7C4",
"VX c #B5C8CD",
"CX c #C7D7DA",
"ZX c #CAD0D0",
"AX c #F0DDC1",
"SX c #F7E5C6",
"DX c #FDF4D7",
"FX c #F9EDD0",
"GX c #D8E2E4",
"HX c #F1F4EB",
"JX c #D0DEE3",
/* pixels */
"B.j.j.B.j.j.j.j.j.C.B.C.j.C.B.G.:X} ] k.v.B.K.BXzXR.y 6 V ] i.p.9X9XiX<.1 > * > 9 k l M 4.t.i.H.=.K J x < > > k 4.i.7X0XN.-.b.qX",
"j.j.j.j.j.j.j.j.j.j.j.j.j.j.B.G.-X .F r.j.G.NXHX>XX.v x V ] e.p.p.9X$Xh 2   o O > < k m 2.2.u.h.o.N z 2 : : < m 2.p.i.b.<.$.@X9X",
"j.j.j.j.j.B.B.j.j.j.B.B.B.B.B.G.0X%X=.h.B.0XJXZX-Xr.9.N V ] e.a.p.@X=.x 2 : : 2 k k k m 3.2.w.0.b k 2 C R > 2 B i.t.i.i.c.b.p.8X",
"j.j.j.j.G.$Xx.B.j.B.B.j.j.G.,X X0X;XN.Z.G.qXdXrX9X@X9.V V B 6.7.p. X{ 1 k k < k k k j z M 2.4.M B Z.S.) w x k 6.0.w.u.i.f.a.a.9X",
"k.B.j.k.L.!.d V.B.j.j.B.j.7X>X=.Z.K.J.S.K.0XqXeXuX-.[ B z B 2.0.b.:.V D.|.G z k k k k c C B J Z.VXrX} . O M 3.6.9.w.9.y.a.a.p.eX",
"j.j.j.j.A.=Xt 3.A.G.C.j.C.fXaXg.] w.b.S.D.@X9XVX,.  d t.m V 6.N.N.{ qXjXI D B k k < l Z J F h.fX@XE ; * 2 m 6.6.6.J 6.y.y.p.9X0X",
"j.j.B.B.B.0X,.a u.6XK.G.rXGXVXZ.9.9.r.F.H.K.NXzXs   * ] e.2.9.M.:.S.cX} 4 v N n 1 k S g J J 0X0Xn.W Z n V B 6.6.B F 6.8.a.p.S.F.",
"#.k.B.j.B.G.-X%.oX X9X0XsXVXsXD.p.h.g.A.F.D.NX-XI 4 n ] [ 0.q./.=.0X*X} [ { F p 1 G ) S b K @X@X[.1.[ ] J V B 3.F b m 8.a.q.9.e.",
"=.s.A.A.j.j.J.@X=XI ] F.qXeXqXqX@Xb.b.Z.@XK.sX;X} %.@.{ [ L f./.1.J.#X<.$.{ d 7 Z X.Y d Z D H.@X^.=.[ D C v m M d v m 7.L 4.m 6.",
"}.n.F.@XK.K.J.qXiXW 4 V e.p.qX3X-XK.v.p.@X{.K.iX#X<.%./ S D $.-.R @.^.-.X.A h 8 / T u d f Z h.H.<.X.g d a l z d a z m D F m k m ",
"tXD.p.9XwXiXiXfXVX Xg F ] a.rX%Xc.Z.k.h.b.^.:.J.$X .( S S K :.! f D <.} Y u y Z ) s d f h Z O.:.=.W w 8 3 6 f d > 2 M C 3.k z m ",
"0XD.p.9XeXiXaXdXdXrX<.1.] e.wX%X-.f.d.s.f.m.=.g./.} Y / G d.>.R _ s.>.} Y u d ` E A R f u g &.) E h - $ $ d h 7 A.fXsXi.L m m B ",
"@X8Xp.eXeXdXiXqXiXqXD.<...e.D.m.-.O.@.@.s.<.#.x.<.X.#.:.:.{.].m.m.].].&.( ` #.,.&.' Y f d X.T ( I 0 ; = 4 h G qXfXrXf.E t n M N ",
"9Xp.qX$X1.F.qXqXtX$XH.S.<.q.r.h.;.` O.@.g.m.m.oX$X|.,X,X>X4X3X&X&X|.,X>.}.[..X~.-.' Y ( ;.! Y R w ; - q d g 0XiXN.X.W d m m m v ",
"9X8XNX=.  1 0.@X-XJ. X<.v.g.%.0.s.:.d.j.oX>X>XkXxXbXbXmXmXMXhX4X3X5X1X3X2X2X1X%XW.*.l.].I.T ) E Y r y f h <.-X$X-...[ 9.B M l l ",
"@X@XVX/.q 4 F q.<.n.v.:.,.#.$.$.x.oXOXyXbXbXSXDXFXFXFXFXFXmXnXmXbX5XkXMXhX5X#X).W.].%XQ.! ) >.~ Y i f r F $X%X-.R { Z Z a 6 6 6 ",
"@X@XdX$X1.[ { { _ #.s.s.l.l.x.=XyXkXnXAXDXHXDXDXFXAXnXnXAXAXAXSXbXnXnXkX4X`.{.&X.X1X.XY.' ].T.T t Y Y ( E.R.} I w ; = 8 3 4 8 3 ",
"$X1.9X0X<.$...{ A ` d.g.}.OXyXbXSXDXDXAXvXuXoXM.g.d._ _ _ #.l.z.=XpXjXkXlXjXlX3XgX1X[.,.]._.~ T ) E ' /.| I t 0 y q q 5 8 $ > , ",
"@X/.n.@XS.$.X...` 5.M.OXyXbXSXDXFXzX=Xk.L 5.t.r.4.2.H 4.5.K K Z Z g O.}.aXjXjXpX2X{.{.;X*X~.,.E.! &.T.Q r i g E Y i ; 8 5 u w y ",
"p.D.n.f.0.] { 1.;.}.uXxXmXFXnXpXL.5.i.7XdXGXGXGXZXsXH.V.r.f.q.h.s.0.G G ` oXpX:XOX;X,X*X).W.E.&.,.T.T ) *.-.Y.U r R T W s w h y ",
"@XA.h.s./ G L l.}.yXbXSXSXaXG.5.a.wXJXHXHXGXJXVXVXZXZXsXh.h.b.v.f.c.f.f.G ( :.OXOX;X,X.X|.[.[.~.Y.-.~.(.I.^ T &. .! T I f f h q ",
"J.m.#.@.....d.=XgXxXSXjXL.5.t.wXJXHXJXCXVXVXNXdX0XA.V.h.[ q.f.s.f.c.g.c.+.f.@.X.}.XX{.XX|..X~.W.~.Q.P.' ' *.T.R.| } E I Y Y g ( ",
"H.n.O._ d.M.;XkXAXmX-XV.t.F.NXHXJXVXNXNXBX0XB.5.0.0.5.L 0.[ 5.0.q.s.f.f.c.v.g.#.d.+X X|.XX.X).R.Y.-.~.Q.Y.R.Q.I.~ I e ` !.&.d 7 ",
"[.n.d.d.M.,XkXSXjXC.V.t.6XCXJXNXNXNXsXB.H C S 5._ d.d.s.@.s.s.L 0.[ @.f.+.f.f.g.g.;. X|.|.[.+X[._.(.P.~ T.R.~ P e 0 N.cX:XX.v o ",
"!.<.:.}.>XlXAXpXj.t.w.i.VXNXBXBXeXV.b l c S S S _ _ d.d.d.l.d.d.@.L L L _ s.k.$.g.$.<.}.{.[.[.W.Y.~ E.(.P.P e f E ].vXiXN O x 6 ",
">.>.m.:XkXmXyXd.5.w.y.7XNXdXsX6X2.k c u Z u S S S A ` ` ) #.l.d.d.@.G L G @.c.$.$.g.:.m. X{.[.E.[.).I.U P ) -.Q.R.:X<XW O = p a ",
";.>.|.pXbXgXt.5.y.y.u.dXdX7X5.l l c 7 u u u u 0 8 % 8 8 u ( ` l.l.;._ _ A L @.f.$.g.&.z. X{.[.~.W.~ ' ,.W.).'.I.*.-Xc.F d p n 1 ",
"d.:.OXkXkXj.t.w.y.y.8X6X7X3.k l 7 8 7 u 8 % X o   o o o o o 8 ` l.d._ ` A G o.+.g.g.;.:.].]..X~.E.[..X).).Q.Y.~ ! c.g.{ d h = @ ",
"].}.yXbX}.5.4.7.y.y.u.u.3.m l l 7 8 % $ . o     o o o o o o   . ` l.;.#./ A A _ g.%.#.>.].{.~.E.[..X(.R.Y.^ P t % y g d h =     ",
" X;XxX;X5.4.4.y.y.y.2.3.c l l 8 8 % # o o o o o o o o o o o o   $ d.l.` ( S A _ %.+.O.>.].E.E.[.).W.~ ! Y t i & # X X # X   X X ",
"M.>XlXd.5.4.2.y.y.3.3.m l 8 8 % % $ o   o o o o o o o o o o o o   ` z.d._ A A G #.s._ ;. X[.[.[.W.Y.*.T I i 0 # . .   X = ; = X ",
"=XlX;XL 4.3.2.y.y.3.k k k 8 8 $ $ o o o o o o o o o o o o   o o   A M.l.` A A G $.d.` ' +X].E.E.,.' ' Y t e & # # ; q q 0 # X   ",
",XlXx.S 4.3.y.y.2.M k l k 8 $ $ o   o o o o   o o o o o o o o o   / M.l.` S f / O.#.) ' :.z.E.,.,.' T Y s f Y Y Y r 0 # .   .   ",
"3XgXd.4.M 3.7.7.3.m l l 8 9 $ $ o     o o o o o o o o o o o o o o d.M.#.f u S _ +.` ( X.;.;.;.) T ( ) ' *.| U P 0 . o @ . # # ; ",
"yXgXs.4.M 2.y.7.6.m l k 8 9 $ $ o . o o o   o o o o o o o o o   u z.l.` f u S _ @.( ' l.,.>.E.E.E.Y.Y.| U P t i 0 0 q 0 ; $ # X ",
"lXgX_ H 3.2.y.7.2.B l k l 8 8 $ .   o o o o o o o o o o o o   9 l.l.` f u f / _ @.) ;.+XE.Y.*.~ ! Q T U T Y I r i 0 % $ # X . X ",
"lXgX_ H B 6.y.7.6.M m v l l u % # o   o o o o o o o o o o   8 z.l.` f u f A _ @.` ' l.,.,.' ' E Y Y Y Y E ! E E W s s s w 0 $ # ",
"xXlX_ H v N 8.8.6.V M v l Z Z u - X   o o o o o o o o     Z }.z.` ( f f A _ _ ( ) ' ,.,.' ' ' ' ,.T.W.T.I.~ Q U P t e & . .     ",
"kXxX_ H N N ] y.8.J V x c Z F S u y #       o o       O d.OXz.` A f f G / ..) ) ;.+X[.E.W.W.W.Q.R.I.P.~ ;X:Xg.#.X.I.U t ; ; # # ",
"kXbXz.H J v 6.e.8.7.B V B C C S S S u - #     o X Z #.oXoXl.( A f ( / o./ ( ) ;.+X>.>.E.Y.~ ~ ~ ^ U T tXZXtXs.D f Q I w s q ; X ",
"gXmXOXA H H Z 4.e.e.] B B V V G _ L _ _ ` ` ` l.M.oX}.l.` A f S A @.) +.` ` l.E.E.[..X(.R.R.R.I.I.Q n.-X$X=.] j O @ * q h h ; * ",
"gXbXxXd.H H c 4.] e.] ] 2.J J J K L _ #.l.x.M.M.x.#./ ( A / G / _ _ O.` ' z.E.z.' Y.~ ~ U U P P I I ..H.$X/.{ F a 5 h p F 1.g h ",
"yXbXSXOXS Z H 8 N w.r.e.q.] ] ] 5.K L L s.L _ _ O._ o...@.X.#.+.( o.O.,.+X[.~.~.W.E.E.' ' ! Y r e 0 ; d ..=...{ F d p x { =.g q ",
"yXxXSXbXl.S c c n N K [ ] i.[ %.s.[ 0.L L _ s.@.+.#.+.%.@._ / ..O.;.+X].[.E.E..X).(.R.Y.| ~ Q T s w q ; ; h g g Z p a v ] [ F ; ",
"yXkXbXSXlX#.u u n l H C L [ 0.q.q.@.0.%.f.f.#.$.+.+.) .._ _ _ ' ].}.].].E.~.[.E.`.'.'.Y.! T P i e % % ; ; * * 4 4 1 1 V 6.] V a ",
"OXgXxXbXAXjXd.i u 7 l Z Z D D [ [ { %...+.@.o.o.o.0.G / _ ;.+X}.{.XXE.Y.' Y.Y.Y.R.U.P.^ ^ U T I s ; $ . X       2 2 2 z B B v 1 ",
"OXyXkXbXAXAXxX}.u $ 3 7 7 n Z Z F G L L G G G g ( G _ :.].OX].XX[..X#X(.E.~ ' T T ! ! T t i 0 & % ; ; ; = X       2 2 2 z z z 2 ",
"OXyXgXxXhXxXZXnXjXz.f ; $ # 3 d p C S S A g G ( #.m.OX|.XX{..XE.~.W.).`.'.U.I.! I t i i r i 0 % X .   . * 4 4 4 * 2 1 2 2 2 2 2 ",
"OXXX>X2X3XhXkXnXAXZXvX:XM.d.` A A g ( _ l.z. X].OX{.|.{.{..X).).Y.Y.Y.R.P.U P I s I s w q ; # # X X   X @ @ , a p z p z 2 2 O O ",
"[.|.*X;X3X1X2X3X3XjXjXvXvXaXaXpX:X>X;X;X;X|.;X{.&XE.[..XT..X'.U.R.~ T T Q U e & . # & 0 q q ; X X .           O 1 p n n x 1 2 O ",
"m.{.[.;X%X,X1X%X,X*X;X,X:X;X,X;X,X;X,X&X&X.X~.{..XT.E.XXR.).(.~ ! ~ Q t r t s ;.#.G d = X X = ; = X X X   O @ O O 2 x n p x j 1 ",
"].z.oXXX&X1X%X&X%X!.&X,X{.{.^.&X~.&X)..X_.~.E.[..XU.Y.1X(.I.(.~ P Y ! P e 5 H.gX^.G K F 3   @ X = = * X * * * , , , 1 a p F n p ",
"d.M.$X{.*X#XQ.!.>.&X1X_.E.!.{.Q.[.#XT..X'.*.~.[.`.I._.).(.^ *.~ P i i I t G qX|.Q = > x p =     X * * * * O O , 4 4 4 4 4 a d F ",
"g.M.[..X#XU.) m.{.%X#XY.,.[.~.' {.'.*._.I.,.~.^.'.P.).I.R.^ P ' P i $ 9 e [ 0X$X} 6 2 a p 1 +         + , 4 , O : , * 4 a a h g ",
"x.].^.Q.} ) !.`.Q._.*.E >.~.| ;.).~ ,.(.T ~.T.).P.T R.^ ! ! i u Y t $ $ # a v.$X .] V n p 2 + @       O + , 4 a a 4 4 5 a h h h ",
"m.^.Y.E ;.^.Q.*.^.| Y X./.! R !.| T !.~ ) R.} Q.^ P &.Q t Y t & u s % $ X = a @.%.[ N x 1 , * + X       O O , 4 a 5 a a h q q s ",
"<.&.;.!.Q.| E <. .Y f >.! f &.} s Y T.U X.| E | U e h E t h s # . d q X @ 3 * O x N v < , : > , * X * * 2 4 4 a 4 4 4 ; 4 ; q q ",
"$.S.N.=.) S ) W s w =.! s f [..XG ( E t E U Y 1.t i $ f r $ u ; o 9 h ; . O , O   2 1 O @ : @ @ 2 2 * 4 a F h p h 4 4 ; ; ; q q ",
"K.f.[ ] D d $.m.s.{ } f y ( {.*.J q.g w Y t f Y e w ; # u # = ; # o 3 5 @ o O , O : 2 O o O O @ O 1 p F g g g g h h h q q q q ; ",
"%.[ [ [ C 0.,X>.K 0.L q - X./.; : D { g h ; y f 0 y %   @ $ > , X X . 6 6 o o < a O : O o o O > 1 p F ..g ..1.W g s h h q q ; ; ",
"f.q.[ ] B tX*.  X a ] C 8 l.T.w d G { d ; $ y q ; 5 - @ s.oXh.K a * = * p 4 O > p 1 2 O   O * a p { ..1.1.W W W W s s s w q ; ; ",
"h.] ] p Z.$XI 4 a F D K p @.<.g G D d h # + h & $ = & C iX&XS N J 1 4 = , C p O 2 n 1 *   * 2 n { ..1.1.} 1.1.W W W W s s q q ; ",
"9.i.q.F D./.s p a 1 1 x v a { ..C a - = . = - # X @ X 9.J.} & > z 1 : 4 4 4 C a 2 1 v 2 2 2 x F { =.=. . .Q } W W W I s s e q ; ",
"qX:X=.F S.=.G V 6 1 3 x x x x { d 7 7 3 3 7 5 , = + 3 q.H.*.h , 1 6 6 1 x p C K v p ] J x x F [ $.=.=. . . .} Q 1.W Y I s h h q "
};
