/* XPM */
static char *Meebit__14_resized[] = {
/* columns rows colors chars-per-pixel */
"64 64 222 2 ",
"   c #000101",
".  c #0B0A0A",
"X  c #100E0C",
"o  c #11100E",
"O  c #141414",
"+  c #151618",
"@  c #1C1C1C",
"#  c #1A1816",
"$  c #0D1115",
"%  c #201F1D",
"&  c #201B17",
"*  c #1F201F",
"=  c #22211E",
"-  c #2D271D",
";  c #33251C",
":  c #161C21",
">  c #1B1D21",
",  c #201F20",
"<  c #1E2122",
"1  c #242321",
"2  c #282724",
"3  c #2A2926",
"4  c #2A2B2C",
"5  c #27282A",
"6  c #382D26",
"7  c #363026",
"8  c #2A2F33",
"9  c #2D3134",
"0  c #2C343B",
"q  c #2F383F",
"w  c #3A3D3D",
"e  c #333739",
"r  c #503519",
"t  c #442E22",
"y  c #46342C",
"u  c #493426",
"i  c #563A29",
"p  c #453E3A",
"a  c #2F7331",
"s  c #7F6C15",
"d  c #5B4329",
"f  c #46433E",
"g  c #48443F",
"h  c #5C4236",
"j  c #64412E",
"k  c #785329",
"l  c #744B34",
"z  c #7C4D35",
"x  c #734936",
"c  c #7D533D",
"v  c #775039",
"b  c #734829",
"n  c #53783D",
"m  c #635011",
"M  c #353E44",
"N  c #2E3B46",
"B  c #3E4241",
"V  c #36424B",
"C  c #3B454C",
"Z  c #3D484F",
"A  c #3E4E5A",
"S  c #3B4A54",
"D  c #3F505B",
"F  c #347D43",
"G  c #3C6F44",
"H  c #3F5C72",
"J  c #3C546A",
"K  c #3F6177",
"L  c #444542",
"P  c #484743",
"I  c #4A4844",
"U  c #4C4E4D",
"Y  c #5A584A",
"T  c #414D57",
"R  c #42525C",
"E  c #4B5459",
"W  c #50585D",
"Q  c #515247",
"!  c #685349",
"~  c #7E5440",
"^  c #77594B",
"/  c #675A58",
"(  c #497256",
")  c #7B6356",
"_  c #465B6A",
"`  c #4B5D6A",
"'  c #475962",
"]  c #515D63",
"[  c #465F70",
"{  c #4C656D",
"}  c #52646A",
"|  c #4A7467",
" . c #456176",
".. c #4B6273",
"X. c #4B657A",
"o. c #4E697E",
"O. c #4E6876",
"+. c #536575",
"@. c #536B7C",
"#. c #536873",
"$. c #55757A",
"%. c #6B6A6E",
"&. c #766B6A",
"*. c #68737D",
"=. c #767875",
"-. c #6B6F77",
";. c #85582B",
":. c #814E35",
">. c #83543C",
",. c #89573B",
"<. c #955B3C",
"1. c #8B632B",
"2. c #95612B",
"3. c #886433",
"4. c #8E6831",
"5. c #946C32",
"6. c #956B38",
"7. c #91701C",
"8. c #835741",
"9. c #855944",
"0. c #8B5A42",
"q. c #835D48",
"w. c #945D42",
"e. c #985F44",
"r. c #85614E",
"t. c #996447",
"y. c #996C54",
"u. c #8A6E55",
"i. c #A26443",
"p. c #A56A4B",
"a. c #AE6F4E",
"s. c #A96947",
"d. c #B26D4A",
"f. c #AC7152",
"g. c #B37352",
"h. c #BC7652",
"j. c #BE7955",
"k. c #B77A59",
"l. c #BA724C",
"z. c #897B76",
"x. c #C27A54",
"c. c #C97E57",
"v. c #C67F59",
"b. c #C87F58",
"n. c #C77A48",
"m. c #CE7F64",
"M. c #268A26",
"N. c #3C8939",
"B. c #338147",
"V. c #3FA041",
"C. c #53984F",
"Z. c #60995A",
"A. c #618240",
"S. c #5CA455",
"D. c #62A05D",
"F. c #558073",
"G. c #72A76F",
"H. c #BE970E",
"J. c #CA9310",
"K. c #F0B313",
"L. c #D08930",
"P. c #8F807C",
"I. c #A6897B",
"U. c #B68972",
"Y. c #A1AF78",
"T. c #CC825B",
"R. c #C78A56",
"E. c #D3855D",
"W. c #D5885E",
"Q. c #DC8A5D",
"!. c #D8875F",
"~. c #D98E49",
"^. c #E58C5E",
"/. c #C88565",
"(. c #D48960",
"). c #DD8B62",
"_. c #D28563",
"`. c #E28F63",
"'. c #E69265",
"]. c #4F6C81",
"[. c #526E82",
"{. c #5C6F88",
"}. c #557186",
"|. c #597384",
" X c #577389",
".X c #5A768B",
"XX c #5E7A8E",
"oX c #59788A",
"OX c #5F7C91",
"+X c #557B96",
"@X c #607D8F",
"#X c #657583",
"$X c #617D92",
"%X c #667A92",
"&X c #707E81",
"*X c #5E829B",
"=X c #5C8097",
"-X c #6A828B",
";X c #6B898F",
":X c #7B858D",
">X c #638196",
",X c #66859A",
"<X c #68879C",
"1X c #67889E",
"2X c #6A899E",
"3X c #6C8393",
"4X c #788895",
"5X c #6589A2",
"6X c #6C8BA1",
"7X c #698FAA",
"8X c #6E90A5",
"9X c #6C91A9",
"0X c #7788A0",
"qX c #828589",
"wX c #978C89",
"eX c #888A90",
"rX c #8EB287",
"tX c #8292A3",
"yX c #B7B88C",
"uX c #A4C490",
"iX c #C6D5BB",
"pX c #D7DCCA",
/* pixels */
"XXXX@X@X@X@XXX@X@X@XXX-XXX@X@X@X@X@X@X@X@X@X@X@X@X@X@X@X@X@X>X@X@X@X@X@X@X@X@X@X@X@X@X@X@X@X@X@X@X@X@X@X@X@X@X@X@X@X@X@XXXXX-XXX",
"@X@X@X@X@X@X>XXX@X@X=XXXXX=X@X@X@X@X@X@X@X@X@X@XXX@X@X@X@X@XXX@X@X@XXX@X@X@X@X@X@X@X@X@X@X@X@X@X@X@X@X@X@X@X@X@X@X@X=XXX-XXX=XXX",
"@X@X@XXX@X@X@X@X@X@X@XXXXX@X@X@X@X@X@X@X@X@X@X@XXX@X@X@X@X@X@X@X@X@X@X@X@X@X@X@X@X@X@X@X@X@X@X@X@X@X@X@X@X@X@X@X@X@X@XXX-XXXXX-X",
"XX@X@X@X@X@X@X@X@X@X@X-X-X@X@X@X@X@X@X@X@X@X@X@X@X@X@X@X@X@X@XXX@X@X@X@X@X@X@X@X@X@X@X@X@X@X@X@X@X@X@X@X@X@X@XXX@X@XXX-XXX=XXXXX",
">X@X@X@X@X@X%X@X@X@X@X@XXX@X@X@X$X@X@X$X@X$X$X$X>X@X@X$X@X@X@X>X@X$X@X@X@X@X@X@X@X$X@X@X>X@X@X@X@X>X@X@X@X@XXX>X@X@X@X@X=XXX-XoX",
">X@X@X@X@X>X>X$X>X>X%X@X=X@X@X>X$X$X$X$X$X$X$X$X$X@X$X>X$X$X%X@X$X$X$X$X>X@X$X$X$X$X>X@X@X%X@X@X@X@X$X@X$X$X@X>X@X@X>X$X-XXX=X=X",
"@X@X%X>X3X$X$X%X$X>X%X>X%X@X>X%X$X>X$X$X$X%X%X$X%X$X>X%X>X>X%X>X>X$X%X>X$X$X$X%X%X$X$X>X$X$X>X>X>X>X@X>X>X>X$X%X>X$X$X%X$X$X-XXX",
">X>X>X>X$X>X,X$X>X%X>X>X>X>X>X>X>X%X<X<X<X2X,X,X<X,X,X>X>X>X>X>X>X%X>X>X<X<X2X,X,X>X>X>X%X>X%X>X%X>X>X%X%X>X$X>X>X%X>X$X>X>X$X>X",
">X>X>X>X3X>X>X>X>X>X>X3X>X>X>X>X,X<X' R ' T T T Z C V M M N e e 9 8 0 M Z R ' +.@..X@X>X>X>X%X>X>X>X-X>X>X>X>X>X>X>X>X%X>X>X%X>X",
">X>X>X>X>X>X>X>X>X>X>X>X>X>X>X,X{ M + . X o O O # @ > , % , , , 1 < 1 @ % % % % 1 2 4 9 T <X,X>X>X>X>X>X>X>X>X>X>X>X3X>X>X>X>X>X",
"3X>X>X,X>X>X>X,X>X>X>X>X>X>X>X2XA . + O + + O O O O # 1 , 1 1 = 1 = = 1 1 1 1 1 1 = = % 1 9 ' ,X>X>X>X>X>X>X>X,X>X>X>X>X>X>X>X>X",
",X,X,X,X>X,X,X>X>X,X,X,X<X2X2X8X..o O O O O O O O O & 1 1 = 1 = 1 1 1 1 1 = 1 1 1 1 1 1 1 # Z 2X@X>X>X>X>X>X>X>X>X>X>X>X>X>X>X>X",
",X,X,X,X,X>X<X>X,X,X,XXX$._ D A N X O O O O O O O O @ 1 1 1 = 1 1 1 1 = 1 1 1 1 1 1 1 1 2 % ' 8X2X2X,X,X,X>X>X>X,X>X>X>X3X,X>X>X",
",X,X<X,X,X,X<X<X,X,X2X0 O # + O O + $ O o o O o O o @ 1 1 1 1 1 1 = 1 1 1 1 1 1 1 1 = = = % 4 V R { @.XX>X>X<X>X>X>X,X>X>X>X<X>X",
"2X,X<X2X<X<X<X<X<X,X6XD + O O @ > @ @ # + O O O o o @ 1 % 1 1 = = = = = % @ = @ % % % % % = @ % @ @ 2 2 { 6X>X>X,X,X;X,X,X>X>X,X",
"2X2X2X,X2X<X<X<X<X<X<X2X$X` N > o + @ @ > @ > @ @ @ @ % % % % % % % * = = = = 1 = 1 1 2 2 = = = = = = # #.6X,X<X,X,X,X,X,X,X,X<X",
"2X2X<X2X2X2X<X<X<X<X<X>X5X6X6XXX' 9 O $ + + * * # + % 1 1 1 1 1 1 1 1 1 1 < 1 = < > 1 = 3 4 9 e B Z T ` <X<X<X>X<X<X,X<X,X<X,X<X",
"2X2X2X2X2X2X<X2X<X<X<X1X<X,X,X<X7X=.k i - * * * o . @ , , , , % 1 - 3 ; 7 t u i j b x z *.,X<X2X6X7X6X6X<X<X,X<X>X<X,X<X<X,X,X<X",
"2X2X2X2X2X2X2X2X<X<X,X1X<X,X,X>X1X*.1.4.;.i d r r t 6 i j j l ,.,.,.<.<.i.s.d.s.i.i.l.x.4X5X<X<X<X<X<X<X<X<X<X<X<X<X<X<X<X<X<X<X",
"2X2X2X2X2X2X2X<X<X<X<X<X,X,X,X,X,X&X4.3.c x k s b b x e.d.d.<.:.i.n.x.h.x.x.T.z   ; E./.4X2X<X<X<X<X<X2X<X<X<X<X<X5X<X<X<X<X<X<X",
"2X2X5X2X<X2X2X<X<X<X<X1X<X<X<X>X*X-X5.4.>.,.z 1.;.z v d.E.p..   >.E.c.c.T.T.Q.l   t ^./.2X2X2X2X2X2X2X2X2X<X6X<X<X6X6X<X2X<X<X6X",
"2X2X2X2X2X<X<X2X<X<X<X<X>X>X1X>X,X;X6.5.,.t.<.:.z >.c g.W.d..   w.).T.E.E.T.`.j   t `./.2X2X2X2X2X2X2X2X<X6X<X2X<X<X<X<X2X2X6X<X",
"2X<X<X2X<X2X2X<X<X<X<X<X<X1X>X<X,X>X6.5.3.,.,.z >.8.~ g.Q.d.    0.`.E.E.E.E.).t.l f.Q./.6X2X2X2X2X2X2X2X6X6X<X2X6X<X<X6X2X<X2X6X",
"2X2X2X<X2X2X<X2X<X<X<X<X<X>X,X<X>X,Xu.5.5.2.>.>.8.8.~ g.).x.l >.x.E.E.E.W.W.W.).'.).Q.U.6X2X2X2X2X2X2X2X<X2X2X2X<X6X2X6X<X6X2X2X",
"<X<X2X<X<X2X<X<X<X<X<X<X1X>X,X>X,X>X1X) 2.2.0.0.9.9.~ g.!.E.`.`.!.E.E.E.W.W.W.E.W.R.Q.U.5X2X2X6X2X2X6X2X6X2X2X2X6X2X2X6X2X6X2X6X",
"<X<X<X<X<X<X<X<X<X<X<X<X<X<X>X,X>X,X,X$X&.9.,.8.8.9.~ g.).c.m.E.E.E.E.W.W.E.E.E.W.W.Q.I.5X2X6X2X6X6X2X2X2X2X2X2X2X2X2X2X6X2X6X2X",
"<X<X<X<X<X<X<X<X<X,X1X,X,X>X,X>X,X>X>X1X5X@X&.r.0.9.~ a.!.E.E.E.E.E.E.E.Q.Q.`.`.Q.Q.Q.I.5X2X6X2X2X6X2X6X6X2X6X2X2X2X2X2X2X6X6X2X",
"1X<X<X<X,X<X<X<X<X<X<X,X,X<X>X>X>X>X>X>X$X<X<XM i 8.9.f.`.c.E.E._.m.m.^.j.f.t.q.P.eX4X2X6X6X2X6X2X2X6X2X6X2X2X2X6X2X2X6X6X6X6X6X",
",X,X,X,X<X,X,X,X,X<X1X,X>X>X*X>X>X>X>X>X5X[.A $ $ & i p.v.~.~.R.L.L.J.7.2 * * + S 7X*X2X2X2X2X6X6X2X2X6X6X2X6X6X2X2X2X2X6X2X6X0X",
",X,X,X,X,X,X,X,X,X,X,X,X,X,X1X>X>X>X>X>X..> o @ # + & 3 2 m J.K.K.H.s < 2 2 3 = E 8X2X6X2X6X2X2X2X6X6X2X2X2X2X2X2X2X2X8X6X6X6X6X",
",X,X,X,X,X,X,X,X,X,X,X,X,X>X>X>X*X=X>X$X1 + 1 2 @ % 2 1 1 > ; d y : @ 2 = = 3 = E 9X<X2X6X2X6X6X6X4X2X2X2X6X4X2X8X2X6X2X2X6X6X8X",
"=X>X>X,X,X>X>X,X>X,X>X,X>X,X,X>X>X>X>X>X0 # 3 2 @ @ 2 , 1 2 1 > < 5 3 3 3 2 2 * W 8X<X2X2X2X2X2X2X2X2X2X2X2X2X2X2X2X2X2X6X2X6X6X",
"=X>X>X,X*X,X,X>X,X,X,X,X,X>X,X,X>X>XOX>XN # 3 3 @ O 2 2 3 1 3 3 2 1 1 1 1 3 < l P.5X6X2X2X2X2X2X2X2X2X2X2X;X2X2X2X2X2X6X6X6X6X6X",
"$X$X*X>X$X,X$X,XOX,XOX>X>X>X*XOX>X*XOX1XN O 2 < + $ 1 1 1 1 1 1 2 2 2 3 3 3 < t.wX*X2X2X2X2X2X2X2X2X2X;X2X2X2X2X2X2X6X6X6X6X6X6X",
"OXOX>XOX$X,X$X,X*X>X>X>X$X,XOX,XOX>X$X,XW ; 7 y u @ @ 3 3 3 3 3 5 3 2 5 3 3 4 s.wX*X2X<X<X2X2X2X2X2X2X2X2X2X2X2X2X2X6X2X2X6X6X6X",
"OXOXOX+XOXOX$X$XOX$X>X$X*XOX,X$X$X*X$X>X&.e.b.h.i.; # 3 3 3 5 2 3 2 2 2 2 3 g.W.qX1X,X<X<X2X2X<X<X<X2X<X2X2X2X2X2X2X2X6X6X6X6X2X",
"OXXXOXXXOXOXOXOXOX*XOXOXOXOXOX*XOX$XOX*X%.w.T.h.i.; @ 3 2 2 2 2 2 2 4 4 3 7 T.E.:X1X<X<X<X<X2X<X<X2X<X<X<X2X2X2X2X2X2X2X2X2X6X6X",
"oXoXXXXXXXOX+XOXOXOXOXOXOX%XOXOXOX=XOX*X-.0.v.T.j.6 1 3 3 5 3 3 3 2 2 1 @ 4 b.E.:X*X<X<X<X<X,X<X1X;X<X<X<X<X<X2X2X2X2X2X2X6X2X2X",
".X.X.X.XXX.XXXXX+XXXOXOXOX+XOXOXOXOXOXOX*.0.v.E.b.u 2 3 5 1 < < < 4 6 h ~ p.T.E.4X,X,X,X<X;X,X,X,X,X<X<X;X<X<X<X2X2X2X2X2X2X2X2X",
".X.X.X.X.X.X.XXXXXOXOXOXXXOX.XOX+XOXOXOX#X0.v.T.c.y : 2 7 p x t.g.R.E.T./.g.E./.;X,X,X<X,X,X,X,X,X,X,X<X1X1X,X<X<X2X2X2X2X2X2X2X",
".X.X X.X.X.X.X.XXXXXXXXXXX.XXXXXOXOXXXOX#X9.x.E.v.,.t.x._._.T.k.y.r.! I L f n._.3X>X,X,X;X>X,X,X>X,X,X<X,X<X,X<X<X<X<X<X<X<X<X2X",
" X X X X X X.X X XXXoXXXXXXXXX@XOXoXXX+X%X^ j._._.e.f.y.^ Y P f B B L P g U z.:X>X>X,X>X>X>X>X,X,X,X,X,X,X,X<X<X,X<X<X<X<X<X<X<X",
" X X X X X X X X X X X.X.XXX.X.XoXXXXXXXXX~ k.E.x.i M B M P P P I I P P f W *X*X>X>X>X>X>X>X>X>X>X,X,X,X,X,X,X<X<X<X1X,X,X<X<X<X",
" X X{.}. X X X{. X X X X X.X.X+XoXoX.X.XOX) l.^.v , P P P P P P P I I P f W >X$X>X=X>X>X>X>X>X>X>X>X>X,X>X,X,X,X;X*X,X,X,X,X1X,X",
"}.}.}.}.[.}.}.}.}. X}. X X XXX X.X.XoXXXoX Xz.z.P 5 P P P g p P U B e P g W >XOX>X>X>X>X>X@X>X>X>X>X,X=X,X>X,X<X>X,X,X,X,X,X,X,X",
" X}.}.}.{.}.}.}.}.}.}.}.{. X X X.XoX X X.X.X.X+X..8 L P P ] +.[.=XV 1 I f ] >XOX>X=X=X>X=X>X>X>X>X>X,X>X>X,X>X>X,X>X,X>X,X,X,X,X",
" X X}.}.}.}.}.[.[.}.}.}.}.}.}.}. X.X X X}.{..XXXO.8 P P P }.OXXX$XV 4 I f ] >X$XXXXX>X@X@X>X>X=X>X>X>X>X>X>X>X>X=X>X>X,X>X,X=X,X",
" X X X}.}.}.}.}.}.}.[.}.[.}.}.}.{. X X}.}.{.}..XO.8 p P P @.oX XOXV 4 I f ] $X$XXX>XXX@X@X@XXX>X=X>X>X=X=X>X>X>X>X>X,X>X>X>X>X>X",
" X.X.X.X.X.X}.}.}.}.}.}.}.}.}.}.}.}.}.}.}.[.[.}.X.8 B P P +.oX XOXM 3 I P } $X@XXX$XXX$XOXOXOXOX>X=X=X=X>X=X>X>X=X>X>X>X=X>X>X>X",
"oXoX.X.X.X.X.X}.}..X}.}.}.].}.}.[.}.}.}.}.[.].].X.0 w I P +.oX{.oXC 4 L p } OXXXXXXXOXOXOXOX*XOX-XXXXX>XOX>X$X>X$X>X>X>X$X>X=X>X",
"XX.XoX.X.X.X.X{..X X}.}.}.}.].}.[.}.[.[.}.[.[.]. .0 f I P +.oX[. X/ h ) f.z.oX.XXXXXOXOX$XOXOXOXXX@X>XXX$X>X$X=XOX>XOX>X=X>X$X>X",
".XXX.XXX.X.X.X.X.X.X.X X.X}.}.}.}.{.[.[.[.}.[.[.o.w e L L [ [.[.[.! w.(.^.z. XoXXXXXOXOXOXOXOXOX=X=XXX=X=XOXOXOX=X$XOX=X$XOX>XOX",
"XXXXXXXXXX.X.XXXXX.X.X.X X X}.}.[.].[.].[.[.[.[.[.^ ! r.k.%.H  . .Q ,.).R.=.oX@XXXXXXXXXXX%XOXOX@XXXOXOXXXOXOXOX=XOXOXOXOX=XOXOX",
".XXX.XXXXXXXXX.XXX.X+X.X{..X.X}.{.[.].].o.o.[.[.].^ k.).`.&. .[ J | ( Y.uXB.%X.X.XXX$XXXOXXXXXXX@X@X@XOXOXOXXXOXOXOXOXOXOXOX=XOX",
"XXXXXXXXXXXX.XXXXXXXXX.XXX.X+X{..X X{.[.o. . . . .Y a.).R.=.@.O._ ` n M.iXS.| oX.XXXXXXXXX$XXXXXXXXX$X$XOXOXOXOXXXOXOXOXOXXX@X@X",
"XXXX.XOXXXXXXXXX%X.XXX.XXXXX.XXXoXoX.X X[.[.o. .H | A.yXrXB.|.$.@...' a N.Z.M.$.@X.X$X$XOXOXOXOX@X$XOXXXOXXXXXOX$XOXXX$X$X$XXXOX",
"OX.XXXXXXXXX%X.X.XXXXXXX{.XX.XXXXXXXoX.X.X X}.@. .#.N.V.pXC.| |.|.|.$.O.( D.rX3XXXOXOX$XXX$XOX%XOXOXOXOX%XOX$XXXXX$X@XXX@XOXXXOX",
".XOXXXXXOXOX.XOXXXXXXXXXOXXXXXXXXXXXXXXXXXXX.X X@.X.{ a Z.Z.M.$.|.oXXX|.-X0X$XOX$XXXOX$X%X@XOXOXOX%XOXOXOX$XXXOX$XXX@XOX%XXXOX$X",
"OX%X.X%XXXXXOX.XXXXXOXOXXXXXOXXXXXXXXXXXXXXXXX.XoX|.@.} N.S.G.;XXXXX=X-XXXoXOXOX$X$XOXOXOXOX$X%XOX$X@X%XOXOXOXOXOX@X$X@XOX%X%XOX",
".X.XOXOX.XOXXXXXXXXXXXXXXXXXXXXXOXXXOXOXXXXXXXXXXXXX.X.X4X0X<XXX-XoXXXXX@XXXOXOXXXOXOX%XOXOX@XOX$XXXOX$X$XXX%XOX$XOXOX$XOXOXOXOX",
"OXXXXXOXXXXXOXOXOX%XOX.XXXOXXX%X$XXX$XXXXXXXoX-XXXXXXX-XoXoX=XXX@XXXXX@XXXXX$X$X%XOXOXOXOX%XOXOX$X%XOXOXOXOX$X$XXXOX%X$XOX$X@XXX",
"OXOX%X.XOXOX.X%XXX.XOXOXOXXXXXXXXXXXXXXXXXXXXXXXXXXXXXXXXXXXoX-XXX@X@X@XXX@X@XXXXXOXOX$XXX@XOXOXXX$XOXOXOX%XXX$X$XOXOXXXOXOXOX%X",
".XOXOXXXOX.X%X.XOX.XXXXXOXXXXXXXOXXXXXXXXXXXXXXXXXXXXX=XXX-XXXXX@XXXXXXXXXXXOXXXXXOX%XXXOXOXOX%XOXOXXX$X$XXXOXXXOX%XOX$XOX%XXXOX",
"OXXXXXXXXXXXOXOXXXOXOXXXXXXXXXOXXXXXXXXXXXXX@XXXXXXXXXoXXXXXXX-XXXXXXXXX$X$XXX$XOXOXXXOXOXXX$XXXOXXX%X@XXX$XOXOXXXOXOXOXXXXXOXOX"
};
