/* XPM */
static char *pngwing_com_resized[] = {
/* columns rows colors chars-per-pixel */
"64 64 201 2 ",
"   c None",
".  c #000301",
"X  c #090C08",
"o  c #120F0A",
"O  c #031409",
"+  c #031C0C",
"@  c #021007",
"#  c #14130C",
"$  c #16180F",
"%  c #091C19",
"&  c #181916",
"*  c #020E16",
"=  c #241E14",
"-  c #330D0E",
";  c #03210E",
":  c #052510",
">  c #052A12",
",  c #142314",
"<  c #1A2618",
"1  c #073316",
"2  c #073719",
"3  c #073A19",
"4  c #093D1B",
"5  c #083618",
"6  c #17381C",
"7  c #262417",
"8  c #3A2A18",
"9  c #26351E",
"0  c #031A2A",
"q  c #201F20",
"w  c #1C3425",
"e  c #1B3A27",
"r  c #192D30",
"t  c #2D2C2D",
"y  c #252827",
"u  c #3A3824",
"i  c #3E3638",
"p  c #243A20",
"a  c #5C0D15",
"s  c #5A1218",
"d  c #471C17",
"f  c #7A111C",
"g  c #432B17",
"h  c #472E18",
"j  c #4D321A",
"k  c #5A3A1E",
"l  c #50341C",
"z  c #54291F",
"x  c #701F20",
"c  c #433D28",
"v  c #492D28",
"b  c #09441E",
"n  c #08471F",
"m  c #0A4C21",
"M  c #094921",
"N  c #184826",
"B  c #0B5324",
"V  c #0B5827",
"C  c #0C5C29",
"Z  c #19582D",
"A  c #1A5D32",
"S  c #275939",
"D  c #2F4525",
"F  c #0D642C",
"G  c #0E6A2F",
"H  c #15622D",
"J  c #0E6E31",
"K  c #166933",
"L  c #0E7232",
"P  c #0F7935",
"I  c #117434",
"U  c #117C37",
"Y  c #137E39",
"T  c #1A7538",
"R  c #0C702F",
"E  c #22653A",
"W  c #20733D",
"Q  c #49442C",
"!  c #4B4439",
"~  c #5A5437",
"^  c #524F34",
"/  c #664222",
"(  c #6C4524",
")  c #6C4828",
"_  c #734A27",
"`  c #774D28",
"'  c #784C27",
"]  c #635C3C",
"[  c #4C663B",
"{  c #69603F",
"}  c #052C48",
"|  c #0E354F",
" . c #083C62",
".. c #653B40",
"X. c #0A4C54",
"o. c #3E5F4A",
"O. c #277341",
"+. c #376D4A",
"@. c #0A436A",
"#. c #084568",
"$. c #144869",
"%. c #094773",
"&. c #0A4B79",
"*. c #14536E",
"=. c #26546E",
"-. c #454847",
";. c #595D48",
":. c #5C5C5D",
">. c #4B5853",
",. c #496252",
"<. c #5C6648",
"1. c #6D6542",
"2. c #696546",
"3. c #756D47",
"4. c #7C734B",
"5. c #78764E",
"6. c #747950",
"7. c #557762",
"8. c #6B7A71",
"9. c #717472",
"0. c #84131E",
"q. c #8A1621",
"w. c #951823",
"e. c #A61826",
"r. c #B81D2B",
"t. c #C11D2D",
"y. c #80774D",
"u. c #83784E",
"i. c #897E52",
"p. c #847A50",
"a. c #0F8338",
"s. c #12843A",
"d. c #128C3D",
"f. c #12903F",
"g. c #149441",
"h. c #159C45",
"j. c #329153",
"k. c #16A147",
"l. c #17A348",
"z. c #17A74A",
"x. c #478C60",
"c. c #668771",
"v. c #8D8355",
"b. c #88845E",
"n. c #948A5A",
"m. c #988C5B",
"M. c #918657",
"N. c #9C915E",
"B. c #9F9460",
"V. c #A29562",
"C. c #A69964",
"Z. c #AA9D66",
"A. c #AC9F68",
"S. c #AEA069",
"D. c #B3A56C",
"F. c #B6A96E",
"G. c #B9AA6F",
"H. c #B8A76E",
"J. c #BBAD71",
"K. c #BEB073",
"L. c #C2B375",
"P. c #CBBB7B",
"I. c #C7B878",
"U. c #D0BF7D",
"Y. c #D2C27F",
"T. c #0B5386",
"R. c #0B568B",
"E. c #0D5B8C",
"W. c #1E5E8A",
"Q. c #0C5B92",
"!. c #0C5E98",
"~. c #0C619D",
"^. c #0C65A3",
"/. c #0D6AAC",
"(. c #0D68A7",
"). c #0D6EB1",
"_. c #0E71B6",
"`. c #0F75BC",
"'. c #1269A5",
"]. c #7D8480",
"[. c #8B898B",
"{. c #87928B",
"}. c #949595",
"|. c #8D9491",
" X c #92BFA3",
".X c #A5A6A5",
"XX c #B4B3B4",
"oX c #BCBCBC",
"OX c #B6B9B8",
"+X c #D5C480",
"@X c #D8C781",
"#X c #DECC86",
"$X c #E0CE87",
"%X c #E2CF88",
"&X c #E3D088",
"*X c #C9C8C9",
"=X c #DADADB",
"-X c #E5E4E5",
";X c #EFEEEE",
":X c #FEFEFE",
">X c #F4F4F5",
/* pixels */
"                                                                                                                                ",
"                                                                                                              :                 ",
"                                                                y y y & X 5 m B m B V m m m M 2 1     X . : + 5 m               ",
"                                                          5 4 & t t t y y e K g.l.l.l.l.l.h.h.h.g.g.s.U G C L F J + b V b +     ",
"                                                    M K Y g.K y t t t t t t t e I h.l.l.l.l.l.l.l.l.l.l.z.h.g.s.a.J G 1 O       ",
"                                                + Y h.l.z.h.e t t t t t t t t t y N s.h.l.l.l.h.l.l.l.l.l.l.h.d.d.d.J m : .     ",
"                                                % s.z.l.l.I w w e e e w y y t t t t y K z.l.l.l.l.l.l.l.l.l.h.g.d.d.B           ",
"                                            & t q C l.l.l.g.f.g.g.g.P d.d.I F Z e y w g.l.l.l.l.l.l.l.l.l.l.l.g.d.F @           ",
"                                            & t y 4 h.l.l.l.z.h.K o.>.S L l.l.l.g.s.s.l.l.l.l.l.l.l.l.l.l.l.l.g.d.4             ",
"                                            & t t & d.l.l.z.f.,.oX;X>X-X].K h.l.z.l.l.l.l.l.l.l.l.l.k.l.l.l.l.g.a.:             ",
"                                            & y >.9.J z.l.k.O.OX-X:X:X:X;X8.P h.l.l.l.l.l.l.l.l.l.l.l.l.l.l.h.f.J O             ",
"                                            o t XX[.A k.z.a.|.oX.X:X:X:X:XXXA h.l.l.l.l.l.l.h.l.l.k.l.k.l.l.h.d.m               ",
"                                              >.*XXX,.d.z.T OX:X:X:X:X:X:X*XS g.h.l.l.l.l.l.l.l.l.l.l.h.l.k.g.d.1               ",
"                                              -.=X:X|.I z.T oX:X:X:X:X:X;XXXA g.l.l.l.l.l.h.l.l.l.l.l.l.l.h.d.L +               ",
"                                                }.:X*XZ l.s.{.:X:X:X:X:X-X8.L g.l.l.l.l.l.l.l.l.l.l.l.l.l.g.d.F                 ",
"                                                -.XX-X,.g.k.O.oX:X:X:X-X|.K g.h.l.l.l.l.l.l.l.l.l.l.l.l.h.d.d.b                 ",
"                                                    [.-.a.l.h.E 9..X|.7.H d.k.l.l.l.l.l.l.l.l.l.l.l.l.l.g.d.a.>                 ",
"                                                        C z.z.h.L m B J d.h.l.l.k.l.l.l.l.l.k.l.l.l.l.h.d.d.J O                 ",
"                                                        1 J G F T O.O.I a.d.g.l.l.l.l.l.l.l.l.l.l.l.l.g.d.d.V                   ",
"                                                                i :.:.<   ; 3 B L g.l.l.l.k.l.l.l.l.g.d.d.s.5                   ",
"                                                    |.oX}.    v 9.i a f q.0.f a - , V f.l.l.l.l.l.h.d.d.d.P +                   ",
"                                            + n b N 7.c.,.= g ! XX.X..e.r.t.r.e.w.w.a < a.l.h.h.h.g.d.d.d.F                     ",
"                                            : s.h.h.h.g.g.g.d.s.s.T Z u z x w.e.e.w.w.a G h.h.d.g.d.s.d.d.M                     ",
"                                              m k.l.l.l.l.l.l.l.z.l.l.k.h.s.I D z 0.e.s L g.d.d.J m B M V :                     ",
"                                                I l.l.l.l.l.l.l.l.l.l.l.l.l.l.l.g.I u = a.g.d.d.b L L +                         ",
"                                                1 g.l.l.l.l.l.l.l.l.l.l.l.l.l.l.l.z.l.d.g.f.d.d.b P P +                         ",
"                                                  C l.l.l.l.z.z.l.l.l.l.l.z.l.l.l.k.h.g.g.d.d.d.n L Y +                         ",
"                                                  + s.z.l.z.l.f.h.g.d.s.Y I J J F V V V m V F C 3 F F 9 u                       ",
"                : C 3                             o b T T Z N N 6 < , & $ $ # o         . B P L b [ M.L.M.                      ",
"              + I h.s.+             O c m.N.V.C.Z.S.m.m.D.H.H.H.F.G.G.J.J.D.D.A.Z.C.N.m.v.6.6.] Q i.$XP.B.<                     ",
"                F g.h.b   > n K s.d.d.Z N.&X%X%X%X%X%X%X$X%X$X%X%X%X$X&X$X$X$X&X%X&X%X%X$X%X$X$Xy.m.+XJ.S.8                     ",
"      4 V m 4 > 2 F F V J d.h.z.z.l.l.U p D.%X%X$X$X$X$X$X#X$X#X#X#X$X#X#X#X#X#X#XY.P.L.F.Z.V.M.Q L.I.L.J.c                     ",
"    b h.l.g.s.s.s.s.g.l.l.l.l.l.z.l.G ;   Q L.&X#X#X@X+X+X@X#X@XY.Y.Y.P.P.I.I.L.L.J.J.G.G.G.G.M.{ P.K.K.J.^                     ",
"  5 d.l.d.4 ; 4 g.l.l.h.h.l.l.l.l.F +       Q 4.i.M.N.C.D.J.K.L.L.L.K.K.J.K.K.K.L.J.D.V.M.5.4.1.C.I.K.K.L.1.                    ",
". 4 L U 2   @ I h.s.F V d.k.l.k.F O         # Q Z.G.K.K.K.K.K.K.K.K.K.K.K.G.S.n.u.3.4.v.C.J.P.@X+XL.K.K.L.y.                    ",
"      +     + d.g.b   O L k.l.G O         @ ~ u.5.K.K.K.K.K.K.K.K.F.C.v.4.1.Q 4.F.P.@X&X$X$X#X#XP.K.J.K.L.n.$                   ",
"            + d.h.V     F h.k.2       4 F s.T [ ^ p.K.K.L.F.V.i.3.1.3.v.V.S.~ I.&X$X#X#X#X+X@X#XL.K.K.K.K.Z.7                   ",
"            + d.l.L @ . m h.k.b   > F g.z.l.h.b o = y.p.~ ] 4.v.C.H.L.L.L.C.{ #X$X#X#X$X#XI.+X+XK.K.K.K.J.F.u                   ",
"            O m F V O . : V s.d.m m h.z.l.z.J       X = 4.F.K.L.L.K.L.G.C.Q u.&X#X#X#X#X#XF.+XP.J.K.K.K.K.K.~                   ",
"                        O 2 5 C F 5 C l.l.h.b           ~ m.J.K.K.L.Z.3.9 # D.&X#X#X#X#X+XZ.P.I.K.K.K.K.K.L.3.                  ",
"                + m F G I I d.s.U s.g.l.z.Y +               1.Z.D.4.u     c P.$X$X$X#X$XI.B.P.L.K.K.K.K.K.L.v.                  ",
"                m k.h.I B F h.k.s.F g.l.l.m                   u Q         1.$X$X#X#X$X$XF.N.L.J.K.K.K.K.K.L.C.7                 ",
"                I l.s.;   F h.G : O G h.l.m                               m.@Xm.I.$X$X&XV.N.K.K.K.K.K.K.K.K.H.c                 ",
"              + G s.V     m h.s.>   > s.z.s.1                           7 b.>.r S.&X@XJ.2.2.K.K.K.K.K.L.K.K.J.]                 ",
"                          + U k.L +   b G s.s.J 1                       X | /.@.u.b.>.=.!.%.5.K.G.v.;.6.C.L.L.y.                ",
"                            m g.U 4         3 b :                         | _.R.$.Q.).`.`.`.$.2.>.*.^.Q.=.:.n.M.&               ",
"                            O 1                                           * &._.`.`.`.`.`.`._.R.(.`.`.`.`.^.$.u #               ",
"                                                                            0 @./._.`.`.`.`.`.`.^.).`.).).!.0                   ",
"                                                                                } &.~.!.^.`.`.`.!.Q.^.Q.@.0                     ",
"                                                                                | %.@. .@.`.`.`._.%.} 0                         ",
"                                                                                Q.`.`.(.T.R.`.`.`.^.                            ",
"                                                                                ).`.`.).T.  ^.`.`._.R.                          ",
"                                                                              Q.`.`.`.^.    @.)._././.&.                        ",
"                                                                            %._.`.`.).%.      %.*.X.E./.@.                      ",
"                                                                            (.`.`.`.~.          F L X.`.^.#.                    ",
"                                                                          T.R.Q.)./.&.            X.(.`.`.(.T.                  ",
"                                                        m n             }   % #.X. .|               !.`.`.`.`./.%.              ",
"                                                      E j.Y s.I             m L 2                   %.(.'.W.W.=.-.l             ",
"                                                      x. Xj.k.k.I           d.L                       -.^ ) ) ) _ ) g           ",
"                                                        Z   P g.h.g.s.U I s.g.V           g k / ( ) _ ' ' ` _ l g g             ",
"                                                              C L P s.s.f.k.h.F         8 / ` ` ` ` ` _ / k g                   ",
"                                                                          I d.F         l _ ` ` _ ( k h g                       ",
"                                                                                        h ( / k j g                             ",
"                                                                                          g g                                   "
};
