/* XPM */
static char *_111_resized[] = {
/* columns rows colors chars-per-pixel */
"64 64 201 2 ",
"   c None",
".  c #000301",
"X  c #090C08",
"o  c #120F0A",
"O  c #031409",
"+  c #031C0C",
"@  c #021007",
"#  c #14130C",
"$  c #16180F",
"%  c #091C19",
"&  c #181916",
"*  c #020E16",
"=  c #241E14",
"-  c #330D0E",
";  c #03210E",
":  c #052510",
">  c #052A12",
",  c #142314",
"<  c #1A2618",
"1  c #073316",
"2  c #073719",
"3  c #073A19",
"4  c #093D1B",
"5  c #083618",
"6  c #17381C",
"7  c #262417",
"8  c #3A2A18",
"9  c #26351E",
"0  c #031A2A",
"q  c #201F20",
"w  c #1C3425",
"e  c #1B3A27",
"r  c #192D30",
"t  c #2D2C2D",
"y  c #252827",
"u  c #3A3824",
"i  c #3E3638",
"p  c #243A20",
"a  c #5C0D15",
"s  c #5A1218",
"d  c #471C17",
"f  c #7A111C",
"g  c #432B17",
"h  c #472E18",
"j  c #4D321A",
"k  c #5A3A1E",
"l  c #50341C",
"z  c #54291F",
"x  c #701F20",
"c  c #433D28",
"v  c #492D28",
"b  c #09441E",
"n  c #08471F",
"m  c #0A4C21",
"M  c #094921",
"N  c #184826",
"B  c #0B5324",
"V  c #0B5827",
"C  c #0C5C29",
"Z  c #19582D",
"A  c #1A5D32",
"S  c #275939",
"D  c #2F4525",
"F  c #0D642C",
"G  c #0E6A2F",
"H  c #15622D",
"J  c #0E6E31",
"K  c #166933",
"L  c #0E7232",
"P  c #0F7935",
"I  c #117434",
"U  c #117C37",
"Y  c #137E39",
"T  c #1A7538",
"R  c #0C702F",
"E  c #22653A",
"W  c #20733D",
"Q  c #49442C",
"!  c #4B4439",
"~  c #5A5437",
"^  c #524F34",
"/  c #664222",
"(  c #6C4524",
")  c #6C4828",
"_  c #734A27",
"`  c #774D28",
"'  c #784C27",
"]  c #635C3C",
"[  c #4C663B",
"{  c #69603F",
"}  c #052C48",
"|  c #0E354F",
" . c #083C62",
".. c #653B40",
"X. c #0A4C54",
"o. c #3E5F4A",
"O. c #277341",
"+. c #376D4A",
"@. c #0A436A",
"#. c #084568",
"$. c #144869",
"%. c #094773",
"&. c #0A4B79",
"*. c #14536E",
"=. c #26546E",
"-. c #454847",
";. c #595D48",
":. c #5C5C5D",
">. c #4B5853",
",. c #496252",
"<. c #5C6648",
"1. c #6D6542",
"2. c #696546",
"3. c #756D47",
"4. c #7C734B",
"5. c #78764E",
"6. c #747950",
"7. c #557762",
"8. c #6B7A71",
"9. c #717472",
"0. c #84131E",
"q. c #8A1621",
"w. c #951823",
"e. c #A61826",
"r. c #B81D2B",
"t. c #C11D2D",
"y. c #80774D",
"u. c #83784E",
"i. c #897E52",
"p. c #847A50",
"a. c #0F8338",
"s. c #12843A",
"d. c #128C3D",
"f. c #12903F",
"g. c #149441",
"h. c #159C45",
"j. c #329153",
"k. c #16A147",
"l. c #17A348",
"z. c #17A74A",
"x. c #478C60",
"c. c #668771",
"v. c #8D8355",
"b. c #88845E",
"n. c #948A5A",
"m. c #988C5B",
"M. c #918657",
"N. c #9C915E",
"B. c #9F9460",
"V. c #A29562",
"C. c #A69964",
"Z. c #AA9D66",
"A. c #AC9F68",
"S. c #AEA069",
"D. c #B3A56C",
"F. c #B6A96E",
"G. c #B9AA6F",
"H. c #B8A76E",
"J. c #BBAD71",
"K. c #BEB073",
"L. c #C2B375",
"P. c #CBBB7B",
"I. c #C7B878",
"U. c #D0BF7D",
"Y. c #D2C27F",
"T. c #0B5386",
"R. c #0B568B",
"E. c #0D5B8C",
"W. c #1E5E8A",
"Q. c #0C5B92",
"!. c #0C5E98",
"~. c #0C619D",
"^. c #0C65A3",
"/. c #0D6AAC",
"(. c #0D68A7",
"). c #0D6EB1",
"_. c #0E71B6",
"`. c #0F75BC",
"'. c #1269A5",
"]. c #7D8480",
"[. c #8B898B",
"{. c #87928B",
"}. c #949595",
"|. c #8D9491",
" X c #92BFA3",
".X c #A5A6A5",
"XX c #B4B3B4",
"oX c #BCBCBC",
"OX c #B6B9B8",
"+X c #D5C480",
"@X c #D8C781",
"#X c #DECC86",
"$X c #E0CE87",
"%X c #E2CF88",
"&X c #E3D088",
"*X c #C9C8C9",
"=X c #DADADB",
"-X c #E5E4E5",
";X c #EFEEEE",
":X c #FEFEFE",
">X c #F4F4F5",
/* pixels */
"                                                                                                                                ",
"                ;                                                                                                               ",
"              M 5 + : . .     5 4 M M m B B B m m B 5 X & q t y                                                                 ",
"    + b V b + J F L C G Y d.d.g.h.h.h.l.l.l.l.l.g.K e y t t t t & M 5                                                           ",
"      O 5 G J a.d.d.h.z.z.z.l.l.l.l.h.l.l.l.h.I e t t t t t t t y G g.Y F M                                                     ",
"    . : m J d.d.d.h.l.l.l.l.l.l.l.l.l.l.l.Y N t t t t t t t t t t w h.z.z.h.Y +                                                 ",
"          B s.d.f.l.l.l.h.l.l.l.l.l.l.l.I y t t t y y y e w e w w w I z.l.z.s.$                                                 ",
"          @ G d.g.l.l.l.l.l.l.l.l.l.l.l.d.w y e Z H U s.g.Y s.g.g.g.g.l.l.z.C q y &                                             ",
"            b d.g.l.l.l.l.l.l.l.l.l.l.l.l.s.s.g.h.z.l.I S ,.o.K g.l.l.l.l.k.4 y t &                                             ",
"            : U g.l.l.l.l.l.l.l.h.l.l.l.l.l.l.l.z.h.K ].-X>X;XOX+.h.l.l.l.d.& y t &                                             ",
"            @ J d.h.l.l.l.l.l.h.l.l.l.l.l.l.l.l.h.U 8.;X:X:X:X-XoXO.h.l.l.K 9.>.t &                                             ",
"              m d.h.l.l.l.l.l.l.l.l.l.l.l.l.l.l.g.A XX:X:X:X:X.XoX|.s.l.h.S [.XXt o                                             ",
"              5 s.g.l.l.l.l.l.l.l.l.l.l.l.l.l.l.g.S *X>X:X:X:X:X:XoXT z.f.,.XX*X>.                                              ",
"              + U d.h.l.l.l.l.l.l.h.l.l.l.h.l.l.g.A XX>X:X:X:X:X:XoXI z.L |.:X=X-.                                              ",
"                C d.g.l.l.l.l.l.l.l.l.l.l.l.l.l.h.L 8.-X:X:X:X:X:X{.s.l.A *X:X.X                                                ",
"                b d.d.h.l.l.l.h.l.l.l.l.l.l.l.l.h.g.K |.-X:X:X:XoXO.k.g.o.-XXX-.                                                ",
"                > a.d.g.l.l.l.l.l.l.l.l.l.l.l.l.l.h.d.K 7.}..X9.E h.z.P -.[.                                                    ",
"                @ J d.d.h.l.l.l.l.l.l.l.l.h.l.l.l.l.h.a.G B M L k.l.z.F                                                         ",
"                  B d.d.g.l.l.l.k.l.l.k.l.l.l.l.k.h.d.s.P W O.W F G K 1                                                         ",
"                  5 d.d.d.h.l.l.l.l.l.l.l.l.g.P B 3 :   < :.:.i                                                                 ",
"                  + P d.d.d.h.l.k.k.l.l.g.B , - s f f q.f s v 9.i     }.oX[.                                                    ",
"                    F d.d.d.g.k.h.k.l.a.< a w.w.e.r.t.t.e....XXX! d 7 ,.c.7.N b b +                                             ",
"                    M d.d.d.d.d.f.h.k.F a w.w.e.e.w.x j u A T s.d.d.f.f.g.h.h.h.s.:                                             ",
"                    : V n m m J d.d.f.L s e.q.z D K s.g.k.l.l.l.l.z.l.l.l.l.z.l.m                                               ",
"                        O P J b d.d.g.a.= u I f.l.z.l.l.l.l.l.l.l.l.l.l.l.l.l.I                                                 ",
"                        + P P b d.d.g.g.d.k.z.l.l.l.l.l.l.l.l.l.l.l.l.l.l.l.g.>                                                 ",
"                        + a.L n d.d.d.g.g.h.l.l.l.z.l.z.z.l.z.z.l.l.l.l.l.z.C                                                   ",
"                      u 6 F F 3 F C V m V B V F G R U U s.d.f.f.h.l.l.l.z.s.;                                                   ",
"                      M.J.n.[ e J P B .         o # $ $ , < < 6 N N H K Y 4 o                             4 C :                 ",
"                    = V.P.&Xv.Q [ 6.5.v.m.N.V.Z.A.D.H.H.H.G.H.H.H.H.H.D.N.n.A.A.C.V.N.n.u O             + s.h.K +               ",
"                    8 D.K.+Xm.u.#X$X&X&X&X&X&X$X$X$X$X$X&X&X&X&X%X%X$X$X%X$X%X%X$X&X&XV.A d.d.s.G n >   M h.g.F                 ",
"                    D J.K.I.I.Q v.V.A.F.L.P.+X#X#X#X$X#X&X#X#X#XY.$X$X$X$X$X$X$X$X&XD.9 U z.l.l.l.k.f.K C C F 3 > 4 m V 4       ",
"                    ~ K.K.K.P.{ v.G.G.J.G.G.J.L.I.I.I.P.P.P.+X+XY.%XY.Y.Y.Y.%X%X&XL.c   ; G l.l.l.l.l.z.l.g.s.s.s.s.g.l.g.4     ",
"                    { L.K.J.P.Z.1.4.4.M.V.H.J.L.K.K.J.K.K.K.K.K.L.I.G.S.S.N.M.i.4.Q       + G l.l.l.l.h.h.l.l.g.b ; 4 d.z.g.5   ",
"                    4.L.K.K.K.+X#XP.H.V.v.4.3.u.n.Z.J.L.L.L.K.K.L.L.L.L.G.L.G.S.Q #         O F l.l.h.s.V F s.h.L @   3 U I 4 . ",
"                  # n.L.K.K.K.P.#X#X#X$X#X#XP.H.4.Q 2.3.v.C.F.K.L.L.G.L.L.G.L.4.p.~ @         + F l.l.I @   b h.d.+     +       ",
"                  7 Z.L.K.K.K.L.#X@X@X#X#X$X$X$XP.~ S.V.v.3.1.3.i.B.F.L.L.L.u.^ [ T s.G 4       3 h.h.F     V h.d.+             ",
"                  u H.K.K.K.K.K.Y.Y.I.#X#X$X#X#X#X] V.L.L.K.F.C.v.4.] ~ y.y.7 o n h.l.z.g.F >   b l.h.B . @ L k.s.+             ",
"                  ^ K.K.K.J.L.J.P.Y.F.#X#X#X$X$X%Xi.^ V.L.L.K.K.L.K.H.4.= X       K l.l.z.h.m b f.s.B : . O B F B @             ",
"                  3.L.K.L.J.K.K.L.Y.Z.Y.$X$X#X$X%XD.$ 7 2.A.L.J.L.J.n.~           4 h.z.h.F 5 G C 5 3 O                         ",
"                  M.L.L.J.L.L.J.K.P.V.I.$X#X$X#X#X+Xu     u u.D.Z.1.              + U l.k.g.s.P s.d.U I K F B +                 ",
"                7 V.L.J.L.J.J.L.K.I.N.F.&X#X#X$X&X#X2.        Q u                   B k.l.g.G s.h.k.F m L h.h.m                 ",
"                c H.G.L.J.J.J.J.K.K.B.C.&X&X$XI.m.@Xm.                              m k.h.G O ; L h.C   ; s.l.I                 ",
"                ~ L.L.L.L.L.L.L.K.K.2.;.L.Y.&XA.r >.i.=                           5 s.l.s.>   > s.h.m     V s.G +               ",
"                y.L.L.C.5.;.v.F.J.4.$.!.=.>.b.5.$./.| X                       5 J s.s.J 4   + J h.s.+                           ",
"              & M.m.<.=.Q.^.&.>.2.*._.`._.).!.$.T._.|                         : b 3         4 s.f.M                             ",
"              # u  .^.`.`.`.`.(.R.).`.`.`.`.`.`._.&.*                                           5 O                             ",
"                  } Q.)._.`.).^.`.`.`.`.`.`.`./.%.0                                                                             ",
"                    0 @.Q.(.E.!.`.`.`.(.!.~.&.}                                                                                 ",
"                        0 } %._.`.`.`.@. . .&.}                                                                                 ",
"                            ^.`.`.`.R.T./.`.`.Q.                                                                                ",
"                          T.`.`.`.(.  T._.`.`.).                                                                                ",
"                        &./.)._.). .    !.`.`.`.!.                                                                              ",
"                      @./.E.X.*.&.      &.).`.`._.%.                                                                            ",
"                    #.~.`.X.a.V           !.`.`.`.(.                                                                            ",
"                  T./.`.`.~.X.            &.).).E.T.T.                                                                          ",
"              %./._.`.`.`.!.              |  .X.#.%   }             m m                                                         ",
"            l -.=.W.W.'./.%.                  2 L M             U Y T j.E                                                       ",
"          h ( _ ) ) ) ~ !                       L d.          I h.k.j. Xx.                                                      ",
"            g h v _ ' ' _ _ ( ( / k g           B h.s.I U s.g.h.g.P   C                                                         ",
"                  h k ( _ ` ` ` ` _ / 8         F h.k.f.s.s.Y L V                                                               ",
"                      8 j k / _ ` ` _ l         F s.P                                                                           ",
"                            g j k / ( h                                                                                         ",
"                                  g g                                                                                           "
};
