/* XPM */
static char *cc_resized[] = {
/* columns rows colors chars-per-pixel */
"64 64 256 2 ",
"   c #010101",
".  c #0B0504",
"X  c #0D0A05",
"o  c #04050A",
"O  c #0A060A",
"+  c #0C0A0B",
"@  c #050907",
"#  c #130504",
"$  c #1B0505",
"%  c #130A05",
"&  c #1B0C05",
"*  c #130C0B",
"=  c #1B0D0A",
"-  c #190609",
";  c #1C1304",
":  c #1C120C",
">  c #17140A",
",  c #0C0C11",
"<  c #070C17",
"1  c #120E11",
"2  c #1B0F10",
"3  c #0C1419",
"4  c #141213",
"5  c #1B1413",
"6  c #19171A",
"7  c #0F100F",
"8  c #240605",
"9  c #230B05",
"0  c #2B0B05",
"q  c #230C0B",
"w  c #2B0C0A",
"e  c #2C0406",
"r  c #330C0C",
"t  c #380A07",
"y  c #231204",
"u  c #2B1304",
"i  c #24120C",
"p  c #2B130C",
"a  c #291B06",
"s  c #321304",
"d  c #3B1304",
"f  c #331C05",
"g  c #3A1C05",
"h  c #32140B",
"j  c #3C140C",
"k  c #351B0A",
"l  c #241511",
"z  c #2D1411",
"x  c #241A14",
"c  c #2A1C14",
"v  c #2A1C19",
"b  c #241D1C",
"n  c #321312",
"m  c #331B13",
"M  c #3C1C14",
"N  c #3A1715",
"B  c #3A0F12",
"V  c #3A2507",
"C  c #2C2219",
"Z  c #34231B",
"A  c #3A251B",
"S  c #3A2616",
"D  c #382C10",
"F  c #2D2622",
"G  c #272728",
"H  c #372924",
"J  c #39322D",
"K  c #420A09",
"L  c #490907",
"P  c #540C0B",
"I  c #580907",
"U  c #4C1B0C",
"Y  c #471707",
"T  c #581706",
"R  c #5B0D10",
"E  c #431212",
"W  c #441C14",
"Q  c #4A1A14",
"!  c #561913",
"~  c #450F11",
"^  c #690A08",
"/  c #7A0B07",
"(  c #671809",
")  c #761806",
"_  c #671913",
"`  c #751413",
"'  c #4C2406",
"]  c #4B240B",
"[  c #472708",
"{  c #562707",
"}  c #483306",
"|  c #5A3509",
" . c #432B1C",
".. c #4A2718",
"X. c #582918",
"o. c #463019",
"O. c #593219",
"+. c #682808",
"@. c #752907",
"#. c #66370B",
"$. c #773909",
"%. c #662817",
"&. c #772715",
"*. c #683419",
"=. c #783819",
"-. c #4C2D23",
";. c #442C24",
":. c #552A24",
">. c #49342A",
",. c #52352C",
"<. c #583828",
"1. c #5A3D33",
"2. c #443B36",
"3. c #663A27",
"4. c #763B26",
"5. c #663E32",
"6. c #7A461A",
"7. c #5A4335",
"8. c #67462B",
"9. c #764327",
"0. c #654235",
"q. c #6A4434",
"w. c #6B493A",
"e. c #744C3B",
"r. c #7B4D3C",
"t. c #764734",
"y. c #7B533B",
"u. c #5B4C42",
"i. c #7E4E40",
"p. c #735142",
"a. c #880A08",
"s. c #950B08",
"d. c #861806",
"f. c #961A06",
"g. c #951B15",
"h. c #A50A08",
"j. c #B60906",
"k. c #A91808",
"l. c #B41806",
"z. c #AE1A13",
"x. c #872408",
"c. c #982A08",
"v. c #873707",
"b. c #9B3403",
"n. c #862715",
"m. c #883519",
"M. c #983A14",
"N. c #972916",
"B. c #A82C04",
"V. c #B42C03",
"C. c #BA2904",
"Z. c #A83705",
"A. c #B93705",
"S. c #AC3215",
"D. c #9B3A25",
"F. c #C60905",
"G. c #D70906",
"H. c #C71505",
"J. c #D71706",
"K. c #EA0804",
"L. c #F90104",
"P. c #E61706",
"I. c #F71803",
"U. c #C62608",
"Y. c #D92808",
"T. c #C53907",
"R. c #DA3908",
"E. c #C93512",
"W. c #EA2B06",
"Q. c #FF2202",
"!. c #F42907",
"~. c #E93608",
"^. c #F53608",
"/. c #EF3B12",
"(. c #874207",
"). c #854219",
"_. c #994419",
"`. c #9A4A0D",
"'. c #A64506",
"]. c #B84604",
"[. c #A74A18",
"{. c #A9581C",
"}. c #BA5815",
"|. c #B3560A",
" X c #B26514",
".X c #854925",
"XX c #87543A",
"oX c #975A37",
"OX c #93502C",
"+X c #AC572B",
"@X c #9D672C",
"#X c #B06C32",
"$X c #C94707",
"%X c #D64808",
"&X c #C85609",
"*X c #D65608",
"=X c #D05017",
"-X c #E74607",
";X c #F74708",
":X c #E75609",
">X c #FB5506",
",X c #EB5012",
"<X c #D86707",
"1X c #D1720C",
"2X c #E86706",
"3X c #F86706",
"4X c #F87706",
"5X c #ED7115",
"6X c #C75728",
"7X c #CF7025",
"8X c #E27224",
"9X c #885645",
"0X c #935B47",
"qX c #8F6647",
"wX c #B47648",
"eX c #A96E4A",
"rX c #C47744",
"tX c #D78509",
"yX c #D4910E",
"uX c #E68906",
"iX c #FA8808",
"pX c #EA9705",
"aX c #F89907",
"sX c #F69912",
"dX c #FB8D16",
"fX c #D7A90B",
"gX c #F8A607",
"hX c #EAB804",
"jX c #F2B00B",
"kX c #D28632",
"lX c #ED8F2E",
"zX c #F7B030",
"xX c #DAB332",
"cX c #F8CA0A",
"vX c #FAD034",
"bX c #B48357",
"nX c #B98D63",
"mX c #D08D53",
"MX c #F48E51",
"NX c #F8B848",
"BX c #FAB859",
"VX c #F3A94F",
"CX c #CC9463",
"ZX c #D9AA74",
"AX c #F0B572",
"SX c #CDA045",
"DX c #FEC545",
"FX c #FAD658",
"GX c #F4D151",
"HX c #F1D06F",
"JX c #F7E160",
"KX c #E8B785",
"LX c #F6D38F",
"PX c #ECD7A9",
"IX c #F3E5A3",
"UX c #ECECEF",
/* pixels */
"                    X X X @                 . B = = X * % . # .   . .   . @ .                                                   ",
"                > C C > @               X = j p > i = = % * w =   X . = =     .   O                                             ",
"              C o.C > X         .   . * W i > i U = p p > z i = p # . : = . .       @                                           ",
"            + S o.> @             O 5 z Q ! w i ! = h X.m : + N Q @ % X i : - = X # #                                           ",
"            > C o.7               z Q n l n ] : l N p M = l Q ) $ n = j p q q = . 9 #                                           ",
"            . > C X           # j U q # M Q z ! n q n M = n.%.N %.X.! _ l * z i $ & #               @ @                         ",
"              + >           i N W &.W z Q _ p Q n * m c W m.%.m ..= N X.l = # . @ # X         @ X > 5 X                         ",
"                X           @ h &.&.! c &.m.] N.m.W l ;.>.1.q.7.7.;.m l = * @       .       @ ; S D > X                         ",
"                                n N.S.&.*.*.:.3.OX4.,.p.e.w.e.5.e.e.e.,.Z O O -.O         % > X % c > @                         ",
"                                X w &.M.-.,.q.XX5.5.5.5.e.e.9X9X9Xr.e.9X0XA -.<.v * . . > a ; ; a a                             ",
"                % % k X             q X.Z ,.5.6X8X0X.Xw.e.w.w.XXt.r.r.r.9XXXt.r.;.X ; ; ; ; ; V D X                             ",
".                 X a i                 1 >.>.<.oXwXeXXXr.5.wX0Xt.5.5.q.t.9XXX+Xc # = > % = p m D x X         . .               ",
". $   . .     .       * %                 H w.5.t.r.r.r.p.p.0Xp.1.4.D.r.4.,.i.,.@ # # o - B O.<.S q n z q .   # 0 .             ",
"R t e   #         w w   . X       .     .   ,.i.r.4.5.w.9X9X9X9XXX9X9Xr.i.1.5.,.b $ 8 n E E 8...j M B B r r q 8 & & % # # .     ",
"_ %.$ $           r P             # . . .   o N eXCXeXmXeXqX0X9XeX0X9X9X9X9X1.H :.E ~ E E O...r n q # # q w w y y u u = .       ",
"# ` ^ #   . . .     8 &     .   .   .       r r :.ZXLXLXnXi.0X0X0X0X9Xr.0X5.N E j ~ R r M A * * 2 l     @ X = # & 9 = X         ",
"8 # / $     - -     . _ 8   # % # X 5 5 + t ~ q q ~ 0XKXKXnX9X9X9X9Xe.9X1.v B ~ r B i 5 ;.H H F b 4         + 4 % & % X         ",
"T a._ P     . #   .   &._ . & &           # P K B B ~ :.qXZXKXwXrX0X9X2.- E s.B 2 l 1 5 .       o   @ b 4     , 4 % % X         ",
"Y / j.G.$ = & . . % X Y x.* * O             O B ~ R n n e n qXZXrX5.H s.a.F.h.2 1 5 * 1 + 4 + + + O o 1 b 5 @   @ * = ; @ X     ",
"e   - / a.= u w s V h Y h.4 + @   X x + +     # B ^ h.^ 2 , 1 >.,.,.R s.E R -.>.H b 5 1 +           o     o , 1 = = a ; & ; % X ",
". 8 #   a.a.V ] ' { y 8 F.e @ : + 5 H .   *     - _ s.G.F.R n u.5.:.R E _ B 6 o O                     # O o , w h a V V g V f u ",
".         h.B.[ ' h g 0 h.I , m x 1 5 O   + @ , 3 w R R ` a.R &.! R _ R E H H H F 5 * 1 1 * = X   o     . * , 1 h { { { ' [ ' s ",
".   . $   e =XX., 6 v R m...c l 4 5 + @       4 J 3 O ` R R R H.:.B H b < 6 v 5 : 1 H H 5 5 5 4 @ . o o o O = j f.{ V f f g y X ",
"    O / a.& L ~ 5 F F &.U.4..X4.A 5 X @       F e.S.g.g.g./ d.N.+XD.Q Q 9.XXoXwXwXOX0 %   O X X       .   = = s $.V y ; ; ; X . ",
". % 9 8 ^ ) % o M v Q =.g.S.X..X*. .l o       J D.Q.Y.J G G 6 o 2 XXmXMXMXMXMXMXMXM.[ c i . * 5         . = . i [ ; ; ; ; ; X # ",
". u y @ a @.&   1 O v *.=.z.N.5.<.W v.{.%     F p.g.z.H < G J G p.CXnXnXAXAXMX8Xd.` _ %. .l . l c   @     . # & V a a y f V 9 s ",
"i V f u ' +.u . o * l >.=.) z.4. .U $XdX..    b u.u.H G 3 < + y.bXCXbXqX1.5..X.X3.<.%.&.n.x.T - x 1 X   @ . # i V u f V ' | { 0 ",
"[ } [ [ ' { f y . O = - z U F.g.Z <.%._...    7 2.p.u.1 < 4 y.ZXmXe.w.t.3.:., 6 <.<.:.-.O.%._ _ P W     . .   h #.V [ ' | | Y 8 ",
"#.O.#.| #.{ g { ' p y X # +.j.P.&.Z O.4.*.#   * H u.u.2.<.wXwXoXXXXX5.Z 1 ,.t.;.Z <.*.3.X.S : 9 B ` L $       ( 6.| { | | } 9 t ",
"#.$.$.#.$.| +.x.@.{ +.+.{ ( J.,XS.3. .] }.6.  % < G 0.mXwX7.F >.w.w.XXr.5.;.:.3.m  .X...p # . .     8 I ^ w   k D } } } } } V g ",
"O.$.6.#.#.#.#.$.$.$.$.A.'.| &.!.E..X3.X.kXNX9   -.bXBXwXJ 7.7.0.w.5.q.5.5.:.v ..] W k u 9 = #   . #     e a.{.'.{ } } V V V V V ",
"O.6.6.$.#.#.v.'.(.v.].%XZ.| O.U.^.6X#XlXBX#XZ oXVXAXCX>.w.<.>.<.5.q.t.q.-.3.;.m v X   X # # .     K e #     #.:XW.d.Y V V a a a ",
"[ 6.(.#.| v.].'.v.'.Z.sX1X6.[.N.^.-XM.M.&.#XmXwXX.*.;.l H >.>. .Z -.q.Z  .-.H F F o                 # $ $ & s d B./.l.T y ; @.U ",
"$.'.(.v.'.'.Z.'.(.(.(.&X2Xv.| #.E.dXv.] kXDXVX7X+XoXOXOXXX<.S S # > Z v > F H 1 b O +                   . d Y Y p @.R.E.^ k.v.V ",
":X<X].].pXpXtX'.{ +.{ Y $XS.[ V c.4XC.( @XGXHXFXGXBXNXzXlX6. .: c Z C % > 5 H o @   1 +               . % V g ( ( U ) T.,XK./ & ",
"U.R.~.U. XtX<Xc.( Y K P ].5Xc.{ ) ,X:X@.Y oXlX6X[.[.`.`.).9.m m -.Z :   v 1 o ,       @               . ( ' g V Y ( k.j.U.%XB.s ",
"V u K a.R e t L Y &   t k.>X>XU.j.~.dXk.Y 7XzXkX7X X XOX6.4.OX6.m Z %   c C                             ^ @.' ' V V ' d.h.F.;XE.",
"e       L s.I ^ e     % f.^.aX5XL.K.>XU.d @XvXzXzXDXDXDXzXNXzX#X..i % X i  .x     o o                     W { { { ' g a W I s.I.",
"t K       e ^ t 8 . . 0 h.^.aXaXP.G.!.W.L & X..X7X@X@X{.{.6.=.*.S % = = * Z ;.A   o o o @   o         @   p @.c.B.@.[ ' g % = t ",
"  K t       . 8 # @   s T P.iX4XG.d.J.Q.a.& #   N [.*.%.*...  & Z  .A * : C C >.v o o                       U x.d.+.g u ; & % X ",
"$                     % ) G.3XiXI.) ) >XH.L . p SX7X=.9.9.c # k Z o.l 1 5 A 3.<.,.l   o                       @ X 9 g K d 0 & & ",
"9 T 0               @ 8 K.L.Q.aX>XL.L |.^./ 8.VX8X=.9.9...  . p k m       * 9.oX4.A 5       o                         9 d d 0 9 ",
"T T u # #           @ D I / P.iXgXP.^ A.;X+XFXdXA.c.N.:.z % h S Z x 1       * 4.+X3.-.i     o               X X . # X O @ @ . t ",
"+.Y     . 8 $   . K a.l.( T l.4XvX:Xs.J.~.}.lXuX|.M.[.7X).] =.<.O.6 H *         b ..z X             .     * % = = .   + o     p ",
"& y . .   . $ # t j.j.^ ) T / W.vXdXG.P.^.~.F.J.A.7X8XlX4.N.).<.<.i , G 1       o                       X X . : i # , o o   = W ",
"        . . . = L G.j.s s _.v.l.3XgXY.P.W.3XK.K.W.,X*X+X.X8X.Xq.3.6 o O 1 + = .                 o   . % 5 x =   = h i > 1 o 9 = ",
"        X # % y & 8 I I I ( m.k.;XjX2X~.>X4X^.K.H.-X>X$XlX:X_.t.-.o.+ F c z ` *                   X > v A A *     & Y ' s u s P ",
"9 .   X . & ; 9 9 & & s L &.E.K.,XsXzX4XiX4XaX^.J.&X$X,X>XdX&X*.,.t.O.6 ).W.R o               . > x S ;.c X         # ) d.d.f.k.",
"8 L T 0 . # X # Y Y s d d Y @.H.>XiXvXgX4XaXcX4XP.*X|.7X>X}.<.OX6X9.,.-.&.S.:.H 1         * x = i v v +               - P ^ d.s.",
". $ 0 d g u u g [ ' ' Y Y ) d.R.3XiXDXsX4XjXjX4XI.-X<X&X%X3.<.<.{.=X;.X.&.G F H >.C , +     .                           n j.F.H.",
"      y ' T ' Y T T +.@.@.f.U.>XaXaXDXFXaXiXgX4XW.~.:X:X2X}._.8.6.%X=X%.4 4 x 6 4 +                                     7 &.R.T.",
"& % y y & & & s +.@.c.l.l.V.U.R.-X3XVXJXgXiXgXiX^.-X:X2X*X2X%XE.=X8XA.<.H b 3 , , 4 + + @   @           .                 5 T.~.",
"& y u ; ; g ] ] [ { x.U.3X%XT.$X:X3XzXLXcXjXaX4X3X3X-X2X*XZ.=X$X6X.XX.O.*.-.A l + @ O + + +                 . .       # P k.%X2X",
"9 s s Y Y s u Y ..V | $.b.Z.T.iXaXgXDXUXGXcXjXiX4X4X~.%XiX2X%XA.v.m.*.{ N A A A v 6 , o o , + @               . t L / s.) U Q E.",
"& & % % 8 t g @.f.x.x.T.V.b.A.$X:X2XGXUXHXJXvXgXlXaXpXuX:XiX5X&XS.M.v.*.X.l v Z * = x 6 1 + , 1 +           w K K t 0 ;     = d.",
". # & & y f ] { @.c.B.V.V.T.A.T.A.%XlXIXIXFXHXgXNXsXgXzXsX2XsX5X2X].g.+.+.X.p c m *   O 4 1 + , +     o % % .     # L ` B.].*X:X",
"& u g [ ' f y +.+.$.v.B.V.C.C.C.T.%XAXHXHXGXHXxXDXcXjXzXhXgXuXjX*X*X=Xc.n.%.] - = 5 4   . * 8 - * - & * # . # 9 ( %X2X:X:X-Xl.a.",
"% 9 u s s u { v.v.b.B.Z.A.T.T.$X*X<XkX8XuXFXPXHXGXjXpXpXjXaX5XlX8XB.T.c.N.B.k.B.) Y h z # o O r r e K I a.f.k.H.W.:XR.~.R.^ . @ ",
". % u s g Y +.@.c.b.B.A.T.T.$X$X$X&X*X<XpXvXPXPXGXhXpXuXuXgXpX8XlX[.%...h W j.J.k.f.j.h.j.s.^ I L - # o . 9 w 8 8 K I ^ a.L t L ",
"X # % & y s Y ' ' @.b.Z.'.Z.A.T.$X<X&X*XtXpXhXPXHXcXhXhXuXuXuX1X7X[.m.*.O.s ~ t & + q q w P P I P - 0 j =   # 8 .         . # # ",
"9 & 9 u u g u 0 Y +.+.+.@.v.A.V.A.$XV.C.$X1XfXHXHXfX1XpXfXuXuX<X<X[._.).3...p K t & & y y % 9 L P 5 < Y ) K 0 & t 8 #           ",
"u u y s s s d { c.b.b.'.].V.A.V.V.C.A.A.$X&X1XfX1X1X&X<XpXfX1XpX1X X3.8.4.3.O.S ..] W k Y Y u 9 P / K 4 j 0 0 9 $ $ 8 $ .       ",
"u s 9 u s T d.c.b.b.Z.].B.B.V.V.V.C.A.A.].$X<XyX&X&XA.A.|.fXxXfXfX1X X*.4.3.<.%.X.X.O...W ^ / T s t a./ h 1 % # $ 8 t e t e #   ",
"9 0 0 Y ( d.c.Z.Z.'.].Z.B.B.B.V.V.l.l.k.V.].].1X|.&X|.].|. X1XyXfXfX1X X=.=.*.*.%.+.+.&.+.Y a.h.s.@.x.s.a.P i & & # 8 I I K t 8 "
};
