/* XPM */
static char *xpm__removal_ai__bb6b0f00_a928_4f93_bcc6_126e0e89544d_meebit_14_resized[] = {
/* columns rows colors chars-per-pixel */
"64 64 166 2 ",
"   c None",
".  c #020404",
"X  c #090807",
"o  c #0D0B09",
"O  c #130E0B",
"+  c #16100C",
"@  c #1C130E",
"#  c #141414",
"$  c #181716",
"%  c #161719",
"&  c #17181A",
"*  c #1C1B1B",
"=  c #211F1D",
"-  c #21201F",
";  c #2E241F",
":  c #33281E",
">  c #33251D",
",  c #1E2021",
"<  c #242322",
"1  c #282725",
"2  c #2C2825",
"3  c #2B2C2D",
"4  c #322923",
"5  c #3A2D24",
"6  c #342E2A",
"7  c #3C322B",
"8  c #3E3422",
"9  c #2D2E31",
"0  c #302F30",
"q  c #3A3937",
"w  c #3E3E3D",
"e  c #373333",
"r  c #452E1F",
"t  c #482F1F",
"y  c #432D21",
"u  c #443227",
"i  c #41342D",
"p  c #4C3629",
"a  c #4C3A2C",
"s  c #4F3325",
"d  c #533A23",
"f  c #5B3D25",
"g  c #53392B",
"h  c #5B3D2B",
"j  c #4A3931",
"k  c #403F3C",
"l  c #513F36",
"z  c #2D7B2C",
"x  c #3B7C3C",
"c  c #6A501E",
"v  c #7D6419",
"b  c #5E472B",
"n  c #41403F",
"m  c #554034",
"M  c #5D4437",
"N  c #65422F",
"B  c #6D4E29",
"V  c #6D462E",
"C  c #794F2B",
"Z  c #734C29",
"A  c #79532B",
"S  c #6F4A35",
"D  c #604739",
"F  c #6D4D3B",
"G  c #6A4531",
"H  c #714832",
"J  c #7A4E35",
"K  c #7B4F39",
"L  c #615A3B",
"P  c #71513E",
"I  c #7B523A",
"U  c #7E5234",
"Y  c #464542",
"T  c #484743",
"R  c #4C4944",
"E  c #594C43",
"W  c #554C46",
"Q  c #695448",
"!  c #7A5946",
"~  c #5B7A47",
"^  c #567F57",
"/  c #5C7F58",
"(  c #6E6142",
")  c #865D2E",
"_  c #825333",
"`  c #83553C",
"'  c #8B563B",
"]  c #865A3D",
"[  c #8C593C",
"{  c #945C3E",
"}  c #88622E",
"|  c #8D6823",
" . c #91622D",
".. c #8C6532",
"X. c #8D6239",
"o. c #916334",
"O. c #936B34",
"+. c #845741",
"@. c #855942",
"#. c #8B5C43",
"$. c #925E42",
"%. c #985F40",
"&. c #81604D",
"*. c #8B6143",
"=. c #936146",
"-. c #9E6344",
";. c #946248",
":. c #986448",
">. c #9E684B",
",. c #8F6751",
"<. c #976A51",
"1. c #9F6D51",
"2. c #A36544",
"3. c #A76846",
"4. c #A56B4C",
"5. c #AC6C4A",
"6. c #B6724E",
"7. c #BB754F",
"8. c #A06E53",
"9. c #A77150",
"0. c #AD7253",
"q. c #B57553",
"w. c #BB7752",
"e. c #BD7955",
"r. c #BC7C59",
"t. c #C47C55",
"y. c #C87E56",
"u. c #C07D59",
"i. c #328A2F",
"p. c #3D8D39",
"a. c #3F903E",
"s. c #43883F",
"d. c #498D46",
"f. c #529B4E",
"g. c #5B9B56",
"h. c #68824A",
"j. c #629B5D",
"k. c #63A05D",
"l. c #67A160",
"z. c #73A56B",
"x. c #7FA876",
"c. c #BA8A17",
"v. c #B38A15",
"b. c #DBA41A",
"n. c #E2A918",
"m. c #C38927",
"M. c #CE8D30",
"N. c #CD883A",
"B. c #94A66F",
"V. c #A5AE7D",
"C. c #CB8443",
"Z. c #D28A49",
"A. c #CD825B",
"S. c #C38B5F",
"D. c #D28856",
"F. c #D3865D",
"G. c #D6885F",
"H. c #D8895F",
"J. c #CF8862",
"K. c #C48C60",
"L. c #D88960",
"P. c #D48962",
"I. c #99B482",
"U. c #A0B989",
"Y. c #A6C39B",
"T. c #B3CAA7",
/* pixels */
"                                                                                                                                ",
"                                                                                                                                ",
"                                                                                                                                ",
"                                                                                                                                ",
"                                                                                                                                ",
"                                                                                                                                ",
"                                                                                                                                ",
"                                                                                                                                ",
"                                                  3 , < 3 , < , < , < 1 1                                                       ",
"                                    $ # $ & % & , , , < , < < < < < , , < < < < < < - <                                         ",
"                                  % # % # $ # # # # & , , < ; < , < < < < - - - 1 - < - - 1                                     ",
"                                  # # # # # # # # # * < < < - < < < < < - - ; 1 - < - < - 1                                     ",
"                                % # # o o # + # # # * - - < - - < < - - < - - - ; - ; , - 1                                     ",
"                        * * * * & # # # # # # # # # * - - < < - < < < - < - - - < - - - - - - <                                 ",
"                        * & * & * * & & % # # # # # * < < - - < - < - < - - - - - - - - - < < - , < < 1                         ",
"                            & % & % * * * * * * $ * * * - = * * * - * - - - - - - - - < - 1 - - 1 < 1 <                         ",
"                                  * * & % * - - * # = - < < < - < < ; - < < < < < < < < < 1 < < < 1 1                           ",
"                                    B d : * - = $ # = - - < < ; < 4 4 5 y u p f N V H J                                         ",
"                                    } ) C f f d y y y g N N H J _ ' ' { -.-.3.2.X.%.6.7.                                        ",
"                                    O...U J C A Z V S %.5.3.' _ 2.7.7.t.w.t.y.J + y A.A.                                        ",
"                                    O.o.] ' _ } ) K K 5.y.2.@ o ' A.A.y.A.A.F.S . y F.F.                                        ",
"                                    O.O.X.$.' _ _ K ` q.F.4.O X ` F.A.F.F.F.F.N . s F.G.                                        ",
"                                    O.O...[ ' U ` ` ` q.F.4.O X ' G.F.F.F.F.G.-.J 4.G.F.                                        ",
"                                      O.O.} ` ` @.` @.q.G.w.J ` w.G.F.F.F.G.G.H.L.G.G.F.                                        ",
"                                      X.o.o.] @.@.@.+.q.F.F.G.G.G.F.F.F.G.G.G.G.G.G.G.F.                                        ",
"                                          ] @.@.@.@.+.q.F.F.F.F.F.F.F.F.G.G.G.G.G.G.G.F.                                        ",
"                                              @.@.+.+.5.F.F.F.F.F.F.F.G.H.H.G.H.H.H.H.                                          ",
"                                              ; g K +.0.G.F.F.G.F.F.F.D.w.4.;.@.                                                ",
"                                              # # = g :.e.Z.Z.C.N.M.m.| 5 1 < 1                                                 ",
"                                          & * * % * = 4 5 B c.n.b.v.v 1 1 < < 1                                                 ",
"                                        * * - < * * 1 < - < u b a 2 < < < < 1 1                                                 ",
"                                        * * < 1 = * < < < - - - < - 1 < 1 1 < 1                                                 ",
"                                        * , 1 < * % < 1 1 1 1 1 < < < < < < < F                                                 ",
"                                          * < < & $ , < < < < < < 2 1 1 3 1 1 =.                                                ",
"                                          5 7 a u = * 1 1 1 1 1 2 1 1 1 1 3 7 >.                                                ",
"                                          #.q.6.{ > * 1 1 1 1 1 2 1 1 1 < 6 4.A.                                                ",
"                                          ;.y.e.2.5 * 1 1 < 1 1 1 1 1 1 1 7 r.F.                                                ",
"                                          =.y.y.6.u < < 1 1 1 1 1 < 1 1 < i r.F.                                                ",
"                                          #.t.A.w.p 1 1 1 1 1 2 2 6 a D ! >.A.A.                                                ",
"                                          #.t.F.t.g < 6 u l Q &.8.q.r.r.q.0.A.A.                                                ",
"                                          #.r.A.t.[ ;.q.e.u.r.0.<.&.Q E R M r.A.                                                ",
"                                          #.w.F.y.$.8.,.! Q W T T T T T T R                                                     ",
"                                          @.q.A.q.M Y T Y Y Y T T T T T T Y                                                     ",
"                                            q.J.P 3 Y T Y T T T T T T T T Y                                                     ",
"                                                m 9 Y T T T T T T n q Y T Y                                                     ",
"                                                  9 n T T T         3 Y T Y                                                     ",
"                                                  9 Y T T           9 Y T T                                                     ",
"                                                  9 k T T           0 Y T                                                       ",
"                                                  9 w T T           9 T T                                                       ",
"                                                  9 n T T         6 0 T R                                                       ",
"                                                  9 w T T         F M &.9.                                                      ",
"                                                  e w Y R         I $.A.P.                                                      ",
"                                                  P Q ,.0.        L *.P.K.                                                      ",
"                                                  @.0.P.P.        ^ ~ B.I.                                                      ",
"                                                  ( 8.P.K.          x a.Y.k.                                                    ",
"                                                  h.h.I.I.            z d.g.a.                                                  ",
"                                                    x f.T.f.            d.l.x.                                                  ",
"                                                      i.j.g.i.                                                                  ",
"                                                        s.g.z.                                                                  ",
"                                                                                                                                ",
"                                                                                                                                ",
"                                                                                                                                ",
"                                                                                                                                ",
"                                                                                                                                "
};
