/* XPM */
static char *What___s_Your_Request__resized[] = {
/* columns rows colors chars-per-pixel */
"64 64 256 2 ",
"   c #06040B",
".  c #0A050C",
"X  c #080408",
"o  c #0B0513",
"O  c #0D0914",
"+  c #0A061C",
"@  c #0A0717",
"#  c #130613",
"$  c #120B14",
"%  c #140B1C",
"&  c #180A1B",
"*  c #151119",
"=  c #100B12",
"-  c #230F1C",
";  c #0B0624",
":  c #0B092B",
">  c #0B0727",
",  c #140B24",
"<  c #1A0C24",
"1  c #140C2B",
"2  c #1B0C2C",
"3  c #120727",
"4  c #181226",
"5  c #0C0A33",
"6  c #0C0C3C",
"7  c #0E0630",
"8  c #140A33",
"9  c #1C0C33",
"0  c #140A3D",
"q  c #1B0C3C",
"w  c #180536",
"e  c #1A1436",
"r  c #230D2C",
"t  c #251428",
"y  c #220D34",
"u  c #270E3B",
"i  c #320E39",
"p  c #2B123C",
"a  c #261238",
"s  c #351438",
"d  c #31172D",
"f  c #44133C",
"g  c #0D0E46",
"h  c #1C0E44",
"j  c #170D47",
"k  c #0E104A",
"l  c #191447",
"z  c #0D1157",
"x  c #181458",
"c  c #1B0D53",
"v  c #230D43",
"b  c #230F4B",
"n  c #2B0E46",
"m  c #2C1344",
"M  c #2B134B",
"N  c #251749",
"B  c #33144B",
"V  c #381546",
"C  c #231254",
"Z  c #23135B",
"A  c #291756",
"S  c #371657",
"D  c #300E4F",
"F  c #1C2459",
"G  c #282359",
"H  c #372356",
"J  c #191867",
"K  c #1B1C78",
"L  c #0D1464",
"P  c #261768",
"I  c #391668",
"U  c #261C77",
"Y  c #371976",
"T  c #1D246B",
"R  c #1C2778",
"E  c #1F317B",
"W  c #262769",
"Q  c #392469",
"!  c #272876",
"~  c #3A2876",
"^  c #26357B",
"/  c #2D3377",
"(  c #44164B",
")  c #471858",
"_  c #541A5D",
"`  c #400F40",
"'  c #461868",
"]  c #561A69",
"[  c #481976",
"{  c #571A78",
"}  c #651A72",
"|  c #572369",
" . c #492479",
".. c #582578",
"X. c #462871",
"o. c #672778",
"O. c #692373",
"+. c #432556",
"@. c #1C1E83",
"#. c #0B1A88",
"$. c #261E85",
"%. c #391D84",
"&. c #1C2687",
"*. c #1C2895",
"=. c #1F3198",
"-. c #252688",
";. c #273588",
":. c #242996",
">. c #273997",
",. c #372C8D",
"<. c #1D30AB",
"1. c #252DA5",
"2. c #2537A8",
"3. c #2839B7",
"4. c #3438AB",
"5. c #491C85",
"6. c #571C86",
"7. c #5A1F95",
"8. c #651D87",
"9. c #6D1C90",
"0. c #492587",
"q. c #572688",
"w. c #4A2596",
"e. c #592797",
"r. c #573599",
"t. c #4A378E",
"y. c #662587",
"u. c #762984",
"i. c #68338A",
"p. c #682797",
"a. c #77279B",
"s. c #66379B",
"d. c #7A3697",
"f. c #77328C",
"g. c #721BA4",
"h. c #5929A4",
"j. c #583BA5",
"k. c #4934AB",
"l. c #6929A6",
"z. c #782AA7",
"x. c #6837A8",
"c. c #7636A8",
"v. c #6A29B3",
"b. c #782BB9",
"n. c #6A3AB4",
"m. c #7737B9",
"M. c #2A4389",
"N. c #2C4899",
"B. c #344B97",
"V. c #36519B",
"C. c #37438C",
"Z. c #2C46A8",
"A. c #3349A9",
"S. c #3654A8",
"D. c #354BB6",
"F. c #3857B8",
"G. c #2B4DAE",
"H. c #3964BA",
"J. c #2A63B6",
"K. c #4C479B",
"L. c #5644A9",
"P. c #4557A9",
"I. c #5B49B9",
"U. c #475AB7",
"Y. c #5457B9",
"T. c #4949AB",
"R. c #6A42AA",
"E. c #6747B7",
"W. c #7444BA",
"Q. c #744AAE",
"!. c #4463BC",
"~. c #5762BF",
"^. c #637EBC",
"/. c #2D3DC4",
"(. c #7A39C5",
"). c #7234C7",
"_. c #533ACA",
"`. c #375BC6",
"'. c #2A47CB",
"]. c #3D66C9",
"[. c #3B70D2",
"{. c #355BE0",
"}. c #4859C4",
"|. c #595AC5",
" X c #534ECB",
".X c #6A48C6",
"XX c #7947C8",
"oX c #6856C9",
"OX c #7849D5",
"+X c #7958D7",
"@X c #7155CF",
"#X c #4868C8",
"$X c #566BCA",
"%X c #4B73CB",
"&X c #5373CD",
"*X c #486AD4",
"=X c #576DD3",
"-X c #4A77D6",
";X c #5475D3",
":X c #537AD4",
">X c #597AD8",
",X c #6968D5",
"<X c #6578DA",
"1X c #6F68D4",
"2X c #4975E3",
"3X c #7570E1",
"4X c #7D4DE9",
"5X c #883397",
"6X c #8528A9",
"7X c #8737A7",
"8X c #852CB5",
"9X c #942AB8",
"0X c #8736B9",
"qX c #9639BA",
"wX c #9436A9",
"eX c #871E9E",
"rX c #9945BB",
"tX c #8B41B4",
"yX c #8837C7",
"uX c #9636C8",
"iX c #9839D7",
"pX c #8835D0",
"aX c #A33BD4",
"sX c #953AE5",
"dX c #8346C8",
"fX c #8656D8",
"gX c #934DD3",
"hX c #A84AD3",
"jX c #956ED5",
"kX c #8B58E4",
"lX c #9652E9",
"zX c #A647E8",
"xX c #B457EE",
"cX c #926CE8",
"vX c #A96AEA",
"bX c #AF70F3",
"nX c #A567DC",
"mX c #CA70F7",
"MX c #D049E5",
"NX c #C03BD9",
"BX c #5783DB",
"VX c #4E88DB",
"CX c #6583DB",
"ZX c #5988E4",
"AX c #528EE8",
"SX c #6789E4",
"DX c #6D93EB",
"FX c #6EA7F0",
"GX c #54A9F6",
"HX c #BA80F4",
"JX c #8EA7F3",
"KX c #D092F5",
"LX c #DBAAFA",
"PX c #E3B3F9",
"IX c #A5CBF6",
"UX c #E1D9FE",
/* pixels */
". . # # o     X X   X           X     . . . . . = $ o o 4 : 4 ; = O = @   O @ @ > % % % 8 2 < + 1 2 1 q 2 2 % < # . ; + o o o o ",
"# - $ % # . o X   X   .       @ = X X . # # X . . # $ # * e * * * @ ; @ 4 5 * 4 1 , % ; 1 M p 2 8 1 > % 3 + r r & + o   o o o + ",
".       . .   o   o   @ . . @   . . X X # # X . O O = o @ * * * e 4 : * 1 4 l x B M v v A ' M v 8 1 % ; ; o , 2 ; + ; 5 o o   + ",
"          .         . . O O O o . X = # O . # = O = . % * * 4 e * = * e N / 1X/ A Y ' n 3 , 7 g > ; 3 : ; w S n 3 o 6 x o +   o ",
". o .   . .       . . = O O O $ # # $ # O = t # $ O % * * t t e t G e a H ,.E.q.[ p.6.y q 3 w w ; 7 1 j 7 w I v o + > : + + o o ",
"# o . @ o # # o . O . O e $ $ $ $ # & # % & & & % % , 4 4 s H H +.X.H S  . .p.yXpXsX8XY C S b v 2 8 8 w 8 1 w C + 3 8 ; ; + o o ",
"    @ # # # . o o O # % $ < d - & # $ r < 1 & t < 4 < 4 V +...s...u.iXfXvXxXzXxXxXxXsXpX7.[ Z h w 0 b c Z 1 P Z + > 7 > + o + + ",
"; +   @ @ # # , O $ & & & d s d d s f ( s s d p s a a p +._ V H  .hXzXvXkXgXyXiXxXxXbXbXHXvX).,.5.~ %.%.q c I C > j 5 ; ; + + + ",
"; ; @ # # r & # t t 2 & % V s m _ _ f d f ( _ | D ) V n ) D ) ) V y.7X8X8.' [ [ l.yXW.n.(.kXlX4XOX)._.).Y P x x j 6 : : : + + ; ",
"o ; @ # # & # < d i , $ , p s H B < r p B ( ] ..' ] _ n D ) n y q , ; : q v n w ; 8 7 g j c  XcX4Xk.k. X.X%.! k ; ; + : : ; ; : ",
"o o @ # # @ + < r m r , e B S S a ( ) S ' [ p.8X{ g.eX6.] 6.' n n 8 8 w 0 q w w j 7 > 0 j 5 c ;.K *.,.L 6 8 ; + + + + ; > 5 : g ",
"3 + 3 # 3 & r p ) S m u , 2 N y b D ) ) 9.yX6Xp.' 8X8Xg.uXb.Y [ P 0 h h q w h j 7 3 7 g 8 7 > > ; > 6 5 > : 6 : : 5 : 6 ; > 5 6 ",
"& 3 M 2 p i ) ' ] S n y m B M A m v B I { D 3 8.iX[ y ' 7.iXpX).7.h w j j c J z 7 0 w 5 6 5 5 5 5 g 5 : : 5 g 5 6 : : 5 5 5 > : ",
", 3 2 M m B n p u B p y u S ' S n n B I h y ' uX[ j j w w b 5.w.4.P w j j j j j 0 g L c j 7 5 : 6 g : g 5 > ; 5 5 : : > > 6 k 6 ",
"2 r 2 9 y b p u p n n r 9 q S A I I n n v b [ I h D b v P c w w K K c c j j j c c g z c x x g 6 5 5 6 g 6 6 5 : : 6 : 5 6 k g g ",
"9 r w r p n B B p u p m N u B S [ ' D ' D S y w 9 v b b c b C P P I Y c c c J J J K K z J K L c k g g 6 k g z R L 6 g g g g g 6 ",
"2 y 2 y n n D S B u n S Y S ' w.w.[ 7.6.[ I D D v v Z P Z Z Z c P $.$.P P J J K @.@.K L J L J K L L J z z z #.'.#.z k z g j z L ",
"n i y y D S ) B S ) S V ' p.lX(..Xv.v.k.Y C b D C h Z P U K *.P U Y $.$.$.U J J K :.1.*.&.@.R L L L L J L z L L L L K J L J P K ",
"n D V n I [ { ] I ..0.' p.dXlXkXbXv.x Z h b c b Z C h h b c P $.$.%.$.$.$.@.K @.@.@.@.*.*.*.*.R #.*.&.K &.*.&.K *.@.*.$.$.P K @.",
"i ( ' ] y.a.9.b.uXdXXXn.).OXHXHXpXY j c P C P Z v h l N h j J U @.$.$.$.@.$.*.*.*.:.&.@.&.&.*.*.&.<.<.<.<.3.3.:.1.1.1.*.1.@.K @.",
"} eXeX9XaXaXiXzXzXbXxXxXbXKXvXfXY Y v v I I P P l j h j h c U J P @.$.:.*.&.*.1.1.:.=.*.*.*.*.*.=.<.3.'.<.<.1.:.<.1.1.1.<.'.3.*.",
"NXmXmXKXmXxXmXxXvXKXbXmXLXKXlXdXY Y P b Z C x x c c l c l x J R @.U $.$.:.&.&.>.1.2.=.=.*.>.Z.2.1.G.'./.2.<.1.1.1.4.3.3.<.{.'.3.",
"9XxXKXKXKXKXPXPXPXPXPXPXUXKX_.P C C Z C Y P b Z U R x C J J J U K K $.@.*.R &.2.>.2.2.1.<.=.=.2.<.2.2.2.3.4.4././.4.3.1.4.<./.<.",
"7.6XzXxXzXxXmXbXbXKXKXjXQ.[ c w 9 u x Y ! ! ! U &.3.x x J Z J K T K &.3.&.T &.3.2.=.2.>.;.&.E &.&.E T &.>.:.3././.4.3.>.1.1.:.1.",
"I 5.6.g.b.sXsXzX).w.Y Z w q v v w w q h U U x P x J J x x x K J J J R E &.>.3.G.Z.2.`.[.-X`.&.E `.M.R E >.T ;.=.:.>.;.=.>.;.Z.G.",
"' 5.[ [ g.sXzXlX4Xk.w.D v M y w v h b Z %.%.P Y Z J x J T K T R W J &.&.>.Z.Z.'.`.[.2XAX2X`.Z.R S.^ l z k T E >.>.Z.Z.2.>.;.`.].",
"I I I [ v.g.).zXlXh.[ I P  .t.R.I M A Y w.%.,.P l x Z W R K J ! ! R R R E *.>.N.G.4.4.`.{.G.^ G W x N.M.F T F E ;.G.G.Z.2.Z.>.2.",
"I [ [ 6.h.[ ).sXh.w.5.5.5.I R.XXY A I Y P h. XJ P x z J ! T T R T T T W R E ;.T ! ,.4.Z.G.D.4.G / ^ ;.;.M.E E R >.Z.Z.Z.`.D.D.D.",
"D c D D b Z b.sXb.v.).7.h.5.I 5.v.h.%.k.k.3Xk.,.,.:.`.1.:.U -.E T T ! W F T ! >.;.4.D.D.A.T.>.F / ,.;.>.>.D.Z.N.G.`.Z.Z.D.4.k.U.",
"n n D D D D Z 7.v.g.g.g.h.7.n.vXkX4XOX.X@Xk.~ %.,.3.2X/.:.! W ;.;.W ^ W W ^ ^ ^ W ^ F.[.FXIXIX^.S.A.D.>.N.S.D.S.D.-X2XVX[.D.4.}.",
"' Y I D [ I D [ [ 5.b.).v.b.sXkXkX4X4Xk.I P ,.U -.,.:.,.! P W Z.>.;.^ x F ! W W N N J.[.FXIXIXGXVX].D.;.>.>.>.Z.`.AXIXUXFXSXY.}.",
"[ 5.[ I 5.5.5.v.b.v.).).).).lXbXHXoXk.h.0.I ~ ~ %.,./ ! ! P A ! / W G l W W W / W ! J.VX[.J.J.J.[.F.B.Z.G.N.N.N.G.D.#XSX2X2X*XT.",
"D I Y [ [ Y 7.sXsXv.h.v.).gXlXkXn.k.X.I  .t.! Q 0.~ G Q ~ W G / W G N N W M.;.W M.^ V.J.V.M.V.J.N.J.N.>.A.N.>.N.>.A.G.D.`.[.2X*X",
"I D [ Y 5.w.7.yXv.e.6.p.v.pXXX.Xx.h. .' [ ' M A G N G Q G e N e G Q W / / / F N F ^ M.M.M.N.N.N.N.S.Z.M.;.>.A.B.Z.%X[.].#X*X2X2X",
"D I I I [ 5.h.v.7.5.5.q.m.gXn.n.e... . .X.Q S H H G N a , , e N H / G G F e F F e F ^ ^ J.M.M.J.Z.S.F.S.N.A.S.S.S.#X].`.{.*X-X2X",
"D I 5.[ 7.7.6.7.b.z.p.b.(.v.yXXX .' X.0.r.j.~ Q W N G Q N H Q ~ Q N * a e N e F ^ M.^ M.M.M.V.N.S.F.H.].F.#XT.S.F.F.#X-X-X*X}.*X",
"[ I [ [ 5.7.5.e.7.b.(.gXgXuX0XtX..X. .q.L.j.H I ' Q  .t.Q Q S e a e e * d G / ^ S.S.M.B.M.M.N.N.S.S.F.].F.F.S.H.-XVXAX2X2X-X*X*X",
"I ' I ' [ { 5.6.7.l.dXzXhX0Xc.c.y...r.R.E.+XE.j.E.R.E.j.e. .0.X.~ Q Q / M.B.S.M.M.M.M.V.V.M.V.V.S.U.U.`.F.!.H.FXIXIXGXAXZXVX[.-X",
"[ [ [ ' [ 6.6.6.a.z.l.0XdX7XrXqXc.a.tXcXkXbXbXdXdX@Xx.h.l.x.x.E.I.K.t.t.K.K.B.V.V.S.V.V.S.N.S.S.F.`.}.}.U.F.#XVXGXAXVXVX-X#X-X>X",
"[ [ 5.[ 5.[ { 6.p.c.7X0XrXaXhXqXrX7X0XvXcXbXHXlXkXdXXXW.E.n.E.I.Y.K.C.C.C.C.C.V.S.V.M.V.V.S.H.AX-X-X}.}.U.T.!.#X$X!.#X#X].%X-X*X",
"{ ' { 6.6.] { 6.8.z.hXhXwXwXqXwXwXeX6XhXvXvXbXnXfXXXjXjXr.j.I.L.t.K.K.V.P.P.P.V.V.V.B.V.C.S.%XH.!.%X#X!.#XU.#X}.|.}.}.*X#X;X*X-X",
"eX9.8.[ [ [ [ 6.8.p.0XtX0X7XwXwX5Xo.7XhXvXbXvXdXjX@Xx.e.q.x.Y.r.t. .K.Y.Y.P.!.P.P.!.P.P.V.H.VX!.%X;X#X!.}.:X-X=X X}.#X*X=X*X%XVX",
"g.g.6.5.7.8.{ { } { y.5XqX7XwX5X5XO.f.tXgXvXvXgXW.Q.r.q.q.r.L.t.Q ~ t.T.T.K.P.P.U.!.P.!.#X%X%X-XZXZX-X%X%X=X=X*X-X=X>X:X*X#XVXVX",
"6.[ ' { ] ' { ' ' o.8.O.O.o.o.o.] O.5XrXrXnXbXbXW.Q.x.s.j.q.r.i.r.r.L.L.K.Y.~.~.~.!.!.!.ZXFXDXBXVX:XVX>X;X=X&X;XBX:X-X%X%X-XAXDX",
"] ' ' ' D D w.n.p.| ] ) | i.| | | O.f.tXrXrXnXHXQ.R.Q.x.c.l.x.c.e.e.j.I.L.L.Y.Y.&XBX%X-XJXAX[.#XBXBX:X&X>X>XVXAXVXBXVX-X#X-XBXZX",
"S B ' ' I ' k.{.k.Q B V +.+.| f.o.o.f.i.d.tXrXfXgXjXjXdXW.m.x.s.s.s.j.L.K.K.P.U.U.&X;X-X>X-X$X}.}.Y.$X-X;X:X:X-X%XBXBX:X-XBXDXFX",
"n D B p B S S [ i.X.H +.| +.+.o.O.5Xd.d.5X5XtXtXrXnXnXjXbXcX@XR.r.r.L.L.j.K.P.$X$X$X<XCX>X>X>X;X>X>X;X$X$X$X&X#X#X$X:XBXBXJXJXFX",
"v u m p M B B [ o.| +.| 7X| +.o.o.f.wX5X5XtXrX5XtXtXdXfXjXfXfX@Xk.r.L.T.K.,.t. .K.K.P.CX>XDXSXZXSX>XBX;X&XBXBX-X:X:X%XCX:XBXFXJX",
"w r y u u m B ' ) | y.d.rX5Xo.5Xf.f.5XQ.f.o.5X5XtXd.Q.Q.R.Q.JXjXr.L.j.Y.I.L.t.t.t.K.Y.=X=XZXDXDXSXSXBX;XBX&X%X%X&XBXBX&XBXBXSXSX",
"w 2 2 2 9 2 y A S o.i.i._ 5X5XO.| | o.o.f.o.o.d.f.Q.Q.i.s.Q.n.dXs.t.r.oXoXoXE.L.L.E.Y.|.<X<X<X=X;X<XSX=X&X~.~.&XCXBX&X&XBXBXBXBX",
"1 1 3 w 8 r N ;.M _ | o.o.| +.f s +.| _ o.f.7Xi.i.i.i.| s.s.R.x.r.L.s.R.x.R.Q.x.E.1XoXY.|.<X<X<XSXSXCX>X<X~.$XSX&X~.&XBX:XCX:X<X",
"h N 2 9 9 2 u y u y B d.5Xf s ( H V ( _ | | o.o...d.d.| i.R.s.Q.W..XE.E.E.R.Q.oX@X1X3X3X,X,XDXDXDXSXSX<X$X<XSXSX<X%X&X&X&X~.$X&X",
"q 9 , 1 9 2 a m d p p ' | H s V s ( +.+.| | ] ] | o.i.i...c.c.x.c.m.XXXXXXdXXX+XfX+X+XJX3X<X3XDXFXSX<XSX<X<XCX;X<X$X$X$X&X<X<X<X",
", 1 e 2 e p V m m m s ] | H p a V ) ( s ( ) _ ] o...} o...q.s.c.c.Q.XXtXW.dXfXcXcXkXkX+X,X,X<X,X3X1X|.oX<X<X=X>X=X$X$X|.1X<X3X3X",
", 1 q 9 M B B N a y u a p m V s V s V S V V ] } o.o.u.eXa.u.z.dXvXXXs.c.8Xm.dXfXkXkXkX3X@X@X3X,XE.I. XY.,X<X,XoXoX|.oXoXE.1X1X3X",
"2 9 9 2 N p 4 1 2 y a y s V ( ( ( V B ] ( ) 8.9.o.5X9X9X9X9XaXxXkXyX0X6Xz.0XyXyXpXdX+X+X+X+X+X@XoXoX@XoX@XoXoX@X@X@X+XjX+XW.oX@X",
"t 4 4 2 2 y e e 2 4 2 y i S Q V ) ( ( _ } } ] ] } u.eX6XeX6XuXaXuXuXuX9X9XyXuX0X(.m.XXXXXXOXfX+X@X.Xn.I.E.E..X@XcX3X+XJX3X.XOX@X",
", , e 2 a e 2 1 2 2 r 2 2 u S ( ) ] ] } _ ( ( ] { 8.u.a.z.a.eX9XqX9X9X8XeXc.m.c.W.n.l.(.XXm..X).n.n.I..XW.XXOXXX+X@X.X).).(.XX(.",
"% , 4 1 e 4 4 , , 2 1 , , 2 p ) { .._ _ _ ' ` } 6.o.] { 6X6X8X8X6X7Xz.6X} ] p.c.s.p.x.m.n.x.m.m.W.dXXXOXm.n.n.n.E.E..X+XXXW.dX(.",
", 4 % % * , 4 4 , < 4 < < r i _ ] ] ) { } ] ' ] 6.9.6XaX0Xz.9XuXaX9X8Xa.{ y.p.z.8Xm.8X6Xz.z.c.c.x.m.XXcX@Xn.m.m.m.(.XXXX0XyXdXm.",
"* * O % 4 * * * * 4 * e r s d i _ y.} } { } 9.9.} a.9X9XuX9XiXaXuX0Xp.p.8.8.y.p.d.x.p.p.p.a.p.r.s.x.dXfXdXm.b.m.b.(.pXyXb.b.yX(.",
"* * * $ - * * * e 4 4 t t s p d ( O.o.5XO.y.9X0X6.{ z.yXiXiXaXb.e.p.p.6.q.0.[ q.q.x.E.r.p.s.s.x.x.m.c.(.lXpX0XyXyXpXyXb.0XyXyXpX",
"= * = = * * * * 4 * - 4 t t r d d ( s V i.hXmXhXa.9Xb.iXaXaXzX8Xa.z.9.9.6. . . .' q.r.q.r.e.q.a.c.z.v.0XpX0X8XyXpXiXyXyXpXuXiXpX",
"= * * = * * * 4 4 t d - t 4 t d s V s ( o.qXNXMXNXuXb.iXiXyXiX8Xz.7.p.a.a.x.w.[ [  .{ { q.y.y.p.qX8Xb.0X(.0Xb.yXiXaXiXuXuXyXpXiX"
};
