/* XPM */
static char *Download_Space_tour_vector_illustration_for_free_resized[] = {
/* columns rows colors chars-per-pixel */
"64 64 247 2 ",
"   c #000014",
".  c #00011D",
"X  c #060D1F",
"o  c #1F021E",
"O  c #000522",
"+  c #020923",
"@  c #00042A",
"#  c #060E29",
"$  c #080F29",
"%  c #0B0D25",
"&  c #03122C",
"*  c #0B122C",
"=  c #0C1528",
"-  c #11152E",
";  c #18182C",
":  c #040F32",
">  c #041233",
",  c #0E1631",
"<  c #0C1A34",
"1  c #091B36",
"2  c #101731",
"3  c #131A34",
"4  c #161E39",
"5  c #181F39",
"6  c #191C35",
"7  c #160C24",
"8  c #26162D",
"9  c #38162C",
"0  c #251832",
"q  c #391B34",
"w  c #0B213A",
"e  c #15223C",
"r  c #1B223C",
"t  c #1A2037",
"y  c #1A202C",
"u  c #29292B",
"i  c #262539",
"p  c #363431",
"a  c #362A32",
"s  c #4A132D",
"d  c #581B33",
"f  c #501B32",
"g  c #68182D",
"h  c #651D34",
"j  c #771830",
"k  c #49352B",
"l  c #48243B",
"z  c #50322D",
"x  c #65273B",
"c  c #7B283C",
"v  c #6C3A33",
"b  c #4E2A18",
"n  c #594A2E",
"m  c #564A31",
"M  c #4B4434",
"N  c #6F5631",
"B  c #79693A",
"V  c #1E2640",
"C  c #1C2943",
"Z  c #1A2A48",
"A  c #1F3051",
"S  c #202741",
"D  c #242B44",
"F  c #262E48",
"G  c #292D46",
"H  c #24324C",
"J  c #2B334C",
"K  c #273448",
"L  c #323A4D",
"P  c #2A3952",
"I  c #343C52",
"U  c #343C56",
"Y  c #372743",
"T  c #0F1C41",
"R  c #4B3548",
"E  c #783347",
"W  c #3C455B",
"Q  c #39455A",
"!  c #2D435E",
"~  c #3A4764",
"^  c #394766",
"/  c #3D516F",
"(  c #44495A",
")  c #514D51",
"_  c #714E54",
"`  c #756B50",
"'  c #444C62",
"]  c #4C5264",
"[  c #4A556A",
"{  c #535A6B",
"}  c #555767",
"|  c #495777",
" . c #545E74",
".. c #6D596F",
"X. c #5C6272",
"o. c #586378",
"O. c #59606F",
"+. c #646A79",
"@. c #716D75",
"#. c #5D6254",
"$. c #851C34",
"%. c #9A1930",
"&. c #A21C36",
"*. c #B31C31",
"=. c #84273A",
"-. c #9C2538",
";. c #82313C",
":. c #AD2739",
">. c #D11C37",
",. c #EE1C37",
"<. c #D12B3A",
"1. c #E9243D",
"2. c #FB293C",
"3. c #F5373E",
"4. c #8F512B",
"5. c #AC592B",
"6. c #896A3B",
"7. c #B7672B",
"8. c #FA4A3C",
"9. c #FE5B3A",
"0. c #FA5637",
"q. c #F34A2E",
"w. c #CF702C",
"e. c #F96936",
"r. c #F1782D",
"t. c #CB4436",
"y. c #933A4D",
"u. c #A43247",
"i. c #C82440",
"p. c #DC2940",
"a. c #C93B47",
"s. c #FF2542",
"d. c #FD2C42",
"f. c #F42C40",
"g. c #FE3344",
"h. c #FF3B48",
"j. c #E72940",
"k. c #884F54",
"l. c #8F6A58",
"z. c #B77254",
"x. c #8F5465",
"c. c #93726D",
"v. c #A8766A",
"b. c #B14B4F",
"n. c #CC534F",
"m. c #FE5A58",
"M. c #ED4E50",
"N. c #D16C61",
"B. c #FF7066",
"V. c #F96E65",
"C. c #B08635",
"Z. c #F7872D",
"A. c #FC8833",
"S. c #F79930",
"D. c #EE932C",
"F. c #F9A62C",
"G. c #FDBB2F",
"H. c #FCB52E",
"J. c #FCA732",
"K. c #FEBC31",
"L. c #FCB132",
"P. c #EAAD30",
"I. c #CE9438",
"U. c #FFC12B",
"Y. c #FAC335",
"T. c #B38E50",
"R. c #8F8B71",
"E. c #A59769",
"W. c #D0B54E",
"Q. c #CBB16D",
"!. c #E99267",
"~. c #D5C251",
"^. c #FAC745",
"/. c #EACA58",
"(. c #FED855",
"). c #F2D04D",
"_. c #FFE45C",
"`. c #EED667",
"'. c #FFEC6E",
"]. c #FFF56B",
"[. c #FFF675",
"{. c #F1E172",
"}. c #596886",
"|. c #666D87",
" X c #687389",
".X c #777B89",
"XX c #697897",
"oX c #747E97",
"OX c #7E6786",
"+X c #8F7288",
"@X c #7A8598",
"#X c #788188",
"$X c #7484A4",
"%X c #7A89A8",
"&X c #778FB4",
"*X c #838A9B",
"=X c #858A96",
"-X c #908E91",
";X c #848DA8",
":X c #8A93AA",
">X c #9499A8",
",X c #8A99B7",
"<X c #939DB5",
"1X c #818FB0",
"2X c #AA9CAF",
"3X c #9DA2AB",
"4X c #9AA4B8",
"5X c #ADB3BB",
"6X c #ADAEB3",
"7X c #A88894",
"8X c #C4B69C",
"9X c #FFFA80",
"0X c #D9D482",
"qX c #8C9FC0",
"wX c #99A6C6",
"eX c #93A8CC",
"rX c #A3AECB",
"tX c #B5BBC7",
"yX c #A9B5D4",
"uX c #AAB6D5",
"iX c #B4BDD9",
"pX c #A6B1CC",
"aX c #B3BEE0",
"sX c #C9BEC3",
"dX c #BEC2CB",
"fX c #BBC2D8",
"gX c #ADC0D7",
"hX c #BAC6E5",
"jX c #BBD0F3",
"kX c #C8CBD7",
"lX c #CBCFD3",
"zX c #C3CCE5",
"xX c #C4CCEA",
"cX c #C7CDEA",
"vX c #CCD2ED",
"bX c #CAD2E9",
"nX c #D5DAE9",
"mX c #CBD4F5",
"MX c #D4D9F2",
"NX c #D7DBF2",
"BX c #DBE4F5",
"VX c #D6E1ED",
"CX c #E6E8EB",
"ZX c #E5EAF9",
"AX c #FEFEFE",
"SX c #F3F6F9",
"DX c #EBF1F6",
/* pixels */
"+ + + O O + + O + + O O + + + + O X O + + X X O O + X O + + + + + + + X + + O + + + . + + + . + + + X O O O + + + + X O O . + + ",
"O + O X + O X O + . X + + . + + + + + O O O + + + + + + + + + + + + + + + + + + + + + + O X + + + + + O X + + . + + + + + + + + ",
"O + + O O X X O + + X + . + X O O O + + + + + + + + + # + + + + $ + $ + # + + + + + O X O + + O O + + X + + + + X + O + X + + X ",
"+ O X + + + O + + + O O + + + O X + + + + + # + # # + # $ # # # $ + $ # $ $ + # + # + + + + X O X + O O + + . + O + * + O + O O ",
"+ X O + + . O + O + O X + + X O + + + + # + + # $ $ # % * # * * % # * # $ # % # + # + # + + + + O + + O + X O O .   (   . + + + ",
"O O O X + + O X X + O + + + O + + + $ + # $ $ # $ $ * * * * * * * * * * % * # * $ # % # $ # + + + + + + + O X + - } lX( * + + + ",
"+ + + + + X O + O + O + + + + + + $ # $ $ $ * * * * * * * * 2 * * 2 * 2 , * 2 * * * * # $ + # + + + + + O O O + t #XDX+.3 O + O ",
"+ . + + + + O + + O O X + + + # + $ $ $ $ * * * * * - 2 * 2 , 2 2 2 2 , # + O + # * * * * % $ + + + + + + X + + .   }   . + O X ",
"+ + + + + + O + + X + + + + # $ $ $ * * * * , - 2 2 2 2 2 2 3 2 , 3 * 2 (  X.X( t * * * * * $ # $ + $ + + + + + + # * + + O + + ",
"+ + . O O O X + O O + + + $ # % $ * * * , 2 2 2 2 3 3 3 5 6 3 4 t * K >XbXAXAXdXnX-X= 2 2 * * * $ $ # + + O X + X + X + + + O + ",
"+ X X O X O O O + + + + # & % * * * * , 2 2 3 3 3 3 6 2  .G 4 4 3 S @XuXBXAXkX5XzX|.L * 2 * * * $ * # + # + + + O + + + + + + X ",
"O O + + O + X + + + # # $ % & * * 2 2 2 2 3 3 3 6 5 5 5 5 5 5 5 4 '  XiXDXnX>XtX~ ` X.# 2 2 , , $ + * $ $ + + + O + . + . O + O ",
"+ O O + O O + + + + # # $ * * * 2 2 2 3 3 3 4 5 4 5 r 5 4 5 V 5 C ( | iXaX}.#X( 4.^.6X& 3 2 3 + t U # & $ + + + + + X + + + + X ",
"+ X . + X + + + $ + # # % * * 2 2 3 3 6 4 4 5 5 5 r r V V V V 5 K W Q eX X.X@.z I.U.Q.T t 3 O K dX{ O * $ # $ + + + O + + + O O ",
"O X + + + O + + + % * * * 2 2 2 2 $ 3 4 5 5 5 r r V V S V V D V D W * }.oX[ .XN D.U.T.> # 3 .X6XW + 2 * * $ # # + + + + + + + + ",
"O + + + X + # + # * * * * 2 2 2 5 +.5 5 5 r r S S S S S D D 4 4 e I < . * .X@.b r.L.M A *XCXZXU + 3 2 * * $ $ # # + + + . O O X ",
"+ + + X O + # # # * * * , 2 3 3 r ] r r r r V S 5 I V D G S +..Xx X.|.Q , 3 5X-Xn k.oXMXZXfXwX| 3 3 2 , * * $ $ # + + + O X O O ",
". + + O + + + # * * * * 2 2 3 4 4 2 r r i C S S ( kX{ G V ] SXwXu.:X@X>X5X=X' kX=X%XhX1X^ e r 3 3 3 3 2 2 $ * * # % # + + + + + ",
"+ + + + + # # $ * * , , 3 3 3 t t 4 4 r S D F D U =X' J V :XxX$Xq ) O # e #X>X] @X|.' F 4 r 4 t 4 3 3 3 2 2 % + $ # + + + O O X ",
"+ + X O + + $ $ * * 2 < 3 3 t * 4 J U F 3 r J F D F D J F tXwXoX1 { }.&X XZ  .oXZ U F S S S r 4 r 4 3 3 2 $ L ] O $ # + + + + O ",
"+ O + $ # $ $ % , , > > < 3 3  X6XnXSXCXtX] e J J J P F ' tX,X .r o.uX,XrXyX| [ ~ D D K S S V 1 < , 4 < 3 * D I + = # + + + X O ",
"O X + + + $ * * @ 2 p k p i =XpXfXNXNXZXAXAX.XV I J I D |.gX$XC { oXrX}.eXmXhXXXQ D J D D S l u.l.) 1 4 3 3 $ # * % # # + + O + ",
"X O + + + # % # B /.C.B N @.Q $XxXcXcXvXcXnXAX+.D I Q i -XiX/ J P XX,X}.oXmXSXkXD J J F D q &.h.m.!.l.1 3 < 2 2 * * % # + + + + ",
"O + + + $ $ & ; /.[.k @ Q Q ^ wXiXMXvXcXvXNXZXlXK L Q K 4X&Xr ' ^ %XyXyXoX$XNXAX{ G J H l 8 h f.s.s.B.R , 3 2 , * * # # # + + . ",
"+ + + + # # * # N [.{.n { : A XX,XyXhXxXvXvXzXNX{ F Q Q :XY ( , XX,XrXyXBX@XwXAX6XS I H f - d d.1.1.2._ > 6 2 - * * % # + + + + ",
"+ + + # # * * - & n /.[.W.m X A &X&X,XvXcXxXcXxX@.( I ' x.c.=XS }.%X$XwXnXCX| zXSXW J P l * h :.-.-.1.R < 3 3 2 * * * # # + + + ",
"+ + + # # * * - 3 > u 6.(.]./.Q.7X;X| eXmXmXhXrX+.) #.Q R  .=X3X6X3X>X3X6X=X<X|.DX>X< H Y 0 * 9 d q d i 4 3 3 2 , * * # # X + + ",
"+ + + $ * * * 2 2 3 4 : O.B W._._._.Q.Q.8X6X>X:X) ) I.#.P +.w X e [ @X*X X'  .F rXDX*Xo.J q s 6 - 8 0 e t 4 3 2 2 * * * O & % + ",
"+ + + $ $ * * 2 3 3 5 2 ~ ~   p B T.).(.~.~.W.W.W.Y.P.} ^ X.P ^ oXwXyXyX*X@X XL }.<X+X@Xo.F G 8 8 ; 4 r 5 5 3 2 & & & + N ^.C.+ ",
"+ + + # $ * * 2 3 3 4 r 3 +.D . + & = v n.n.n.z.T.T.) ! ' @.P ,XaXxXcXNXAXDXlX+.%XXXc ,XcXiXpX4X@Xo.I e 6 4 < r l x c d 4.7.a O ",
"+ + + # $ * * - 2 3 4 t r r +.Q & + X + j *.1.2.h.V.N.x.Q X.X.K ^ / | XX$XyXSXtXwXjX_ x.jXvXDXAXAXAXAXVX_ v b.a.-.x 8 & @ O . + ",
"X + # # $ * * 2 3 3 4 4 r r r { O.] ] [ ( g q =.i.>.f.h.N._ { { [ ~ o.[ F oXMXlX1XBX+Xy.<XMXAXAXAXSXCXCX7X-.d 0 & & & * % % + + ",
"+ + + # * * * 2 3 3 5 5 r r S V J U ( U F R f # 8 g :.,.,.N.+.XX1X$X1X|.*XrXZXdX<XAXhXE +XjXNXBXkXtXlXSXlXd 1 < 2 2 * $ # + + + ",
"+ + + # $ * * 2 2 3 6 5 r V S D G D D U ] J c # 8 j $.k.7XiXMXMXzXyXqXXX XuXZXtXwXAXBXOXk.gXkXtXnXSXZXkX+.> 6 2 2 * * # # + + + ",
"+ + + $ $ * 2 2 3 6 5 5 5 V S S D F G ' X.P E o & ] 5XDXAXAXSXSXMXcXaX%X*XrXAXkXpXZXvX<Xc :XcXmXZXrX X+., 5 3 2 2 * * * % + + + ",
"+ + + # $ * * 2 2 > 3 5 r r V S G F J J Z F R -XnXAXAXAXAXAXAXAXSXxXMXwX X1XbX>XwXkXkXgXE +XmXgXXXW +.3 5 4 3 3 2 * * * % $ + + ",
"+ + $ $ $ * * 2 * ] G 3 5 V V S G F F F =.OXnXAXAXAXAXAXSXAXAXAXNXcXMXuX+.oX<X*XpXAXAXBX..k.qXU V +.V 4 5 6 3 2 2 * * % # # + X ",
"+ + + + # * * * , L r 3 4 r V Z Z S U R n.2XmXcXbXvXnXnXZXZXNXvXvXzXfXrX+.XXfXkX1XiXhXuXOXy.> r |.V 5 r 4 3 3 2 * * * # # + + + ",
"+ + + $ $ $ * * 2 , 3 5 5 V a l d X.BX2X<..XrXiXhXhXhXhXhXuXyXpX4X4XfXiXo.XXzX4X>X3XoX}.4 $.( +.r 5 r 5 4 6 < 2 2 * * # # + + O ",
"X O + $ $ $ * * 2 3 3 3 5 0 E h.2.+XMXsX:.+X&X1X,X,X,X<X,X>X>XwXzXDXAXzX[ ~ wXwXBXSX[ $ U E ( V i V r 4 3 2 2 , * * % # + + + + ",
"O O + # # * * * 2 2 3 1 l i.2.3.0.v.eXfX-.x.,XqX,X4X4X<XwXfXMXDXSXnXiXwX+.K H ~ ^ /  .|.[ S V S C r r 2 L } * 2 * * * # + + + + ",
"+ + + + + % * * * 2 , q -.3.M.e.D.z.}.hXy.%.XX4X4X,X,XrXaXgXuX4X%XoXXX XW ( o.+.` E.( 4 S F V r 5 t t 3 r r * 2 * & % + + + + + ",
"X + + + # % # * 2 , q <.d.d.8.S.Z.n.( qXOX*.a w ^ }. X}.}.| ^ ~ ^ ~ U U W ] l.I.F.(.0XG S S D =X] 4 e 3 2 , 2 * * % # # + + + X ",
"O O + + + + # & & ; $.1.f.e.Z.r.0.q.) | $X$.j @ + + + & & 1 Z A P Q ' Q 0 4.S.U.).{.].R.4 S L 6X+.3 3 3 3 2 * * * $ # + + + O + ",
"O + X + # + * f &.<.M.e.e.F.L.H.S.r.v.A |.R &.8 & & & & e P W ] x.v.& O + w.K.G.U.^.K.`.H V 6 D 3 6 6 < 2 2 * * % # # # + X O O ",
"+ + O X X % $.2.2.8.e.F.J.Z.Z.S.S.J.I.o.> e d $.+ & C ( { ' E j.m.E.@ > k Z.G.G.G.H.Y.].#.1 r 4 5 3 3 2 2 - * * * # + + + + + + ",
"X .   s <.<.9.S.F.S.A.e.8.e.A.8.3.9.q.v.P . R d h  ...K * g >.>.M.k.+ 4.5.w.U.G.G.G.G.^.` 1 r e 6 3 3 2 * * * * # + + + + + + . ",
"7 s -.8.m.9.A.e.M.t.$.&.j.<.<.i.<.1.s.j.#X.X' ; l S h + 7 h h >.!.a @ z r.I.Y.G.G.G.G.J.l.w t 4 3 3 2 , * * & % + # + O X + + + ",
"% 7 9 s 9 g -.&.9 @ # 8 ; ; 2 3 0 c :.d J ' *  .Q w R d # 0 >.B.c.O b w.Z.D.H.H.G.U.D.A.` > t 3 3 2 , * * * $ $ + + + + X + + + ",
"O X X . O . X X + $ $ # * * , 3 3 3 < w 3 3 5 J i r i j $ &.d.!.2 @ w.r.w.4.7.S.G.F.r.T.) * t 3 < , 2 * $ $ # + # + + O O O + . ",
"+ O + + + + + + + % # * * * * , 2 2 3 t 6 t t 4 4 V e h s ,.m.) = + N r.r.w.w.r.7.N k B r < 2 2 , 2 * $ $ $ $ + + + O O O O + + ",
"O X O + + + + + + # + $ $ * * , 2 2 2 , 3 3 4 4 4 5 e f &.m.k & n = # z z X u r.5.O M N & 3 2 2 * * * $ $ $ + + + + + X + X + + ",
"+ X O O + + O O + + + $ # $ * * * 2 2 2 , 3 3 3 6 4 1 c a.R N & + * & @ # ; & ; @ u B 2 2 2 2 * * $ $ $ + + + + O + O + + + + + ",
"O O X + O X X + + + + $ # $ $ $ % = 2 , 2 2 3 3 3 6 , x a , k N , @ a 2 + p a O u N t * 2 * * * * $ # # $ + + + + O X + . + X + ",
"+ . + + O . + + + + + + + $ # $ O.3 * * 2 2 2 2 2 3 2 < 1 4 : i n M p y < y u m m 2 * * * * * * $ $ # % + + + + + X X O O O O O ",
"+ + + + + + + + O X + + + + + # 3 * # * * * 2 2 , 2 2 3 3 3 6 , 2 p m n m M k y & * 2 * * * & % $ + + + + + O + O O O + + X + + ",
"+ . O O O O + O O + X O O + + # + $ $ * * * * * * * - * 2 2 2 - 2 * # > > $ # > * * * % * # % # # + + + + + + . + + O O + + + + ",
"+ + + X + X + O . + + + + + + + # + + % # # * % * * * * * * - * 2 * - * - * - * * * $ $ # # + # + + + + X + + + + . X + + . + + ",
"+ + + + + O + X + + + O + + + + + # + # # % * # * * * * * * $ * * * * * * $ $ $ % * # # + # + + + + + + O O O + + + X + . + X O ",
"X + O + O X + + + + X O + . + + + + + + + + # # # # & % # * $ $ & % & $ $ $ $ $ + # # + + + + + X + . + + + O X + + O O + + + O ",
"O + X O O + + + + O + O + O + O X O + + + # + + + # + $ $ $ $ $ $ $ $ # + $ + + + # + + + + O X O O + X + X O + + . O O + + X O ",
"O + + O O X . + + O X + + X X + O + O + + + + O + # + + + $ + # + + + # + # $ + + O + + + + O + + + O O + + O + + + + X + + + O ",
"+ + + . + + + + + . X O O O O O O + + O O + + X + + + + + + + + + + + + + + + + + X X + . + + + + + + + + + + O + + + + + + + . ",
"X + + + O O X + + + O + + X + + X O + O X + + O X + + + + + + + + + + O + + + O + O O + + + + + . O O X . + + O X + O O X + + + "
};
