/* XPM */
static char *pngwing_com_resized[] = {
/* columns rows colors chars-per-pixel */
"64 64 209 2 ",
"   c None",
".  c #840C03",
"X  c #8A0D03",
"o  c #8C1302",
"O  c #8F1805",
"+  c #8E1808",
"@  c #921402",
"#  c #9B1403",
"$  c #951A05",
"%  c #9C1B05",
"&  c #941B08",
"*  c #A51603",
"=  c #A31C03",
"-  c #AC1E01",
";  c #B01F00",
":  c #9C270A",
">  c #A42205",
",  c #AB2205",
"<  c #A22909",
"1  c #AE2A09",
"2  c #A92706",
"3  c #B32303",
"4  c #BB2301",
"5  c #B52A05",
"6  c #BB2C05",
"7  c #B32D09",
"8  c #B92E09",
"9  c #BC3106",
"0  c #B63309",
"q  c #BA330A",
"w  c #BD3B0B",
"e  c #B73206",
"r  c #C42701",
"t  c #C42A02",
"y  c #C82C03",
"u  c #D52F01",
"i  c #C33305",
"p  c #CB3303",
"a  c #C73A07",
"s  c #CB3C07",
"d  c #C33509",
"f  c #C43C0B",
"g  c #CA3D0A",
"h  c #D63001",
"j  c #DB3302",
"k  c #D43C05",
"l  c #DB3B03",
"z  c #E63C06",
"x  c #BE420E",
"c  c #C4420D",
"v  c #CC430D",
"b  c #CB4A0E",
"n  c #CF4207",
"m  c #DC4406",
"M  c #DA4A06",
"N  c #D34409",
"B  c #D54B0B",
"V  c #DD4C0A",
"C  c #DA530D",
"Z  c #DD5A0D",
"A  c #D7520A",
"S  c #C64613",
"D  c #D34F12",
"F  c #D14711",
"G  c #CB5213",
"H  c #D45312",
"J  c #DB5714",
"K  c #DB5B14",
"L  c #D95A19",
"P  c #E54202",
"I  c #EB4504",
"U  c #ED4903",
"Y  c #ED460B",
"T  c #E34A0A",
"R  c #EF490D",
"E  c #E54905",
"W  c #F14C0F",
"Q  c #F24906",
"!  c #E3550B",
"~  c #E55C0E",
"^  c #E65608",
"/  c #F15405",
"(  c #F4550A",
")  c #F35C0A",
"_  c #F14E10",
"`  c #E05D13",
"'  c #EE5010",
"]  c #F35313",
"[  c #F55917",
"{  c #DC6315",
"}  c #DC631B",
"|  c #D56B1D",
" . c #E5620E",
".. c #EC620B",
"X. c #F96509",
"o. c #F66C0E",
"O. c #F96A0D",
"+. c #F66508",
"@. c #FB7B0A",
"#. c #E36313",
"$. c #EC6C13",
"%. c #E2631A",
"&. c #E86419",
"*. c #E36A1B",
"=. c #EA6914",
"-. c #F96113",
";. c #F66C14",
":. c #FB6D14",
">. c #FA651D",
",. c #F56A1C",
"<. c #F16418",
"1. c #EC7414",
"2. c #EA751A",
"3. c #EE7C1D",
"4. c #E87418",
"5. c #F47113",
"6. c #FA7311",
"7. c #F67B14",
"8. c #FA7A15",
"9. c #FC741C",
"0. c #F27C1A",
"q. c #F77919",
"w. c #F96620",
"e. c #FA6B23",
"r. c #EB7A26",
"t. c #FC7925",
"y. c #FB732A",
"u. c #FB7A2E",
"i. c #F47727",
"p. c #EF7D31",
"a. c #FC7D32",
"s. c #F58116",
"d. c #F4841A",
"f. c #F9811C",
"g. c #F98D1C",
"h. c #EC8126",
"j. c #EF892D",
"k. c #F28222",
"l. c #F38D25",
"z. c #FC822D",
"x. c #F68A28",
"c. c #FB8929",
"v. c #FC8721",
"b. c #FB9626",
"n. c #FA952B",
"m. c #FA9D2C",
"M. c #F89929",
"N. c #FB8433",
"B. c #FA8C35",
"V. c #FC8C3B",
"C. c #F59533",
"Z. c #FD9434",
"A. c #FB9A33",
"S. c #FB9B3B",
"D. c #F79B39",
"F. c #FAA12D",
"G. c #FBAB3B",
"H. c #FAA238",
"J. c #FCB23B",
"K. c #FD8C42",
"L. c #FC9442",
"P. c #FE9D4B",
"I. c #FA9645",
"U. c #FCA344",
"Y. c #FCAB43",
"T. c #FCA54B",
"R. c #FBAB4B",
"E. c #FCB345",
"W. c #FDB34C",
"Q. c #FCBB4A",
"!. c #FBA652",
"~. c #FCAA54",
"^. c #FDAC5A",
"/. c #FCB454",
"(. c #FCBC53",
"). c #FCB35B",
"_. c #FDBB5B",
"`. c #FEAF61",
"'. c #FCB563",
"]. c #FDBC63",
"[. c #FDBE6B",
"{. c #FBBF72",
"}. c #FDC45C",
"|. c #FDC365",
" X c #FDC867",
".X c #FDC26A",
"XX c #FDCA6D",
"oX c #FBC574",
"OX c #FDCC73",
"+X c #FAC57C",
"@X c #FBCB7C",
"#X c #FDD275",
"$X c #FDD47B",
"%X c #FDDC7E",
"&X c #FBCE86",
"*X c #FCD581",
"=X c #FDDC83",
"-X c #FCD589",
";X c #FCDC8C",
":X c #FCDB93",
">X c #FDE284",
",X c #FDE38C",
"<X c #FDE392",
"1X c #FDEA94",
"2X c #FDEB9B",
"3X c #FCE598",
"4X c #FDEEA3",
"5X c #FDF1A6",
"6X c #FDF1AA",
/* pixels */
"                                                                                                                                ",
"                                                                                                                                ",
"                                                                                                                                ",
"                                                                                                                                ",
"                                                                  >                                                             ",
"                                                            $   = c &                                                           ",
"                                                %           , @ v L w                                                           ",
"                                              & 5 3 % 8   7 s { } v L #     =   % %                                             ",
"                                              2 G 3 v { Z { 3.D.H M r.p p M n i 2 f                                             ",
"                                    &   o     , 3.K H 3.M.M.G.'.] ;.A.Y ;.g.$.B v #.>                                           ",
"                                    $ 5 8 i t p k.5.I.r./.'..X:XL.U.].N.U.E.B.,.( k.k , e =     =                               ",
"                                  # + , C d.7.Q B.Y.'.oX.X@X=X2X=X1X1XXX*X@X@XL.A.Z.( $.Z G b t *                               ",
"                                  8 f f V f.Q.S.!.<X,X>X%X#XXX].'.].].XX$X>X>X$X,X).U./.C.0.m y - @                             ",
"                            5 > o v $.U u.!.@X=X%X=X.XP.a.>.[ _ R W W [ w.a.P..X,X%X;X+X(.b.+.I V 7                             ",
"                        $   @ B { E c.c.I.;X,X$X!.y.] z u r 4 ; - - ; 4 r u z ] u.~.$X>X,X/.9.X.f.L f #                         ",
"                          q x b h.c.V.#X%X=X^.y.Y u 4 * o                 o # 4 u Y y.^.,X$X/.E.E.0.m 3                         ",
"                        X @ B l.D.oX].<X$XN._ u ; o                             o ; j W V.OX2X2XQ.O.U p X > +                   ",
"                      * 4 k ..b.^.@X>X].y.z 4 o                                     @ 4 z y..X2X|.z.6.l N ,                     ",
"                      q T P O.W.;X%X].>.j -                                             - j w.].%X XG.7.#., 6                   ",
"                    X 8 0.@.v./.,X|.>.h =                                                 = j >.oX5XOXE.$. .e                   ",
"                  . 7 ` n.Q._.$XOXe.j =                                                     - j y.#X<X@XH.$.-                   ",
"                $ 5 @ g ;.W.4X,XV.z -                                                         - z V.,X*XZ.( N q %               ",
"                o d n l z.).<X'.W 4                                                             4 W ).%X'.S.q.C 1               ",
"                  n d.;.L.:X*Xy.u @                                                             @ j y.*X,XZ.( c @ , %           ",
"                  5 0.Q.oX>X~.Y -                                                                 ; Y ^.>X).N.k s 6             ",
"              > q B ) Z.$X=Xy.u o                                                                 o u u.=X-XN.;.1.6             ",
"            $ w K 0.A.].=X|.] 4                                                                     4 ] .X;X XJ. .X             ",
"            $ , 7 ~ 6._.4XI.z *                                                                     = z T.,X].:.l -             ",
"              , s ` I.oX>Xa.h o                                                                     o h a.=X].V.r.*.G 7 .       ",
"            % 5 #.9.I.;X$Xw.r                                                                         r e.*X<XG.8.{ 8 3 @       ",
"              1  .m._.*XXX[ ;                                                                         4 [ OX;X!.r.s i           ",
"              o A b..X;X|._ ;                                                                         ; ] ].<X^.;.=.q %         ",
"            = s 1.F. X<X].R -                                                                         - R ].=X).F.2.a           ",
"            O 6 k.(.:X6X].R -                                                                         - _ ].;X.Xm.Z o           ",
"            # L h.i.P.*X]._ ;                                                                         4 ] [.=X|.F.1.a @         ",
"          > g K n / Z.=X&X[ 4                                                                         4 [ OX4X:X(.3.6 >         ",
"        + 7 H K 3.n._.:X=X>.r                                                                         r w.$XOXK.p.j.D           ",
"              % d T e.).%Xa.u o                                                                     o h N.>X).>.j 0 L 8 O       ",
"                - P 9.}.,XP.z =                                                                     = z T.4X#Xn...f w S <       ",
"                o ^ M. X,X[._ ;                                                                     4 ] .X$XT.B.h.*.H 0 %       ",
"                3 V f.P.;X=Xu.u o                                                                 o j u.=X#XS./ p #             ",
"                  a ! c./.2X^.I 3                                                                 3 R ~.>XoXJ.s.i               ",
"                = p ` f. X6X:Xy.u @                                                             @ j y.$X;X'.k.$.p O             ",
"              . 3 b *.x.E.}.>X).W 4                                                             r W ).5X).t.&.N =               ",
"                    5 5.@.n. X,XV.z -                                                         ; z V.%XOX_.v...d 3               ",
"                    ; l / 8.}.2XOXy.j =                                                     = l y.#X$XL.[ &.} H 8 @             ",
"                    X 3 k ( H.OX<X.X>.j =                                                 - j w..X=X&XU./ y #                   ",
"                        5  .M./.:X>X'.>.z -                                             - j w.].1X@X!.H.#.@                     ",
"                      % q w ! m.T.].2X.Xy.z 4 @                                     @ 4 z y.XX%X|.(.m.h.b %                     ",
"                      &   6 ` =.-./.XX>X#XV._ h 3 o                             @ ; j ] V.#X2X_.z.8.$.*.< =                     ",
"                        % > $ 4 $.f.u.[.3X>X).y.R h 4 = o                 o = 4 h Y y.).>X2X$XY.X.I n s :                       ",
"                              % #.T <.V._.-X>X$X^.y.] z u r 4 3 ; - ; 4 y h z ] u.~.$X>X|._.R.x.7.m r 4 %                       ",
"                              = 0 1 N 6.G.R.!.<X1X=X.XP.a.w.[ ] W _ _ [ w.N.P.|.%X$X*XOXz.:.g.A c f * @ =                       ",
"                              . o 6 s ~ s.X.B./.).;X%X=X>X$XOX.X].].].OX$X<X2X$XXX&X^.G.6.z ) b                                 ",
"                                $ o # i t k x.O.I.I.'.oX$X4X*X>X2X#X=X*X-X|.#XL.z.).C.g.! l y 3                                 ",
"                                    +     c 2.L ` q.G.R.(.-XK.I.].N.R._.~.z.n.,.U $.} | H 6 * .                                 ",
"                                          c x 5 B 4.4.d.m./.' 6.D.Q 8.F.0.&.;.J r > w % : 3 -                                   ",
"                                          1 > , , a 2 B #.C.b #.r.r M  .! a K w .     $     $                                   ",
"                                          o O   %     5 5 H L L S # X 5 - 5 f >                                                 ",
"                                                      @ O % F ` @           =                                                   ",
"                                                            7 w                                                                 ",
"                                                            + &                                                                 ",
"                                                                                                                                ",
"                                                                                                                                "
};
