/* XPM */
static char *__resized[] = {
/* columns rows colors chars-per-pixel */
"64 64 217 2 ",
"   c #0A0B07",
".  c #120F08",
"X  c #17160D",
"o  c #191C12",
"O  c #1B1918",
"+  c #2A0907",
"@  c #370A08",
"#  c #23150C",
"$  c #39180E",
"%  c #211C17",
"&  c #15220D",
"*  c #1C2014",
"=  c #1E2F10",
"-  c #242A0E",
";  c #212416",
":  c #222518",
">  c #282A1A",
",  c #352C16",
"<  c #39281B",
"1  c #273615",
"2  c #252721",
"3  c #2C2D21",
"4  c #342F2A",
"5  c #31332D",
"6  c #3A3B36",
"7  c #480A08",
"8  c #580808",
"9  c #46150C",
"0  c #5B110D",
"q  c #471818",
"w  c #5D1818",
"e  c #660C0C",
"r  c #6B0A0A",
"t  c #760807",
"y  c #720A0A",
"u  c #7C0B0B",
"i  c #681813",
"p  c #771614",
"a  c #54261B",
"s  c #68261D",
"d  c #452622",
"f  c #4C322B",
"g  c #533A27",
"h  c #543A3A",
"j  c #7A2524",
"k  c #63322A",
"l  c #763737",
"z  c #2C4416",
"x  c #2D4518",
"c  c #374718",
"v  c #32451D",
"b  c #334B1A",
"n  c #35541C",
"m  c #3A521E",
"M  c #395B1D",
"N  c #3D611F",
"B  c #384728",
"V  c #3B5823",
"C  c #3E4933",
"Z  c #454522",
"A  c #534829",
"S  c #50532E",
"D  c #484B3A",
"F  c #485737",
"G  c #694A32",
"H  c #694E31",
"J  c #78563B",
"K  c #7C563B",
"L  c #436422",
"P  c #426C21",
"I  c #4B6A26",
"U  c #516F2D",
"Y  c #467323",
"T  c #4B7423",
"R  c #547B25",
"E  c #4C6336",
"W  c #726D33",
"Q  c #584845",
"!  c #52554B",
"~  c #535450",
"^  c #724D44",
"/  c #6A5A5A",
"(  c #785656",
")  c #5A684C",
"_  c #6E6C55",
"`  c #77685A",
"'  c #656261",
"]  c #736765",
"[  c #707467",
"{  c #767774",
"}  c #830D0D",
"|  c #8D0D0C",
" . c #930E0D",
".. c #9B0E0E",
"X. c #861412",
"o. c #991616",
"O. c #A20E0E",
"+. c #AB0E0E",
"@. c #B10F0F",
"#. c #A41212",
"$. c #AC1111",
"%. c #B41111",
"&. c #BC1212",
"*. c #862424",
"=. c #8C2E2E",
"-. c #C41212",
";. c #CC1414",
":. c #D31414",
">. c #DD1515",
",. c #E41616",
"<. c #EA1717",
"1. c #ED1818",
"2. c #F21919",
"3. c #894733",
"4. c #865B3D",
"5. c #804C4C",
"6. c #865F43",
"7. c #875B5A",
"8. c #896848",
"9. c #946645",
"0. c #996A48",
"q. c #9F714B",
"w. c #886B55",
"e. c #906D53",
"r. c #977558",
"t. c #A26A49",
"y. c #A5724D",
"u. c #A77855",
"i. c #B57B53",
"p. c #B97E55",
"a. c #886464",
"s. c #877666",
"d. c #877A76",
"f. c #967C7B",
"g. c #578428",
"h. c #5C8D2B",
"j. c #5F912D",
"k. c #648526",
"l. c #698A27",
"z. c #738B27",
"x. c #66972D",
"c. c #64992F",
"v. c #78972A",
"b. c #7AA12E",
"n. c #8C9B29",
"m. c #88A52E",
"M. c #93AC2F",
"N. c #9AA92C",
"B. c #95AE30",
"V. c #9BB030",
"C. c #A7AF2D",
"Z. c #CDC22F",
"A. c #D2C831",
"S. c #DBCB30",
"D. c #E5CF31",
"F. c #EAD331",
"G. c #F7D932",
"H. c #AD835C",
"J. c #B1845D",
"K. c #87857D",
"L. c #AB8864",
"P. c #B78A63",
"I. c #BF9369",
"U. c #C2845A",
"Y. c #CB8A5C",
"T. c #D28E5F",
"R. c #D28F61",
"E. c #C69468",
"W. c #DD9564",
"Q. c #D39969",
"!. c #D09E70",
"~. c #E09765",
"^. c #E19866",
"/. c #E19B68",
"(. c #DEA978",
"). c #E5A16E",
"_. c #E6A572",
"`. c #E9A976",
"'. c #E5AB78",
"]. c #EBAE7A",
"[. c #E7B17E",
"{. c #ECB27E",
"}. c #838481",
"|. c #8A8986",
" X c #8F918D",
".X c #969693",
"XX c #9C9C9A",
"oX c #A29A97",
"OX c #9FA09D",
"+X c #A3A09C",
"@X c #A4A4A3",
"#X c #A8AAA7",
"$X c #ADADAC",
"%X c #B1ABAB",
"&X c #B0B0AE",
"*X c #B5B5B4",
"=X c #B9B5B4",
"-X c #BCBCBB",
";X c #EDB581",
":X c #F0B681",
">X c #F2BA85",
",X c #C0BDBD",
"<X c #C1C0BF",
"1X c #C3C3C3",
"2X c #C8C7C7",
"3X c #CBCBCB",
"4X c #D0D0D0",
"5X c #D3D4D4",
"6X c #D7D8D7",
"7X c #DBDBDC",
"8X c #DFE0E0",
"9X c #E3E3E3",
"0X c #E7E8E8",
"qX c #EDEDED",
"wX c #F3F3F3",
"eX c #F6F9F9",
"rX c #FDFDFD",
/* pixels */
"qXqXqXqXqXrXrXrXrXrXrXrXrXrXrXrXrXrXqXqXqXqXqXqXqXqXqXqXqXqXwXrXrXrXrXrXeXeXeXrXrXrXrXeXqXqXqXqXqXqXqXqXqXqXqXqXwXrXrXrXrXrXrXrX",
"qXqXqXqXqXrXrXrXrXrXrXrXrXrXrXrXrXrXqXqXqXqXqXqXqXqXqXqXqXqX0X9X2X=XoXf.a.7.7.f.,XwXrXeXqXqXqXqXqXqXqXqXqXqXqXqXeXrXrXrXrXrXrXrX",
"qXqXqXqXqXrXrXrXrXrXrXrXrXrXrXrXrXrXqXqXqXqXqXqXqXqXqX5X*X|.7.l *.o.$.-.;.:.-...j s.6XwXqXqXqXqXqXqXqXqXqXqXqXqXeXrXrXrXrXrXrXrX",
"qXqXqXqXqXrXrXrXrXrXrXrXrXrXrXrXrXrXqXqXqXqXqXqX9X*Xd.^ *.#.-.>.1.2.2.2.<.@.8 @ 8 } 5.,XqXqXqXqXqXqXqXqXqXqXqXqXrXrXrXrXrXrXrXrX",
"qXqXqXqXqXeXrXrXrXrXrXrXrXrXrXrXrXrXqXqXqXqX7X@X/ j $.:.<.2.2.2.2.2.2.;.e - - &   + r l &XqXqXqXqXqXqXqXqXqXqXqXeXrXrXrXrXrXrXrX",
"qXqXqXqXqXrXrXrXrXrXrXrXrXrXrXrXrXeXwXqXqX-X/ j @.,.2.2.2.2.2.2.2.1.%.9 z I k.R N 1 # 8 l *XqXqXqXqXqXqXqXqXqXqXeXrXrXrXrXrXrXrX",
"qXqXqXqXqXrXrXrXrXrXrXrXrXrXrXrXrXrXqX6X|.k $.,.2.2.2.2.2.2.2.2.1.#.$ M Y N.S.S.m.T M ; 7 ^ 2XqXqXqXqXqXqXqXqXqXrXrXrXrXrXrXrXrX",
"qXqXqXqXqXrXrXrXrXrXrXrXrXrXrXrXrXrX6X] y :.2.2.2.2.2.2.2.2.2.2.O., M Y R Z.G.F.F.z.Y P > + ] 0XqXqXqXqXqXqXqXqXeXrXrXrXrXrXrXrX",
"wXwXwXwXwXwXeXeXeXeXrXeXeXeXeXeXeX8X] u >.2.2.2.2.2.2.2.2.2.1.@.$ n Y Y k.S.F.A.G.A.k.Y N = = -XeXwXwXwXwXwXwXwXeXrXeXeXeXeXeXeX",
"rXrXrXrXrXwXqXqXqXqXqXqXqXqXqXqX6X] X.,.2.2.2.2.2.2.2.2.2.2.-.$ n Y Y Y z.D.G.D.D.G.C.T N M & }.rXrXrXrXrXrXrXrXwXqXqXqXqXqXqXqX",
"rXrXrXrXrXwXqXqXqXqXqXqXqXqXqX0XK.i ,.2.2.2.2.2.2.2.2.2.2.>.0 z P Y Y Y n.G.D.z.v.G.D.z.N g.b ! qXrXrXrXrXrXrXrXwXqXqXqXqXqXqXqX",
"rXrXrXrXrXwXqXqXqXqXqXqXqXqXqX@Xw ;.2.2.2.2.2.2.2.2.2.2.<.} - P Y Y Y T C.F.Z.R R C.S.N.g.Y N B -XrXrXrXrXrXrXrXwXqXqXqXqXqXqXqX",
"rXrXrXrXrXwXqXqXqXqXqXqXqXwX3Xh %.2.2.2.2.2.2.2.2.2.2.2.%.$ N Y Y Y Y T z.v.k.Y P I I I L P P b |.wXrXrXrXrXrXrXwXqXqXqXqXqXqXqX",
"rXrXrXrXrXqXqXqXqXqXqXqXqX0X|.p 1.2.2.2.2.2.2.2.2.1.2.>.0 z Y P P N M n b z z z b b v v v v z = ~ qXrXrXrXrXrXrXwXqXqXqXqXqXqXqX",
"rXrXrXrXrXwXqXqXqXqXqXqXqX2Xf &.2.2.2.2.2.2.2.2.2.2.2...X z v c c x M L I R g.j.h.j.j.j.x.h.v.W I K.9XrXrXrXrXrXwXqXqXqXqXqXqXqX",
"rXrXrXrXrXqXqXqXqXqXqXqXqXXX0 :.,.,.2.1.2.2.2.2.2.2.,.7   X m z.N.v.x.c.c.c.c.c.x.c.c.c.j.c.c.b.n.W _ 1XrXrXrXrXwXqXqXqXqXqXqXqX",
"rXrXrXrXrXwXqXqXqXqXqXqX0X/ u ;.;.:.1.2.2.2.2.2.2.2.#.. % g Z L v.V.M.b.c.c.c.c.c.x.b.m.m.M.M.B.M.C.n.E &XeXrXrXwXqXqXqXqXqXqXqX",
"rXrXrXrXrXwXqXqXqXqXqXqX6Xh O.;.;.;.,.2.2.2.2.1.,.;.8 o < J.p.G v T m.V.B.b.b.m.M.M.M.N.v.l.k.g.k.z.n.z.F -XrXrXwXqXqXqXqXqXqXqX",
"rXrXrXrXrXqXqXqXqXqXqXwX2Xd %.;.;.;.>.<.<.<.,.:.;.O.+ % g Y.^.T.0.A c R b.M.M.m.b.l.I m Z S H H F _ ) E Z OXrXrXwXqXqXqXqXqXqXqX",
"rXrXrXrXrXwXqXqXqXqXqXwX1Xd %.;.;.;.;.:.;.;.;.;.;.} % : 4.W.~.~.~.Y.6.; = m L P m Z K y.Y.J.G H d.9XqX3X<XqXrXrXwXqXqXqXqXqXqXqX",
"wXwXqXwXwXeXrXrXrXeXrXrX4Xd %.-.%.;.;.;.;.;.;.;.;.8 o > y.^.~.^.~.^.R.G < #     g y.~.~.q.g f 4.d.0XwXwXwXwXwXwXeXrXeXrXrXrXeXrX",
"qXqXqXqXqXeXrXrXrXrXrXrX9Xh O.&. .;.;.;.;.;.;.;.-.9 o g T.^.^.W.~.~.~.W.p.w.Q g < H W.W.H Q r.i.K.9XqXqXqXqXqXqXeXrXrXrXrXrXrXrX",
"qXqXqXqXqXrXrXrXrXrXrXrXwX] t -.} -.;.;.;.;.;.;.%.@ X 9.^.^.W.^.~.~.~.~.q.XX] 4.p.i.~.W.u.d./ 8.oX0XqXqXqXqXqXqXeXrXrXrXrXrXrXrX",
"qXqXqXqXqXrXrXrXrXrXrXrXrX@X9 } y %.;.;.;.;.;.;.%.@ < T._.`._.)./.~.~.W.4.3 o 4.^.~.~.~.y.% , 6.,XqXqXqXqXqXqXqXeXrXrXrXrXrXrXrX",
"qXqXqXqXqXrXrXrXrXrXrXrXrXwX@X/ f o.;.;.;.;.;.;.&.i e.W.{.>X:X>X;X_./.~.t.X # y.^.W.).R.U.g G w.,XqXqXqXqXqXqXqXrXrXrXrXrXrXrXrX",
"qXqXqXqXqXrXrXrXrXrXrXrXrXrXrXwX@Xp -.;.;.;.;.;.-.i 0./.{.>X>X>X>X:X]._.R.0.0.W./._.{.u.J.E.E.r.,XqXqXqXqXqXqXqXeXrXrXrXrXrXrXrX",
"qXqXqXqXqXrXrXrXrXrXrXrXrXrXrXrX7Xh  .;.;.;.;.;.;.u 4.W.`.>X>X>X>X>X:X:X].`._.`.{.>X>XQ.K J.{.L.1XqXqXqXqXqXqXqXeXrXrXrXrXrXrXrX",
"qXqXqXqXqXrXrXrXrXrXrXrXrXrXrXrXrXXXq O.;.;.;.;.;.#.s Y.).;X>X>X>X>X>X>X;X'.>X>X>X:X].Q.8.H.[.s.1XqXqXqXqXqXqXqXeXrXrXrXrXrXrXrX",
"qXqXqXqXqXrXrXrXrXrXrXrXrXrXrXrXrXqX] q | -.;.;.;.-.i 0./.`.>X>X>X>X>X;XI.8.(.:X:X>X{.Q.P.[._.s.6XqXqXqXqXqXqXqXeXrXrXrXrXrXrXrX",
"qXqXqXqXqXeXrXrXrXrXrXrXrXrXrXrXrXrX9X|.4 e $.-.;.;.$.a i.~.`.:X>X>X>X>X;XL.0.u.P.E.[.>X>X>XP.|.0XqXqXqXqXqXqXqXeXrXrXrXrXrXrXrX",
"qXqXqXqXqXrXrXrXrXrXrXrXrXrXrXrXrXrXqX0X,X/ q y +.;.;.} q ^ Y.'.>X>X>X>X>X:X(.E.I.!.{.>X>X!.` 1XqXqXqXqXqXqXqXqXrXrXrXrXrXrXrXrX",
"wXwXqXwXwXrXeXeXeXrXeXrXeXrXeXrXeXeXwXwXwX0X*X] f y o.%.u $ g K u.!.;X:X>X>X>X:X>X>X{.'.P.s.&XwXwXwXwXwXwXwXwXwXeXeXeXrXeXeXrXeX",
"rXrXrXrXrXwXqXqXqXqXqXqXqXqXqXqXqXqXrXrXrXrXrXrX6X.Xf 7 r 8 < f # a h ^ H.L.L.L.L.L.r.s..X7XrXrXrXrXrXrXrXrXrXrXwXqXqXqXqXqXqXqX",
"rXrXrXrXrXqXqXqXqXqXqXqXqXqXqXqXqXwXrXrXrXrXrXrXeX-Xh 8 r r 8 @ 7 q Q { @X@XXXXXoX%X<X7XrXrXrXrXrXrXrXrXrXrXrXrXwXqXqXqXqXqXqXqX",
"rXrXrXrXrXqXqXqXqXqXqXqXqXqXqXqXqXwXrXrXrXrXqX=X] *.#.-.;.-.&.O...^ 5XqXqXqXqXqXqXqXqXeXrXrXrXrXrXrXrXrXrXrXrXrXwXqXqXqXqXqXqXqX",
"rXrXrXrXrXwXqXqXqXqXqXqXqXqXqXqXqXqXrXrXrX1X7.*.@.;.;.;.;.$.-.;.-.=.2XqXqXqXqXqXqXqXqXeXrXrXrXrXrXrXrXrXrXrXrXrXwXqXqXqXqXqXqXqX",
"rXrXrXrXrXqXqXqXqXqXqXqXqXqXqXqXqXqXrXeX%X=.+.-.;.;.;.-.o.| -.;.;.o.%XqXqXqXqXqXqXqXqXwXrXrXrXrXrXrXrXrXrXrXrXrXwXqXqXqXqXqXqXqX",
"rXrXrXrXrXwXqXqXqXqXqXqXqXqXqXqXqXwXrX=Xj -.;.;.;.;.&.} } &.;.;.:.#.oXqXqXqXqXqXqXqXqXeXrXrXrXrXrXrXrXrXrXrXrXrXwXqXqXqXqXqXqXqX",
"rXrXrXrXrXqXqXqXqXqXqXqXqXqXqXqXqXwXqX7.O.;.;.;.;.#.y  .&.;.;.;.;.#.K.qXqXqXqXqXqXqXqXeXrXrXrXrXrXrXrXrXrXrXrXrXwXqXqXqXqXqXqXqX",
"rXrXrXrXrXqXqXqXqXqXqXqXqXqXqXqXqXwX4Xj -.;.;.;...r O.;.;.;.;.;.;.%.a.9XqXqXqXqXqXqXqXwXrXrXrXrXrXrXrXrXrXrXrXrXwXqXqXqXqXqXqXqX",
"rXrXrXrXrXwXqXqXqXqXqXqXqXqXqXqXqXwX-X*.;.;.;.;.y O.;.;.;.;.&.&.&...( 9XqXqXqXqXqXqXqXeXrXrXrXrXrXrXrXrXrXrXrXrXwXqXqXqXqXqXqXqX",
"rXrXrXrXrXwXqXqXqXqXqXqXqXqXqXqXqXwX-Xj -.;.;.;.} ..;.;.;.&.u  .X.u ( 9XqXqXqXqXqXqXqXeXrXrXrXrXrXrXrXrXrXrXrXrXwXqXqXqXqXqXqXqX",
"rXrXrXrXrXwXqXqXqXqXqXwXqXqXqXqXqXwX6Xl -.;.;.;. .u ;.;.;.....;.;.&.l *X=X1X7XqXqXqXqXwXrXrXrXrXrXrXrXrXrXrXrXrXwXqXqXqXqXqXqXqX",
"wXwXwXwXwXeXeXeXeXrXeXeXrXeXeXrXeXeXqXa...;.&. .8 y -.;.%.u &.;.;.%.s e.u.r.K.9XrXeXrXeXwXwXwXqXwXwXwXwXwXwXwXwXeXeXrXeXeXrXeXrX",
"qXqXqXqXqXrXrXrXrXrXrXrXrXrXrXrXrXrXqX-Xk r r } X.s s 0 9 w p p i 9 g T.i.U.J XXwXrXrXeXqXqXqXqXqXqXqXqXqXqXqXqXeXrXrXrXrXrXrXrX",
"qXqXqXqXqXrXrXrXrXrXrXrXrXrXrXrXrXrXqXqXXXi  .X.3.E.I.A m L P P P 1 K i.H 4.J w.3XrXrXeXqXqXqXqXqXqXqXqXqXqXqXqXrXrXrXrXrXrXrXrX",
"qXqXqXqXqXrXrXrXrXrXrXrXrXrXrXrXrXrXqXqX6X( t.P.'.>X:Xu.I x.j.c.T g i.J 4.9.y.s.7XrXrXeXqXqXqXqXqXqXqXqXqXqXqXqXeXrXrXrXrXrXrXrX",
"qXqXqXqXqXrXrXrXrXrXrXrXrXrXrXrXrXrXqXqX6X` ;X>X>X>X;X8.L g.g.N z Z G 4.W.T.8.-XrXrXrXeXqXqXqXqXqXqXqXqXqXqXqXqXeXrXrXrXrXrXrXrX",
"qXqXqXqXqXrXrXrXrXrXrXrXrXrXrXrXrXrXqXqX0X] !.>X:X:X;Xe.! _ C z Y N 1 0.U.e.+XqXrXrXrXeXqXqXqXqXqXqXqXqXqXqXqXqXwXrXrXrXrXrXrXrX",
"qXqXqXqXqXrXrXrXrXrXrXrXrXrXrXrXrXrXqXqXqX+X8.J.I.H.( D $X7X&XE N T N , ` 1XeXrXrXrXrXeXqXqXqXqXqXqXqXqXqXqXqXqXeXrXrXrXrXrXrXrX",
"qXqXqXqXqXrXrXrXrXrXrXrXrXrXrXrXrXeXqXqXqX9X#X! Z L R I -XqX0X}.N T Y M }.eXrXrXrXrXrXwXqXqXqXqXqXqXqXqXqXqXqXqXeXrXrXrXrXrXrXrX",
"qXqXqXqXqXrXrXrXrXrXrXrXrXrXrXrXrXrXwXqXqXqX5X) j.x.x.U @XqXwX-XE Y Y P ! 6XrXrXrXrXrXwXqXqXqXqXqXqXqXqXqXqXqXqXrXrXrXrXrXrXrXrX",
"qXqXqXqXqXeXrXrXrXrXrXrXrXrXrXrXrXrXqXqXqX9X}.U c.c.c.U OXqXeX=XV Y Y Y V #XrXrXrXrXrXeXqXqXqXqXqXqXqXqXqXqXqXqXeXrXrXrXrXrXrXrX",
"qXqXqXqXqXrXrXrXrXrXrXrXrXrXrXrXrXrXqXqXqX#XE j.c.c.x.E &XqXwXOXV Y Y Y M .XrXrXrXrXrXeXqXqXqXqXqXqXqXqXqXqXqXqXrXrXrXrXrXrXrXrX",
"qXwXwXwXwXeXrXeXrXeXrXeXeXrXrXeXrXeXwXwX7X) g.c.c.c.j.E 4XwXwX}.V Y Y Y n  XwXrXeXrXrXwXwXwXwXwXwXwXwXwXwXwXwXwXeXeXrXeXeXrXrXeX",
"rXrXrXrXrXwXqXqXqXqXqXqXqXqXqXqXqXqXrXrX6XC L g.h.h.T { wXrXeXXX1 x b b C =XqXqXqXqXqXeXrXrXrXrXrXrXeXrXrXrXrXrXwXqXqXqXqXqXqXqX",
"rXrXrXrXrXwXqXqXqXqXqXqXqXqXqXqXqXqXrXrX-X4 ; 1 1 B [ 5XrXrXrX$X2 o o   C $X9XqXqXqXqXwXrXrXrXrXrXrXrXrXrXrXrXrXwXqXqXqXqXqXqXqX",
"rXrXrXrXrXqXqXqXqXqXqXqXqXqXqXqXqXwXrX8X' : : * o 5 $XeXrXrXeX X* * * * O 2 ~ -XqXqXqXwXrXrXrXrXrXrXrXrXrXrXrXrXwXqXqXqXqXqXqXqX",
"rXrXrXrXrXqXqXqXqXqXqXqXqXqXqXqXqXqXeX X> 3 3 3 > > 6 #XeXrXqX' * * 2 * * * * ~ 2XwXqXwXrXrXrXrXrXrXrXrXrXrXrXrXwXqXqXqXqXqXqXqX",
"rXrXrXrXrXwXqXqXqXqXqXqXqXqXqXqXqXwX0X! ; 3 3 3 3 3 > 6 3XrX8X6 X * * & * * O . |.qXqXeXrXrXrXrXrXrXrXrXrXrXrXrXwXqXqXqXqXqXqXqX",
"rXrXrXrXrXwXqXqXqXqXqXqXqXqXqXqXqXwX7XD o : : ; : ; ; 2 @XrX0X' 6 5 5 5 5 5 6 6  X0XqXeXrXrXrXrXrXrXrXrXrXrXrXrXwXqXqXqXqXqXqXqX",
"rXrXrXrXrXqXqXqXqXqXqXqXqXqXqXqXqXwXwX1X@X X}.}.}.}. X#X9XrXwX7X2X1X-X1X1X<X1X3X9XqXqXwXrXrXrXrXrXrXrXrXrXrXrXrXwXqXqXqXqXqXqXqX",
"rXrXrXrXrXwXqXqXqXqXqXqXqXqXqXqXqXqXrXrXrXrXrXrXrXrXrXrXrXrXeXqXqXqXqXqXqXwXqXqXqXqXqXeXrXrXrXrXrXrXrXrXrXrXrXrXwXqXqXqXqXqXqXqX",
"rXrXrXrXrXqXqXqXqXqXqXqXqXqXqXqXqXwXrXrXrXrXrXrXrXrXrXrXrXrXeXqXqXqXqXqXqXqXqXqXqXqXqXwXrXrXrXrXrXrXrXrXrXrXrXrXwXqXqXqXqXqXqXqX"
};
