/* XPM */
static char *__resized[] = {
/* columns rows colors chars-per-pixel */
"64 64 228 2 ",
"   c #110A06",
".  c #0E1109",
"X  c #13140C",
"o  c #18160E",
"O  c #171711",
"+  c #1A1D12",
"@  c #370D0A",
"#  c #24160D",
"$  c #2C160F",
"%  c #39180B",
"&  c #1B270E",
"*  c #1E2115",
"=  c #1F2019",
"-  c #2B250E",
";  c #252617",
":  c #22261A",
">  c #27291C",
",  c #3B2819",
"<  c #273513",
"1  c #343A18",
"2  c #2B2D21",
"3  c #2D3125",
"4  c #35382A",
"5  c #3A3C34",
"6  c #470505",
"7  c #4B0A0A",
"8  c #590A0A",
"9  c #53120D",
"0  c #491816",
"q  c #571616",
"w  c #620E0C",
"e  c #6B0A0A",
"r  c #740B0B",
"t  c #7A0B0B",
"y  c #6D120F",
"u  c #70110E",
"i  c #671815",
"p  c #751313",
"a  c #4D291C",
"s  c #622C1F",
"d  c #532525",
"f  c #4A3725",
"g  c #553A28",
"h  c #4D3835",
"j  c #763A29",
"k  c #713333",
"l  c #2D4618",
"z  c #36491C",
"x  c #35551B",
"c  c #3B581E",
"v  c #3A5B1E",
"b  c #3E651F",
"n  c #394825",
"m  c #3C5724",
"M  c #3E4038",
"N  c #3E6520",
"B  c #4D5B1C",
"V  c #44601E",
"C  c #4B4729",
"Z  c #5A432B",
"A  c #435727",
"S  c #534F33",
"D  c #49593B",
"F  c #6A4B33",
"G  c #694D32",
"H  c #7A563A",
"J  c #436322",
"K  c #496324",
"L  c #426C21",
"P  c #4A6C21",
"I  c #467323",
"U  c #4D7525",
"Y  c #527925",
"T  c #537A24",
"R  c #4E6934",
"E  c #667327",
"W  c #494A42",
"Q  c #594645",
"!  c #4D5445",
"~  c #54574D",
"^  c #5A5955",
"/  c #674A4A",
"(  c #7A4848",
")  c #66524C",
"_  c #7D584B",
"`  c #695959",
"'  c #5A6E48",
"]  c #5E6654",
"[  c #706648",
"{  c #61625E",
"}  c #636D5B",
"|  c #78655A",
" . c #666764",
".. c #746863",
"X. c #6C7266",
"o. c #76786C",
"O. c #767775",
"+. c #840C0C",
"@. c #8D0D0D",
"#. c #940D0D",
"$. c #9A0F0F",
"%. c #8E100F",
"&. c #95100F",
"*. c #891413",
"=. c #941616",
"-. c #9A1313",
";. c #A20F0F",
":. c #B60F0F",
">. c #A51717",
",. c #AC1111",
"<. c #B31111",
"1. c #BC1212",
"2. c #882019",
"3. c #882727",
"4. c #962727",
"5. c #843535",
"6. c #B32020",
"7. c #C00F0F",
"8. c #C31212",
"9. c #CC1414",
"0. c #D31515",
"q. c #DC1515",
"w. c #E41616",
"e. c #EB1717",
"r. c #ED1818",
"t. c #F01717",
"y. c #F21919",
"u. c #8D4E38",
"i. c #825B3D",
"p. c #8B5D3F",
"a. c #834B4B",
"s. c #8D6242",
"d. c #856449",
"f. c #956A48",
"g. c #876D57",
"h. c #8A7059",
"j. c #98775C",
"k. c #A26F4B",
"l. c #A6714D",
"z. c #B0774F",
"x. c #AA7A55",
"c. c #B47B53",
"v. c #BA7E55",
"b. c #8C6E65",
"n. c #877669",
"m. c #877C7A",
"M. c #957878",
"N. c #558229",
"B. c #5C8A2A",
"V. c #6E8D28",
"C. c #768E27",
"Z. c #61962E",
"A. c #64992F",
"S. c #6D9C2F",
"D. c #76972B",
"F. c #7C9C2C",
"G. c #78A12F",
"H. c #7F857A",
"J. c #808725",
"K. c #859B2A",
"L. c #88A72F",
"P. c #97A92D",
"I. c #9BAE2E",
"U. c #8CAB30",
"Y. c #94AE30",
"T. c #9BB130",
"R. c #AEB22D",
"E. c #C5BD2E",
"W. c #CBC22F",
"Q. c #D8C930",
"!. c #E2CD30",
"~. c #E9D232",
"^. c #F6D932",
"/. c #FFE133",
"(. c #AA825C",
"). c #B7835A",
"_. c #82847D",
"`. c #A08163",
"'. c #B18865",
"]. c #BC8D64",
"[. c #C3865A",
"{. c #C7885C",
"}. c #C39369",
"|. c #C7986C",
" X c #CA9A6D",
".X c #D59364",
"XX c #DC9563",
"oX c #E09765",
"OX c #E29966",
"+X c #E39C69",
"@X c #D8A676",
"#X c #E2A16F",
"$X c #E5A572",
"%X c #E8AB78",
"&X c #E7B17E",
"*X c #EDB27E",
"=X c #888886",
"-X c #938988",
";X c #8C9188",
":X c #9B958F",
">X c #949595",
",X c #9B9895",
"<X c #A39E9B",
"1X c #9FA09D",
"2X c #A6A19F",
"3X c #A8A6A4",
"4X c #ACADAB",
"5X c #B0AEAD",
"6X c #AFB1B0",
"7X c #B5B4B3",
"8X c #BBBABA",
"9X c #EEB581",
"0X c #F2BA85",
"qX c #C1BEBD",
"wX c #C4C3C3",
"eX c #CBCBCB",
"rX c #CFD0D0",
"tX c #D3D3D3",
"yX c #D7D6D8",
"uX c #DBDBDB",
"iX c #DEE0E0",
"pX c #E4E4E4",
"aX c #E5E8E8",
"sX c #EDEDED",
"dX c #EFF0EF",
"fX c #EFF1F1",
"gX c #F4F4F4",
"hX c #FEFEFE",
/* pixels */
"gXgXgXgXgXgXgXgXgXgXgXgXgXgXgXgXgXgXgXgXgXgXgXgXgXgXgXgXgXgXgXgXgXgXgXgXgXgXgXgXgXgXgXgXgXgXgXgXgXgXgXgXgXgXgXgXgXgXgXgXgXgXgXgX",
"hXhXhXhXhXhXhXhXhXhXhXhXhXgXsXgXsXsXsXsXdXfXsXsXdXdXdXfXhXhXhXhXhXhXhXhXhXhXhXhXhXgXfXfXdXfXsXsXfXsXdXfXsXsXgXhXhXhXhXhXhXhXhXhX",
"hXhXhXhXhXhXhXhXhXhXhXhXgXsXsXsXsXsXsXsXsXsXsXsXsXsXdXdXhXhXhXhXhXhXhXhXhXhXhXhXhXgXsXsXsXsXsXsXsXsXsXsXsXsXgXhXhXhXhXhXhXhXhXhX",
"hXhXhXhXhXhXhXhXhXhXhXhXgXsXsXsXsXsXsXsXsXsXsXsXsXsXsXdXhXhXhXhXgXiXtXwX7X7X7XtXgXgXsXsXsXsXsXsXsXsXsXsXsXsXgXhXhXhXhXhXhXhXhXhX",
"hXhXhXhXhXhXhXhXhXhXhXhXhXsXsXsXsXsXsXsXsXsXsXsXsXdXdXpXuX8X,Xb.a.5.4.4.6.6.6.3.b.7XpXsXsXsXsXsXsXsXsXsXsXsXgXhXhXhXhXhXhXhXhXhX",
"hXhXhXhXhXhXhXhXhXhXhXhXgXgXsXsXsXsXsXsXsXsXsXsXuX8X-X_ 5.*.,.9.q.e.t.y.w.8.+.w t i M.rXsXsXsXsXsXsXsXsXsXsXgXhXhXhXhXhXhXhXhXhX",
"hXhXhXhXhXhXhXhXhXhXhXhXgXdXsXsXsXsXsXsXdXaXeX-X/ 3.>.9.w.y.y.y.y.y.y.9.y % * .   6 p _ wXsXsXsXsXsXsXsXsXsXgXhXhXhXhXhXhXhXhXhX",
"hXhXhXhXhXhXhXhXhXhXhXhXhXsXsXsXsXsXsXsXeXm.k =.0.r.y.y.y.y.y.y.y.w.&.% x P T I x * @ w k qXsXsXsXsXsXsXsXsXgXhXhXhXhXhXhXhXhXhX",
"hXhXhXhXhXhXhXhXhXhXhXhXgXsXsXsXdXdXiX>Xk =.q.r.y.y.y.y.y.y.y.y.q.u - v T R.Q.W.C.L x - 7 / wXsXsXsXsXsXsXsXgXhXhXhXhXhXhXhXhXhX",
"hXhXhXhXhXhXhXhXhXhXhXhXhXsXsXsXsXeX..p 9.r.y.y.y.y.y.y.y.y.y.0.y < b I V.!.^.!.!.V.I b < @ ` uXsXsXsXsXsXsXgXhXhXhXhXhXhXhXhXhX",
"hXhXhXhXhXhXhXhXhXhXhXhXgXgXgXsXwX) %.w.y.y.y.y.y.y.y.y.y.y.0.w < I I I K.^.~.Q./.E.N.I L < o 1XgXsXgXsXsXsXgXhXhXhXhXhXhXgXhXhX",
"gXfXgXfXgXfXdXdXgXgXgXsXgXgXhXeXQ &.r.y.y.y.y.y.y.y.y.y.y.w.w < L I I I P./.^.W.!.^.R.T I b & ^ gXgXgXhXhXgXgXgXgXgXgXsXgXgXgXgX",
"sXsXsXsXsXsXsXsXsXsXsXsXgXhXuX) &.e.y.y.y.y.y.y.y.y.y.y.w.r < J I I I U R./.E.T K.~.^.K.I I b 4 tXhXhXhXhXhXgXsXsXsXsXsXsXsXsXsX",
"sXsXsXsXsXsXsXsXsXsXsXsXgXsX..*.r.y.y.y.y.y.y.y.y.y.y.r.$.- N I I I I N.W.Q.P.I T K.I.G.T I I l =XhXhXhXhXhXhXsXsXsXsXsXsXsXsXsX",
"sXsXsXsXsXsXsXsXsXsXsXsXsX,Xi q.y.y.y.y.y.y.r.y.y.y.y.1.% x I I I I L N I V v v x x x x x x x l ~ aXhXhXhXhXgXsXsXsXsXsXsXsXsXsX",
"sXsXsXsXsXsXsXsXsXsXsXdXeXQ >.y.y.y.y.y.y.y.y.y.y.y.w.w < b c x l l z z x c A J V P P L L V V B 4 4XgXhXhXhXgXsXsXsXsXsXsXsXsXsX",
"sXsXsXsXsXsXsXsXsXsXsXsX=X8 q.r.r.y.y.y.y.y.y.y.y.y.;.  X < B E T N.B.B.Z.Z.Z.A.A.A.A.A.A.A.A.G.C.E m.yXhXhXgXsXsXsXsXsXsXsXsXsX",
"sXsXsXsXsXsXsXsXsXsXsXuXQ #.0.0.q.r.y.y.r.y.y.y.y.0.7 X = 1 K K.T.Y.G.A.Z.A.A.A.A.A.S.S.G.G.L.L.U.I.J.] 6XgXhXsXsXsXsXsXsXsXsXsX",
"sXsXsXsXsXsXsXsXsXsXsX7Xd :.9.9.0.r.y.y.y.y.y.r.q.#.# + H v.F z U K.T.Y.G.S.S.G.L.L.I.I.L.K.D.D.F.P.I.C.A 3XgXdXsXsXsXsXsXsXsXsX",
"sXsXsXsXsXsXsXsXsXsXfX>X9 9.9.9.9.q.r.r.r.w.q.0.8.7 + = k.oX.Xk.F z P V.Y.T.I.Y.U.D.T K B A G S C ' R R m } dXdXsXsXsXsXsXsXsXsX",
"sXsXsXsXsXsXsXsXsXsXsX>Xq 9.9.9.9.9.0.0.0.9.9.9.;.@ = f {.oXoXOX.Xl.Z & l P Y J n C H f.c.x.F F | eXiXwX4XeXgXdXsXsXsXsXsXsXsXsX",
"fXfXfXfXsXfXfXfXfXgXgX>Xq 9.1.1.9.9.9.9.9.9.9.9.+.o + H oXoXoXoXXXoXz.g , +     g z.XXXXl.g f H b.iXhXhXhXhXgXdXfXfXfXfXfXfXfXfX",
"hXhXhXhXhXhXhXhXhXhXhX6Xq 7.;.;.9.9.9.9.9.9.9.9.e X - c.+XoXoXoXoXXXXXXXx.n.S Z a i.XXXXH Q j.v.n.uXfXsXdXsXgXhXhXhXhXhXhXhXhXhX",
"hXhXhXhXhXhXhXhXhXhXhXiXh #.,.@.8.9.9.9.9.9.9.8.7 X F XXOXOXoXoXoXoXoX.X[ ,XQ f.[.{.oXoXz...) s._.aXfXsXsXsXgXhXhXhXhXhXhXhXhXhX",
"hXhXhXhXhXhXhXhXhXhXhXhX,X0 e 8 1.9.9.9.9.9.9.8.8 , c.$X%X&X%X$XoXoXoXXXg X X k.+XoXoXXXc.+ - d.,XsXsXsXsXsXgXhXhXhXhXhXhXhXhXhX",
"hXhXhXhXhXhXhXhXhXhXhXhXsX6X=Xh -.9.9.9.9.9.9.9.p ( .X%X0X0X0X0X*X$XoXoXp.# g {.oXOX#X{.{.H p.[ 4XsXsXsXsXsXgXhXhXhXhXhXhXhXhXhX",
"hXhXhXhXhXhXhXhXhXhXhXhXhXdXdX3Xq 1.9.9.9.9.9.9.#.F .X$X0X0X0X0X0X0X*X$X.X[..X+X$X&X*X).f. X*Xx.4XsXsXsXsXsXgXhXhXhXhXhXhXhXhXhX",
"hXhXhXhXhXhXhXhXhXhXhXhXgXsXsXuXQ r 8.9.9.9.9.9.,.s {.+X&X0X0X0X0X0X0X0X9X*X9X9X0X0X*X@Xd.f.0Xj.5XdXsXsXsXsXgXhXhXhXhXhXhXhXhXhX",
"hXhXhXhXhXhXhXhXhXhXhXhXgXgXsXsX8Xh e :.9.9.9.9.8.u p.XX#X*X0X0X0X0X0X0X}.}.9X0X0X0X%X[.f. X0Xh.wXsXsXsXsXsXgXhXhXhXhXhXhXhXhXhX",
"hXhXhXhXhXhXhXhXhXhXhXhXgXsXsXsXsX8X~ 0 #.8.9.9.9.;.s v.+X%X0X0X0X0X0X0X}.d.x.|.@X@X*X&X&X0X X| uXdXsXsXsXsXgXhXhXhXhXhXhXhXhXhX",
"hXhXhXhXhXhXhXhXhXhXhXhXgXsXsXsXfXsXuX>XQ q @.<.9.9.#.d s.{.$X*X0X0X0X0X0X@X].x.(. X*X0X0X&Xg.2XsXsXsXsXsXsXgXhXhXhXhXhXhXhXhXhX",
"hXhXhXhXhXhXhXhXhXhXhXhXhXgXsXsXsXsXsXsXrX>X^ q r ;.1.+.@ f i.x. X9X0X0X0X0X0X0X0X0X0X*X}.h.:XpXsXsXsXsXsXsXgXhXhXhXhXhXhXhXhXhX",
"gXgXgXgXgXgXgXgXgXgXgXgXgXgXgXgXgXgXgXgXgXgXaXwX=XQ 7 r e 0 f f a k _ h.'.}.}.}.}.'.`.j.-XqXfXgXgXgXgXgXgXgXgXgXgXgXgXgXgXgXgXgX",
"gXsXdXsXgXsXsXsXdXsXgXsXgXhXhXhXhXhXhXhXhXhXhXhXuX| 9 t r 8 @ @ 7 d ^ =X<X<X<X:X2X6XwXpXgXhXhXhXhXhXhXhXhXhXhXsXsXgXsXsXgXsXsXgX",
"sXsXsXsXsXsXsXsXsXsXsXsXgXhXhXhXhXhXhXhXhXhXdX5Xa.-.8.9.7.:.,.;.y -XiXsXdXsXsXsXdXgXhXhXhXhXhXhXhXhXhXhXhXhXgXsXsXsXsXsXsXsXsXsX",
"sXsXsXsXsXsXsXsXsXsXsXsXgXhXhXhXhXhXhXhXhXuXM.2.:.9.9.9.$.,.9.9.,.b.aXfXsXsXsXsXgXgXhXhXhXhXhXhXhXhXhXhXhXhXhXsXsXsXsXsXsXsXsXsX",
"sXsXsXsXsXsXsXsXsXsXsXsXgXhXhXhXhXhXhXhXeXa.;.9.0.9.9.$.t 1.0.0.7.( uXsXsXsXsXsXsXgXhXhXhXhXhXhXhXhXhXhXhXhXhXsXsXsXsXsXsXsXsXsX",
"sXsXsXsXsXsXsXsXsXsXsXsXgXhXhXhXhXhXhXtX( ,.9.9.9.9.$.r <.9.9.9.9.5.wXsXsXsXsXsXgXgXhXhXhXhXhXhXhXhXhXhXhXhXgXsXsXsXsXsXsXsXsXsX",
"sXsXsXsXsXsXsXsXsXsXsXsXgXhXhXhXhXhXgX-X-.9.9.9.9.$.e <.9.9.9.9.9.3.7XsXsXsXsXsXsXgXhXhXhXhXhXhXhXhXhXhXhXhXgXsXsXsXsXsXsXsXsXsX",
"sXsXsXsXsXsXsXsXsXsXsXsXgXhXhXhXhXhXiXa.:.9.9.9.,.t ,.9.9.9.9.9.9.=.2XdXsXsXsXsXgXgXhXhXhXhXhXhXhXhXhXhXhXhXhXsXsXsXsXsXsXsXsXsX",
"sXsXsXsXsXsXsXsXsXsXsXsXgXhXhXhXhXhXyXk 8.9.9.9.;.t 8.9.9.,.$.;.&.p >XdXpXtXrXuXaXgXhXhXhXhXhXhXhXhXhXhXhXhXgXsXsXsXsXsXsXsXsXsX",
"sXsXsXsXsXsXsXsXsXsXsXsXgXhXhXhXhXhXaX( :.9.9.9.1.r ;.9.8.+.,.<.<.%./ -Xn.j.j.n.4XgXhXhXhXhXhXhXhXhXhXhXhXhXhXsXsXsXsXsXsXsXsXsX",
"sXsXdXdXdXsXsXsXsXsXsXsXgXhXhXhXhXhXgX-X&.9.9.9.9.t e 8.&.&.9.9.9.$.e 9 z.{.).l.) 3XgXhXhXhXhXhXhXhXhXhXhXhXhXsXsXdXsXgXsXsXsXsX",
"gXhXgXhXgXhXgXhXhXhXgXhXgXgXgXgXgXgXgX4Xq ,.0.8.@.e 8 i w +.&.&.*.8 +.i [.f.H i.s.| pXgXdXgXdXdXgXgXsXgXgXgXgXgXgXhXhXgXgXhXhXgX",
"hXhXhXhXhXhXhXhXhXhXhXhXgXsXsXsXsXsXsXeXW % t r +.%.j ].x.Z l V c % +.j [.H s.c.k.:XaXsXsXsXsXsXsXsXsXsXsXsXgXhXhXhXhXhXhXhXhXhX",
"hXhXhXhXhXhXhXhXhXhXhXhXgXsXsXsXsXsXsXsX1X3 $ u *.u. X0X0X).A N.m | ` H s.p.XX{.g.qXsXsXsXsXsXsXsXsXsXsXsXsXgXhXhXhXhXhXhXhXhXhX",
"hXhXhXhXhXhXhXhXhXhXhXhXhXsXsXsXsXsXsXsXaX1Xn C ].&X0X0X0X}.f l n =XrX3X| d.c.h.wXsXsXsXsXsXsXsXsXsXsXsXsXsXgXhXhXhXhXhXhXhXhXhX",
"hXhXhXhXhXhXhXhXhXhXhXhXgXsXsXsXsXsXsXsXsXuX] C  X0X0X0X&X}.C x N m H.aXsXqX4XrXhXgXsXsXsXsXsXsXsXsXsXsXsXsXgXhXhXhXhXhXhXhXhXhX",
"hXhXhXhXhXhXhXhXhXhXhXhXgXsXsXsXsXsXsXsXsXsX;Xm G  X X}.j.-X] x I I m ;XgXhXhXhXhXgXsXsXsXsXsXsXsXsXsXsXsXsXgXhXhXhXhXhXhXhXhXhX",
"hXhXhXhXhXhXhXhXhXhXhXhXhXsXsXsXsXsXsXsXsXsX;XU I K A ^ 8XgXwXD N I L n wXhXhXhXhXdXsXsXsXsXsXsXsXsXsXsXsXsXgXhXhXhXhXhXhXhXhXhX",
"hXhXhXhXhXhXhXhXhXhXhXhXgXsXsXsXsXsXsXsXsXyX} N.A.A.Y X.gXhXsXX.N I I N X.sXhXhXhXgXsXsXsXsXsXsXsXsXsXsXsXsXgXhXhXhXhXhXhXhXhXhX",
"hXhXhXhXhXhXhXhXhXhXhXhXhXsXsXdXsXsXsXsXaX=XP Z.A.A.T X.gXhXsXo.J I I P D tXhXhXhXgXsXsXsXsXsXsXsXsXsXsXsXsXgXhXhXhXhXhXhXhXhXhX",
"hXhXhXhXhXhXhXhXhXhXhXhXgXgXsXsXsXsXsXsX3XR B.A.A.A.U _.hXhXpX] N I I I m 8XhXhXhXgXgXsXsXsXsXsXsXsXsXsXsXsXgXhXhXhXhXhXhXhXhXhX",
"gXhXhXgXgXhXhXgXhXgXhXhXgXgXgXgXsXgXgXtX] B.A.A.A.A.L 3XhXhXtXD N I I I m 7XhXhXgXgXsXgXgXgXsXgXdXsXsXgXsXgXgXhXhXgXhXgXhXgXgXhX",
"gXsXsXgXgXsXsXgXsXsXsXsXgXhXgXhXhXhXhXuX! v T B.B.T ~ uXgXsXyX~ < l l l ~ tXgXsXgXgXhXhXhXhXhXhXhXhXhXhXhXhXgXdXsXsXsXgXsXdXgXsX",
"sXsXsXsXsXsXsXsXsXsXsXsXgXhXhXhXhXhXhX8X5 * ; < 3 ] 7XgXsXsXiX .O * . . ^ 8XiXdXsXgXhXhXhXhXhXhXhXhXhXhXhXhXgXgXsXsXsXsXsXsXsXsX",
"sXsXsXsXsXsXsXsXsXsXsXsXgXhXhXhXhXhXuX^ : : = + = O.pXhXfXfXeXM & + * * * 2 ] 8XfXgXhXhXhXhXhXhXhXhXhXhXhXhXgXsXsXsXsXsXsXsXsXsX",
"sXsXsXsXsXsXsXsXsXsXsXsXgXhXhXhXhXgX_.: 3 3 3 3 2 2 { uXfXfX3X2 * = = = > * * W eXgXhXhXhXhXhXhXhXhXhXhXhXhXhXsXsXsXsXsXsXsXsXsX",
"sXsXsXsXsXsXsXsXsXsXsXsXgXhXhXhXhXaXM + ; > > : 2 : + _.sXsX=X. * + O O O + X O >XgXhXhXhXhXhXhXhXhXhXhXhXhXhXsXsXsXsXsXsXsXsXsX",
"sXsXsXsXsXsXsXsXsXsXsXsXgXhXhXhXhXaX .C 5 4 4 4 4 5 5 _.aXsX8XO. .] { { { {  .O.8XgXhXhXhXhXhXhXhXhXhXhXhXhXgXsXsXsXsXsXsXsXsXsX",
"sXsXsXsXsXsXsXsXsXsXsXsXgXhXhXhXhXhXgXuXtXeXeXeXeXrXuXfXsXsXsXaXaXiXiXiXiXiXiXfXsXgXhXhXhXhXhXhXhXhXhXhXhXhXgXsXsXsXsXsXsXsXsXsX",
"sXsXsXsXsXsXsXsXsXsXsXsXgXhXhXhXhXhXhXhXhXhXhXhXhXhXhXhXfXsXsXsXfXfXfXsXfXfXfXfXgXgXhXhXhXhXhXhXhXhXhXhXhXhXhXsXsXsXsXsXsXsXsXsX",
"sXsXsXsXsXsXsXsXsXsXsXsXgXhXhXhXhXhXhXhXhXhXhXhXhXhXhXhXsXsXsXsXfXsXsXsXsXsXsXsXsXgXhXhXhXhXhXhXhXhXhXhXhXhXgXsXsXsXsXsXsXsXsXsX",
"sXsXsXsXsXsXsXsXsXsXsXsXgXhXhXhXhXhXhXhXhXhXhXhXhXhXhXhXfXsXsXsXsXsXsXsXsXsXsXsXgXgXhXhXhXhXhXhXhXhXhXhXhXhXgXsXsXsXsXsXsXsXsXsX"
};
