/* XPM */
static char *__resized[] = {
/* columns rows colors chars-per-pixel */
"64 64 218 2 ",
"   c #0F0A05",
".  c #16150C",
"X  c #1D1710",
"o  c #1A1C12",
"O  c #290807",
"+  c #360B08",
"@  c #36190C",
"#  c #2F1D12",
"$  c #18260D",
"%  c #1E2215",
"&  c #1E2019",
"*  c #28250E",
"=  c #212417",
"-  c #22241B",
";  c #28271B",
":  c #382618",
">  c #263715",
",  c #383111",
"<  c #252721",
"1  c #2D2E22",
"2  c #333324",
"3  c #3B3C37",
"4  c #470A09",
"5  c #580909",
"6  c #5A0909",
"7  c #49130B",
"8  c #4A1614",
"9  c #571C18",
"0  c #630A0A",
"q  c #6C0A0A",
"w  c #730B0B",
"e  c #7C0C0C",
"r  c #70120F",
"t  c #631410",
"y  c #781716",
"u  c #4C2F1A",
"i  c #4D2A29",
"p  c #483824",
"a  c #553926",
"s  c #563B39",
"d  c #692B2A",
"f  c #7B2B27",
"g  c #703831",
"h  c #2D4418",
"j  c #304B17",
"k  c #324E1B",
"l  c #34531B",
"z  c #3B541D",
"x  c #3B5C1E",
"c  c #3C621F",
"v  c #394D24",
"b  c #3C5C21",
"n  c #3D5228",
"m  c #3F6620",
"M  c #474B1D",
"N  c #41671F",
"B  c #464924",
"V  c #5B472D",
"C  c #465A23",
"Z  c #535928",
"A  c #45473A",
"S  c #554C39",
"D  c #694E31",
"F  c #6D4D35",
"G  c #695333",
"H  c #785539",
"J  c #486724",
"K  c #436C21",
"L  c #506A2C",
"P  c #467323",
"I  c #4A7224",
"U  c #4F7A27",
"Y  c #517A25",
"T  c #577D26",
"R  c #777B28",
"E  c #4B4945",
"W  c #585148",
"Q  c #5C5756",
"!  c #775648",
"~  c #705353",
"^  c #576549",
"/  c #5A6153",
"(  c #716742",
")  c #68685C",
"_  c #7B6655",
"`  c #686A64",
"'  c #756966",
"]  c #6D7268",
"[  c #78716A",
"{  c #797976",
"}  c #830C0C",
"|  c #8A0D0D",
" . c #930E0E",
".. c #9B0E0E",
"X. c #8B1817",
"o. c #971818",
"O. c #A30F0F",
"+. c #AA0F0F",
"@. c #B20F0F",
"#. c #A41111",
"$. c #AD1111",
"%. c #B31111",
"&. c #BC1212",
"*. c #852E27",
"=. c #873636",
"-. c #C41313",
";. c #CC1414",
":. c #D21414",
">. c #DB1515",
",. c #E51717",
"<. c #E91616",
"1. c #EC1818",
"2. c #F11717",
"3. c #F21919",
"4. c #825A3D",
"5. c #864949",
"6. c #905E41",
"7. c #865352",
"8. c #896243",
"9. c #926444",
"0. c #986B4A",
"q. c #8C6F54",
"w. c #916D52",
"e. c #9A7455",
"r. c #A16E4A",
"t. c #A8724D",
"y. c #AB7853",
"u. c #B47B53",
"i. c #B97E55",
"p. c #866665",
"a. c #867566",
"s. c #947B67",
"d. c #917C7C",
"f. c #588629",
"g. c #5E932D",
"h. c #698827",
"j. c #64992F",
"k. c #67992E",
"l. c #77962A",
"z. c #739D2E",
"x. c #7DA32F",
"c. c #7E8279",
"v. c #889C2A",
"b. c #88A72F",
"n. c #96AA2D",
"m. c #8FAC30",
"M. c #98B030",
"N. c #A8B12E",
"B. c #AFB42E",
"V. c #C3BE2F",
"C. c #CBC12F",
"Z. c #D1C42F",
"A. c #D5C830",
"S. c #E1CF32",
"D. c #EAD331",
"F. c #F2D631",
"G. c #FDDD33",
"H. c #AD815B",
"J. c #B98359",
"K. c #8D8479",
"L. c #948378",
"P. c #AA8560",
"I. c #B78B62",
"U. c #C28459",
"Y. c #CA895C",
"T. c #D18E5F",
"R. c #D38F60",
"E. c #C8986C",
"W. c #D79565",
"Q. c #DE9564",
"!. c #E09765",
"~. c #E29866",
"^. c #E29D6A",
"/. c #D9A575",
"(. c #E4A16F",
"). c #E5A572",
"_. c #E5AC79",
"`. c #EAAD79",
"'. c #E7B27F",
"]. c #ECB27E",
"[. c #888885",
"{. c #988B89",
"}. c #99928E",
"|. c #999692",
" X c #9B9B9A",
".X c #A59999",
"XX c #A1A09E",
"oX c #A4A4A3",
"OX c #ABA6A4",
"+X c #A7A8A7",
"@X c #ACADAC",
"#X c #B4AFAF",
"$X c #B3B0AF",
"%X c #B3B3B3",
"&X c #BBB8B6",
"*X c #BCBCBC",
"=X c #EDB581",
"-X c #EFB883",
";X c #F1B681",
":X c #F2BA85",
">X c #C0BEBE",
",X c #BFC0BF",
"<X c #C4C4C4",
"1X c #C7C7C7",
"2X c #CCCDCD",
"3X c #D0CFCF",
"4X c #D3D3D3",
"5X c #D6D8D8",
"6X c #DCDCDC",
"7X c #DFE0DF",
"8X c #DFE0E0",
"9X c #E4E4E4",
"0X c #E7E8E9",
"qX c #EDEDED",
"wX c #EFF0F0",
"eX c #F4F4F4",
"rX c #F7F8F8",
"tX c #FEFEFE",
/* pixels */
"qXqXqXqXqXqXqXqXqXqXtXtXtXtXtXtXtXtXtXtXtXtXtXtXeXqXqXqXqXqXqXeXqXqXqXqXqXeXeXtXtXtXtXtXtXtXtXtXtXtXtXtXtXtXtXeXqXqXqXqXqXqXqXqX",
"eXeXeXeXeXeXeXrXeXeXrXeXrXrXrXrXrXrXrXrXrXrXeXrXrXeXeXeXeXeXeXeXeXeXeXeXeXeXeXeXrXrXrXrXrXrXrXrXrXrXrXrXeXrXrXeXrXeXeXeXeXrXeXeX",
"tXtXtXtXtXtXtXtXtXtXeXqXqXqXqXqXqXqXqXqXqXqXqXqXrXtXtXtXtXtXtXtXtXtXtXtXtXtXtXqXqXqXqXqXqXqXqXqXqXqXqXqXqXqXqXrXtXtXtXtXtXtXtXtX",
"tXtXtXtXtXtXtXtXtXtXqXqXqXqXqXqXqXqXqXqXqXqXqXqXrXtXtXtXtXtXtXtXtXtXtXtXtXtXtXwXqXwXqXqXqXqXqXqXqXqXqXqXqXqXqXrXtXtXtXtXtXtXtXtX",
"tXtXtXtXtXtXtXtXtXtXwXqXqXqXqXqXqXqXqXqXqXqXqXqXrXtXtXtXtXtXtXtXtXtXtXeXqX8X5X2X2X9XqXwXqXqXqXqXqXqXqXqXqXqXqXrXtXtXtXtXtXtXtXtX",
"tXtXtXtXtXtXtXtXtXtXwXqXqXqXqXqXqXqXqXqXqXqXqXqXrXtXtXtXtXwX6X<XOX{.p.7.5.=.=.=.=.5.{.3XqXqXqXqXqXqXqXqXqXqXqXrXtXtXtXtXtXtXtXtX",
"tXtXtXtXtXtXtXtXtXtXwXqXqXqXqXqXqXqXqXqXqXqXqXwXrXeX5X$Xd.7.=.X.#.&.;.>.<.3.<.;...e y =.|.6XqXqXqXqXqXqXqXqXqXrXtXtXtXtXtXtXtXtX",
"tXtXtXtXtXtXtXtXtXtXwXqXqXqXqXqXqXqXqXqXqXwX9X2X.X_ g o.&.>.,.1.3.3.3.3.2.-.w + .   O 6 y p.1XqXqXqXqXqXqXqXqXrXtXtXtXtXtXtXtXtX",
"tXtXtXtXtXtXtXtXtXtXwXqXqXqXqXqXqXqXqXqX9X%X[ d o.-.1.3.3.3.3.3.3.3.3.:.} , j N N z > $ + 0 g $XqXqXqXqXqXqXqXrXtXtXtXtXtXtXtXtX",
"tXtXtXtXtXtXtXtXtXtXwXqXqXqXqXqXqXwXqX*X' d $.,.3.3.3.3.3.3.3.3.3.3.%.7 > c h.B.V.N.h.c h * 4 g #XqXqXqXqXqXqXrXtXtXtXtXtXtXtXtX",
"tXtXtXtXtXtXtXtXtXtXqXqXqXqXqXqXqX6X[.d #.,.3.3.3.3.3.3.3.3.1.3.1. .# l N I n.G.D.F.C.h.K c , + s >XqXqXqXqXqXeXtXtXtXtXtXtXtXtX",
"tXtXrXtXtXtXtXtXtXtXeXqXwXwXwXwX3X` y :.2.3.3.2.2.3.3.3.3.3.3.,.e * x P I Y B.G.A.S.G.V.f.P P h . Q 7XeXwXwXeXrXtXtXtXtXtXtXtXtX",
"qXwXwXwXqXwXwXqXwXwXrXtXtXtXtX2XQ | ,.3.3.3.1.3.3.2.3.3.3.3.,.w * c P P P f.A.G.D.Z.D.F.N.Y P P > < >XtXtXtXtXeXwXqXqXqXqXqXqXeX",
"qXqXqXqXqXqXqXqXqXqXtXtXtXtX4XW | ,.3.3.3.3.3.3.3.3.3.3.3.,.| * c P P P I h.F.G.N.Y v.F.F.v.P I K > [.tXtXtXtXeXqXqXqXqXqXqXqXqX",
"qXqXqXqXqXqXqXqXqXqXtXtXtX6X~ | 1.3.3.3.3.3.3.3.2.3.2.3.1. .* c P P P P P v.A.A.l.P f.n.B.n.Y I P x A 4XtXtXtXeXqXqXqXqXqXqXqXqX",
"qXqXqXqXqXqXqXqXqXwXtXtXwX{ y ,.3.3.1.3.3.3.3.3.3.3.3.3.$.O l P P P P K K K J N x l j j j j j j l x - |.tXtXtXeXqXqXqXqXqXqXqXqX",
"qXqXqXqXqXqXqXqXqXqXtXtX%X9 -.3.3.3.3.3.3.3.3.3.3.3.3.>.4 > c x z h h h j k v b x N K I K I I K m Z j / 4XrXtXeXqXqXqXqXqXqXqXqX",
"qXqXqXqXqXqXqXqXqXwXtXwXQ e ,.1.1.3.3.3.3.3.3.3.3.3.1.e   . * C R h.f.f.g.j.j.j.k.j.k.j.k.j.k.j.j.z.v.R ( |.9XeXqXqXqXqXqXqXqXqX",
"qXqXqXqXqXqXqXqXqXqXtX%X8 @.:.:.>.1.3.3.3.3.3.3.3.3.%.O $ ; 2 C h.M.N.b.k.k.g.j.j.j.j.k.k.z.x.x.b.b.b.M.n.R ) @XqXqXqXqXqXqXqXqX",
"qXqXqXqXqXqXqXqXqXwXrX[.t -.;.;.:.,.3.3.3.3.3.1.,.:.6 o & H Y.H p C h.b.M.m.b.z.x.x.b.m.M.M.b.l.l.h.l.l.v.n.h.n  XqXqXqXqXqXqXqX",
"qXqXqXqXqXqXqXqXqXwXqX` } ;.;.;.;.>.1.1.,.,.>.:.:...O - ; u.~.Q.J.4.B z T l.n.m.b.m.l.h.J C Z Z G Z V E ] ^ L b ` 0XqXqXqXqXqXqX",
"qXqXqXqXqXqXqXqXqXwX9XQ  .:.-.;.;.;.;.;.:.;.;.:.;.w o = V R.~.Q.!.Q.Y.9.: $ h z x z B V 8.t.U.u.H p 8.}.eXqX2X,X4XqXqXqXqXqXqXqX",
"rXrXrXrXrXrXeXrXrXrX0XQ } ;.$.&.;.;.-.;.;.;.;.;.-.4 o X 0.!.Q.~.!.!.~.R.9.V a : . X V r.!.!.t.a p H 9.|.eXeXrXrXrXrXrXrXrXrXeXeX",
"tXtXtXtXtXtXtXtXtXtXqX{ 5 ;...#.;.;.;.;.;.;.;.;.&.O . p T.!.~.Q.!.!.!.~.!.Q.T.Y.u.4.a 4.Q.!.r.9.Y.Q.w.OXqXqXqXrXtXtXtXtXtXtXtXtX",
"tXtXtXtXtXtXtXtXtXtXeX%X: ..#.} ;.;.;.;.;.;.;.;.$.O X w.Q.(.(.~.!.!.!.!.Q.R.Q.!.~.~.T.T.!.!.Q.~.~.Q._ <XwXqXqXrXtXtXtXtXtXtXtXtX",
"tXtXtXtXtXtXtXtXtXtXeX9X{ 9 t 4 %.;.;.;.;.;.;.;.@.+ F T.`.-X].].`.^.^.~.R.6.0.i.U.J.Q.!.!.W.R.J.u.0._ 5XqXqXqXrXtXtXtXtXtXtXtXtX",
"tXtXtXtXtXtXtXtXtXtXqXqX0X1X@XQ } ;.;.;.;.;.;.;.-.8 r.~.`.:X:X:X:X:X`.).~.i.F V G y.Q.(.`.J.J.e.6.9.) 7XwXqXqXrXtXtXtXtXtXtXtXtX",
"tXtXtXtXtXtXtXtXtXtXqXqXqXwXwX%Xi $.;.;.;.;.;.;.-.r 6.Q.).:X:X:X:X:X:X:X].`.).Q.Q.).`.].:XE.8.e._.E._ 6XqXqXwXrXtXtXtXtXtXtXtXtX",
"tXtXtXtXtXtXtXtXtXtXqXqXqXqXqX6X[ 8 O.;.;.;.;.;.;...d U.(.].:X:X:X:X:X:X:X;X_.=X:X:X:X:X].).0.! '.E.{ 7XwXqXqXrXtXtXtXtXtXtXtXtX",
"tXtXtXtXtXtXtXtXtXtXeXqXqXqXqXqX3X' 8 } &.;.;.;.:.&.t 6.~.(.].:X:X:X:X:X:X/.w.I.'.:X:X:X`.W.y./.:Xu.{.0XqXqXqXrXtXtXtXtXtXtXtXtX",
"tXtXtXtXtXtXtXtXtXtXeXqXqXqXqXqXqX8X XE 8 } &.;.;.;.O.9 r.R.(.].:X:X:X:X:X;XE.w.e.H.H.E.].=X-X:X_._ %XwXqXqXqXrXtXtXtXtXtXtXtXtX",
"tXtXtXtXtXtXtXtXtXtXqXqXqXqXqXqXqXqXqX5X XQ 9 q ..-.;.O.7 a 9.Y.).:X:X:X:X:X:X;X/.E.E./.:X:X;X/.q.}.0XqXqXqXqXrXtXtXtXtXtXtXtXtX",
"tXrXrXrXtXrXrXrXrXrXeXeXeXeXeXeXwXeXeXeXeX9X*X[.W 9 e ....5 8 V F 8.P.E./.=X=X=X].=X=X`.).E.H.[ XX0XeXwXeXeXeXeXrXtXrXtXrXtXrXtX",
"qXqXwXqXqXwXqXqXqXeXrXtXrXtXtXtXtXtXtXtXtXtXtXtXqX@XE O 5 6 4 : : + 7 8 S _ a.s.s.s.L.L.L..X&X0XtXtXtXtXtXtXtXeXqXqXqXqXqXqXqXqX",
"qXqXqXqXqXqXqXqXqXwXtXtXtXtXtXtXtXtXtXtXtXtXtXqX#Xp.y o.$.#.| w 0 6 E  X&X3X5X7X6X6X9X0XeXtXtXtXtXtXtXtXtXtXtXeXqXqXqXqXqXqXqXqX",
"qXqXqXqXqXqXqXqXqXwXtXtXtXtXtXtXtXtXtXtXtX9X.X5.o.&.;.;.;.&.&.-.-.$.5.5XwXqXeXtXtXtXtXtXtXtXtXtXtXtXtXtXtXtXtXeXqXqXqXqXqXqXqXqX",
"qXqXqXqXqXqXqXqXqXwXtXtXtXtXtXtXtXtXtXeX#X5.o.&.;.;.;.;.$.| $.;.;.;.*.&XwXqXwXtXtXtXtXtXtXtXtXtXtXtXtXtXtXtXtXeXqXqXqXqXqXqXqXqX",
"qXqXqXqXqXqXqXqXqXwXtXtXtXtXtXtXtXtXrX.Xf @.;.;.;.;.;...w #.-.;.;.;.X..XqXqXeXtXtXtXtXtXtXtXtXtXtXtXtXtXtXtXtXeXqXqXqXqXqXqXqXqX",
"qXqXqXqXqXqXqXqXqXqXtXtXtXtXtXtXtXtX<Xf &.;.;.;.;.@.e e &.;.;.;.;.;.o.d.0XqXwXtXtXtXtXtXtXtXtXtXtXtXtXtXtXtXtXeXqXqXqXqXqXqXqXqX",
"qXqXqXqXqXqXqXqXqXqXtXtXtXtXtXtXtXtXd. .;.;.;.;.$.q ..-.;.;.;.-.;.;.$.p.9XqXeXtXtXtXtXtXtXtXtXtXtXtXtXtXtXtXtXeXqXqXqXqXqXqXqXqX",
"qXqXqXqXqXqXqXqXqXwXtXtXtXtXtXtXtXeXp.O.:.;.;.;.e | -.;.;.;.&.%.@.$. .~ 6XqXeXtXtXtXtXtXtXtXtXtXtXtXtXtXtXtXtXeXqXqXqXqXqXqXqXqX",
"qXqXqXqXqXqXqXqXqXqXtXtXtXtXtXtXtXrXp...;.;.;.:...q -.;.:.-.| ..#...| ~ 4X6X5X6XqXtXtXtXtXtXtXtXtXtXtXtXtXtXtXeXqXqXqXqXqXqXqXqX",
"qXqXqXqXqXqXqXqXqXwXrXtXtXtXtXtXtXtXOXy -.;.;.;.+.6 $.;.;.#.| -.;.;.&.d [ s.e.e.s.#XrXtXtXtXtXtXtXtXtXtXtXtXtXeXqXqXwXqXqXwXqXqX",
"rXtXrXtXtXrXtXrXtXrXeXeXeXwXwXeXeXeX5X~ ..-.$.| q 0 e $. .q O.&.@.+.| 4 a Y.J.U.r.S |.9XwXeXwXwXeXeXqXeXeXeXeXrXrXrXtXrXtXrXrXtX",
"tXtXtXtXtXtXtXtXtXtXwXqXqXqXqX0XqXqXqX*Xs 5 q }  .f 0.9.u , u u p M , 6 g Y.H H F 0._ <XqXqXqXqXqXqXqXqXqXqXqXrXtXtXtXtXtXtXtXtX",
"tXtXtXtXtXtXtXtXtXtXwXqXqXqXqXqXqXqXqXqXoXi y *.9.E.:X-Xy.J f.g.h.I @ t 9.u.F r.u.t.{.9XqXqXqXqXqXqXqXqXqXqXqXrXtXtXtXtXtXtXtXtX",
"tXtXtXtXtXtXtXtXtXtXwXqXqXqXqXqXqXqXqXqXqXK.r._.-X:X:X-XH.B f.f.K > = s 0.D t.Q.i.p.&XqXqXqXqXqXqXqXqXqXqXqXqXrXtXtXtXtXtXtXtXtX",
"tXtXtXtXtXtXtXtXtXtXwXqXqXqXqXqXqXqXqXqXeXXXw.-X:X:X:X-XI.S ^ > k m x A [ [ w.y.a.1X0XqXqXqXqXqXqXqXqXqXqXqXqXrXtXtXtXtXtXtXtXtX",
"tXtXtXtXtXtXtXtXtXtXqXqXqXqXqXqXqXqXqXqXqX3X[ H.E.E.I._ a.OX5X] x P P c ^ ,X3X,X5XeXqXqXqXqXqXqXqXqXqXqXqXqXqXrXtXtXtXtXtXtXtXtX",
"tXtXtXtXtXtXtXtXtXtXeXqXqXqXqXqXqXqXqXqXqXqX%XA C J J v  XrXtX4X^ c P P x ` 9XwXqXqXqXqXqXqXqXqXqXqXqXqXqXqXqXrXtXtXtXtXtXtXtXtX",
"tXtXtXtXtXtXtXtXtXtXeXqXqXqXqXqXqXqXqXqXqX0X.XJ g.j.k.U [.tXtXeX[.b P P P v oXqXqXqXqXqXqXqXqXqXqXqXqXqXqXqXwXrXtXtXtXtXtXtXtXtX",
"tXtXtXtXtXtXtXtXtXtXqXqXqXqXqXqXqXqXqXqXqX%X^ f.j.j.k.U c.tXtXeX[.b P P P c ] 8XqXqXqXqXqXqXqXqXqXqXqXqXqXqXqXrXtXtXtXtXtXtXtXtX",
"tXtXtXtXtXtXtXtXtXtXeXqXqXqXqXqXqXqXqXqX<X/ U k.j.j.j.J  XtXtXqX` c m P P m / 4XqXqXqXqXqXqXqXqXqXqXqXqXqXqXqXrXtXtXtXtXtXtXtXtX",
"rXrXrXrXrXrXrXrXrXeXeXeXeXeXeXeXeXeXeXqX{ I j.k.j.j.g.n 2XrXrX7XQ l P P m c / 6XeXrXeXeXeXeXeXeXeXeXeXeXeXeXeXrXrXrXrXrXrXrXrXrX",
"qXqXqXqXqXqXqXqXqXwXtXtXtXtXtXtXtXtXtXeX] > x I U I b ] 9XqXqX9X{ $ > > > < oXtXtXtXtXtXtXtXtXtXtXtXtXtXtXtXtXeXqXqXqXqXqXqXqXqX",
"qXqXqXqXqXqXqXqXqXwXtXtXtXtXtXtXtXtXtX,Xn - % $ % 2 |.5XqXqXqX9X{ o $ .   o ) oX6XtXtXtXtXtXtXtXtXtXtXtXtXtXtXeXqXqXqXqXqXqXqXqX",
"qXqXqXqXqXqXqXqXqXwXtXtXtXtXtXtXtXtX5XE ; ; ; ; & 1 ` *XqXqXwX3XE o % % < % % % E %XrXtXtXtXtXtXtXtXtXtXtXtXtXeXqXqXqXqXqXqXqXqX",
"qXqXqXqXqXqXqXqXqXwXtXtXtXtXtXtXtXrX{ - 1 2 1 1 1 1 ; E <XqXqX+X& o & & $ & % % . 3 2XtXtXtXtXtXtXtXtXtXtXtXtXeXqXqXqXqXqXqXqXqX",
"qXqXqXqXqXqXqXqXqXwXtXtXtXtXtXtXtXqXA % % % = = & - & o { qXqX X1 < & & & % < & 1 3 @XtXtXtXtXtXtXtXtXtXtXtXtXeXqXqXqXqXqXqXqXqX",
"qXqXqXqXqXqXqXqXqXqXtXtXtXtXtXtXtXrX@X[.{ ` ] ` ` ) ] { $XqXqX6X*X@X+XoX+X+X+X%X*X1XqXtXtXtXtXtXtXtXtXtXtXtXtXeXqXqXqXqXqXqXqXqX",
"qXqXqXqXqXqXqXqXqXqXtXtXtXtXtXtXtXtXtXtXrXeXeXrXwX9X0X0XqXqXqXwXwXqXwXqXwXwXwXtXtXtXtXtXtXtXtXtXtXtXtXtXtXtXtXeXqXqXqXqXqXqXqXqX",
"qXqXqXqXqXqXqXqXqXqXtXtXtXtXtXtXtXtXtXtXtXtXtXtXeXwXqXwXqXqXqXqXqXqXqXqXqXqXwXtXtXtXtXtXtXtXtXtXtXtXtXtXtXtXtXeXqXqXqXqXqXqXqXqX",
"qXqXqXqXqXqXqXqXqXqXtXtXtXtXtXtXtXtXtXtXtXtXtXtXeXqXqXqXqXqXqXqXqXqXqXqXqXqXeXtXtXtXtXtXtXtXtXtXtXtXtXtXtXtXtXeXqXqXqXqXqXqXqXqX",
"qXqXqXqXqXqXqXqXqXeXtXtXtXtXtXtXtXtXtXtXtXtXtXtXeXqXwXqXqXqXqXqXqXqXqXqXwXqXwXtXtXtXtXtXtXtXtXtXtXtXtXtXtXtXtXeXqXqXqXqXqXqXqXqX"
};
