/* XPM */
static char *planet0_resized[] = {
/* columns rows colors chars-per-pixel */
"64 64 256 2 ",
"   c #020001",
".  c #00000D",
"X  c #0B0100",
"o  c #130200",
"O  c #1C0300",
"+  c #19040B",
"@  c #030213",
"#  c #090715",
"$  c #0A0917",
"%  c #030518",
"&  c #0C0B1A",
"*  c #05091A",
"=  c #150B16",
"-  c #12121E",
";  c #191318",
":  c #06101F",
">  c #230300",
",  c #2B0500",
"<  c #25080A",
"1  c #330500",
"2  c #3C0600",
"3  c #3B0805",
"4  c #2E1112",
"5  c #151522",
"6  c #1A1A24",
"7  c #1D1D29",
"8  c #0A1322",
"9  c #241E28",
"0  c #23232C",
"q  c #2A2A35",
"w  c #382E2E",
"e  c #1D2029",
"r  c #430800",
"t  c #4C0A01",
"y  c #460603",
"u  c #5A0400",
"i  c #540A00",
"p  c #5C0B00",
"a  c #550503",
"s  c #53140E",
"d  c #630C00",
"f  c #6A0D00",
"g  c #660500",
"h  c #730D00",
"j  c #7C0E00",
"k  c #750300",
"l  c #6B1304",
"z  c #7B1100",
"x  c #741503",
"c  c #661B10",
"v  c #73290F",
"b  c #433225",
"n  c #5C361F",
"m  c #665034",
"M  c #585859",
"N  c #323240",
"B  c #840500",
"V  c #870C00",
"C  c #950100",
"Z  c #960C00",
"A  c #831100",
"S  c #8C1200",
"D  c #821D03",
"F  c #941300",
"G  c #9C1400",
"H  c #9B1B01",
"J  c #A70C00",
"K  c #B70C00",
"L  c #A31400",
"P  c #AC1500",
"I  c #AB1A00",
"U  c #A31A00",
"Y  c #B41500",
"T  c #BB1600",
"R  c #B41A00",
"E  c #BB1B00",
"W  c #9A2604",
"Q  c #8E340E",
"!  c #AA2704",
"~  c #B92602",
"^  c #AE360B",
"/  c #CC1400",
"(  c #C41B00",
")  c #CC1C00",
"_  c #C21500",
"`  c #D31D00",
"'  c #DB1C00",
"]  c #D31600",
"[  c #C30D00",
"{  c #E81B00",
"}  c #C52300",
"|  c #CD2200",
" . c #CC2A01",
".. c #C52B03",
"X. c #D42300",
"o. c #DC2300",
"O. c #D32B01",
"+. c #DD2B01",
"@. c #C93905",
"#. c #D83703",
"$. c #D23E11",
"%. c #E32300",
"&. c #EB2400",
"*. c #E42B00",
"=. c #EC2C00",
"-. c #F32C00",
";. c #F92900",
":. c #E33301",
">. c #EC3300",
",. c #EB3C02",
"<. c #E33C03",
"1. c #F33400",
"2. c #FA3400",
"3. c #F43B01",
"4. c #FC3B00",
"5. c #B44D14",
"6. c #8C5C30",
"7. c #A56029",
"8. c #D94707",
"9. c #D05213",
"0. c #E94804",
"q. c #F44402",
"w. c #FC4401",
"e. c #F34B03",
"r. c #FD4B01",
"t. c #F6480B",
"y. c #E95609",
"u. c #FD5402",
"i. c #FE5B01",
"p. c #F75807",
"a. c #EE5712",
"s. c #FE6302",
"d. c #FE6C03",
"f. c #FE620B",
"g. c #FD6B0C",
"h. c #F46507",
"j. c #FE7403",
"k. c #FF7B03",
"l. c #FE720B",
"z. c #FE7A0C",
"x. c #F2700C",
"c. c #FB6914",
"v. c #FE7514",
"b. c #FE7C14",
"n. c #FD7C1B",
"m. c #F7761A",
"M. c #EB6813",
"N. c #CC742A",
"B. c #F87927",
"V. c #EC7129",
"C. c #DA5C21",
"Z. c #957541",
"A. c #DA7844",
"S. c #FE830B",
"D. c #FF8A0A",
"F. c #FF930D",
"G. c #FE8314",
"H. c #FF8C14",
"J. c #FE841A",
"K. c #FE8B1B",
"L. c #F78417",
"P. c #FF9314",
"I. c #FF971A",
"U. c #FEA21C",
"Y. c #FE8424",
"T. c #FE8B24",
"R. c #F9892B",
"E. c #FE9424",
"W. c #FF9A24",
"Q. c #FE942C",
"!. c #FE9B2C",
"~. c #F99938",
"^. c #F38837",
"/. c #FFA422",
"(. c #FFA42C",
"). c #FFAC2C",
"_. c #FFAA24",
"`. c #FEAC34",
"'. c #FEA638",
"]. c #FFB333",
"[. c #FFB53C",
"{. c #FFBA3C",
"}. c #FFB22C",
"|. c #DF8425",
" X c #FFC13A",
".X c #A08F5C",
"XX c #FF9943",
"oX c #FEAB43",
"OX c #FCA448",
"+X c #FEB444",
"@X c #FFBB43",
"#X c #FFBC4B",
"$X c #FFB44B",
"%X c #FEA955",
"&X c #FEB856",
"*X c #EAA853",
"=X c #FDB866",
"-X c #F8B270",
";X c #D09B58",
":X c #FFC246",
">X c #FFC44D",
",X c #FFC94B",
"<X c #FFC553",
"1X c #FFCB54",
"2X c #FFCC5B",
"3X c #FEC45B",
"4X c #FFD35C",
"5X c #FFD358",
"6X c #FEC966",
"7X c #FFD364",
"8X c #FFDB63",
"9X c #FED56B",
"0X c #FFD96C",
"qX c #FDC879",
"wX c #FFDC73",
"eX c #FEDC7A",
"rX c #FED478",
"tX c #E3CD7D",
"yX c #FFE375",
"uX c #FFE27B",
"iX c #FFEA79",
"pX c #FFE469",
"aX c #7E8880",
"sX c #FEBE89",
"dX c #FED987",
"fX c #FFDA96",
"gX c #FFC992",
"hX c #FFE583",
"jX c #FFEB8C",
"kX c #FEE789",
"lX c #FFF28B",
"zX c #FFED93",
"xX c #FFEC9C",
"cX c #FFE696",
"vX c #FFF293",
"bX c #FFF39C",
"nX c #FFFD96",
"mX c #FFE7A5",
"MX c #FFF3A3",
"NX c #FFF8A9",
"BX c #FFFCB4",
"VX c #FFFCBB",
"CX c #FFF5B8",
"ZX c #F8E6AF",
"AX c #D6D0A6",
"SX c #FFFDC3",
"DX c #FFFDCB",
"FX c #FFF4C1",
"GX c #FFFDD4",
"HX c #FEFEDB",
"JX c #FFFEE3",
"KX c #FFFEED",
"LX c #FFF6EA",
"PX c #FFFFF3",
"IX c #FFFFFE",
"UX c #DBD5C0",
/* pixels */
"$ % @ - 5 @ - 5 # $ . @ . # - 0 @ # 0 7 # * 8 0 < 3 y g ! } 9.*X-XAXUXAX.Xm s ; % % % @ @ @ % @ @ @ @ # 7 5 & & 5 - @ @ @ $ 5 7 ",
"@ 7 $ & $ $ 5 5 @ @ # @ @ % & # - % q 8 # + c s g ! A.^.'.&XfXfXsXcXCXgXJ.i.r.0.v y < @ % @ # # % @ @ . N M % % & $ @ @ @ @ 6 $ ",
"@ . @ & 6 @ $ & @ @ & - @ * * - 8 @ # s y 3 d D 5.%X%XQ.MXIXHXHXPXdX~.dXOX-XR.4.L p S S s @ @ # # % @ . q N @ @ - $ @ @ @ @ $ @ ",
"@ $ @ % # @ @ . @ @ @ # # # & @ & 3 G j d d k a.P.0.%.OXBXmXhX4X>X$X(.VXIXPXeXq.%.~ p 2 d A s # % # # @ . . @ . % 9 & * @ @ % & ",
"@ $ $ @ @ @ % # % @ @ @ # . @ n ! ( ( H P O.3.} ! u y. Xl.{.zXK.r.E ! #.qXJXCX<X>.1.3.g   > f S s % . @ @ @ @ @ . @ ; @ @ % @ # ",
"- & - % . @ @ @ @ # # % . q .Xf.!.b.4.( S ! @.d 2 f 8.0.%.g.).s.2.,.E o.w.&XbXbXqXK.d.#.z i   > R ! # . $ @ @ @ @ @ @ @ @ @ # @ ",
"@ @ @ @ % @ @ @ # - * . b R.g.(.<Xb.h.e.*.h X O 2 2 2 f E %.i.3.1.u.2.` 4.1.B.{.`.$X$Xv.o.F r   2 q.y.w . $ $ % @ . 7 & & # % @ ",
"@ @ @ . # - . # # # % aXVX7X<X~.i.S.S.w.:.! i i 2 2 1 2 S }  .V _ =.4.%.p.u.r.i.i.eXB.%.X.S d o X , ~ Q.m % * @ @ @ - % @ # % . ",
". % 5 . $ - 0 7 . . .XMX~.c.^ | U.S.4.R A S i A o.t o > , A f S E _ o.;.r.g.=.4.OXLX-X0.&.&.R 1 1 A F j V.6.. % $ @ . @ % @ $ $ ",
"@ @ # % % . q 6 . .X~.J X.U V e.b.S.G.| i p S E I d r p G R p S ( %.&.R L A z } V.mXCXmXB.w.4.J L =.&.R C B..X@ - @ @ @ @ . @ @ ",
"% # % . . % % . 7.I.K h  .p E *.>.d.u.4.I r r p S f 1 i %.=.I F S z P P , O > r C R.FXIXJX`.s.q.*.1.X.+.*.` %XZ.  % 6 @ # @ @ % ",
"# 7 7 . . # % v d...( +.:.F ] ,.P.s.;.w.1.F i f t 2 h R ( o.) f 2 r > 2 p g ! z L f.mXPXIXmXk.z.e.%.I r z F R M.v % - @ % % . @ ",
"# % - @ * % 4 ..O.| %.E S  .1.d./.P.u.4.#.f h F 1   t f f P I O   2 r O r i W ~.<X<.} -XIXIX+XI.J.;.| p t d , k 9.w @ * . & # @ ",
"% @ # @ * 4 x Z H 2.( R | l.H.d.I.).4.>.j p S f r r > > h G f , f ( d 1 1 r V [.3X>.#.S.'.FXKXcXS.' ( T L Z x f #.~.: % - . @ % ",
". # % # % y ^ M.` U R s.(.#XD.).{.S.u.1.T G d A p 2 t L A , > H E r , > 2 h ` l.U.k./.1X`.>XIXGXoXe.:.| ..@. .E L 6X.X* 0 # & . ",
"# @ # * < J a.9XV.~ O.O.m.f.l.[./.s.u.=.( h 1 , 1 o r L j i i h G r r , r z F ;.K.).I.xXhXdXIXPXCX`.7XY.s.E.B.a.[ a.B.b . # q q ",
"& & @ @ z *.XXjXjX:X9.C Z L +.(.`.H.w.X.Y h A 1 , d h h L G d h h 2 G A 2 f R ) o.G.4XDXGXuXDXHX<X7XbXMX6XoX6XxXOXi.I ^ % . @ & ",
"% * @ ; R p.NX~.OXN.p j , g p.,X].S.i.+.P h X.S o r , , S f z A O   X 2 r i L E P =.<XVXIXPX#XH.d.&XSXKXKXGXBXNXSXrXL @.m . # @ ",
"@ % # , Y OXNX4X! 1 , h > G E.8X{.H.d.+.P A d t X   X 2 S f G S >   X r , t h I G K u.iXPXIXmXn.2.sXIXPXGXGXSXCXuX3X_ 5.dX# 6 # ",
"@ @ < V c.hX!.@.a r O.U f | J.4X>X(.j.4.P p 2 d t   O f ( ( L L H 2 2 , > d S i S G ( h.cXIXIX'.q.fXIXPXHXBXbXVX0XU.i.C.;Xb . # ",
"& * k c.SX%X4.#.P  .*.%.Y 3.z.1X>X#Xk.r.S i f d ,   , S G X.+.q.%.Y h i > E I f L G Z } 7XMXNX7XF.dXIXKXPXGXNXNX$XH.f.8.g Q : @ ",
"7 - R Q.HX~.@.~ ..,.h P O.g.i.<X>X].P.q.j E A o     h S L X.2.w.q.-.S i d F F p A E ;.3.2XjXeX9X>XBXCXFXPXPXmXyXW.Y.~.K h ~ 9 @ ",
"% < e.W.Y.g.I y U :.F X.q.E.(.<XwX1Xc.X.r G f 2 O , R | Y O.u.u.u.s.+.L G G d p z f F w.[.vXBXeX7XeX].eXHXSX&Xp.z.Q.iXt.k #.v * ",
"% p Q.eX,.+.%.P i z ` 2.u.<X9Xb.yX8Xm./ G j Y F R A ( %.T P *.g.d.s.w.&.( T F y r h L 1.#XMXMXHXjXk.i.1XzXVX3X>.2.' B.t.} ~ A % ",
"% L 6XkXm.c.w.} , F 2.q.s.NX9X$XzXhX4Xf.4.O.t.o.&.` o.( ) o.] u.z.>.%.E { 1.t.#.( G 3.S.<XwX9XyX2XW.'.2XwX9X}.p.3.O.] $.qX-.9.6 ",
";  .%XBX#XQ.p.p p >.!.1X`.0XrXeXDXMX0Xq.*.1.p.q._ P Y ( { =.E X.O.P G ) q.k.).1X$Xa.u.f.7XlX$Xg.:X<XyX9XwX:XP.d.4.R j #.~.w.!.b ",
"s x.n.GX&X(.! > d r.T.'.W.s.%XSXNXDXwXq.[ 0.S.3.+.` ` ` G } -.%.*.e.:.;.'.zXZXIXDXz.j.u.E.vX'.J.[.@XbX7X2X[.W.g.f.J , f ] E.R.m ",
"c d.=XGXB.4.F x y.2.q.g.%.e.1XMXvXVX>X:Xe.t.(.2.1.o.X.( G ( i.'.8X#X].E.K.mXKXfXDXqX6X~.=.@X[.,XI.2XBXwX5Xm.0.z.t.-.W z } m.J.7.",
"x q.ZXCX0.` o.c.p.%.e.v.f.rX6X].%X$X`.jXI.r.b.e.] T O.O.%.q.D.,XhXSXkX/.1.3.9XcXLXIXIXnXp.z.}.I.k.+XeX`.,Xm. .s.{ X.0.@.G / 8.N.",
"t Z gX6XB ~ O.| o.q.f.f.J.gXJX9X] *.(.hX].r.w.q.G P r.q.2.w.=.s.I.9XMXcXi.&.XXHXPXCXLXKXxXH.F.0.=.s.S.s.e.:.W.F.G.T T ( f G h.9.",
"p W 2X^.u <.! ( 1.r.s.v.p.c.fX%X>.>.<XzX1Xu.o.I i L =.2.Y I P Y <.).jXMX5Xz.`.$XoXBXHXHXIX9Xd.*.T 1.>.1.] 8.}.}.W.0.y.=.h O.u.O.",
"T A.dX} Z F E I E 4.f.c.1.&.;.( *.' &XwX).K.J d i E Y V O o h r F W.'.`.<X:XG.P &.^.SXmXNXqXj.:.V Y L ` &.+.k.#.#.>XU.0.+.n.w.O.",
"M.K.8.f A I ! d ~ 2.t.p.1.^.t./ +.q.oX:X{.1Xa.T A { ) h 2 V I 2 a u.p.6XNX5Xq.j J O.xXNXJX-X2.,.L I h E 2.] v.h.Q.2X_.t.i.,X@.I ",
"0.b.L 1 t 2 > +.2.q.X.x.OX0XE.X.[ 4.#XzXcXkX/.u.r.*.( X.*.%.S r T i.uXJXIXBXM.) G.J.+XPXPX@X-.*.w.1.L G | / O.b.F.<X'.*.h.r.h p ",
"5.Q._ t r X o F X.:.0.mXKXbXyXM.0.).z.6XzXVX6X'.n.:.V L >.4.+._ 1.i.2XPXIXKX7X&XBX&XD.GXJXc./ L ( P G L G G u ~ S.1Xb.s./.#.h i ",
"5.T.%.S d r t i ) K ~.PXIXIXDX+X4XnXOXr.1XVXGX6Xl.r.Y Y *.r.n.p.J.f.K.DXIXSXBXIXIXmXD.+XNX3.&.` z d A p f t 2 C. X`.I.{.1Xp.' A ",
"5.P.<.L 1 , f U 4.,.Q.PXIXIXPXGXJXJXFXp.J.R.OX9XH.J.u.w.+.X.#.a.f.i.i.dXKXMXHXJXBXbX<...m.>.=.R S 2 o O p , u ~ #.J.:XwX>X0.+.l ",
"D !.p.J 1 > F o.l.P.<XVXPXPXPXIXgXLXKXeXP.z.b.iXuXoXk.<.h i h k K h.d.<XhX7XhX1X>X5X8.a H b.=.S 2 o   X r r i i B Y.lXuX@X .L s ",
"s n.v.3.i r <.>.b.D.>XDXMXVXGXSXdXLXCXhX(.S.T.W.eXjXl.S 2 2 r G ] q.D.uX>X:X2X@X,XE.4.R 8.s.{ h X X O X , 2 i G @.2XbX[.I.C.B 4 ",
"w } u.c.a k *.=.M.3XCXxX'.&XSXbXNXGXNX:X{./.r.] ! 9.:.V h @.8.;.r.W.3X7X1X1X9X7X).z.H *.0...P ,   o 1 X X , r x G.`.9XM.OXa.G $ ",
". H 3.J 9.V.o.2.,.MXIXDXI.K.MXMXzXbXMX:Xj.d.<.j 1 g Z L ;.[.yXW.s.6X[.}.0X1X_.P.u.~ O r y y A ,   X > , r F } #.2.m.E.G.*X| x @ ",
"% W r.J a.DX~.k.i.&XHXCX`.6XBXhXkXhX0XMXuXM.0.>.G z P I Z C.vXeX<XwX#X].4X1Xx.^ E A d o i p h y   , f f t P z.c.' f.3XiX9.Y 3 @ ",
"@ s :.G ) rX^.Q.vXeX[.#X0XNXCXkXhX7X7XvXdXyX XW.3.e.8.V y D iXbXbX{.[.{.{.E.J f f S S > L X.z 1 1 f F V G ] g.G.E.].dXPXM./ & * ",
"& - 9.E y.<X+X6XNX>Xi.H.yXVXcX,XeXxXuXyXl.6XvXhXs.OX~.B r f M.Q.0X4XhX0X_.,.Z I G A d > H ` p h A p f F >.r.d.s.OX,XfXPXB.R % @ ",
"- . 6.B.i.7XyXuXbX+Xi.w.qXHXkXd._.NXkX7X1XjXbX>Xb.(.<.d , 1 y ( d.1X#XE.u.=._ ) ( Y L d f i > F R h h A &.d.s.q.'.jXKXqXX.y 7 8 ",
"- % 7 dXX.V.SXkXvXyXK.s.uXHXrXr.,.^.vXhXhXjXuXkXzXb.P i z > o C R.#Xw.4.` { E L ` X.L F i , t j R ( A f 3.i.x.G.8XDXHXl.R # @ @ ",
"& & . 6.Z N.DXzX1X@X>XF.T.&X@Xk.:.,.:XvX7XhXzXxXvXR.C A W i 1 @.6X'.W.#.Z 1.*._ X.*.S S A h S L E ( A Z r.k.}.3XwXMXrX~.d % @ @ ",
"@ @ $ = u W <XW.l.i.g.e.&.4.d.(.iXOX-.'.@XH.zXVX,X0.E ] m.-X#.~.[.).8Xz.0.r.4.X.T ` P ) L U I S ( %.#.y.s.S.4XVXkXhXzX5.@ % @ @ ",
"@ @ @ @ > $.%X,.>.r.;.Y I } o.r.!.8Xt.;.g.H.0XBXjXe.;.2.R ~ 1.oX3XT.@.x.I.w.4.+.( P X.2.' ,.3.) &.i.D.U.P.`.2XjXwXlX%X2 @ @ & @ ",
"$ % # $ @ ^ Y.%.) ( F r d h A ' 2.v.3.{ u.:X0XhXVX:Xu.%./ ..B.2XXX{ ..~.].j.r.*.{ %.4.+.G o.2.u.i.j.U.:X0XyXuX+X#X#X^ @ % % $ @ ",
"@ @ @ & % + X.} z F L 2 , S E o.%.4.g.p.P.0.T.NXMXm.G.p.r.E.dXM.2.!.4XK.i.s.r.-.q.i.} R L L u.i.s.F.{.7XjXNXeXO.R.0.+ 8 - @ - - ",
"@ @ $ % * @ s #.f S F O   z %.1.%.,.G.,X7Xc.'.jXvX=X&X(.e.z.y.C h.8X<X(.oX/.e.r.S.j.h.S.L.a.l.F.j.P.#XuXeXyXR.Q.m.y % $ % % $ ; ",
". @ @ # . @ @ x e.K V z o 1 E =.4.-.l.7XvXjX,Xg.R.eX~.OXV.y.].R.6XbXwX1X9X{./.F.D.k.D.}.}.z./.j.h.].>X0XiX7X#X>Xf @ @ @ . # % @ ",
"% @ % . @ @ @ @ N.R.z A I A L F } q.f.W.9XzX1Xu.:.) J 8.yXwX2XyXwXMXzX9X_._.].).U.D.j.H.#X{.1Xb.~.5XwX6XB.'.pXQ @ @ @ @ $ - # @ ",
"# $ # # - # . 0 aXZ.8.1 h >.G p p ` { >.].lXxX3X[.M.*XeXeXVXcXeXkXuXhX7XS.x.<X,X[.I.D.3.T.5X<X8XR.y.yXR.` F.5.. & $ @ . & & . - ",
"@ . % # @ . - 6 # . Q V.l G D O 1 S R ' <.OXvX#Xb.H.lXMX>X[.4XhXwX8X:Xy.e.8.6X4X{.{.>XV.'.uXyX0Xm.p.z.,.v.Q @ @ # # @ % & @ . # ",
"@ @ # # @ - % 5 @ @ @ .X+X..d o p F j P / 4.g.1.{ X.t.0.+.W.GXkX1XuX).L.K.'.3X0X6X~.6XNXBXvX2XW.I.y.K p.v @ # - $ @ @ @ @ . - % ",
"% @ # # $ % @ @ @ @ @ . n n.J.v o S X.( *.+.] -.*.Z f L A a.xXBXDXhXW.{.~.~.P.[.a.8.qXjX=X(.).g.U F ! n % # - $ @ @ # @ % @ # 5 ",
"@ @ % @ @ @ @ @ $ @ $ - @ 4 N.v.W B _ h L o.E  .>.+.! f 1 y 8.v.mXDX7X7XNX6X9.O.e.MX>X!.T.u.e.| P ^ 4 @ $ $ $ @ @ % $ @ & @ . % ",
"# & @ $ $ @ @ @ & % $ @ $ % % m 6X&X0.V A +.h h E 0.s.! 3 p d ] Y.GX[.@X1X8.k 9.$.m.G.J.8.) g h c @ @ $ * 5 & % @ @ @ @ @ @ $ @ ",
"@ & & * @ @ . $ @ # 5 % % # $ @ 0 .XtXs.@.H S t U c.XXoX%XJ #.h.B.dXHXfX1.*.!.>Xn.q.) G F z 3 = @ @ # % @ . 6 q . & @ @ @ & - . ",
"w : @ @ @ % $ & @ @ . # @ % $ & @ . ; 6.|.y.z > 2 y W  .0.@.R.pX:X<X-Xc.h.=XQ.>.4.&.S t 3 @ @ . @ @ @ @ @ @ $ & . $ @ @ @ # % @ ",
"- @ 5 * @ @ $ & $ % . 5 # @ % & @ @ @ @ % 4 v Q C.7.W $.&XMXrXOXG.i.4.p.&X+Xi.+.I x + @ % % @ & % @ @ # @ @ . . @ @ . @ % @ . @ ",
"- & & % @ # 5 & # . % & . & & @ @ @ @ # % @ . 0 w m Z.;XZXAXdXrX'.8...^ ! D n 4 @ @ % @ @ % . $ $ @ @ @ @ @ # @ . % % . @ @ . @ "
};
