/* XPM */
static char *player_left_resized[] = {
/* columns rows colors chars-per-pixel */
"64 64 212 2 ",
"   c #010005",
".  c #01000D",
"X  c #0A030D",
"o  c #0E080D",
"O  c #130B0E",
"+  c #180C0F",
"@  c #030213",
"#  c #080716",
"$  c #0A0916",
"%  c #060618",
"&  c #080718",
"*  c #0B0B1A",
"=  c #070917",
"-  c #140D13",
";  c #190E12",
":  c #100F1D",
">  c #141014",
",  c #1B1315",
"<  c #12111E",
"1  c #1A141A",
"2  c #1F1A1C",
"3  c #231B1C",
"4  c #251816",
"5  c #28201F",
"6  c #151522",
"7  c #181724",
"8  c #1A1A25",
"9  c #1D1D29",
"0  c #141C27",
"q  c #241E21",
"w  c #201F2C",
"e  c #252122",
"r  c #2B2423",
"t  c #23232D",
"y  c #2D2B2A",
"u  c #2C2828",
"i  c #332A26",
"p  c #342D2B",
"a  c #352B29",
"s  c #35322F",
"d  c #3B332F",
"f  c #252430",
"g  c #2B2B36",
"h  c #2D2D3A",
"j  c #353433",
"k  c #3A3533",
"l  c #3C3936",
"z  c #3C3A39",
"x  c #37343C",
"c  c #2F302D",
"v  c #431618",
"b  c #423B37",
"n  c #453D3C",
"m  c #483F3C",
"M  c #6F2E24",
"N  c #760F14",
"B  c #3F4039",
"V  c #44433D",
"C  c #49423E",
"Z  c #47483E",
"A  c #64443E",
"S  c #383844",
"D  c #444441",
"F  c #4B4543",
"G  c #4C4A45",
"H  c #48474A",
"J  c #524D4C",
"K  c #534C47",
"L  c #4D5147",
"P  c #4D5349",
"I  c #555A4E",
"U  c #535348",
"Y  c #494855",
"T  c #5B5655",
"R  c #575F53",
"E  c #5A5C54",
"W  c #5D5A5A",
"Q  c #565352",
"!  c #514C54",
"~  c #625E5C",
"^  c #665F51",
"/  c #5B6455",
"(  c #766C4A",
")  c #63625D",
"_  c #636C5D",
"`  c #746E5C",
"'  c #73745D",
"]  c #565660",
"[  c #676364",
"{  c #6D6866",
"}  c #6E6B6B",
"|  c #676A62",
" . c #726E65",
".. c #716E6C",
"X. c #6A7464",
"o. c #6E7B69",
"O. c #6D7569",
"+. c #767162",
"@. c #74726C",
"#. c #78786B",
"$. c #747273",
"%. c #787675",
"&. c #797778",
"*. c #7C7B7B",
"=. c #7A7778",
"-. c #6D6C71",
";. c #901E20",
":. c #BB3029",
">. c #C0000B",
",. c #C30712",
"<. c #D01D20",
"1. c #E41E22",
"2. c #86584F",
"3. c #A64C46",
"4. c #856A5E",
"5. c #827B5B",
"6. c #867E55",
"7. c #817F79",
"8. c #857E60",
"9. c #72816E",
"0. c #758371",
"q. c #798A76",
"w. c #7B8C79",
"e. c #7B8876",
"r. c #7C917C",
"t. c #8B8355",
"y. c #948B51",
"u. c #A49A4B",
"i. c #A59C5F",
"p. c #B4AA55",
"a. c #B5AC53",
"s. c #858778",
"d. c #81937E",
"f. c #958E69",
"g. c #A59C68",
"h. c #ACA368",
"j. c #B5AD73",
"k. c #C4BA4B",
"l. c #C4BC7A",
"z. c #E0D87A",
"x. c #FFFF7D",
"c. c #EAE26B",
"v. c #CFC774",
"b. c #7D7D82",
"n. c #848484",
"m. c #888786",
"M. c #888887",
"N. c #85858A",
"B. c #8B8B8B",
"V. c #87888A",
"C. c #849480",
"Z. c #869A84",
"A. c #899D86",
"S. c #8C9A8B",
"D. c #91948E",
"F. c #8D8D91",
"G. c #8F9091",
"H. c #939394",
"J. c #94959C",
"K. c #9C9C9C",
"L. c #979898",
"P. c #8DA48D",
"I. c #93A38C",
"U. c #94AD94",
"Y. c #9CAA9B",
"T. c #9AB59B",
"R. c #9BB99E",
"E. c #97B298",
"W. c #8CA891",
"Q. c #A0A89D",
"!. c #A0B99E",
"~. c #9A9CA3",
"^. c #9FA0A1",
"/. c #9EBCA1",
"(. c #A2A3A3",
"). c #A9ABAC",
"_. c #A5A6A9",
"`. c #A2BEA3",
"'. c #ADB0B0",
"]. c #9DC3A8",
"[. c #A3C1A6",
"{. c #A6C6AA",
"}. c #A9C7AC",
"|. c #A6C9AC",
" X c #AACAAE",
".X c #ACCDB1",
"XX c #B1CAB2",
"oX c #B9CEB9",
"OX c #AED1B4",
"+X c #B1D3B6",
"@X c #B4D5B9",
"#X c #B6D9BB",
"$X c #B8DABE",
"%X c #B8D7BB",
"&X c #B0C9AF",
"*X c #E1D88A",
"=X c #E1D893",
"-X c #EEE580",
";X c #FFFF89",
":X c #FEF489",
">X c #FFFF97",
",X c #FCF599",
"<X c #F3EB94",
"1X c #E3DDA3",
"2X c #EDE7AD",
"3X c #FFFEA4",
"4X c #FFFFAF",
"5X c #FFFFB2",
"6X c #D9D28B",
"7X c #B8DEC1",
"8X c #C3DDC5",
"9X c #C3E2C7",
/* pixels */
"& % . < < % < 7 @ * . @ @ % < t % % t 9 & - l _ 5 . @ @ % : * * % % % @ . @ $ % % % @ @ @ @ @ % @ % @ @ 9 7 * & 7 * @ @ @ $ 6 9 ",
"@ 9 & * & & < 7 . # @ @ @ % * $ : @ h < . y &X@XZ.1 @ @ . @ $ # . @ % @ @ @ @ % @ @ @ . % @ @ $ @ . @ . S Y @ % * * @ @ @ @ 7 $ ",
"@ @ @ * 7 @ * * @ @ * < @ % % : < @ . < @ V 9X.X[.3   @ % @ @ < @ @ @ . @ % . @ . % % @ @ % @ @ % @ @ . g S . @ 6 & @ @ . % * @ ",
"@ $ @ % # @ @ . @ @ @ @ $ % $ $ & . # @ . X o.E./ P._ . @ % @ @ @ @ @ @ @ . 6 @ % < . * . @ @ % * % % @ @ . @ @ % 9 * % @ . @ * ",
"@ % & @ @ @ % @ % @ @ @ @ @ $ # # @ * * I o.r - . j A.E.D   . % @ @ . * % @ % . @ < @ @ . $ 9 . $ % @ @ @ @ @ . @ . 6 @ @ % @ % ",
"< * < @ @ @ @ @ % & @ @ @ < . * = $ . k +X{.q.  @ @   G E.Z.u   @ @ $ $ $ @ @ % $ @ @ @ @ % % @ @ . . % % @ @ @ @ @ . @ @ @ & @ ",
"@ @ @ @ @ @ @ @ % * % . @ % @ $ @ 9 @ u !.{.X.5 @ @ @ . - X.R.o.- @ @ @ # @ @ * @ % @ @ % @ . @ @ 6 * @ @ % % @ @ . 9 * & # @ @ ",
"@ @ . @ % < . % % # $ @ @ @ & @ @ 9 % . y Z , I R 3 . @ % . 3 Z.A.. . @ @ @ @ @ @ $ % % @ 6 @ @ . * 6 & @ @ @ @ @ @ < % % # @ @ ",
"@ @ 6 @ & 6 t 9 . @ * & & . @ @ @ . @ g @ . % * j / Z - . 6 $   U.L # < w @ @ @ @ % @ @ @ @ @ @ @ @ # % @ @ % % $ @ @ @ % @ % # ",
"@ @ % @ % . y 7 $ @ @ @ @ % @ @ @ @ % 7 $ . * @ @ 2 B / y - @ . V E.- % * @ % @ @ @ . @ @ @ @ @ . @ @ @ % @ @ @ < @ @ @ @ @ @ . ",
"@ % @ @ @ @ @ . @ . @ @ @ @ @ @ @ @ @ . & @ 6 9 @ 6 ; V G i 3 -   d.R   = & @ @ & * * % @ * @ . @ & & % $ % @ @ . @ 7 @ % @ @ % ",
"# 9 9 . @ @ $ % @ % % & @ @ % * % @ & % & = @ 6 & . l 8X}.{.`.E.0.0.T.> @ * = @ # & % % @ * & @ % @ @ . @ @ @ @ @ @ * @ % % . @ ",
"& @ * # $ $ $ . @ $ * @ % % @ @ @ * 9 @ * $ @ @ : . u 8X@X}..XXX%X+XOXP.V O @ % @ @ . @ . & < @ @ @ . % @ @ 9 & @ @ @ @ . & $ % ",
"% @ @ % * @ < * @ @ @ @ @ @ * 9 < & @ @ @ @ % @ @ . , oX%X}. X X}.{.}.+X+XA.d   @ @ @ % % @ . @ . @ 7 @ @ @ @ @ @ < @ % & @ @ @ ",
". % % % $ @ % $ % @ @ @ @ @ # @ @ % $ . * * & @ @ @ - &X$X{. X X X X X}.}.+X.X_ O # @ @ @ % 9 9 $ @ & @ @ @ @ # . * % & 9 $ & . ",
"% @ $ $ % * @ @ $ & @ % @ . $ $ @ $ @ @ 6 < . % @ @ X Q.8X{. X X X X X X}.}. X#Xd.> . @ @ . S h . @ @ @ @ @ @ @ @ @ % @ @ $ f g ",
"* & @ @ % @ % @ @ @ @ < @ @ @ @ @ @ @ @ @ @ @ # % @   S.9X{. X X X X X X X X X X+XZ., $ % @   . @ @ @ * 7 @ @ @ @ @ @ @ @ @ @ $ ",
"@ & . g * . $ % % % @ @ % @ @ @ @ @ 6 . 6 < % @ % 7 . e.9X{. X X X X X X X X X X[. Xd.- @ @ @ < % @ @ @ @ @ @ @ @ @ % 7 & @ @ @ ",
"@ % % < . 6 * . @ < . Y T . @ % @ & % @ % @ @ $ % * @ +.9X{. X X X X X X X X X X{.].E.1 @ * @ * @ @ @ @ @ @ # % . @ @ 7 @ $ 9 % ",
"@ % @ . @ $ % @ @ # @ 9 0 % @ @ @ $ * 6 % . < * * %   E 9X{. X X.X X X X X X X X[.{.9.. @ @ @ @ @ % . @ $ % % $ & @ @ @ % @ @ @ ",
"& % % % @ & % $ % @ @ $ $ * < $ @ @ : 6 * @ $ # & @ . L 9X{. X X X X X X X X X X`.{.U . @ $ @ @ @ % & @ @ @ @ @ $ @ @ & @ # * . ",
"9 6 7 % & 6 $ $ $ @ @ % % % * < 6 % @ @ @ % % @ # . . u XX X X X X X}. X X}. X X[.R.r . % @ % @ @ @ $ @ @ @ @ @ * 7 % @ @ @ * @ ",
"$ @ @ . @ @ @ % * @ . < $ @ @ @ g % @ $ @ . . 7 < < $ ) XX.X X X{.+X#XOX.XOXOX|.{.Z.- @ @ @ @ @ @ % @ $ @ . @ & & t @ @ . 7 * < ",
"# @ * @ . % @ @ < @ @ 7 & @ @ : @ @ $ @ 9 % @ & @ # ; Y.$X}. X X+XU.9.o.0.Z.T.{. X_ . 6 & . @ @ & @ @ @ @ @ & % < : @ $ * * % & ",
"$ . % @ @ @ @ & @ @ % @ $ . : * & $ * & * % @ @ @ $ p E {. X X XC.o.q.C.w.r.E.[.{.V . @ . @ @ @ @ @ @ h S # $ % * * @ % @ @ @ < ",
"# @ @ @ @ $ & * t @ @ & * $ @ $ % @ * @ @ @ % t @ . G D r.+X XR.r.@.W Q T J Z..XU.2 . @ % % @ @ % @ . Y ] @ % % @ < @ @ $ & . % ",
"9 $ . @ $ $ @ @ @ . @ % @ % @ : $ @ @ % @ @ & S @ . C n P OXOXZ.F z l l H } o.@Xq.X @ % & @ @ @ % . # @ @ $ @ @ @ @ $ . * & @ @ ",
"% % @ @ . @ * < @ 7 t . 7 * . $ % < $ @ % @ @ . @ @ j D y /.[.s j j j j D J O.+XI   @ @ @ @ @ . & % @ * t . @ @ @ @ 6 7 $ @ @ % ",
"% $ = @ = @ $ < % 7 9 . D g . @ @ . @ % $ @ @ @ * * 3 F e U.9.> z j j j z j w..Xd @ @ % @ % @ @ * @ . 6 6 @ & * . @ & % 6 $ @ @ ",
"* * @ 9 % @ @ @ : @ @ $ . % @ @ @ # @ @ * @ @ . @ # - k 8 U./ > j z l l j l [.U.- @ @ & @ % % @ * @ @ @ @ @ % $ @ @ @ . % % $ % ",
"* f X < @ . * $ % < * @ * @ @ @ . @ % @ @ @ @ @ @ & < , P #X_ o u c s y 2 q.$Xo.. @ @ @ @ $ % @   % @ @ @ . @ < % @ @ @ @ * 1 6 ",
"7 < @ @ * % & * . 7 f $ 7 @ @ @ & 6 $ @ @ . @ @ # & & X C.$XT.s O > > u q.+XOXL # @ % % @ . < < Y & @ @ * @ % @ @ @ & 9 . * 7 % ",
"t # @ % @ @ : $ @ @ . & 0 & @ @ < @ @ % @ @ @ @ @ = < X #.#X X{.q.X.w./.OX X[.s g @ @ @ @ @ 7 * g : @ < % @ @ @ $ . 6 7 . < @ @ ",
". @ @ % % 7 & . * 9 % @ . 6 * . @ % @ % @ @ @ @ . = < X _ #X{..X#X#X]. X{.OXP.o @ @ % % @ % @ @ . t < @ & $ @ @ @ @ @ @ @ @ < . ",
"@ @ @ @ @ e < % * w @ @ @ @ % @ @ @ & : $ # @ < @ @ $ . R $X{.{.R.Z.4.!. X+XX.  @ @ @ @ @ $ @ @ @ & @ . & * . . 6 7 @ @ @ 6 f : ",
"< < * = f 7 @ < @ . @ @ @ . t & $ @ @ % @ * * * & & # . G %X{.}.].#.3./.{.+XZ @ @ . @ . < 9 @ # @ @ < & @ = 9 t & @ @ @ @ 7 f : ",
"< < $ $ $ * @ @ @ % @ . @ @ & $ @ % @ # v ; # @ % % & @ s %X{. X XU.{.|. X`.5 $ % * @ # . @ @ @ . * 6 % & @ 6 * @ @ $ @ @ @ @ @ ",
"@ < . * % * & @ @ @ & 9 @ @ @ @ @ . . M 1.;.# . @ @ & * X #.#XOXOXOX X}.+XZ.> @ $ @ $ * 7 9 @ @ $ & . @ < $ . @ @ * & % @ @ $ $ ",
"& @ $ : % 7 < % @ . & w @ @ % & @ 6 0 M <.N - % @ % * @   O U Z.P.{. X}.+XX.* : # @ * @ * % $ % @ @ % @ $ $ @ @ @ . @ & & . % * ",
"f @ . @ & * . @ 6 @ % $ . $ * # . < = @ 4 R / . . X $ 3 V I q./.[.}.}.{.+XL . $ & @ < * @ $ @ & @ % $ @ < & @ < . @ @ @ @ @ $ * ",
". t * & . 9 6 . % @ . . % % % 6 @ . $ X / .XW.V R 9.d.A.d.Z.+X X X X X X}.u . . @ @ < @ % @ @ . @ @ % & $ * * 9 6 @ @ @ @ @ @ @ ",
"@ 9 6 @ % % $ @ @ @ @ @ * @ @ & % @ $ , U.T.A.9.o.R Z e + U.7X X X X XT.U.2 * < % @ * < @ % @ % @ # * @ @ $ * $ 9 & # @ @ % @ @ ",
"@ @ % % @ $ & % @ $ % @ . @ @ @ $ @ @ . d..XT.Z   . * @ y s.4.R..X}. XP.U.p @ 7 < . @ $ @ > @ * # @ < @ @ @ < < = < @ * & # @ % ",
"* * @ @ * @ @ 6 * @ @ . 9 7 @ & @ @ @ . u Z.q.e @ * * @ d :.>.2.OX X XU.R.U . * . @ @ @ @ @ $ @ @ # & * @ . $ : @ @ @ @ < & % @ ",
"* @ < @ @ @ @ @ @ * @ @ * # # 6 @ @ @ * *   1 b . @ % . ` :.,.2.OXOX{.P.E.e.X * * @ % @ & @ @ @ # # $ @ 7 < % @ @ @ @ @ < . 7 : ",
"< * $ * @ * . $ % @ @ @ @ @ @ @ @ @ @ # # 4 - b 3 3 q i [.I.K 0.E.{.P.E.U.`.e , - . . @ @ @ @ % 9 : @ . * : $ @ % % @ % @ @ @ @ ",
"< $ @ $ < < & < @ . @ @ @ @ # @ . . ; q 6.=Xg.K @.B.=.| +XE.W.E.].A.T.P.[..X) W ^ g.t.p p > - * . @ < @ $ $ % . @ @ % @ @ @ @ @ ",
"@ . * $ < * < % @ % @ @ @ .   3 m ~ 7.$.a.c.=X( [ B.[ d.@XI.{.+X+X{.P.[..X.Xq.! p.:X<Xt.N.&.~ m 3 . . & : @ @ : % @ * & @ @ @ @ ",
"@ @ @ @ . * . * $ * @ @ X r ~ =.n.H.B.N.+.5.@.7.[ =.[ `. X{.P.T.E.P.}. X}.|.P.W 4.y.f.@.B.B.H.b.b.~ r X * 6 * % g 7 . @ @ @ & @ ",
"& % @ $ @ % 6 % @ % % ; T D.7.f.f...B.B.F.N.M.B.G.{ o.{. XOX}.U.@.[.OX XOX XR.) b.b.b.B.B.N.@.g.5.N.D.T ; @ % & @ < @ @ % @ $ @ ",
"@ @ @ & % @ : @ % @ , @.'.B.h.>X4Xp.F.(.K.K.Q.K.K.H.e.| X.r.P./.q.Z.T.P.q.X.@.n.K.(.Q.K.(.s.z.3X,Xt.~.).@.- $ @ 7 t @ 7 < @ < * ",
"@ @ * % = @ % 1 %   C _.(.G.u.c.2Xg.m.(.~.(.F.J.^.^.^.L.&.~ F F G K V J ~ n.K.(.H.N.J.^.(.7.k.-X1X6.~.^.).C X * @ $ @ * # @ * 7 ",
"@ . @ % . @ @ 7 @ - m J.B.H.&.`  .%.F.B.V.#.g.t.=.B.M.B.G.H.F.=.#.[ K._.H.G.B.=.f.l.5.n.G.M. .+. .b.H.B.H.m . $ @ . @ @ X = % @ ",
"% @ = X @ @ @ @ 6 w 4 { G.M.B.B.B.B.M.B.$.v.4X3Xy.N.B.V.M.B.=.h.*Xg.G.(.H.m.N.t.;X5X-X` F.M.F.V.B.B.M.B.[ 4 $ * @ @ @ @ = * % @ ",
"@ $ % @ * @ . g -.@ - 3 ~ N.B.B.B.M.M.F...k.c.2X6.b.B.M.m.N.6.x.5X,X5.(.K.B.B.' a.6Xj. .B.M.M.M.B.B.N.~ r * @ @ $ $ @ @ * * . * ",
"@ @ @ # % @ : 7 & & $ . + l ~ *.M.B.B.B.V.-. . .=.B.M.M.M.B.#.u.l.f.7.(.Q.H.M.N.@.} $.F.B.B.B.N.*.~ k + 1 & . @ @ % @ @ * @ @ $ ",
"@ @ $ @ @ < % 6 @ @ @ . 6 - - i G ~ ..=.N.B.F.F.F.B.B.B.B.B.~.F.N.H._.(.(.^.B.B.H.B.G.M.=...[ G i , . < * % @ < * @ @ @ @ @ < @ ",
"% @ $ @ & % @ @ @ @ @ @ % & @ @ X 4 l J G J ~ [ ..$.=.*.b.M.H.J.L.J.G.F.B.m.=...[ ~ J G J k ; O - & @ < * @ < $ @ % % @ @ @ & 6 ",
"@ @ % @ @ @ @ @ $ @ & * @ @ @ @ @ % i n.=.~ J G G F F F F F F F G F C D F m F G G ! ~ =.7.3 # @ @ % * @ @ * & @ . % & @ * @ @ @ ",
"& * @ $ $ @ @ @ * @ & % % @ @ @ % @ - b H.K.G.*.$...W J J J J J J J J J J ! } $.7.H.L.B.k X # 8 % @ @ $ $ 6 & @ @ @ @ @ @ @ $ @ ",
"@ * * @ @ @ @ $ . % 7 % @ @ $ $ * @ % O p @.K.(.H.M.*.~ W T T T T T T W W $.B.J.(.L...i X % @ @ @ @ @ % @ . 9 h . & @ @ @ * < . ",
"S % @ @ @ % $ & @ @ . % @ % & $ # & @ * X , C @.J.).).K.M.7.*.*.*.*.7.M.K.).).L...b , $ @ % @ @ @ @ @ @ @ . & * @ & @ @ @ % % . ",
"6 . 6 % . @ $ * $ % . 6 % @ # * @ @ @ * @ @ . , p F { n.G.G.B.B.F.H.H.H.n. .F r - . = @ . @ . & % @ @ # @ @ . . @ . . @ % @ @ @ ",
": * * % @ % 6 * @ @ % * . $ * % @ @ @ @ @ @ @ < $ X X ; 4 a b k b l p 4 + X . . @ @ @ @ @ % @ $ $ @ @ @ @ @ % @ @ % @ @ @ @ . @ "
};
