/* XPM */
static char *player__resized[] = {
/* columns rows colors chars-per-pixel */
"64 64 220 2 ",
"   c #000005",
".  c #090006",
"X  c #01000D",
"o  c #0A040C",
"O  c #0E080D",
"+  c #130B0F",
"@  c #12070C",
"#  c #030213",
"$  c #080716",
"%  c #0A0916",
"&  c #070618",
"*  c #080718",
"=  c #0C0B1A",
"-  c #05081A",
";  c #130C13",
":  c #100F1D",
">  c #190F12",
",  c #0F101C",
"<  c #161015",
"1  c #1B1315",
"2  c #12111E",
"3  c #1B151A",
"4  c #1E191D",
"5  c #231B1C",
"6  c #251918",
"7  c #200C14",
"8  c #28221F",
"9  c #151522",
"0  c #181724",
"q  c #1A1A25",
"w  c #1D1D29",
"e  c #171825",
"r  c #0E1525",
"t  c #241E21",
"y  c #201F2C",
"u  c #2A2425",
"i  c #23232D",
"p  c #2C2729",
"a  c #2D2C2B",
"s  c #282525",
"d  c #332D2B",
"f  c #382F2D",
"g  c #322925",
"h  c #3B312E",
"j  c #36302A",
"k  c #252530",
"l  c #2B2B35",
"z  c #2D2D3A",
"x  c #353433",
"c  c #3A3634",
"v  c #3B3A35",
"b  c #3C3A38",
"n  c #33333D",
"m  c #2F302A",
"M  c #401518",
"N  c #4D201C",
"B  c #433C3A",
"V  c #423937",
"C  c #602A21",
"Z  c #3E403B",
"A  c #42433C",
"S  c #4A453F",
"D  c #675D3E",
"F  c #393945",
"G  c #454642",
"H  c #4A4442",
"J  c #4D4A45",
"K  c #46454A",
"L  c #524D4C",
"P  c #4D5348",
"I  c #55544E",
"U  c #545A4D",
"Y  c #5C5342",
"T  c #494855",
"R  c #595655",
"E  c #5C5A59",
"W  c #595754",
"Q  c #504B54",
"!  c #625D5B",
"~  c #655E54",
"^  c #684840",
"/  c #5B6355",
"(  c #5D6859",
")  c #636A5D",
"_  c #65685E",
"`  c #736E5D",
"'  c #7A7459",
"]  c #7E754D",
"[  c #565660",
"{  c #645E64",
"}  c #656261",
"|  c #696462",
" . c #6E6B6B",
".. c #696D64",
"X. c #716E6D",
"o. c #726D66",
"O. c #6A7465",
"+. c #6E7B6A",
"@. c #6B7465",
"#. c #767164",
"$. c #73746A",
"%. c #727D6D",
"&. c #7A7568",
"*. c #726F72",
"=. c #747372",
"-. c #7A7673",
";. c #7C7B7C",
":. c #797779",
">. c #6A6A71",
",. c #A01D20",
"<. c #B23A2F",
"1. c #881116",
"2. c #C8030E",
"3. c #D12323",
"4. c #E12022",
"5. c #86403C",
"6. c #894B45",
"7. c #A44540",
"8. c #856A5D",
"9. c #837C5C",
"0. c #817D7C",
"q. c #817D6F",
"w. c #72816E",
"e. c #7C816F",
"r. c #768573",
"t. c #798875",
"y. c #7C8E79",
"u. c #7C8776",
"i. c #7F917B",
"p. c #8B8355",
"a. c #968D56",
"s. c #9D9554",
"d. c #988F4B",
"f. c #BCB249",
"g. c #AEA44F",
"h. c #928B65",
"j. c #83817D",
"k. c #828F7D",
"l. c #898B77",
"z. c #82937E",
"x. c #968E68",
"c. c #A29A66",
"v. c #A39C7C",
"b. c #B5AC6A",
"n. c #B9B169",
"m. c #C3BB74",
"M. c #E7DE5C",
"N. c #EDE476",
"B. c #F5ED72",
"V. c #D3CB74",
"C. c #7C7C83",
"Z. c #807F81",
"A. c #858585",
"S. c #888787",
"D. c #898887",
"F. c #85858A",
"G. c #8B8B8C",
"H. c #878889",
"J. c #859A83",
"K. c #8B9C89",
"L. c #869785",
"P. c #8E8E91",
"I. c #8F9091",
"U. c #929394",
"Y. c #94959B",
"T. c #9B9B9B",
"R. c #989899",
"E. c #90908E",
"W. c #8DA38C",
"Q. c #84A38C",
"!. c #91A88F",
"~. c #90A790",
"^. c #93AB93",
"/. c #9CA699",
"(. c #95B096",
"). c #97B299",
"_. c #9AB49B",
"`. c #9CBA9E",
"'. c #98B096",
"]. c #8BA991",
"[. c #A0A79D",
"{. c #A1B79C",
"}. c #B9B184",
"|. c #9C9EA3",
" X c #9EBCA1",
".X c #9FA0A0",
"XX c #A2A3A3",
"oX c #AAACAC",
"OX c #A5A6A8",
"+X c #A1BEA3",
"@X c #A9BDA7",
"#X c #9EC6AA",
"$X c #A2C1A5",
"%X c #A6C6AA",
"&X c #AAC7AC",
"*X c #A7C9AD",
"=X c #AACAAE",
"-X c #ACCDB1",
";X c #A4CEB1",
":X c #B3CDB5",
">X c #AFD1B4",
",X c #A6D0B3",
"<X c #B1D3B5",
"1X c #B4D6B9",
"2X c #B6D9BB",
"3X c #BAD9BE",
"4X c #DBD285",
"5X c #E4DC92",
"6X c #FDF682",
"7X c #FFFF9D",
"8X c #FEFB95",
"9X c #EDE7AC",
"0X c #FFFEA4",
"qX c #FFFFAB",
"wX c #FAF2A5",
"eX c #FFFFB3",
"rX c #BDDDC2",
"tX c #B4E3C3",
"yX c #C3DFC5",
"uX c #C4E3C9",
/* pixels */
"* $ # = 2 $ 2 0 $ = X # # $ 2 w $ $ y e * = 9 i X # # # $ = = = $ $ $ # # # $ p ) d X # # # # $ # $ # # w e = * e 2 # # # % 9 0 ",
"# w = = * * 2 e X $ $ # # $ = * 9 # z 9 # # * : # * # # # # * % # # $ # # # 3 ^.1X%X5 X $ # # $ # # # X F T # & = * # # # # w * ",
"# # # = 0 # = * # # = 2 # $ * 2 = # X = $ X = i X # # # # # # = # # # # #   m =X>X3Xx X $ $ # $ $ # # X l n # # 9 $ # # # # = # ",
"# % # $ $ # # # # X # $ * $ * * $ # $ # # % & * * # # X : & # $ # # #   % +.J.( _._ . $ # # # # = & $ # # X # # $ y = $ # X $ = ",
"# $ * # # # $ # $ # # # $ # % $ $ $ = $ i : # $ $ # * $ # # # # # X . P '.z.p X o m w.J X * w X $ $ # # # # # # # # 9 # # # # $ ",
"2 * 2 # # # # # # & # # # : # = $ $ $ # = # # # # & $ # # % # #   x W.^.S   X * o J.*X=Xs # $ # # # X $ $ # # # X # X # # # * # ",
"$ # # # # # # # $ = $ # # # # $ # 0 = * % * # # = # # $ % e X 3 r.{./ X X # # % p w.=X^.4 # # # # 9 = # # $ # # # X w = * $ # $ ",
"# # X # $ 2 X $ & % * # # # $ # $ w $ X # $ # * w X # # $ # ; ^.t.3   # # X t ( P 5 J p X 9 # X X = 9 & # # # # # # 9 # $ $ # # ",
"# # 9 # * 9 i w X # = * * # # # # X # l $ # $ * X # # # # # ) J.  # 9 * 3 P ( p X $ X X # # # # # X & $ # # & $ * # # # $ # $ $ ",
"# # # # # X a 0 * # # # # # # # # # $ 0 $ X = $ & : * = X s {.a X X = c / B % # # # # # # # # # # # # # & # # # 2 # # # # # # # ",
"$ # & # # # # X # # # # # # # # # # # X * # 9 q # 9 # #   O.w.  < 5 j S c + # & * = * % # = # # # * * $ * $ # # X # 0 # $ # X $ ",
"& w w X # # $ $ # $ $ & # # $ = & # * & * & # 9 % $ $   4 +X@.y.'.$X%X<XrXp # # $ * $ $ # = * X # # # # # # # # # # = # # $ # # ",
"* $ = & $ $ & # # * * # & $ # # $ = w # = * # $ = X ; J ~.-X<X1X<X=X%X3X:X6 # # # # # # X * 2 # # # X $ # # w * # # # # # * % # ",
"# # $ # = $ , = # # $ # # # % w = * # # # # $ X . Z ^.<X<X=X&X&X=X=X%X3X@X5 $ # # # # $ $ # X # # # 0 # # # # # # 9 # $ * # # $ ",
"# * # & $ # $ * $ $ # # # # $ $ # & % X = : $ ; %.<X>X%X=X=X=X=X=X=X&XuX/.O # # 2 # X # # $ w w % # $ # # # # $ X = & * w $ * # ",
"$ # * * $ = # # $ $ # $ # # $ $ # % # # 0 = 6 W.2X=X=X=X=X=X=X=X=X=X%XuXK.O : # # $ # # # X F z X # # # # # # # # # $ # X $ i z ",
"= * # # $ X $ # # # # 2 # # # # # # # # X 5 !.<X%X=X=X=X=X=X=X=X=X=X%XuXj.  # * & # # = # # X X # # $ * 9 # # # # # # # # # # * ",
"# & X z = # * # & & # # $ # # # # # 9 # 3 W.%X%X-X=X=X=X-X=X-X=X=X=X%XuX@.  $ * & # = $ # # # 2 # # # # # # # # # # $ 0 = # # # ",
"# $ $ = X 9 = # # 2 X T [ X # # # & * X s `. X%X=X=X=X=X=X=X=X=X=X=X%XuXU 2 = $ X * & # # = # * # # # # # # & $ # # # 9 # * w $ ",
"# $ # # # $ $ # # $ # w w # $ # # % = 9 % i.%X%X-X=X=X=X=X=X=X=X=X=X%XyXJ X # # 2 # # # # # # # # $ # # * $ $ * & # # # $ # # # ",
"= # # $ # * $ * $ $ # $ % = 2 % $ # 2 9 O / *X$X=X=X=X=X=X-X=X=X=X=X=XuXv X # $ = # # # # % # # # # * # # # # # $ # # & # $ = # ",
"w 9 w & * 9 = % * X # $ $ % = = 2 $ # # X h $X$X=X=X=X=X%X%X=X-X=X=X=X@X3 # % $ # $ # # # # $ # # $ $ # # # # # = 0 $ # # # = X ",
"$ # # X # # # # = # # = $ $ # # l # # = # < !.%X=X-X-X-X<X1X-X=X=X&X<X&XI X # # # $ = # # # # # # # # * # # X * * i # # # 9 = 2 ",
"$ # % # # $ # $ 2 # # e * # $ = # # * # w o w.*X%X_.L.r.O.r.).>X=X=X%XyXK.O = # # # # 9 * X # # & # # $ # # * $ 9 : # % = = $ * ",
"* # $ # # # # * # # & # % # = , = * * * 9 X P =X+X^.i.y.L.r.+.L.=X=X-X$XI p X # # # # X # # # # # # # z F $ & $ = = # $ # # # 2 ",
"$ # # # # $ * = i # $ * = % # % # & = $ # # s `.=Xi.L R R / +.L.+X=X1Xw.K A X & # # # # # $ # # & # X K [ # & $ $ = # # % * # $ ",
"w $ X # % $ # # # X # # $ # # , * # # $ # # ; J.>X..*.G c b b J !.<X=XZ H c X # # # # # * # # # $ # $ # # * # # # # & X = * # # ",
"$ $ # # X # = 2 # w i X 9 = # % $ : * # $ # . ) >X_ Q b x c n m c =X^.p K d X # # # # # # $ # X * & # = i # # # # # 9 0 $ # # $ ",
"$ * $ # $ # $ : $ 9 y X K k X # # # # $ * # X Z <Xr.c b c c x Z < J.J.s H 1 # $ * $ # # # $ # # * # X 9 9 # * = # # & $ 9 % # $ ",
"= = # w $ # # $ = # # % X $ # # # $ # # = $ X 4 `._.d c v n v x % O.J.5 h % # # $ # # = # $ $ # = $ # # # # # = X # # X $ $ & # ",
"= k $ 2 # # * $ * 2 * # = # # # X # # # # X # o y.2X+.4 a x m s O w.<XA p w X $ $ # $ # # * $ # X & # # # # # 2 $ # # # $ = 9 9 ",
"0 2 X # = $ * = X w k * 0 # X # * 9 * # # # # X / >X<X+.s ; ; O Z $XrX%.X 9 = $ = # # # # # 2 = T % # # = # $ # # # * 0 X = 0 $ ",
"w $ # $ $ # 2 * # # # * 9 * # # 9 # # & # # $ X c %X&X<X_.t.O.y.%X=X1X_ % 2 $ & z # # # # # 9 * z = $ 2 $ # # # % X 2 0 X : $ # ",
"X $ # $ $ 9 * X = 0 $ # X 9 = # # $ # # # # # # < _.-X%X;X#X2X1X=X%X3XU . # # $ # # $ $ # $ # # X i : # * $ # # # # $ # # # 2 X ",
"$ $ # # $ 0 2 $ = i X # # # # # # # - 2 $ $ $ 9 o t.<X-X{.8.Q.`.%X%X2XS X * $ # # # # $ $ % # $ # * $ X * = X X 9 0 # # # 9 k = ",
"2 = = % k e # 2 # X # # # # i = % # # & & = * =   U <X%X_.7.e.%X&X&X1Xv = 9 $ = X # # X = w # $ # $ = % # % w y * # # # # q k 2 ",
"2 2 * $ % = # # # & # X # # * * # $ # # 2 # $ # X x %X=X*X$X'.=X=X=X&Xs = % $ * $ = > M $ $ # # # % 9 $ * # 9 = # # $ $ # # X # ",
"$ = X = $ * * # # # * w # # # # # X X $ $ # # # # ; ^.-X=X-X>X-X-X2X... = 2 0 # $ ; ,.4.C r # # % * X # 9 $ # # # = * $ $ # $ = ",
"* # * 2 # w 2 $ # # * y X # $ $ # : w i X # 0 # # X t.<X=X=X$XW.J.S . X # $ w = $   1.3.N X $ $ # $ # # $ = # # # # X * * # $ = ",
"i # X # & = X # 9 # $ % # * * & # 9 & $ # # # # = ; / 1X%X=X=X$X`.w.U Z 4 ; X X + ) U 7 $ * $ * # $ $ # = * # 2 X # # # # # $ = ",
"X i = & # w 9 # $ # # X $ $ $ 9 X X $ $ # # = $ = # v <X&X&X=X=X=X-Xz.z.J.J.+.P A ).*XU X $ # # # # $ * = = * w 9 # $ # # # # # ",
"X i 9 $ # $ $ # # # # # * # # * & # % % # # # # # X p _._.=X=X&X-XtXJ.+ s A ( +.r.W. XJ.o # # & $ $ = # # * = $ 0 * * # # $ # # ",
"# # $ # $ $ % $ # $ $ # # # # # * # # # # $ $ # # # v _.!.-X&X>X^.8.l.4 X #   o U _.>X%.  : $ = $ # : # # # 2 9 % = # = * $ # & ",
"= = $ # % # # 9 * # $ X w 0 # * # # # # # # # $ $ X ) _.^.-X&X;X5.2.<.m # # $ = d k.z.5 X # $ # # $ % = # X $ = # $ # # 9 = # # ",
"= # 2 # # # # # # * # # * $ $ 9 X # # = = # # # # O J.'.!.=X-X,X6.2.<.( X # # # B ; X # % # # # $ % = $ 0 2 $ $ # # # # = # 0 = ",
"2 = % = # = # $ $ # # # # # # # # # # & # X o % ; d %X!.'.~.$X_.%.^ '.).5 u 5 t V ; 5 # # # $ $ 0 = # X = 2 % # $ & # # # # # # ",
", % # $ 2 9 % = # X # # # # - # X . > d f a.c.~ R ..<X`.~._.J.$X^.]._.-X_ 0.S. .Y n.4XY t 1 ; % X # = $ * * & # # # # $ # $ # # ",
"# # = % 2 = : $ # $ # # # # . 5 H } 0.Z.a.wX6Xs.Q L.-X-X+X~.=X>X1X+X^.2Xr.X.D.{ ] 5XN.g.:.:.! V 6 X X & = # $ = $ # = $ # # # # ",
"# # # # X = # % $ = $ # o g | C.A.I.G.F.&.x.d.&.E ^.*X*X>X%XW._.).K.&X-X).} :.| C.&.9.&.D.G.U.A.:.E u . : 2 = # l e X # # # * # ",
"* $ # $ # $ 9 $ # # # 1 ! U.Z.p.c.#.F.G.G.C.C.;.) $X=X-X=X<X`.$.).-X-X-X%X..$.P.G.F.F.E.G.D.o.x.h.C.G.L + # $ = & : # # # & % # ",
"# # # * $ # 2 # $ # 1 0.OX|.a.0X0XV.A.XXT.XXXXR.A.@.O.y.J.`.k.z. XW.y.O...u.R.T.T.[.T.T.XXA.m.qX8Xc.Y.oX_ + $ $ 0 i # 0 = # 2 = ",
"# $ * $ $ # $ 9 * X I oX|.Y.p.9XN.f.0.XX|.Y.A.Y.OXR.0.! I B L H H J ! ;.R.XXT..XY.U.XXT.OXj.b.9XM.s.U.XXOXh $ = # $ # = % $ = 0 ",
"# # # # X # # 0 # < L R.D.E.C.o.#.X.F.G.C.p.m.h.;.D.P.R.OXR.! -.;.I.I.I.G.S.G.-.h.c.=.G.D.P.*.o.` ;.U.G.U.h o * # X # # # % $ # ",
"# # $ X # # X $ 9 t 6 *.P.S.D.G.G.P.D.P.' 8XeX6X9.F.A.U.XXD.b.5Xc.:.G.H.D.G.C.s.qX7Xm.=.P.D.G.G.P.G.D.G.! 6 % = # # X # % = $ # ",
"$ $ $ $ = $ X z >.# ; 8 | D.G.G.G.S.D.G.` }.4Xf.&.G.G.XX|.p.0XqXB.' F.G.D.G.;.a.9XN.g.=.G.D.D.D.D.G.A.W 6 % # X * * # # = = X = ",
"# # # $ $ # = 0 = = * # < V | ;.D.G.G.G.D.*.X.*.S.H.R.T.XXq.v.n.s.-.G.S.H.S.D.-.o.#.=.D.G.G.G.A.;.E h + 2 = # # $ % # $ * # # % ",
"# # $ $ # 9 $ 9 # # # # 9 ; < d L } *.:.A.E.U.U.D.P.XXXXXXOXU.F.T./.D.G.G.G.G.E.P.P.G.A.;.X._ H g < o = % $ $ , * # # # # # 2 $ ",
"$ # * $ * $ # # # # # $ # * X # O 3 V L H L E | *.:.S.F.G.E.Y.R.R.U.A.C.;.;.-. .} ! L H L f ; O : * # 2 = # 2 % # $ $ # # # & 9 ",
"# # # # # # # # * # & = # # # # # $ g A.-.! L J J H H H H H H H H H H H G G H J J L } 0.;.6 $ $ # $ * # $ $ * # # $ & # = # X $ ",
"& = # % $ # # # = $ * # $ # # # $ # < B U.R.I.;.=. .I L L L L L L L L L L }  .=.C.U.T.D.h o & 0 $ # $ $ & 9 = # # # # # # # $ # ",
"# * = & # # X % # $ 9 $ # # = * = # $ O f -.T.XXU.D.*.E E E R R R R E E ! ;.G.Y.XXY.o.g o # $ $ # X $ $ # X 0 z X * # # # = = # ",
"F $ # # # $ * = # # X $ # $ = * $ $ # = X 7 S =.R.oXoXR.D.0.;.:.;.;.0.D.XXoXOXR.X.B 1 $ # # X # # # # # # X = = # % # # # $ $ # ",
"9 # 9 $ # # * = % $ # 9 $ # $ = # # # % X # X 1 f J X.S.U.U.E.E.G.P.G.E.j.| S t ; X - # # # X * $ # # & # # # X # X X # $ # X # ",
"= * = $ # % 9 * # # $ % # * = # # # # # $ # # 2 $ o o > 5 f V V c c d 6 ; o . X # # $ # # # # * * # # # # # $ # # $ # # # # # # "
};
