/* XPM */
static char *pngwing_com_resized[] = {
/* columns rows colors chars-per-pixel */
"64 64 158 2 ",
"   c None",
".  c #060503",
"X  c #080704",
"o  c #0A0906",
"O  c #0D0C09",
"+  c #100F0A",
"@  c #13110D",
"#  c #18140E",
"$  c #161511",
"%  c #191712",
"&  c #1C1A15",
"*  c #1E1D19",
"=  c #221E16",
"-  c #211F19",
";  c #252017",
":  c #282117",
">  c #24221C",
",  c #29251D",
"<  c #2C281E",
"1  c #312A1C",
"2  c #262520",
"3  c #292621",
"4  c #2D2B23",
"5  c #2F2D29",
"6  c #322E24",
"7  c #302F29",
"8  c #2F3029",
"9  c #353126",
"0  c #3C3426",
"q  c #35332B",
"w  c #3A362B",
"e  c #3D392E",
"r  c #363531",
"t  c #393730",
"y  c #373834",
"u  c #3D3B33",
"i  c #3E3E39",
"p  c #413724",
"a  c #423824",
"s  c #483D27",
"d  c #433C2D",
"f  c #493E2B",
"g  c #413D33",
"h  c #4B402E",
"j  c #51442D",
"k  c #454135",
"l  c #4B4334",
"z  c #45433B",
"x  c #4A463B",
"c  c #4D493C",
"v  c #514732",
"b  c #544932",
"n  c #524C3D",
"m  c #55503F",
"M  c #5A523F",
"N  c #464642",
"B  c #484741",
"V  c #4D4B42",
"C  c #4C4D4A",
"Z  c #524E43",
"A  c #555145",
"S  c #5B5445",
"D  c #5C5847",
"F  c #54534A",
"G  c #5A5649",
"H  c #5D594C",
"J  c #555550",
"K  c #585751",
"L  c #5C5A52",
"P  c #5E5E59",
"I  c #615745",
"U  c #635A47",
"Y  c #6A5E46",
"T  c #625C4C",
"R  c #6B5E49",
"E  c #625E53",
"W  c #615F58",
"Q  c #6A604C",
"!  c #656154",
"~  c #6A6455",
"^  c #65635A",
"/  c #6A665A",
"(  c #6D695C",
")  c #716650",
"_  c #756B55",
"`  c #796D56",
"'  c #726C5C",
"]  c #7B725C",
"[  c #686761",
"{  c #6D6B61",
"}  c #716E63",
"|  c #757264",
" . c #7A7564",
".. c #7D7867",
"X. c #75746A",
"o. c #79766A",
"O. c #7D796C",
"+. c #757671",
"@. c #777972",
"#. c #7D7C72",
"$. c #7D7F7A",
"%. c #81755D",
"&. c #817A66",
"*. c #837D6C",
"=. c #897F6A",
"-. c #817E72",
";. c #7F8075",
":. c #7D817C",
">. c #85806E",
",. c #88826F",
"<. c #858274",
"1. c #8A8574",
"2. c #8E8976",
"3. c #85847A",
"4. c #89867A",
"5. c #8C897C",
"6. c #918A77",
"7. c #928D7D",
"8. c #96917F",
"9. c #98927F",
"0. c #7D8281",
"q. c #848783",
"w. c #868983",
"e. c #8D8C81",
"r. c #918E82",
"t. c #959284",
"y. c #9A9585",
"u. c #9E9886",
"i. c #93938A",
"p. c #99978A",
"a. c #9D9A8B",
"s. c #8F9492",
"d. c #9D9C91",
"f. c #A29D8D",
"g. c #A19F92",
"h. c #A5A18F",
"j. c #A5A294",
"k. c #AAA695",
"l. c #ADA897",
"z. c #A6A59A",
"x. c #A9A79A",
"c. c #ACAA9B",
"v. c #B1AE9D",
"b. c #B3B19E",
"n. c #AEADA2",
"m. c #B0AFA2",
"M. c #AFB0A6",
"N. c #B5B3A4",
"B. c #B8B5A3",
"V. c #BAB8A5",
"C. c #B6B6AA",
"Z. c #BCBAAC",
"A. c #BEBDB3",
"S. c #C5C3AF",
"D. c #C5C4B2",
"F. c #C8C6B1",
"G. c #CBC9B5",
"H. c #CECCBA",
/* pixels */
"                                                            l.b.b.h.                                                            ",
"                                                        z.k.j.l.l.u.y.                                                          ",
"                                            ;.3.t.8.8.p.g.N.j.a.j.u.y.a.t.                                                      ",
"                                        :.i.e.t.z.j.y.u.j.N.N.k.k.j.7.5.5.7.b.                                                  ",
"                                    s.:.5.a.x.C.N.g.7.g.z.z.Z.N.l.a.5.4.;.8.j.j.b.                                              ",
"                                    w.e.j.l.z.c.g.y.7.8.7.6.j.A.b.M.j.p.<.2.y.y.9.j.                                            ",
"                                  :.:.a.z.x.x.j.u.t.t.,.7.6.;.j.k.c.c.a.8.t.f.u.a.p.l.H.H.G.F.G.D.G.                            ",
"                                :.+.3.3.i.j.j.a.y.5.1.2.6.2.6.a.n.n.c.7.7.2.1.y.t.7.j.Z.F.V.b.Z.V.N.c.c.N.                      ",
"                            i.e.:.@.;.;.j.z.a.a.p.5.O.,.2.*.O...p.n.k.5.8.2.>.] 4.,.8.y.l.V.V.b.b.N.x.k.c.j.b.                  ",
"                          e.e.w.q.#.4.:.r.d.a.g.j.8.>...&. . ...;.3.;.i.u.;. .;.1.;...>.;.5.B.S.B.b.c.a.j.a.u.y.                ",
"                        e.5.w.:.:.;.3.o.@.e.a.j.l.j.t.O. .' _ ' ] ;.' ;.<. .' ;...] ] ' / | | 1.7.7.y.t.t.9.y.<.                ",
"                    e.p.i.w.s.#.<.2.5.<.3.3.y.a.f.a.t.o... .' ~ (  .( ~  ...;.;. ...] ' H ! ( ( X.4.;.<.>.2.2...|               ",
"                    -.w.w.w.5.7.u.r.y.f.k.5.7.u.y.i.y.O.....*.'  .;.] ;.>.;.;...<.>.&.` ~ ~ { } ;.1.<.;.5.i.,.'  .              ",
"                  i.q.0.$.o.4.f.l.l.k.f.l.u.7.9.4.2.a.y.2.6.y.t.6.2.,.>.1.8.5.>.>.>.,.>.>.( ! } ;.;.;.| ;.7.7. .~               ",
"                  #.-.0.{ ! } O.j.j.k.l.v.l.u.u.y.r.9.6.<.y.j.j.9.y.8.;.t.d.a.7.>.>.1.1.>.~ Q / ;.' Q ( <.4.7.~ E ~             ",
"                L #.X.o.O.W } } t.f.f.j.k.l.h.2.5.2.8.5.4.5.d.d.j.x.g.y.a.d.d.4.>.......] ~ D E Q ) ( ;.2.;...z x F V           ",
"                  X.X.+.+.B | -.7.f.f.y.y.u.t.5...-.3.4.3.3.i.j.z.g.n.n.r.i.e.3.o...( D ~ D l S D Q ! ;.;.' c w F m N H         ",
"                  V [ C P u +.-. .*.6.y.u.u.f.u.7.5.4.t.p.t.j.g.c.j.g.j.i.i.5.-.O...| ( T k v A Y D ! ( 7.( m c m * i F         ",
"                  F J y y g e.1.~ ( | <.r.u.y.7.9.y.y.i.u.p.a.N.Z.A.c.d.z.z.t.3.#./ ! ~ n l w z m Y ~ ;.;.Q D D z + u c         ",
"                  ^ P C C K { U G F V ! -.1.f.r.i.p.5.5.5.r.e.x.A.n.z.z.n.j.e.t...o...( H w q H D Y Y ;.' D c ! N + 3           ",
"                V ^ W y +.<.T x A ( / / O.o.<.r.r.t.8.e.3.<.7.7.p.t.d.m.c.t.4.e.*.o.O.~ Z z S ! D m T ~ D D T A > @ $           ",
"                F g J K #.L D m F o.<.| o.#./ F o.<.r.d.t.5.7.t.4.-.d.p.p.2.7.5.O.O.*.H q 6 , > ; 8 k k v c w 8 $ $ $           ",
"              -.W V P W } } ~ S Z ^ <.5.3.3.F z ! o.3.r.e.d.t.8.r.e.e.e.3.4.5.o.O.o.| x & O + o , u , g n 6 n k & @ @           ",
"              X.[ [ [ K F C S x F ( { { o.#.#.{ E | X.3.e.t.1...&.*.e.-.O.{ Z L -.X.G V w + o 3 n z A D 8 q m ; % O $ *         ",
"            i.X.4 C L [ N 4 x A ^ <.<.X.{ ;.;.;.;.'  .;.<.X.} ;. .| 4.*.} / W / A V ( G g 4 7 G A S / / u Z w $ r $ @ &         ",
"            4.3.z x K X.X.V c ( } @.5.X.' ;.] ;.;.~ ;.;.;.] ;.<.=.*.-. . .*.O. ./ S / T g V ~ ) z W E F D z & & q $ $ *         ",
"          w.3.o.V x W } X.~ A F E X.;.;.;.;.;.i.t.' ..1.;.] ;.;.' { &._ } X.( } ] `  .R S '  .E ! o.| ~ G O.#.G k 8 & 2         ",
"          o.| ( g z ^ o.X.( H N z ( } } ;.' ;.;.! ! | ;.1.;.;.' ~ I E E ~ &. .=. .=.=.) S  .=.H ^ o.| ~ ' r.2.} E } x c         ",
"          X.| L x Z E E E ~ ^ J V u D L H ( ~ ( F c i L X.| ;.! ~ I M Z Z E  .*._ ' _ %.%.` ' F ( ^ H L o.{ A g | ( &.|         ",
"        X.o.{ l g l Z Z Z A H V y 4 t z B m ! L z q 2 * V ! ! / ~ M 6 w - % 7 g S R R ` ` ) x w E | O.[ L q & , g W O.<./       ",
"        X.#.^ u d 9 g V x Z A L n x 4 & 8 N t H W E K y 8 u x c G G x g L g % @ 6 v p l f l 6 4 A ( { E x O o % k } ! o.|       ",
"      V P { V u g w d d g z c L F H D z c D 8 & i z V A q u 4 8 6 z x V L F y q g + + % 1 Z / | ..o.X.( 4 O O : ~ ~ ~ / ~       ",
"    } / P F i w 9 4 9 < 9 e u z x F A D V c q & - & 7 w w 5 & o o > n F w c Q D Z 6 0 f I V E o.-.e.-.' Z g $ > E / ( [ }       ",
"  X.X.C F u % - - < , , 4 9 t c n c n n u e t 6 6 w c T Z 3 @ @ $ 6 g q z F c H I U _ R g , Z } e.e.r.-.4./ & g ( _ ( &.-.-.    ",
"| { { F z r O $ O @ % , 4 9 8 u F A n k d w 6 - + @ 6 n S g g d q 9 u x A u c F d d f T E g g C [ -.d.d.y.-.G E %.%.} -.6.r.y.  ",
"V ^ X.{ L F & . . X & > < 8 4 t z m x l f l I w + . X = F G Z f e q G G k 6 u 8 3 5 g H } | [ K X.r.r.d.d.*.E ( } [ -.}  .1.7.  ",
"- V P H L V * . . . + 9 e u q 4 < < 9 h l W -.Z 0 - O O - 4 d q u c k g ; g n < 3 Z d & g F ^ 3.i.r.-.w.r.-./ %.L  .-.{ E T g y ",
"  8 i { N 2 O . . . & z z i 4 + @ 9 w 0 d c L S I T w % % 1 7 J ;.u < & O % & 8 d > @ O + - K w.+.W } -.-.} T ' X.} g g B - 7   ",
"    $ N i O . o 2 4 i C q q q 2 < = w x l b G D Z F G n p = - g y O . O ; & ; m g # O % $ $ V W g K K C P E H /  ./ 2 - & % 2 A ",
"      & & O o & N r 8 z q 3 q e w & w l d 0 9 : 9 v Z 9 5 O O @ @ @ o < n M Q ~ K 3 3 z 2 $ V W F W -.&./ / ' / { ( y $ % % & - ",
"      $ $ O O + 2 3 $ > 5 5 > > - 4 ; 9 0 % ; 4 6 g Z x 6 = 5 f k k w l x l g k Z n g - & - - 3 ^ -.3.{ E ~ S S E E g & & & & * ",
"        @ O O X $ & - & 4 q * > < < ; 9 : < 4 < C B g E / -.' n k x Q m h l l : @ = 3 > 7 7 5 g W W B 2 = : 6 6 U U - $ & & & * ",
"        O + O o X X = q q 3 & 2 4 ; ; # & 4 , q C T ^ x W L n f a a l 8 < , # o X - Z g 5 W o.} F S , O O o + @ 7 g 6 $ & & - * ",
"          + O o X . + $ O o O + & ; % O + O , A M %.t.I 6 p f f s 0 % # @ O o @ q W F 5 5 B E } X. .V + o o + + + - 5 & & & *   ",
"            + O o o . . . . @ o . X X X o X , s f E r.*.f f d p 1 = X X X o o u I S d q g 6 d B Z U y d # o + + + + 3 2 & & &   ",
"              + o o . . . . o o . . . . X o % & f H ^ T b T E 9 % ; O o X X > H 9 2 d G U n G E E g - 7 @ o O + @ @ & > & &     ",
"                $ o . . . . . . X X X o @ : # - x ^ I ( } &.[ H e ; # % @ + c H V c I ' _ U W { ~ e d 3 o o + + + # > u *       ",
"                  o X X . . . X . X X X O 3 4 , q g x ^ { W W E M j l l j h U Q E E / E U V E ) U v g 3 o X + + + # r V &       ",
"                    o o o . . X o o o O o O * - 2 6 g G E G W E f f g g f f x g G U ^ I I G I T ~ g : + o o O @ @ - q 8 >       ",
"                      o o X . X . . . o . . . O $ - B E W { G g : = : p c S Z 3 g Z c l E T S Z z , % X o o O O & 8 * * -       ",
"                      O o o . X . . . . . . . . X O 2 V g 4 - $ @ # 6 p 4 d t - @ % # = 6 2 & $ o o o X o O O O $ * $ * *       ",
"                      o O o . . . . . . . . . . o O O + - 3 + o O = 3 5 3 - @ O X o = = X X . . X X X o o o O & * $ @ $         ",
"                        o o X . . . . . . . . . X X o @ & & o o # d g i 4 = o o X # # o X X X X X X . X O O O & $ +             ",
"                          o X o o . . . . . . X X X X o X X @ % : % @ + o # # o X o o o o o X o o . X O + O O + +               ",
"                            o o o o . X . . . . . . . X o o @ * @ o O O o - 6 # O o o o o o o o o X X o + O o + $               ",
"                              o o X o o X . . . X . . . o X . @ @ + O O # , = # O O O O o o o X . . X X X O o                   ",
"                                      O o o X . . . . . . . . $ - * + O O + . o O O O o X o o . . . . o o o                     ",
"                                      O o o X X . . . . . . . o O O O . @ . O - @ o X . X o o . . . . o O                       ",
"                                        X X X X . o o . . . . . . . O O o o + 3 O . . . . X X . . . X X                         ",
"                                            X O O O O o o . . . . . O . O . . o . . . . . X . . . .                             ",
"                                                    O O O o X o o . . o . . . . . . . . . . . . . .                             ",
"                                                              o o . . . . . . . . . . . . . . . .                               ",
"                                                                . . o o o . . .                                                 ",
"                                                                        O o .                                                   "
};
