/* XPM */
static char *shap0_resized[] = {
/* columns rows colors chars-per-pixel */
"64 64 239 2 ",
"   c #020204",
".  c #0B0103",
"X  c #040907",
"o  c #02010C",
"O  c #0B030C",
"+  c #050A0B",
"@  c #0B0B0C",
"#  c #080807",
"$  c #140102",
"%  c #1C0102",
"&  c #120C0D",
"*  c #19060A",
"=  c #10100F",
"-  c #030213",
";  c #080716",
":  c #040A15",
">  c #0A0A15",
",  c #060618",
"<  c #080718",
"1  c #0C0B1A",
"2  c #060919",
"3  c #110D13",
"4  c #100F1D",
"5  c #110712",
"6  c #0D1213",
"7  c #0F131B",
"8  c #05141C",
"9  c #131313",
"0  c #1A1515",
"q  c #12121D",
"w  c #151B1B",
"e  c #1B1B1B",
"r  c #1A171A",
"t  c #230102",
"y  c #2B0101",
"u  c #2C060A",
"i  c #240A0B",
"p  c #2A0C0C",
"a  c #24060A",
"s  c #330102",
"d  c #3A0101",
"f  c #330909",
"g  c #3C0B0C",
"h  c #330609",
"j  c #370B11",
"k  c #2D1615",
"l  c #211D1C",
"z  c #261616",
"x  c #3C1313",
"c  c #3C1B1A",
"v  c #341818",
"b  c #2B0F10",
"n  c #20201F",
"m  c #37211C",
"M  c #151522",
"N  c #151A24",
"B  c #1A1A24",
"V  c #1C1D2A",
"C  c #181723",
"Z  c #251D26",
"A  c #321C20",
"S  c #1E2122",
"D  c #1C222C",
"F  c #182424",
"G  c #1E2532",
"H  c #1F2C35",
"J  c #232324",
"K  c #2B2222",
"L  c #23242C",
"P  c #24292A",
"I  c #2B2C2C",
"U  c #29262A",
"Y  c #322A2C",
"T  c #392627",
"R  c #34302D",
"E  c #232632",
"W  c #232A34",
"Q  c #2B2D34",
"!  c #232B3B",
"~  c #2A2E3A",
"^  c #2B3133",
"/  c #2A323C",
"(  c #2A3438",
")  c #343434",
"_  c #3B3434",
"`  c #383836",
"'  c #33353B",
"]  c #36393A",
"[  c #3B3B3B",
"{  c #373839",
"}  c #352C34",
"|  c #430201",
" . c #4C0101",
".. c #430C0B",
"X. c #4C0C09",
"o. c #540000",
"O. c #5B0000",
"+. c #570D0D",
"@. c #431514",
"#. c #491A18",
"$. c #571616",
"%. c #630101",
"&. c #6B0000",
"*. c #6B0909",
"=. c #720102",
"-. c #7B0103",
";. c #750B0C",
":. c #75191A",
">. c #641A15",
",. c #572B19",
"<. c #512D1D",
"1. c #69321A",
"2. c #492B2B",
"3. c #442A28",
"4. c #582A2A",
"5. c #423B3C",
"6. c #4D3E3E",
"7. c #453635",
"8. c #533B3A",
"9. c #51302F",
"0. c #672527",
"q. c #693236",
"w. c #792E2E",
"e. c #5B423A",
"r. c #262F40",
"t. c #2B3443",
"y. c #2A3442",
"u. c #343A44",
"i. c #3A3C42",
"p. c #333B4B",
"a. c #363845",
"s. c #333F51",
"d. c #473740",
"f. c #583545",
"g. c #3D4242",
"h. c #3C434D",
"j. c #384545",
"k. c #3B4453",
"l. c #3B465A",
"z. c #434444",
"x. c #4C4243",
"c. c #42434C",
"v. c #44494C",
"b. c #4C4D4C",
"n. c #4B4748",
"m. c #514343",
"M. c #524E4D",
"N. c #5A4844",
"B. c #5A524A",
"V. c #464C52",
"C. c #4A4B55",
"Z. c #475153",
"A. c #4D5253",
"S. c #4D555B",
"D. c #525252",
"F. c #555859",
"G. c #5B5C5C",
"H. c #585555",
"J. c #534C52",
"K. c #754B4B",
"L. c #7F4E5B",
"P. c #635554",
"I. c #785B5A",
"U. c #684646",
"Y. c #525B6D",
"T. c #495262",
"R. c #775565",
"E. c #685062",
"W. c #5C6163",
"Q. c #5B6271",
"!. c #646565",
"~. c #636B6B",
"^. c #6A6A6A",
"/. c #636469",
"(. c #7B6668",
"). c #686C77",
"_. c #796E7B",
"`. c #6B737B",
"'. c #747678",
"]. c #830004",
"[. c #880305",
"{. c #92090A",
"}. c #851C1C",
"|. c #8D150A",
" X c #B73200",
".X c #8A3737",
"XX c #993738",
"oX c #8E2A2C",
"OX c #A33638",
"+X c #DA5D00",
"@X c #D04800",
"#X c #E15700",
"$X c #E25E00",
"%X c #EF5D00",
"&X c #EB6400",
"*X c #8D3842",
"=X c #A13B40",
"-X c #954449",
";X c #86535E",
":X c #935050",
">X c #A54A4A",
",X c #A05C5C",
"<X c #875C67",
"1X c #856667",
"2X c #9B6969",
"3X c #97777A",
"4X c #816C79",
"5X c #A27676",
"6X c #A56868",
"7X c #6D7686",
"8X c #787986",
"9X c #827581",
"0X c #7C8389",
"qX c #788996",
"wX c #7D929B",
"eX c #7E9191",
"rX c #838484",
"tX c #848A8A",
"yX c #8B898A",
"uX c #968587",
"iX c #898C93",
"pX c #889398",
"aX c #939393",
"sX c #999797",
"dX c #92949C",
"fX c #98999B",
"gX c #9D8C90",
"hX c #A28589",
"jX c #A99898",
"kX c #8799A3",
"lX c #969BA4",
"zX c #99A4A9",
"xX c #8EA6AE",
"cX c #A4A3A4",
"vX c #A5A9AC",
"bX c #ABACAD",
"nX c #AAA5A6",
"mX c #B2B2B2",
"MX c #AFB0B0",
/* pixels */
"< ; - 1 q ; q C - 1 o - - , q V ; ; L B 1 4 ; w % d i - ; 1 4 1 - ; ; - - u s % o - - - - - - - - , - - V N 1 , M 4 - - - < C V ",
"- V 1 1 < ; M M - - - - - ; 4 < 4 - ~ q o o $ a @.8.1 o - - ; ; - - ; - o r 8.@.% $ o - ; - - ; - - - o d.C., , 1 1 - - - - B , ",
"- - - 1 B - < < - - 1 q - ; ; 1 q - - o . t @.K Z.[ o - - - - q - - - o - o z.n.K @.% . o ; - ; ; - - - ~ ~ - - 4 , - - - - 1 - ",
"- ; - ; ; - - - - - - - < ; 1 < < o   t a Z v.) e.r o - 4 ;   o   o - - - o J [ ` z.Z a t   - ; 1 ; - - - o - o , Z 4 , - o ; 1 ",
"- ; < - - - ; - ; - - - - - ; < o $ s 3.) P j.e.F o ; ; - - # I I # - 1 , - @ J z.e.F ` 3.y . o ; ; - - - - - - - o M - - - - , ",
"q < q - o - - - - < - - - q - ; % d 5.b.b.I ^ e S J ; - - o J { { r - ; < - J J n ) ^ A.b.7.d % - - - , ; - - - - - - - - - < - ",
"- - - - - - - - , 1 ; - - - o y @.5.7.m.G.z.9 I R n o ; > o V ` ` B o - < + n R J 9 z.G.6.7.[ ..% q 7 - - ; - - - o C 1 < < - - ",
"- - - - < q - ; , ; < - - o % x _ 2.8.N.D.r I I S P @ - #   J ) ` e   o o > I n R I n H.f.8.2.[ g % 1 1 - - - - - - M ; ; < - - ",
"- - M - 1 q L V o - 1 ; < o % 2.2.D.W.n.J = J e ) I # -   = R ` { I & # B @ ) R e J = P b.G.M.2.3.$ - ; - - , - ; - o - ; - , ; ",
"- - - - - o E B < - - -   $ + 9 b.b.0 # @ I S ) ) w 9   % T g.` { g.c $ o 9 e ) I S I @ # n D.z.& + .   , - - ; q - - - - - - - ",
"- ; , - - - - o - - - o e ..s $ w = 9 b.J R [ [ 0 I J . y m g.g.[ g.c t . P I e 5.[ I J b.@ w 9 * d ..e o , - - o - V - ; - - ; ",
", V V o - - ; ; - , - 9 7.5.+.| # 9 A.^.J J [ I J ) R 3 t c g.z.z.g.x t 9 R ) J R [ J I ^.b.@ &  .X.5._ 9 o - - - - < - ; - - - ",
"< - 4 , ; < ; - ; ; r [ 7.x.8. .# ) ^.R 9 I ) J { { ) r t x b.N.B.n.x % n R ` ) S ` I 9 ` !.I . o.m.6.5.{ @ V < - - - - - < ; - ",
"- - - , 1 - 7 1 - > ` i.z.x.4.s 6 H.)   n J e I ) J I P % @.B.e.e.B...% I P J ` I e n e   z.D.@ d 8.6.z.z.) - - - M - ; < - - ; ",
"- ; ; ; ; ; ; < - 9 [ b.x.m.+.t I b.# e 9   @ ) D.H.` I % X.B.>.>.b.d * I ` G.D.I @   9 r = D.F y $.m.x.b.) 9 - o 1 , 1 Z ; < o ",
"; - < < ; 1 - - > [ I ` F.8.o.e ) J w e # # R yXMXbX) w % X.e.|.|.e.X.% w g.mXbXrXI # # e 9 J ) z o.m.H.) ) { - - - - - - ; E ~ ",
"< < - - - - ; o P z.A.] z.+.d P F n J e   J cXMXnX[ e & s @.3.@X@XR @.y & w b.bXmXfX9 @ e J l F S | >.i.[ M.z.V o ; - - - - - < ",
"- < - Q 1 - ; 1 [ z.b.H.g | @ i | w J 0 0 aXMXbXb.J S % f ^ ,.%X+X<.I s % J l G.MXmXrX9 r J e  .* @ | x F.n.z.[ - - - C 1 - - - ",
"- ; ; 1 o M < L z.b.A.$.| + F K.].p J = ^.mXbXG.9 I 9 t k ( 1.&X#X1.( p % 9 I 9 ^.MXmXH.= F s [.P.w #  .4.A.b.i.S o ; C - < V ; ",
"- ; - - - 1 > / h.A.4.o.* . q.eXoXO.F n aXMXfXe e l & t z ^ 1.&X+X1.( b t & J e J cXmXyXe F %.XXtX4.  i o.9.A.v./ - - - ; - - - ",
"< , ; - - ; q i.h.x.O.i + [ }.rX6X=.w ` bXvXiXn n e @ t z [ 1.&X+X<.[ i t @ e e J zXvXcXI e -.5X4X}.` + i O.n.v.i.> - < - ; 1 - ",
"V M B ; 1 q G h.V.+.y w @ W.oX3XjX[.@ A.bXzXiXe r l @ % b g.,.#X@X3.j.b % @ n 0 J dXlXvXg.* {.cX1X.XF.# w s $.V.h.D - - - - 1 o ",
"; - - - ; o y.h.z.g X @ 9 Z.XX3XnX-.  !.zXlXiXI J e 9 . p ) m  X Xm R f . 9 e P ' pXdXvXD.  }.bX6X-Xj.9 X X ..n.h./ o - - B 1 4 ",
"; - < - o M p.v.e.X $ ..@ Z.>X2XnX*.  '.zXdX8X!.b.9 e @ t k ` {.;.` k % @ J 9 D.P.tXdXzX!.  :.MX,X>Xj.= | . = x.h.p.q - 1 1 , < ",
"< - ; - o W p.v.J   %.U.9 Z.>X6XjX%.+ ).lXiX^.D.b.r J 0 $ k b.4.4.b.k $ 0 J r D.b.'.iXlXW.  ;.vX,X>Xj.w K.o.  J V.p.D - ; - - q ",
"; - - - > y.h.I   d :X~.n h.XX5XhX].@ b.lX'.G.z.M.e e 9 % T M.M.M.A.v $ w r J D.z.!.'.dXi.& [.cX6XXXj.n `..Xy + ) p.r.o ; < - ; ",
"V ; - o C p./ + % :.tXF.e z.OX9XdX{.k w ^.!.A.] z.) e = % R b.b.b.b.Y % 9 e ) z.{ D.^.!.w g {.zX3XXXj.9 !.rX;.$ @ u.p.7 ; 1 - - ",
"; ; - o ! k.S X O.I.aXb.e d.OXuXlXoXO.6 ) F.[ I ) ) J & % ` z.` ` z.R % & J ` ) I i.F.I 6 %.*XxX3XXX] e H.aXK. .+ J k.G o - - ; ",
"; ; ; 1 p.V 6 t w.0XaXR 6 M.=XpXkX(.-.p M ' ^ J P I e $ t { { [ [ { _ % & r I P S ' ^ w h [._.kXuX=Xv.6 [ sXrX:.% 6 L t.q ; ; ; ",
"1 1 o D W w i *.(.aX0X+ ^ 3X-XpX8XqX0.s 6 q L 0 B B = . i ) ) b.n.) ) t . 9 B B 0 D 9 6 d q.qX8XpX-X9XJ = yXaXI.%.* w ~ N - < - ",
"1 E o q n z %.w.tXfXG.+ '.3X<XqX7X`.c.h & @ 7 > @ 9   . p ) ` D.M.` ) i     = @ 9 q # & j C.`.8XwX;XhX~.@ ^.sX0Xw.O.e J 7 @ M M ",
"B q   4 P p =.(.tXaX) e.zX<X8XqX7XT.a.r # # # o # o o   z I [ D.D.{ I i   9 6 + > # # O C u.T.7XqX4X1XzX` 5.aXyX(.&.i I - ; B ; ",
"V ; o J S t w.tXyX^.B dXdXL.7Xv.W w F q     O - - > >   0 R z.D.D.[ I 0   q - < Q o     M V e ^ C.8XL.lXtXw '.yXrX:.% P B 1 ; - ",
"o ; ; B 5 t (.tXyXP !.zX_.R.G   e &   + o - - - - - q o @ Y z.b.b.z.I #   o - < - - ; # +   = r   W R.8XvXG.I aXtXI.t 5 w - q - ",
"; - - - i i ~.aXz.T cXpXR.Y   B ~ C @ # ; ; - q ; - < @   R g.z.z.[ I   o ; ; - - - - ;   @ N ! e   } <XdXfXk A.aXG.i * - M L 1 ",
"4 4 1 > | k b.'.$ ,XxX9X9.  3 t.D > 9 > , 1 1 ; ; ; - -   J { z.z.{ J   M M ; 1 o - - o @ 9 7 G y.@   f.8XxX-X$ 0X[ k | o B E q ",
"q q < *  .7.[ > *.jXwXL.l + ~ W 7 6 J & 1 - , - ; - , <   r ) n.z.) 9 o M , ; 1 ; 4 - ; 9 J @ q W ! # A R.wXuX%.7 g.2. .O - - - ",
"- 4 - t X.P.W y -XpX_.d.+ J ! N + @ J w o - - - - - < 1   9 ) z.z.) @   < 1 B - ; - 1 o e J @ + V ! B + f.8XkXXX% ' H.| % - ; < ",
"; - - t #.z.5 ;.9XqXE.Z # W G @ o @ 0 n # - M ; - - 1 < o # ) z.z.) # o ; < B < ; - ; + n 9 o - > G W + U R.wX3X&.> n...t - ; 1 ",
"L - o s c 8 d .XpX_.d.  q W 7 o - 1   = > o - - ; C ; < o # ` [ [ R # o 1 1 , ; < , o 9 @   ; <   M H 6 @ f.7XwXoXy : @.y o < 1 ",
"o E 5 s * : O.1XwXJ.O @ G V   ; - - ; #     1 < < < ; ; o # ) ) { I # < - - o - - -     o - - -     D G + & E.wX<Xo.- * d o - - ",
"- V 0 y - . w.pX).9 . V H 7 w # , - < ; o     ; - - - < -   I ) ` J   - - - 1 M -   # > ; - o , # w 7 ! B   e `.tX0.  o y O - - ",
"- - . % - . I ] @ + D r.q w I   ; - - - - ; - - - 1 M 1 -   J { ` e   - - ; - B q o - ; - 1 ; < o I 9 N r.N # > [ K   1 t O - < ",
"1 1 * o 5 f w # 7 H r.G > # J @ o - - - o - ; ; - < < - ;   e ` ) w   - - - - < o - - - ; - ;   @ I   > H y.G 6 @ e f o . O , - ",
"> - 3 o $ #.W.Q.l.t.r.q o o = 9   - - < 1 - - - - - < o -   9 ) ) 0   1 - - - q 1 - - - , - -   r @ o o N ! t.T.Q.W.@.O : o V 1 ",
"r 1 O > t 3.S.Y.s.r.G o - ; o @   o - < , - - - - - - - -   w ) ) 9 o M - 1 q - ; - - o - ; o   # o ; o + G r.l.Y.V.#.% o   - - ",
"1 < > > s R k.k.t.! M o - - ; -     - ; - - - - - < ; o -   9 ) I = # - ; < B 1 ; - - o V >     o - 1 < o N ! t.k.v.T y - ; - - ",
"- - 1 > d d.u.t.r.G + o - - - < 1 M < - - - - q < , , - ,   9 ) R 6 - ; - < - - - - - - - - - ; C ; - , ; > ! y.t.u.7.d - - - - ",
"- - - o y ' k.p.! C r > ; - - , , 4 < < < ; - 1 M o - - 1 @ 9 ) R @ o - - ; - - < q - - ; 1 - - - - - , > e B r.p.k.} t - - 1 - ",
"1 - - ; h I W y.y.> 9 # o - - - ; - , , - - - - - - ; - - o 9 ) ) 9 o - - ; - - , o - - - - ; ; 1 M - - @ # 7 t./ W U s - ; > - ",
"- - - O g a./ E N o -     ; < - o L M - - - ; o 1 M - - ; o 9 ) ) = ; ; - - - M 4 - - - - - - ; - 1 -     - ; F H / a.g > - q 1 ",
"- - 1 O a u.y.! 7 o - - - ; - 1 ; ; - - - - - ; L 1 o - -   9 ` ) @ o - ; - - 1 ; - - - - ; - 4 M - ; o - 7 o q ! t.' t O - 1 C ",
"- - - O h Q W L # - - q , ; ; B ; o - - o M M - < - - - 1 M 9 [ ] @ o - - - - - - - ; - < , o W E - - 1 - ; o @ E W Q h O < ; - ",
"- - ; o u / ~ F = 3 - M - - < 1 - - , - - M , V B - - - ; > = { ` @ o - - - - ; - - , o - - , o o < - - - V 9 = D W } u ; 1 ; - ",
"; ; ; - t Y W 9 n I o - , - - < ; , - ; , - o 1 < - ; ; - o # ) ) # - - ; ; ; M - - - - < ; - - - M 1 1 1 > R 0 r ~ Y % 1 1 - 1 ",
"- - - ; % T Q > @ 9   - < - , ; q - - < L M ; ; - - - - ; - # Q I   1 - ; - - - - - - ; , - - 4 L ; ; - q   9 = 9 ^ A $ 2 - o ; ",
"- - ; , . v P @ o o - o C 1 - - - - - - < ; C - - - ; ; o -   I J   M M , - - - 1 - 1 ; 1 1 o 1 q - - 1 1 - o o @ ^ k . - - q - ",
", - < , ; p P # - - - ; - < - - - 1 ; o - - o ; Q 1 < < - -   r 9   V 1 - - M /.; < 1 < ; 1 - - 4 < - q 1 - M > # I i o , - , C ",
"- - , - - % l # < - < < - - - - - M M M - o a.C M ; - , < - o # # o - - - - , C < < - - - , ; ; - ; < - ; < < - o z * - 1 - - - ",
", 1 - 1 , . 0   1 - < ; ; - - - - - B W C o 1 - - o ; ; ; < o     ; - - , , - - - - - - - - ; B - - ; ; < M < - + 0 . - - - < - ",
"- < 1 , - - @ > - ; M ; - - 1 , 1 - o < ; - - ; ; ; - - - < 1 o o M , < < ; M < - - - - - - - ; - - - ; - o V ~   & o - - 1 1 - ",
"a.; - - - ;     - - o ; - ; < , ; ; ; < - - - < - ; - - - - - o 1 ; - - , ; - ; - - ; ; - - - - - - - - - o < 1   > - - - ; ; o ",
"M - M ; - - - # < ; - M ; ; ; 1 - - ; < - - o C M - - - - - - - - , - - - q - - - - < - - - o < ; - - ; - - o -   o - - ; - - - ",
"1 ; 1 ; - ; M > - - ; ; - < 1 - - - - - - - - q 1 ; - - - - < < - < o - - - - - - - ; - - - - < < - - - - - , - o , - o - - - - "
};
