/* XPM */
static char *skiliton_resized[] = {
/* columns rows colors chars-per-pixel */
"64 64 201 2 ",
"   c None",
".  c #2A1E14",
"X  c #261A10",
"o  c #25190F",
"O  c #2E2116",
"+  c #2F2218",
"@  c #34251A",
"#  c #35261B",
"$  c #3B2E23",
"%  c #3F3126",
"&  c #512D0F",
"*  c #4B270D",
"=  c #423125",
"-  c #48372A",
";  c #543823",
":  c #4B3D33",
">  c #443A33",
",  c #54453B",
"<  c #57463B",
"1  c #7D4D22",
"2  c #604C3F",
"3  c #76573D",
"4  c #4D4D4C",
"5  c #5D4E44",
"6  c #514B46",
"7  c #5D5046",
"8  c #5F544B",
"9  c #535353",
"0  c #5C5C5C",
"q  c #5B5754",
"w  c #6E5B4C",
"e  c #665547",
"r  c #715E4F",
"t  c #6D5E53",
"y  c #605954",
"u  c #705F51",
"i  c #6A625C",
"p  c #65605C",
"a  c #756355",
"s  c #796657",
"d  c #7A6759",
"f  c #7D6A5C",
"g  c #776658",
"h  c #636363",
"j  c #686665",
"k  c #6C6C6C",
"l  c #6E6A67",
"z  c #7C6D62",
"x  c #716E6C",
"c  c #7B736E",
"v  c #737373",
"b  c #7C7B7B",
"n  c #92561E",
"m  c #95581D",
"M  c #995A1E",
"N  c #825429",
"B  c #9B5D22",
"V  c #955920",
"C  c #835B36",
"Z  c #AB6523",
"A  c #AE6824",
"S  c #B36D29",
"D  c #BF7227",
"F  c #B27234",
"G  c #A16934",
"H  c #C17A34",
"J  c #96714F",
"K  c #816C5D",
"L  c #AC7C4F",
"P  c #806F61",
"I  c #847264",
"U  c #8B7666",
"Y  c #857568",
"T  c #8C7A6C",
"R  c #89776B",
"E  c #927D6D",
"W  c #947B64",
"Q  c #8C7D72",
"!  c #837C76",
"~  c #937F71",
"^  c #8F8075",
"/  c #938174",
"(  c #9A8373",
")  c #938479",
"_  c #9C897C",
"`  c #978A7F",
"'  c #A48C7B",
"]  c #A98F7E",
"[  c #A8907F",
"{  c #CF9B68",
"}  c #D1A173",
"|  c #858585",
" . c #8B8A8A",
".. c #888482",
"X. c #978A81",
"o. c #9C8D83",
"O. c #9E9187",
"+. c #9F9288",
"@. c #939293",
"#. c #9D9C9C",
"$. c #999491",
"%. c #A18F81",
"&. c #A39286",
"*. c #AC9484",
"=. c #A4968B",
"-. c #A99689",
";. c #AA998D",
":. c #B19887",
">. c #B49C8B",
",. c #B49A88",
"<. c #A59A92",
"1. c #AA9D93",
"2. c #A09E9E",
"3. c #B29F92",
"4. c #BAA18F",
"5. c #AEA197",
"6. c #AEA298",
"7. c #B4A294",
"8. c #BCA493",
"9. c #B3A69C",
"0. c #BCAA9D",
"q. c #B6A99F",
"w. c #A4A4A4",
"e. c #ACACAC",
"r. c #B5ABA3",
"t. c #BCADA2",
"y. c #B9AFA8",
"u. c #BEB0A6",
"i. c #BDB3AB",
"p. c #B4B4B4",
"a. c #BBBBBB",
"s. c #C0A694",
"d. c #C2A897",
"f. c #C3AB9B",
"g. c #C8AD9B",
"h. c #C9B09F",
"j. c #C2B2A6",
"k. c #CDB3A2",
"l. c #C3B5AB",
"z. c #CBB7A9",
"x. c #CBBAAD",
"c. c #C5B9AF",
"v. c #D2B6A4",
"b. c #D4B8A5",
"n. c #D3BBAA",
"m. c #DABEAB",
"M. c #C6BCB4",
"N. c #CBBCB2",
"B. c #C8BFB9",
"V. c #C7BFB9",
"C. c #D4BEB0",
"Z. c #E1BFA9",
"A. c #DDC1AE",
"S. c #CDC3BB",
"D. c #CFC1B7",
"F. c #D5C1B4",
"G. c #DCC3B2",
"H. c #D3C5BB",
"J. c #D8C7BC",
"K. c #E3C3AE",
"L. c #E3C5B2",
"P. c #E6C9B6",
"I. c #E6CCBA",
"U. c #E8CCBA",
"Y. c #E9D0BF",
"T. c #C3C3C3",
"R. c #CCCCCC",
"E. c #D5CAC2",
"W. c #D7CEC8",
"Q. c #D8CBC2",
"!. c #DDD3CB",
"~. c #DBD0C7",
"^. c #D3D3D3",
"/. c #DCDCDC",
"(. c #DFD6D0",
"). c #E0CFC4",
"_. c #E3D2C6",
"`. c #EBD4C4",
"'. c #E4D5CC",
"]. c #EEDACD",
"[. c #ECD7C8",
"{. c #F0DBCD",
"}. c #E4DAD3",
"|. c #ECDDD2",
" X c #E6DED9",
".X c #E8DFD8",
"XX c #F0DFD3",
"oX c #EDE4DD",
"OX c #E7E2DE",
"+X c #F1E1D6",
"@X c #F3E5DB",
"#X c #F5E8DF",
"$X c #E0E0E0",
"%X c #EAE5E2",
"&X c #F5EBE3",
"*X c #F8EDE6",
"=X c #F6EEE8",
"-X c #F8EFE9",
";X c #F7F1ED",
":X c #F9F1EC",
">X c #F9F4F1",
/* pixels */
"                                                                                                                                ",
"                                                                                                                                ",
"                                                                                                                                ",
"                                                                                                                                ",
"                                                                                                                                ",
"                                                        w w r w w                                                               ",
"                                                  r U o.7.j.N.c.r.=.R t                                                         ",
"                                              u E s._.@X&X&X&X*X-X*XoXB.) w                                                     ",
"                                            d >.L.U.XX@X@X@X@X&X&X*X:X:X=X9.a                                                   ",
"                                          s s.P.P.P.|.+X@X@X&X#X&X&XoX-X:X>Xy.a                                                 ",
"                                        r :.P.P.P.P.|.@X@X@X&X&X&X*X~.}.:X:X>X1.                                                ",
"                                        W G.P.P.P.I.[.@X@X@X@X#X&X*X@XE.-X:X>X$XR                                               ",
"                                      r 8.P.P.P.P.P.`.XX@X@X#X@X&X&X*XOX&X:X:X>X1.                                              ",
"                                      I m.P.P.P.P.P.P.[.+X@X@X#X@X&X&X*X-X-X;X&Xr.g                       4                     ",
"                                      ' P.P.P.P.m.Z.P.P.|.@X#X#X@X&X&X*X*X-X:X XV.Q                   4 4 4 4                   ",
"                                    r 8.P.P.P.L.>.] *.E K T 0.].&X&X&X&X-X=XE.` r.+.                4 9 | @.4                   ",
"                                    s k.P.P.P.L.K.L.] = . O = d c.&X&X*X@Xo.: . 5 O.              4 v p.$Xp.0 4                 ",
"                                    z m.P.P.P.P.P.P.K . . . . + : ~ _.*XB.= . . % X.              0 T.$X/.p.v 4                 ",
"                                    U I.U.P.P.P.P.m.2 . . . . . . @ ) *Xr.+ . . $ O.              k R.$X^.p.@.9                 ",
"                                    T I.U.P.P.P.P.s.- . . . . . . X u #X1.. . . $ o.            4 | ^.$Xa.p.@.9                 ",
"                                    E `.`.I.I.P.U.] # . . O . . . . u XX1.. . . $ o.            0 a.$X/.p.p.v                   ",
"                                    T _.`.I.P.P.P.( @ . . . . . . O I &X6.. . . $ X.            v ^.$XR.p.w.0                   ",
"                                    Y _.].Y.U.P.P.] = X . . . . . @ &.*Xj.@ . . > O.            @./.$Xa.p. .4                   ",
"                                    d J.|.`.`.U.P.m.( , @ . . . . - N.&Xj.5 = < =.1.          0 e.^.^.p.e.k                     ",
"                                    w j.+X].`.L.P.U.[.z.E 2 = @ # T XXE.t c.N.!.;X+.          k R.$XT.p.#.9                     ",
"                                      o.oX+X].K.K.P.`.{.].J.0.&.-.).&X%.@ 3.-X-X=X^            ./.$Xa.p.b                       ",
"                                      d F.+X].`.U.P.L.[.].XX+X+XXXXX].5 . u oX*XOXI         9 e./.^.p.e.0                       ",
"                                        ) H.|.`.U.U.P.U.[.].].+XXX&XN.$ X : }.-XW.g         k T./.T.p. .4                       ",
"                                        w 9.#X`.Y.Y.K.L.P.[.].].XXXX).7 $ Q @X-XS.          | ^./.a.p.k                         ",
"                                          &.@X+X].`.K.P.L.P.[.n.`.XXXXx.-.'.&XE.=.        9 w./.^.p.#.9                         ",
"                                          I !.#X+X[.`.U.P.K.U.4.v.`.XX@XXX&X&Xo.w         h a./.T.p.b                           ",
"                                            5.}.|.|.L.L.P.P.v./ >.P.|.XX@X|.}.1.          b ^./.a.e.j                           ",
"                                            0 b ..<.n.I.h.' o.B.~ Z.`.J.XX}.H.%.          #./.R.p.@.4                           ",
"                                              @.e.b x /     t. XI *.m.t.Q.j.~ a         0 a./.T.e.v                             ",
"                                          k j k w.#.h       f.m.f   K f f u e     V n   b ^.^.a.2.0                             ",
"                                          b e.w.@.#.b y Y d 8.*.P z a P           Z A V J N.R.p.|                               ",
"                                          0  .#.@.@.x $. XE.-.c. X}.i.S.<.      N Z D H F G W =.j                               ",
"                                          | |  .@.b t x.[.`.8.F.`.`.F.E.%Xo.    f C M S } } F B N                               ",
"                                        h w.e.b j 0 t ) ( ( f W ( ( W j.{.F.I   x ! W N M F H D A M n                           ",
"                                          q j b v 4 ) i.y.i.o.9.y.i.9.U v.L.U l c i.N.K 3 N M A D S m                           ",
"                                          ;.j.i 9 4 7.@X@X@Xq.).@X@X).K ( 8.c | =.F.j..X'.-.C n B B                             ",
"                                          1.H.T 6   K >.g.,.d ( d.d.E     i v b _ b.' 7.z.n.                                    ",
"                                          S.:X1.    Q T r Q X.) a z o.      0 h z ( E.(.t.T                                     ",
"                                          N.@X=.    6. XF.oXM.}.H.}.!.        j h Y 7.z.G.]                                     ",
"                                          d.U.]     ~ I.].I.( z.[.[.8.        h c W.}.=.U                                       ",
"                                          >.I.' e     :.n.] a %.v.s.K           ! _ C.I.(                                       ",
"                                          E 8./ ^ z   s %.5.Y u./ s           j k ; 3 ' T                                       ",
"                                        1.r.B.r.%X7.:.Y }.Q.d S.}.%.              * & ;                                         ",
"                                        l.M.~.7.|.*.~ ( `.0.  7.`.>.                                                            ",
"                                        7.8.A.*.A.*.  U g.'   R 7.o.                                                            ",
"                                        ( 4.g.] ] ( a ) x.I   h v | v                                                           ",
"                                          U I       O.E.3.    h b  .k                                                           ",
"                                                    9.*Xt.      c.H.R                                                           ",
"                                                    f.`._       k.L.I                                                           ",
"                                                  w v.b.s       >.f.t                                                           ",
"                                                8 o.0._ :     Q H.B.1.z z i                                                     ",
"                                                ) .XE.i.Q e , ) n.7.H.j.-.R                                                     ",
"                                                e ( _ x.l.-.Q > 6 , 7 , >                                                       ",
"                                                          5 :                                                                   ",
"                                                                                                                                ",
"                                                                                                                                ",
"                                                                                                                                ",
"                                                                                                                                ",
"                                                                                                                                "
};
