/* XPM */
static char *pngwing_com_resized[] = {
/* columns rows colors chars-per-pixel */
"64 64 91 1 ",
"  c #4E89B6",
". c #4F8BB8",
"X c #518DBA",
"o c #5D90B5",
"O c #5591BE",
"+ c #5B93BD",
"@ c #6393B5",
"# c #6997B7",
"$ c #6396BA",
"% c #6598BD",
"& c #6A9BBE",
"* c #7097B2",
"= c #729AB5",
"- c #7B9DB3",
"; c #739DBA",
": c #77A1BF",
"> c #7CA1BB",
", c #5793C1",
"< c #5996C3",
"1 c #5C99C6",
"2 c #5E9CC9",
"3 c #649BC3",
"4 c #6B9EC4",
"5 c #609FCB",
"6 c #6DA0C7",
"7 c #63A1CE",
"8 c #6FA3C9",
"9 c #74A2C5",
"0 c #7BA4C1",
"q c #72A4C9",
"w c #7EAACB",
"e c #66A5D1",
"r c #68A7D4",
"t c #6AA9D6",
"y c #6DADDA",
"u c #6FB0DC",
"i c #71B2DE",
"p c #74B6E1",
"a c #77B9E4",
"s c #78BBE6",
"d c #7EC1ED",
"f c #81A2B8",
"g c #8DA9BA",
"h c #92ABBA",
"j c #9AAFBC",
"k c #9CB0BC",
"l c #84A9C3",
"z c #89ADC5",
"x c #84ADCC",
"c c #94B0C3",
"v c #8EB4D1",
"b c #94B7D2",
"n c #94BAD6",
"m c #9ABBD4",
"M c #A6B9C4",
"N c #A9BAC3",
"B c #A4BBCA",
"V c #AABECA",
"C c #ADC2CF",
"Z c #B4C3CC",
"A c #B9C7CF",
"S c #ABC1D0",
"D c #A2C2D9",
"F c #ADC7D9",
"G c #B4C7D3",
"H c #B7C8D3",
"J c #BBC9D1",
"K c #B3CCDF",
"L c #83C8F3",
"P c #BBD2E3",
"I c #C1CED5",
"U c #C4D0D7",
"Y c #C5D2DA",
"T c #CAD5DB",
"R c #C4D7E5",
"E c #CADCE9",
"W c #D3DDE4",
"Q c #DBE2E6",
"! c #DDE5EA",
"~ c #DEE8F0",
"^ c #E1E7EA",
"/ c #E5EAEE",
"( c #E8EDEF",
") c #E3ECF2",
"_ c #E9EEF1",
"` c #EDF1F4",
"' c #EFF4F8",
"] c #F3F5F6",
"[ c #F3F6F8",
"{ c #F6F8FA",
"} c #FEFEFE",
/* pixels */
"                                                                ",
".. XX  X  X                                                     ",
"X X.X XXX     X X X X  .     X      .                           ",
"XXXX XXXXXXXXXXX X. .XX XX X X X   ....%O           . ..        ",
"XXXXXXXXXXXXXXXXXXXXXXXXXXXXXXXXX X+.XF]Rbx.....  ..........    ",
"XXXXOXXXXXXXXXXXXXXXXXXXXXXXXXXXXXb)mz[}}}'9.XX.  .X........    ",
"XOXOXOXXXO49OXXX4x<XXXXXXXXXXXXXX%)}{[}}}}}Ew.XX.X.XXXXXX..XX.  ",
"OOOOOOOOXm'[KwKv~{KxxOXOXXOXXXOXqW}}}}}}}}}}_4.XXXXXXXXXXXXXX.. ",
"OOOOOOOOq`}}}'}{}}}{{vXOXOOOOXO+E}}}}}}}}}}}}v.XXOXXOXXXOXXXXXXO",
",O,,O,,3D}}}}}}}}}}}}E,O,OOXOOO3_}}}}}}}}}}[(b.,OX,XOX,XXO,XOX,X",
",,,,,,w){}}}}}}}}}}}}~3O,OO,,,O4!(`]{}}{](!TH;,X,OOOOOOOo,XXOXX,",
",<,,,<E}}}}}}}}}}}}}[W3,,,,,O,O<CITW/`(^YZNh-O,,OOOO,OOO,X,OO,,X",
"<<<<,6_}}}}}}}}}}}}]QS<,,,<,,,,,>khcGUUC;*@oo,,,,,,,,,,O3D4,,O,O",
"<<<<<q~{{{}}}}}}}}[QJl<<<,<<<,<<+#+,&hh;<O,O,,,,,,,,,DP3D}P<,,,,",
"<1<1<3Z^/^(}{`//``QHz<<<<<<<<<<<<<<<,+$,<<<<<,<<,<,,8'}P)}{m,<,,",
"1<111<>VAVIQ!IZVJUJz<1<<1<<<1<<<<<<<<<<<<<<<<<<<<<<<F}}}}}}~q,,<",
"111111+-f&gNB:=%0jg4<111111<1<111<1<1<<<<<1<<<1<<<<n{}}}}}}}R<<<",
"1221122111@*&1111#$1111111111111111<1111111<11<11<<P}}}}}}}]Q3<<",
"222222212121212121122112112211211111111111111111111F^((`[{[/P61<",
"222222222222222222222122212221122221221212212111111lZJJIWQWTc<12",
"5252222222522222222222222222222222222222222222222223->ffcMc93112",
"55552727555555555272225222522222222222222222222222223111%=%22212",
"7755557555755555727252727272722725555525252222222222222222222222",
"7777777775757757772777572755572755555555552555522272227222272222",
"7777777777777777777775777577577257757555572572275552555555525555",
"777e777e777e7777777777777777777777777777777777777777775557557575",
"e7ee7eeee7e77e7e7ee77e7e7e77777777777777777777777777777777777757",
"eeeeeeeeeeeeeeeee7ee7eeee7eee7ee7ee7e7e77e7777e77777777777777777",
"eeeeeeeeeeeeeeeeeeeeeeeeeeeeeeee7ee7e7e7eee77e7ee77e7e77e7e77e77",
"erterrreeeeerreeeereeeeeeeeeeeeereeeeeereeeeeeeeee7eeeeeee7ee77e",
"tterterrrrrrrrrrrrrerrereereererreereereeereeeeeeeeeeeeeeeeeeeee",
"tttttttttttrtrtrrrrtrtrrrrrrrrrrrrrrrrrrrererererreeeeeeeeeeeeee",
"tttttttttttttttttttttttttrtrtrtrrrtrrrrrrtrrrrrrrrrrrrrrrrrrrrer",
"tytttyttttyttytttttttttttttttttttttttttttttrtttttrrtttrrrrrrrrrr",
"uttyyytyutttyttttutttutttttuttttttttttttttttttttttttttttttttttrr",
"yuyutyytyyyytuytututyttututtututtyytytyttytttttttttttttttttttttt",
"uyyuyyuyutuytutyttuyutututututttyttyytytttuttytyytytyttttttttttt",
"uyyuuuyuyuyuuuuuuutuuttutuuutuuuuyutyyyuuttuututtutytyytutuytuty",
"uuuuuuuuuuuuuuuuuuuuuyuuutuutuuuuyyuyyyuyyyyyytuutututuyyyytutut",
"uuuuiuuuuuuuuuuuuuuuuuuuuuuuuuuuuuyuuuyuyuuyuuuuuuuyuuyyyuyyyyuu",
"pupuuuuuuuupuuuuuupuuuuuuuuuuuuuuuuuuuuuuuuuuuuuuuuuyuuuuyuuuyuy",
"ppuupppppupuuppuupuuupupuppuupiuuuuuuuuupuuuuuuuuuuuuuuuuuuuuuuu",
"puppuppuuppppupupupppupuuuuppupiuppuupuuupuppupupuuuuuupuuuuuuuu",
"pppppppppppppppppppuupppppppuppupupppupppupuupuupuupupuuiipupupu",
"pppppppppppppppppppppppppppppppppppppppppupppupppppupuppuppuuupu",
"apaapppaappapapppapppppppppppppppppppppppppppppppupppppupupppppp",
"aaapaaaapapaaaapapppapppapapppppppppppppppppppppppppppppppppippp",
"assaaaaaasaaaaaaaaaaaaaapaapspapppapppapppappppppppppppppppppppp",
"ssssassassaasasasaspsapsspsapsaaspspspaaspspspappapappapapppappp",
"ssssssssssssssssspsssssssasssssasassaaspaaaaaaaaaaaaaaaaaaaaaaaa",
"addassdsssssdssssddssssssssssssssssssssssssasssasasaasaasaaaaasa",
"dssddsssdsdssssdsssssdssdssssssasssssssasssssssssssssssasssassas",
"sddsdsdssddsdsdsssdsssdssddssdsddsssssddssdssssssdsssdassasssass",
"sdsdddsddsdssdsddsdsddsddsssdssdsdsdsdssdsdssddssssassdssdsasdss",
"ddddddsdddddsdddddddddddddsdsdssdsdsdssddssdssddddsddsdsdssdssds",
"ddddddddddddddddsddsddddsdddddddddddsddsdddsdddddsdsdssdsddsddsd",
"ddddLdddddddLdddddddddddddddddddddddddddddddddddddddddddddsddsds",
"LLdddddLdddddddLddLdddLddddddddddddddddddddddddddddddddddddddddd",
"dLdLLdddddLddLdLLdLdLdddLdddLddddddddddddddddddddddddddddddddddd",
"LdLdLLLddddLLdLddLdddLLddLLddLddddddLdddddLdddddddddddLddddddddd",
"LLLdLdLLLLLLLdLddLLLdLdLLdLddLLLLddLLdLddLddLdLdddLddLddLddddddd",
"LLLLLLLLLdLLLLLLLLLdLLLdLLLLLddLdLLddLLLLdLLLdLddddLdLLdddLLdddL",
"LLLLLLLLLLLLLLLLLLLLLLLLLLLLLLLLLLLLLdLLdLLLLdLLLLLLLddLLLLdLdLd",
"LLLLLLLLLLLLLLLLLLLLLLLLLLLLLLLLLLLLLLLLLLLLLLdLLdLLLLLLdLLdLLLL"
};
