/* XPM */
static char *space_man_resized[] = {
/* columns rows colors chars-per-pixel */
"64 64 200 2 ",
"   c None",
".  c #1D1C1B",
"X  c #221613",
"o  c #251916",
"O  c #261C19",
"+  c #2A1F1C",
"@  c #2C221E",
"#  c #2E2217",
"$  c #2E2421",
"%  c #2A2927",
"&  c #2C2C2A",
"*  c #262523",
"=  c #302623",
"-  c #312924",
";  c #342D2A",
":  c #392F2C",
">  c #34312D",
",  c #39332D",
"<  c #3D3120",
"1  c #363433",
"2  c #3A3534",
"3  c #3C3A32",
"4  c #3D3A3A",
"5  c #471B18",
"6  c #591A1A",
"7  c #453A2C",
"8  c #413B36",
"9  c #443D3B",
"0  c #413735",
"q  c #45443C",
"w  c #49433E",
"e  c #46483E",
"r  c #45443B",
"t  c #55433B",
"y  c #61583F",
"u  c #624C3E",
"i  c #6E633E",
"p  c #776C3E",
"a  c #464443",
"s  c #4C4544",
"d  c #4C4B44",
"f  c #4E4949",
"g  c #414942",
"h  c #504B47",
"j  c #524D4C",
"k  c #4E5145",
"l  c #4D544A",
"z  c #54534D",
"x  c #545A4D",
"c  c #58584F",
"v  c #505347",
"b  c #545250",
"n  c #595553",
"m  c #5A5C53",
"M  c #5D5A59",
"N  c #555E51",
"B  c #625D5C",
"V  c #7E5C50",
"C  c #69504B",
"Z  c #5B6254",
"A  c #5F6859",
"S  c #5F6259",
"D  c #7A724C",
"F  c #63625D",
"G  c #636C5D",
"H  c #676255",
"J  c #7C7555",
"K  c #6C644C",
"L  c #666362",
"P  c #6A6565",
"I  c #6D6B6A",
"U  c #686864",
"Y  c #716D64",
"T  c #716F6E",
"R  c #667161",
"E  c #6A7565",
"W  c #6D7969",
"Q  c #6F746A",
"!  c #7F7A63",
"~  c #75726B",
"^  c #7B776A",
"/  c #717D6D",
"(  c #7D796D",
")  c #767265",
"_  c #757473",
"`  c #797774",
"'  c #767E71",
"]  c #7B7872",
"[  c #7D7C7B",
"{  c #A7191E",
"}  c #BC1D1F",
"|  c #B01A20",
" . c #A61B20",
".. c #932F24",
"X. c #862B21",
"o. c #B63027",
"O. c #C3161D",
"+. c #A54B46",
"@. c #81685C",
"#. c #916A5E",
"$. c #847D5B",
"%. c #877D4B",
"&. c #827B65",
"*. c #827D6C",
"=. c #867264",
"-. c #817D73",
";. c #807F7E",
":. c #72816E",
">. c #758572",
",. c #798976",
"<. c #7C8D7A",
"1. c #798876",
"2. c #7E907C",
"3. c #958D53",
"4. c #9C9358",
"5. c #8D8555",
"6. c #A99E52",
"7. c #B6AE58",
"8. c #AFA759",
"9. c #8A8467",
"0. c #9A9368",
"q. c #81817F",
"w. c #8E8372",
"e. c #908973",
"r. c #80927E",
"t. c #949173",
"y. c #A49C6A",
"u. c #A79D60",
"i. c #A29B74",
"p. c #BDB46B",
"a. c #AAA372",
"s. c #B4AD70",
"d. c #C6BE5F",
"f. c #C0B560",
"g. c #C4BC7D",
"h. c #CAC15D",
"j. c #DCD366",
"k. c #D4CD7E",
"l. c #D5CD71",
"z. c #E3DB6A",
"x. c #E5DC77",
"c. c #848384",
"v. c #888787",
"b. c #878788",
"n. c #8A8A8A",
"m. c #8D8B87",
"M. c #908F8F",
"N. c #839582",
"B. c #859A84",
"V. c #889C87",
"C. c #8F908F",
"Z. c #899D88",
"A. c #879D88",
"S. c #91908F",
"D. c #9C9C87",
"F. c #939393",
"G. c #9B9C9C",
"H. c #979798",
"J. c #8CA48D",
"K. c #90A78F",
"L. c #8EA690",
"P. c #91A590",
"I. c #92AB93",
"U. c #99AE99",
"Y. c #96B097",
"T. c #96B299",
"R. c #99B49B",
"E. c #9BB89E",
"W. c #B0B799",
"Q. c #9E9FA0",
"!. c #9FA0A0",
"~. c #9EBBA1",
"^. c #A0A1A1",
"/. c #A1BDA3",
"(. c #A5B6A4",
"). c #A2C1A6",
"_. c #A6C6AA",
"`. c #A8C5AB",
"'. c #AACAAE",
"]. c #A7C8AC",
"[. c #ACCDB0",
"{. c #B1CCB4",
"}. c #B5CAB6",
"|. c #B5D2B8",
" X c #DCD486",
".X c #DBD498",
"XX c #CEC88F",
"oX c #E6DF91",
"OX c #F9F288",
"+X c #EEE892",
"@X c #E6E09D",
"#X c #F8F294",
"$X c #E3DEAE",
"%X c #F8F3AA",
"&X c #FBF6B5",
"*X c #E7E2AD",
"=X c #BFD8C1",
"-X c #C2DCC5",
";X c #C5DFC8",
":X c #FEFAC0",
/* pixels */
"                                                                                    > N G k                                     ",
"                                                                                  $ <.).].`.F                                   ",
"                                                                                  r I.'.'.|.(                                   ",
"                                                                              Z <.<.Z 2.K.>.,                                   ",
"                                                                        e E B.N.E r     @ > A :.Z                               ",
"                                                                    N <.Z.1.x           @ :.E./.).c                             ",
"                                                              r E N.N.E e               , G I.E.I.d                             ",
"                                                            k K.<.N               3 l Z e @ k N w                               ",
"                                                          3 K.:.              e x x e                                           ",
"                                                        = <.B.;         - e x l 3                                               ",
"                                                        R I.3   - , , 3 e c w $                                                 ",
"                                                      z ~.r.E r.J.I.R././.}.}.v                                                 ",
"                                                , z :.R.[.'.[.[.'.'.'.'.'.-X=Xw                                                 ",
"                                            r W I._.[.'.'.'.'.'.'.'.'.'.'.-X}.,                                                 ",
"                                        e 1.~.'.'.'.'.'.'.'.'.'.'.'.'.'.'.-X(.=                                                 ",
"                                    , W ~.'.'.'.'.'.'.'.'.].'.'.'.'.'.'.'.;XP.O                                                 ",
"                                O d J._.'.'.'.'.'.'.'.'.'.'.'.'.'.'.'.'.'.;Xq.X                                                 ",
"                              O A R.).).'.'.'.'.'.'.'.'.'.'.'.'.'.'.'.'.'.;XE                                                   ",
"                              O >.)./.).'.'.'.'.'.'.'.'.'.'.'.'.'.'.'.'.{.-Xc                                                   ",
"                                k E./.).].'.'.'.'.'.'.'.'.'.'.'.'.'.'.'.|.|.w                                                   ",
"                                @ J.)./.].'.'.'.].].[.'.'.'.'.'.'.'.'.].{.}.,                                                   ",
"                                  G /./.].'.'.'.[.].'.'.'.'.'.'.'.'.'.'.{.P.@                                                   ",
"                                  3 Y./._.'.'.'.[.].].].[.[.[.'.'.'.'.{.|.R.N                                                   ",
"                                  # >.)._.].E.J.2.1.:.>.,.L.).'.'.'.'.'.'.|.m.$                                                 ",
"                                    l E.)._.Y.Z.<.<.r.<.,.>.>.L._.'.'.'.'.I.z 9                                                 ",
"                                    - J.)._.K.S m n n n M U ' N.Y.'.'.'.).l f n O                                               ",
"                                    X R ).].' L I a 4 4 4 4 a b ,.].].'.,.& a f O                                               ",
"                                      r T.]./ z b 9 1 1 1 1 1 4 ; >.'._.g 1 9 q o                                               ",
"                                      + ,.].Z.a 4 1 1 4 1 1 1 1 * 1 R.Y.& 1 4 &                                                 ",
"                                        x )._.G 1 1 1 1 1 4 1 1 . . N.T.& 1 ; O                                                 ",
"                                        ; K.'.E.N % & & > & % . . % L.[.:.; o                                                   ",
"                                        X E ].'.).,.g * . . . . > >.].[.`.9                                                     ",
"                                          e /.'.'.'.E.J.>.W :.2.R.].].[.(.,                                                     ",
"                                          @ N.'.'.'.]./.R.].'.[.[.[.[.[.U.=                                                     ",
"                                            Z ].'.'.].D.&.B.Y.)._.].].[.Z.O                                                     ",
"                                            , Y.'.].).D.+.=.J._.].].].|.1.X                                                     ",
"                                            O ,.'.'.].].W.I.~.'.'.'.'.{.B                     5 6                               ",
"                                              x ).'.'.].[.'.'.'.'.'.).:.@                   6 } O...                            ",
"                                              , Y.'.'.'.'.`.E.K.J.:.r O                     5 { } X.                            ",
"                                              O ,.'.'.'.'.'.`.).E.I.E c x r ,           @ Z G t 5                               ",
"                                                m '.'.'.'.'.'.'.'.'.].r.:.,.>.,.:.E A k k J.E.Y.m                               ",
"                                                r R.Y.~.'.'.'.'.'.'.'.Y., ; r e N G E R >.J.Y./.Z.=                             ",
"                                                x U.V./.'.'.'.'./.w.#.e.k             # E I.E.)./ O                             ",
"                                              - >.Y.J.~.'.'.'.'.@.{ O.o.u @             w / r./ ,                               ",
"                                              k Y.J.Y.P.'.'.'.].@.{ O.o.*.e             h +                                     ",
"                                        @ $ @ >.'.J.R.K.I.)./.Y.r.C V t.`.>.= 2 , , = 9 0 # 7 7                                 ",
"                        $ : 9 7 p y.4.K m n z R.'._.K.U.R.K.P.`.R.J.I.K.[.~.n I ;.[ P B y 6.g.s.K : : @                         ",
"                : w b L _ [ [ D  X@Xx.f.H M W _.'.'.`.R.I.~.'.[.'.[.R.I.].[.<.B b.c.P P %..XoXj.6.Y [ T B z 9 ,                 ",
"        + 2 j P ` [ c.b.n.b.b.~ e.i.4.$.Y n K.).].].'.[.].I.K.R.~.I.I._.].[.~.A ` ` B [ ] *.w.&.! v.n.n.n.b.[ _ L h , O         ",
"    + s Y c.n.*.0.i.0.] b.C.n.n.v.q.;.c.T G R.)._._.].].'.'.r.>.U.E.].]._.).~.N.M ;.n.n.n.n.v.b.n.n.n.n.] 9.i.y.*.c.c.P 9 O     ",
"  = Y H.^.!.;.7.%X#X#Xf.-.G.G.G.G.G.G.G.F.q./ ~ :.<.A.J.I.K.~ N.Y.K.Z.r.1.W Q ] n.F.H.G.G.G.Q.H.G.G.G.n.3.+X%XOX X9.G.G.H.B +   ",
"X B ^.^.!.^.^ 8.$XoXj.7.*.^.G.!.G.S.M.S.G.G.H.n.[ P B m h j n h j v n F _ b.F.G.G.G.G.G.H.F.H.U.!.G.!.v.3..X@Xz.h.$.G.G.^.G.j X ",
"o M F.n.F.n.n._ ] *.! ] n.b.n.b.&.s.W.s.*.c.n.n.n.n.G.Q.F.P ) -.] c.n.n.n.n.n.n.n.n.;.&.i.y.w.[ n.n.n.n.[ ] -.&.^ b.C.n.F.n.j X ",
"X = L c.n.n.n.n.b.b.b.n.n.n.n.Y f.&XOXOXl.~ n.b.n.H.Q.Q.n.4.XX Xs.9.c.n.b.n.n.n.n.c.J x.&XOX+X3.;.n.v.n.n.n.b.b.n.n.n.n.q.B @ X ",
"    $ s I ;.b.n.n.n.n.n.b.n.n.Y 0.XXk.h.4.Y b.n.S.Q.Q.G.@.x.:XOXOX7._ n.n.v.n.v.n.;.D XX*Xz.j.5.] n.n.n.v.n.n.n.b.b.[ P 9 +     ",
"      X $ 8 b I [ ;.c.c.n.n.n.n.[ ` ( ( [ v.n.n.G.U.Q.Q.-.0.W.f.8.9.[ n.n.v.n.n.n.n.[ ~ -.&.) [ n.n.n.n.v.c.;.` P j 0 @ o       ",
"            O = 2 a b P Y _ [ ;.c.b.b.n.b.n.n.H.^.^.^.^.Q.F.C.C.S.G.H.n.n.b.n.n.b.n.n.b.b.b.b.c.;.[ _ T B b w , $ O             ",
"                    O @ : b b b n B B P I T _ ;.b.b.b.n.C.C.C.C.n.S.n.c.[ [ [ ` _ T T I P B M n b j j ; + O                     ",
"                        o B ;.` P B n j j j f s s s f f f f j j j j j j f f a a f j j j b n B I ` ;.n O                         ",
"                          @ b ;.M.S.n.;._ _ I B b b j b j j j j j j j j j b b n I T T ` ;.n.F.C.;.b +                           ",
"                            O , B [ F.G.H.F.n.;.I B B M M n M n M n n B M M L ` c.n.F.H.G.F.[ B , o                             ",
"                                o ; s F ;.F.Q.^.Q.F.b.c.;.;.` [ ` [ [ ;.c.n.G.^.^.G.C.;.L s - O                                 ",
"                                      O = 0 j B T ;.b.b.n.n.n.b.b.b.c.c.n.c.[ I m s 0 = o                                       ",
"                                                o @ = 2 0 9 9 a 0 0 9 2 : = + o                                                 "
};
